<svg xmlns="http://www.w3.org/2000/svg" viewBox="0 0 500 500"><g id="freepik--background-complete--inject-1038"><path d="M263.45,144.87c4.77,0,123.93-.83,157.58-.83,2.36,0-.62-4.07-1.92-4.36-4.14-.9-8.45-1-12.65-1.38a41.18,41.18,0,0,1-12.06-3c-3.31-1.39-6.62-3-10.21-3.57-6.93-1.09-13,2.67-19.52,4.33a14.7,14.7,0,0,1-11.82-1.62c-3-1.8-5.74-4-8.88-5.56A48.79,48.79,0,0,0,305,127.07a45.56,45.56,0,0,0-8.51,4.36c-3.18,2.08-5.92,4.75-9.1,6.81-7.06,4.57-15.79,3.08-23.48,5.7C263.51,144.08,263,144.87,263.45,144.87Z" style="fill:#ebebeb"></path><path d="M122.37,78.7c6.31,0,112.55.69,119.22.48.48,0,.74-.72.26-1-4.21-2.09-9-1.67-13.35-3.14-2.58-.87-4.16-2.55-5.94-4.48A12.33,12.33,0,0,0,217,67a11.71,11.71,0,0,0-6-.19c-2.16.51-4,1.75-6.08,2.53-5.11,1.92-10.07.09-13.71-3.68-3-3.12-6-6-10-7.73a13.33,13.33,0,0,0-10.65-.15c-3.89,1.77-6.57,5.32-10.23,7.45-4.33,2.54-9.52,1.94-14.32,2.7s-8.47,4.81-12.67,7.13a9,9,0,0,1-4.58,1.42c-.94,0-1.86-.28-2.79-.4-1.45-.17-2.82-.13-3.79,1.07C121.91,77.45,122,78.7,122.37,78.7Z" style="fill:#ebebeb"></path><path d="M50.27,241c6.31,0,112.54.7,119.22.49.48,0,.74-.72.26-1-4.21-2.08-9-1.66-13.36-3.13-2.57-.87-4.15-2.55-5.94-4.48a12.3,12.3,0,0,0-5.52-3.61,11.61,11.61,0,0,0-6-.19c-2.16.51-4,1.75-6.08,2.52-5.11,1.93-10.07.1-13.71-3.68-3-3.11-6-6.05-10.05-7.72a13.31,13.31,0,0,0-10.64-.15c-3.89,1.77-6.57,5.32-10.23,7.45-4.34,2.54-9.53,1.94-14.32,2.7s-8.47,4.8-12.67,7.13a9.06,9.06,0,0,1-4.58,1.42c-.94,0-1.86-.28-2.79-.4-1.45-.18-2.82-.13-3.8,1.07C49.81,239.74,49.86,241,50.27,241Z" style="fill:#ebebeb"></path><path d="M37.58,103.35c4.61,0,82.17.51,87,.36.35,0,.54-.53.19-.7-3.07-1.52-6.56-1.22-9.75-2.29a10.44,10.44,0,0,1-4.33-3.27,9,9,0,0,0-4-2.64,8.6,8.6,0,0,0-4.39-.14,38.3,38.3,0,0,0-4.45,1.85c-3.72,1.4-7.34.07-10-2.69-2.2-2.27-4.35-4.42-7.34-5.64a9.72,9.72,0,0,0-7.77-.11C69.9,89.37,68,92,65.28,93.52c-3.17,1.85-7,1.42-10.46,2S48.64,99,45.57,100.7a6.56,6.56,0,0,1-3.35,1,19.84,19.84,0,0,1-2-.29,2.77,2.77,0,0,0-2.77.79C37.24,102.44,37.28,103.35,37.58,103.35Z" style="fill:#ebebeb"></path><path d="M162,167.37c4.61,0,82.17.51,87,.36.35,0,.54-.53.19-.7-3.07-1.52-6.56-1.21-9.75-2.29a10.28,10.28,0,0,1-4.33-3.27,9.11,9.11,0,0,0-4-2.64,8.49,8.49,0,0,0-4.39-.13,36.57,36.57,0,0,0-4.45,1.84c-3.72,1.41-7.34.07-10-2.69-2.2-2.27-4.35-4.41-7.34-5.64a9.72,9.72,0,0,0-7.77-.1c-2.84,1.28-4.79,3.88-7.46,5.44-3.17,1.85-7,1.41-10.46,2s-6.18,3.5-9.25,5.2a6.57,6.57,0,0,1-3.35,1c-.68,0-1.36-.21-2-.29a2.79,2.79,0,0,0-2.77.78C161.67,166.46,161.71,167.37,162,167.37Z" style="fill:#ebebeb"></path><path d="M375.27,183.79c4.61,0,82.17.51,87,.35a.38.38,0,0,0,.19-.7c-3.07-1.52-6.56-1.21-9.75-2.29a10.28,10.28,0,0,1-4.33-3.27,9,9,0,0,0-4-2.63,8.49,8.49,0,0,0-4.39-.14,38.24,38.24,0,0,0-4.45,1.84c-3.72,1.41-7.34.07-10-2.68-2.2-2.28-4.35-4.42-7.34-5.64a9.72,9.72,0,0,0-7.77-.11c-2.84,1.29-4.79,3.88-7.46,5.44-3.17,1.85-7,1.41-10.46,2s-6.18,3.51-9.25,5.2a6.57,6.57,0,0,1-3.35,1,19.84,19.84,0,0,1-2-.29,2.79,2.79,0,0,0-2.77.78C374.93,182.88,375,183.79,375.27,183.79Z" style="fill:#ebebeb"></path><path d="M37.59,438.8c-.57-.24-.82.7-.25.94a3.15,3.15,0,0,1,1.83,3.8.48.48,0,0,0,.93.26A4.13,4.13,0,0,0,37.59,438.8Z" style="fill:#ebebeb"></path><path d="M41.84,437.89a7.37,7.37,0,0,0-.56,4.29c.09.62,1,.36.93-.26a6.33,6.33,0,0,1,.46-3.54C42.92,437.82,42.09,437.32,41.84,437.89Z" style="fill:#ebebeb"></path><path d="M397.54,444.92c-.58-.24-.83.7-.26.93a3.14,3.14,0,0,1,1.83,3.81.49.49,0,0,0,.94.26A4.15,4.15,0,0,0,397.54,444.92Z" style="fill:#ebebeb"></path><path d="M401.78,444a7.52,7.52,0,0,0-.56,4.29c.1.61,1,.35.94-.26a6.23,6.23,0,0,1,.46-3.54C402.87,443.93,402,443.44,401.78,444Z" style="fill:#ebebeb"></path><path d="M132.05,439.61c-.58-.24-.83.69-.26.93a3.15,3.15,0,0,1,1.83,3.81.49.49,0,0,0,.94.25A4.14,4.14,0,0,0,132.05,439.61Z" style="fill:#ebebeb"></path><path d="M136.29,438.7a7.44,7.44,0,0,0-.56,4.29c.1.61,1,.35.93-.26a6.24,6.24,0,0,1,.47-3.54C137.38,438.62,136.54,438.13,136.29,438.7Z" style="fill:#ebebeb"></path><path d="M189.11,458.34c-.55-.3-1,.54-.49.83a3,3,0,0,1,1.6,2.94c-.05.62.92.62,1,0A3.9,3.9,0,0,0,189.11,458.34Z" style="fill:#ebebeb"></path><path d="M192,456.82c-.29-.55-1.13-.06-.83.49a7.78,7.78,0,0,1,.91,4.15c0,.62.94.62,1,0A8.62,8.62,0,0,0,192,456.82Z" style="fill:#ebebeb"></path><path d="M194.24,457.46a5.09,5.09,0,0,0-.61,3.1c.07.61,1,.62,1,0a4.17,4.17,0,0,1,.48-2.61C195.38,457.41,194.54,456.92,194.24,457.46Z" style="fill:#ebebeb"></path><path d="M457,433.66c-.55-.29-1,.55-.49.84a3,3,0,0,1,1.6,2.94c-.05.62.92.62,1,0A3.92,3.92,0,0,0,457,433.66Z" style="fill:#ebebeb"></path><path d="M459.83,432.15c-.29-.55-1.13-.06-.83.49a7.74,7.74,0,0,1,.91,4.14c0,.63.94.63,1,0A8.6,8.6,0,0,0,459.83,432.15Z" style="fill:#ebebeb"></path><path d="M462.08,432.79a5.07,5.07,0,0,0-.61,3.1c.07.61,1,.62,1,0a4.17,4.17,0,0,1,.48-2.61A.49.49,0,0,0,462.08,432.79Z" style="fill:#ebebeb"></path><path d="M264.4,454.13a.49.49,0,0,1,.49.84,4,4,0,0,0-1.95,3.66c0,.62-.94.62-1,0A4.94,4.94,0,0,1,264.4,454.13Z" style="fill:#ebebeb"></path><path d="M260.85,456.46c.11.65.22,1.3.34,2s-.83.87-.94.25l-.33-2C259.81,456.1,260.75,455.84,260.85,456.46Z" style="fill:#ebebeb"></path><path d="M78.66,459.65a.48.48,0,0,0-.49.83,4,4,0,0,1,2,3.66c0,.62.93.62,1,0A4.9,4.9,0,0,0,78.66,459.65Z" style="fill:#ebebeb"></path><path d="M82.21,462c-.12.65-.23,1.3-.34,1.95s.83.87.94.26l.33-1.95C83.25,461.62,82.31,461.35,82.21,462Z" style="fill:#ebebeb"></path><path d="M96.76,466.39c-.48-.39-1.17.29-.69.69a4.48,4.48,0,0,1,1.68,3.79c0,.63.94.63,1,0A5.43,5.43,0,0,0,96.76,466.39Z" style="fill:#ebebeb"></path><path d="M377.77,460.8c.48-.39,1.17.29.68.69a4.53,4.53,0,0,0-1.67,3.8c0,.62-.94.62-1,0A5.43,5.43,0,0,1,377.77,460.8Z" style="fill:#ebebeb"></path><path d="M341.85,443.74a5.73,5.73,0,0,0-1.54,5.13c.11.62,1,.36.93-.25a4.73,4.73,0,0,1,1.29-4.19C343,444,342.28,443.3,341.85,443.74Z" style="fill:#ebebeb"></path><path d="M338.31,444.28v3.25a.49.49,0,0,0,1,0v-3.25A.49.49,0,0,0,338.31,444.28Z" style="fill:#ebebeb"></path><path d="M343.5,445.3a3,3,0,0,0-1.37,2.64c0,.62,1,.62,1,0a2,2,0,0,1,.89-1.8C344.51,445.79,344,445,343.5,445.3Z" style="fill:#ebebeb"></path><path d="M241.06,443.34a5.78,5.78,0,0,0-1.54,5.13c.11.62,1,.36.94-.25a4.73,4.73,0,0,1,1.29-4.19C242.18,443.58,241.5,442.9,241.06,443.34Z" style="fill:#ebebeb"></path><path d="M237.53,443.88v3.25a.49.49,0,0,0,1,0v-3.25A.49.49,0,0,0,237.53,443.88Z" style="fill:#ebebeb"></path><path d="M242.72,444.9a3,3,0,0,0-1.37,2.64c0,.62,1,.62,1,0a2,2,0,0,1,.89-1.8C243.73,445.39,243.24,444.55,242.72,444.9Z" style="fill:#ebebeb"></path></g><g id="freepik--Mountains--inject-1038"><path d="M472.18,428.22s-53.66-107-64.6-116.6c-8.34-7.32-31.78-68.36-48.76-111-2.06-5.17-9.89-.93-11.77-5.71-6.35-16.18-11.5-29.61-14.16-36.53-5.42-14.11-36.66-7.6-41.76,0-2.63,3.9-21.16,61.48-33,88.77-3.79,8.77-28.69,14.37-38.91,18.86-9.88,4.34-36.4,87.16-44.07,93.18-42.42,33.25-52.9,63-61.33,69H472.18Z" style="fill:#FFA52E"></path><path d="M472.18,428.22s-53.66-107-64.6-116.6c-8.34-7.32-31.78-68.36-48.76-111-2.06-5.17-9.89-.93-11.77-5.71-6.35-16.18-11.5-29.61-14.16-36.53-5.42-14.11-36.66-7.6-41.76,0-2.63,3.9-21.16,61.48-33,88.77-3.79,8.77-28.69,14.37-38.91,18.86-9.88,4.34-36.4,87.16-44.07,93.18-42.42,33.25-52.9,63-61.33,69H472.18Z" style="fill:#fff;opacity:0.4"></path><path d="M472.18,428.19v0l0,0Z" style="opacity:0.4"></path><path d="M472.18,428.19v0l0,0Z" style="opacity:0.2"></path><path d="M472.16,428.19H258.7c12.9-14.19,40.38-44.91,42.78-51.51,3.15-8.64,7.25-71.14,8.42-79.42s23-57.81,23.94-66.73-2.71-73.88-2.78-75.21v0s0,0,0,.06a1.68,1.68,0,0,1,.24.28,2.56,2.56,0,0,1,.26.36l.26.36c.07.12.15.23.22.36l.24.42c0,.06.06.1.09.17s.13.25.19.39.08.17.11.26a3.93,3.93,0,0,1,.18.43c.12.33.25.66.39,1l.43,1.11c.14.37.3.77.45,1.18s.32.82.48,1.26c2.89,7.47,7.25,18.82,12.41,32a4.3,4.3,0,0,0,.23.48,2,2,0,0,0,.25.39,2.74,2.74,0,0,0,.34.41,2.17,2.17,0,0,0,.29.24s.7,31.32.55,34.1-6.46,22.66-6.84,27,.57,20.93,0,24.49c-.35,2.06-6.65,23.82-8.31,29.15-.46,1.44,4.53.5,4.67.5.63,0,6.53-19.35,7.66-20.73s2.07-27.4,2.86-29.37,8.47-23.5,9.47-25.88.63-35,.63-35c3.19,8,6.61,16.63,10.1,25.45.87,2.2,1.75,4.42,2.63,6.62.3.73.59,1.48.89,2.23.8,2,1.61,4.07,2.43,6.09l3.32,8.25c.55,1.37,1.1,2.73,1.66,4.09s1.09,2.68,1.64,4,1.09,2.67,1.63,4c2.16,5.27,4.29,10.33,6.34,15.12.51,1.2,1,2.38,1.53,3.53,3.88,8.93,7.45,16.66,10.45,22.31.49.92,1,1.79,1.43,2.6.31.56.62,1.08.92,1.58.18.31.36.61.54.89.53.85,1,1.61,1.51,2.25,0,0-18.82,23.17-21.6,29.74s-9.54,48.27-11.71,53.06-16.64,24-16,25.51,27.31-7.78,30.33-16.78,9.48-43.11,12.46-47.74c2.28-3.54,13.14-19,19-26.33C443.51,370,471.09,426.65,472.16,428.19Z" style="opacity:0.1"></path><path d="M268.62,323.28c-.82,1.05-16.11-5.83-17-6.3s-5.89-21.29-6.86-20.92-13.61-5.74-15.31-8.42-6.12-22.83-6.12-22.83h0l4.16-1.86c9.45-3.21,21.74-7.06,27.66-12.06.32,4.34,1.85,25.57,1.56,28.89-.32,3.71-2.82,12.31-2.07,15S269.45,322.23,268.62,323.28Z" style="opacity:0.1"></path><path d="M389.66,428.2s-92.83-33.43-104.59-37.79c-7.49-2.78-42.13-48.46-65.76-74.72-1.83-2-10.93-.23-12-1-9.53-6.74-16.83-18.73-22.68-18.73-6.38,0-55.25,75.25-60.34,81.58S91.62,406.69,83.1,409s-32,19.2-32,19.2Z" style="fill:#FFA52E"></path><path d="M389.66,428.2s-92.83-33.43-104.59-37.79c-7.49-2.78-42.13-48.46-65.76-74.72-1.83-2-10.93-.23-12-1-9.53-6.74-16.83-18.73-22.68-18.73-6.38,0-55.25,75.25-60.34,81.58S91.62,406.69,83.1,409s-32,19.2-32,19.2Z" style="fill:#fff;opacity:0.2"></path><path d="M192,379.81c-1.18-1.05-1.56-13.37-1.92-15.59s-17-21.73-17.17-24.53,11.68-43.75,11.68-43.75c-6.38,0-55.25,75.25-60.34,81.58-.32.39-.72.85-1.2,1.37l-.79.81c-1,1-2.18,2.15-3.54,3.41l-1.22,1.1c-.62.57-1.27,1.16-2,1.75-.45.39-.91.8-1.39,1.2L112,389l-1.51,1.27c-1.53,1.27-3.11,2.56-4.72,3.84A166.79,166.79,0,0,1,89,406.18l-1.26.73-1.18.65q-.87.45-1.62.78c-.34.15-.65.27-1,.39s-.59.2-.85.27a16.12,16.12,0,0,0-1.77.6c-.32.12-.65.26-1,.41l-1.06.48-1.12.54-1.18.6c-.79.42-1.63.87-2.47,1.35s-1.73,1-2.61,1.5l-2,1.2-.67.41-1.34.84-.67.42c-.46.28-.9.56-1.34.85-7.77,4.95-14.8,10-14.8,10H254.49C234,412.61,192.86,380.59,192,379.81Zm-46.52-3.69c-.67-.25-5.1-6.86-5.72-7.09s-2-5.43-1.62-5.68a20,20,0,0,1,2.71-1.4c.33-.06,2.12,3.2,2.44,3.2s6.49,0,7.08.49,5.3,9.65,5.11,10.48C155.23,377.2,146.13,376.36,145.48,376.12Z" style="opacity:0.1"></path></g><g id="freepik--trees-2--inject-1038"><path d="M38.64,428.22H99.19L92.1,397a40.23,40.23,0,0,1-19.34-6l18.76,3.49-8.65-38.22a34.62,34.62,0,0,1-7.71-4.91l7.1,2.25-1.15-5.09a36.71,36.71,0,0,1-10.68-7.07l9.95,3.89L68.92,294.68l-6.48,28.58,5.82-1.45A42.89,42.89,0,0,1,62,325.29l-9.29,40.95,6.74-1.68a44.86,44.86,0,0,1-7.24,3.93l-6.44,28.35,13.15-3.27a48.32,48.32,0,0,1-13.83,6.25L44,404.75l20.21-5a48,48,0,0,1-20.79,7.58l-1.6,7.07,6.73-1.68a44.05,44.05,0,0,1-7.24,3.92Z" style="fill:#455a64"></path><path d="M49.78,387.76c3.35,1.28,15.75,6.33,18.43,7.81,0-.57,0-1.13,0-1.7-3-1.76-6-3.5-9-5.25a104.49,104.49,0,0,1-9.68-5.75c-.15-.11-.06-.41.14-.33a81,81,0,0,1,9.47,5.24c3.05,1.78,6.07,3.63,9.07,5.49,0-4.32,0-8.64.06-13a103.69,103.69,0,0,1-14.14-7.18c-.15-.1,0-.38.13-.31a104.66,104.66,0,0,1,14,6.91c0-2.24-.07-19.53.49-41.43-2.94-1.48-6-2.79-8.91-4.28-.19-.1-.06-.44.15-.36,3,1.17,5.86,2.55,8.78,3.84.16-6,.39-11.93.75-17.88a.16.16,0,0,1,.31,0c.41,11.07.38,32.49.24,43.58,3-2.44,6.3-4.59,9.4-6.95.12-.09.24.11.12.2-3.25,2.47-6.28,5.21-9.53,7.66,0,.63,0,1.26,0,1.88,3.3-1.51,6.65-2.91,10-4.34.26-.12.5.26.23.39-3.4,1.63-6.79,3.29-10.24,4.83-.08,5.49-.57,25.3-.78,34.88q9.36-4.72,18.85-9.2a.21.21,0,0,1,.21.36,198.82,198.82,0,0,1-19.08,9.58c-.16,8-.33,17.4-.43,25.37a.38.38,0,0,1-.75,0c.11-10.16.12-21.79.15-31.95-3.29-.81-15.71-6.14-18.66-7.59C49.24,388.17,49.46,387.64,49.78,387.76Z" style="fill:#37474f"></path><path d="M385.58,428.22h60.55L439,397a40.23,40.23,0,0,1-19.34-6l18.76,3.49-8.65-38.22a34.62,34.62,0,0,1-7.71-4.91l7.1,2.25-1.15-5.09a36.71,36.71,0,0,1-10.68-7.07l9.95,3.89-11.46-50.58-6.48,28.58,5.82-1.45a42.89,42.89,0,0,1-6.28,3.48l-9.29,40.95,6.74-1.68a44.86,44.86,0,0,1-7.24,3.93l-6.44,28.35,13.15-3.27A48.32,48.32,0,0,1,392,399.82l-1.11,4.93,20.21-5a48,48,0,0,1-20.79,7.58l-1.6,7.07,6.73-1.68a44.05,44.05,0,0,1-7.24,3.92Z" style="fill:#455a64"></path><path d="M396.72,387.76c3.35,1.28,15.76,6.33,18.43,7.81,0-.57,0-1.13,0-1.7-3-1.76-6-3.5-9-5.25a104.65,104.65,0,0,1-9.69-5.75c-.14-.11-.06-.41.14-.33a81,81,0,0,1,9.47,5.24c3.05,1.78,6.07,3.63,9.07,5.49,0-4.32,0-8.64.06-13a103.69,103.69,0,0,1-14.14-7.18c-.15-.1-.05-.38.13-.31a104.07,104.07,0,0,1,14,6.91c0-2.24-.07-19.53.49-41.43-2.94-1.48-6-2.79-8.91-4.28-.19-.1-.06-.44.15-.36,3,1.17,5.86,2.55,8.79,3.84.15-6,.38-11.93.75-17.88a.15.15,0,0,1,.3,0c.42,11.07.38,32.49.24,43.58,3.05-2.44,6.3-4.59,9.4-6.95.12-.09.24.11.12.2-3.24,2.47-6.28,5.21-9.53,7.66,0,.63,0,1.26,0,1.88,3.3-1.51,6.65-2.91,10-4.34.26-.12.5.26.23.39-3.4,1.63-6.79,3.29-10.24,4.83-.07,5.49-.57,25.3-.78,34.88q9.36-4.72,18.85-9.2a.21.21,0,0,1,.21.36,199.83,199.83,0,0,1-19.07,9.58c-.17,8-.34,17.4-.44,25.37a.38.38,0,0,1-.75,0c.11-10.16.13-21.79.15-31.95-3.29-.81-15.71-6.14-18.66-7.59C396.18,388.17,396.4,387.64,396.72,387.76Z" style="fill:#37474f"></path><path d="M404.71,428.22h-65.2l3.18-17.15c13.66-.89,24.32-10.15,24.32-10.15l-23.78,7.25,8.78-47.3a46.84,46.84,0,0,0,9.89-6.21l-9.27,2.83,1.43-7.71a48.59,48.59,0,0,0,14-7.94l-13.31,4.05,8.31-44.79a42,42,0,0,0,5-3.57l-4.62,1.41,8.62-46.49,12.35,66.6-10.73-5.13a39.86,39.86,0,0,0,11.5,9.3h0l11.63,62.71-18-7a39.56,39.56,0,0,0,18.74,10.71l1.19,6.41-9.71-2.21a36.15,36.15,0,0,0,10.36,5.76Z" style="fill:#37474f"></path><path d="M393.81,371.07c-3.9,1.49-17.76,7.1-20.89,8.82v-2c3.48-2.05,7-4.08,10.47-6.11,3.76-2.18,6.25-3,9.75-5.54.17-.12.07-.47-.16-.37a67.8,67.8,0,0,0-9.5,4.92c-3.55,2.09-7.06,4.23-10.57,6.4q0-7.54-.06-15.09a119.6,119.6,0,0,0,16.47-8.37c.18-.11.06-.44-.15-.35a120.08,120.08,0,0,0-16.33,8.05c0-2.62,0-5.23,0-7.85-.14-13.46-.17-26.94-.52-40.41,3.43-1.72,7-3.25,10.38-5,.23-.11.07-.5-.17-.41-3.47,1.36-6.82,3-10.23,4.47-.19-6.95-.45-13.9-.87-20.83a.18.18,0,0,0-.36,0c-.48,12.89-.44,25.8-.28,38.71-3.55-2.83-7.33-5.33-10.95-8.08-.14-.11-.27.13-.13.23,3.77,2.88,7.3,6.06,11.09,8.92l0,2.19c-3.85-1.76-7.75-3.39-11.64-5.06-.31-.13-.58.31-.27.45,4,1.9,7.91,3.84,11.92,5.63q.15,9.6.29,19.18c.14,11.17.39,22.33.63,33.49q-10.9-5.5-22-10.72c-.28-.13-.52.26-.24.42A230.42,230.42,0,0,0,371.72,388c.2,9.28.39,30.57.51,39.85a.44.44,0,0,0,.88,0c-.13-11.83-.15-35.68-.18-47.51,3.83-1,17.72-6.88,21.16-8.57C394.44,371.54,394.19,370.93,393.81,371.07Z" style="fill:#455a64"></path><path d="M461.36,428.22H413.77l5.57-24.57a31.5,31.5,0,0,0,15.2-4.75l-14.74,2.74,6.8-30a27.6,27.6,0,0,0,6.06-3.86l-5.58,1.76.9-4a28.64,28.64,0,0,0,8.39-5.55L428.55,363l9-39.76,5.09,22.47-4.57-1.15a32.81,32.81,0,0,0,4.93,2.74l7.31,32.19-5.3-1.32a35,35,0,0,0,5.69,3.08l5.06,22.29L445.43,401a37.77,37.77,0,0,0,10.87,4.92l.88,3.88-15.88-4a37.74,37.74,0,0,0,16.33,6l1.26,5.56L453.61,416a35.1,35.1,0,0,0,5.68,3.08Z" style="fill:#37474f"></path><path d="M452.61,396.42c-2.64,1-12.39,5-14.49,6.14,0-.45,0-.89,0-1.34q3.52-2.07,7.07-4.12a84.2,84.2,0,0,0,7.61-4.52c.12-.09,0-.33-.11-.26a63.48,63.48,0,0,0-7.44,4.11c-2.4,1.41-4.77,2.86-7.13,4.32q0-5.1,0-10.18a81.65,81.65,0,0,0,11.11-5.65c.12-.07,0-.3-.1-.24a82.21,82.21,0,0,0-11,5.43c0-1.76.06-15.35-.38-32.56,2.31-1.17,4.69-2.2,7-3.37.15-.07.05-.34-.11-.28-2.35.92-4.61,2-6.91,3-.12-4.69-.3-9.38-.59-14.06a.12.12,0,0,0-.24,0c-.33,8.7-.3,25.54-.19,34.25-2.39-1.91-4.95-3.6-7.38-5.45-.1-.08-.19.08-.1.16,2.55,1.93,4.93,4.08,7.49,6,0,.49,0,1,0,1.47-2.6-1.18-5.23-2.29-7.86-3.41-.2-.09-.39.2-.18.3,2.68,1.29,5.34,2.59,8.05,3.8.06,4.32.45,19.88.61,27.42q-7.35-3.72-14.81-7.24a.17.17,0,0,0-.17.29,158,158,0,0,0,15,7.53c.13,6.26.26,13.68.34,19.94a.3.3,0,0,0,.59,0c-.09-8-.1-17.13-.12-25.12,2.58-.63,12.35-4.82,14.67-6C453,396.74,452.86,396.33,452.61,396.42Z" style="fill:#455a64"></path><path d="M131.83,428.22H66.63l3.18-17.15c13.66-.89,24.32-10.15,24.32-10.15l-23.78,7.25,8.78-47.3A46.84,46.84,0,0,0,89,354.66l-9.27,2.83,1.43-7.71a48.42,48.42,0,0,0,14-7.94l-13.31,4.05,8.31-44.79a42.74,42.74,0,0,0,5-3.57l-4.63,1.41,8.62-46.49,12.35,66.6-10.73-5.13a39.86,39.86,0,0,0,11.5,9.3h0L124,385.94l-18-7a39.6,39.6,0,0,0,18.74,10.71l1.19,6.41-9.71-2.21a36.15,36.15,0,0,0,10.36,5.76Z" style="fill:#37474f"></path><path d="M120.94,371.07c-3.9,1.49-17.77,7.1-20.89,8.82,0-.66,0-1.32,0-2q5.22-3.07,10.48-6.11c3.75-2.18,6.24-3,9.74-5.54.17-.12.07-.47-.16-.37a67.8,67.8,0,0,0-9.5,4.92c-3.55,2.09-7.06,4.23-10.56,6.4q0-7.54-.07-15.09a119.6,119.6,0,0,0,16.47-8.37c.18-.11.06-.44-.15-.35A119.39,119.39,0,0,0,100,361.45c0-2.62,0-5.23-.06-7.85-.14-13.46-.17-26.94-.51-40.41,3.42-1.72,6.95-3.25,10.38-5,.22-.11.06-.5-.18-.41-3.47,1.36-6.82,3-10.23,4.47-.19-6.95-.45-13.9-.87-20.83a.18.18,0,0,0-.36,0c-.48,12.89-.44,25.8-.28,38.71-3.55-2.83-7.33-5.33-11-8.08-.13-.11-.27.13-.13.23,3.77,2.88,7.31,6.06,11.09,8.92l0,2.19c-3.85-1.76-7.75-3.39-11.64-5.06-.31-.13-.58.31-.27.45,4,1.9,7.91,3.84,11.93,5.63.09,6.4.2,12.79.28,19.18.14,11.17.39,22.33.63,33.49q-10.9-5.5-22-10.72c-.28-.13-.52.26-.24.42A229.44,229.44,0,0,0,98.85,388c.19,9.28.38,30.57.5,39.85a.44.44,0,0,0,.88,0c-.13-11.83-.15-35.68-.18-47.51,3.83-1,17.72-6.88,21.16-8.57C121.56,371.54,121.31,370.93,120.94,371.07Z" style="fill:#455a64"></path></g><g id="freepik--Cabin--inject-1038"><polygon points="311.44 185.79 142.23 185.79 233.08 386 402.29 386 311.44 185.79" style="fill:#FFA52E"></polygon><polygon points="311.44 185.79 142.23 185.79 233.08 386 402.29 386 311.44 185.79" style="opacity:0.30000000000000004"></polygon><polygon points="307.98 185.79 142.23 185.79 233.08 386 398.83 386 307.98 185.79" style="opacity:0.6000000000000001"></polygon><polygon points="142.17 185.79 311.38 185.79 220.52 386 51.32 386 142.17 185.79" style="fill:#FFA52E"></polygon><polygon points="142.17 185.79 311.38 185.79 220.52 386 51.32 386 142.17 185.79" style="opacity:0.30000000000000004"></polygon><polygon points="142.17 185.79 307.92 185.79 217.07 386 51.32 386 142.17 185.79" style="opacity:0.6000000000000001"></polygon><g style="opacity:0.30000000000000004"><polygon points="301.47 200 300.29 202.59 134.54 202.59 135.72 200 301.47 200"></polygon><polygon points="292.86 218.96 291.69 221.55 125.94 221.55 127.11 218.96 292.86 218.96"></polygon><polygon points="284.26 237.92 283.08 240.51 117.33 240.51 118.51 237.92 284.26 237.92"></polygon><polygon points="275.65 256.88 274.48 259.47 108.73 259.47 109.91 256.88 275.65 256.88"></polygon><polygon points="267.05 275.85 265.88 278.44 100.13 278.44 101.3 275.85 267.05 275.85"></polygon><polygon points="258.45 294.81 257.27 297.4 91.53 297.4 92.7 294.81 258.45 294.81"></polygon><polygon points="249.85 313.77 248.66 316.36 82.91 316.36 84.1 313.77 249.85 313.77"></polygon><polygon points="241.24 332.73 240.06 335.32 74.31 335.32 75.49 332.73 241.24 332.73"></polygon><polygon points="232.63 351.69 231.46 354.28 65.71 354.28 66.88 351.69 232.63 351.69"></polygon><polygon points="224.03 370.65 222.85 373.24 57.1 373.24 58.28 370.65 224.03 370.65"></polygon></g><polygon points="223.44 371.94 224.03 370.65 58.28 370.65 57.54 372.28 223.44 371.94" style="fill:#FFA52E;opacity:0.30000000000000004"></polygon><polygon points="232.05 352.98 232.64 351.69 66.89 351.69 66.15 353.32 232.05 352.98" style="fill:#FFA52E;opacity:0.30000000000000004"></polygon><polygon points="240.66 334.02 241.24 332.73 75.49 332.73 74.75 334.36 240.66 334.02" style="fill:#FFA52E;opacity:0.30000000000000004"></polygon><polygon points="249.26 315.06 249.85 313.77 84.1 313.77 83.36 315.4 249.26 315.06" style="fill:#FFA52E;opacity:0.30000000000000004"></polygon><polygon points="257.87 296.1 258.45 294.81 92.71 294.81 91.97 296.44 257.87 296.1" style="fill:#FFA52E;opacity:0.30000000000000004"></polygon><polygon points="266.47 277.14 267.06 275.85 101.31 275.85 100.57 277.48 266.47 277.14" style="fill:#FFA52E;opacity:0.30000000000000004"></polygon><polygon points="275.08 258.18 275.67 256.89 109.92 256.89 109.18 258.52 275.08 258.18" style="fill:#FFA52E;opacity:0.30000000000000004"></polygon><polygon points="283.69 239.22 284.27 237.93 118.53 237.93 117.78 239.56 283.69 239.22" style="fill:#FFA52E;opacity:0.30000000000000004"></polygon><polygon points="292.29 220.26 292.88 218.97 127.13 218.97 126.39 220.6 292.29 220.26" style="fill:#FFA52E;opacity:0.30000000000000004"></polygon><polygon points="300.9 201.3 301.49 200.01 135.74 200.01 135 201.64 300.9 201.3" style="fill:#FFA52E;opacity:0.30000000000000004"></polygon><polygon points="166.1 247.1 187.53 200 187.53 179.53 166.1 179.53 166.1 247.1" style="fill:#FFA52E"></polygon><polygon points="166.1 247.1 187.53 200 187.53 179.53 166.1 179.53 166.1 247.1" style="opacity:0.4"></polygon><rect x="147.39" y="179.52" width="18.72" height="67.57" transform="translate(313.49 426.62) rotate(180)" style="fill:#FFA52E"></rect><rect x="147.39" y="179.52" width="18.72" height="67.57" transform="translate(313.49 426.62) rotate(180)" style="opacity:0.6000000000000001"></rect><rect x="144.18" y="172.16" width="21.93" height="7.36" style="fill:#FFA52E"></rect><rect x="144.18" y="172.16" width="21.93" height="7.36" style="opacity:0.4"></rect><rect x="166.11" y="172.16" width="23.5" height="7.36" style="fill:#FFA52E"></rect><rect x="166.11" y="172.16" width="23.5" height="7.36" style="opacity:0.30000000000000004"></rect><polygon points="139.7 341.89 103.54 341.89 127.28 290.2 163.45 290.2 139.7 341.89" style="fill:#263238"></polygon><polygon points="141.44 294.43 132.41 314.09 120.76 314.09 129.79 294.43 141.44 294.43" style="fill:#455a64"></polygon><polygon points="157.05 294.43 148.02 314.09 136.38 314.09 145.41 294.43 157.05 294.43" style="fill:#455a64"></polygon><polygon points="130.67 317.86 121.64 337.52 110 337.52 119.03 317.86 130.67 317.86" style="fill:#455a64"></polygon><polygon points="146.29 317.86 137.26 337.52 125.61 337.52 134.64 317.86 146.29 317.86" style="fill:#455a64"></polygon><path d="M132.91,294.43l-5.77,5.77,2.65-5.77ZM110.68,336l-.68,1.49h2.3l17.28-17.29,1.09-2.37h-1.82Zm41.6-41.6-12.71,12.72-2.64,5.74,18.45-18.46Zm-37.57,32.84h0l-.61,1.34,10.76-10.76h-.72Zm13.9-13.18,7-7,.62-1.34-8.34,8.34Zm18.93-19.66-3.95,4-.62,1.34,5.3-5.3Z" style="fill:#fff;opacity:0.2"></path><polygon points="204.93 341.89 168.76 341.89 192.51 290.2 228.67 290.2 204.93 341.89" style="fill:#263238"></polygon><polygon points="206.66 294.43 197.63 314.09 185.98 314.09 195.01 294.43 206.66 294.43" style="fill:#455a64"></polygon><polygon points="222.28 294.43 213.25 314.09 201.6 314.09 210.63 294.43 222.28 294.43" style="fill:#455a64"></polygon><polygon points="195.9 317.86 186.87 337.52 175.22 337.52 184.25 317.86 195.9 317.86" style="fill:#455a64"></polygon><polygon points="211.51 317.86 202.48 337.52 190.84 337.52 199.87 317.86 211.51 317.86" style="fill:#455a64"></polygon><path d="M211.52,317.86l-4.24,9.21-10.44,10.45h-6l.16-.37,19.3-19.29Zm-27.88,1.31,1.31-1.31h-.7Zm18.54-24.74-13.27,13.28L186,314.09h2.74l16.48-16.47,1.46-3.19Zm-23.29,35.08-.61,1.34,13-13h-.72Zm15.43-15.42H195l4.79-4.79.61-1.34ZM214,294.43l-6.18,6.18-.61,1.34,7.51-7.52Z" style="fill:#fff;opacity:0.2"></path><path d="M124.45,90.53a33.21,33.21,0,0,1,33.21,33.21v15.61h-41.6a33.2,33.2,0,0,1-33.21-33.2V90.53Z" style="fill:#dbdbdb"></path><path d="M157.61,139.35a27.24,27.24,0,0,1,27.24,27.25v5.56h-23a27.25,27.25,0,0,1-27.24-27.24v-5.57Z" style="fill:#dbdbdb"></path><polygon points="220.52 385.71 306.41 197 392.29 385.71 392.29 428.22 220.52 428.22 220.52 385.71" style="fill:#FFA52E"></polygon><polygon points="220.52 385.71 306.41 197 392.29 385.71 392.29 428.22 220.52 428.22 220.52 385.71" style="opacity:0.5"></polygon><g style="opacity:0.2"><path d="M234.58,395.19a263.78,263.78,0,0,1,0,33,267.65,267.65,0,0,1,0-33Z"></path><path d="M234.58,355.2a177.13,177.13,0,0,1,0,27.06,179.73,179.73,0,0,1,0-27.06Z"></path><path d="M250.36,320.16c.66,34.72.64,73.32,0,108.06-.65-34.75-.67-73.33,0-108.06Z"></path><path d="M266.13,411.28a70.08,70.08,0,0,1,0,16.94,69.57,69.57,0,0,1,0-16.94Z"></path><path d="M266.13,366.47a324.64,324.64,0,0,1,0,36.38,320,320,0,0,1,0-36.38Z"></path><path d="M266.13,285.51c.67,19.47.67,39.08,0,58.55-.68-19.48-.68-39.08,0-58.55Z"></path><path d="M281.9,314.78c.66,36.45.65,77,0,113.44-.65-36.48-.67-77,0-113.44Z"></path><path d="M281.9,250.85c.67,16.57.67,33.27,0,49.84-.67-16.58-.67-33.27,0-49.84Z"></path><path d="M297.67,377.38c.67,16.91.67,33.93,0,50.84-.67-16.91-.67-33.93,0-50.84Z"></path><path d="M297.67,275.12c.66,30.46.65,64.32,0,94.79-.65-30.48-.67-64.33,0-94.79Z"></path><path d="M297.67,216.2c.68,14.34.68,28.79,0,43.13-.68-14.34-.68-28.79,0-43.13Z"></path><path d="M313.44,212.44c.65,69.12.65,146.66,0,215.78-.66-69.12-.65-146.66,0-215.78Z"></path><path d="M329.21,358.42c.67,23.22.67,46.58,0,69.8-.67-23.22-.67-46.58,0-69.8Z"></path><path d="M329.21,300.69c.68,14.42.68,28.95,0,43.37-.68-14.42-.68-28.95,0-43.37Z"></path><path d="M329.21,247.1c.68,14.85.68,29.82,0,44.68-.68-14.86-.68-29.83,0-44.68Z"></path><path d="M345,281.75c.66,47.06.65,99.38,0,146.47-.65-47.1-.66-99.4,0-146.47Z"></path><path d="M360.75,395.81a257.71,257.71,0,0,1,0,32.41,257.71,257.71,0,0,1,0-32.41Z"></path><path d="M360.75,316.4c.67,21.91.67,44,0,65.86-.67-21.91-.67-43.95,0-65.86Z"></path><path d="M376.52,374.19c.67,18,.67,36.06,0,54-.67-18-.67-36.06,0-54Z"></path><path d="M376.52,351.06a57.62,57.62,0,0,1,0,15.41,58,58,0,0,1,0-15.41Z"></path></g><rect x="243.91" y="358.42" width="29.83" height="42.64" style="fill:#263238"></rect><rect x="247.58" y="361.92" width="9.61" height="16.22" style="fill:#455a64"></rect><rect x="260.47" y="361.92" width="9.61" height="16.22" style="fill:#455a64"></rect><rect x="247.58" y="381.24" width="9.61" height="16.22" style="fill:#455a64"></rect><rect x="260.47" y="381.24" width="9.61" height="16.22" style="fill:#455a64"></rect><path d="M256.41,361.92h.78v5.4l-9.61,9.61v-6.18Zm4,0v2.13l2.14-2.13Zm8.18,35.54h1.44V396Zm-14,0,2.59-2.59v-3.1l-5.69,5.69Zm13.12-16.22-7.26,7.26v3.1l9.62-9.61v-.75Zm-17.6-19.32-2.54,2.54v.72l3.26-3.26Z" style="fill:#fff;opacity:0.2"></path><rect x="240.54" y="401.07" width="36.58" height="2.95" style="fill:#FFA52E"></rect><rect x="240.54" y="401.07" width="36.58" height="2.95" style="opacity:0.30000000000000004"></rect><rect x="339.94" y="358.42" width="29.83" height="42.64" style="fill:#263238"></rect><rect x="343.61" y="361.92" width="9.61" height="16.22" style="fill:#455a64"></rect><rect x="356.49" y="361.92" width="9.61" height="16.22" style="fill:#455a64"></rect><rect x="343.61" y="381.24" width="9.61" height="16.22" style="fill:#455a64"></rect><rect x="356.49" y="381.24" width="9.61" height="16.22" style="fill:#455a64"></rect><rect x="336.56" y="401.07" width="36.58" height="2.95" style="fill:#FFA52E"></rect><rect x="336.56" y="401.07" width="36.58" height="2.95" style="opacity:0.30000000000000004"></rect><path d="M343.61,396.15l9.6-9.6v6.19l-4.73,4.72h-4.87Zm14.91-14.91-2,2v6.19l8.22-8.22Zm3.11-3.11h4.46v-4.47Zm-18,8.92v3.09l8.9-8.9h-3.1Zm9.6-8.92v-.69l-.69.69Zm3.28-4v3.1l9.6-9.6v-3.1Zm-3.83-12.24L343.61,371v.71l9.6-9.6v-.17Zm10.47,35.54h.72l2.24-2.25v-.71Z" style="fill:#fff;opacity:0.2"></path><rect x="292.79" y="297.54" width="29.83" height="42.64" style="fill:#263238"></rect><rect x="296.46" y="301.03" width="9.61" height="16.22" style="fill:#455a64"></rect><rect x="309.34" y="301.03" width="9.61" height="16.22" style="fill:#455a64"></rect><rect x="296.46" y="320.36" width="9.61" height="16.22" style="fill:#455a64"></rect><rect x="309.34" y="320.36" width="9.61" height="16.22" style="fill:#455a64"></rect><rect x="289.42" y="340.18" width="36.58" height="2.95" style="fill:#FFA52E"></rect><rect x="289.42" y="340.18" width="36.58" height="2.95" style="opacity:0.30000000000000004"></rect><path d="M298,320.36h6.19l-7.7,7.7v-6.19Zm8.09-3.11v-5l-5,5ZM317.3,301l-8,8v6.19l9.61-9.6V301Zm-4.91,35.55h3.1l3.46-3.45V330ZM296.46,316.3l9.6-9.6V306l-9.6,9.6ZM311,301l-1.68,1.68v.72l2.39-2.4Z" style="fill:#fff;opacity:0.2"></path><rect x="288.48" y="358.42" width="38.44" height="69.8" style="fill:#263238"></rect><rect x="298.97" y="409.05" width="17.46" height="2.52" style="fill:#455a64"></rect><rect x="303.57" y="363.22" width="8.27" height="10.45" style="fill:#455a64"></rect><rect x="314.41" y="363.22" width="8.27" height="10.45" style="fill:#455a64"></rect><rect x="292.72" y="363.22" width="8.27" height="10.45" style="fill:#455a64"></rect><rect x="303.57" y="376.44" width="8.27" height="10.45" style="fill:#455a64"></rect><rect x="314.41" y="376.44" width="8.27" height="10.45" style="fill:#455a64"></rect><rect x="292.72" y="376.44" width="8.27" height="10.45" style="fill:#455a64"></rect><rect x="303.57" y="389.65" width="8.27" height="10.45" style="fill:#455a64"></rect><rect x="314.41" y="389.65" width="8.27" height="10.45" style="fill:#455a64"></rect><rect x="292.72" y="389.65" width="8.27" height="10.45" style="fill:#455a64"></rect><path d="M322.69,372v1.72H321Zm-22,28.15.27-.27v-6.18l-6.45,6.45Zm2.85-9v6.19l7.61-7.61H305Zm8.27-4.19V382.8l-4.09,4.08Zm6.36-10.44-3.79,3.79v6.18l8.28-8.27v-1.7Zm-25.47,0,0,0h0Zm0-3.1v.29h2.8l5.46-5.46v-3.1Zm10.84-10.15v2.41l2.41-2.41Zm-10.84,31.53v.72l5.83-5.83h-.71Zm8.26-7.88v-.38l-.38.38Zm2.58-2.95v.71l8.2-8.2h-.71Zm10.84-10.85v.59h.13l8.15-8.15v-.71Zm.07,27h.72l7.49-7.49v-.71Z" style="fill:#fff;opacity:0.2"></path><circle cx="306.84" cy="266.87" r="16.01" transform="translate(-38.96 52.88) rotate(-9.26)" style="fill:#263238"></circle><path d="M294.41,266.87a12.42,12.42,0,0,0,12.44,12.42,10.65,10.65,0,0,0,3.1-.42,12,12,0,0,0,5.26-2.8,12.45,12.45,0,0,0-8.36-21.65,10.84,10.84,0,0,0-3.12.43,11.51,11.51,0,0,0-4,1.85A12.4,12.4,0,0,0,294.41,266.87Z" style="fill:#455a64"></path><path d="M305.69,254.48l-11.23,11.23a12.35,12.35,0,0,1,5.25-9,11.65,11.65,0,0,1,4-1.87A9.82,9.82,0,0,1,305.69,254.48Zm12.21,6.71-16.73,16.73a11.63,11.63,0,0,0,2.23.88l15.38-15.38A11.89,11.89,0,0,0,317.9,261.19Zm-2.63-3.47-17.56,17.57c.11.13.23.25.35.37l17.58-17.58Z" style="fill:#fff;opacity:0.2"></path><rect x="305.12" y="251.98" width="3.44" height="29.49" transform="translate(613.68 533.46) rotate(180)" style="fill:#263238"></rect><rect x="305.12" y="251.98" width="3.44" height="29.49" transform="translate(573.57 -40.11) rotate(90)" style="fill:#263238"></rect><rect x="61.11" y="386" width="159.42" height="42.22" style="fill:#FFA52E"></rect><rect x="61.11" y="386" width="159.42" height="42.22" style="opacity:0.6000000000000001"></rect><g style="opacity:0.2"><path d="M75.54,402.85a158,158,0,0,1,0,25.37,155.73,155.73,0,0,1,0-25.37Z"></path><path d="M75.54,386a35.64,35.64,0,0,1,0,12.06,35.39,35.39,0,0,1,0-12.06Z"></path><path d="M90,386c.68,14,.68,28.18,0,42.22-.69-14-.69-28.18,0-42.22Z"></path><path d="M104.4,418a25.77,25.77,0,0,1,0,10.24,25.59,25.59,0,0,1,0-10.24Z"></path><path d="M104.4,386a94,94,0,0,1,0,19.63,93.34,93.34,0,0,1,0-19.63Z"></path><path d="M118.83,411.28a70.08,70.08,0,0,1,0,16.94,69.57,69.57,0,0,1,0-16.94Z"></path><path d="M118.83,386a82.45,82.45,0,0,1,0,18.38,81.86,81.86,0,0,1,0-18.38Z"></path><path d="M133.26,386c.68,14,.68,28.18,0,42.22-.68-14-.68-28.18,0-42.22Z"></path><path d="M147.69,402.85a158,158,0,0,1,0,25.37,158,158,0,0,1,0-25.37Z"></path><path d="M147.69,386a31.33,31.33,0,0,1,0,11.3,31.1,31.1,0,0,1,0-11.3Z"></path><path d="M162.12,421.9a10,10,0,0,1,0,6.32,9.91,9.91,0,0,1,0-6.32Z"></path><path d="M162.12,386a214.13,214.13,0,0,1,0,29.54,214.13,214.13,0,0,1,0-29.54Z"></path><path d="M176.55,386c.68,14,.68,28.18,0,42.22-.68-14-.68-28.18,0-42.22Z"></path><path d="M191,407.11a108.68,108.68,0,0,1,0,21.11,107.9,107.9,0,0,1,0-21.11Z"></path><path d="M191,386a23.67,23.67,0,0,1,0,9.81,23.5,23.5,0,0,1,0-9.81Z"></path><path d="M205.41,386c.68,14,.68,28.18,0,42.22-.68-14-.68-28.18,0-42.22Z"></path></g><rect x="176.24" y="389.65" width="29.83" height="11.42" style="fill:#263238"></rect><rect x="179.91" y="393.11" width="22.49" height="4.35" style="fill:#455a64"></rect><rect x="172.87" y="401.07" width="36.58" height="2.95" style="fill:#FFA52E"></rect><rect x="172.87" y="401.07" width="36.58" height="2.95" style="opacity:0.30000000000000004"></rect><path d="M189.09,393.11l-4.36,4.35h-3.09l4.35-4.35Zm-9.18,0v.69l.69-.69Z" style="fill:#fff;opacity:0.2"></path><rect x="125.9" y="389.65" width="29.83" height="11.42" style="fill:#263238"></rect><rect x="129.57" y="393.11" width="22.49" height="4.35" style="fill:#455a64"></rect><rect x="122.53" y="401.07" width="36.58" height="2.95" style="fill:#FFA52E"></rect><rect x="122.53" y="401.07" width="36.58" height="2.95" style="opacity:0.30000000000000004"></rect><path d="M141.24,393.11l-4.35,4.35H130.7l4.35-4.35Z" style="fill:#fff;opacity:0.2"></path><rect x="75.56" y="389.65" width="29.83" height="11.42" style="fill:#263238"></rect><rect x="79.23" y="393.11" width="22.49" height="4.35" style="fill:#455a64"></rect><path d="M101.72,394.91v2.55H99.16Z" style="fill:#fff;opacity:0.2"></path><rect x="72.18" y="401.07" width="36.58" height="2.95" style="fill:#FFA52E"></rect><rect x="72.18" y="401.07" width="36.58" height="2.95" style="opacity:0.30000000000000004"></rect></g><g id="freepik--trees-1--inject-1038"><path d="M111.41,428.22H63.82l5.57-24.57a31.53,31.53,0,0,0,15.2-4.75l-14.75,2.74,6.81-30a27.78,27.78,0,0,0,6-3.86l-5.57,1.76.9-4A28.9,28.9,0,0,0,86.42,360L78.6,363l9-39.76,5.09,22.47-4.57-1.15a32.81,32.81,0,0,0,4.93,2.74l7.3,32.19-5.3-1.32a35.39,35.39,0,0,0,5.7,3.08l5.06,22.29L95.48,401a37.77,37.77,0,0,0,10.87,4.92l.88,3.88-15.89-4a37.81,37.81,0,0,0,16.34,6l1.26,5.56L103.65,416a35,35,0,0,0,5.69,3.08Z" style="fill:#455a64"></path><path d="M102.65,396.42c-2.63,1-12.38,5-14.49,6.14v-1.34q3.53-2.07,7.07-4.12a84.2,84.2,0,0,0,7.61-4.52c.11-.09,0-.33-.11-.26a62.68,62.68,0,0,0-7.44,4.11c-2.4,1.41-4.77,2.86-7.13,4.32q0-5.1,0-10.18a81.07,81.07,0,0,0,11.11-5.65c.13-.07,0-.3-.1-.24a82.09,82.09,0,0,0-11,5.43c0-1.76,0-15.35-.39-32.56,2.32-1.17,4.7-2.2,7-3.37.15-.07,0-.34-.12-.28-2.34.92-4.6,2-6.9,3-.13-4.69-.31-9.38-.59-14.06a.12.12,0,0,0-.24,0c-.33,8.7-.3,25.54-.19,34.25-2.4-1.91-5-3.6-7.39-5.45-.09-.08-.19.08-.09.16,2.55,1.93,4.93,4.08,7.49,6,0,.49,0,1,0,1.47-2.59-1.18-5.23-2.29-7.85-3.41-.21-.09-.39.2-.18.3,2.67,1.29,5.34,2.59,8,3.8.07,4.32.46,19.88.62,27.42Q80,403.7,72.53,400.18c-.19-.09-.36.18-.17.29a157.81,157.81,0,0,0,15,7.53c.14,6.26.26,13.68.35,19.94a.3.3,0,0,0,.59,0c-.09-8-.1-17.13-.13-25.12,2.59-.63,12.35-4.82,14.67-6C103.07,396.74,102.9,396.33,102.65,396.42Z" style="fill:#37474f"></path><path d="M393.82,428.22H346.23l5.57-24.57A31.57,31.57,0,0,0,367,398.9l-14.75,2.74,6.8-30a27.6,27.6,0,0,0,6.06-3.86l-5.58,1.76.9-4a28.64,28.64,0,0,0,8.39-5.55L361,363l9-39.76,5.09,22.47-4.57-1.15a32.65,32.65,0,0,0,4.94,2.74l7.3,32.19-5.3-1.32a35,35,0,0,0,5.69,3.08l5.06,22.29L377.89,401a37.77,37.77,0,0,0,10.87,4.92l.88,3.88-15.88-4a37.74,37.74,0,0,0,16.33,6l1.26,5.56L386.07,416a35.1,35.1,0,0,0,5.68,3.08Z" style="fill:#37474f"></path><path d="M385.07,396.42c-2.64,1-12.39,5-14.49,6.14,0-.45,0-.89,0-1.34q3.53-2.07,7.07-4.12a84.2,84.2,0,0,0,7.61-4.52c.12-.09.05-.33-.1-.26a62.81,62.81,0,0,0-7.45,4.11c-2.4,1.41-4.77,2.86-7.13,4.32q0-5.1,0-10.18a81.65,81.65,0,0,0,11.11-5.65c.12-.07,0-.3-.1-.24a82.21,82.21,0,0,0-11,5.43c0-1.76.06-15.35-.38-32.56,2.31-1.17,4.69-2.2,7-3.37.15-.07.05-.34-.11-.28-2.35.92-4.61,2-6.91,3-.12-4.69-.3-9.38-.59-14.06a.12.12,0,0,0-.24,0c-.32,8.7-.3,25.54-.19,34.25-2.39-1.91-5-3.6-7.38-5.45-.1-.08-.19.08-.1.16,2.55,1.93,4.94,4.08,7.49,6,0,.49,0,1,0,1.47-2.6-1.18-5.23-2.29-7.86-3.41-.2-.09-.39.2-.18.3,2.68,1.29,5.34,2.59,8.05,3.8.06,4.32.45,19.88.62,27.42q-7.36-3.72-14.82-7.24a.17.17,0,0,0-.17.29,158,158,0,0,0,15,7.53c.13,6.26.26,13.68.34,19.94a.3.3,0,0,0,.59,0c-.09-8-.1-17.13-.12-25.12,2.58-.63,12.35-4.82,14.67-6C385.49,396.74,385.32,396.33,385.07,396.42Z" style="fill:#455a64"></path></g><g id="freepik--Bushes--inject-1038"><path d="M133.77,428.22H62.39a13.32,13.32,0,0,1-2-3.93c-.6-2.17,0-5.06,2.23-6.05,1.46-.64,3-.11,4.54-.07a1.25,1.25,0,0,0,1.21-.48,1.32,1.32,0,0,0,.11-1,3.29,3.29,0,0,0-1.55-1.7.18.18,0,0,1,0-.29,3.69,3.69,0,0,1,4.61-.1c.77-.83.44-2.09-.07-3S70,409.89,69.35,409a3.4,3.4,0,0,1-.69-2.47,3.74,3.74,0,0,1,1.51-2.22c1.22-1,3.33-2.08,4.78-.92s.56,3.63,1.59,5.17a1.7,1.7,0,0,0,1.22.87,1.35,1.35,0,0,0,1.11-.73c.37-.52.67-1.14,1.29-1.36-.17-1.58-.58-3.13-.73-4.71-.22-2.29.29-5.25,2.69-6.23a3.62,3.62,0,0,1,2.92,0A2.93,2.93,0,0,1,86.55,399c.06,1.35-.4,2.68-.23,4,.1.83.5,1.7,1.49,1.51a5.06,5.06,0,0,0,1.82-1c.73-.51,2-1.07,2.76-.32.45.44.39,1.14.78,1.62a2.14,2.14,0,0,0,1.65.58c1.19,0,2.35-.28,3.55-.18a7.82,7.82,0,0,1,3.24,1,5.21,5.21,0,0,1,2.19,2.36c.4.87,1.1,2.89,2.4,2a5,5,0,0,0,1.2-1.63c.34-.56.67-1.13,1-1.68a7.64,7.64,0,0,1,2.59-2.53,5.15,5.15,0,0,1,6.46,1.41,5.21,5.21,0,0,1,1,3.39c-.08,1.41-1,2.6-1.09,4a1.92,1.92,0,0,0,.75,1.77c.74.43,1.65,0,2.4-.14s2.08-.08,2.42.84a1.27,1.27,0,0,1-.26,1.18c-.16.22-.35.42-.49.65s-.16.47.14.67c.89.59,2.09.38,3.1.48C131.41,419.58,133.51,426.56,133.77,428.22Z" style="fill:#263238"></path><path d="M83.31,416.57c-.87,3.94-1.74,7.81-.71,11.65h-.82c-.3-.76-.59-1.53-.89-2.29-2.94-1.37-6.1-.27-9.2-.65a10,10,0,0,1-6.54-3.41.13.13,0,0,1,.19-.19,14.74,14.74,0,0,0,4.33,2.47c-.33-.39-.65-.79-1-1.15-.52-.53-1.1-1-1.66-1.47,0,0,0-.07,0,0a11.07,11.07,0,0,1,1.75,1.38,9.47,9.47,0,0,1,1.38,1.45,11.05,11.05,0,0,0,3.15.44c2.44,0,5.16-.55,7.36.69-.18-.46-.37-.93-.58-1.38a42.72,42.72,0,0,0-3-5.52A36.79,36.79,0,0,1,74,413.13a21.8,21.8,0,0,1-1.47-5.79c0-.1.14-.15.16,0,.62,3.49,2.32,6.5,4.16,9.45-.57-1.71-1-3.45-1.75-5.11,0-.12.12-.23.18-.11A21.61,21.61,0,0,1,77.63,418l.38.6a39.61,39.61,0,0,1,3.35,6.59,28.15,28.15,0,0,1,.89-7.28,39.86,39.86,0,0,0,1.19-7.68c0-.23,0-.46,0-.69A18.23,18.23,0,0,1,81.72,400a.17.17,0,0,1,.33,0,29.8,29.8,0,0,0,.39,5.34,22.72,22.72,0,0,0,1,3.45,61.61,61.61,0,0,0-.56-6.19c0-.17.25-.2.29,0A28.6,28.6,0,0,1,83.31,416.57Z" style="fill:#455a64"></path><path d="M99.18,411.25a30,30,0,0,1-1.83,3.15,14.09,14.09,0,0,1-.73,2.5,9.19,9.19,0,0,1-1.89,3c-1,1-2,1.94-2.25,3.32a11.94,11.94,0,0,1,1.41,5.05H93.3c-.5-3.19-2.12-5.81-3.58-8.72-1.29-2.55-2.36-5.88-1.08-8.65.07-.16.31,0,.27.12-.87,3.69.68,6.79,2.41,10,.26.49.54,1,.8,1.51a4.39,4.39,0,0,1,.9-1.74,22.56,22.56,0,0,0,2.57-3.27c1.46-2.79,1.23-5.81,1.64-8.82,0-.17.25-.1.26,0a18.61,18.61,0,0,1,0,4.89,18.66,18.66,0,0,1,1.43-2.45A.15.15,0,0,1,99.18,411.25Z" style="fill:#455a64"></path><path d="M114.43,409.29a10,10,0,0,1-1.91,4.3c-.74,1-1.9,1.6-2.63,2.57-.61,1.3-1.32,2.55-2,3.8s-2.13,3.12-1.46,4.7a.1.1,0,0,1-.1.14,5.42,5.42,0,0,1,1.24,3.42h-.35c-.38-4.62-7-5.85-7-10.62,0-.22.35-.27.39-.05.49,2.59,2.51,4,4.33,5.73a13,13,0,0,1,1.09,1.13,3.46,3.46,0,0,1,.33-3c.73-1.52,1.62-2.95,2.4-4.43a29.26,29.26,0,0,0,2.11-4.8,18.11,18.11,0,0,0,.68-5.23.1.1,0,0,1,.19,0c.61,2.57-.22,5.52-1.23,7.94.38-.36.79-.69,1.13-1.07a14.76,14.76,0,0,0,2.49-4.64A.18.18,0,0,1,114.43,409.29Z" style="fill:#455a64"></path><path d="M127.68,423.18c-1.56.22-3.07.59-4.66.68a23.74,23.74,0,0,1-4.84-.25,23,23,0,0,0-5.93-.56,15.68,15.68,0,0,0,1.73-.89,10.79,10.79,0,0,0,4.37-5.07c.07-.21-.22-.28-.33-.14a22.82,22.82,0,0,1-2.79,3.41,18.35,18.35,0,0,1-4.18,2.53,8.09,8.09,0,0,0-2.92,2.19c-.2.27-1.18,1.63-.58,1.92,0,0,.08,0,.1,0l0,0s0-.09,0-.09a10,10,0,0,1,1.07-1.67,7.41,7.41,0,0,1,1.47-1.12c.27-.16.55-.3.83-.44,2.67-.52,5.4.45,8.06.77a17.88,17.88,0,0,0,8.71-.79A.22.22,0,0,0,127.68,423.18Z" style="fill:#455a64"></path><path d="M92.92,426.8a10,10,0,0,0-3.22-2.51,7.32,7.32,0,0,1-3.37-4.05c-.06-.15-.34-.14-.31.05.44,3.63,4.2,4.68,6.67,6.69C92.81,427.08,93,427,92.92,426.8Z" style="fill:#455a64"></path><path d="M76.59,424.51c-.56-1.39-1.9-2.37-3-3.33a11,11,0,0,1-1.71-1.77,11.64,11.64,0,0,1-1.42-3.08.1.1,0,1,0-.19.05,9.07,9.07,0,0,0,2.33,4.6c1.26,1.25,2.63,2.3,3.82,3.62C76.49,424.67,76.63,424.6,76.59,424.51Z" style="fill:#455a64"></path><path d="M80,410.69a.47.47,0,0,1-.88-.12.36.36,0,0,1,0-.1v0a.44.44,0,0,1,0-.28.48.48,0,0,1,.36-.34C79.9,409.74,80.2,410.3,80,410.69Z" style="fill:#37474f"></path><path d="M125.3,421.8a.47.47,0,0,1-.88-.12.36.36,0,0,1,0-.1v0a.44.44,0,0,1,0-.28.48.48,0,0,1,.36-.34C125.23,420.85,125.53,421.4,125.3,421.8Z" style="fill:#37474f"></path><path d="M81.18,411.4l0,0h0a.32.32,0,0,0-.08-.29s0,0-.06,0a.23.23,0,0,0-.37.09c-.13.27.18.63.42.4a.18.18,0,0,0,.06-.09h0Z" style="fill:#37474f"></path><path d="M109.33,409.2l0,0h0a.3.3,0,0,0-.26-.15H109a.24.24,0,0,0-.2.33c.1.28.58.32.58,0a.22.22,0,0,0,0-.11h0Z" style="fill:#37474f"></path><path d="M81.31,409.67a.19.19,0,0,0-.24.09.15.15,0,0,0,0,.11.19.19,0,0,0,.36.07A.21.21,0,0,0,81.31,409.67Z" style="fill:#37474f"></path><path d="M91.26,404.29a.18.18,0,0,0-.24.09.11.11,0,0,0,0,.11.18.18,0,0,0,.35.07A.22.22,0,0,0,91.26,404.29Z" style="fill:#37474f"></path><path d="M110.25,407.57a.2.2,0,0,0-.11.24.11.11,0,0,0,.06.09.18.18,0,0,0,.3-.2A.21.21,0,0,0,110.25,407.57Z" style="fill:#37474f"></path><path d="M175,428.22h53.21a9.8,9.8,0,0,0,1.5-2.93c.46-1.62,0-3.77-1.65-4.51-1.09-.48-2.27-.08-3.39,0a.92.92,0,0,1-.9-.36,1,1,0,0,1-.09-.75,2.46,2.46,0,0,1,1.16-1.26.14.14,0,0,0,0-.22,2.74,2.74,0,0,0-3.43-.08,1.91,1.91,0,0,1,0-2.23c.41-.72,1.06-1.27,1.53-1.95a2.51,2.51,0,0,0,.52-1.84,2.83,2.83,0,0,0-1.13-1.66c-.91-.73-2.48-1.55-3.56-.68s-.42,2.7-1.19,3.85a1.27,1.27,0,0,1-.9.65,1,1,0,0,1-.84-.54c-.27-.39-.49-.86-.95-1,.12-1.18.43-2.33.54-3.51.16-1.7-.22-3.91-2-4.64a2.67,2.67,0,0,0-2.18,0,2.18,2.18,0,0,0-1.13,1.94c0,1,.3,2,.18,3-.08.62-.38,1.27-1.12,1.13a3.68,3.68,0,0,1-1.35-.75c-.55-.37-1.49-.79-2.06-.23-.34.33-.29.85-.58,1.2a1.55,1.55,0,0,1-1.23.43c-.89,0-1.75-.2-2.65-.13a6.06,6.06,0,0,0-2.42.72,4,4,0,0,0-1.62,1.77c-.3.64-.83,2.15-1.8,1.48a3.84,3.84,0,0,1-.89-1.21c-.25-.42-.5-.84-.78-1.25a5.69,5.69,0,0,0-1.92-1.89,3.85,3.85,0,0,0-4.82,1.05,4,4,0,0,0-.76,2.53c.06,1.05.77,1.94.81,3a1.42,1.42,0,0,1-.56,1.31c-.55.32-1.22,0-1.79-.1s-1.54-.06-1.8.62a1,1,0,0,0,.19.89,4.37,4.37,0,0,1,.37.48c.15.24.12.35-.11.49a4.71,4.71,0,0,1-2.3.36C176.73,421.78,175.16,427,175,428.22Z" style="fill:#263238"></path><path d="M212.58,419.54c.65,2.93,1.29,5.82.53,8.68h.61c.23-.56.44-1.14.66-1.71,2.19-1,4.55-.19,6.86-.48a7.53,7.53,0,0,0,4.87-2.54c.08-.11,0-.23-.14-.15a10.7,10.7,0,0,1-3.22,1.85c.24-.29.48-.59.74-.86s.82-.73,1.24-1.09c0,0,0-.06,0-.05a8.8,8.8,0,0,0-1.31,1,6.53,6.53,0,0,0-1,1.08,8.19,8.19,0,0,1-2.35.32c-1.82,0-3.85-.4-5.49.52.14-.35.28-.69.43-1a30.92,30.92,0,0,1,2.25-4.11,27.38,27.38,0,0,0,2.31-4,16.46,16.46,0,0,0,1.1-4.31c0-.08-.1-.12-.12,0a20,20,0,0,1-3.1,7c.42-1.27.77-2.57,1.3-3.81,0-.09-.09-.17-.13-.08a16.11,16.11,0,0,0-1.76,4.83l-.28.44A29.43,29.43,0,0,0,214,426a20.18,20.18,0,0,0-.67-5.42,30.08,30.08,0,0,1-.88-5.73c0-.17,0-.34,0-.51a13.45,13.45,0,0,0,1.29-7.15.12.12,0,0,0-.24,0,22.16,22.16,0,0,1-.3,4,17.56,17.56,0,0,1-.74,2.57,44.86,44.86,0,0,1,.42-4.61c0-.13-.19-.15-.22,0A21.25,21.25,0,0,0,212.58,419.54Z" style="fill:#455a64"></path><path d="M200.75,415.57a22,22,0,0,0,1.36,2.35,11.39,11.39,0,0,0,.54,1.86,7.08,7.08,0,0,0,1.41,2.2,5.27,5.27,0,0,1,1.68,2.48,8.89,8.89,0,0,0-1.05,3.76h.44c.37-2.38,1.58-4.33,2.67-6.5,1-1.9,1.76-4.38.8-6.44,0-.12-.22,0-.2.08.65,2.76-.51,5.07-1.79,7.44-.2.37-.4.74-.6,1.13a3.17,3.17,0,0,0-.67-1.3,16.76,16.76,0,0,1-1.92-2.44c-1.09-2.08-.91-4.33-1.22-6.57,0-.13-.18-.07-.2,0a13.94,13.94,0,0,0,0,3.65,13.27,13.27,0,0,0-1.07-1.83A.11.11,0,0,0,200.75,415.57Z" style="fill:#455a64"></path><path d="M189.38,414.11a7.5,7.5,0,0,0,1.42,3.21c.56.72,1.42,1.19,2,1.91.46,1,1,1.9,1.52,2.84s1.58,2.32,1.09,3.5c0,.06,0,.1.07.1a4,4,0,0,0-.92,2.55h.26c.28-3.44,5.18-4.36,5.23-7.91,0-.17-.26-.21-.29,0-.36,1.93-1.87,3-3.23,4.27a9.2,9.2,0,0,0-.81.84,2.58,2.58,0,0,0-.25-2.22c-.54-1.12-1.21-2.19-1.79-3.3a22.85,22.85,0,0,1-1.57-3.58,14.13,14.13,0,0,1-.51-3.89.07.07,0,0,0-.14,0,10.16,10.16,0,0,0,.92,5.92c-.28-.26-.59-.51-.84-.79a11,11,0,0,1-1.86-3.46A.13.13,0,0,0,189.38,414.11Z" style="fill:#455a64"></path><path d="M179.5,424.46c1.17.17,2.3.44,3.48.51a17.46,17.46,0,0,0,3.61-.19,17.47,17.47,0,0,1,4.42-.41,13.31,13.31,0,0,1-1.3-.67,8,8,0,0,1-3.25-3.77c-.05-.16.16-.22.25-.11a16.29,16.29,0,0,0,2.07,2.54,13.6,13.6,0,0,0,3.12,1.89,5.84,5.84,0,0,1,2.17,1.63c.16.2.88,1.21.44,1.43a.08.08,0,0,1-.08,0l0,0a0,0,0,0,1,0-.07,7.07,7.07,0,0,0-.79-1.23,5.2,5.2,0,0,0-1.09-.84c-.21-.12-.41-.23-.62-.33-2-.39-4,.34-6,.58a13.65,13.65,0,0,1-6.5-.59A.17.17,0,0,1,179.5,424.46Z" style="fill:#455a64"></path><path d="M205.41,427.16a7.63,7.63,0,0,1,2.41-1.87,5.52,5.52,0,0,0,2.51-3c0-.12.25-.11.23,0-.33,2.71-3.14,3.49-5,5C205.5,427.37,205.34,427.28,205.41,427.16Z" style="fill:#455a64"></path><path d="M217.58,425.45a7.47,7.47,0,0,1,2.24-2.48,8.28,8.28,0,0,0,1.27-1.31,8.54,8.54,0,0,0,1-2.3.08.08,0,1,1,.15,0,6.78,6.78,0,0,1-1.74,3.43c-.94.92-2,1.71-2.85,2.69C217.66,425.57,217.56,425.52,217.58,425.45Z" style="fill:#455a64"></path><path d="M215.07,415.16a.35.35,0,0,0,.65-.09s0-.05,0-.08h0a.47.47,0,0,0,0-.21.37.37,0,0,0-.27-.26A.42.42,0,0,0,215.07,415.16Z" style="fill:#37474f"></path><path d="M181.28,423.44a.36.36,0,0,0,.66-.09s0-.05,0-.08h0a.3.3,0,0,0,0-.21.39.39,0,0,0-.27-.26C181.33,422.73,181.11,423.14,181.28,423.44Z" style="fill:#37474f"></path><path d="M214.16,415.69v0h0a.21.21,0,0,1,.06-.21.05.05,0,0,1,0,0,.17.17,0,0,1,.28.06c.1.21-.14.48-.31.3l-.05-.06h0Z" style="fill:#37474f"></path><path d="M193.18,414.05l0,0h0a.22.22,0,0,1,.19-.12h.05a.17.17,0,0,1,.15.24c-.07.22-.43.24-.43,0a.19.19,0,0,1,0-.08h0Z" style="fill:#37474f"></path><path d="M214.06,414.4a.15.15,0,0,1,.19.06.14.14,0,0,1,0,.09.14.14,0,0,1-.27,0A.17.17,0,0,1,214.06,414.4Z" style="fill:#37474f"></path><path d="M206.65,410.38a.15.15,0,0,1,.18.07.13.13,0,0,1,0,.08.14.14,0,0,1-.27.05A.16.16,0,0,1,206.65,410.38Z" style="fill:#37474f"></path><path d="M192.5,412.83a.15.15,0,0,1,.08.18.06.06,0,0,1-.05.06.13.13,0,0,1-.22-.15A.16.16,0,0,1,192.5,412.83Z" style="fill:#37474f"></path></g><g id="freepik--Floor--inject-1038"><path d="M26.58,428.22c143.14-.61,303.7-.61,446.84,0-143.14.62-303.7.61-446.84,0Z" style="fill:#263238"></path></g></svg>