<svg xmlns="http://www.w3.org/2000/svg" viewBox="0 0 500 500"><g id="freepik--background-complete--inject-179"><path d="M159.41,417.28c3.31.71,5.67,4.87,3.74,8a5.54,5.54,0,0,1-10.31-3.73A5.6,5.6,0,0,1,159.41,417.28Z" style="fill:#ebebeb"></path><path d="M329.77,414c3.3.71,5.66,4.87,3.73,8a5.54,5.54,0,0,1-10.31-3.73A5.6,5.6,0,0,1,329.77,414Z" style="fill:#ebebeb"></path><path d="M130.41,102.85c3.31.71,5.66,4.87,3.73,8a5.53,5.53,0,0,1-10.3-3.72A5.6,5.6,0,0,1,130.41,102.85Z" style="fill:#ebebeb"></path><path d="M379,261.16c3.31.72,5.67,4.88,3.74,8a5.54,5.54,0,0,1-10.31-3.73A5.61,5.61,0,0,1,379,261.16Z" style="fill:#ebebeb"></path><path d="M342.1,39.47c3.31.72,5.67,4.87,3.74,8a5.54,5.54,0,0,1-10.31-3.73A5.61,5.61,0,0,1,342.1,39.47Z" style="fill:#ebebeb"></path><path d="M107.33,330c3.31.72,5.67,4.88,3.74,8a5.54,5.54,0,0,1-10.31-3.73A5.61,5.61,0,0,1,107.33,330Z" style="fill:#ebebeb"></path><path d="M164.46,446.39a3,3,0,1,1-3.61,2.32A3.05,3.05,0,0,1,164.46,446.39Z" style="fill:#ebebeb"></path><path d="M267.21,454.66a3.06,3.06,0,0,1,2.05,4.38A3,3,0,0,1,263.6,457,3.09,3.09,0,0,1,267.21,454.66Z" style="fill:#ebebeb"></path><path d="M412.2,319.84c1.81.4,3.11,2.68,2.05,4.38a3,3,0,0,1-5.66-2.05A3.09,3.09,0,0,1,412.2,319.84Z" style="fill:#ebebeb"></path><path d="M408.81,213.22a3.06,3.06,0,0,1,2.05,4.38,3,3,0,0,1-5.66-2A3.07,3.07,0,0,1,408.81,213.22Z" style="fill:#ebebeb"></path><path d="M335.28,169.46a3.06,3.06,0,0,1,3.06,3.75,3,3,0,0,1-6-.61A3.07,3.07,0,0,1,335.28,169.46Z" style="fill:#ebebeb"></path><path d="M386.24,68.79a3,3,0,1,1-3.61,2.33A3.05,3.05,0,0,1,386.24,68.79Z" style="fill:#ebebeb"></path><path d="M386.24,181.24a3,3,0,1,1-3.61,2.33A3.05,3.05,0,0,1,386.24,181.24Z" style="fill:#ebebeb"></path><path d="M104.58,174.61a3,3,0,1,1-3.61,2.32A3.05,3.05,0,0,1,104.58,174.61Z" style="fill:#ebebeb"></path><path d="M150.07,435.94a2,2,0,0,1,1.36,2.9,2,2,0,0,1-3.76-1.35A2,2,0,0,1,150.07,435.94Z" style="fill:#ebebeb"></path><path d="M148,243.59a2,2,0,1,1-2.39,1.54A2,2,0,0,1,148,243.59Z" style="fill:#ebebeb"></path><path d="M388.06,410.52a2,2,0,0,1,1.36,2.9,2,2,0,0,1-3.76-1.36A2,2,0,0,1,388.06,410.52Z" style="fill:#ebebeb"></path><path d="M87.81,160.62a2,2,0,0,1,1.36,2.9,2,2,0,0,1-3.76-1.35A2,2,0,0,1,87.81,160.62Z" style="fill:#ebebeb"></path><path d="M388.06,306.07a2,2,0,0,1,1.36,2.9,2,2,0,0,1-3.76-1.36A2,2,0,0,1,388.06,306.07Z" style="fill:#ebebeb"></path><path d="M195.88,79.22a2,2,0,0,1-.59,4,2,2,0,0,1-1.81-2.41A2,2,0,0,1,195.88,79.22Z" style="fill:#ebebeb"></path><path d="M178.09,164.27a1.91,1.91,0,0,1-2.06-2,2,2,0,1,1,3.91-.24A2,2,0,0,1,178.09,164.27Z" style="fill:#ebebeb"></path><path d="M153.57,144.57a1.91,1.91,0,0,1-2.06-2,2,2,0,1,1,3.91-.24A2,2,0,0,1,153.57,144.57Z" style="fill:#ebebeb"></path><path d="M159,167.15a1.91,1.91,0,0,1-2.88-.13,2,2,0,1,1,2.76-2.79A2,2,0,0,1,159,167.15Z" style="fill:#ebebeb"></path><path d="M174.7,141.26a1.92,1.92,0,0,1-2.89-.13,2,2,0,1,1,2.77-2.79A2,2,0,0,1,174.7,141.26Z" style="fill:#ebebeb"></path><path d="M158.42,130.94a2.63,2.63,0,0,1,2.31-3.22,2.7,2.7,0,1,1,1.14,5.27A2.74,2.74,0,0,1,158.42,130.94Z" style="fill:#ebebeb"></path><path d="M167.94,175.8a2.63,2.63,0,0,1,2.31-3.22,2.7,2.7,0,1,1,1.14,5.27A2.75,2.75,0,0,1,167.94,175.8Z" style="fill:#ebebeb"></path><path d="M145.9,153.93a2.63,2.63,0,0,1,3.17,2.38,2.7,2.7,0,1,1-5.29,1A2.73,2.73,0,0,1,145.9,153.93Z" style="fill:#ebebeb"></path><path d="M184.15,146.43a2.64,2.64,0,0,1,3.17,2.39,2.7,2.7,0,1,1-5.29,1A2.74,2.74,0,0,1,184.15,146.43Z" style="fill:#ebebeb"></path><path d="M170.32,173.61a205.26,205.26,0,0,1-5.56-21.41,202.85,202.85,0,0,1-3.51-21.85,202.39,202.39,0,0,1,5.57,21.42A204.75,204.75,0,0,1,170.32,173.61Z" style="fill:#ebebeb"></path><path d="M183.34,149.35a142.13,142.13,0,0,1-17.73,4.4,140.11,140.11,0,0,1-18.11,2.33,138.7,138.7,0,0,1,17.73-4.4A140.33,140.33,0,0,1,183.34,149.35Z" style="fill:#ebebeb"></path><path d="M158.56,165.27a83.81,83.81,0,0,1,6-12.68A82,82,0,0,1,172.48,141a82.91,82.91,0,0,1-6,12.68A83.35,83.35,0,0,1,158.56,165.27Z" style="fill:#ebebeb"></path><path d="M176.75,161.36a86.43,86.43,0,0,1-11.8-8.05,84.06,84.06,0,0,1-10.47-9.7,96.76,96.76,0,0,1,22.27,17.75Z" style="fill:#ebebeb"></path><path d="M373.68,400.5a1.92,1.92,0,0,1-.86-2.76,2,2,0,1,1,3.56,1.65A2,2,0,0,1,373.68,400.5Z" style="fill:#ebebeb"></path><path d="M361.48,371.51a1.91,1.91,0,0,1-.86-2.76,2,2,0,1,1,3.56,1.65A2,2,0,0,1,361.48,371.51Z" style="fill:#ebebeb"></path><path d="M355.55,394a1.92,1.92,0,0,1-2.48-1.49,1.88,1.88,0,0,1,1.31-2.56,1.85,1.85,0,0,1,2.45,1.42A2,2,0,0,1,355.55,394Z" style="fill:#ebebeb"></path><path d="M381.64,378.65a1.92,1.92,0,0,1-2.48-1.49,2,2,0,1,1,3.76-1.14A2,2,0,0,1,381.64,378.65Z" style="fill:#ebebeb"></path><path d="M372.22,361.83a2.64,2.64,0,0,1,3.57-1.74,2.7,2.7,0,1,1-1.51,5.18A2.75,2.75,0,0,1,372.22,361.83Z" style="fill:#ebebeb"></path><path d="M359.26,405.81a2.64,2.64,0,0,1,3.57-1.73,2.7,2.7,0,1,1-1.51,5.18A2.76,2.76,0,0,1,359.26,405.81Z" style="fill:#ebebeb"></path><path d="M350.28,376.09a2.64,2.64,0,0,1,1.65,3.61,2.7,2.7,0,1,1-5.14-1.62A2.76,2.76,0,0,1,350.28,376.09Z" style="fill:#ebebeb"></path><path d="M387.49,387.69c1,.32,2.33,1.34,1.65,3.61a2.7,2.7,0,1,1-5.14-1.62A2.76,2.76,0,0,1,387.49,387.69Z" style="fill:#ebebeb"></path><path d="M362.4,405A233.27,233.27,0,0,1,375,362.66a201.55,201.55,0,0,1-5.29,21.48A205.72,205.72,0,0,1,362.4,405Z" style="fill:#ebebeb"></path><path d="M385.39,389.87a141.65,141.65,0,0,1-17.69-4.56,139.71,139.71,0,0,1-17-6.56,138.1,138.1,0,0,1,17.68,4.56A140.49,140.49,0,0,1,385.39,389.87Z" style="fill:#ebebeb"></path><path d="M356,392.09a93.89,93.89,0,0,1,23.8-14.77A93.42,93.42,0,0,1,356,392.09Z" style="fill:#ebebeb"></path><path d="M373.88,397.3a96.79,96.79,0,0,1-11.16-26.2,84.67,84.67,0,0,1,6.55,12.69A87.06,87.06,0,0,1,373.88,397.3Z" style="fill:#ebebeb"></path><path d="M341.82,113.13a1.93,1.93,0,0,1-1.52-2.46,2,2,0,1,1,3.86.71A2,2,0,0,1,341.82,113.13Z" style="fill:#ebebeb"></path><path d="M322.77,88.09a1.93,1.93,0,0,1-1.52-2.46,2,2,0,1,1,3.86.71A2,2,0,0,1,322.77,88.09Z" style="fill:#ebebeb"></path><path d="M322.64,111.33a1.92,1.92,0,0,1-2.77-.83,2,2,0,1,1,3.36-2A2,2,0,0,1,322.64,111.33Z" style="fill:#ebebeb"></path><path d="M344.08,90a1.92,1.92,0,0,1-2.77-.83,2,2,0,1,1,3.35-2A2,2,0,0,1,344.08,90Z" style="fill:#ebebeb"></path><path d="M330.76,76c0-1,.66-2.6,3-2.56a2.7,2.7,0,1,1-.16,5.38A2.75,2.75,0,0,1,330.76,76Z" style="fill:#ebebeb"></path><path d="M329.19,121.87a2.63,2.63,0,0,1,3-2.57,2.7,2.7,0,1,1-.17,5.38A2.74,2.74,0,0,1,329.19,121.87Z" style="fill:#ebebeb"></path><path d="M313.07,95.32a2.63,2.63,0,0,1,2.5,3.08,2.7,2.7,0,1,1-5.38-.28A2.75,2.75,0,0,1,313.07,95.32Z" style="fill:#ebebeb"></path><path d="M352,97.27a2.64,2.64,0,0,1,2.5,3.08,2.7,2.7,0,1,1-5.38-.28A2.75,2.75,0,0,1,352,97.27Z" style="fill:#ebebeb"></path><path d="M332,120.32a204.35,204.35,0,0,1-.24-22.13,204.47,204.47,0,0,1,1.86-22,201.83,201.83,0,0,1,.24,22.13A204.47,204.47,0,0,1,332,120.32Z" style="fill:#ebebeb"></path><path d="M350.51,99.91a140.83,140.83,0,0,1-18.26,0,139,139,0,0,1-18.14-2.1,139.08,139.08,0,0,1,18.26,0A141,141,0,0,1,350.51,99.91Z" style="fill:#ebebeb"></path><path d="M322.62,109.38a82.61,82.61,0,0,1,8.93-10.84A82,82,0,0,1,342,89.14,81.34,81.34,0,0,1,333.07,100,83.42,83.42,0,0,1,322.62,109.38Z" style="fill:#ebebeb"></path><path d="M341.21,110a86.94,86.94,0,0,1-9.5-10.65,85,85,0,0,1-7.83-11.94A84.7,84.7,0,0,1,333.38,98,85.47,85.47,0,0,1,341.21,110Z" style="fill:#ebebeb"></path><path d="M172.54,379a95.62,95.62,0,0,0,8.09-6.05c-1.49,2.4-3,4.81-4.43,7.23-.51.83.26,1.71,1,1.91,8,2.22,31.58-16.29,45-38.42,1-1.66,0-3.62-1.46-3.11-1.73-2.24-4.54-4.23-6.43-5.83a80.5,80.5,0,0,0-10.45-7.36c-7.55-4.51-16.08-7.79-24.91-8.38-3.06-.2-12.5.32-7.84,5.5,2.94,3.29,7.42,5.64,12.05,7.65a139.24,139.24,0,0,0-17-3c-7.09-.76-15.93-1.67-22.56,1.61-2.79,1.39-6.78,4.27-3.51,7.08,2.5,2.14,6.28,3.31,10.23,4-5,.42-9.9,1-14.81,1.88-5.91,1-15,2.24-19.18,7.06-5.11,5.89,4.06,6.47,12,6a125.41,125.41,0,0,0-14.68,6.8c-3,1.68-11,6.23-9.63,10.81s9.24,2,12.19,1.36A178.15,178.15,0,0,0,134,371c-6,4.6-13,11.28-6.55,13.35,4.12,1.31,11.37-1.85,15.26-3.06a118.47,118.47,0,0,0,14.2-5.51c-4.53,5.07-9.3,11.82-2.67,11.6C160.51,387.21,167.47,382.37,172.54,379Z" style="fill:#ebebeb"></path><path d="M161.46,379.39a.42.42,0,0,1-.49-.67c10.45-9.31,19.82-18.65,27.63-30.18-4.42.85-8.84,1.77-13.23,2.79-11.74,11.05-24.81,21.23-40.21,26.54-.38.13-.75-.43-.36-.65,13.12-7.52,26.13-15,37.37-25.13-1.42.34-2.84.67-4.25,1-18.53,4.69-36.15,11.55-54.34,17.25a.32.32,0,0,1-.24-.6c15.12-8,32.18-13.37,48.87-17.72-4.54-.3-9.1-.95-13.63-1.1a165.72,165.72,0,0,0-21,.66.58.58,0,0,1-.12-1.15c12.35-1.69,27.37-3.37,39.58.36l2.09-.52q11.1-2.76,22.33-4.83c-13.15-4.83-26.18-9.61-40.4-10.21-.53,0-.5-.92,0-.93,15.25-.25,30.31,3.75,44.18,10a1.18,1.18,0,0,1,.46.38q8.06-1.4,16.15-2.43l.12-.19a1.35,1.35,0,0,1,.35-.42,121.11,121.11,0,0,0-30.64-16.73c-.56-.2-.27-1.18.32-1,12.38,3.48,24.18,9.26,33.88,17.84,3.23-.39,6.47-.75,9.71-1a1.23,1.23,0,0,1,.25,2.45c-4.26.42-8.51.92-12.76,1.47-7.34,11.2-14.83,23.81-27,30.24-.38.2-.64-.38-.34-.63,10.21-8.38,17.78-18.07,24.49-29.24q-9.3,1.26-18.52,2.94C184.15,360.22,173.9,371.91,161.46,379.39Z" style="fill:#dbdbdb"></path><path d="M142.89,310.47a93,93,0,0,0,9.8,2.47c-2.81.36-5.61.72-8.41,1.12-1,.13-1.16,1.28-.84,2,3.34,7.65,32.55,14.26,58.18,10.72,1.91-.26,2.83-2.24,1.49-3.08.65-2.77.42-6.2.47-8.67a81.44,81.44,0,0,0-.86-12.76c-1.26-8.7-4.1-17.39-9.2-24.62-1.77-2.51-8.12-9.51-9.21-2.62-.7,4.35.29,9.31,1.65,14.17a140,140,0,0,0-8.34-15.07c-3.89-6-8.75-13.43-15.47-16.51-2.84-1.29-7.6-2.57-7.71,1.74-.09,3.29,1.39,7,3.31,10.49-3.45-3.58-7-7-10.79-10.31-4.52-3.95-11.19-10.24-17.58-10.45-7.79-.26-2.46,7.23,2.88,13.1a125.79,125.79,0,0,0-14.53-7.1c-3.21-1.29-11.76-4.61-14.46-.67s4.29,8.42,6.62,10.32a178.42,178.42,0,0,0,14.86,10.78c-7.39-1.8-17-3-14.5,3.33,1.58,4,8.61,7.66,12,9.91a115.46,115.46,0,0,0,13.23,7.56c-6.8-.32-15,.23-10.69,5.24C128.92,306.32,137.06,308.68,142.89,310.47Z" style="fill:#ebebeb"></path><path d="M135.6,302.13a.41.41,0,0,1,.21-.8c13.81,2.25,27,3.63,40.84,2.43q-5.18-4.35-10.5-8.51c-16-2.15-32.12-5.89-45.95-14.5-.34-.22-.13-.85.28-.69,14.1,5.45,28.1,10.85,43.05,13.18-1.15-.88-2.3-1.77-3.47-2.65-15.32-11.43-31.75-20.79-47.64-31.32a.32.32,0,0,1,.32-.56c15.75,6.68,30.66,16.55,44.55,26.77-2.63-3.71-5-7.66-7.74-11.27A163.89,163.89,0,0,0,135.8,258.3a.58.58,0,0,1,.82-.81c9.1,8.52,19.86,19.12,24.66,31l1.72,1.29q9.13,6.87,17.82,14.3c-4.54-13.27-9-26.39-17.53-37.81-.31-.42.4-1,.74-.56,9.81,11.68,16.19,25.89,20.07,40.6a1.22,1.22,0,0,1,0,.6q6.15,5.37,12.06,11l.22,0a1.26,1.26,0,0,1,.55,0,121,121,0,0,0-6.32-34.33c-.2-.56.74-1,1-.4,5.1,11.82,8.06,24.62,7.5,37.55,2.34,2.27,4.66,4.56,6.93,6.89,1.11,1.13-.62,2.87-1.74,1.74-3-3.05-6.08-6-9.18-9-13.32,1.36-27.84,3.49-40.48-1.89-.4-.17-.11-.74.27-.67,12.95,2.66,25.24,2.43,38.14.59q-6.84-6.42-14-12.52C164.78,307.66,149.24,307.07,135.6,302.13Z" style="fill:#dbdbdb"></path><path d="M215.92,248.26a194.43,194.43,0,0,1,3.1,20.25c.27,2.56.34,5.15.42,7.73-2.13-3-4.31-6-6.47-8.87a1,1,0,0,0,.17-.56c-.21-13.05-7.79-27.63-16-37.45-.51-.62-1.61.18-1.14.85a80.18,80.18,0,0,1,9.42,20c1.31,3.86,2.14,8,3.44,11.86-4.84-6.2-9.93-12.2-15.29-17.94a1.48,1.48,0,0,0,.27-1.08c-1.45-11.56-10-22-17.29-30.55-.59-.7-1.56.28-1,1,6.28,7.95,9.24,16.87,13.26,25.7-2-2-4-4-6-5.89-3.05-2.88-6.16-5.64-9.32-8.32-4.08-12.57-15-23.88-24.74-32.15-1-.87-2.47.46-1.52,1.48a173.67,173.67,0,0,1,14.5,18c1.46,2.09,2.77,4.27,4.09,6.45q-6.81-5.33-13.93-10.16c-5.4-10.72-18.11-20.35-28.31-25.75-.73-.39-1.64.6-.95,1.2,5,4.32,10.11,8.45,14.8,13.1,1.61,1.59,3.11,3.32,4.6,5.07a320.08,320.08,0,0,0-30.66-16.65c-1.45-.69-2.76,1.45-1.28,2.19a261.19,261.19,0,0,1,29.72,17.59c-2-.35-4-.68-5.94-1.19a67.33,67.33,0,0,1-13.07-4.51c-.88-.45-1.66.85-.78,1.33,7.61,4.11,16.66,9.43,25.68,8.78a1.57,1.57,0,0,0,.31-.08c5.44,3.92,10.74,8,15.9,12.28-2.35-.35-4.71-.66-7-1.15-5.83-1.26-12-2.75-17.3-5.5-1-.52-1.91,1-.9,1.54,9,5.14,20.47,10.16,31.25,10.26q6.12,5.29,11.92,10.84c.9.86,1.78,1.73,2.67,2.59-2.33-.32-4.67-.61-6.94-1.13A71.61,71.61,0,0,1,161,234.42c-1-.47-1.85.92-.87,1.48,8,4.49,17.85,9.75,27.36,9.43q7.22,7.33,13.93,15.12c-8.33-2.19-16.3-4.11-23.77-9.43-1-.69-1.91.91-.94,1.6,8.2,5.84,18.35,12.22,28.8,12.66,1,1.19,2,2.36,2.93,3.57,3.05,3.81,5.87,7.77,8.62,11.78-8.83-3.68-17.6-6.82-25.63-12.71-.88-.64-2.06.83-1.2,1.52,8.56,6.84,18.85,14.23,29.95,16.33a1.13,1.13,0,0,0,.78.62c3.77,5.64,7.5,11.3,11.58,16.74.75,1,2-.24,1.64-1.21A111.25,111.25,0,0,0,223.38,282c1.55-11.19-3-23.71-5.3-34.27A1.11,1.11,0,0,0,215.92,248.26Z" style="fill:#dbdbdb"></path><path d="M350.11,272c1.18.75.22,2.67-1,2-11-6.49-22.61-10.3-34.61-13.73q7.32,8.44,15.2,16.41c14.18.86,29,10.13,40.85,16.7a.62.62,0,0,1-.57,1.1,188.18,188.18,0,0,0-23.51-9.33c-3.75-1.27-7.74-2.2-11.61-3.38,5,4.81,10.12,9.52,15.42,14.07h.14c11.27,1.74,21.24,7.71,30.68,13.71.88.56.18,2-.76,1.46-7.21-4-15-6.53-22.72-9.09a279.39,279.39,0,0,0,23.45,17.1c1.14.74.18,2.63-1,1.89-7.7-4.91-15.18-10-22.43-15.34,4.74,6.29,9.25,12.69,16.06,17.3.62.42.12,1.47-.56,1.07-9.67-5.8-18.5-14.27-23.83-24.32a1.31,1.31,0,0,1-.14-.53l-.16-.12a1.37,1.37,0,0,1-.48-.4c-5.37-4.28-10.6-8.76-15.69-13.49,5.12,10.66,9.23,21.17,18.35,29.95A.86.86,0,0,1,350,316.2c-10.58-9.48-20.24-23.23-23.5-37.3q-8.52-8.46-16.34-17.59c1.56,4.4,2.56,9.06,4.13,13.43,2.57,7.13,5.71,13.92,10.43,19.88.62.78-.68,1.87-1.36,1.12-9-9.92-16.61-24.41-17.8-37.95a1.79,1.79,0,0,1,0-.33,1.47,1.47,0,0,1-.19-1.79c-5.34-6.33-11-13-14.32-20.45-.54-1.2,1.25-2.16,2.11-1.32,6.45,6.33,11.52,14.31,17.21,21.44C324.62,257.57,338.15,264.36,350.11,272Z" style="fill:#dbdbdb"></path><path d="M359.58,202.49C338.91,220.2,326,201.23,326,201.23c-9.23,9.44-19,18.36-32,22.07s-27.36,4.15-40.85,5.53c-1.92.2-1.46,3.17.46,3,1.46-.16,2.93-.3,4.41-.44,36.38,7.23,49.44,25.89,49.44,25.89,29.8-20.71,43.51.89,43.51.89,21.93-25.29,47.8-27.43,46.34-27.83C361.78,220.57,359.58,202.49,359.58,202.49Z" style="fill:#dbdbdb"></path><path d="M356.53,213.07c-3.51,5.25-8.19,11.23-14,14.59,9.41-.67,18.83-1.24,28.26-1.39a.54.54,0,0,1,.06,1.06c-13.31,1.28-26.63,2.57-40,3.66,8,2,14.73,8,19.56,14.55.15.21-.14.46-.31.26-7-8-16.44-11-26.14-14.18a.69.69,0,0,1-.15-.07c-6.27.47-12.53.9-18.8,1.25-3.49.19-7,.36-10.46.48a37.15,37.15,0,0,1,13.25,12.9c.13.21-.21.42-.36.23-4.81-6-10.33-9.65-16.89-13-6.09.16-12.18.18-18.26,0-10.72-.34-22.38-.56-32.74-3.59-1.27-.37-.79-2.3.48-2.24,10.85.58,21.58,2.55,32.48,2.93,7.67.26,15.34.24,23,0,5-2,9.86-3.05,14.42-6.33,4.94-3.55,8.86-8.15,12.85-12.69a.18.18,0,0,1,.29.21c-3.81,6.58-11,15-19.14,18.51l1.27,0c10.15-.47,20.29-1.27,30.43-2a36.67,36.67,0,0,0,9.54-4.84,62.87,62.87,0,0,0,10.64-10.74A.43.43,0,0,1,356.53,213.07Z" style="fill:#ebebeb"></path><path d="M384.33,159.51c-26.37,6.75-18.26,28.21-18.26,28.21-13,2.13-25.95,5-36.45,13.53s-19.11,20-28,30.27c-1.26,1.45-3.43-.63-2.16-2.09q1.45-1.65,2.9-3.35c15-33.94,7.2-55.34,7.2-55.34,34.07-12.5,24.26-36.13,24.26-36.13,33.3-3.43,49.91-23.38,49.39-22C370.8,147.33,384.33,159.51,384.33,159.51Z" style="fill:#dbdbdb"></path><path d="M373.92,155.93c-6.31-.15-13.9.25-20,3.1,5.95-7.32,11.83-14.71,17.37-22.34.35-.49-.44-1.12-.83-.66-8.7,10.16-17.4,20.32-26,30.61,2.95-7.7,1.89-16.67-.67-24.36a.2.2,0,0,0-.39.1c2.49,10.3-.42,19.79-3.41,29.54a.47.47,0,0,0,0,.16q-6,7.29-11.83,14.68-3.24,4.11-6.4,8.28a37,37,0,0,0-2.95-18.25c-.1-.23-.46-.07-.39.16,2.16,7.39,2,14,.94,21.3-3.62,4.89-7.14,9.85-10.47,14.95-5.88,9-12.4,18.64-15.86,28.86-.43,1.26,1.43,2,2.1.89,5.76-9.21,10.31-19.12,16.26-28.26,4.19-6.43,8.61-12.7,13.18-18.85,4.53-3,8.16-6.32,13.47-8.17,5.74-2,11.75-2.57,17.76-3.23a.18.18,0,0,0,0-.36c-7.58-.66-18.59.41-26.15,5,.26-.33.51-.67.77-1,6.22-8,12.69-15.88,19.14-23.74a36.52,36.52,0,0,1,9.44-5,62.24,62.24,0,0,1,14.9-2.54A.43.43,0,0,0,373.92,155.93Z" style="fill:#ebebeb"></path></g><g id="freepik--Floor--inject-179"><polygon points="36.71 470.04 90.03 469.8 143.35 469.71 250 469.54 356.64 469.71 409.97 469.8 463.29 470.04 409.97 470.29 356.64 470.37 250 470.54 143.35 470.37 90.03 470.28 36.71 470.04" style="fill:#263238"></polygon></g><g id="freepik--Plants--inject-179"><path d="M331.26,444.42a153.33,153.33,0,0,1-15.91,3.18c-2,.3-4.06.46-6.1.62,2.3-1.8,4.57-3.64,6.78-5.45a.69.69,0,0,0,.45.11c10.32-.63,21.59-7.15,29.07-14,.46-.43-.2-1.27-.72-.88a63.6,63.6,0,0,1-15.46,8.18c-3,1.17-6.22,2-9.25,3.14q7.1-6.08,13.64-12.74a1.27,1.27,0,0,0,.87.18c9.09-1.57,17-8.7,23.55-14.79.53-.49-.28-1.22-.81-.76-6.07,5.25-13,7.92-19.86,11.42,1.5-1.63,3-3.28,4.44-5,2.17-2.51,4.24-5.07,6.25-7.67,9.8-3.68,18.36-12.7,24.55-20.73.65-.85-.45-1.94-1.22-1.16a138.27,138.27,0,0,1-13.7,12.13c-1.6,1.22-3.28,2.35-5,3.47q4-5.6,7.54-11.39c8.29-4.66,15.46-15.07,19.36-23.33.28-.59-.53-1.28-1-.71-3.24,4.11-6.33,8.3-9.84,12.19-1.2,1.32-2.51,2.57-3.84,3.81a256.89,256.89,0,0,0,12.07-24.85c.5-1.18-1.25-2.14-1.78-.94a206.46,206.46,0,0,1-12.85,24.15c.2-1.59.39-3.19.73-4.74a52.44,52.44,0,0,1,3.1-10.51c.32-.71-.74-1.28-1.08-.57-3,6.17-6.86,13.53-6,20.64a1.68,1.68,0,0,0,.07.24c-2.9,4.45-6,8.79-9.14,13,.19-1.88.35-3.75.66-5.55.78-4.65,1.75-9.57,3.73-13.88.38-.82-.83-1.48-1.25-.66-3.75,7.32-7.3,16.56-7,25.1-2.64,3.35-5.37,6.63-8.15,9.82l-1.95,2.21c.17-1.86.31-3.72.65-5.54a55.84,55.84,0,0,1,3.36-11.76c.33-.79-.81-1.43-1.21-.63-3.27,6.46-7.07,14.47-6.48,22q-5.54,6-11.46,11.57c1.43-6.68,2.66-13.05,6.6-19.16.52-.79-.78-1.47-1.29-.68-4.33,6.7-9,15-9,23.24-.9.82-1.8,1.65-2.72,2.45-2.91,2.55-5.94,4.93-9,7.25,2.59-7.12,4.76-14.17,9.13-20.74.48-.72-.73-1.6-1.24-.89-5.11,7-10.58,15.42-11.84,24.28a.87.87,0,0,0-.47.64c-4.33,3.19-8.67,6.35-12.83,9.76-.77.64.26,1.6,1,1.26a89,89,0,0,0,15.38-9.29c8.9.82,18.65-3.21,26.92-5.43C332.87,445.82,332.36,444.13,331.26,444.42Z" style="fill:#455a64"></path><path d="M319.83,405.13c.44-1-1.05-1.85-1.53-.83-4.33,9.14-10.24,16.81-16.59,24.4q1.05-8.81,2.67-17.52c8.91-6.87,14.51-19.55,19.35-29.12a.49.49,0,0,0-.86-.47,147.33,147.33,0,0,1-11.27,16.57c-1.89,2.5-4.09,4.89-6.1,7.39,1.12-5.37,2.4-10.75,3.85-16.09l.09-.06c6.61-6.17,10.49-14.51,14-22.64.33-.76-.76-1.38-1.15-.62-2.94,5.83-6.9,10.94-10.85,16.06a222.5,222.5,0,0,1,7.77-21.64c.42-1-1.05-1.8-1.48-.8-2.86,6.64-5.5,13.3-7.87,20,.3-6.24.41-12.43,2.83-18.48.22-.56-.58-1-.84-.46-3.76,8.1-5.78,17.58-4.81,26.55a1.17,1.17,0,0,0,.14.41c0,.05,0,.1-.05.15a1.26,1.26,0,0,0-.14.47q-2.43,7.79-4.28,15.82c-1.39-9.26-3.37-18-1.29-27.79a.68.68,0,0,0-1.33-.31c-2.72,10.93-2.94,24.24,1.19,34.91q-1.83,9.35-2.89,18.8c-.94-3.58-2.35-7.08-3.26-10.64a54.42,54.42,0,0,1-2-17.67c.06-.79-1.28-.92-1.39-.13-1.52,10.52,0,23.39,5.21,32.8a1,1,0,0,0,.15.2,1.16,1.16,0,0,0,.68,1.26c-.69,6.53-1.42,13.41-.3,19.78.18,1,1.78.86,2-.07,1.42-7,1.19-14.5,1.74-21.71C309.52,425.9,315.36,415.43,319.83,405.13Z" style="fill:#455a64"></path><path d="M124.31,431.39c18.83,10.5,25.87-6.26,25.87-6.26,8.65,5.88,17.66,11.27,28.33,12.1s21.89-1.08,32.59-2.13c1.52-.15,1.63,2.23.1,2.37l-3.49.35c-27.11,11.34-34.32,27.88-34.32,27.88-26.39-11.4-33.64,7.54-33.64,7.54-21-16.2-41.42-13.78-40.35-14.32C125.44,445.77,124.31,431.39,124.31,431.39Z" style="fill:#37474f"></path><path d="M128.34,439.12c3.55,3.53,8.12,7.44,13.18,9.12-7.41,1-14.81,2-22.16,3.37a.42.42,0,0,0,.12.83c10.53-1.09,21.08-2.18,31.61-3.43-5.9,2.82-10.18,8.55-12.9,14.37a.16.16,0,0,0,.28.15c4.18-7.28,11-11.15,18.06-15.12a.44.44,0,0,0,.11-.08c4.94-.62,9.87-1.27,14.79-2,2.74-.39,5.47-.82,8.2-1.27a29.26,29.26,0,0,0-8.26,12.1c-.07.19.23.29.32.12,2.78-5.42,6.5-9.11,11.06-12.75,4.75-.83,9.48-1.77,14.18-2.88,8.27-2,17.29-4,24.85-7.94.93-.49.25-1.91-.72-1.66-8.34,2.15-16.35,5.37-24.76,7.38-5.91,1.41-11.87,2.6-17.85,3.65-4.22-.77-8.13-.82-12.2-2.65-4.39-2-8.15-4.94-12-7.83a.14.14,0,0,0-.19.2c4,4.51,10.91,9.91,17.77,11.37l-1,.16c-8,1.23-16,2.21-24,3.21a28.79,28.79,0,0,1-8.16-2.26,49.27,49.27,0,0,1-9.95-6.66A.34.34,0,0,0,128.34,439.12Z" style="fill:#455a64"></path><path d="M126.82,388.81c21.32,3.2,16.65,20.77,16.65,20.77,10.44.63,20.86,1.88,29.81,7.73s16.67,14.25,24.49,21.61c1.12,1.05,2.66-.77,1.54-1.81-.86-.79-1.71-1.6-2.55-2.41-14.53-25.55-10.12-43-10.12-43-27.85-7.12-22-26.53-22-26.53-26.52,0-41.21-14.42-40.69-13.33C136.51,378.12,126.82,388.81,126.82,388.81Z" style="fill:#37474f"></path><path d="M134.74,385.16c5-.63,11-.93,16,.83-5.28-5.29-10.5-10.64-15.49-16.21-.31-.36.26-.92.61-.59,7.66,7.31,15.34,14.62,22.91,22-2.94-5.83-2.83-13-1.43-19.25a.16.16,0,0,1,.32,0c-1.14,8.32,1.92,15.56,5.06,23a.53.53,0,0,1,0,.12c3.53,3.51,7,7,10.49,10.62,1.93,2,3.83,4,5.71,6a29.34,29.34,0,0,1,.87-14.63c0-.19.35-.09.32.1-1.12,6-.43,11.18,1,16.86,3.25,3.56,6.42,7.19,9.46,10.94,5.35,6.6,11.26,13.7,14.81,21.47.44,1-1,1.67-1.58.88-5.28-6.8-9.66-14.25-15.09-21-3.81-4.73-7.8-9.31-11.9-13.79-3.8-2-6.93-4.33-11.26-5.36-4.69-1.12-9.48-1.08-14.26-1.12a.15.15,0,0,1,0-.29c5.92-1.12,14.69-1.17,21,1.87l-.69-.73c-5.54-5.84-11.27-11.5-17-17.18a29.12,29.12,0,0,0-7.85-3.2,49.32,49.32,0,0,0-11.95-.81A.34.34,0,0,1,134.74,385.16Z" style="fill:#455a64"></path><path d="M366.22,417.6c-12.44,17.61-26,5.55-26,5.55-5.26,9-11.05,17.8-20.3,23.17s-20.21,8.5-30.31,12.18c-1.43.52-.5,2.71.94,2.18,1.08-.41,2.19-.8,3.29-1.2,29.35-1.51,43,10.29,43,10.29,18.86-21.69,33.59-7.76,33.59-7.76,11.92-23.69,31.38-30.35,30.18-30.37C371.42,431.05,366.22,417.6,366.22,417.6Z" style="fill:#37474f"></path><path d="M365.93,426.31c-1.67,4.72-4.1,10.22-7.94,13.93,7.1-2.34,14.23-4.6,21.44-6.55.46-.12.7.64.25.8-10,3.57-19.95,7.15-30,10.58,6.53,0,12.88,3.3,17.85,7.37a.16.16,0,0,1-.19.26c-6.92-4.75-14.76-5.27-22.83-5.81a.42.42,0,0,1-.12,0c-4.72,1.58-9.46,3.13-14.2,4.61q-4,1.25-7.94,2.4A29.39,29.39,0,0,1,335,461.21c.14.13-.08.36-.23.24-4.86-3.69-9.81-5.4-15.5-6.71-4.64,1.31-9.31,2.51-14,3.54-8.31,1.82-17.3,3.91-25.84,3.6-1.06,0-1.06-1.62-.07-1.82,8.45-1.66,17.06-2.23,25.51-4.06,5.94-1.28,11.83-2.79,17.67-4.43,3.47-2.52,7-4.25,9.85-7.66,3.1-3.69,5.22-8,7.4-12.24a.14.14,0,0,1,.27.1c-1.65,5.8-5.55,13.65-11.11,17.94l1-.29c7.71-2.33,15.34-4.91,23-7.46a29.31,29.31,0,0,0,6.38-5.58,49.51,49.51,0,0,0,6.09-10.31A.34.34,0,0,1,365.93,426.31Z" style="fill:#455a64"></path><path d="M233.12,456.45c-5.53-1.65-11.42.21-17.08-.46a20.6,20.6,0,0,1-8.85-2.91c-1.17,6.43-5.41,12.31-10,17.15,0,.13-2-5-3.05-7.26s-2.48-4.11-3.48-6.28a10.09,10.09,0,0,1-1-5.53,17.45,17.45,0,0,1-5,3.94c-4.55,2.35-9.47,2.29-14.43,2.79a.48.48,0,0,1-.48-.73,42.6,42.6,0,0,0,4.14-10.26,14.44,14.44,0,0,1,3-5.82c-4.9-1.39-9.83-4.56-13.35-6.65-.14-.08-.06-.33.1-.29s9.93-8.63,15.48-8.46c-7.25-8.53-4.13-20-4.07-19.65,4,4,7.48,7.55,12.79,9.77,2.7,1.13,5.5,1.95,7.62,3.9-1.51-16.69,10.46-24,10.55-23.79,2.83,7.64,5.58,16,3.65,24,2.91-2,6.38-2.54,10-2.36,5.37.27,10.8,1.67,16.13,2.44a.38.38,0,0,1,.4.08c.52.15-6,9.17-10.31,11.71a35.84,35.84,0,0,1-9.34,3.76,20,20,0,0,1,7.27,3.76C228.93,443.43,233.4,456.54,233.12,456.45Z" style="fill:#FFA52E"></path><path d="M233.12,456.45c-5.53-1.65-11.42.21-17.08-.46a20.6,20.6,0,0,1-8.85-2.91c-1.17,6.43-5.41,12.31-10,17.15,0,.13-2-5-3.05-7.26s-2.48-4.11-3.48-6.28a10.09,10.09,0,0,1-1-5.53,17.45,17.45,0,0,1-5,3.94c-4.55,2.35-9.47,2.29-14.43,2.79a.48.48,0,0,1-.48-.73,42.6,42.6,0,0,0,4.14-10.26,14.44,14.44,0,0,1,3-5.82c-4.9-1.39-9.83-4.56-13.35-6.65-.14-.08-.06-.33.1-.29s9.93-8.63,15.48-8.46c-7.25-8.53-4.13-20-4.07-19.65,4,4,7.48,7.55,12.79,9.77,2.7,1.13,5.5,1.95,7.62,3.9-1.51-16.69,10.46-24,10.55-23.79,2.83,7.64,5.58,16,3.65,24,2.91-2,6.38-2.54,10-2.36,5.37.27,10.8,1.67,16.13,2.44a.38.38,0,0,1,.4.08c.52.15-6,9.17-10.31,11.71a35.84,35.84,0,0,1-9.34,3.76,20,20,0,0,1,7.27,3.76C228.93,443.43,233.4,456.54,233.12,456.45Z" style="opacity:0.2"></path><path d="M222.75,466.86a.26.26,0,0,1-.35,0c-4-2.61-8.5-3.4-12.64-5.63a20.76,20.76,0,0,1-6-4.8,17.92,17.92,0,0,1-3.44,3.94c-5,4.25-11.67,4.61-16.88,8.25-.38.26-.85-.21-.59-.53,0,0,0,0,0,0-2.17-5.18-1.94-11.74.24-17.28l-.39,0c-5.33.52-12.28-1.32-17,1.75a.17.17,0,0,1-.11,0c-.14.08-.35,0-.32-.18,1.38-8.44,9.16-15.54,17.59-18.16-6.73-2.8-12.7-8.49-18.6-12.11a.33.33,0,0,1,.29-.58l.61.25c6.73-.48,15-3.9,22-2.8a19.85,19.85,0,0,1-1.51-6.1c-.49-6,3-13.16.86-18.87a.15.15,0,0,1,.2-.18.18.18,0,0,1,.28,0c4.89,4.56,11.51,7.48,15.56,12.89a13.51,13.51,0,0,1,2.82,7.29c6.21-6.51,18.22-9.18,25.4-13.52a3.53,3.53,0,0,0,.21-.32.26.26,0,0,1,.46.24,56.07,56.07,0,0,0-3.9,12.47c-.56,3.33-.6,6.75-1.49,10a20.38,20.38,0,0,1-6.21,9.9c7.58-1.39,16.36,1,21.14,6.47v0a.23.23,0,0,1,.15.34c-4,6-15.1,8.82-22.47,7a13.44,13.44,0,0,1,2,4.23c1.45,4.84,2.75,10.79,2.34,15.84A.16.16,0,0,1,222.75,466.86Z" style="fill:#FFA52E"></path><g style="opacity:0.2"><path d="M201.45,433.27a27.7,27.7,0,0,0-1-6.11,23.36,23.36,0,0,0-.55-10.23c-1.4-4.26-4.46-7.85-7.29-11.23-.06-.07-.17,0-.11.1,2.83,3.59,5.84,7.39,6.94,11.94a22.08,22.08,0,0,1,.2,6.92,47.73,47.73,0,0,0-8-13.68c-.11-.14-.3,0-.21.18a61.65,61.65,0,0,1,5.77,10.62c1.52,3.77,2.2,7.69,3.38,11.54C200.7,433.76,201.48,433.83,201.45,433.27Z"></path><path d="M197.73,451.05c.06-.14-.16-.21-.23-.08-2.41,4.94-6.52,8.11-10.46,11.74a.33.33,0,0,0,.43.49C191.69,459.94,195.59,456,197.73,451.05Z"></path><path d="M214.4,458.35c-2.94-3.68-5.15-7.29-5.9-12,0-.23-.38-.16-.36.07.51,4.6,2.37,9.24,6,12.25C214.33,458.77,214.53,458.51,214.4,458.35Z"></path><path d="M217.48,458c-3.5-4.37-5.24-9.2-7.62-14.18a22.65,22.65,0,0,0-6.74-8.53.52.52,0,0,0,0-.17c4.25,1.79,8.68,3.46,13,4.95a26.34,26.34,0,0,0,11.38,1.66c.15,0,.14-.27,0-.27a41,41,0,0,1-13.17-3c-2.33-.89-4.65-2-7-2.87,3.32.59,6.59,1.36,9.92,2.24,4.47,1.17,9.2,2.41,13.86,2,.32,0,.28-.53,0-.55a84.76,84.76,0,0,1-16.53-3.14c-3.77-1-7.74-2-11.68-1.93,6.37-4.19,11.17-10.3,15.16-16.71a.14.14,0,0,0-.24-.16c-4.18,6.09-9.53,10.82-15.13,15.46A68.65,68.65,0,0,1,209,422.48a51.78,51.78,0,0,1,11.2-10.26c.2-.14,0-.48-.24-.36-7.92,4.37-15.81,11.88-18.8,20.74l-.38.18a37,37,0,0,0-20.49-7.9.23.23,0,0,0,0,.45,43.3,43.3,0,0,1,19.38,8c-4.32,2.07-8.53,4.27-13,6-4.77,1.81-9.7,3.1-13.53,6.64a.1.1,0,0,0,.13.15c4.54-3.52,10.3-4.54,15.55-6.59A73,73,0,0,0,200.46,434l.18.12s0,0,0,.06a.5.5,0,0,0,0,.21.16.16,0,0,0-.06.13.5.5,0,0,0,.37.8c-1.74,9.23-7.65,16.3-12.68,24.11a.32.32,0,0,0,.53.35c5.67-7.2,12-15.35,12.74-24.76l.17-.1.47.37a40.05,40.05,0,0,1,8.17,11.55c1.83,4,3.48,8.4,6.79,11.47A.24.24,0,0,0,217.48,458Z"></path></g><path d="M214.12,445.92c-3.05,3.41-8.23-.46-10.86-3.89.54,4.33-.74,10.57-5.54,10.56a5,5,0,0,1-4.77-4,7.78,7.78,0,0,1,.55-4.7c-2,1.54-4.77,2.19-6.4,0-2-2.65,1.34-5.39,4.11-6.75a7.38,7.38,0,0,1-5.35-2.51,5.08,5.08,0,0,1-.46-6.05,5.75,5.75,0,0,1,6.94-1.88,11.63,11.63,0,0,1,4,2.87,12.85,12.85,0,0,1-.37-5.33c.29-1.75,1.37-4.16,3.42-4.28,4.08-.23,3.49,5.26,2.55,9,2.47-4,6.94-9.48,10.34-6.07,2.73,2.75-1.45,6.7-5.14,9.15a14.46,14.46,0,0,1,3-.38c2.11,0,5.75.17,6.6,2.6.69,2-1.1,3.42-2.82,3.78a13.1,13.1,0,0,1-3.88.17C213.42,440.08,216.64,443.09,214.12,445.92Z" style="fill:#FFA52E"></path><path d="M214.12,445.92c-3.05,3.41-8.23-.46-10.86-3.89.54,4.33-.74,10.57-5.54,10.56a5,5,0,0,1-4.77-4,7.78,7.78,0,0,1,.55-4.7c-2,1.54-4.77,2.19-6.4,0-2-2.65,1.34-5.39,4.11-6.75a7.38,7.38,0,0,1-5.35-2.51,5.08,5.08,0,0,1-.46-6.05,5.75,5.75,0,0,1,6.94-1.88,11.63,11.63,0,0,1,4,2.87,12.85,12.85,0,0,1-.37-5.33c.29-1.75,1.37-4.16,3.42-4.28,4.08-.23,3.49,5.26,2.55,9,2.47-4,6.94-9.48,10.34-6.07,2.73,2.75-1.45,6.7-5.14,9.15a14.46,14.46,0,0,1,3-.38c2.11,0,5.75.17,6.6,2.6.69,2-1.1,3.42-2.82,3.78a13.1,13.1,0,0,1-3.88.17C213.42,440.08,216.64,443.09,214.12,445.92Z" style="opacity:0.2"></path><path d="M200.74,431.27a1.17,1.17,0,0,0-1.53-.52,1,1,0,0,0-.74.58,1.23,1.23,0,1,0,2.27-.06Z" style="fill:#fff"></path><path d="M206.42,432.9a2.45,2.45,0,0,0-1.39-2.18l-.13-.05-.18-.09a2.11,2.11,0,0,0-2.37.58,2,2,0,0,0,.25,2.46,2.64,2.64,0,0,0,2.14,1.13A1.76,1.76,0,0,0,206.42,432.9Z" style="fill:#fff"></path><path d="M202,434.34a1.47,1.47,0,0,0-2.34,1.31.89.89,0,0,0,.17.43,1.6,1.6,0,0,0,1.69.85A1.43,1.43,0,0,0,202,434.34Z" style="fill:#fff"></path><path d="M203.6,437.57a.9.9,0,0,0-1.36,1.17A.9.9,0,0,0,203.6,437.57Z" style="fill:#fff"></path><path d="M198.68,433.78a2.29,2.29,0,0,0-1.55-.85,1.57,1.57,0,0,0-1.44.8h0l0,0a1.9,1.9,0,0,0,1.61,2.73A1.67,1.67,0,0,0,198.68,433.78Z" style="fill:#fff"></path><path d="M201.31,438.34a1.41,1.41,0,0,0-1.62-1.08.79.79,0,0,0-.38.18,1.1,1.1,0,0,0-.67,1,1.42,1.42,0,0,0,1.48,1.43A1.28,1.28,0,0,0,201.31,438.34Z" style="fill:#fff"></path><path d="M202.42,440a.59.59,0,0,0-.89.76C202,441.32,202.92,440.56,202.42,440Z" style="fill:#fff"></path><path d="M197.62,437.8a.9.9,0,1,0-.09,1.28A.91.91,0,0,0,197.62,437.8Z" style="fill:#fff"></path><path d="M206,436.28a.6.6,0,0,0-.09-.13,1.13,1.13,0,0,0-1.41-.42,1,1,0,0,0-.48,1.5,1.27,1.27,0,0,0,1.53.5A1.06,1.06,0,0,0,206,436.28Z" style="fill:#fff"></path></g><g id="freepik--Character--inject-179"><path d="M313.39,206.52H186.64c0-65.89,21.21-92.85,21.21-92.85h84.33S313.39,140.63,313.39,206.52Z" style="fill:#263238"></path><rect x="204.91" y="291.66" width="39.51" height="114.49" style="fill:#263238"></rect><rect x="204.91" y="388.44" width="39.49" height="73.97" style="fill:#263238"></rect><polygon points="247.43 397.87 201.88 397.84 201.9 383.71 201.9 383.71 247.44 383.74 247.44 383.74 247.43 397.87" style="fill:#FFA52E"></polygon><path d="M233.12,404.34l-17.51,6.89c-.81.31-.36,1.59.45,1.27l17.52-6.89C234.38,405.29,233.93,404,233.12,404.34Z" style="fill:#FFA52E"></path><path d="M215.68,405.27l17.25,7.52c.79.34,1.38-.87.58-1.22l-17.26-7.52C215.46,403.7,214.88,404.92,215.68,405.27Z" style="fill:#FFA52E"></path><path d="M217.7,404.29a2.27,2.27,0,1,1-2.27-2.27A2.27,2.27,0,0,1,217.7,404.29Z" style="fill:#FFA52E"></path><circle cx="215.43" cy="411.7" r="2.27" style="fill:#FFA52E"></circle><path d="M236.16,404.29a2.27,2.27,0,1,1-2.27-2.27A2.27,2.27,0,0,1,236.16,404.29Z" style="fill:#FFA52E"></path><circle cx="233.89" cy="411.7" r="2.27" style="fill:#FFA52E"></circle><path d="M233.12,420.47l-17.51,6.88c-.81.32-.36,1.59.45,1.27l17.52-6.88C234.38,421.42,233.93,420.15,233.12,420.47Z" style="fill:#FFA52E"></path><path d="M215.68,421.4l17.25,7.51c.79.35,1.38-.87.58-1.22l-17.26-7.51C215.46,419.83,214.88,421.05,215.68,421.4Z" style="fill:#FFA52E"></path><path d="M217.7,420.42a2.27,2.27,0,1,1-2.27-2.28A2.27,2.27,0,0,1,217.7,420.42Z" style="fill:#FFA52E"></path><circle cx="215.43" cy="427.83" r="2.27" style="fill:#FFA52E"></circle><path d="M236.16,420.42a2.27,2.27,0,1,1-2.27-2.28A2.27,2.27,0,0,1,236.16,420.42Z" style="fill:#FFA52E"></path><circle cx="233.89" cy="427.83" r="2.27" style="fill:#FFA52E"></circle><path d="M233.12,436.6l-17.51,6.88c-.81.32-.36,1.59.45,1.27l17.52-6.88C234.38,437.55,233.93,436.28,233.12,436.6Z" style="fill:#FFA52E"></path><path d="M215.68,437.52,232.93,445c.79.35,1.38-.87.58-1.22l-17.26-7.51C215.46,436,214.88,437.18,215.68,437.52Z" style="fill:#FFA52E"></path><circle cx="215.43" cy="436.54" r="2.27" style="fill:#FFA52E"></circle><circle cx="215.43" cy="443.96" r="2.27" style="fill:#FFA52E"></circle><circle cx="233.89" cy="436.54" r="2.27" style="fill:#FFA52E"></circle><circle cx="233.89" cy="443.96" r="2.27" style="fill:#FFA52E"></circle><path d="M249.12,470H200.2s4.53-17.45,24.46-17.45S249.12,470,249.12,470Z" style="fill:#263238"></path><rect x="255.57" y="291.66" width="39.51" height="114.49" style="fill:#263238"></rect><rect x="255.58" y="388.44" width="39.49" height="73.97" style="fill:#263238"></rect><polygon points="298.09 397.87 252.55 397.84 252.56 383.71 252.56 383.71 298.11 383.74 298.11 383.74 298.09 397.87" style="fill:#FFA52E"></polygon><path d="M283.79,404.34l-17.52,6.89c-.8.31-.35,1.59.46,1.27l17.51-6.89C285.05,405.29,284.6,404,283.79,404.34Z" style="fill:#FFA52E"></path><path d="M266.34,405.27l17.26,7.52c.79.34,1.37-.87.57-1.22l-17.25-7.52C266.13,403.7,265.54,404.92,266.34,405.27Z" style="fill:#FFA52E"></path><path d="M268.37,404.29A2.27,2.27,0,1,1,266.1,402,2.27,2.27,0,0,1,268.37,404.29Z" style="fill:#FFA52E"></path><circle cx="266.1" cy="411.7" r="2.27" style="fill:#FFA52E"></circle><path d="M286.83,404.29a2.28,2.28,0,1,1-2.27-2.27A2.27,2.27,0,0,1,286.83,404.29Z" style="fill:#FFA52E"></path><path d="M286.83,411.7a2.28,2.28,0,1,1-2.27-2.27A2.28,2.28,0,0,1,286.83,411.7Z" style="fill:#FFA52E"></path><path d="M283.79,420.47l-17.52,6.88c-.8.32-.35,1.59.46,1.27l17.51-6.88C285.05,421.42,284.6,420.15,283.79,420.47Z" style="fill:#FFA52E"></path><path d="M266.34,421.4l17.26,7.51c.79.35,1.37-.87.57-1.22l-17.25-7.51C266.13,419.83,265.54,421.05,266.34,421.4Z" style="fill:#FFA52E"></path><path d="M268.37,420.42a2.27,2.27,0,1,1-2.27-2.28A2.27,2.27,0,0,1,268.37,420.42Z" style="fill:#FFA52E"></path><circle cx="266.1" cy="427.83" r="2.27" style="fill:#FFA52E"></circle><path d="M286.83,420.42a2.28,2.28,0,1,1-2.27-2.28A2.27,2.27,0,0,1,286.83,420.42Z" style="fill:#FFA52E"></path><path d="M286.83,427.83a2.28,2.28,0,1,1-2.27-2.27A2.27,2.27,0,0,1,286.83,427.83Z" style="fill:#FFA52E"></path><path d="M283.79,436.6l-17.52,6.88c-.8.32-.35,1.59.46,1.27l17.51-6.88C285.05,437.55,284.6,436.28,283.79,436.6Z" style="fill:#FFA52E"></path><path d="M266.34,437.52,283.6,445c.79.35,1.37-.87.57-1.22l-17.25-7.51C266.13,436,265.54,437.18,266.34,437.52Z" style="fill:#FFA52E"></path><circle cx="266.1" cy="436.54" r="2.27" style="fill:#FFA52E"></circle><circle cx="266.1" cy="443.96" r="2.27" style="fill:#FFA52E"></circle><path d="M286.83,436.54a2.28,2.28,0,1,1-2.27-2.27A2.28,2.28,0,0,1,286.83,436.54Z" style="fill:#FFA52E"></path><path d="M286.83,444a2.28,2.28,0,1,1-2.27-2.28A2.27,2.27,0,0,1,286.83,444Z" style="fill:#FFA52E"></path><path d="M299.78,470H250.87s4.53-17.45,24.46-17.45S299.78,470,299.78,470Z" style="fill:#263238"></path><rect x="204.91" y="291.66" width="90.17" height="38.2" style="fill:#263238"></rect><path d="M250,261.27v28.52c0,36.07-50.32,54.63-50.32,54.63V261.27Z" style="fill:#FFA52E"></path><path d="M250,261.27v28.52c0,36.07,50.32,54.63,50.32,54.63V261.27Z" style="fill:#FFA52E"></path><rect x="199.7" y="192.53" width="100.59" height="99.13" style="fill:#FFA52E"></rect><circle cx="225.41" cy="207.23" r="5.14" transform="translate(-41.62 57.4) rotate(-13.3)" style="fill:#37474f"></circle><path d="M279.68,207.23a5.14,5.14,0,1,1-5.14-5.14A5.14,5.14,0,0,1,279.68,207.23Z" style="fill:#37474f"></path><rect x="223.74" y="206.26" width="52.52" height="1.94" style="fill:#37474f"></rect><path d="M230.54,228.8a5.14,5.14,0,1,1-5.13-5.14A5.14,5.14,0,0,1,230.54,228.8Z" style="fill:#37474f"></path><path d="M279.68,228.8a5.14,5.14,0,1,1-5.14-5.14A5.14,5.14,0,0,1,279.68,228.8Z" style="fill:#37474f"></path><rect x="223.74" y="227.83" width="52.52" height="1.94" style="fill:#37474f"></rect><path d="M230.54,250.38a5.14,5.14,0,1,1-5.13-5.14A5.13,5.13,0,0,1,230.54,250.38Z" style="fill:#37474f"></path><path d="M279.68,250.38a5.14,5.14,0,1,1-5.14-5.14A5.14,5.14,0,0,1,279.68,250.38Z" style="fill:#37474f"></path><rect x="223.74" y="249.41" width="52.52" height="1.94" style="fill:#37474f"></rect><rect x="199.7" y="271.74" width="100.59" height="19.92" style="fill:#263238"></rect><path d="M272.65,294.85H227.31V268.76h45.34Zm-40.34-5h35.34V273.76H232.31Z" style="fill:#fff"></path><rect x="173.69" y="193.5" width="26.01" height="117.01" style="fill:#FFA52E"></rect><rect x="173.69" y="193.5" width="26.01" height="117.01" style="opacity:0.1"></rect><polygon points="199.7 206.29 171.03 206.26 171.04 192.53 171.04 192.53 199.71 192.55 199.71 192.55 199.7 206.29" style="fill:#37474f"></polygon><rect x="171.03" y="206.26" width="2.66" height="13.89" style="fill:#37474f"></rect><rect x="177.54" y="206.26" width="2.66" height="13.89" style="fill:#37474f"></rect><rect x="184.04" y="206.26" width="2.66" height="13.89" style="fill:#37474f"></rect><rect x="190.55" y="206.26" width="2.66" height="13.89" style="fill:#37474f"></rect><rect x="197.05" y="206.26" width="2.66" height="13.89" style="fill:#37474f"></rect><rect x="174.21" y="320.78" width="25.48" height="24.28" style="fill:#f7a9a0"></rect><path d="M196.61,325.64q.22,3.64.32,7.29c.08,2.43.13,4.85.15,7.28v.48h-.48q-4.38,0-8.75,0h-.49v-.48c0-2.43.08-4.85.16-7.28s.17-4.86.32-7.29q.22,3.64.32,7.29c.08,2.43.13,4.85.16,7.28l-.48-.47q4.37,0,8.75,0l-.48.47c0-2.43.08-4.85.16-7.28S196.46,328.07,196.61,325.64Z" style="opacity:0.1"></path><rect x="171.03" y="310.5" width="28.66" height="10.28" style="fill:#37474f"></rect><circle cx="175.21" cy="315.64" r="1.52" style="fill:#FFA52E"></circle><rect x="300.3" y="193.5" width="26.01" height="117.01" transform="translate(626.61 504) rotate(180)" style="fill:#FFA52E"></rect><rect x="300.3" y="193.5" width="26.01" height="117.01" transform="translate(626.61 504) rotate(180)" style="opacity:0.1"></rect><polygon points="300.3 206.29 328.97 206.26 328.96 192.53 328.96 192.53 300.29 192.55 300.29 192.55 300.3 206.29" style="fill:#37474f"></polygon><rect x="326.31" y="206.26" width="2.66" height="13.89" transform="translate(655.27 426.4) rotate(180)" style="fill:#37474f"></rect><rect x="319.8" y="206.26" width="2.66" height="13.89" transform="translate(642.26 426.4) rotate(180)" style="fill:#37474f"></rect><rect x="313.3" y="206.26" width="2.66" height="13.89" transform="translate(629.26 426.4) rotate(180)" style="fill:#37474f"></rect><rect x="306.79" y="206.26" width="2.66" height="13.89" transform="translate(616.25 426.4) rotate(180)" style="fill:#37474f"></rect><rect x="300.29" y="206.26" width="2.66" height="13.89" transform="translate(603.24 426.4) rotate(180)" style="fill:#37474f"></rect><rect x="300.3" y="320.78" width="25.48" height="24.28" transform="translate(626.09 665.85) rotate(180)" style="fill:#f7a9a0"></rect><path d="M303.39,325.64q.23,3.64.32,7.29c.08,2.43.13,4.85.16,7.28l-.48-.47q4.38,0,8.75,0l-.48.47c0-2.43.08-4.85.16-7.28s.17-4.86.32-7.29q.23,3.64.32,7.29c.08,2.43.13,4.85.16,7.28v.48h-.49q-4.36,0-8.75,0h-.48v-.48c0-2.43.07-4.85.15-7.28S303.24,328.07,303.39,325.64Z" style="opacity:0.1"></path><rect x="300.3" y="310.5" width="28.66" height="10.28" transform="translate(629.27 631.29) rotate(180)" style="fill:#37474f"></rect><circle cx="324.79" cy="315.64" r="1.52" style="fill:#FFA52E"></circle><polygon points="294.06 192.51 205.92 192.51 207.85 115.8 292.13 115.8 294.06 192.51" style="fill:#f7a9a0"></polygon><rect x="245.54" y="134.17" width="8.9" height="33.8" style="opacity:0.1"></rect><circle cx="225.04" cy="165.71" r="9.16" style="opacity:0.1"></circle><circle cx="274.9" cy="165.71" r="9.16" style="opacity:0.1"></circle><rect x="236.51" y="170.33" width="26.97" height="30.96" style="fill:#263238"></rect><rect x="236.51" y="192.51" width="26.97" height="8.77" style="fill:#fff"></rect><rect x="244.83" y="192.51" width="1.12" height="8.77" style="fill:#263238"></rect><rect x="254.04" y="192.51" width="1.12" height="8.77" style="fill:#263238"></rect><rect x="236.51" y="170.33" width="26.97" height="11.42" style="fill:#fff"></rect><rect x="244.83" y="170.33" width="1.12" height="11.42" style="fill:#263238"></rect><rect x="254.04" y="170.33" width="1.12" height="11.42" style="fill:#263238"></rect><path d="M250.85,168.34s-2.55-6.21-8.76-4.21-9.46,10.49-14.8,8.74c-4.83-1.58-4.75-5.47-4.75-5.47s0,6.21,4.74,9.59C233.18,181.17,248.1,180.21,250.85,168.34Z" style="fill:#263238"></path><path d="M249.13,168.34s2.57-6.21,8.77-4.2,9.44,10.52,14.79,8.77c4.83-1.57,4.76-5.46,4.76-5.46s0,6.21-4.76,9.58C266.79,181.2,251.86,180.21,249.13,168.34Z" style="fill:#263238"></path><rect x="207.8" y="34.93" width="84.42" height="70.14" style="fill:#37474f"></rect><polygon points="216.24 81.18 207.8 105.07 224.68 105.07 216.24 81.18" style="fill:#FFA52E"></polygon><polygon points="233.12 81.18 224.68 105.07 241.56 105.07 233.12 81.18" style="fill:#FFA52E"></polygon><polygon points="250.01 81.18 241.56 105.07 258.45 105.07 250.01 81.18" style="fill:#FFA52E"></polygon><polygon points="266.89 81.18 258.45 105.07 275.33 105.07 266.89 81.18" style="fill:#FFA52E"></polygon><polygon points="283.77 81.18 275.33 105.07 292.22 105.07 283.77 81.18" style="fill:#FFA52E"></polygon><path d="M250,75.44a21.31,21.31,0,0,1-21.29-21.28V47.7h3v6.46a18.29,18.29,0,0,0,36.58,0V47.7h3v6.46A21.31,21.31,0,0,1,250,75.44Z" style="fill:#FFA52E"></path><path d="M250,81.75a21.31,21.31,0,0,1-21.29-21.29V54h3v6.45a18.29,18.29,0,0,0,36.58,0V54h3v6.45A21.31,21.31,0,0,1,250,81.75Z" style="fill:#FFA52E"></path><circle cx="230.21" cy="47.7" r="5.13" style="fill:#FFA52E"></circle><circle cx="269.79" cy="47.7" r="5.13" style="fill:#FFA52E"></circle><rect x="203.77" y="105.07" width="92.44" height="10.73" style="fill:#37474f"></rect><path d="M267.44,151c0-.13.25.17.24.31-.28,3.37,0,7.28,2.95,8.57.1,0,.08.21,0,.18C266.89,159.37,266.63,154.18,267.44,151Z" style="fill:#263238"></path><path d="M270.64,147.66c5.46-.12,5.3,10.8.25,10.91S266.07,147.77,270.64,147.66Z" style="fill:#263238"></path><rect x="263.45" y="142.96" width="14.99" height="5.43" style="fill:#263238"></rect><path d="M232.55,151c0-.13-.26.17-.24.31.28,3.37,0,7.28-2.95,8.57-.1,0-.08.21,0,.18C233.1,159.37,233.36,154.18,232.55,151Z" style="fill:#263238"></path><path d="M229.35,147.66c-5.46-.12-5.31,10.8-.25,10.91S233.92,147.77,229.35,147.66Z" style="fill:#263238"></path><rect x="221.55" y="142.96" width="14.99" height="5.43" transform="translate(458.08 291.35) rotate(180)" style="fill:#263238"></rect></g></svg>