<svg xmlns="http://www.w3.org/2000/svg" viewBox="0 0 500 500"><g id="freepik--background-complete--inject-534"><path d="M79.91,316.86l-13.75.27-7,.12c-2.33,0-4.67,0-7,.05h-.44v-.44l-.06-11.72v-.51h.5l13.87.06c4.62,0,9.24.11,13.86.16h.28v.27c0,2-.09,4-.13,5.91Zm0,0-.14-5.92c0-1.95-.11-3.88-.13-5.8l.27.27c-4.62,0-9.24.16-13.86.16l-13.87.07.5-.5,0,11.72-.45-.45c2.29,0,4.57,0,6.86,0l6.89.12Z" style="fill:#ebebeb"></path><path d="M64.44,331.63l-13.75.28-7,.11c-2.33.05-4.67,0-7,.06h-.44v-.45l0-11.72v-.5h.5l13.87.07c4.62,0,9.24.11,13.86.16h.28v.27c0,2-.09,4-.13,5.92Zm0,0-.14-5.92c0-1.95-.11-3.88-.13-5.8l.27.28c-4.62.05-9.24.16-13.86.16l-13.87.06.5-.5-.05,11.72-.45-.44c2.29,0,4.57,0,6.86.05l6.89.11Z" style="fill:#ebebeb"></path><path d="M259.17,170.78l-13.75.28-7,.11c-2.33.05-4.67,0-7,.06H231v-.45l-.06-11.72v-.5h.5l13.87.06c4.62,0,9.24.12,13.86.17h.28v.27c0,2-.09,4-.13,5.92Zm0,0-.14-5.92c0-2-.11-3.88-.13-5.8l.27.27c-4.62.06-9.24.16-13.86.17l-13.87.06.5-.5-.05,11.72-.45-.45c2.29,0,4.57,0,6.86.06l6.89.11Z" style="fill:#ebebeb"></path><path d="M243.45,185.56l-13.75.28-7,.11c-2.33,0-4.67,0-7,.05h-.44v-.45l-.05-11.72v-.5h.5l13.87.06c4.62,0,9.25.11,13.87.16h.27v.27c0,2-.09,4-.13,5.92Zm0,0-.14-5.92c-.05-1.95-.12-3.88-.14-5.8l.28.27c-4.62,0-9.25.16-13.87.16l-13.87.07.5-.5-.05,11.72-.45-.45c2.29,0,4.57,0,6.86.06l6.9.11Z" style="fill:#ebebeb"></path><path d="M463.29,331.63l-13.75.28-7,.11c-2.33.05-4.67,0-7,.06h-.45v-.45l-.05-11.72v-.5h.51l13.86.07c4.63,0,9.25.11,13.87.16h.27v.27c0,2-.08,4-.13,5.92Zm0,0-.14-5.92c0-1.95-.11-3.88-.13-5.8l.27.28c-4.62.05-9.24.16-13.87.16l-13.86.06.5-.5L436,331.63l-.44-.44c2.28,0,4.56,0,6.86.05l6.89.11Z" style="fill:#ebebeb"></path><path d="M447.82,54.38l-13.75.28-7,.11c-2.33,0-4.67,0-7,0h-.45v-.45l-.05-11.72v-.5h.51l13.86.06c4.62,0,9.25.12,13.87.17h.27v.27c0,2-.08,4-.13,5.92Zm0,0-.14-5.92c-.05-2-.11-3.88-.13-5.8l.27.27c-4.62,0-9.25.16-13.87.17l-13.86.06.5-.5-.06,11.72-.44-.45c2.28,0,4.56,0,6.86.06l6.89.11Z" style="fill:#ebebeb"></path><path d="M463.29,69.16l-13.75.27-7,.12c-2.33,0-4.67,0-7,0h-.45v-.44l-.05-11.72v-.5h.51l13.86.06c4.63,0,9.25.11,13.87.16h.27v.27c0,2-.08,4-.13,5.92Zm0,0-.14-5.92c0-2-.11-3.88-.13-5.8l.27.27c-4.62,0-9.24.16-13.87.16l-13.86.07.5-.5L436,69.16l-.44-.45c2.28,0,4.56,0,6.86.06l6.89.11Z" style="fill:#ebebeb"></path><path d="M64.44,54.38l-13.75.28-7,.11c-2.33,0-4.67,0-7,0h-.44v-.45l0-11.72v-.5h.5l13.87.06c4.62,0,9.24.12,13.86.17h.28v.27c0,2-.09,4-.13,5.92Zm0,0-.14-5.92c0-2-.11-3.88-.13-5.8l.27.27c-4.62,0-9.24.16-13.86.17l-13.87.06.5-.5-.05,11.72-.45-.45c2.29,0,4.57,0,6.86.06l6.89.11Z" style="fill:#ebebeb"></path><path d="M227.72,170.78l-13.75.28-7,.11c-2.33.05-4.67,0-7,.06h-.45v-.45l0-11.72v-.5h.5l13.86.06c4.63,0,9.25.12,13.87.17H228v.27c0,2-.08,4-.13,5.92Zm0,0-.14-5.92c-.05-2-.11-3.88-.13-5.8l.27.27c-4.62.06-9.24.16-13.87.17l-13.86.06.5-.5-.06,11.72-.44-.45c2.28,0,4.56,0,6.86.06l6.89.11Z" style="fill:#ebebeb"></path><rect x="75.84" width="1" height="108.72" style="fill:#c7c7c7"></rect><polygon points="114.09 145.11 111.05 151.78 41.61 151.78 38.59 145.11 68.15 124.65 84.53 124.65 114.09 145.11" style="fill:#ebebeb"></polygon><polygon points="86.58 104.93 84.53 124.65 68.15 124.65 66.1 104.93 86.58 104.93" style="fill:#dbdbdb"></polygon><polygon points="114.08 145.11 111.05 151.79 41.61 151.79 38.58 145.11 114.08 145.11" style="fill:#dbdbdb"></polygon><rect x="171.96" width="1" height="87.18" style="fill:#c7c7c7"></rect><polygon points="210.21 123.57 207.18 130.25 137.74 130.25 134.71 123.57 164.27 103.11 180.65 103.11 210.21 123.57" style="fill:#ebebeb"></polygon><polygon points="182.7 83.4 180.65 103.11 164.27 103.11 162.22 83.4 182.7 83.4" style="fill:#dbdbdb"></polygon><polygon points="210.21 123.58 207.18 130.25 137.74 130.25 134.71 123.58 210.21 123.58" style="fill:#dbdbdb"></polygon><rect x="350.22" y="242.71" width="111.15" height="80.24" transform="translate(688.62 -122.97) rotate(90)" style="fill:#dbdbdb"></rect><rect x="360.71" y="253.2" width="90.17" height="59.26" transform="translate(688.62 -122.97) rotate(90)" style="fill:#fff"></rect><rect x="376.17" y="237.74" width="59.26" height="90.18" style="fill:#fff"></rect><g style="opacity:0.2"><polygon points="427.82 327.92 409.2 327.92 376.17 294.88 376.17 276.26 427.82 327.92" style="fill:#ebebeb"></polygon><polygon points="435.43 279.89 393.27 237.74 399.42 237.74 435.43 273.77 435.43 279.89" style="fill:#ebebeb"></polygon><polygon points="435.43 254.04 419.13 237.74 421.17 237.74 435.43 252 435.43 254.04" style="fill:#ebebeb"></polygon><polygon points="397.24 327.92 395.19 327.92 376.17 308.9 376.17 306.85 397.24 327.92" style="fill:#ebebeb"></polygon><polygon points="435.43 292.74 380.43 237.74 382.48 237.74 435.43 290.7 435.43 292.74" style="fill:#ebebeb"></polygon></g><rect x="376.17" y="237.74" width="4.27" height="90.17" style="fill:#c7c7c7"></rect><rect x="445.92" y="227.25" width="4.27" height="111.15" style="fill:#c7c7c7"></rect><rect x="288.59" y="108.86" width="111.15" height="80.24" transform="translate(493.15 -195.18) rotate(90)" style="fill:#dbdbdb"></rect><rect x="299.08" y="119.35" width="90.17" height="59.26" transform="translate(493.15 -195.18) rotate(90)" style="fill:#fff"></rect><g style="opacity:0.2"><polygon points="373.8 169.04 314.54 109.78 314.54 103.9 327.27 103.9 373.8 150.42 373.8 169.04" style="fill:#ebebeb"></polygon><polygon points="346.34 194.07 327.71 194.07 314.54 180.91 314.54 162.27 346.34 194.07" style="fill:#ebebeb"></polygon><polygon points="373.8 115.52 362.18 103.9 368.3 103.9 373.8 109.4 373.8 115.52" style="fill:#ebebeb"></polygon><polygon points="367.4 194.07 365.35 194.07 314.54 143.26 314.54 141.21 367.4 194.07" style="fill:#ebebeb"></polygon><polygon points="373.8 144.24 333.46 103.9 335.51 103.9 373.8 142.19 373.8 144.24" style="fill:#ebebeb"></polygon></g><rect x="314.54" y="103.9" width="4.27" height="90.17" style="fill:#c7c7c7"></rect><rect x="384.29" y="93.41" width="4.27" height="111.15" style="fill:#c7c7c7"></rect></g><g id="freepik--Shadow--inject-534"><ellipse cx="250" cy="432.24" rx="151.22" ry="18.47" style="fill:#ebebeb"></ellipse></g><g id="freepik--Plant--inject-534"><path d="M59.34,318.57c14.34,14,16.75,35.75,13.73,54.76-.08.44-.75.32-.75-.09,0-4.33.13-8.62.12-12.89-.08-.2-.15-.38-.22-.58-3.74-2.72-7.19-5.79-9.32-10-2.39-4.71-3.33-10-5.16-14.93-.17-.47.33-.34.66-.09,8.72,6.43,11.5,13.35,14,22.6a77.4,77.4,0,0,0-1.52-14.4C69,334.16,65.27,325.46,59,319,58.73,318.7,59.1,318.32,59.34,318.57Z" style="fill:#263238"></path><path d="M56.65,320.2c-2.47.09-4,4-5.93,5.18A1.86,1.86,0,0,1,48,325c-1.9-2.66.71-5.94,3.17-7.77-1.76.72-3.22,2-5.11,2.35a1.78,1.78,0,0,1-2.31-1.38c-.83-3.63,3.71-5.24,6.83-5.31-1.51-1-5.84-3.91-3.54-5.32s7.42,2.68,9.08,4c2.43,2,5.34,4.94,5.45,8C61.71,323.18,58.55,321,56.65,320.2Z" style="fill:#FFA52E"></path><path d="M56.65,320.2c-2.47.09-4,4-5.93,5.18A1.86,1.86,0,0,1,48,325c-1.9-2.66.71-5.94,3.17-7.77-1.76.72-3.22,2-5.11,2.35a1.78,1.78,0,0,1-2.31-1.38c-.83-3.63,3.71-5.24,6.83-5.31-1.51-1-5.84-3.91-3.54-5.32s7.42,2.68,9.08,4c2.43,2,5.34,4.94,5.45,8C61.71,323.18,58.55,321,56.65,320.2Z" style="opacity:0.1"></path><path d="M57.36,320.81c-3.15-1.43-9.21.63-9.72-.56-1-2.43,3.79-4.1,6.41-4.42-2.41-.65-7-1.69-6.88-4,.17-2.84,7.07-.4,10.57,2.28,4.4,3.37,4.37,6.63,3.64,7.28C60.38,322.27,57.88,321.05,57.36,320.81Z" style="fill:#FFA52E"></path><path d="M92,317.18c-14.86,13.48-18.09,35.08-15.79,54.2.06.44.73.35.75-.06.16-4.33.2-8.62.37-12.89.09-.19.16-.37.25-.57,3.84-2.57,7.39-5.52,9.68-9.64,2.57-4.62,3.72-9.89,5.73-14.73.19-.47-.32-.35-.65-.12-9,6.1-12,12.91-14.85,22.05a76.53,76.53,0,0,1,2.06-14.33c2.22-8.7,6.27-17.25,12.82-23.52A.27.27,0,0,0,92,317.18Z" style="fill:#263238"></path><path d="M94.62,318.92c2.47.17,3.86,4.17,5.74,5.39a1.85,1.85,0,0,0,2.73-.32c2-2.59-.48-6-2.86-7.89,1.72.79,3.13,2.11,5,2.55a1.79,1.79,0,0,0,2.36-1.3c1-3.59-3.51-5.37-6.62-5.57,1.55-1,6-3.68,3.74-5.17s-7.51,2.39-9.22,3.67C93,312.17,90,315,89.74,318.1,89.46,321.7,92.7,319.6,94.62,318.92Z" style="fill:#FFA52E"></path><path d="M94.62,318.92c2.47.17,3.86,4.17,5.74,5.39a1.85,1.85,0,0,0,2.73-.32c2-2.59-.48-6-2.86-7.89,1.72.79,3.13,2.11,5,2.55a1.79,1.79,0,0,0,2.36-1.3c1-3.59-3.51-5.37-6.62-5.57,1.55-1,6-3.68,3.74-5.17s-7.51,2.39-9.22,3.67C93,312.17,90,315,89.74,318.1,89.46,321.7,92.7,319.6,94.62,318.92Z" style="opacity:0.1"></path><path d="M93.89,319.5c3.2-1.32,9.18,1,9.74-.2,1.14-2.39-3.64-4.24-6.24-4.66,2.43-.56,7.08-1.42,7-3.74-.07-2.84-7.06-.67-10.65,1.87-4.52,3.21-4.62,6.46-3.92,7.14C90.82,320.84,93.36,319.71,93.89,319.5Z" style="fill:#FFA52E"></path><path d="M76.8,352.78a146,146,0,0,1-4.62,21.31.53.53,0,0,1-1-.21c1-6.57,2.75-13,3.73-19.58A98.8,98.8,0,0,0,76,334.19c-.63-11.06-3.63-22.84-10.85-31.5-.16-.2.17-.49.34-.3C80,319.25,77.67,339.92,77.65,341.77c2-7,4.16-15,11.9-22.09.34-.3.6-.16.54.36-1.38,12.95-5,19.71-12.49,26.63Q77.29,349.75,76.8,352.78Z" style="fill:#263238"></path><path d="M65,304.63c-2.6-1.15-6.18,2.16-8.76,2.38a2.13,2.13,0,0,1-2.61-1.81c-.63-3.72,3.73-5.8,7.2-6.47-2.19-.14-4.34.45-6.48-.13a2.06,2.06,0,0,1-1.7-2.6c1-4.18,6.48-3.56,9.76-2.07-1-1.85-4.1-7-1-7.3s6.35,6.51,7.39,8.74c1.53,3.28,3.06,7.81,1.62,11.08C68.78,310.27,66.62,306.37,65,304.63Z" style="fill:#FFA52E"></path><path d="M65,304.63c-2.6-1.15-6.18,2.16-8.76,2.38a2.13,2.13,0,0,1-2.61-1.81c-.63-3.72,3.73-5.8,7.2-6.47-2.19-.14-4.34.45-6.48-.13a2.06,2.06,0,0,1-1.7-2.6c1-4.18,6.48-3.56,9.76-2.07-1-1.85-4.1-7-1-7.3s6.35,6.51,7.39,8.74c1.53,3.28,3.06,7.81,1.62,11.08C68.78,310.27,66.62,306.37,65,304.63Z" style="opacity:0.1"></path><path d="M65.47,305.62c-2.55-3.07-9.87-4-9.81-5.48.14-3,6-2.34,8.88-1.36-2.17-1.88-6.43-5.28-5.12-7.62,1.61-2.85,7.54,3.15,9.81,7.68,2.87,5.72,1.2,9.08.12,9.39C67.86,308.66,65.89,306.13,65.47,305.62Z" style="fill:#FFA52E"></path><path d="M86.31,356.67l6.38,48.73H53.88c.8-4.32,8-48.78,8-48.78Z" style="fill:#FFA52E"></path></g><g id="freepik--Table--inject-534"><polygon points="36.71 405.35 90.03 405.11 143.35 405.02 250 404.86 356.64 405.02 409.97 405.11 463.29 405.35 409.97 405.6 356.64 405.69 250 405.85 143.35 405.69 90.03 405.6 36.71 405.35" style="fill:#263238"></polygon></g><g id="freepik--character-2--inject-534"><path d="M255.61,143.81c8.38-9.7,22.59-12,36.38-9.1s30.21,9.93,31.59,33c1.12,18.7-4.79,36.91-4.82,57.77S341.93,297.3,304,321.87c-34.09,22.06-102.79,1.18-104.62-44.7-1.45-36.37,41.89-69.71,46.52-84.08S246.43,154.44,255.61,143.81Z" style="fill:#263238"></path><path d="M249.28,164.29C249,174.69,247.39,185.2,243,195a29.9,29.9,0,0,1-4.33,6.87c-1.69,2.09-3.48,4.06-5.25,6-3.6,3.88-7.17,7.72-10.53,11.72a107.07,107.07,0,0,0-16.78,26,81.94,81.94,0,0,0-6.79,30.08,70.82,70.82,0,0,1,.56-15.66A76.5,76.5,0,0,1,204,244.83c3.74-9.93,9.77-18.91,16.58-27,3.44-4.06,7.1-7.92,10.72-11.75s7.31-7.49,9.58-12a65.87,65.87,0,0,0,5.31-14.46A126.49,126.49,0,0,0,249.28,164.29Z" style="fill:#263238"></path><path d="M322.51,183.38c-.33,10.61-1.06,21.2-.84,31.74a128,128,0,0,0,1.22,15.69c.75,5.11,2.25,10.24,3.49,15.42s2.36,10.43,3.17,15.74a90.92,90.92,0,0,1,.93,16.08,57.11,57.11,0,0,1-3.09,15.83,39.88,39.88,0,0,1-8.93,13.38A42.35,42.35,0,0,0,326,293.42,55.57,55.57,0,0,0,328.17,278c-.09-10.47-2.16-20.84-4.7-31.11-1.18-5.17-2.68-10.3-3.38-15.72a102.73,102.73,0,0,1-.71-16A258.65,258.65,0,0,1,322.51,183.38Z" style="fill:#263238"></path><path d="M260.09,270.53C219,311.31,130.79,349,116.07,331.3c-18.09-21.71-.5-83.34.78-91.47,1.38-8.71,72.31,8.94,67.54,17.09-2.81,4.83-6.27,10.85-5.76,10.72,4.47-1.22,17.7-8.09,64.84-19.56C269.23,241.81,285.51,245.3,260.09,270.53Z" style="fill:#f7a9a0"></path><path d="M132.89,195.62c-8.7,11.73-17.11,42.69-16.26,50.94s53,24.29,60,19.39,33.19-46.68,32.63-61.58S141.91,183.46,132.89,195.62Z" style="fill:#f7a9a0"></path><path d="M208.56,170.71c4.41-5.15,21.4-18.27,25.84-14.39s-5.09,15.7-9.13,20.37c-8.31,9.62-14.23,26.17-17,34.22s-18.5-6.66-18.5-6.66S197.14,184.06,208.56,170.71Z" style="fill:#f7a9a0"></path><path d="M199,220.27s-4.43,14.35-13,14.52c-8.25.14-7-12.06-7-12.93-.24.75-4.66,13.83-13.27,13.11-8.95-.74-5.64-12.78-5.42-13.56-.46.64-6.58,9.05-13,7-11-3.5,4-25.42,1.93-34.55,0,0-15.88,1.78-16.35,1.74,0,0,13.9-21.15,26.38-23.29a8.09,8.09,0,0,1,8.92,4.79s3.73-7.32,10.53-7c3.49.19,6.29,5.94,6.29,5.94s3.23-5.73,9.26-5.05c4.82.54,7.52,6.36,7.92,8.64C205.24,197.26,199,220.27,199,220.27Z" style="fill:#f7a9a0"></path><path d="M201.61,178.11a.11.11,0,0,1,.22,0c3.23,13.68,2.59,29.7-2.85,42.75-.18.43-.95.32-.85-.18C201.17,206.11,202.7,193,201.61,178.11Z" style="fill:#263238"></path><path d="M185.1,175.88c0-.16.25-.18.29,0,3.26,14.11,2,32.13-6,46.44-.27.49-1,.66-.74.07C183.27,212.46,186.15,189.26,185.1,175.88Z" style="fill:#263238"></path><path d="M159.4,222.21c7.18-14,9.15-28.92,9-44.52,0-.2.29-.18.34,0,2.17,7.61,1.25,17.57-.13,25.26a41.44,41.44,0,0,1-8.68,19.54C159.71,222.69,159.25,222.51,159.4,222.21Z" style="fill:#263238"></path><path d="M199,220.27a46.52,46.52,0,0,1-4,7.66c-1.58,2.36-3.5,4.64-5.92,5.78a5.26,5.26,0,0,1-3.73.32,7.55,7.55,0,0,1-3.28-2c-1.75-1.85-2.26-4.77-2-7.27l.7-6.31-2.85,5.68A26,26,0,0,1,173,231c-2,1.93-4.44,3.33-6.93,3.12a5.31,5.31,0,0,1-5.15-4.25,16.11,16.11,0,0,1,.58-8l2.17-7.2-4.38,6.07a24.79,24.79,0,0,1-4.26,4.55,10.08,10.08,0,0,1-5.25,2.46,4.79,4.79,0,0,1-4.53-2.21c-.9-1.58-.94-3.78-.77-5.86.39-4.26,1.7-8.48,2.8-12.73.56-2.13,1.13-4.27,1.59-6.43a15.46,15.46,0,0,0,.38-6.59c.29,2.2-.41,4.34-1,6.44s-1.34,4.17-2.07,6.25a70.54,70.54,0,0,0-3.53,12.86c-.26,2.23-.46,4.67.7,7.06a6.77,6.77,0,0,0,6.55,3.51,12.26,12.26,0,0,0,6.6-2.87,26.87,26.87,0,0,0,4.82-5L159.12,221a18.45,18.45,0,0,0-.79,9.47,7.71,7.71,0,0,0,2.73,4.43,8.7,8.7,0,0,0,4.84,1.73c3.54.21,6.61-1.76,8.77-3.94a28,28,0,0,0,5.26-7.62l-2.15-.62a11.08,11.08,0,0,0,2.92,8.86,9.31,9.31,0,0,0,4.18,2.26,6.71,6.71,0,0,0,4.73-.61c2.81-1.53,4.51-4.12,6-6.63A39.13,39.13,0,0,0,199,220.27Z" style="fill:#263238"></path><path d="M182.31,259.62s53.53-31.24,31.07-46.18c-6.68-4.44-39.39-14.7-41.57-8.17-2.83,8.43,10,15.26,18.77,18.27,0,0-19.7,8.06-18.18,23.45C173.36,256.65,182.31,259.62,182.31,259.62Z" style="fill:#f7a9a0"></path><path d="M215.17,214.8a32.4,32.4,0,0,0-8-5,70.29,70.29,0,0,0-8.84-3.44,108.32,108.32,0,0,0-18.5-4.38,17.7,17.7,0,0,0-5,0,6.78,6.78,0,0,0-2.69,1,4.62,4.62,0,0,0-1.16,1.08,4.79,4.79,0,0,0-.72,1.4,7.9,7.9,0,0,0,.27,5.52,14.65,14.65,0,0,0,2.89,4.29,28.5,28.5,0,0,0,8,5.65,64,64,0,0,0,8.86,3.64l0-2a37.36,37.36,0,0,0-6.32,3.61,35.46,35.46,0,0,0-5.48,4.69,24.35,24.35,0,0,0-4.09,5.92,18.59,18.59,0,0,0-1.89,6.85,21,21,0,0,1,2.56-6.48,25.59,25.59,0,0,1,4.41-5.31,33.77,33.77,0,0,1,5.48-4.18,37.2,37.2,0,0,1,6.12-3.06l2.63-1-2.67-1.07a69.22,69.22,0,0,1-8.42-3.77,27.81,27.81,0,0,1-7.24-5.24c-1.94-2.06-3.39-4.87-2.59-7.16.52-2.07,4-2.16,6.89-1.89a91.48,91.48,0,0,1,9.15,1.45c3.06.6,6.12,1.24,9.13,2C203.82,209.62,209.93,211.31,215.17,214.8Z" style="fill:#263238"></path><path d="M178.8,267.32l-3.39,5.52-3.31,5.55-6.65,11.05q-3.34,5.52-6.79,11c-1.15,1.81-2.31,3.62-3.55,5.37s-2.46,3.53-3.68,5.33a79.42,79.42,0,0,0,8.48-9.84c2.62-3.46,5-7.11,7.22-10.79s4.35-7.48,6.29-11.35S177.23,271.36,178.8,267.32Z" style="fill:#263238"></path><path d="M209.62,314.93l-7.39-59.72s42.72-12.46,66.14-14.1c13.13-.92,14,9.25,6.56,18.51C248.82,292,209.62,314.93,209.62,314.93Z" style="fill:#FFA52E"></path><path d="M209.62,314.93l-7.39-59.72s42.72-12.46,66.14-14.1c13.13-.92,14,9.25,6.56,18.51C248.82,292,209.62,314.93,209.62,314.93Z" style="fill:#455a64"></path><path d="M212,269a3.56,3.56,0,0,0-2.32,3.29,2.81,2.81,0,0,1-1.29,2.41,3,3,0,0,1-1.48.48c-.58.12-1.18.18-1.76.34,1.15.2,2.33.69,3.72.15a3.62,3.62,0,0,0,2.2-3.35,2.86,2.86,0,0,1,1.36-2.35,3.05,3.05,0,0,1,1.53-.43c.58-.12,1.17-.2,1.77-.35C214.52,269,213.39,268.56,212,269Zm32.8-14.27a3.58,3.58,0,0,0-3.92.81,2.84,2.84,0,0,1-2.64.69,3,3,0,0,1-1.36-.77c-.49-.34-1-.7-1.51-1,.7,1,1.18,2.12,2.51,2.78a3.57,3.57,0,0,0,4-.69,2.79,2.79,0,0,1,2.62-.79,2.85,2.85,0,0,1,1.37.7c.5.35,1,.71,1.5,1C246.63,256.53,246.14,255.34,244.78,254.76Zm-3.22,35.94a3.61,3.61,0,0,0-3.34-2.2,2.78,2.78,0,0,1-2.33-1.36,3,3,0,0,1-.45-1.51c-.11-.58-.18-1.18-.34-1.77-.2,1.17-.66,2.32-.2,3.73a3.56,3.56,0,0,0,3.31,2.3,2.9,2.9,0,0,1,2.41,1.31,2.79,2.79,0,0,1,.46,1.48s0,0,0,.06l.72-.57h0A3.54,3.54,0,0,0,241.56,290.7Z" style="fill:#fff"></path><path d="M206,285.39l3.66,29.54s39.2-22.91,65.32-55.31a26.62,26.62,0,0,0,2.92-4.47Z" style="opacity:0.1"></path><path d="M211.89,256.13c1.9,9.09,6.33,33.91,7.11,50.41,0,.1-.37.16-.39.07-2.72-13.64-6.17-41.17-7.27-50.39C211.31,256.05,211.86,256,211.89,256.13Z" style="fill:#263238"></path><path d="M377.77,405.35,215.83,405l19.75-55.68s-12.81-15.54-10.39-32.4c2.66-18.48,41.17-65.29,44-67.93,11.27-10.58,23.21-12.48,34.67-8.67h0C363.55,259,377.77,405.35,377.77,405.35Z" style="fill:#455a64"></path><path d="M311.08,243.28a3.67,3.67,0,0,0-1.59,2.93,2.78,2.78,0,0,1-1.29,2.41,3,3,0,0,1-1.48.48c-.58.11-1.18.18-1.78.35,1.18.19,2.37.67,3.74.13a3.64,3.64,0,0,0,2.22-3.35,2.73,2.73,0,0,1,1.36-2.33Zm-10.72,77.21a3.57,3.57,0,0,0-2.32,3.27,2.84,2.84,0,0,1-1.27,2.43,3.13,3.13,0,0,1-1.49.48c-.59.1-1.17.18-1.77.34,1.17.19,2.35.67,3.74.13a3.64,3.64,0,0,0,2.19-3.35,2.81,2.81,0,0,1,1.37-2.33,3,3,0,0,1,1.51-.44c.6-.11,1.17-.19,1.77-.34C302.92,320.49,301.77,320,300.36,320.49ZM366,399.94a3.57,3.57,0,0,0-2.32,3.27,2.77,2.77,0,0,1-.88,2.1h1.64a3.72,3.72,0,0,0,.64-2.08,2.81,2.81,0,0,1,1.37-2.33,3,3,0,0,1,1.51-.44c.6-.11,1.17-.19,1.77-.34C368.56,399.94,367.41,399.46,366,399.94Zm-93.4-20.53a3.52,3.52,0,0,0-2.32,3.28A2.82,2.82,0,0,1,269,385.1a2.9,2.9,0,0,1-1.48.49c-.59.11-1.18.18-1.77.35,1.15.19,2.34.67,3.73.13a3.62,3.62,0,0,0,2.2-3.35,2.86,2.86,0,0,1,1.36-2.35,3.05,3.05,0,0,1,1.53-.42c.58-.13,1.16-.19,1.75-.34C275.14,379.41,274,378.92,272.6,379.41ZM338.7,270.9c-.53.09-1.06.17-1.57.3a17.53,17.53,0,0,0,2,.37C339,271.34,338.84,271.12,338.7,270.9ZM223.79,382.53l-.1.29c.25,0,.5-.1.76-.16Zm21.58-62a3.56,3.56,0,0,0-2.32,3.29,2.81,2.81,0,0,1-1.29,2.41,3,3,0,0,1-1.48.48c-.58.12-1.18.18-1.76.34,1.15.2,2.33.69,3.72.15a3.62,3.62,0,0,0,2.2-3.35,2.86,2.86,0,0,1,1.36-2.35,3.05,3.05,0,0,1,1.53-.43c.58-.12,1.17-.2,1.77-.35C247.91,320.48,246.78,320,245.37,320.48Zm120.85,20.65a3.87,3.87,0,0,0-1.47.19,3.56,3.56,0,0,0-2.32,3.29,2.81,2.81,0,0,1-1.29,2.41,3,3,0,0,1-1.48.48c-.58.12-1.18.18-1.76.34,1.15.2,2.33.69,3.72.15a3.62,3.62,0,0,0,2.2-3.35,2.86,2.86,0,0,1,1.36-2.35,2.75,2.75,0,0,1,1.22-.4Zm-87.37-40.51a3.58,3.58,0,0,0-3.92.81,2.84,2.84,0,0,1-2.64.69,3,3,0,0,1-1.36-.77c-.49-.34-1-.7-1.51-1,.7,1,1.18,2.12,2.51,2.78a3.57,3.57,0,0,0,4-.69,2.79,2.79,0,0,1,2.62-.79,2.85,2.85,0,0,1,1.37.7c.5.35,1,.71,1.5,1C280.7,302.39,280.21,301.2,278.85,300.62ZM344,381a3.63,3.63,0,0,0-3.92.83,2.81,2.81,0,0,1-2.62.68,2.85,2.85,0,0,1-1.38-.76c-.49-.33-1-.7-1.5-1,.69,1,1.19,2.11,2.5,2.77a3.58,3.58,0,0,0,4-.69,2.79,2.79,0,0,1,2.62-.78,2.62,2.62,0,0,1,1.37.7c.51.33,1,.71,1.5,1C345.82,382.76,345.31,381.6,344,381Zm-2.47-69.12a3.66,3.66,0,0,0-3.94.81,2.78,2.78,0,0,1-2.62.69,3.15,3.15,0,0,1-1.37-.76c-.5-.33-1-.71-1.5-1,.7,1,1.18,2.11,2.5,2.77a3.55,3.55,0,0,0,4-.69,2.82,2.82,0,0,1,2.6-.79,2.94,2.94,0,0,1,1.4.72c.49.33,1,.7,1.49,1C343.33,313.64,342.84,312.46,341.48,311.86ZM246.1,400.47a3.57,3.57,0,0,0-3.92.81,2.8,2.8,0,0,1-2.62.68,3,3,0,0,1-1.37-.76c-.51-.34-1-.7-1.5-1,.69,1,1.17,2.13,2.5,2.79a3.58,3.58,0,0,0,3.95-.69,2.83,2.83,0,0,1,2.62-.79,2.75,2.75,0,0,1,1.39.7c.51.34,1,.7,1.5,1C248,402.23,247.46,401.05,246.1,400.47Zm62-35.68a3.58,3.58,0,0,0-3.92.81,2.82,2.82,0,0,1-2.62.69,3.12,3.12,0,0,1-1.38-.76c-.51-.35-1-.71-1.49-1,.68,1,1.16,2.12,2.49,2.78a3.55,3.55,0,0,0,3.95-.69,2.91,2.91,0,0,1,4-.09c.51.35,1,.71,1.5,1C310,366.56,309.47,365.38,308.11,364.79Zm-35.5-18.88a3.66,3.66,0,0,0-3.35-2.2,2.79,2.79,0,0,1-2.34-1.36,3.13,3.13,0,0,1-.45-1.51c-.1-.58-.18-1.18-.33-1.77-.19,1.17-.67,2.32-.19,3.73a3.54,3.54,0,0,0,3.28,2.3,2.9,2.9,0,0,1,2.42,1.31,3,3,0,0,1,.48,1.48c.1.58.18,1.16.34,1.76C272.67,348.49,273.15,347.3,272.61,345.91Zm8.69-78.06a3.61,3.61,0,0,0-3.35-2.2,2.74,2.74,0,0,1-2.34-1.36,3,3,0,0,1-.43-1.51c-.12-.58-.18-1.18-.35-1.78-.19,1.2-.67,2.33-.19,3.74a3.57,3.57,0,0,0,3.29,2.32,2.82,2.82,0,0,1,2.41,1.28,2.92,2.92,0,0,1,.48,1.47c.12.6.18,1.2.34,1.78C281.36,270.44,281.85,269.24,281.3,267.85Zm34,19.59a3.62,3.62,0,0,0-3.36-2.2,2.81,2.81,0,0,1-2.35-1.38,3,3,0,0,1-.41-1.5c-.14-.59-.2-1.18-.36-1.78-.18,1.19-.66,2.34-.18,3.74a3.54,3.54,0,0,0,3.27,2.32,2.83,2.83,0,0,1,2.41,1.28,2.74,2.74,0,0,1,.48,1.48c.12.6.18,1.18.35,1.78C315.34,290,315.83,288.81,315.3,287.44ZM304.9,403.17a2.79,2.79,0,0,1-2.33-1.37,3.13,3.13,0,0,1-.45-1.51c-.1-.58-.18-1.18-.34-1.76-.2,1.16-.66,2.32-.2,3.72a3.58,3.58,0,0,0,3.31,2.31,2.8,2.8,0,0,1,1.77.62h1.5A3.59,3.59,0,0,0,304.9,403.17Zm-61.35-34.91a3.58,3.58,0,0,0-3.34-2.2,2.77,2.77,0,0,1-2.33-1.37,3,3,0,0,1-.45-1.51c-.11-.58-.18-1.18-.34-1.76-.2,1.16-.66,2.32-.2,3.72a3.57,3.57,0,0,0,3.31,2.31,2.91,2.91,0,0,1,2.41,1.3,2.85,2.85,0,0,1,.46,1.48c.14.58.2,1.17.34,1.77C243.62,370.83,244.1,369.65,243.55,368.26Zm87.38-22.35a3.61,3.61,0,0,0-3.34-2.2,2.78,2.78,0,0,1-2.33-1.36,3,3,0,0,1-.45-1.51c-.11-.58-.18-1.18-.34-1.77-.2,1.17-.66,2.32-.2,3.73a3.56,3.56,0,0,0,3.31,2.3,2.9,2.9,0,0,1,2.41,1.31,2.79,2.79,0,0,1,.46,1.48c.14.58.2,1.16.34,1.76C331,348.49,331.48,347.3,330.93,345.91ZM241.56,290.7a3.54,3.54,0,0,0-2.45-2.09l-.84,1.28a2.91,2.91,0,0,1,2.35,1.31,2.79,2.79,0,0,1,.46,1.48c.14.58.2,1.16.34,1.76C241.63,293.28,242.11,292.09,241.56,290.7Z" style="fill:#fff"></path><path d="M257.28,345.75A133.22,133.22,0,0,1,276.94,349c3.21.82,6.35,1.78,9.49,2.82,1.56.51,3.14,1,4.72,1.43a21.32,21.32,0,0,0,5.06.95.12.12,0,0,1,0,.24,34.57,34.57,0,0,1-4.88-.09,35.27,35.27,0,0,1-4.65-.88c-3.26-.8-6.47-1.75-9.72-2.58-6.55-1.69-13.1-3.37-19.76-4.58C256.89,346.24,257,345.71,257.28,345.75Z" style="fill:#263238"></path><path d="M240.91,351.61a147.79,147.79,0,0,1,16.43-.79c2.74,0,5.47.23,8.2.49,1.3.13,2.61.28,3.91.44s2.84.56,4.27.72c.15,0,.15.25,0,.24-1.35-.11-2.73,0-4.09,0l-4.1-.11c-2.74-.07-5.47-.1-8.21-.2-5.48-.18-10.93-.31-16.41-.31C240.6,352.06,240.63,351.64,240.91,351.61Z" style="fill:#263238"></path><path d="M333.75,255c45.91,38.25,102.88,122.53,94.85,141.54-8.94,21.18-78.13-34.51-76.61-37.65,1.29-2.67-24.75-50.11-41.63-90.85C294.11,228.85,322.4,245.58,333.75,255Z" style="fill:#f7a9a0"></path><path d="M385.58,301.14,328,318.49s-19.48-40-25-62.81c-3.13-12.79,8.24-15.35,18.83-10C360.3,265.39,385.58,301.14,385.58,301.14Z" style="fill:#455a64"></path><path d="M311.45,243.08h0a3.64,3.64,0,0,0-1.93,3.13,2.78,2.78,0,0,1-1.29,2.41,3,3,0,0,1-1.48.48c-.58.11-1.18.18-1.78.35,1.18.19,2.37.67,3.74.13a3.64,3.64,0,0,0,2.22-3.35,2.73,2.73,0,0,1,1.36-2.33,3,3,0,0,1,1.49-.45l.83-.14A16.16,16.16,0,0,0,311.45,243.08ZM344,264.68a3.56,3.56,0,0,0-2.32,3.29,2.78,2.78,0,0,1-1.29,2.41,2.89,2.89,0,0,1-1.46.49c-.6.1-1.2.18-1.78.33,1.16.21,2.35.69,3.72.13a3.59,3.59,0,0,0,2.22-3.33,2.74,2.74,0,0,1,1.36-2.35,3.24,3.24,0,0,1,1.51-.44c.58-.12,1.18-.18,1.76-.34C346.52,264.68,345.39,264.21,344,264.68Zm-2.5,47.18a3.66,3.66,0,0,0-3.94.81,2.78,2.78,0,0,1-2.62.69,3.15,3.15,0,0,1-1.37-.76c-.5-.33-1-.71-1.5-1,.7,1,1.18,2.11,2.5,2.77a3.55,3.55,0,0,0,4-.69,2.82,2.82,0,0,1,2.6-.79,2.94,2.94,0,0,1,1.4.72l.51.35.46-.14A4.65,4.65,0,0,0,341.48,311.86ZM315.3,287.44a3.47,3.47,0,0,0-2.06-2l.93,2.25.15.19a2.48,2.48,0,0,1,.45,1.24h0a1.6,1.6,0,0,1,0,.23c.12.6.18,1.18.35,1.78,0-.24.1-.49.15-.74A5,5,0,0,0,315.3,287.44ZM364.18,296a3.6,3.6,0,0,0-3.34-2.2,2.77,2.77,0,0,1-2.35-1.36,3.09,3.09,0,0,1-.43-1.52c-.12-.57-.18-1.17-.33-1.77-.21,1.18-.69,2.32-.21,3.73a3.57,3.57,0,0,0,3.29,2.32,2.93,2.93,0,0,1,2.9,2.76c.11.6.18,1.2.33,1.77C364.24,298.58,364.73,297.39,364.18,296Z" style="fill:#fff"></path><path d="M327.24,308.81c8.64-3.4,32.35-11.95,48.49-15.5.1,0,.22.34.13.37-13,5-39.53,13-48.44,15.67C327.25,309.4,327.07,308.88,327.24,308.81Z" style="fill:#263238"></path><path d="M335,316.38c-2.4.51-4.78,1.08-7.15,1.68l.54.24c-2.49-6.21-5.17-12.33-8-18.39s-5.76-12.06-9-17.93c2.28,6.29,4.87,12.46,7.57,18.58s5.55,12.16,8.59,18.12l.18.37.36-.12C330.4,318.12,332.7,317.28,335,316.38Z" style="fill:#263238"></path><path d="M316.74,294.22a18.42,18.42,0,0,0-2.43-3.49,26.88,26.88,0,0,0-3-3,7.71,7.71,0,0,0,.93,1.94,14.29,14.29,0,0,0,1.27,1.71A14,14,0,0,0,316.74,294.22Z" style="fill:#263238"></path><path d="M427.49,398.56c-9.73,13.3-35.49,15.32-99.88,26.5-8.91,1.55-36.75-58.39-27.32-60.53,11.88-2.7,58.56-10.59,62-10.74C391.74,352.56,434.09,389.53,427.49,398.56Z" style="fill:#f7a9a0"></path><path d="M318.52,363.16s-25.6-5.44-39.93-4.13c-19.19,1.75-35,11.16-41.45,15.51-13.36,9.07-39.41,40.24-31.74,49.31,6.94,8.21,32-25,32-25s-31.1,29.66-20.92,38,37-31.85,37-31.85-31.26,31.18-19.4,38.13c9,5.25,35.32-29.8,35.32-29.8s-26.68,27-17.7,32.79C261.6,452.53,288,421.7,288,421.7c25.32,10.9,41.82,5.73,53.13.65C343.84,421.13,318.52,363.16,318.52,363.16Z" style="fill:#f7a9a0"></path><path d="M247.45,387.91c-3.77,3.35-7.62,6.71-11.09,10.39s-6.81,7.48-9.92,11.46c-7.63,9.76-10.88,17.07-10.63,16.64,5.91-10.16,18.12-23.51,21.59-27.18s6.74-7.51,10.2-11.19C247.69,387.94,247.54,387.83,247.45,387.91Z" style="fill:#263238"></path><path d="M261,400.19c-4.64,4.49-9.41,8.77-13.85,13.47s-8.21,9.49-12.3,14.45c-.31.38,0,.42.33.05,4.28-4.79,8.61-8.9,13-13.64s8.5-9.66,13-14.23C261.14,400.22,261,400.12,261,400.19Z" style="fill:#263238"></path><path d="M274.43,408.65c-7.44,6.49-13.67,14.35-19.6,22.21-.3.39.11.4.43,0,6.38-7.51,11.33-13.44,19.4-22C274.79,408.77,274.59,408.51,274.43,408.65Z" style="fill:#263238"></path><path d="M384,357.81c-5.3-2.16-20-6.83-32.92-2.51a.12.12,0,1,0,.05.23c10.9-2,27.49.82,32.8,2.49C384,358.07,384.08,357.86,384,357.81Z" style="fill:#263238"></path><path d="M299.77,245.57c-.65,2.78-13.9,20.84-26.61,20.25-4.14-.2-4.07-22.83-4.07-22.83l-.38-1.68-5.25-23.41L291,200.23l4-2.34s1,6.5,2.2,14.61c.06.37.12.75.17,1.15s.16.89.21,1.32c.2,1.21.39,2.44.55,3.68.13.93.26,1.85.36,2.84s.23,1.95.35,2.95C299.79,234.24,300,244.39,299.77,245.57Z" style="fill:#f7a9a0"></path><path d="M297.12,212.5a48.09,48.09,0,0,1-28.41,28.81l-5.25-23.41L291,200.23l4-2.34S295.94,204.39,297.12,212.5Z" style="fill:#263238"></path><path d="M233.31,176.35c-10.12,40.88,13.22,51.56,22,53.73,8,2,35.51,7.68,49.81-31.94s-1.51-57.24-19.58-62.72S243.44,135.47,233.31,176.35Z" style="fill:#f7a9a0"></path><path d="M302.54,199.1c-8,.11-8-18.12-8-18.12s-32.86-9.43-32.65-37c0,0-7.68,16.75-26.11,22.65,0,0,4.52-29.77,28.87-32.92,0,0,30.61-7.42,44.54,17.77S307.89,199,302.54,199.1Z" style="fill:#263238"></path><path d="M262,141.93a29.84,29.84,0,0,0,.1,12.62,31.15,31.15,0,0,0,5.09,11.72,28.45,28.45,0,0,0,2,2.52l1,1.23c.37.38.77.74,1.17,1.1.8.71,1.57,1.45,2.39,2.13s1.75,1.23,2.63,1.82c.44.3.87.61,1.33.89l1.41.73,2.82,1.46c2,.79,4,1.48,5.94,2.13-1.83-1.05-3.73-1.9-5.52-3l-2.62-1.66-1.3-.82c-.42-.31-.81-.65-1.21-1-.8-.66-1.6-1.29-2.41-1.91s-1.46-1.43-2.19-2.14l-1.1-1.07-1-1.18a26.68,26.68,0,0,1-1.87-2.4,35.72,35.72,0,0,1-5.23-11,37.37,37.37,0,0,1-1.22-6A35.89,35.89,0,0,1,262,141.93Z" style="fill:#263238"></path><path d="M299.31,179.14l4.54,9,13-10.11-2.1-4Zm3.68,1.63,10.21-4,.47.94-9,6.21Z" style="fill:#FFA52E"></path><path d="M297.75,165.84l.83,10,15.85-4.47L314,166.9Zm2.79,2.9,11,.12.08,1-10.69,2.36Z" style="fill:#FFA52E"></path><path d="M296.6,198.59s11.13-11.55,16.51-7.39-4.41,21.92-11.73,23.4a7.12,7.12,0,0,1-8.83-5.26Z" style="fill:#f7a9a0"></path><path d="M310.18,196.22a.1.1,0,0,1,0,.19c-5.16,1.2-8.43,5.3-10.95,9.68,1.73-1.57,3.85-2.24,6-.15.11.11,0,.29-.17.24a4.38,4.38,0,0,0-5,.76,21.53,21.53,0,0,0-2.89,3.49c-.3.4-1,0-.8-.43l.06-.1C297.27,203.69,303.44,195.8,310.18,196.22Z" style="fill:#263238"></path><path d="M239.52,174.65a27.54,27.54,0,0,1,2.82-.68,4.62,4.62,0,0,1,3-.14,1.49,1.49,0,0,1,.78,1.64,3.7,3.7,0,0,1-2.92,2.35,5.42,5.42,0,0,1-3.9-.27A1.59,1.59,0,0,1,239.52,174.65Z" style="fill:#263238"></path><path d="M268,177.69a28.48,28.48,0,0,1-2.69-1.08,4.63,4.63,0,0,1-2.53-1.61,1.5,1.5,0,0,1,.31-1.8,3.7,3.7,0,0,1,3.74-.23,5.4,5.4,0,0,1,3,2.48A1.59,1.59,0,0,1,268,177.69Z" style="fill:#263238"></path><path d="M260.65,187.16c.05-.11.2.17.17.29-.64,2.78-.91,6.07,1.44,7.5.08.05,0,.19-.05.16C259.2,194.06,259.6,189.69,260.65,187.16Z" style="fill:#263238"></path><path d="M263.73,184.72c4.57.55,3.14,9.66-1.09,9.15S259.9,184.27,263.73,184.72Z" style="fill:#263238"></path><path d="M265.44,185.49c.72.64,1.35,1.67,2.3,1.91s2.08-.53,2.95-1.34c.09-.08.15,0,.14.13-.25,1.75-1.2,3.43-3.11,3.4-1.75,0-2.73-1.77-2.89-3.59C264.8,185.66,265.16,185.23,265.44,185.49Z" style="fill:#263238"></path><path d="M244.58,183.39c0-.11-.24.1-.25.22-.33,2.84-1.19,6-3.89,6.59-.08,0-.09.16,0,.16C243.63,190.38,244.72,186.13,244.58,183.39Z" style="fill:#263238"></path><path d="M242.5,180.07c-4.49-1-6.2,8-2,9S246.26,180.92,242.5,180.07Z" style="fill:#263238"></path><path d="M240.5,180.31c-.81.34-1.68,1.08-2.55,1s-1.55-1.24-2-2.3c0-.11-.13,0-.16.07-.37,1.73-.14,3.64,1.46,4.28s2.85-.68,3.59-2.33C241,180.7,240.82,180.17,240.5,180.31Z" style="fill:#263238"></path><path d="M257.26,208.87c-.75.59-1.53,1.43-2.57,1.4a7.46,7.46,0,0,1-3-1.05c-.09,0-.19,0-.14.13a3.84,3.84,0,0,0,3.43,1.94,3,3,0,0,0,2.51-2.26C257.58,208.87,257.37,208.79,257.26,208.87Z" style="fill:#263238"></path><path d="M247.21,196.71s-1.4,4.76-1.74,6.74c0,.19,6.74-.07,12,1.38.23.06.53-.34,0-.68-3.26-1.89-10.17-2.12-10.17-2.12,0-.31,2.45-7,2.14-7-1.07-.28-3.33.1-4.68.26,2.45-8.64,6.25-16.8,8.56-25.44a.28.28,0,0,0-.5-.21c-4.6,8.28-7.63,18.15-10.38,27C242,197.71,246.36,196.91,247.21,196.71Z" style="fill:#263238"></path></g><g id="freepik--character-3--inject-534"><path d="M283.81,302.22c.93.42,28.56,3.3,29.68,2.75.43-.21,1.08-4.21,1.74-9.06.14-1.05.28-2.13.41-3.23.89-7.15,1.67-14.76,1.67-14.76l-18.48-2-1.15,14.81-.26,3.25s-11.07,3.62-12.24,4.36S282.88,301.79,283.81,302.22Z" style="fill:#f7a9a0"></path><path d="M314.84,298.64c-.52,3.54-1,6.16-1.35,6.33-1.12.55-28.75-2.33-29.68-2.75s.21-3.11,1.37-3.86a78.6,78.6,0,0,1,7.42-2.75C291.72,296,277.09,302.33,314.84,298.64Z" style="fill:#FFA52E"></path><path d="M311.84,317.94c1,.08,27.75-11.4,28.62-12.31.19-.19-11.8-25.21-11.8-25.21l-18,4.51,9.86,19s-7.87,8.83-8.7,9.93S310.82,317.86,311.84,317.94Z" style="fill:#f7a9a0"></path><path d="M340.46,305.63c-.87.91-27.6,12.39-28.62,12.31s-.88-3,0-4.09c.47-.63,3.22-3.75,5.5-6.33h0s-11.25,13.91,20.55-7.72C339.41,303.14,340.52,305.57,340.46,305.63Z" style="fill:#FFA52E"></path><path d="M346.86,254.59c-4.88,6.69-23.85,3.75-24.7,6.3-.76,2.25,14.21,35.77,14.21,35.77l-17.43,4.26s-22.67-36.66-17.57-48.31c2.75-6.3,17.81-5.44,26.65-7.44,2.66-.61,3.36-6.3,3.36-6.3l16-1.64S352.43,247,346.86,254.59Z" style="fill:#FFA52E"></path><path d="M306.63,248.62l18.27,11.23c5.61-.69,18.13,0,22-5.26,5.57-7.64.5-17.36.5-17.36l-16,1.64s-.7,5.69-3.36,6.3C321.82,246.57,312.56,246.57,306.63,248.62Z" style="fill:#263238"></path><path d="M300.83,253.73c.79-2.51,3-4.26,6.41-5.19.05,0,.06.07,0,.09-2.94,1.12-5,2.46-5.95,4.93a12.92,12.92,0,0,0-.51,4.8c.34,10.37,12.52,32.73,12.76,33.12,0,0,0,.06-.06,0C311.88,289.52,297.57,264.12,300.83,253.73Z" style="fill:#263238"></path><path d="M297.74,289.94l15.74,1.57S297,256.82,302.14,251.59c1.44-1.44,4.81-2.24,9.06-.9,6.34,2,13.91,6.63,20.74,7.9,6.39,1.2,13.58-1.24,15.83-4.29,4.72-6.41-.41-17.07-.41-17.07l-21,1.32a5,5,0,0,1-1,1.31s-13.82-1.54-19.08,2.46C296.73,249.54,297.74,289.94,297.74,289.94Z" style="fill:#FFA52E"></path><path d="M302.67,251.13c2.39-1.71,6.47-1,8.44-.54,0,0,0,.07,0,.06-1.8-.4-6.24-.82-8.41.92-5,4,4.6,27,10.66,39.63.09.2-.09.16-.21,0-.94-1.47-8.71-17.37-11.41-28.14C301.3,261.39,299.22,253.6,302.67,251.13Z" style="fill:#263238"></path><path d="M325.63,196.35c1-1.88,3.14-2.81,5.46-2.9s5.23.39,6.36,4c.93,3,.7,6.09,1.52,9.43s6.56,10.58,1.46,16c-4.58,4.88-16.4,4.26-18.51-3-1.68-5.76,3.94-12.81,4.11-15.3S324.58,198.42,325.63,196.35Z" style="fill:#263238"></path><path d="M325.43,199.88a13.16,13.16,0,0,1,.21,5.16,4.47,4.47,0,0,1-.42,1.28c-.18.4-.39.78-.6,1.17-.42.76-.84,1.52-1.22,2.29a17.81,17.81,0,0,0-1.65,4.83,13.42,13.42,0,0,0,.11,5.09,11.53,11.53,0,0,1-.54-2.53,12.66,12.66,0,0,1,.06-2.61,15.49,15.49,0,0,1,1.58-5c.39-.79.82-1.55,1.25-2.3a8.69,8.69,0,0,0,1.05-2.31,10.64,10.64,0,0,0,.28-2.52A20.09,20.09,0,0,0,325.43,199.88Z" style="fill:#263238"></path><path d="M337.91,200c.36,1.71.67,3.44,1.12,5.11a19.32,19.32,0,0,0,.82,2.47c.32.79.76,1.55,1.17,2.33s.79,1.57,1.13,2.39a13.83,13.83,0,0,1,.78,2.54,9.05,9.05,0,0,1,.14,2.65,6.53,6.53,0,0,1-.9,2.5,7,7,0,0,0,.66-2.52,9.11,9.11,0,0,0-.27-2.55,22.71,22.71,0,0,0-2-4.8,26.27,26.27,0,0,1-1.17-2.38,18.94,18.94,0,0,1-.75-2.54A41.75,41.75,0,0,1,337.91,200Z" style="fill:#263238"></path><path d="M331.29,214.13c-5.35,7-17.86,14.48-20.44,12.13-3.17-2.9-1.12-14.07.22-17.61.47-1.26,9.09,3.67,8.54,5a11.36,11.36,0,0,0-.65,1.74,69.73,69.73,0,0,1,9.37-4.29C332.08,209.62,334.61,209.81,331.29,214.13Z" style="fill:#f7a9a0"></path><path d="M319,215.33l-.4.9-.38.9-.77,1.8c-.26.6-.53,1.2-.8,1.79-.14.3-.27.6-.43.89s-.29.58-.44.87a13,13,0,0,0,1.08-1.65c.32-.58.59-1.18.86-1.78s.5-1.21.71-1.84A17.69,17.69,0,0,0,319,215.33Z" style="fill:#263238"></path><path d="M319,213.15l-4.6-1.69h0l-.11,0-3.49-1.28a9,9,0,0,1,.11-.91h0a33.67,33.67,0,0,1,2.22-6.89c.6-1.33,2.52-4.87,3.57-4.48s.54,1.49.54,1.49,1.12-1.4,2.14-.92c.85.39.41,1.61.23,2l0,.07h0l0,.08s1.26-1.36,2.25-.81.05,1.8-.14,2.07l0,0a0,0,0,0,1,0,0c.19-.21,1.12-1.17,1.68-.46.75,1-1.53,3.12-2.12,4.62,0,.07-.15.46-.32,1l-.73,2.37C319.6,211.26,319,213.15,319,213.15Z" style="fill:#f7a9a0"></path><path d="M318.86,206.73a12.31,12.31,0,0,1,2.69-4.85c.05,0,.1,0,.11,0v0s0,0,0,.07a28.4,28.4,0,0,0-2.69,4.78S318.85,206.77,318.86,206.73Z" style="fill:#263238"></path><path d="M316.68,205.76a13.08,13.08,0,0,1,2.82-5.19c.05,0,.12,0,.13,0a.11.11,0,0,1,0,.07h0a24.34,24.34,0,0,0-2.85,5.12S316.67,205.79,316.68,205.76Z" style="fill:#263238"></path><path d="M317.19,199.56a25.7,25.7,0,0,0-2.47,5.29c0,.05-.1,0-.09,0a12.74,12.74,0,0,1,2.5-5.32C317.22,199.4,317.27,199.43,317.19,199.56Z" style="fill:#263238"></path><path d="M314.81,210.2a3.25,3.25,0,0,1,.23-.29l.07-.07h0c1.41-1.37,4.19-.65,4.19-.65a10.86,10.86,0,0,1,.66-1.83,4.38,4.38,0,0,1,1.5-2h0a1,1,0,0,1,.5-.14.69.69,0,0,1,.28,0h0c.5.16.53,1.38.36,2.74a12.25,12.25,0,0,1-1,3.71,26.77,26.77,0,0,1-3.27,3S313.55,212,314.81,210.2Z" style="fill:#f7a9a0"></path><path d="M321.83,205.3c-1.51.6-1.89,2.54-2.37,3.92a.14.14,0,0,1-.21.07c-1.38-.26-3.4-.22-4.46.82,0,0-.07,0-.05-.05,1-1.27,3-1.46,4.46-1.08.47-1.43.93-3.36,2.62-3.69C321.83,205.29,321.84,205.3,321.83,205.3Z" style="fill:#263238"></path><path d="M309.85,213.39a42.46,42.46,0,0,1,.92-4.73,41.68,41.68,0,0,1,1.41-4.62,25,25,0,0,1,2.09-4.37,4.91,4.91,0,0,1,1.73-1.78,1.3,1.3,0,0,1,.65-.15.77.77,0,0,1,.61.36,1.59,1.59,0,0,1,.07,1.26l-.16-.07a2.7,2.7,0,0,1,1.57-.95,2.74,2.74,0,0,0-1.42,1l-.24.31.08-.38a1.49,1.49,0,0,0-.12-1.07c-.19-.29-.58-.25-.89-.06a4.91,4.91,0,0,0-1.51,1.71,28.67,28.67,0,0,0-2,4.31c-.58,1.49-1,3-1.52,4.55S310.24,211.83,309.85,213.39Z" style="fill:#263238"></path><path d="M324.25,229.6l-.6,11.17,25.28-1.13s-5.91-21.77-12.16-27.56c-3.13-2.9-6.49-2.4-8.47-.05-.5.6-5.38,8.25-5.81,11.59C322.12,226.56,324.25,229.6,324.25,229.6Z" style="fill:#f7a9a0"></path><path d="M323.65,240.77l.6-11.17s-2.13-3-1.76-6,4.75-10.42,6.15-12.54a75.28,75.28,0,0,0-3.33,7.38c.28-.09,1.39-.34,3.11.91a5.19,5.19,0,0,1,4.58-.64c.6-2.16,1.67-7.24.36-8.18a2.32,2.32,0,0,0-1.81-.41,6.28,6.28,0,0,1,5.22,1.93c6.24,5.8,12.17,27.57,12.17,27.57Z" style="fill:#FFA52E"></path><path d="M328.06,228.85a22.6,22.6,0,0,1,3.28.4c.53.11,1.06.25,1.59.4l.79.2a4,4,0,0,0,.85.12s0,0,0,0a5.51,5.51,0,0,1-.81,0,7,7,0,0,1-.78-.11c-.54-.11-1.08-.25-1.63-.36-1.09-.23-2.19-.47-3.3-.62A0,0,0,0,1,328.06,228.85Z" style="fill:#263238"></path><path d="M325.39,229.94a24.59,24.59,0,0,1,2.71-.25c.46,0,.91,0,1.37,0l.65,0c.23,0,.47.07.71.09,0,0,0,0,0,0-.23,0-.45,0-.68,0h-.68l-1.36,0c-.91,0-1.81,0-2.72.06A0,0,0,1,1,325.39,229.94Z" style="fill:#263238"></path><path d="M333.23,212.12c-.16.41-2.55,2.86-4.46,2.5-.62-.11-.13-3.54-.13-3.54l0-.26-.3-3.66,4.54-2.1.65-.27s0,1,0,2.26v.18c0,.07,0,.14,0,.21v1c0,.16,0,.3,0,.46A22.07,22.07,0,0,1,333.23,212.12Z" style="fill:#f7a9a0"></path><path d="M333.53,207.05a7.37,7.37,0,0,1-4.91,3.77l-.3-3.66,4.54-2.1.65-.27S333.52,205.8,333.53,207.05Z" style="fill:#263238"></path><path d="M323.48,201.91c-.53,6.42,3.25,7.46,4.64,7.58s5.55.29,6.73-6-1.62-8.61-4.49-9S324,195.49,323.48,201.91Z" style="fill:#f7a9a0"></path><path d="M324.29,200.68c.13.07.27.11.41.17a.72.72,0,0,0,.45.09.23.23,0,0,0,.16-.23c0-.22-.2-.34-.39-.43a.81.81,0,0,0-.59-.05A.25.25,0,0,0,324.29,200.68Z" style="fill:#263238"></path><path d="M329,200.44a3.77,3.77,0,0,1-.43.1.76.76,0,0,1-.47,0,.25.25,0,0,1-.12-.25.59.59,0,0,1,.45-.37.83.83,0,0,1,.6,0A.25.25,0,0,1,329,200.44Z" style="fill:#263238"></path><path d="M327.79,202.14s0,0,0,0c-.06.44-.05.94.33,1.13a0,0,0,0,1,0,0C327.67,203.22,327.67,202.54,327.79,202.14Z" style="fill:#263238"></path><path d="M328.23,201.73c.71,0,.61,1.43,0,1.41S327.64,201.71,328.23,201.73Z" style="fill:#263238"></path><path d="M328.5,201.82c.12.09.23.24.38.26s.31-.11.43-.24,0,0,0,0c0,.28-.14.55-.43.57s-.44-.24-.49-.51C328.41,201.86,328.46,201.78,328.5,201.82Z" style="fill:#263238"></path><path d="M325.28,201.89s0,0,0,0c0,.44-.1.94-.51,1.06,0,0,0,0,0,0C325.23,203,325.34,202.3,325.28,201.89Z" style="fill:#263238"></path><path d="M324.92,201.41c-.7-.1-.84,1.31-.19,1.4S325.51,201.49,324.92,201.41Z" style="fill:#263238"></path><path d="M324.62,201.47c-.12.06-.24.19-.38.18s-.25-.16-.34-.32,0,0,0,0c0,.27,0,.56.28.64s.43-.15.52-.41C324.7,201.52,324.67,201.44,324.62,201.47Z" style="fill:#263238"></path><path d="M327.6,205.63c-.11.1-.22.24-.38.25a1.31,1.31,0,0,1-.47-.12s0,0,0,0a.6.6,0,0,0,.56.25.46.46,0,0,0,.35-.38A0,0,0,0,0,327.6,205.63Z" style="fill:#263238"></path><path d="M325.89,203.9a9.54,9.54,0,0,0-.16,1s.07,0,.17.06h0a1.45,1.45,0,0,0,1.46-.44s0-.06,0,0a2.27,2.27,0,0,1-1.37.28c0-.09.28-1.1.23-1.11a2.69,2.69,0,0,0-.71.1c.26-1.35.73-2.65,1-4,0-.05-.06-.07-.07,0a22.35,22.35,0,0,0-1.23,4.27C325.12,204.13,325.77,203.94,325.89,203.9Z" style="fill:#263238"></path><path d="M325.93,204.71a1.77,1.77,0,0,0,.6.68.83.83,0,0,0,.47.12c.37,0,.44-.34.42-.63a2.34,2.34,0,0,0-.07-.45A2.34,2.34,0,0,1,325.93,204.71Z" style="fill:#263238"></path><path d="M326.53,205.39a.83.83,0,0,0,.47.12c.37,0,.44-.34.42-.63A.82.82,0,0,0,326.53,205.39Z" style="fill:#ffa2be"></path><path d="M334.22,204c-1.21.06-1.33-2.71-1.33-2.71s-5.06-1.22-5.2-5.42a7.07,7.07,0,0,1-3.83,3.62s.49-4.56,4.18-5.2c0,0,4.61-1.33,6.89,2.42S335,204,334.22,204Z" style="fill:#263238"></path><path d="M327.69,195.59a4.45,4.45,0,0,0,.1,1.92,4.6,4.6,0,0,0,.85,1.75,2.83,2.83,0,0,0,.32.37l.16.18.19.16.38.31.41.26.21.13.22.1.44.2c.3.11.61.2.91.29-.28-.15-.58-.27-.86-.42l-.4-.23-.21-.12-.19-.14-.38-.27-.35-.31-.17-.16-.15-.17a3.27,3.27,0,0,1-.3-.35,5.62,5.62,0,0,1-.87-1.64,7.13,7.13,0,0,1-.23-.91A6,6,0,0,1,327.69,195.59Z" style="fill:#263238"></path><path d="M325.54,195.7a6.23,6.23,0,0,1,4-2.17,6.63,6.63,0,0,1,6.81,3.69,5.62,5.62,0,0,1-1.14,6s1.34-3.66-.07-5.58a6.74,6.74,0,0,0-5.65-3.11A9.81,9.81,0,0,0,325.54,195.7Z" style="fill:#FFA52E"></path><path d="M327.56,194.3l3.29-.5a4.34,4.34,0,0,1-1.41-2.16,2.26,2.26,0,0,1,.85-2.14S326.69,190.75,327.56,194.3Z" style="fill:#FFA52E"></path><path d="M336.53,198l-2.47-2.73a5,5,0,0,0,2.78-.77,2.38,2.38,0,0,0,.82-2.35S339.85,195.69,336.53,198Z" style="fill:#FFA52E"></path><path d="M333.37,203.45s1.4-2,2.31-1.52-.13,3.42-1.2,3.82a1.08,1.08,0,0,1-1.46-.58Z" style="fill:#f7a9a0"></path><path d="M335.36,202.76s0,0,0,0a2.76,2.76,0,0,0-1.42,1.73.6.6,0,0,1,.9-.17s0,.05,0,0a.68.68,0,0,0-.74.24,3.5,3.5,0,0,0-.35.6c0,.06-.15,0-.13,0v0C333.59,204.21,334.33,202.86,335.36,202.76Z" style="fill:#263238"></path><path d="M335.08,211.78c-1.2,1.14-.68,5.64,1.22,8.13,1.63,2.13,4.87,1.44,4.7-2S336.33,210.59,335.08,211.78Z" style="fill:#f7a9a0"></path><path d="M339.3,213.46c9,7.33,19.49,24,15.89,26.34-3.28,2.12-14.94,3.21-19.74,2.9-1.41-.09-.31-12.33,1.2-12.24,1.83.12,6.43.7,6.61.66.38-.09-5.15-10.4-7.24-14.68C333.11,210.47,335.84,210.65,339.3,213.46Z" style="fill:#f7a9a0"></path><path d="M321.48,230.62a1.83,1.83,0,0,0,.5,2,2.68,2.68,0,0,0-1.06,1.5c-.24,1.09,1.36,1.95,1.36,1.95a3.33,3.33,0,0,0-.86,1.77c-.13,1.07,1.37,2.16,1.37,2.16a3,3,0,0,0,.22,2c.91,1.65,3.78,1.8,5.61,1.92s7.1-1.26,8.14-1.42l.85-11.71s-8-2.85-10.2-2.68C325.59,228.32,322,229.31,321.48,230.62Z" style="fill:#f7a9a0"></path><path d="M322.07,232.46a24.15,24.15,0,0,1,5.86-.76,0,0,0,0,1,0,.07c-2,.1-3.89.6-5.85.79A.05.05,0,0,1,322.07,232.46Z" style="fill:#263238"></path><path d="M322.33,236a4.78,4.78,0,0,1,1.36-.11h1.45c1,0,1.93,0,2.9.12,0,0,0,.07,0,.06-1,0-1.93,0-2.89,0l-1.45.05a6.18,6.18,0,0,1-1.36,0A.07.07,0,0,1,322.33,236Z" style="fill:#263238"></path><path d="M322.83,240a3.89,3.89,0,0,1,1.23,0l1.32,0c.88,0,1.76,0,2.64,0,.05,0,.05.07,0,.07-.9,0-1.79,0-2.69,0H324a3.39,3.39,0,0,1-1.19-.1A0,0,0,0,1,322.83,240Z" style="fill:#263238"></path><path d="M343,231.09a14.3,14.3,0,0,1,2.15.32c.71.14,1.41.32,2.11.52a25.79,25.79,0,0,1,4,1.56s0,.08,0,.07c-1.37-.5-2.77-.91-4.16-1.33-.68-.21-1.37-.4-2-.58s-1.36-.31-2-.52C342.92,231.12,342.94,231.09,343,231.09Z" style="fill:#263238"></path><path d="M337.09,219a3.74,3.74,0,0,0,.41.55c-.21-.44-.41-.87-.58-1.33h0c.27.44.52.89.76,1.34.11.23.22.46.34.69s.29.67.36.79,0,.08-.06,0-.29-.47-.42-.72l-.31-.59a3.23,3.23,0,0,1-.53-.74S337.09,219,337.09,219Z" style="fill:#263238"></path></g><g id="freepik--character-1--inject-534"><path d="M171.27,127.75c-15.21-13.67-19-26.44-22.36-31.22-4.47-6.35-19.94-7.42-30.94-12-7.89-3.27-17.26-11.64-18.63-9.47-.74,1.16,3.83,6.39,3.83,6.39s-1.7,3.52,5.23,7.59c0,0,0,5.91,8,8.69,0,0-1.61,4.59,4.3,7.63,0,0-1.3,4.68,6.55,6.3,0,0-.64,5.73,5.88,7.23,0,0,.19,2.29,3,4.32,5.08,3.65,17.84,5.18,27.52,11.58,7,4.62,7.37,10.47,8.54,10.55a2.78,2.78,0,0,0,3.09-2.39S173.2,129.48,171.27,127.75Z" style="fill:#fff"></path><path d="M171.27,127.75a81.24,81.24,0,0,1-16-19.49c-1.08-1.82-2.06-3.68-3-5.55s-1.88-3.78-3-5.56a11.83,11.83,0,0,0-4.72-4.06,34.9,34.9,0,0,0-5.86-2.33c-4-1.27-8.14-2.21-12.2-3.34A55.54,55.54,0,0,1,114.62,83c-3.73-2-7.18-4.45-10.79-6.61A15.92,15.92,0,0,0,101,75,1.77,1.77,0,0,0,99.59,75c-.42.26-.16.87,0,1.31a26.89,26.89,0,0,0,3.65,5.11l0,.06,0,.07a3.4,3.4,0,0,0,.08,2.33,6.4,6.4,0,0,0,1.26,2.07,12.23,12.23,0,0,0,1.79,1.66,23.58,23.58,0,0,0,2,1.37l.06,0v.07a7.65,7.65,0,0,0,.81,2.94,10,10,0,0,0,1.8,2.49,12.81,12.81,0,0,0,2.45,1.87c.44.27.92.47,1.38.71l1.44.58.1,0,0,.1a5.6,5.6,0,0,0,.7,4.47,7.65,7.65,0,0,0,1.57,1.74c.3.26.63.47,1,.7l1,.59.07,0,0,.08a3.91,3.91,0,0,0,.3,2.4,4.87,4.87,0,0,0,1.57,1.89,8.44,8.44,0,0,0,2.19,1.19c.4.13.79.29,1.19.4l1.22.3.08,0v.08a6.76,6.76,0,0,0,1.49,4.69,6.88,6.88,0,0,0,2,1.57,9.88,9.88,0,0,0,1.15.52c.4.14.81.24,1.22.37h0v0a6,6,0,0,0,1.46,2.91,10.24,10.24,0,0,0,2.59,2,39,39,0,0,0,6.17,2.53c4.23,1.4,8.51,2.69,12.63,4.41a53.79,53.79,0,0,1,6,3,22.54,22.54,0,0,1,5.28,4.08,20.42,20.42,0,0,1,3.64,5.58,16.06,16.06,0,0,0,.74,1.5c.26.58,1,.42,1.47.35a2.72,2.72,0,0,0,2.1-2.3h0c-.41-2.61-.88-5.21-1.44-7.79-.28-1.28-.58-2.57-1-3.84-.18-.63-.39-1.26-.63-1.87A5.18,5.18,0,0,0,171.27,127.75Zm0,0a5.39,5.39,0,0,1,1,1.72c.24.61.45,1.24.63,1.87.37,1.27.67,2.55,1,3.84.57,2.58,1,5.17,1.46,7.78h0a3.1,3.1,0,0,1-.7,1.51,2.55,2.55,0,0,1-1.43.83,4,4,0,0,1-.84.07c-.3,0-.54-.21-.68-.44-.29-.48-.51-1-.75-1.49a20.22,20.22,0,0,0-3.64-5.57,22.36,22.36,0,0,0-5.27-4.05,53.64,53.64,0,0,0-6-2.95c-4.12-1.71-8.39-3-12.63-4.38a39.18,39.18,0,0,1-6.19-2.52,7.74,7.74,0,0,1-4.15-5.06l.06.07c-.41-.13-.83-.23-1.23-.37a9.5,9.5,0,0,1-1.17-.53,6.64,6.64,0,0,1-2-1.61,6.82,6.82,0,0,1-1.54-4.81l.07.1-1.24-.31c-.41-.11-.81-.26-1.21-.39a9.19,9.19,0,0,1-2.24-1.22,5.09,5.09,0,0,1-1.63-2,4.1,4.1,0,0,1-.31-2.54l.05.12-1-.6c-.33-.24-.67-.45-1-.71a7.85,7.85,0,0,1-1.62-1.78,5.84,5.84,0,0,1-.73-4.66l.06.14-1.46-.58c-.46-.24-1-.45-1.39-.72a12.56,12.56,0,0,1-2.51-1.9,8.92,8.92,0,0,1-2.69-5.6l.06.11a24,24,0,0,1-2.06-1.39,11.85,11.85,0,0,1-1.83-1.71,6.61,6.61,0,0,1-1.3-2.14,3.61,3.61,0,0,1-.07-2.51l0,.12a26.9,26.9,0,0,1-3.67-5.17,3.39,3.39,0,0,1-.25-.78,1.1,1.1,0,0,1,0-.44.89.89,0,0,1,.28-.35,1.91,1.91,0,0,1,1.62,0,17.16,17.16,0,0,1,2.84,1.43c3.62,2.18,7.06,4.63,10.77,6.63a55.41,55.41,0,0,0,11.81,4.42c4.06,1.13,8.17,2.08,12.2,3.36A35.46,35.46,0,0,1,144.58,93a11.8,11.8,0,0,1,4.74,4.09c1.12,1.79,2,3.7,3,5.57s2,3.74,3,5.56A81.57,81.57,0,0,0,171.27,127.75Z" style="fill:#263238"></path><path d="M170.74,132a10.79,10.79,0,0,0-.87-2.34,5.91,5.91,0,0,0-1.45-1.66c-1.22-1-2.6-1.82-3.84-2.8a47.8,47.8,0,0,1-12.34-14.43c-1.56-2.83-2.69-5.89-4.38-8.66a17.44,17.44,0,0,0-6.46-6.19,38.4,38.4,0,0,0-8.31-3.2c-3.07-.87-6.17-1.65-9.18-2.71a72.19,72.19,0,0,1-18.07-9.63c-.68-.49-1.37-1-2-1.52-.07-.06-.16.06-.08.12A64,64,0,0,0,112,84.92a67.48,67.48,0,0,0,9.08,4.54,81.58,81.58,0,0,0,9.26,3.06A64.37,64.37,0,0,1,139,95.31a18.2,18.2,0,0,1,7.16,5.21c2,2.55,3.21,5.65,4.65,8.55a48.56,48.56,0,0,0,11.35,14.77q1.77,1.56,3.68,2.94c1.27.91,2.78,1.72,3.57,3.12a12.82,12.82,0,0,1,.92,2.49c.29.91.57,1.82.86,2.73.57,1.79,1.11,3.59,1.71,5.36.31.9.61,1.8.93,2.69a0,0,0,0,0,.08,0C173,139.4,171.83,135.7,170.74,132Z" style="fill:#c7c7c7"></path><path d="M139.75,97.63c-4.19-.73-8.38-1.46-12.53-2.41a92,92,0,0,1-12.07-3.5,50.51,50.51,0,0,1-6.54-3s-.08,0,0,0a56.32,56.32,0,0,0,5.59,2.83c2,.83,4,1.55,6,2.18a99.7,99.7,0,0,0,12.47,2.74c2.36.4,4.74.76,7.11,1.11C139.78,97.69,139.79,97.64,139.75,97.63Z" style="fill:#c7c7c7"></path><path d="M145.55,103.45a55.75,55.75,0,0,0-10.86-3c-3.72-.67-7.49-1.09-11.22-1.74-2.13-.38-4.27-.77-6.36-1.34,0,0-.06,0,0,.06,1.79.54,3.6,1,5.43,1.4s3.75.68,5.63,1c3.75.58,7.52,1.1,11.24,1.89a45,45,0,0,1,6.14,1.79S145.6,103.47,145.55,103.45Z" style="fill:#c7c7c7"></path><path d="M147.14,104.55s0,.06,0,.07S147.18,104.55,147.14,104.55Z" style="fill:#c7c7c7"></path><path d="M150.36,111.09a38.27,38.27,0,0,0-10.47-3.78,67.47,67.47,0,0,0-11.6-1.24c-2.27-.07-4.54-.06-6.8,0,0,0,0,.07,0,.07,4,.17,7.91.29,11.85.67a63.25,63.25,0,0,1,11.17,2,33.14,33.14,0,0,1,5.85,2.32S150.38,111.09,150.36,111.09Z" style="fill:#c7c7c7"></path><path d="M153.37,115c-1.57-.69-3.14-1.36-4.73-2a31,31,0,0,0-4.84-1.56,23.21,23.21,0,0,0-5-.52c-1.77,0-3.54.13-5.31.23-2,.11-4,.25-6,.37,0,0-.05.07,0,.07,1.77,0,3.54-.06,5.31-.11s3.47-.12,5.2-.14a26.94,26.94,0,0,1,5.07.38,42.83,42.83,0,0,1,5,1.25c1.8.56,3.54,1.31,5.28,2C153.38,115,153.38,115,153.37,115Z" style="fill:#c7c7c7"></path><path d="M161.39,124.47c-1.79-.69-3.57-1.41-5.31-2.21s-3.44-1.69-5.22-2.37a29.55,29.55,0,0,0-10.94-1.8,43.44,43.44,0,0,0-6.24.55c-.05,0,0,.07,0,.07a52.8,52.8,0,0,1,11.1.06,29.52,29.52,0,0,1,5.42,1.22c1.79.61,3.49,1.44,5.21,2.2,2,.86,3.93,1.65,6,2.32A0,0,0,0,0,161.39,124.47Z" style="fill:#c7c7c7"></path><path d="M159.81,122.66a47.84,47.84,0,0,0-7.48-3.81,35.72,35.72,0,0,0-8.12-2.25,46.52,46.52,0,0,0-4.72-.45,0,0,0,0,0,0,.07,45.29,45.29,0,0,1,8.26,1.49,48,48,0,0,1,7.83,2.7,39.89,39.89,0,0,1,4.23,2.26S159.82,122.67,159.81,122.66Z" style="fill:#c7c7c7"></path><path d="M135.93,102.31c-4.42-1.58-9.21-1.19-13.81-1.29a37.84,37.84,0,0,1-4-.29,0,0,0,0,0,0,.07c4.58,1,9.28.19,13.9.71a19.36,19.36,0,0,1,3.9.83S135.94,102.32,135.93,102.31Z" style="fill:#c7c7c7"></path><path d="M141.84,97.89a93.31,93.31,0,0,0-16.64-4.61c-1.59-.27-3.19-.5-4.8-.71,0,0,0,.06,0,.07,2.88.4,5.73,1,8.57,1.61s5.53,1.32,8.25,2.14c1.55.47,3.08,1,4.61,1.52C141.85,97.92,141.86,97.89,141.84,97.89Z" style="fill:#c7c7c7"></path><path d="M152.06,113.47a27.91,27.91,0,0,0-5.64-2.45,30.34,30.34,0,0,0-6-1.15s-.05.07,0,.07A32,32,0,0,1,152,113.49S152.07,113.47,152.06,113.47Z" style="fill:#c7c7c7"></path><path d="M169.46,134.75a26.19,26.19,0,0,0-7.32-5.42,46.28,46.28,0,0,0-8.8-3.2c-1.72-.46-3.46-.86-5.2-1.25,0,0-.07.06,0,.07a81.65,81.65,0,0,1,8.94,2.61,41.82,41.82,0,0,1,8.29,4,23.65,23.65,0,0,1,4.06,3.27A0,0,0,0,0,169.46,134.75Z" style="fill:#c7c7c7"></path><path d="M175.09,136.82s1.95-7.42,2.1-9.34,2.47-7.26,2.59-9.69.34-6,.66-8.42,3.22-9.23,4.78-11.27S205.81,82.59,206,83.69a3.86,3.86,0,0,1-.67,2.27s.4,2.69-3.31,5.6c0,0,2.79.8-4.15,7.59,0,0,1.63,1.61-2.9,5.63,0,0,3.31,1.09-2.78,5.8,0,0,.74,1.13-1.38,2.77,0,0,1.34,1.94-2.88,4.81a8.32,8.32,0,0,1-2.92,5.39s1.76,5.81-3.26,12.65-6.56,9.19-6.56,9.19Z" style="fill:#fff"></path><path d="M175.09,136.82c.7-2.75,1.4-5.51,1.92-8.3.14-.69.15-1.41.35-2.1s.38-1.37.59-2c.43-1.36.89-2.7,1.27-4.07a14.69,14.69,0,0,0,.45-2.07l.17-2.12.33-4.25a17.21,17.21,0,0,1,.61-4.22,41,41,0,0,1,1.48-4,42.33,42.33,0,0,1,1.83-3.85A12.31,12.31,0,0,1,185.23,98a15.42,15.42,0,0,1,1.59-1.44c2.21-1.8,4.5-3.48,6.8-5.15s4.64-3.29,7-4.86c1.19-.78,2.38-1.56,3.61-2.27.31-.18.63-.35.95-.51a4,4,0,0,1,.52-.2l.17,0,.13,0a.28.28,0,0,1,.06.13,2.72,2.72,0,0,1,0,.28,4,4,0,0,1-.71,2.06l0-.09a4.49,4.49,0,0,1-.24,1.72,7.28,7.28,0,0,1-.76,1.53,9.89,9.89,0,0,1-1.07,1.33,13.62,13.62,0,0,1-1.27,1.14l0-.22a1,1,0,0,1,.63,1.08,3.11,3.11,0,0,1-.3,1.18,10.71,10.71,0,0,1-1.26,2,22.27,22.27,0,0,1-1.54,1.81c-.52.59-1.1,1.13-1.65,1.7v-.16a1.93,1.93,0,0,1,.2,1.74,5.91,5.91,0,0,1-.79,1.54,15.36,15.36,0,0,1-2.32,2.51l0-.18a1.56,1.56,0,0,1,.79.64,1.48,1.48,0,0,1,.15,1A3.92,3.92,0,0,1,195,108a11.58,11.58,0,0,1-1.33,1.38c-.47.45-1,.83-1.47,1.24l0-.13a1.71,1.71,0,0,1-.23,1.68,5.17,5.17,0,0,1-1.17,1.21l0-.12a2,2,0,0,1,.11,1.55,4.19,4.19,0,0,1-.74,1.36,10.7,10.7,0,0,1-2.28,2l0-.07a8.55,8.55,0,0,1-1,3,7.86,7.86,0,0,1-2,2.44l0-.09a13.26,13.26,0,0,1-.15,6.17,17.83,17.83,0,0,1-2.52,5.65c-1.16,1.71-2.4,3.36-3.59,5l-3.61,5-.06.07v-.09Zm0,0,.08,8.57h0l3.58-5c1.18-1.69,2.41-3.36,3.56-5.06a17.65,17.65,0,0,0,2.49-5.61,13.07,13.07,0,0,0,.14-6.09v0l0,0a7.63,7.63,0,0,0,2-2.39,8.4,8.4,0,0,0,.93-2.95v0l0,0a10.65,10.65,0,0,0,2.24-2,4,4,0,0,0,.7-1.3,1.83,1.83,0,0,0-.09-1.4l0-.07.06,0a4.87,4.87,0,0,0,1.13-1.18,2,2,0,0,0,.31-.73,1.16,1.16,0,0,0-.08-.74l-.05-.07.07-.06c.49-.4,1-.78,1.45-1.22a10.61,10.61,0,0,0,1.31-1.37,3.77,3.77,0,0,0,.85-1.63,1.37,1.37,0,0,0-.13-.85,1.44,1.44,0,0,0-.67-.55l-.17-.06.13-.12a14.85,14.85,0,0,0,2.28-2.48,5.3,5.3,0,0,0,.75-1.48,1.72,1.72,0,0,0-.14-1.51l-.08-.09.08-.07c.54-.57,1.11-1.11,1.63-1.7s1-1.17,1.52-1.79a10.58,10.58,0,0,0,1.22-2,2.9,2.9,0,0,0,.29-1.09.84.84,0,0,0-.46-.84l-.21-.08.17-.13a14.57,14.57,0,0,0,1.24-1.12,9.18,9.18,0,0,0,1-1.29,7.06,7.06,0,0,0,.74-1.48,4.24,4.24,0,0,0,.24-1.6v0l0,0a3.74,3.74,0,0,0,.67-1.92,2.18,2.18,0,0,0,0-.25s0,0-.08,0a2.5,2.5,0,0,0-.47.18c-.32.15-.63.32-.93.49-1.23.71-2.43,1.48-3.61,2.26-2.37,1.56-4.7,3.19-7,4.84s-4.6,3.34-6.81,5.13a16.25,16.25,0,0,0-1.57,1.41,13.12,13.12,0,0,0-1.12,1.79c-.68,1.24-1.28,2.53-1.84,3.84s-1.06,2.63-1.48,4a17.31,17.31,0,0,0-.61,4.19l-.34,4.25-.17,2.13a16.07,16.07,0,0,1-.47,2.08c-.39,1.37-.86,2.71-1.3,4.07-.22.67-.43,1.35-.61,2s-.21,1.4-.35,2.1C176.52,131.32,175.8,134.07,175.09,136.82Z" style="fill:#263238"></path><path d="M204.12,86c-3.52,2.3-7,4.78-10.28,7.35-1.65,1.28-3.27,2.6-4.87,3.94-.78.66-1.58,1.31-2.33,2a7.33,7.33,0,0,0-1.72,2.12,12.32,12.32,0,0,0-.88,2.78c-.24,1-.46,2.09-.66,3.14q-.58,3.14-.92,6.3c-.22,2.13-.2,4.3-.51,6.42a46.08,46.08,0,0,1-1.58,6.22c-1.21,4.23-2.37,8.48-3.54,12.73l-.42,1.6a0,0,0,0,0,.08,0c1.37-4.15,2.62-8.34,3.87-12.52.61-2,1.28-4.08,1.76-6.15a38.16,38.16,0,0,0,.66-6.32,68.15,68.15,0,0,1,1.93-12.46A6.75,6.75,0,0,1,186,100.5a19.39,19.39,0,0,1,2.12-2q2.37-2.06,4.81-4c3.26-2.62,6.58-5.15,10-7.54l1.25-.87S204.15,86,204.12,86Z" style="fill:#c7c7c7"></path><path d="M184.59,123.68a32.67,32.67,0,0,0-2.7,4.27c-.81,1.51-1.51,3.08-2.22,4.64a0,0,0,1,0,.06,0c.77-1.5,1.54-3,2.34-4.47s1.63-3,2.56-4.44C184.65,123.69,184.61,123.65,184.59,123.68Z" style="fill:#c7c7c7"></path><path d="M187.51,117.93A7,7,0,0,0,185,119.8c-.91.94-1.83,1.9-2.68,2.9,0,0,0,.08.05,0,.91-.83,1.77-1.72,2.63-2.61a8.47,8.47,0,0,1,2.57-2.16A0,0,0,0,0,187.51,117.93Z" style="fill:#c7c7c7"></path><path d="M192.1,110.72a19.79,19.79,0,0,1-4.16,3.58c-.74.51-1.5,1-2.25,1.5a22.56,22.56,0,0,1-2.57,1.56,0,0,0,1,0,0,.06,26.87,26.87,0,0,0,2.58-1.4c.81-.47,1.61-1,2.38-1.49a18.09,18.09,0,0,0,4-3.77A0,0,0,0,0,192.1,110.72Z" style="fill:#c7c7c7"></path><path d="M195,104.53a37.58,37.58,0,0,0-8.84,7.56c-.84.89-1.68,1.79-2.49,2.71,0,0,0,.11.08.06,2.89-2.77,5.53-5.81,8.64-8.36a27.79,27.79,0,0,1,2.64-1.92S195.07,104.51,195,104.53Z" style="fill:#c7c7c7"></path><path d="M197.68,99.09a100.63,100.63,0,0,0-10.91,8c-1,.83-2,1.68-2.92,2.53a0,0,0,0,0,0,.06c3.5-2.85,7.13-5.55,10.73-8.26,1-.78,2.06-1.54,3.09-2.3C197.74,99.12,197.71,99.07,197.68,99.09Z" style="fill:#c7c7c7"></path><path d="M201.92,91.2c-2.23,1.68-4.42,3.42-6.58,5.18s-4.32,3.55-6.43,5.39c-1.19,1-2.37,2.07-3.57,3.09,0,0,0,.09,0,.06,2.19-1.74,4.4-3.45,6.57-5.2s4.32-3.56,6.44-5.38c1.19-1,2.39-2,3.56-3.1C202,91.22,202,91.17,201.92,91.2Z" style="fill:#c7c7c7"></path><path d="M202.49,89.3A25,25,0,0,0,197.08,93c-1.85,1.56-3.65,3.17-5.45,4.78-1,.94-2.08,1.89-3.11,2.85,0,0,0,.08,0,0q2.83-2.35,5.59-4.78c1.72-1.52,3.37-3.11,5.18-4.52a20.84,20.84,0,0,1,3.18-2.06S202.51,89.3,202.49,89.3Z" style="fill:#c7c7c7"></path><path d="M190.32,105.32a62.57,62.57,0,0,0-5.78,5.85s0,.09.06,0c1.91-2,3.85-3.89,5.79-5.82C190.43,105.36,190.36,105.28,190.32,105.32Z" style="fill:#c7c7c7"></path><path d="M181.16,133a13.55,13.55,0,0,0-2.55,5s0,.06.06,0a15,15,0,0,1,2.61-4.91C181.34,133,181.22,132.92,181.16,133Z" style="fill:#c7c7c7"></path><path d="M187.28,116.64c-1.38-1.59-3.72-2-6-1.49s-5,1.65-5.2,5.45c-.18,3.08.8,6.08.81,9.52S173.09,142,179.36,146c5.62,3.63,16.94.17,17.23-7.39.23-6-6.92-11.49-7.69-13.85S188.8,118.4,187.28,116.64Z" style="fill:#263238"></path><path d="M188.33,120a13.29,13.29,0,0,0,1,5.06,4.77,4.77,0,0,0,.71,1.13c.28.35.57.67.87,1,.59.64,1.18,1.28,1.74,1.93a17.89,17.89,0,0,1,2.77,4.29,13.6,13.6,0,0,1,1.13,5,11.74,11.74,0,0,0-.1-2.58,12.76,12.76,0,0,0-.68-2.51,15.77,15.77,0,0,0-2.74-4.46c-.57-.67-1.17-1.3-1.77-1.93a8.88,8.88,0,0,1-1.58-2,10.64,10.64,0,0,1-.88-2.38A21.66,21.66,0,0,1,188.33,120Z" style="fill:#263238"></path><path d="M176.26,123.19c.06,1.75.18,3.49.15,5.23a20.39,20.39,0,0,1-.2,2.59c-.12.84-.36,1.68-.57,2.54s-.38,1.72-.52,2.59a15.76,15.76,0,0,0-.14,2.66,9.23,9.23,0,0,0,.51,2.6,6.51,6.51,0,0,0,1.48,2.21,6.8,6.8,0,0,1-1.25-2.28,8.78,8.78,0,0,1-.36-2.55,22.56,22.56,0,0,1,.76-5.13,26.38,26.38,0,0,0,.56-2.59,17.94,17.94,0,0,0,.11-2.64A43.5,43.5,0,0,0,176.26,123.19Z" style="fill:#263238"></path><path d="M179.24,135.36c4,7,12.8,17.95,15.88,18.15,4,.25,12.19-1.57,16.43-2.94,1.35-.45-2.66-11.49-4.15-11.17-3.63.77-10.11,2.71-11.25,2.67s-7.75-5.37-12.07-8.83C178.32,128.63,176.52,130.56,179.24,135.36Z" style="fill:#f7a9a0"></path><path d="M205.44,140.13l2.25,6.07v0l.05.13,1.7,4.6a8.73,8.73,0,0,0,1.19-.14h0a41.42,41.42,0,0,0,8.95-2.69c1.76-.79,6.55-3.58,6-5s-2-.7-2-.7,1.85-1.49,1.21-2.84c-.52-1.11-2.12-.54-2.69-.29a.25.25,0,0,0-.09,0h0l-.1,0s1.79-1.67,1.06-3-2.37-.06-2.73.19l0,0,0,0c.28-.25,1.54-1.49.6-2.22-1.27-1-4.11,2-6.09,2.8l-1.34.43-3.12,1Z" style="fill:#f7a9a0"></path><path d="M213.92,140.33a17.76,17.76,0,0,0,2.69-.6,6.86,6.86,0,0,0,3.7-3c.05-.07,0-.12,0-.14h0s-.06,0-.1.05a10.37,10.37,0,0,1-3.5,2.65,17.4,17.4,0,0,1-2.8.91A0,0,0,0,0,213.92,140.33Z" style="fill:#263238"></path><path d="M215.36,143.21c3-.74,4.74-1.3,6.83-3.72.07-.08.05-.16,0-.17s-.05,0-.08,0,0,0,0,0h0a16,16,0,0,1-6.75,3.77S215.32,143.22,215.36,143.21Z" style="fill:#263238"></path><path d="M223.46,142.61a14.34,14.34,0,0,1-7,3.28c-.08,0-.06.12,0,.11a10.23,10.23,0,0,0,7-3.31C223.65,142.55,223.62,142.49,223.46,142.61Z" style="fill:#263238"></path><path d="M209.35,145.68a3.72,3.72,0,0,0,.37-.3l.1-.1h0c1.8-1.86.85-5.53.85-5.53a14.05,14.05,0,0,0,2.41-.87,5.78,5.78,0,0,0,2.6-2h0a1.65,1.65,0,0,0,.19-.66,1.55,1.55,0,0,0,0-.37l0,0c-.21-.66-1.83-.7-3.61-.47a16.57,16.57,0,0,0-4.9,1.29c-1,.6-3.91,4.32-3.91,4.32S206.92,147.35,209.35,145.68Z" style="fill:#f7a9a0"></path><path d="M215.79,136.41c-.78,2-3.34,2.5-5.16,3.14a.17.17,0,0,0-.09.27c.34,1.82.3,4.49-1.07,5.88,0,0,0,.11.06.07,1.67-1.3,1.93-3.91,1.42-5.88,1.88-.62,4.42-1.24,4.86-3.47C215.81,136.41,215.8,136.4,215.79,136.41Z" style="fill:#263238"></path><path d="M133.25,244.66c-.85-.35-19.63-16.55-20-17.62-.12-.4,2.08-3.28,4.84-6.67.59-.74,1.21-1.49,1.85-2.25l2.25-2.7c3.35-3.95,6.38-7.36,6.38-7.36l12.25,10.51L134.52,226l-2.29,2.66-2,2.16s4.41,9.42,4.64,10.63S134.09,245,133.25,244.66Z" style="fill:#f7a9a0"></path><path d="M133.25,244.66c-.85-.35-19.63-16.55-20-17.62-.12-.37,1.7-2.79,4.11-5.78,1.71,2.54,10.93,16,14.41,16.79,1.16.25-.14-4.1-.23-4.43,1.32,2.88,3.18,7,3.32,7.79C135.14,242.62,134.09,245,133.25,244.66Z" style="fill:#dbdbdb"></path><path d="M165.05,152s-20.18,36.26-20.46,36.74c0,.07-21,25.24-21,25.24l12.26,10.52s18.24-20.51,21.9-25.81c4.67-6.75,24.29-45.25,24.29-45.25Z" style="fill:#f7a9a0"></path><path d="M97.16,220.13c-.51-.76-7-24.69-6.71-25.76.12-.41,13-4.25,14.12-4.51l9.25-2.47,4.33,15.71L109,205.33l-3.74.92-2.83.7s-1.6,10.28-2.09,11.41S97.66,220.89,97.16,220.13Z" style="fill:#f7a9a0"></path><path d="M97.16,220.13c-.51-.76-7-24.69-6.71-25.76a30.79,30.79,0,0,1,4.85-1.75c.61,4.74,2.53,18.32,5,20.36.74.62,1.42-2.15,1.69-3.44-.51,3.13-1.35,8.06-1.68,8.82C99.87,219.49,97.66,220.88,97.16,220.13Z" style="fill:#dbdbdb"></path><path d="M180.79,153.28s-4.42,10.32-10.38,14.18c0,0-26.18,26.88-29.54,28.82-5.58,3.22-28.07,8.09-28.07,8.09L108,189s21.38-5.78,23.44-6.91c1.38-.76,19.39-17,19.56-17.62,2.1-7.77,8.25-13.61,8.25-13.61Z" style="fill:#f7a9a0"></path><path d="M159.24,150.85s-7.5,8-10,11.7-39.5,16.69-66.87,15.28c0,0,.94,30.75,18.85,49.25s33.13,22,33.13,22,27.59-37.79,34.28-52.26C179.5,173.26,182,153.39,182,153.39Z" style="fill:#FFA52E"></path><path d="M159.24,150.85s-7.5,8-10,11.7-39.5,16.69-66.87,15.28c0,0,.94,30.75,18.85,49.25s33.13,22,33.13,22,27.59-37.79,34.28-52.26C179.5,173.26,182,153.39,182,153.39Z" style="fill:#fff;opacity:0.4"></path><path d="M140.51,240.43l-.95,1.34c-3.2-1.65-7.5-4-12-6.77-12.41-7.66-20.52-14.94-24.11-21.64-6.41-12-9.64-28.26-10.84-35.61l1.62-.11c1.2,7.31,4.37,23.28,10.64,35S131,235.51,140.51,240.43Z" style="fill:#fff"></path><path d="M138.32,243.53l-.24.33c-9.07-4.6-30.63-16.5-37.27-28.86-6.93-12.91-10.11-31-11-37.12h.41c.93,6.16,4.11,24.11,11,36.94C107.77,227.1,129.31,239,138.32,243.53Z" style="fill:#fff"></path><path d="M141.79,238.61l-.23.33C131.47,233.63,113,222.73,107,211.45s-9.18-26.16-10.54-34l.4,0c1.36,7.82,4.54,22.75,10.49,33.84S131.75,233.32,141.79,238.61Z" style="fill:#fff"></path><g style="opacity:0.1"><path d="M159.45,204.9l-.74,1.2c-2,3.25-4,6.49-6.09,9.67s-4.2,6.36-6.39,9.47-4.46,6.16-6.78,9.18-4.71,6-7.16,8.91q-1.62,1.95-3.28,3.87l-.31-.14c1.39-1.68,2.78-3.36,4.14-5.07q3.56-4.45,7-9c2.32-3,4.58-6.12,6.81-9.21s4.43-6.19,6.56-9.34,4.2-6.32,6.22-9.55C159.43,204.88,159.45,204.89,159.45,204.9Z"></path><path d="M163.5,193.64c-3.47,5-7.12,9.86-10.87,14.64s-7.59,9.44-11.55,14q-3.33,3.84-6.73,7.63a0,0,0,0,0,.05,0c4.26-4.35,8.32-8.89,12.21-13.57s7.55-9.43,11.07-14.34c2-2.77,3.94-5.58,5.85-8.42C163.54,193.64,163.51,193.62,163.5,193.64Z"></path><path d="M130.92,218.17a12.64,12.64,0,0,1-1.45,1.89,19.08,19.08,0,0,1-3.74,3.21s-.07,0,0-.05c.35-.26.69-.53,1-.81a20.7,20.7,0,0,0,3.27-3.54,3.93,3.93,0,0,0,1-2,1,1,0,0,0-1.26-1,4.33,4.33,0,0,0-1.77,1q-.89.77-1.8,1.5-1.84,1.47-3.79,2.81a65.19,65.19,0,0,1-8.19,4.8,69.77,69.77,0,0,1-8.72,3.59l-1.22.39-.29-.27c1-.32,2-.65,2.9-1a71.24,71.24,0,0,0,9-4.11,73.24,73.24,0,0,0,8.32-5.25c1.31-1,2.56-2,3.83-3,.85-.68,2.65-1.6,3.31-.17A2.14,2.14,0,0,1,130.92,218.17Z"></path><path d="M159.39,183a78.3,78.3,0,0,1-6.59,8.89,82.15,82.15,0,0,1-7.76,7.85,88.82,88.82,0,0,1-8.67,6.8,87.87,87.87,0,0,1-9.47,5.68,84.11,84.11,0,0,1-10.13,4.38l-1.27.44s0,.07,0,.06a80.81,80.81,0,0,0,10.35-3.95,76.9,76.9,0,0,0,9.72-5.41,72.54,72.54,0,0,0,8.79-6.73,81.5,81.5,0,0,0,14.32-16.86c.24-.38.48-.76.71-1.14C159.41,183,159.39,183,159.39,183Z"></path><path d="M166.16,176.41a102.93,102.93,0,0,1-8.24,12.36c-.86,1.1-1.71,2.22-2.64,3.28,0,0,0,.07.05,0,1.65-1.87,3.31-3.73,4.79-5.74s2.81-4.08,4.07-6.22c.71-1.21,1.38-2.45,2-3.69C166.23,176.41,166.18,176.38,166.16,176.41Z"></path><path d="M132.55,203.45c-.26.21-.53.43-.8.63a47.54,47.54,0,0,1-7.51,4.79,53.32,53.32,0,0,1-8.2,3.37,73.89,73.89,0,0,1-9.17,2.25c-3.27.6-6.57,1-9.88,1.32-1.3.12-2.61.23-3.92.31l-.15-.27c1.48-.13,3-.28,4.45-.45,3.34-.37,6.68-.85,10-1.5a78.09,78.09,0,0,0,9.17-2.37,57.62,57.62,0,0,0,8.4-3.39,48,48,0,0,0,7.59-4.74S132.57,203.42,132.55,203.45Z"></path><path d="M138.42,195.87q-5.21,3.87-10.69,7.34c-1,.66-2.08,1.31-3.13,1.95,0,0,0,.07,0,.05a124.9,124.9,0,0,0,10.87-7.08c1-.73,2-1.47,2.95-2.22C138.47,195.89,138.45,195.86,138.42,195.87Z"></path></g><path d="M182,153.53l-22.75-2.68S169,134.17,175.12,130c2.76-1.91,4.87-1.06,6.39.88.38.49,4,9.33,3.91,12-.06,2.34-3.07,4.71-3.07,4.71Z" style="fill:#FFA52E"></path><g style="opacity:0.4"><path d="M182,153.53l-22.75-2.68S169,134.17,175.12,130c2.76-1.91,4.87-1.06,6.39.88.38.49,4,9.33,3.91,12-.06,2.34-3.07,4.71-3.07,4.71Z" style="fill:#fff"></path></g><path d="M175.23,145.6a23.69,23.69,0,0,1,3.25.54c.54.14,1.06.3,1.58.47l.78.23a3.46,3.46,0,0,0,.84.16s0,0,0,0a5.46,5.46,0,0,1-.81,0,6.55,6.55,0,0,1-.77-.15c-.54-.13-1.07-.29-1.61-.43-1.09-.28-2.17-.56-3.28-.76C175.16,145.69,175.17,145.6,175.23,145.6Z" style="fill:#263238"></path><path d="M172.51,146.58a24.76,24.76,0,0,1,2.72-.13,12.26,12.26,0,0,1,1.36.08l.65.07c.24,0,.47.09.71.12,0,0,0,0,0,0-.23,0-.45,0-.68,0h-.68l-1.36,0c-.91,0-1.81,0-2.72,0C172.46,146.65,172.47,146.58,172.51,146.58Z" style="fill:#263238"></path><path d="M175.6,133.83c-2.19,2.69-12.9,10.5-13.18,11.1s8.59,10.29,10.11,12.55c1,1.53-8.84,8.13-11,5.42-3.34-4.19-13.4-15.44-11.94-20.16s20.37-11.76,24-12.9S179.18,129.4,175.6,133.83Z" style="fill:#f7a9a0"></path><path d="M179,170.86a1.86,1.86,0,0,1-2.07.44,2.73,2.73,0,0,1-.9,1.63c-.89.71-2.38-.38-2.38-.38a3.38,3.38,0,0,1-1.23,1.57c-.92.59-2.58-.28-2.58-.28a3,3,0,0,1-2,.7c-1.9-.1-3.32-2.65-4.23-4.26s-2-7-2.32-8.06l10.29-6s6.16,6.05,7,8.1C179.3,166.09,180,169.76,179,170.86Z" style="fill:#f7a9a0"></path><path d="M177.09,171.13a24.36,24.36,0,0,0-1.91-5.68s-.08,0-.06,0c.77,1.85,1.17,3.82,1.87,5.68C177,171.21,177.09,171.18,177.09,171.13Z" style="fill:#263238"></path><path d="M173.79,172.44a5.07,5.07,0,0,0-.5-1.29c-.2-.44-.42-.88-.64-1.32-.44-.87-.91-1.74-1.4-2.59a0,0,0,0,0-.06,0c.44.87.87,1.75,1.27,2.64l.6,1.34a6.21,6.21,0,0,0,.61,1.24A.07.07,0,0,0,173.79,172.44Z" style="fill:#263238"></path><path d="M169.85,173.8a3.54,3.54,0,0,0-.51-1.14l-.63-1.19c-.41-.79-.82-1.58-1.2-2.39,0,0-.09,0-.07,0,.39.82.76,1.65,1.16,2.47l.58,1.2a3.45,3.45,0,0,0,.63,1S169.85,173.82,169.85,173.8Z" style="fill:#263238"></path><path d="M170.13,138.67c.62-.57,1.53-1.4,2.17-1.95s1.34-1.06,2-1.58c0,0,0,0,0,0-.45.42-.91.85-1.37,1.26a7.56,7.56,0,0,0,.89-.47s0,0,0,0a4.64,4.64,0,0,1-1.11.62c-.11.09-.21.2-.33.29-.64.54-1.61,1.31-2.27,1.83C170.14,138.74,170.1,138.69,170.13,138.67Z" style="fill:#263238"></path><path d="M160,142.82a8.06,8.06,0,0,1,1.32.93,6,6,0,0,1,.57.56c.18.2.34.42.51.63,0,0,0,.07-.05,0-.18-.19-.39-.36-.58-.54l-.6-.53c-.39-.35-.81-.68-1.22-1C159.91,142.87,160,142.8,160,142.82Z" style="fill:#263238"></path><path d="M177.65,130c-.07.44.74,3.82,2.59,4.49.6.22,1.95-3,1.95-3l.16-.22,2.15-3L181.63,124l-.42-.57s-.54.87-1.2,2l-.09.15-.11.18-.3.49-.22.38-.23.4A26.18,26.18,0,0,0,177.65,130Z" style="fill:#f7a9a0"></path><path d="M180,125.43a7.45,7.45,0,0,0,2.34,5.82l2.15-3L181.63,124l-.42-.57S180.67,124.34,180,125.43Z" style="fill:#263238"></path><path d="M191.08,123.51c-.41,6.52-4.35,7-5.76,6.92s-5.61-.52-5.87-7,2.88-8.39,5.81-8.36S191.49,117,191.08,123.51Z" style="fill:#f7a9a0"></path><path d="M190.15,122.23a3.06,3.06,0,0,1-.43-.13.7.7,0,0,1-.42-.21.26.26,0,0,1,0-.29.58.58,0,0,1,.58-.08.9.9,0,0,1,.51.34A.25.25,0,0,1,190.15,122.23Z" style="fill:#263238"></path><path d="M186,122a3.44,3.44,0,0,0,.45,0,.74.74,0,0,0,.44-.14.24.24,0,0,0,0-.29.58.58,0,0,0-.56-.18.88.88,0,0,0-.55.25A.25.25,0,0,0,186,122Z" style="fill:#263238"></path><path d="M186.78,123.49s0,0,0,0c0,.45-.11,1-.52,1.08,0,0,0,0,0,0C186.73,124.58,186.84,123.91,186.78,123.49Z" style="fill:#263238"></path><path d="M186.42,123c-.71-.1-.86,1.33-.2,1.42S187,123.08,186.42,123Z" style="fill:#263238"></path><path d="M186.13,123.05c-.13.06-.27.19-.42.19s-.29-.16-.39-.31,0,0,0,0a.54.54,0,0,0,.33.64c.27.06.48-.16.58-.43C186.22,123.1,186.18,123,186.13,123.05Z" style="fill:#263238"></path><path d="M189.05,123.68s0,0,0,0c-.06.44-.06,1,.33,1.15,0,0,0,0,0,0C188.92,124.77,188.92,124.09,189.05,123.68Z" style="fill:#263238"></path><path d="M189.5,123.26c.71,0,.61,1.45-.05,1.43S188.9,123.24,189.5,123.26Z" style="fill:#263238"></path><path d="M189.79,123.37c.11.09.21.23.34.25s.29-.12.4-.27,0,0,0,0c0,.28-.12.55-.39.59s-.4-.22-.45-.49C189.7,123.41,189.74,123.34,189.79,123.37Z" style="fill:#263238"></path><path d="M186.36,127.16c.09.12.18.27.33.31a1.15,1.15,0,0,0,.49,0s0,0,0,0a.57.57,0,0,1-.59.16.46.46,0,0,1-.29-.44S186.35,127.14,186.36,127.16Z" style="fill:#263238"></path><path d="M188.35,125.72a9.12,9.12,0,0,1,0,1s-.08,0-.19,0h0a1.51,1.51,0,0,1-1.39-.69s0-.06,0,0a2.29,2.29,0,0,0,1.32.5c0-.08-.09-1.14,0-1.14a3,3,0,0,1,.69.22c0-1.39-.28-2.77-.29-4.16,0,0,.08-.06.09,0a23.47,23.47,0,0,1,.5,4.48C189.1,126.08,188.47,125.79,188.35,125.72Z" style="fill:#263238"></path><path d="M188.14,126.58a1.78,1.78,0,0,1-.73.55.77.77,0,0,1-.5,0c-.35-.1-.36-.43-.29-.71a2.12,2.12,0,0,1,.17-.43A2.29,2.29,0,0,0,188.14,126.58Z" style="fill:#263238"></path><path d="M187.41,127.13a.77.77,0,0,1-.5,0c-.35-.1-.36-.43-.29-.71A.85.85,0,0,1,187.41,127.13Z" style="fill:#ffa2be"></path><path d="M180,123.66c1.17.34,1.92-2.33,1.92-2.33s5.2,0,6.31-4.07a7.07,7.07,0,0,0,2.89,4.39s.57-4.54-2.87-6c0,0-4.18-2.35-7.26.76S179.19,123.43,180,123.66Z" style="fill:#263238"></path><path d="M188.27,117a4.45,4.45,0,0,1-.54,1.84,4.71,4.71,0,0,1-1.23,1.51,3.48,3.48,0,0,1-.39.28l-.21.14-.21.11-.44.22-.46.16-.23.07-.24,0-.47.1c-.32,0-.65,0-1,.06.31-.08.62-.12.93-.2l.45-.14.23-.06.21-.09.43-.19a3.23,3.23,0,0,0,.41-.22l.21-.11.19-.13c.12-.1.26-.17.37-.28a5.4,5.4,0,0,0,1.22-1.39,5,5,0,0,0,.43-.83A5.59,5.59,0,0,0,188.27,117Z" style="fill:#263238"></path><path d="M179.28,125.79a1,1,0,0,0,.29.12,1.22,1.22,0,0,0,.3.06.94.94,0,0,0,.39-.07,1.06,1.06,0,0,0,.28-.15,1.41,1.41,0,0,0,.3-.33l-.1-1.77s-1.11-2.23-2.1-1.86S178.27,125.23,179.28,125.79Z" style="fill:#f7a9a0"></path><path d="M178.84,122.66s0,0,0,0a2.78,2.78,0,0,1,1.17,1.94.62.62,0,0,0-.88-.3,0,0,0,0,0,0,0,.69.69,0,0,1,.71.35,3,3,0,0,1,.26.65c0,.07.15,0,.14,0v0C180.4,124.37,179.85,122.91,178.84,122.66Z" style="fill:#263238"></path><path d="M179.37,125.44a.3.3,0,0,0,.32.29.31.31,0,0,0,0-.61A.3.3,0,0,0,179.37,125.44Z" style="fill:#fff"></path><path d="M179.69,114.3c-1.6,0-2.86-.39-3.07-1.32-.35-1.47,2.26-2.9,5-3.55s5.73-.53,6.07.95-2.26,2.9-5,3.55A13.44,13.44,0,0,1,179.69,114.3Zm4.94-4.24a11.8,11.8,0,0,0-2.77.35c-2.83.66-4.38,1.9-4.27,2.34s2,.87,4.87.21,4.38-1.9,4.28-2.35C186.67,110.33,185.9,110.06,184.63,110.06Z" style="fill:#FFA52E"></path></g><g id="freepik--speech-bubble--inject-534"><path d="M364.58,148.7a9.72,9.72,0,1,1-10.52-8.85A9.7,9.7,0,0,1,364.58,148.7Z" style="fill:#fff"></path><path d="M364.58,148.7a10,10,0,0,1-8.82,10.76,10,10,0,1,1,8.82-10.76Zm0,0a9.46,9.46,0,0,0-10.49-8.6A9.47,9.47,0,0,0,355.72,159a9.46,9.46,0,0,0,8.86-10.27Z" style="fill:#263238"></path><path d="M343.54,166.6a5.41,5.41,0,1,1-5.85-4.92A5.41,5.41,0,0,1,343.54,166.6Z" style="fill:#fff"></path><path d="M343.54,166.6a5.66,5.66,0,0,1-4.9,6.1,5.66,5.66,0,1,1,4.9-6.1Zm0,0a5.14,5.14,0,0,0-5.83-4.67,5.17,5.17,0,0,0,.89,10.28,5.16,5.16,0,0,0,4.94-5.61Z" style="fill:#263238"></path><path d="M437.25,103.51a28.37,28.37,0,0,1-39.19,29.57,23.81,23.81,0,0,1-37.87-.08,18.49,18.49,0,0,1-3.18.66,19.3,19.3,0,0,1-18.13-30.25,28.37,28.37,0,0,1,38.2-41A23.81,23.81,0,0,1,418,68.85a15.2,15.2,0,0,1,3.05-.69,15.58,15.58,0,0,1,13.39,26A27.74,27.74,0,0,1,437.25,103.51Z" style="fill:#fff"></path><path d="M437.25,103.51a29.47,29.47,0,0,1-.08,7.39,30.06,30.06,0,0,1-.73,3.64c-.16.59-.39,1.17-.58,1.76a11.64,11.64,0,0,1-.66,1.73l-.76,1.69c-.28.55-.61,1.08-.91,1.62l-.46.8c-.16.27-.35.51-.53.77l-1.07,1.51-1.21,1.41-.6.7-.67.65-1.35,1.28-1.45,1.15a13.41,13.41,0,0,1-1.52,1.07c-.52.33-1,.68-1.57,1a29.39,29.39,0,0,1-3.35,1.6c-.58.22-1.15.46-1.73.66l-1.79.51c-.3.08-.6.17-.9.24l-.91.17-1.83.32a28.47,28.47,0,0,1-14.59-2l.17,0a24,24,0,0,1-29.75,7,24.71,24.71,0,0,1-8.5-7l.37.12a18.87,18.87,0,0,1-3,.66c-.5.07-1,.08-1.51.13l-.76,0-.76,0a18.14,18.14,0,0,1-6-1,19.67,19.67,0,0,1-9.66-7.09,20.63,20.63,0,0,1-2.76-5.41l-.41-1.47c-.15-.49-.19-1-.29-1.49a16.3,16.3,0,0,1-.28-3,19.74,19.74,0,0,1,3.56-11.48l0,.57a28.46,28.46,0,0,1-6.16-19,28.77,28.77,0,0,1,7.71-18.45,29.12,29.12,0,0,1,17.86-9,28.69,28.69,0,0,1,19.34,4.85l-.44.07a24,24,0,0,1,22.61-8.64,23.49,23.49,0,0,1,6,1.83,22.88,22.88,0,0,1,5.34,3.33,23.64,23.64,0,0,1,4.29,4.59,25.72,25.72,0,0,1,3,5.55l-.14-.07A15.6,15.6,0,0,1,423,68a15,15,0,0,1,5,.89,16.22,16.22,0,0,1,4.49,2.45A15.92,15.92,0,0,1,436,75.11a15.57,15.57,0,0,1-1.56,19v0A27.6,27.6,0,0,1,437.25,103.51Zm0,0a27.4,27.4,0,0,0-2.88-9.39h0a15.58,15.58,0,0,0-1.94-22.68A16,16,0,0,0,428,69a14.68,14.68,0,0,0-5-.85,15.17,15.17,0,0,0-5,.8l-.1,0,0-.1a25.55,25.55,0,0,0-3-5.46,23.77,23.77,0,0,0-4.29-4.5,22.07,22.07,0,0,0-5.29-3.23A22.51,22.51,0,0,0,399.36,54a23.46,23.46,0,0,0-22,8.61l-.19.24-.25-.17A27.94,27.94,0,0,0,358,58.08a28.28,28.28,0,0,0-17.28,8.76,28.09,28.09,0,0,0-1.48,36.28l.22.28-.2.29a18.75,18.75,0,0,0-3.44,10.93,15.61,15.61,0,0,0,.26,2.89,13.37,13.37,0,0,0,.27,1.43l.39,1.41a20.2,20.2,0,0,0,2.62,5.18,19,19,0,0,0,9.22,6.85,17.41,17.41,0,0,0,5.72,1l.73,0,.73-.05c.49,0,1,0,1.46-.11a18.79,18.79,0,0,0,2.87-.61l.22-.06.14.18a24,24,0,0,0,8.22,6.86A23.57,23.57,0,0,0,397.94,133l.07-.08.1,0A28.17,28.17,0,0,0,412.57,135l1.82-.31.91-.16c.3-.07.6-.16.89-.24l1.79-.49c.58-.2,1.15-.44,1.72-.66a30.89,30.89,0,0,0,3.34-1.58c.54-.31,1-.66,1.57-1a13.21,13.21,0,0,0,1.51-1.06l1.46-1.15,1.34-1.27.67-.64.61-.69,1.21-1.4,1.07-1.51c.18-.26.37-.5.53-.76l.47-.8c.3-.54.62-1.07.91-1.61l.77-1.69a12.86,12.86,0,0,0,.66-1.73c.19-.58.42-1.16.58-1.75a30.33,30.33,0,0,0,.74-3.63A29.47,29.47,0,0,0,437.25,103.51Z" style="fill:#263238"></path><path d="M400.56,102.74l-.9,4.3a3.23,3.23,0,0,1-3.92,2.56,3.31,3.31,0,0,1-2.57-3.91l1.44-6.89c0-.06.08,0,.09-.11s-.05-.08,0-.15A3.41,3.41,0,0,1,398.58,96a7.57,7.57,0,1,0,3.09-14.82,7.49,7.49,0,0,0-7.11,2.32,3.34,3.34,0,0,1-4.75.25,3.29,3.29,0,0,1-.2-4.67,14.21,14.21,0,1,1,10.95,23.69Zm-3,14.49-.25,1.19a3.25,3.25,0,0,1-3.92,2.57,3.33,3.33,0,0,1-2.57-3.92l.25-1.19a3.36,3.36,0,0,1,3.92-2.57A3.28,3.28,0,0,1,397.54,117.23Z" style="fill:#FFA52E"></path><path d="M366.14,94l-.54-4.36A3.22,3.22,0,0,1,368.48,86a3.31,3.31,0,0,1,3.69,2.88l.86,7c0,.06,0,.07,0,.14s.08.06.09.12a3.42,3.42,0,0,1-2.88,3.7,7.57,7.57,0,1,0,1.86,15,7.46,7.46,0,0,0,6-4.48,3.33,3.33,0,0,1,4.41-1.77,3.29,3.29,0,0,1,1.7,4.35,14.21,14.21,0,1,1-18-18.89Zm-1.82-14.69-.15-1.2a3.24,3.24,0,0,1,2.88-3.7,3.32,3.32,0,0,1,3.69,2.88l.15,1.21A3.35,3.35,0,0,1,368,82.19,3.26,3.26,0,0,1,364.32,79.31Z" style="fill:#FFA52E"></path></g></svg>