<svg xmlns="http://www.w3.org/2000/svg" viewBox="0 0 500 500"><g id="freepik--background-complete--inject-197"><path d="M414.32,314.22a100.51,100.51,0,0,1-10.32,2.6c2.95.38,5.91.76,8.86,1.18,1,.14,1.22,1.35.89,2.09-3.53,8.06-34.3,15-61.31,11.29-2-.28-3-2.36-1.57-3.25-.69-2.91-.45-6.53-.5-9.13a84,84,0,0,1,.91-13.44c1.32-9.17,4.31-18.33,9.69-25.94,1.87-2.65,8.56-10,9.71-2.77.73,4.59-.31,9.82-1.74,14.94a145.42,145.42,0,0,1,8.79-15.89c4.09-6.31,9.21-14.14,16.29-17.39,3-1.37,8-2.71,8.13,1.83.09,3.47-1.46,7.33-3.49,11.05,3.64-3.77,7.41-7.42,11.37-10.86,4.77-4.17,11.8-10.79,18.52-11,8.21-.27,2.6,7.62-3,13.81a132,132,0,0,1,15.31-7.49c3.38-1.36,12.39-4.85,15.24-.7s-4.52,8.87-7,10.87a189.57,189.57,0,0,1-15.65,11.36c7.78-1.89,17.9-3.19,15.27,3.51-1.66,4.24-9.06,8.07-12.64,10.44a124.09,124.09,0,0,1-13.94,8c7.16-.34,15.85.24,11.27,5.52C429,309.85,420.46,312.33,414.32,314.22Z" style="fill:#ebebeb"></path><path d="M422,305.43a.44.44,0,0,0-.23-.84c-14.55,2.37-28.41,3.82-43,2.56q5.44-4.59,11.06-9c16.84-2.27,33.85-6.21,48.42-15.28.36-.23.14-.9-.3-.73-14.85,5.75-29.6,11.43-45.36,13.9,1.22-.94,2.43-1.88,3.66-2.8,16.14-12,33.45-21.91,50.2-33a.34.34,0,0,0-.34-.58c-16.59,7-32.3,17.44-46.95,28.21,2.78-3.91,5.27-8.07,8.16-11.88a173.88,173.88,0,0,1,14.49-16.77c.55-.55-.29-1.39-.86-.85-9.59,9-20.93,20.15-26,32.62l-1.81,1.36q-9.63,7.25-18.78,15.07c4.78-14,9.53-27.81,18.48-39.84.32-.44-.43-1-.78-.59C381.71,279.32,375,294.3,370.89,309.8a1.3,1.3,0,0,0,0,.62q-6.48,5.65-12.71,11.61l-.23,0a1.4,1.4,0,0,0-.58,0A127.77,127.77,0,0,1,364,285.83c.21-.59-.78-1-1-.42-5.37,12.45-8.48,25.94-7.9,39.57q-3.69,3.58-7.3,7.25c-1.17,1.2.66,3,1.83,1.84,3.18-3.22,6.41-6.36,9.68-9.47,14,1.43,29.33,3.67,42.65-2,.42-.17.12-.78-.28-.7-13.64,2.8-26.6,2.56-40.19.62q7.2-6.76,14.71-13.19C391.26,311.26,407.63,310.64,422,305.43Z" style="fill:#dbdbdb"></path><path d="M91.19,158.37c13.16,25.48,33.28,12.08,33.28,12.08,5.27,12.87,11.3,25.47,22.51,34.23s25.07,14.9,37.69,21.6c1.8.95.17,3.67-1.63,2.71-1.36-.74-2.74-1.46-4.12-2.19-38.39-7.36-58.54,5.68-58.54,5.68-20.88-32-42.83-16.38-42.83-16.38-11.38-33.38-35.79-45.72-34.2-45.53C81.88,175.14,91.19,158.37,91.19,158.37Z" style="fill:#ebebeb"></path><path d="M90,169.9c1.34,6.52,3.54,14.21,7.9,19.8C89,185.32,80,181,70.84,177.15c-.58-.25-1,.71-.47,1,12.47,6.53,25,13.07,37.56,19.42-8.61-1.2-17.57,2-24.87,6.44-.23.15,0,.51.2.38,10-5,20.42-4.25,31.14-3.48a1,1,0,0,0,.18,0c5.93,2.94,11.87,5.85,17.86,8.68q5,2.35,10,4.61a39,39,0,0,0-18.05,7.34c-.21.16,0,.49.26.37,7.07-4,13.91-5.33,21.64-6,5.88,2.57,11.81,5,17.83,7.22,10.61,3.92,22.07,8.33,33.39,9.47,1.39.14,1.68-1.93.42-2.37-10.83-3.74-22.08-6.06-32.87-10-7.59-2.78-15.07-5.84-22.47-9.08-4.11-3.95-8.42-6.88-11.57-11.9-3.41-5.42-5.42-11.47-7.52-17.48a.19.19,0,0,0-.36.09c1.11,7.94,4.81,19,11.35,25.66l-1.23-.55c-9.72-4.48-19.3-9.28-28.9-14A38.79,38.79,0,0,1,97,184.4a65.56,65.56,0,0,1-6.13-14.7A.45.45,0,0,0,90,169.9Z" style="fill:#dbdbdb"></path><path d="M92.94,135.53c27.78,7.11,19.24,29.72,19.24,29.72,13.72,2.25,27.35,5.3,38.4,14.26s20.14,21.09,29.5,31.89c1.33,1.54,3.61-.66,2.27-2.19-1-1.16-2-2.35-3-3.53-15.78-35.76-7.59-58.32-7.59-58.32-35.9-13.17-25.56-38.07-25.56-38.07-35.09-3.61-52.59-24.63-52.05-23.13C107.2,122.69,92.94,135.53,92.94,135.53Z" style="fill:#ebebeb"></path><path d="M103.91,131.76c6.65-.16,14.64.26,21.07,3.26-6.27-7.71-12.46-15.49-18.3-23.54-.37-.51.46-1.17.88-.69,9.16,10.7,18.33,21.41,27.34,32.25-3.1-8.11-2-17.56.71-25.67a.22.22,0,0,1,.42.11c-2.63,10.86.43,20.85,3.59,31.13a1,1,0,0,1,0,.17q6.3,7.68,12.46,15.46,3.42,4.33,6.74,8.73A39.1,39.1,0,0,1,162,153.73c.1-.23.48-.07.41.17-2.28,7.79-2.07,14.75-1,22.45,3.82,5.15,7.53,10.38,11,15.75,6.19,9.46,13.06,19.64,16.71,30.41.45,1.33-1.51,2.08-2.22.94-6.07-9.71-10.85-20.15-17.13-29.78-4.41-6.77-9.07-13.38-13.88-19.86-4.77-3.12-8.6-6.66-14.19-8.61-6-2.11-12.39-2.71-18.72-3.41a.19.19,0,0,1,0-.37c8-.69,19.59.43,27.55,5.3l-.81-1.07c-6.55-8.47-13.37-16.73-20.16-25a38.88,38.88,0,0,0-10-5.29,65.76,65.76,0,0,0-15.7-2.68A.45.45,0,0,1,103.91,131.76Z" style="fill:#dbdbdb"></path><path d="M357,386.41a100.67,100.67,0,0,1-8.53-6.38c1.57,2.53,3.14,5.07,4.67,7.62.53.88-.28,1.8-1.06,2-8.49,2.34-33.29-17.16-47.4-40.49-1.06-1.74,0-3.8,1.53-3.26,1.83-2.37,4.79-4.47,6.78-6.15A84.88,84.88,0,0,1,324,332c7.95-4.75,16.95-8.2,26.25-8.82,3.23-.22,13.17.33,8.26,5.79-3.1,3.46-7.82,5.94-12.69,8.06a146.3,146.3,0,0,1,17.87-3.18c7.48-.8,16.79-1.76,23.77,1.69,2.95,1.46,7.15,4.51,3.71,7.46-2.64,2.26-6.62,3.49-10.79,4.26,5.22.45,10.43,1.08,15.61,2,6.23,1.08,15.81,2.36,20.21,7.45,5.38,6.2-4.28,6.81-12.63,6.34A131.68,131.68,0,0,1,419,370.21c3.19,1.76,11.58,6.55,10.15,11.38s-9.74,2.08-12.84,1.44a192.09,192.09,0,0,1-18.69-5c6.38,4.85,13.76,11.89,6.9,14.07-4.34,1.38-12-2-16.07-3.23a123.92,123.92,0,0,1-15-5.81c4.78,5.35,9.8,12.46,2.82,12.23C369.64,395.08,362.3,390,357,386.41Z" style="fill:#ebebeb"></path><path d="M368.63,386.84a.44.44,0,0,0,.52-.71c-11-9.81-20.88-19.65-29.11-31.8q7,1.34,13.94,2.94c12.37,11.65,26.14,22.37,42.37,28,.41.14.79-.45.38-.68-13.82-7.92-27.53-15.79-39.38-26.47,1.5.35,3,.7,4.48,1.08,19.53,4.94,38.1,12.17,57.26,18.18a.34.34,0,0,0,.25-.64c-15.93-8.44-33.9-14.09-51.49-18.67,4.78-.31,9.58-1,14.36-1.16a174.24,174.24,0,0,1,22.15.69.6.6,0,0,0,.12-1.2c-13-1.79-28.83-3.55-41.71.37l-2.19-.55q-11.7-2.9-23.54-5.08c13.87-5.1,27.6-10.13,42.58-10.76.55,0,.52-1,0-1-16.07-.27-31.94,3.95-46.55,10.54a1.16,1.16,0,0,0-.49.39q-8.49-1.47-17-2.55l-.12-.21a1.51,1.51,0,0,0-.38-.44,127.52,127.52,0,0,1,32.29-17.62c.59-.21.29-1.25-.33-1.07-13.05,3.67-25.49,9.75-35.7,18.8-3.41-.41-6.82-.79-10.24-1.11a1.3,1.3,0,0,0-.26,2.59c4.49.44,9,1,13.44,1.54,7.74,11.8,15.64,25.09,28.43,31.87.4.21.68-.41.37-.67-10.77-8.83-18.75-19-25.81-30.81,6.53.89,13,1.91,19.51,3.1C344.73,366.63,355.53,379,368.63,386.84Z" style="fill:#dbdbdb"></path></g><g id="freepik--Plants--inject-197"><path d="M293.72,433.4a159.89,159.89,0,0,0,16.86,2.7c2.14.24,4.3.32,6.45.4-2.5-1.8-5-3.64-7.36-5.45a.86.86,0,0,1-.46.14c-10.88-.25-23-6.65-31.14-13.53-.51-.43.15-1.34.71-1a67,67,0,0,0,16.59,8c3.21,1.1,6.63,1.82,9.87,2.92q-7.71-6.09-14.87-12.84a1.27,1.27,0,0,1-.91.22c-9.62-1.28-18.25-8.46-25.37-14.59-.58-.5.25-1.3.83-.84,6.59,5.28,14,7.8,21.35,11.21-1.65-1.66-3.29-3.33-4.88-5q-3.57-3.83-6.88-7.81c-10.46-3.48-19.83-12.62-26.67-20.81-.72-.86.4-2.06,1.25-1.26A144,144,0,0,0,264,388c1.73,1.23,3.54,2.34,5.35,3.45q-4.39-5.72-8.39-11.68c-8.91-4.56-16.87-15.21-21.32-23.75-.31-.61.52-1.36,1-.78,3.58,4.19,7,8.47,10.84,12.42,1.32,1.34,2.75,2.6,4.2,3.85A267.12,267.12,0,0,1,242,345.89c-.58-1.22,1.22-2.29,1.83-1.06a217.23,217.23,0,0,0,14.49,24.89c-.28-1.67-.54-3.35-1-5a55.26,55.26,0,0,0-3.68-10.92c-.37-.73.72-1.38,1.11-.64,3.39,6.36,7.77,13.94,7.18,21.46a1.25,1.25,0,0,1-.07.26c3.24,4.55,6.64,9,10.15,13.32-.28-2-.52-3.92-.92-5.8-1-4.86-2.23-10-4.49-14.45-.43-.85.82-1.59,1.29-.75,4.24,7.55,8.35,17.13,8.38,26.12q4.38,5.13,9,10c.71.75,1.43,1.5,2.15,2.24-.26-1.94-.48-3.9-.91-5.79a59.06,59.06,0,0,0-4-12.24c-.39-.82.78-1.53,1.24-.72,3.7,6.67,8,15,7.71,22.87q6.07,6.06,12.53,11.71c-1.79-7-3.34-13.62-7.73-19.88-.57-.81.77-1.59,1.34-.78,4.82,6.88,10.08,15.38,10.39,24.09,1,.82,2,1.66,3,2.46,3.16,2.57,6.45,4.95,9.78,7.26-3-7.38-5.59-14.71-10.46-21.44-.53-.74.71-1.72,1.28-1,5.65,7.17,11.75,15.79,13.44,25.06a.94.94,0,0,1,.52.65c4.68,3.18,9.38,6.32,13.89,9.75.84.64-.22,1.69-1,1.36a93.22,93.22,0,0,1-16.56-9.14c-9.33,1.22-19.75-2.62-28.54-4.62C292.09,434.94,292.55,433.14,293.72,433.4Z" style="fill:#455a64"></path><path d="M308.37,403.18c-.47-.8.68-1.65,1.19-.85,4.55,7.22,10.27,13,16.35,18.75q-1.76-7.26-4-14.39c-8.16-4.85-14.12-14.9-19.14-22.42a.41.41,0,0,1,.67-.48,125.49,125.49,0,0,0,11.11,12.73c1.83,1.9,3.92,3.68,5.85,5.57-1.48-4.38-3.09-8.75-4.85-13.08l-.08,0c-6.16-4.49-10.25-11.08-14-17.53-.35-.61.5-1.24.89-.64,3.06,4.59,6.89,8.46,10.71,12.35a185.62,185.62,0,0,0-8.69-17.33c-.45-.79.7-1.61,1.16-.82,3.07,5.27,6,10.57,8.62,16-.89-5.19-1.61-10.36-4.24-15.18-.24-.45.38-.91.65-.47a43.21,43.21,0,0,1,6.71,21.73,1,1,0,0,1-.07.36.61.61,0,0,0,.05.12,1.06,1.06,0,0,1,.17.38c1.87,4.19,3.61,8.45,5.18,12.81.22-7.89,1-15.39-1.73-23.39a.57.57,0,0,1,1.08-.39c3.38,8.87,4.91,20,2.53,29.34q2.47,7.62,4.32,15.44c.42-3.09,1.25-6.16,1.66-9.24a46,46,0,0,0-.11-15c-.13-.65,1-.9,1.15-.25,2.34,8.66,2.39,19.58-1,28a1.18,1.18,0,0,1-.11.19,1,1,0,0,1-.44,1.12c1.24,5.4,2.54,11.08,2.24,16.53,0,.87-1.4.9-1.65.14-1.9-5.74-2.46-12-3.65-18C319.1,419.53,313.14,411.36,308.37,403.18Z" style="fill:#455a64"></path><path d="M84.22,386.6a301.93,301.93,0,0,0,33.94,18.92A297.25,297.25,0,0,0,154,420.23c6.14,2,12.34,3.76,18.6,5.24,3.13.72,6.25,1.46,9.41,2.06s6.29,1.21,9.45,1.81c6.32,1.09,12.69,1.85,19.1,2.37s12.86.52,19.37.32l.06.43a105.34,105.34,0,0,1-19.51,2.3,142.38,142.38,0,0,1-19.68-1.13,152.37,152.37,0,0,1-19.28-4q-9.45-2.73-18.66-6.12a300.78,300.78,0,0,1-35.69-16.05A303.87,303.87,0,0,1,84,387Z" style="fill:#37474f"></path><path d="M189.57,433.39s-9.53,3.19-18,15.87c-5.41,8.09-15.41,13.52-19.27,8.09C146.36,449.05,169.47,433.91,189.57,433.39Z" style="fill:#37474f"></path><path d="M149.86,422.81S137.2,424,123,437.08c-9,8.37-22.91,12.14-26.08,4.33C92.11,429.46,125,417.59,149.86,422.81Z" style="fill:#37474f"></path><path d="M95.77,394.66s-10.44-.91-22.16-11.7c-7.47-6.88-18.94-9.95-21.54-3.5C48.11,389.33,75.26,399,95.77,394.66Z" style="fill:#37474f"></path><path d="M93,392.82s-5.83-5.21-8-16.9c-1.37-7.45-6.85-14.41-11.28-11.72C67,368.31,78.8,386.26,93,392.82Z" style="fill:#37474f"></path><path d="M196.82,430.49s-7.34-6.86-9.81-21.93c-1.57-9.6-8.41-18.69-14.18-15.35C164,398.31,178.75,421.67,196.82,430.49Z" style="fill:#37474f"></path><path d="M169,424.37s-8.64-8.06-11.54-25.77c-1.85-11.29-9.89-22-16.67-18.05C130.43,386.55,147.77,414,169,424.37Z" style="fill:#37474f"></path><path d="M122.12,407.55s-6.81-7.5-8.05-22.85c-.78-9.78-6.9-19.49-13-16.61C91.8,372.49,104.69,397.19,122.12,407.55Z" style="fill:#37474f"></path><path d="M167.44,428.11a44.07,44.07,0,0,0-8.05,1.1,71.84,71.84,0,0,0-7.78,2.2c-1.27.44-2.54.89-3.79,1.42s-2.49,1-3.74,1.56-2.46,1.14-3.71,1.7-2.43,1.22-3.69,1.77c1.09-.83,2.22-1.61,3.35-2.39s2.33-1.47,3.55-2.09a51.94,51.94,0,0,1,7.56-3.33,44.57,44.57,0,0,1,8.05-1.95A26.24,26.24,0,0,1,167.44,428.11Z" style="fill:#37474f"></path><path d="M128,386.84a87.2,87.2,0,0,0,3.29,8.74,90.64,90.64,0,0,0,4.15,8.31,87.87,87.87,0,0,0,4.95,7.86c1.74,2.57,3.74,4.95,5.69,7.41-1.17-1-2.35-2.07-3.45-3.2s-2.15-2.3-3.13-3.54a53.32,53.32,0,0,1-5.32-7.82,54.26,54.26,0,0,1-3.91-8.61c-.53-1.49-1-3-1.41-4.51A38.64,38.64,0,0,1,128,386.84Z" style="fill:#37474f"></path><path d="M114.69,405a49.41,49.41,0,0,1-13.56,4.46,50,50,0,0,1-7.12.8,36.37,36.37,0,0,1-7.15-.37c2.38-.23,4.72-.43,7.06-.75s4.65-.65,7-1.1C105.49,407.17,110.06,406.09,114.69,405Z" style="fill:#37474f"></path><path d="M129.32,436.18a6.5,6.5,0,1,1-2.5,8.85A6.51,6.51,0,0,1,129.32,436.18Z" style="fill:#FFA52E"></path><path d="M124.68,377.79a5.14,5.14,0,1,1-2,7A5.14,5.14,0,0,1,124.68,377.79Z" style="fill:#FFA52E"></path><path d="M79.7,405.66a5.14,5.14,0,1,1-2,7A5.13,5.13,0,0,1,79.7,405.66Z" style="fill:#FFA52E"></path></g><g id="freepik--Orange--inject-197"><path d="M374.06,327,357.69,456.75a117.38,117.38,0,0,0,34.42,2.12c14.9-1.34,25.76-3.13,32-7.94,3.71-2.85,14.2-14.2,17.57-16.37s13.72-4.49,14.93-10.07-7.71-12.55-8.67-16.4-8.42-47.18-26-61.38S381.52,328.66,374.06,327Z" style="fill:#FFA52E"></path><g style="mix-blend-mode:multiply;opacity:0.1"><path d="M426.58,377.66a1.79,1.79,0,1,0,1.78-1.78A1.79,1.79,0,0,0,426.58,377.66Z"></path><path d="M398.91,367.89a1.79,1.79,0,1,0,1.78-1.79A1.78,1.78,0,0,0,398.91,367.89Z"></path><path d="M381.85,447.53a1.79,1.79,0,1,0-.32-2.5A1.77,1.77,0,0,0,381.85,447.53Z"></path><path d="M450.79,421.4a1.79,1.79,0,1,0,1.78-1.79A1.79,1.79,0,0,0,450.79,421.4Z"></path><path d="M423.81,396.13a2.42,2.42,0,1,0,2.42-2.42A2.42,2.42,0,0,0,423.81,396.13Z"></path><path d="M390.85,453.83a2.42,2.42,0,1,0-.44-3.4A2.43,2.43,0,0,0,390.85,453.83Z"></path><path d="M420.22,391.51a1,1,0,1,0,1-1.05A1,1,0,0,0,420.22,391.51Z"></path><path d="M429.25,419.84a1,1,0,1,0,1.05-1A1,1,0,0,0,429.25,419.84Z"></path><path d="M372.92,397.81a1.05,1.05,0,1,0,1.05-1.05A1,1,0,0,0,372.92,397.81Z"></path><path d="M401.43,341.92a1.05,1.05,0,1,0,1.05-1.05A1,1,0,0,0,401.43,341.92Z"></path><path d="M429.1,437.12a1,1,0,1,0,1-1.05A1,1,0,0,0,429.1,437.12Z"></path></g><path d="M456.62,424.5c-1.21,5.57-11.56,7.9-14.93,10.06s-13.86,13.52-17.57,16.37c-6.25,4.81-17.12,6.6-32,7.94a117.38,117.38,0,0,1-34.42-2.12l3.53-28c11.93,3.93,46.36,14.86,56.11,13,11.85-2.31,18-10.7,21.92-12.11s13.53-2,15.1-4.25,1.11-6.66-1.34-9.8C455.24,418.49,457.22,421.67,456.62,424.5Z" style="opacity:0.1"></path><path d="M374.06,327C388.72,328.42,415,349.84,415,392.2c0,36.35-27.68,67.88-60.42,64.26s-43.08-35.38-39.95-70.28S339.88,323.61,374.06,327Z" style="fill:#FFA52E"></path><path d="M374.06,327C388.72,328.42,415,349.84,415,392.2c0,36.35-27.68,67.88-60.42,64.26s-43.08-35.38-39.95-70.28S339.88,323.61,374.06,327Z" style="fill:#fff;opacity:0.5"></path><g style="opacity:0.5"><path d="M361.43,400.88c-3.27,1.66-.57,19.93-.38,26s-1.41,24.64,3.67,24.73,16-8.09,19.18-10.72,8.18-8,8-12.41S368.29,397.4,361.43,400.88Z" style="fill:#FFA52E"></path><path d="M365.66,392.61c-.55,4.28,10,10.43,13.54,12.5s12.88,8.93,17.95,6.21,7.53-12.44,7.62-21.88-.75-19.58-5.92-19.21-12.23,7.62-16.08,9.5S366.22,388.19,365.66,392.61Z" style="fill:#FFA52E"></path><path d="M362.27,385.93c2.67,1.57,9.69-5.26,12-7.71s22-13.35,22.75-19.93-17-23.5-22.66-21-7.52,18.52-8.08,22.56S358.61,383.77,362.27,385.93Z" style="fill:#FFA52E"></path><path d="M355.22,384.71c2.64-.43,5.44-15.7,6-22.28s5.84-19.28,3.3-23.69-9.55-4.15-17.73-.39-10.38,10.07-9.44,12.42,6.67,11.28,7.33,14.48S351.74,385.27,355.22,384.71Z" style="fill:#FFA52E"></path><path d="M350.05,390c.87-2-5.36-15.52-7.8-19.28s-8.28-17.47-11.76-16.53-7.39,13-8.24,17.51-2.45,12.08-1.08,14.48c.94,1.65,12.71,2.78,15.06,3.82S349,392.33,350.05,390Z" style="fill:#FFA52E"></path><path d="M353.6,402.43c-4.05-.71-11,16.31-12.57,18.57s-10.25,8.65-10.53,14.1,7.58,8,10.24,10.34c2.42,2.12,10.22,6.4,12.38,3.2s1.26-22.37,1.44-24.91S357.69,403.15,353.6,402.43Z" style="fill:#FFA52E"></path><path d="M349,397.21c.68,3-5.08,9.78-7.24,12.7S329,429.44,324.6,426s-7.26-24.8-4.25-28.46S348.36,394.3,349,397.21Z" style="fill:#FFA52E"></path></g><path d="M404.78,339.24s13.88,6.27,21.45,14.89,13.65,34.39,13.65,34.39S426,358.53,422.51,355,404.78,339.24,404.78,339.24Z" style="fill:#fff;opacity:0.5"></path></g><g id="freepik--Cinnamon--inject-197"><path d="M230.34,459.08S443.18,448.7,444.85,449s1.56-11.44,1.56-11.44,5.73-6-2.68-25.13L225.17,434.38c-5.73,7.95,2.53,17.55,2.53,17.55C228.66,454.14,228.29,457.51,230.34,459.08Z" style="fill:#FFA52E"></path><path d="M230.34,459.08S443.18,448.7,444.85,449s1.56-11.44,1.56-11.44,5.73-6-2.68-25.13L225.17,434.38c-5.73,7.95,2.53,17.55,2.53,17.55C228.66,454.14,228.29,457.51,230.34,459.08Z" style="opacity:0.6000000000000001"></path><path d="M227.7,451.93a15.45,15.45,0,0,1,.81,3.25L446,445.86a75.67,75.67,0,0,0,.38-8.28Z" style="opacity:0.2"></path><path d="M439.36,434.2s-212.79-11.28-214.42-11.75-2.71,11.22-2.71,11.22-6.31,5.35.11,25.28L442,459.3c6.5-7.32-.74-17.72-.74-17.72C440.53,439.29,441.24,436,439.36,434.2Z" style="fill:#FFA52E"></path><path d="M439.36,434.2s-212.79-11.28-214.42-11.75-2.71,11.22-2.71,11.22-6.31,5.35.11,25.28L442,459.3c6.5-7.32-.74-17.72-.74-17.72C440.53,439.29,441.24,436,439.36,434.2Z" style="opacity:0.5"></path><path d="M441.27,441.58a14.74,14.74,0,0,1-.48-3.31L223.45,425.46a77.59,77.59,0,0,0-1.23,8.2Z" style="opacity:0.2"></path><path d="M336.33,459.3h6.44s-6.49-20.33-6.21-23.15,5.58-12.85,5.58-12.85l-6.15-.87s-5.31,8.29-6,13.72S336.33,459.3,336.33,459.3Z" style="fill:#455a64"></path><path d="M330.19,459.3h1.93s-4.06-19.05-3.22-23.15c.57-2.77,5.58-12.85,5.58-12.85l-1.63-.87s-5.32,8.29-6,13.72S330.19,459.3,330.19,459.3Z" style="fill:#455a64"></path><path d="M337.92,426.85c.67-.83-18.71-20.8-25.22-19.22s-7.92,16.57-2,21.82C316,434,336,429.25,337.92,426.85Z" style="fill:#455a64"></path><path d="M336.39,427.29c.75-.23-23.77-8.43-26.94-1.84C308.41,427.62,311.76,434.72,336.39,427.29Z" style="fill:#37474f"></path><path d="M336.15,426.82c-.85-.67,13.6-24.45,20.3-24.36s11.41,14.39,6.76,20.83C359.15,428.93,338.58,428.72,336.15,426.82Z" style="fill:#455a64"></path><path d="M337.74,426.9c-.79,0,21.29-13.51,25.84-7.8C365.09,421,363.39,428.65,337.74,426.9Z" style="fill:#37474f"></path><path d="M335.36,425.91c-3.19-4.71-8.94-7.13-14.44-7.88-.21,0-.32.3-.1.37,5.33,1.69,10.28,3.57,14.16,7.81A.24.24,0,0,0,335.36,425.91Z" style="fill:#37474f"></path><path d="M351.22,412.3a24.56,24.56,0,0,0-7.84,5.73c-2.09,2.12-4.29,4.66-5.32,7.5a.17.17,0,0,0,.29.17c2-2.49,3.67-5.15,6-7.4a69.53,69.53,0,0,1,7.18-5.49A.3.3,0,0,0,351.22,412.3Z" style="fill:#37474f"></path><path d="M340.5,426.31a4.14,4.14,0,0,1-2.75,3,3.41,3.41,0,0,1-4-.74,6.86,6.86,0,0,1-1.88-4.19c-1-2.69,2-4.72,4.69-4.59A4.72,4.72,0,0,1,340.5,422C341.34,423.41,340.92,424.82,340.5,426.31Z" style="fill:#455a64"></path><path d="M223.47,435.72A23.23,23.23,0,0,1,226.19,448c-.48,6.83-2.72,9.51-2.72,9.51s-2.28-8.91-2.28-13.17A21.52,21.52,0,0,1,223.47,435.72Z" style="opacity:0.5"></path></g><g id="freepik--Table--inject-197"><polygon points="51.69 459.06 101.26 458.82 150.84 458.73 250 458.56 349.16 458.73 398.74 458.82 448.31 459.06 398.74 459.31 349.16 459.39 250 459.56 150.84 459.39 101.26 459.3 51.69 459.06" style="fill:#263238"></polygon></g><g id="freepik--Glass--inject-197"><path d="M291.34,72.29a62,62,0,1,1-56.69,110.38l2.22-4.34,24.74-48.18.09-.12,1.17-2.31,0,0,.11-.22,0,0,.1-.19,0-.08,1.86-3.62,24.08-46.89Z" style="fill:#FFA52E"></path><path d="M289.11,76.62a57.17,57.17,0,1,1-52.24,101.71l24.74-48.18.09-.12,1.17-2.31,0,0,.11-.22,0,0,.1-.19,0-.08,1.86-3.62Z" style="fill:#fff;opacity:0.5"></path><path d="M262.87,127.72a1.18,1.18,0,0,0,.37-.15h0v0c-.12.15-.68,1-1.57,2.43Z" style="fill:#f6ca80"></path><path d="M244.83,172.11c.75-3.81,18.43-44.54,18.43-44.54S273,171,273,174.93s-7.83,6-14.76,5.28S244.09,175.92,244.83,172.11Z" style="fill:#FFA52E"></path><path d="M281.76,172.26c-2.17-3.23-18.5-44.69-18.5-44.69s37.57,24,40.33,26.74-1.29,9.78-6.66,14.2S283.93,175.5,281.76,172.26Z" style="fill:#FFA52E"></path><path d="M307.85,146.24c-3.82-.76-44.59-18.67-44.59-18.67S306.64,118,310.52,118s6,7.86,5.35,14.81S311.66,147,307.85,146.24Z" style="fill:#FFA52E"></path><path d="M307.82,109.28c-3.22,2.16-44.56,18.29-44.56,18.29S287,90.08,289.77,87.34s9.78,1.34,14.22,6.74S311,107.13,307.82,109.28Z" style="fill:#FFA52E"></path><path d="M265,123.51c-1,2.31-1.65,3.81-1.76,4,0,0,0,0,0,0s0-.21-.09-.4Z" style="fill:#f6ca80"></path><path d="M263.13,127.21a2.3,2.3,0,0,0,.13.32s0,0,0,0v0h0v0a1.63,1.63,0,0,1-.2-.15Z" style="fill:#f6ca80"></path><path d="M263,127.45l.22.1v0c-.06,0-.18,0-.34.1Z" style="fill:#f6ca80"></path><path d="M295.9,312.16a62,62,0,1,1-91-84.3l3.58,3.3L248.18,268l.09.11,1.91,1.75,0,0,.18.17,0,0,.15.15.07.06,3,2.76,38.68,35.81Z" style="fill:#FFA52E"></path><path d="M292.34,308.84a57.17,57.17,0,1,1-83.9-77.68L248.18,268l.09.11,1.91,1.75,0,0,.18.17,0,0,.15.15.07.06,3,2.76Z" style="fill:#fff;opacity:0.5"></path><path d="M250.18,269.82a1.26,1.26,0,0,0,0,.4v0h0c-.11-.16-.81-.94-1.92-2.17Z" style="fill:#f6ca80"></path><path d="M212.29,240.5c3.47,1.75,37.93,29.74,37.93,29.74s-44.49-2.31-48.24-3.34-3.64-9.14-1.11-15.64S208.82,238.76,212.29,240.5Z" style="fill:#FFA52E"></path><path d="M202.2,276c3.7-1.21,48-5.78,48-5.78S217,300,213.61,301.88s-9.07-3.87-11.88-10.24S198.5,277.24,202.2,276Z" style="fill:#FFA52E"></path><path d="M220.24,308.15c1.76-3.46,30-37.91,30-37.91s-2.48,44.34-3.53,48.08S237.5,322,231,319.49,218.48,311.62,220.24,308.15Z" style="fill:#FFA52E"></path><path d="M255.85,318.07c-1.21-3.68-5.63-47.83-5.63-47.83s29.71,33,31.62,36.36-3.93,9.06-10.32,11.88S257.06,321.75,255.85,318.07Z" style="fill:#FFA52E"></path><path d="M253.66,273c-1.95-1.59-3.23-2.61-3.42-2.77,0,0,0,0,0,0s.21,0,.41,0Z" style="fill:#f6ca80"></path><path d="M250.6,270.21a1.44,1.44,0,0,0-.34,0s0,0,0,0h0v0h0a1.21,1.21,0,0,1,.2-.15Z" style="fill:#f6ca80"></path><path d="M250.41,270l-.16.18h0c0-.06,0-.18,0-.36Z" style="fill:#f6ca80"></path><path d="M214.79,347.79S173,60.4,172.33,58.3s9.31-6.55,9.31-6.55,3.7-10,21.94-6.24L236.94,345c-5.37,10.73-15.47,3.49-15.47,3.49C219.37,348.1,216.6,349.9,214.79,347.79Z" style="fill:#FFA52E"></path><path d="M214.79,347.79S173,60.4,172.33,58.3s9.31-6.55,9.31-6.55,3.7-10,21.94-6.24L236.94,345c-5.37,10.73-15.47,3.49-15.47,3.49C219.37,348.1,216.6,349.9,214.79,347.79Z" style="opacity:0.5"></path><path d="M221.47,348.52a8.78,8.78,0,0,0-2.94.19L174.71,55.5a52.82,52.82,0,0,1,6.93-3.75Z" style="opacity:0.2"></path><g style="opacity:0.5"><path d="M365.06,65.59V77.78c0,8.28-15,16.69-21.22,31.18S331.49,324.74,327,341.31s-20.61,29.33-31.65,29.33H201.49c-11,0-27.16-12.77-31.65-29.33S159.21,123.46,153,109s-21.22-22.9-21.22-31.18V65.59Z" style="fill:#dbdbdb"></path><path d="M337.33,177.84c3.45,0,4.66-3.12,5.17-4.68s1.73-9,10.53-11.73,27.6-4.83,33.47,12.94,7.59,61.25-12.25,69.88-30.19-4.31-32.09-9-4.55-7.39-7.62-7.06c0,0-1.68,31.91-1.71,32.43s3.29-.36,5-1.56,2.24-1.41,15.35,1.71,26.05,4.33,41.41-12.58,20.81-67.64,1.38-91.45c-13.8-16.91-36.06-8.11-39.51-7.93s-12-2.13-14.32-2.45-2.83.9-2.83.9Z" style="fill:#c7c7c7"></path></g><path d="M334.91,459.06h-173s5.8-7.54,14-9.39c16.17-3.64,29.13-8.13,38.34-14.9,1.29-.94,3.93-12.83,3.93-12.83V414a14.62,14.62,0,0,1,0-23.6V370.64h60.39v19.77a14.62,14.62,0,0,1,0,23.6l.12,8s2.69,11.82,4,12.77c9.49,6.94,23.64,11.66,39.64,15.23C329.81,451.64,334.91,459.06,334.91,459.06Z" style="fill:#dbdbdb;opacity:0.5"></path><path d="M184.68,454.2q15.93-.58,31.87-.78c10.62-.16,21.24-.2,31.86-.22s21.25.06,31.87.22,21.25.39,31.87.78q-15.93.58-31.87.78c-10.62.16-21.24.2-31.87.22s-21.24-.06-31.86-.22S195.3,454.59,184.68,454.2Z" style="fill:#fff"></path><path d="M221,414c4.57-.41,9.13-.63,13.69-.77s9.13-.21,13.69-.23,9.13.06,13.69.22,9.13.37,13.69.78c-4.56.42-9.13.64-13.69.78s-9.13.2-13.69.22-9.12-.06-13.69-.22S225.61,414.43,221,414Z" style="fill:#c7c7c7"></path><path d="M221,390.11c4.57-.42,9.13-.63,13.69-.78s9.13-.2,13.69-.22,9.13.06,13.69.22,9.13.36,13.69.78c-4.56.41-9.13.63-13.69.78s-9.13.2-13.69.22-9.12-.07-13.69-.23S225.61,390.52,221,390.11Z" style="fill:#c7c7c7"></path><polygon points="218.22 370.64 218.22 378.65 278.61 375.96 278.61 370.64 218.22 370.64" style="fill:#c7c7c7"></polygon><g style="opacity:0.5"><path d="M331.81,134.15c-5.1,31.61-10.07,187.29-13.77,201-4,14.67-18.26,26-28,26H206.85c-9.79,0-24.07-11.31-28-26-3.7-13.68-8.67-169.36-13.78-201Z" style="fill:#FFA52E"></path><path d="M331.81,134.15c-5.1,31.61-10.07,187.29-13.77,201-4,14.67-18.26,26-28,26H206.85c-9.79,0-24.07-11.31-28-26-3.7-13.68-8.67-169.36-13.78-201Z" style="opacity:0.1"></path><g style="opacity:0.1"><path d="M278.87,210.56a3.29,3.29,0,1,0,3.28-3.28A3.28,3.28,0,0,0,278.87,210.56Z"></path><path d="M228,192.58a3.29,3.29,0,1,0,3.29-3.29A3.28,3.28,0,0,0,228,192.58Z"></path><path d="M196.6,339.08a3.29,3.29,0,1,0-.6-4.61A3.27,3.27,0,0,0,196.6,339.08Z"></path><path d="M188,159.41a3.29,3.29,0,1,0,3.29-3.28A3.29,3.29,0,0,0,188,159.41Z"></path><path d="M273.77,244.53a4.46,4.46,0,1,0,4.46-4.45A4.46,4.46,0,0,0,273.77,244.53Z"></path><path d="M213.15,350.66a4.45,4.45,0,1,0-.81-6.24A4.46,4.46,0,0,0,213.15,350.66Z"></path><path d="M267.16,236a1.93,1.93,0,1,0,1.93-1.93A1.94,1.94,0,0,0,267.16,236Z"></path><circle cx="285.71" cy="288.14" r="1.93"></circle><path d="M312.82,197.79a1.93,1.93,0,1,0,1.92-1.93A1.92,1.92,0,0,0,312.82,197.79Z"></path><path d="M180.17,247.62a1.93,1.93,0,1,0,1.93-1.93A1.92,1.92,0,0,0,180.17,247.62Z"></path><path d="M293.45,164.63a1.93,1.93,0,1,0,1.93-1.93A1.93,1.93,0,0,0,293.45,164.63Z"></path><path d="M204.62,146.75a1.93,1.93,0,1,0,1.93-1.93A1.92,1.92,0,0,0,204.62,146.75Z"></path><path d="M290.16,327.41a1.93,1.93,0,1,0,1.93-1.93A1.93,1.93,0,0,0,290.16,327.41Z"></path></g></g><g style="opacity:0.5"><path d="M148.19,73.83v6.46c0,2.51,18.54,20.8,21.29,27.62S181.89,316.6,184.4,327.72s3.62,17.54,14,24.7L188.74,73.83Z" style="fill:#fff"></path><path d="M322.54,175.62s-7.9,143.9-9,151.08-2.72,16.84-10.19,23L313,175.62Z" style="fill:#fff"></path><polygon points="335.17 102.83 231.26 102.83 329.82 107.71 335.17 102.83" style="fill:#fff"></polygon><polygon points="359.43 68.96 214.9 68.96 359.43 75.3 359.43 68.96" style="fill:#fff"></polygon></g><path d="M324,46.08s-7.18-2.52-9.79-1.72-4.59,1.12-6.65,2.46a63.25,63.25,0,0,0,4.56,5.47,62.62,62.62,0,0,0,5.88,4.3A22.9,22.9,0,0,0,311,58.66c-3.08,1.62-6.76,7.06-6.76,7.06a56.57,56.57,0,0,0,8.81,2.3c3.36.41,13.3-1.16,13.3-1.16s-3.2,7.87-2.94,11.32S329,90.53,329.9,91.64c0,0,4.41-7.47,5.59-10.67s1-11.88,1-11.88,1.58,7.66,3.71,11.11,8.51,8.74,8.51,8.74,1.09-8.07.71-10.16-5.85-9.38-5.85-9.38a82.48,82.48,0,0,0,7.94,4.33c3.44,1.53,15.5,2.17,15.5,2.17s-2.52-7-4.43-9.35-7.27-5.38-7.27-5.38,10.34-2.5,13.51-6.79c0,0-7.92-4.38-11.28-5.66S345,50.29,345,50.29s2.57-6,2.65-8.9-1.83-10.75-1.83-10.75a32.85,32.85,0,0,0-7.38,5.49c-2.7,3-3.94,8.66-3.94,8.66s-1.36-5.29-3.17-7.77a84.49,84.49,0,0,0-7.16-7.47s-2,6.4-2.09,8.94S324,46.08,324,46.08Z" style="fill:#FFA52E"></path><path d="M324,46.08s-7.18-2.52-9.79-1.72-4.59,1.12-6.65,2.46a63.25,63.25,0,0,0,4.56,5.47,62.62,62.62,0,0,0,5.88,4.3A22.9,22.9,0,0,0,311,58.66c-3.08,1.62-6.76,7.06-6.76,7.06a56.57,56.57,0,0,0,8.81,2.3c3.36.41,13.3-1.16,13.3-1.16s-3.2,7.87-2.94,11.32S329,90.53,329.9,91.64c0,0,4.41-7.47,5.59-10.67s1-11.88,1-11.88,1.58,7.66,3.71,11.11,8.51,8.74,8.51,8.74,1.09-8.07.71-10.16-5.85-9.38-5.85-9.38a82.48,82.48,0,0,0,7.94,4.33c3.44,1.53,15.5,2.17,15.5,2.17s-2.52-7-4.43-9.35-7.27-5.38-7.27-5.38,10.34-2.5,13.51-6.79c0,0-7.92-4.38-11.28-5.66S345,50.29,345,50.29s2.57-6,2.65-8.9-1.83-10.75-1.83-10.75a32.85,32.85,0,0,0-7.38,5.49c-2.7,3-3.94,8.66-3.94,8.66s-1.36-5.29-3.17-7.77a84.49,84.49,0,0,0-7.16-7.47s-2,6.4-2.09,8.94S324,46.08,324,46.08Z" style="opacity:0.6000000000000001"></path><g style="opacity:0.2"><path d="M307.42,65.22s7-3.13,10.83-3.73,14,.44,14,.44-9.14,3.54-12.51,3.92S307.42,65.22,307.42,65.22Z"></path><path d="M333.16,59.52s-8.45-1.67-12.69-3.94-10.66-7.74-10.66-7.74,9.54,2.29,12.78,3.92S333.16,59.52,333.16,59.52Z"></path><path d="M325.91,35.12s.3,7.28,1.7,10.74S335,57.11,335,57.11s-1.73-8.73-2.71-11A100.5,100.5,0,0,0,325.91,35.12Z"></path><path d="M337.83,57.52s0-9.19,1.55-13.41a99,99,0,0,1,5.69-11.33s-.37,8.56-1.55,12.76S337.83,57.52,337.83,57.52Z"></path><path d="M341.62,59.18s8.16-4.1,12.4-5,11.32.8,11.32.8-9.61,4.13-12.43,4.53S341.62,59.18,341.62,59.18Z"></path><path d="M340.77,62.8s10,2.53,14.22,4.53,9.74,7.36,9.74,7.36-9.15-1.35-13.39-3.48S340.77,62.8,340.77,62.8Z"></path><path d="M334.1,65.23s-3.79,7.46-4.49,10.44.57,13.33.57,13.33,3-7.21,3.49-9.5S334.1,65.23,334.1,65.23Z"></path><path d="M338.12,65.3s2.31,9.66,3.14,11.86,6.15,8.47,6.15,8.47-.1-5.74-1.37-8.29S338.12,65.3,338.12,65.3Z"></path><path d="M334.9,63.32a2.39,2.39,0,0,0,3.46,0,2.36,2.36,0,0,0-.15-3.51,2.26,2.26,0,0,0-3,0A2.44,2.44,0,0,0,334.9,63.32Z"></path></g><path d="M326.38,66.86a12.79,12.79,0,0,1,2.39-1.6,16.48,16.48,0,0,1,2.63-1.16A6.32,6.32,0,0,1,329.16,66,7.37,7.37,0,0,1,326.38,66.86Z" style="fill:#263238"></path><path d="M324,46.08c1.21,1.44,2.3,2.92,3.42,4.37.56.73,1.14,1.44,1.7,2.16l1.77,2.15A15.08,15.08,0,0,1,326.74,51a22.62,22.62,0,0,1-1.57-2.33A15.57,15.57,0,0,1,324,46.08Z" style="fill:#263238"></path><path d="M345,50.29a10.87,10.87,0,0,1-.81,2.1,20.67,20.67,0,0,1-1.11,1.94,16,16,0,0,1-2.91,3.4,21.74,21.74,0,0,1,1.05-2c.38-.64.77-1.26,1.17-1.88A39.9,39.9,0,0,1,345,50.29Z" style="fill:#263238"></path><path d="M344,61.53c1,0,1.93.06,2.88.13s1.89.17,2.81.21a4.47,4.47,0,0,0,.64,0l.69-.11,1.4-.23c.95-.15,1.89-.28,2.86-.34a22.6,22.6,0,0,1-2.72,1c-.46.14-.92.25-1.39.36-.24.06-.47.1-.72.14a4.36,4.36,0,0,1-.79,0,19.25,19.25,0,0,1-2.87-.4A19.89,19.89,0,0,1,344,61.53Z" style="fill:#263238"></path><path d="M340.37,65.63a7,7,0,0,1,1.9,1.63,6.75,6.75,0,0,1,1.27,2.14,6.81,6.81,0,0,1-1.9-1.62A6.69,6.69,0,0,1,340.37,65.63Z" style="fill:#263238"></path></g><g id="freepik--Spice--inject-197"><path d="M198.75,435s11.85-3.74,14.48-7.36,4.9-5.95,6.27-9.71a103.27,103.27,0,0,0-11.32-2.69c-3.43-.39-11.88.16-11.88.16a37.71,37.71,0,0,0,7-9.5c2.43-5.13,1.91-15.85,1.91-15.85s-9,2.87-13.77,5.63-16.24,14.56-16.24,14.56-3.52-13.42-7.24-17.67-19.3-10.72-21.63-11.25c0,0,1.56,14.07,3.15,19.41s10.38,16.46,10.38,16.46-9.58-8.45-15.73-10.86-19.68-3.07-19.68-3.07,6.48,11.6,9,14,16.83,6.51,16.83,6.51a137.21,137.21,0,0,0-14.61,2.14c-6,1.37-22.37,12.35-22.37,12.35s10.18,6.73,15,7.88,14.76-.11,14.76-.11-11.05,13.4-11,22.11c0,0,14.63-2,20.27-3.67s14.74-14.26,14.74-14.26,2.53,10.35,5.27,14.22,12.93,12.23,12.93,12.23,3.63-7.84,4.25-14.38-3.34-15.19-3.34-15.19,7,5.6,11.76,7.05,16.67,2.73,16.67,2.73-3.66-10.32-6-13.71S198.75,435,198.75,435Z" style="fill:#FFA52E"></path><path d="M198.75,435s11.85-3.74,14.48-7.36,4.9-5.95,6.27-9.71a103.27,103.27,0,0,0-11.32-2.69c-3.43-.39-11.88.16-11.88.16a37.71,37.71,0,0,0,7-9.5c2.43-5.13,1.91-15.85,1.91-15.85s-9,2.87-13.77,5.63-16.24,14.56-16.24,14.56-3.52-13.42-7.24-17.67-19.3-10.72-21.63-11.25c0,0,1.56,14.07,3.15,19.41s10.38,16.46,10.38,16.46-9.58-8.45-15.73-10.86-19.68-3.07-19.68-3.07,6.48,11.6,9,14,16.83,6.51,16.83,6.51a137.21,137.21,0,0,0-14.61,2.14c-6,1.37-22.37,12.35-22.37,12.35s10.18,6.73,15,7.88,14.76-.11,14.76-.11-11.05,13.4-11,22.11c0,0,14.63-2,20.27-3.67s14.74-14.26,14.74-14.26,2.53,10.35,5.27,14.22,12.93,12.23,12.93,12.23,3.63-7.84,4.25-14.38-3.34-15.19-3.34-15.19,7,5.6,11.76,7.05,16.67,2.73,16.67,2.73-3.66-10.32-6-13.71S198.75,435,198.75,435Z" style="opacity:0.6000000000000001"></path><g style="opacity:0.2"><path d="M201.6,393.81s-6,10.91-10.48,15.47-18.68,13.12-18.68,13.12,8.46-13.58,12.5-17.37S201.6,393.81,201.6,393.81Z"></path><path d="M173.56,426.47s12.68-6.11,20.44-7.29,21.51-.33,21.51-.33-14.7,6.36-20.52,7.4S173.56,426.47,173.56,426.47Z"></path><path d="M206.94,451.23s-7.51-9.22-12.73-12.36-20.65-7.48-20.65-7.48,10.82,9.71,14.29,11.66C194.59,446.82,206.94,451.23,206.94,451.23Z"></path><path d="M169.43,433.66s9,12,11.11,19,3.69,20.37,3.69,20.37-7.92-11.53-10.49-18.18S169.43,433.66,169.43,433.66Z"></path><path d="M162.85,435.2s-6.64,13.35-11.31,18.66S136,463.92,136,463.92s8.51-14.82,11.79-18.1S162.85,435.2,162.85,435.2Z"></path><path d="M160.41,429.65s-15.51,6.46-23,8-19.92-.07-19.92-.07,13.26-7.2,20.89-8.57S160.41,429.65,160.41,429.65Z"></path><path d="M166.74,419.93s-2.35-13.46-4.36-18-13.82-16.84-13.82-16.84,3.19,12.32,4.76,15.82S166.74,419.93,166.74,419.93Z"></path><path d="M161.42,423.78s-12.48-10.34-15.72-12.4-16.33-5-16.33-5,5.75,7.38,9.91,9.48S161.42,423.78,161.42,423.78Z"></path><path d="M167.58,423.21a3.91,3.91,0,0,0-4.49,3.45,3.87,3.87,0,0,0,3.64,4.44,3.71,3.71,0,0,0,3.88-3C171,426.28,170.16,423.61,167.58,423.21Z"></path></g><path d="M175.22,410.25a30.1,30.1,0,0,1-1.7,4.36,45.49,45.49,0,0,1-2.15,4.15,12.63,12.63,0,0,1,1.24-4.57A14.76,14.76,0,0,1,175.22,410.25Z" style="fill:#263238"></path><path d="M198.75,435c-2.93-.82-5.8-1.72-8.7-2.51-1.45-.41-2.9-.77-4.36-1.13s-2.94-.65-4.44-.94a27.46,27.46,0,0,1,9.06,1.1A36,36,0,0,1,198.75,435Z" style="fill:#263238"></path><path d="M167.09,450.17a22,22,0,0,1-.85-3.56c-.21-1.2-.33-2.41-.42-3.62a32.19,32.19,0,0,1,.29-7.27c.21,1.2.32,2.41.43,3.61s.2,2.4.28,3.6C167,445.33,167.1,447.72,167.09,450.17Z" style="fill:#263238"></path><path d="M157.43,434.47c-1.29.88-2.61,1.72-3.93,2.53s-2.67,1.61-3.91,2.47a5.85,5.85,0,0,0-.85.67c-.26.26-.52.55-.79.83l-1.59,1.7c-1.06,1.13-2.16,2.25-3.3,3.32a46.44,46.44,0,0,1,2.71-3.83c.47-.63,1-1.22,1.48-1.83.25-.29.52-.58.8-.88a7.14,7.14,0,0,1,1-.8,34.9,34.9,0,0,1,4.11-2.33A42,42,0,0,1,157.43,434.47Z" style="fill:#263238"></path><path d="M158.16,425.55a16.3,16.3,0,0,1-7.83-1.82,14.58,14.58,0,0,1,4,.43A14.14,14.14,0,0,1,158.16,425.55Z" style="fill:#263238"></path></g></svg>