<svg xmlns="http://www.w3.org/2000/svg" viewBox="0 0 500 500"><g id="freepik--background-complete--inject-21"><path d="M260.32,47.81V307.69H429.24V47.81ZM423,301.46H266.56V54.05H423Z" style="fill:#ebebeb"></path><rect x="266.56" y="54.05" width="156.45" height="247.41" style="fill:#fff"></rect><rect x="266.55" y="174.63" width="156.45" height="6.23" transform="translate(689.55 355.5) rotate(180)" style="fill:#ebebeb"></rect><rect x="248.84" y="307.69" width="191.87" height="17.89" transform="translate(689.55 633.26) rotate(180)" style="fill:#dbdbdb"></rect><path d="M266.55,54H423V214.11H266.55Zm150.68,5.77H272.32V208.34H417.23Z" style="fill:#dbdbdb"></path><rect x="369.95" y="54.04" width="3.12" height="154.3" style="fill:#dbdbdb"></rect><rect x="316.48" y="54.04" width="3.12" height="154.3" style="fill:#dbdbdb"></rect><rect x="63.32" y="67.36" width="77.52" height="77.52" style="fill:#fff"></rect><path d="M59.29,63.33v85.58h85.59V63.33Zm81.56,81.55H63.32V67.36h77.53Z" style="fill:#dbdbdb"></path><rect x="91.66" y="86.26" width="26.8" height="60.42" transform="translate(221.52 11.41) rotate(90)" style="fill:#ebebeb"></rect><rect x="86.61" y="90.64" width="30.96" height="30.96" transform="translate(208.21 4.03) rotate(90)" style="fill:#c7c7c7"></rect><rect x="144.88" y="63.33" width="3.3" height="85.59" style="fill:#c7c7c7"></rect><rect x="89.6" y="183.99" width="77.52" height="77.52" style="fill:#fff"></rect><rect x="102.92" y="196.39" width="20.24" height="58.47" style="fill:#c7c7c7"></rect><path d="M85.57,180v85.59h85.58V180Zm81.55,81.56H89.6V184h77.52Z" style="fill:#dbdbdb"></path><rect x="112.88" y="207.27" width="30.95" height="30.95" style="fill:#ebebeb"></rect><rect x="171.15" y="179.95" width="3.3" height="85.59" style="fill:#c7c7c7"></rect></g><g id="freepik--Table--inject-21"><path d="M443.05,449.67c-123.68.62-262.42.62-386.1,0,123.68-.61,262.42-.61,386.1,0Z" style="fill:#263238"></path></g><g id="freepik--Character--inject-21"><path d="M186.45,300.07c38.44,59.11,93.3,123.78,117.34,119.9,26.78-4.32-11.5-89.28-14.63-92-4.62-3.94-36.35-30-78.34-60.78C170.4,237.62,165.1,267.24,186.45,300.07Z" style="fill:#d3766a"></path><path d="M230.26,370.08l46.34-59.27s-41.12-32-78.5-53.44-39.44.76-21.63,33.54S230.26,370.08,230.26,370.08Z" style="fill:#FFA52E"></path><path d="M276.6,310.81l-17.05,21.81-9.27,11.85-1.11,1.42-18.91,24.19s-36-46.4-53.79-79.17c-1.94-3.57-3.64-7-5.09-10.29,0-.1-.09-.2-.13-.3-7.41-16.89-8-29.25,1.1-31.16,5.21-1.1,13.62,1.26,25.75,8.21C235.48,278.8,276.6,310.81,276.6,310.81Z" style="fill:#FFA52E"></path><path d="M247.82,341a21.75,21.75,0,0,0,1.35,4.93l1.11-1.42A20.76,20.76,0,0,0,247.82,341ZM213.87,283.4a24.23,24.23,0,0,0-3.65-5.85A26.51,26.51,0,0,0,215.91,290,23.61,23.61,0,0,0,213.87,283.4Zm33.23,15.27a24.13,24.13,0,0,0-1.54,6.71,23.23,23.23,0,0,0,3.2-6.09,25.08,25.08,0,0,0,1.56-6.7A23.71,23.71,0,0,0,247.1,298.67Zm-74.36-24.5a24.69,24.69,0,0,0-1.49,6.15c0,.1.08.2.13.3a24.57,24.57,0,0,0,3-5.83,24.27,24.27,0,0,0,1.53-6.72A24.44,24.44,0,0,0,172.74,274.17ZM219.48,321a23.85,23.85,0,0,0-6.71-1.53,24.68,24.68,0,0,0,6.09,3.2,24.12,24.12,0,0,0,6.71,1.53A25.37,25.37,0,0,0,219.48,321Z" style="fill:#fff"></path><path d="M263.82,306.2a606.44,606.44,0,0,0-38.73,49.64c-.18.26.24.56.44.32a607.06,607.06,0,0,0,38.78-49.61C264.5,306.28,264,305.94,263.82,306.2Z" style="fill:#263238"></path><path d="M259.55,332.62l-9.27,11.85-1.11,1.42-18.91,24.19s-36-46.4-53.79-79.17c-1.94-3.57-3.64-7-5.09-10.29,0-.1-.09-.2-.13-.3-7.41-16.89-8-29.25,1.1-31.16Z" style="opacity:0.1"></path><path d="M71.05,449.22H246.73c2.58-1.93-21.21-141.12-51.45-189.17-5.66-9-34.89-22.2-50.64-.59C92,331.69,68.64,446.14,71.05,449.22Z" style="fill:#FFA52E"></path><path d="M143.29,303.31a24.3,24.3,0,0,0-6.71-1.54,23.69,23.69,0,0,0,6.09,3.2,24.13,24.13,0,0,0,6.71,1.54A24.86,24.86,0,0,0,143.29,303.31Zm28.22,78.28a24.3,24.3,0,0,0-6.71-1.54,26.48,26.48,0,0,0,12.8,4.76A24.25,24.25,0,0,0,171.51,381.59Zm48.57-60.32h0l-.59-.24a23.85,23.85,0,0,0-6.71-1.53,24.68,24.68,0,0,0,6.09,3.2c.6.21,1.2.42,1.82.6Zm-50.19,113a23.46,23.46,0,0,0-6.71-1.55,24.21,24.21,0,0,0,6.09,3.21,23.94,23.94,0,0,0,6.71,1.54A24.5,24.5,0,0,0,169.89,434.27Zm-98.66,9.81q-.14,1-.21,1.8a23,23,0,0,0,6.16,1.35A24.13,24.13,0,0,0,71.23,444.08Zm38.83-64.85a23.78,23.78,0,0,0-6.71-1.54,23.86,23.86,0,0,0,6.09,3.2,24.28,24.28,0,0,0,6.72,1.54A24.41,24.41,0,0,0,110.06,379.23Zm105,62.95a23.94,23.94,0,0,0-1.54,6.71,26.46,26.46,0,0,0,4.74-12.8A24.5,24.5,0,0,0,215.08,442.18Zm9.2-58.41a24.13,24.13,0,0,0-1.54,6.71,23.6,23.6,0,0,0,3.22-6.09,24.31,24.31,0,0,0,1.54-6.7A24,24,0,0,0,224.28,383.77Zm-79.76-34.72a24.3,24.3,0,0,0-1.54,6.71,26.73,26.73,0,0,0,4.74-12.8A24.5,24.5,0,0,0,144.52,349.05Zm28.22-74.88a24.13,24.13,0,0,0-1.54,6.71,24.58,24.58,0,0,0,3.22-6.09,24.27,24.27,0,0,0,1.53-6.72A24.44,24.44,0,0,0,172.74,274.17ZM131.69,449.22h1.68a20.51,20.51,0,0,0,.73-4.19A21.43,21.43,0,0,0,131.69,449.22ZM196.08,355a23.93,23.93,0,0,0-5.85,3.65,26.66,26.66,0,0,0,12.42-5.7A23.3,23.3,0,0,0,196.08,355Zm-87.54,68.23a24.63,24.63,0,0,0-5.83,3.65,24,24,0,0,0,6.58-2,24.31,24.31,0,0,0,5.83-3.65A24.11,24.11,0,0,0,108.54,423.19Zm2.92-89.48a24.1,24.1,0,0,0-5.82,3.66,24.18,24.18,0,0,0,6.57-2.05,23.23,23.23,0,0,0,5.83-3.65A24.1,24.1,0,0,0,111.46,333.71Zm32.78,70.4a24.51,24.51,0,0,0-3.65-5.83,24.33,24.33,0,0,0,2,6.58,23.84,23.84,0,0,0,3.67,5.82A24.4,24.4,0,0,0,144.24,404.11Zm52.66,6.22a24.55,24.55,0,0,0-3.65-5.85,26.51,26.51,0,0,0,5.69,12.42A23.82,23.82,0,0,0,196.9,410.33Zm-19.67-91a24.51,24.51,0,0,0-3.65-5.83,24.22,24.22,0,0,0,2,6.58,24.89,24.89,0,0,0,3.65,5.84A23.61,23.61,0,0,0,177.23,319.37Z" style="fill:#fff"></path><path d="M122.17,293.6C84,352.91,47.54,429.46,60.94,449.8c14.93,22.65,76.71-47.11,77.87-51.07,1.7-5.82,12.48-45.46,23.3-96.37C172.54,253.35,143.36,260.67,122.17,293.6Z" style="fill:#d3766a"></path><path d="M77.29,358.19l73.25,17.18s11.79-50.76,15.55-93.68-17.25-35.48-39.52-5.56S77.29,358.19,77.29,358.19Z" style="fill:#FFA52E"></path><path d="M111.46,333.71a24.1,24.1,0,0,0-5.82,3.66,24.18,24.18,0,0,0,6.57-2.05,23.23,23.23,0,0,0,5.83-3.65A24.1,24.1,0,0,0,111.46,333.71Zm-32.7,21.66h0a21.4,21.4,0,0,0-.68,3l.8.18a28.86,28.86,0,0,0,3.68-10.29C81,351.24,79.67,353.66,78.76,355.37Zm65.76-6.32a24.3,24.3,0,0,0-1.54,6.71,26.73,26.73,0,0,0,4.74-12.8A24.5,24.5,0,0,0,144.52,349.05Zm-1.23-45.74a24.3,24.3,0,0,0-6.71-1.54,23.69,23.69,0,0,0,6.09,3.2,24.13,24.13,0,0,0,6.71,1.54A24.86,24.86,0,0,0,143.29,303.31Z" style="fill:#fff"></path><path d="M164.88,318.52a.15.15,0,0,0-.29-.1c-.91,2.43-1.8,4.87-2.7,7.3.64-4.79,1.19-9.58,1.62-14.41,0-.15-.24-.21-.27-.05q-3.28,15.81-6.33,31.65c-2,10.58-4.52,21.08-6.42,31.67-2.06-.13-3.18-.31-4.72-.36-.35,0-.52.4-.18.52,2,.7,5.93,1.67,6,1.4,3.12-10.31,5.23-21.68,7.32-32.24q1.53-7.8,2.63-15.63A92.53,92.53,0,0,0,164.88,318.52Z" style="fill:#263238"></path><path d="M149.36,361.83A607.18,607.18,0,0,0,88,347.52c-.3,0-.4.45-.1.54a603.69,603.69,0,0,0,61.3,14.36C149.58,362.49,149.69,361.93,149.36,361.83Z" style="fill:#263238"></path><path d="M161.39,255.28c.76,3.27,16.37,24.48,31.31,23.77,4.87-.24,4.75-26.85,4.75-26.85l.44-2L204,222.7l-37-23.49S161.08,253.89,161.39,255.28Z" style="fill:#d3766a"></path><path d="M204,222.7l-6.15,27.52-.43,2s0,4.82-.33,10.37c-20.36-3-29.7-18.31-33.77-28.86,1.62-15.8,3.67-34.49,3.67-34.49Z" style="fill:#263238"></path><path d="M245,172.91c9.7,59.65-24.93,72.2-37.8,74.28-11.68,1.89-51.69,6.83-67.51-51.51S148.56,114,175,108.24,235.31,113.24,245,172.91Z" style="fill:#d3766a"></path><path d="M235.58,171.71a41.2,41.2,0,0,1-4.15-.49c-1.59-.2-2.87-.2-4.13-1.3a2.15,2.15,0,0,1-.24-2.62c1.19-1.65,3.2-1.88,5.12-1.72a7.86,7.86,0,0,1,5.15,2.32C238.79,169.31,237.46,171.75,235.58,171.71Z" style="fill:#263238"></path><path d="M194.86,177.4a39.21,39.21,0,0,0,4-1.24c1.53-.48,2.79-.72,3.83-2a2.14,2.14,0,0,0-.24-2.61c-1.47-1.41-3.49-1.28-5.35-.76a7.81,7.81,0,0,0-4.64,3.21C191.27,175.62,193,177.78,194.86,177.4Z" style="fill:#263238"></path><path d="M204.64,221.19c1,.94,2,2.23,3.53,2.31a10.9,10.9,0,0,0,4.39-1.16.14.14,0,0,1,.19.2,5.54,5.54,0,0,1-5.16,2.39c-1.87-.27-2.84-1.85-3.34-3.54C204.18,221.16,204.49,221.06,204.64,221.19Z" style="fill:#263238"></path><path d="M222,204.24s1.38,6,1.64,8.94c0,.27-.67.46-1.65.6,0,0-.06,0-.11,0a13.76,13.76,0,0,1-13.78-4c-.23-.26.11-.59.39-.43,4.05,2.46,8.33,2.81,12.86,2.49.13-.82-2.72-10.39-2.26-10.36,1.95.16,5.4.71,6.69.91-.81-3.95-3.66-15.05-5.13-22.24-.09-.45.6-.66.74-.26,3.8,10.64,5.62,16.24,7.56,24.71C229.09,205.31,223.19,204.63,222,204.24Z" style="fill:#263238"></path><path d="M220.38,213a15.42,15.42,0,0,1-5.49,5.51,7,7,0,0,1-4.13.79c-3.12-.41-3.54-3.16-3.29-5.6a16.77,16.77,0,0,1,.88-3.79A20,20,0,0,0,220.38,213Z" style="fill:#263238"></path><path d="M214.89,218.52a7,7,0,0,1-4.13.79c-3.12-.41-3.54-3.16-3.29-5.6C210.74,213.63,214.21,215.41,214.89,218.52Z" style="fill:#ff97b8"></path><path d="M197.34,188.56a5.7,5.7,0,0,1,1.18-2.81,4.18,4.18,0,0,1,3-1.42,3.74,3.74,0,0,1,3,1.48,6.58,6.58,0,0,1,1.17,2.77,12.16,12.16,0,0,1,.16,1.8,8,8,0,0,1-.73,3.67,11.67,11.67,0,0,0-.2-2.72,16.38,16.38,0,0,0-.6-2.39c-.55-1.58-1.51-2.89-2.79-2.78s-2.32,1.11-2.81,2.73a26.7,26.7,0,0,0-.89,5.16A11.65,11.65,0,0,1,197.34,188.56Z" style="fill:#263238"></path><path d="M228.55,185.5a5.76,5.76,0,0,1,.66-3,4.15,4.15,0,0,1,2.67-1.94,3.76,3.76,0,0,1,3.23.9,6.59,6.59,0,0,1,1.66,2.51,13.37,13.37,0,0,1,.49,1.75,8.1,8.1,0,0,1,0,3.73,12,12,0,0,0-.69-2.63,17,17,0,0,0-1-2.24c-.83-1.46-2-2.57-3.25-2.23s-2.08,1.52-2.26,3.2a26.34,26.34,0,0,0,.06,5.24A11.86,11.86,0,0,1,228.55,185.5Z" style="fill:#263238"></path><g style="opacity:0.2"><path d="M179.59,203.3a1,1,0,1,1-.78-1.13A1,1,0,0,1,179.59,203.3Z"></path><path d="M199.83,206a1,1,0,1,1-.78-1.13A1,1,0,0,1,199.83,206Z"></path><path d="M191.47,211.77a1,1,0,1,1-.78-1.13A1,1,0,0,1,191.47,211.77Z"></path><path d="M181.58,195.48a1,1,0,1,1-.78-1.14A1,1,0,0,1,181.58,195.48Z"></path><path d="M190.06,202.6a1,1,0,1,1-1.91-.35,1,1,0,0,1,1.13-.78A1,1,0,0,1,190.06,202.6Z"></path><path d="M241.94,197.75a1,1,0,1,1-.78-1.13A1,1,0,0,1,241.94,197.75Z"></path><path d="M233.47,201.83a1,1,0,0,1-1.92-.35,1,1,0,0,1,1.14-.78A1,1,0,0,1,233.47,201.83Z"></path><path d="M234.23,208.49a1,1,0,0,1-1.14.79,1,1,0,1,1,1.14-.79Z"></path><path d="M241.55,205.29a1,1,0,1,1-.78-1.13A1,1,0,0,1,241.55,205.29Z"></path></g><path d="M146.39,211.37c11.74-3.05,8.41-33.32,8.41-33.32s14.21-7.35,15.67-35.4c0,0,13.38,25.87,62.25,14,0,0,1.5-12.06-6.69-25.4,0,0,7.1,9,15.7,25.23,0,0,6.94-42.65-30-53-14.68-4.11-35.83-.4-66.28,19.44,0,0-8.51-18.64-11.93-15.65s5.91,20.23,5.91,20.23-14.73-2.7-16.77.55c-1.75,2.81,12.36,4.77,12.36,4.77s-20.92,9.52-14.31,34.16C126.78,189.55,140.59,212.88,146.39,211.37Z" style="fill:#263238"></path><path d="M138.93,132a25.89,25.89,0,0,0-23.67,24.82c-.19,7.22,2.5,14.65,5.55,21.08,3.35,7,7.94,13,12.92,19,.27.33.74-.15.46-.48a68.5,68.5,0,0,1-10.72-18.06c-2.56-6-5-12.76-5.5-19.34-1-13.05,8.33-24.13,21.06-26.27C139.44,132.63,139.34,131.94,138.93,132Z" style="fill:#263238"></path><path d="M182.6,100a100.34,100.34,0,0,0-23.23,11.83c-6.86,4.59-13.48,9.76-18.45,16.42a.33.33,0,0,0,.48.46c11.37-10.85,25.81-18.72,40.24-24.76,13.5-5.65,30-7.61,42,2.49.2.16.46-.11.28-.29C213,95.33,196.32,95.32,182.6,100Z" style="fill:#263238"></path><path d="M155.87,199.34s-14.56-17.83-22.75-12.5,3.75,31.86,14,34.84,13.25-6.5,13.25-6.5Z" style="fill:#d3766a"></path><path d="M136.73,194.36a.14.14,0,0,0,0,.27c7.24,2.32,11.42,8.56,14.52,15.12-2.28-2.44-5.24-3.65-8.53-.9-.18.14,0,.41.21.36,2.84-.83,4.95-.49,7.07,1.67a30.46,30.46,0,0,1,3.72,5.33c.38.61,1.48.19,1.19-.52l-.07-.16C154.32,206.56,146.42,194.54,136.73,194.36Z" style="fill:#263238"></path><path d="M329.72,218.63c-.23-.69-.5-1.37-.79-2a29.36,29.36,0,0,0-1.43-2.93c-.34-.63-.71-1.25-1.09-1.85-.58-.91-1.2-1.79-1.86-2.65a41.69,41.69,0,0,0-2.83-3.27l-.77-.78c-.52-.51-1.06-1-1.59-1.49l-.84-.73c-.56-.47-1.14-.94-1.73-1.39s-1.18-.9-1.79-1.33-1.23-.85-1.86-1.26h0c-.95-.62-1.91-1.21-2.9-1.77l-1-.56c-1-.54-2-1.07-3.07-1.58s-2.1-1-3.17-1.43-2.15-.89-3.25-1.3c-.73-.28-1.46-.54-2.2-.8s-1.47-.5-2.21-.73-1.48-.47-2.23-.68-1.49-.43-2.24-.62l-2.24-.57-2-.46-2.92-.6-1.46-.26-1.45-.25c-1.6-.26-3.23-.46-4.87-.58a61.51,61.51,0,0,0-6.66-.18c-1.09,0-2.17.08-3.24.17a60.38,60.38,0,0,0-14.24,2.79l-.52.17-1,.34-1.44.54-.38.16a3.57,3.57,0,0,1,.35.77c1.61,5.05-1.06,6.29-1.06,6.29a14.49,14.49,0,0,1,0,4.26,4.47,4.47,0,0,1-1.24,1.84,1.59,1.59,0,0,1,0,.38,1.34,1.34,0,0,1-1.4,1.26,1.79,1.79,0,0,0-.4,0c-.83.65-1.49,1.1-1.49,1.1s-1.31,6.35-3.48,8c-1,.81-3.15,1.18-5.05,1.36-1.16.1-2.25.13-3,.13-.52,0-.83,0-.83,0s-.17,2.21-3.52,2.9a6.71,6.71,0,0,1-2.57-.1c-.08.64-.16,1.27-.22,1.89h0a39.88,39.88,0,0,0-.17,4.19v.16c0,.92.05,1.83.12,2.72,0,.63.12,1.25.21,1.87a35.42,35.42,0,0,0,.7,3.61c.14.59.31,1.18.5,1.74s.38,1.15.58,1.71.45,1.11.7,1.66c.15.36.32.71.49,1.06l.39.77c.14.26.27.51.42.76l.43.75.46.74c.29.47.6.94.94,1.39s.72,1,1.1,1.47c.27.33.54.66.82,1s.66.77,1,1.13.65.68,1,1l1,1c.36.33.73.65,1.1,1s.75.63,1.13.94l1.36,1c.46.34.94.68,1.42,1,1,.66,2,1.28,3,1.89.32.18.64.37,1,.54.53.3,1.07.59,1.63.87l.49.26c.49.25,1,.48,1.5.72,1.25.59,2.56,1.15,3.92,1.68l1.83.7a91.15,91.15,0,0,0,10.12,3l2.15.49,1.49.31,1.78.34c.93.17,1.87.34,2.83.49,1.32.22,2.63.41,3.91.56.65.08,1.28.16,1.92.22l1.88.17c.63.06,1.25.11,1.86.14l1.73.09c.42,0,.82,0,1.23,0q3.27.1,6.35-.06c.37,0,.74,0,1.1-.06h.05l1.18-.09.18,0,.81-.07c1.25-.11,2.46-.27,3.64-.45l.77-.13c.54-.09,1.06-.18,1.59-.29s1.34-.27,2-.43l1.68-.41.1,0,.56-.16c1-.29,2.05-.61,3-1l.52-.18.27-.1c.42-.15.85-.32,1.26-.48,1.16-.47,2.26-1,3.32-1.51.4-.21.79-.4,1.17-.62l.21-.11c.2-.12.41-.23.61-.36a.18.18,0,0,0,.08-.05c.32-.17.63-.36.94-.55a35.24,35.24,0,0,0,5.59-4.27l1-1c.37-.39.74-.79,1.09-1.19s.71-.81,1-1.23a25.4,25.4,0,0,0,1.84-2.59,28.16,28.16,0,0,0,2.25-4.19c.2-.5.4-1,.59-1.48a30.57,30.57,0,0,0,1.66-6.25c.07-.49.14-1,.19-1.46s.12-1,.17-1.43.05-.81.07-1.23h0c0-.41.05-.8.06-1.21s0-.79,0-1.19A34,34,0,0,0,329.72,218.63ZM279.22,217c15.63,2.43,22.09,6.34,21.78,8.36-.2,1.29-4.58,2.14-10.52,2.19h-1c-.35,0-.72,0-1.08,0-2.36,0-4.9-.21-7.47-.51-1-.12-2.06-.27-3.11-.44-.77-.12-1.53-.25-2.26-.39-11.2-2-19.59-5.13-19.18-7.77C256.83,215.26,271.94,215.85,279.22,217Z" style="fill:#FFA52E"></path><path d="M329.72,218.63c-.23-.69-.5-1.37-.79-2a29.36,29.36,0,0,0-1.43-2.93c-.34-.63-.71-1.25-1.09-1.85-.58-.91-1.2-1.79-1.86-2.65a41.69,41.69,0,0,0-2.83-3.27l-.77-.78c-.52-.51-1.06-1-1.59-1.49l-.84-.73c-.56-.47-1.14-.94-1.73-1.39s-1.18-.9-1.79-1.33-1.23-.85-1.86-1.26h0c-.95-.62-1.91-1.21-2.9-1.77l-1-.56c-1-.54-2-1.07-3.07-1.58s-2.1-1-3.17-1.43-2.15-.89-3.25-1.3c-.73-.28-1.46-.54-2.2-.8s-1.47-.5-2.21-.73-1.48-.47-2.23-.68-1.49-.43-2.24-.62l-2.24-.57-2-.46-2.92-.6-1.46-.26-1.45-.25c-1.6-.26-3.23-.46-4.87-.58a61.51,61.51,0,0,0-6.66-.18c-1.09,0-2.17.08-3.24.17a60.38,60.38,0,0,0-14.24,2.79l-.52.17-1,.34-1.44.54-.38.16a3.57,3.57,0,0,1,.35.77c1.61,5.05-1.06,6.29-1.06,6.29a14.49,14.49,0,0,1,0,4.26,4.47,4.47,0,0,1-1.24,1.84,1.59,1.59,0,0,1,0,.38,1.34,1.34,0,0,1-1.4,1.26,1.79,1.79,0,0,0-.4,0c-.83.65-1.49,1.1-1.49,1.1s-1.31,6.35-3.48,8c-1,.81-3.15,1.18-5.05,1.36-1.16.1-2.25.13-3,.13-.52,0-.83,0-.83,0s-.17,2.21-3.52,2.9a6.71,6.71,0,0,1-2.57-.1c-.08.64-.16,1.27-.22,1.89h0a39.88,39.88,0,0,0-.17,4.19v.16c0,.92.05,1.83.12,2.72,0,.63.12,1.25.21,1.87a35.42,35.42,0,0,0,.7,3.61c.14.59.31,1.18.5,1.74s.38,1.15.58,1.71.45,1.11.7,1.66c.15.36.32.71.49,1.06l.39.77c.14.26.27.51.42.76l.43.75.46.74c.29.47.6.94.94,1.39s.72,1,1.1,1.47c.27.33.54.66.82,1s.66.77,1,1.13.65.68,1,1l1,1c.36.33.73.65,1.1,1s.75.63,1.13.94l1.36,1c.46.34.94.68,1.42,1,1,.66,2,1.28,3,1.89.32.18.64.37,1,.54.53.3,1.07.59,1.63.87l.49.26c.49.25,1,.48,1.5.72,1.25.59,2.56,1.15,3.92,1.68l1.83.7a91.15,91.15,0,0,0,10.12,3l2.15.49,1.49.31,1.78.34c.93.17,1.87.34,2.83.49,1.32.22,2.63.41,3.91.56.65.08,1.28.16,1.92.22l1.88.17c.63.06,1.25.11,1.86.14l1.73.09c.42,0,.82,0,1.23,0q3.27.1,6.35-.06c.37,0,.74,0,1.1-.06h.05l1.18-.09.18,0,.81-.07c1.25-.11,2.46-.27,3.64-.45l.77-.13c.54-.09,1.06-.18,1.59-.29s1.34-.27,2-.43l1.68-.41.1,0,.56-.16c1-.29,2.05-.61,3-1l.52-.18.27-.1c.42-.15.85-.32,1.26-.48,1.16-.47,2.26-1,3.32-1.51.4-.21.79-.4,1.17-.62l.21-.11c.2-.12.41-.23.61-.36a.18.18,0,0,0,.08-.05c.32-.17.63-.36.94-.55a35.24,35.24,0,0,0,5.59-4.27l1-1c.37-.39.74-.79,1.09-1.19s.71-.81,1-1.23a25.4,25.4,0,0,0,1.84-2.59,28.16,28.16,0,0,0,2.25-4.19c.2-.5.4-1,.59-1.48a30.57,30.57,0,0,0,1.66-6.25c.07-.49.14-1,.19-1.46s.12-1,.17-1.43.05-.81.07-1.23h0c0-.41.05-.8.06-1.21s0-.79,0-1.19A34,34,0,0,0,329.72,218.63ZM279.22,217c15.63,2.43,22.09,6.34,21.78,8.36-.2,1.29-4.58,2.14-10.52,2.19h-1c-.35,0-.72,0-1.08,0-2.36,0-4.9-.21-7.47-.51-1-.12-2.06-.27-3.11-.44-.77-.12-1.53-.25-2.26-.39-11.2-2-19.59-5.13-19.18-7.77C256.83,215.26,271.94,215.85,279.22,217Z" style="fill:#fff;opacity:0.6000000000000001"></path><g style="opacity:0.9"><path d="M224.46,225c.14,20.78,17,34.79,47.63,39.74,34,5.49,55.71-7.5,59-28.1.16-1,.28-1.95.36-2.89C327.92,246,308,264.2,273.07,258.57,243.81,253.84,225.45,239.8,224.46,225Z" style="opacity:0.1"></path><path d="M239.67,242.92c10.48,6.68,22.72,10.13,36.29,11.44,24.25,2.35,40.62-4.6,45.93-9.61.14-.14.33.11.2.28-4,5.1-19.94,14.43-45.57,11.92-17.13-1.67-31.23-8.9-37.16-13.23C239,243.45,239.28,242.67,239.67,242.92Z" style="fill:#fcf8eb"></path><path d="M233.13,238.16a10.51,10.51,0,0,1,2,1.38,6.42,6.42,0,0,1,1.74,1.71c.1.18-.05.44-.2.39a7,7,0,0,1-3.81-3.08C232.75,238.35,232.94,238.07,233.13,238.16Z" style="fill:#fcf8eb"></path><path d="M238,242c.42.07.29.9-.13.83S237.56,241.9,238,242Z" style="fill:#fcf8eb"></path><path d="M231.54,236.56a1.67,1.67,0,0,1,.88,1.12.16.16,0,0,1-.1.16.74.74,0,0,1-.59-.21,1.23,1.23,0,0,1-.48-.63C231.19,236.8,231.36,236.51,231.54,236.56Z" style="fill:#fcf8eb"></path><path d="M263.39,223.61c5.54,3.37,12,5.15,19.13,5.87,12.77,1.28,21.35-2.11,24.12-4.59.07-.06.18.06.11.14-2.07,2.53-10.43,7.11-23.92,5.74a44.84,44.84,0,0,1-19.6-6.77C263,223.87,263.18,223.48,263.39,223.61Z" style="fill:#fcf8eb"></path></g><path d="M329.72,218.63c-.23-.69-.5-1.37-.79-2a29.36,29.36,0,0,0-1.43-2.93c-.34-.63-.71-1.25-1.09-1.85-.58-.91-1.2-1.79-1.86-2.65a41.69,41.69,0,0,0-2.83-3.27l-.77-.78c-.52-.5-1.05-1-1.59-1.49l-.84-.73c-.56-.47-1.14-.94-1.73-1.39s-1.18-.9-1.79-1.33-1.23-.85-1.86-1.26h0c-.94-.61-1.91-1.2-2.9-1.77l-1-.56c-1-.54-2-1.07-3.07-1.58s-2.1-1-3.17-1.43-2.15-.89-3.25-1.3c-.73-.28-1.46-.54-2.2-.8s-1.47-.5-2.21-.73-1.48-.47-2.23-.68-1.49-.43-2.24-.62l-2.24-.57-2-.46-2.92-.6-1.46-.26c-.49-.09-1-.17-1.45-.24-1.6-.26-3.23-.46-4.87-.59a61.51,61.51,0,0,0-6.66-.18c-1.09,0-2.16.09-3.24.17a60.38,60.38,0,0,0-14.24,2.79l-.52.17-1,.34-1.44.54-.38.16a3.57,3.57,0,0,1,.35.77c1.61,5.05-1.06,6.29-1.06,6.29a14.49,14.49,0,0,1,0,4.26,4.47,4.47,0,0,1-1.24,1.84,1.59,1.59,0,0,1,0,.38,1.34,1.34,0,0,1-1.4,1.26,1.79,1.79,0,0,0-.4,0c-.83.65-1.49,1.1-1.49,1.1s-1.31,6.35-3.48,8c-1,.81-3.15,1.18-5.05,1.36-1.16.1-2.25.13-3,.13-.52,0-.83,0-.83,0s-.17,2.21-3.52,2.9a6.71,6.71,0,0,1-2.57-.1l-.68-.15c-.66,2-.9,5.43.27,6.23h0c1.19.81,1.82-1.13,3.19-.84s1.33,6.09,3.27,8.22,4.6,2.32,6.82,3.6c1.38.8,1.23,2.93,2.4,4.5.75,1,2.89,1.32,3.54,2.27a16,16,0,0,0,2.77,3.47c2,1.39,4.47.46,5.32.82s1.8,2.05,3,2.38,9.34-.24,11.37.07c1.53.24,4.1,2.93,6.46,4.51a7.32,7.32,0,0,0,2.17,1.06c2.35.53,3.35-.33,4.66-.42a2.74,2.74,0,0,1,.75,0h.05c2,.42,2.52,2.14,4.07,2.69h.05a2.68,2.68,0,0,0,1.15.18,6.42,6.42,0,0,0,1.28-.19c2.11-.55,2.46-2.17,3.71-2.63l.08,0h0a2.71,2.71,0,0,1,1.4-.09h0a14.33,14.33,0,0,0,3.79.74,7.86,7.86,0,0,0,3.81-1.65,0,0,0,0,1,0,0c1.54-1,3-2.2,4.11-2.42,2-.43,2.69.37,4.06-.27s2.87-3,5.4-3.3c1.65-.21,2.49.34,3.55.54a4.08,4.08,0,0,0,2-.14h0c2.43-.76,4-2.57,5.83-4.6s2.06-1.39,3.76-3.4a.24.24,0,0,0,.06-.09l0,0a3.3,3.3,0,0,0,.47-.78c.73-1.6-.12-3,1.1-4.82.61-.9,1-1.34,1.42-1.83h0c0-.41.05-.8.06-1.21s0-.79,0-1.19A34,34,0,0,0,329.72,218.63Zm-73.41-.78a.66.66,0,0,1,0-.15c.62-2,2.67-3.59,3.73-3.59s2,.7,3.41.32,5-2.39,6.91-2.48,1.87,1.22,3.59,1.49,3-.9,3.66-.7,1.79,1.81,3,2.11,2.29-.79,4.07-.29,1.66,1.54,2.93,1.75,4.56.14,6.33,1,1.77,1.54,3.16,1.92,1.14-.2,2.09.55,2.49,2.23,2.44,3.63a1.84,1.84,0,0,1,.1.6c0,.08,0,.15,0,.22a1.87,1.87,0,0,1-.79,1.14c-1.57,1.23-5.37,2.07-10.52,2.19h-1c-.35,0-.72,0-1.08,0a68,68,0,0,1-7.47-.51c-1-.12-2.06-.27-3.11-.44-.77-.12-1.53-.25-2.26-.39-11.08-2-18.54-5.18-19.18-7.77A1.63,1.63,0,0,1,256.31,217.85Z" style="fill:#FFA52E"></path><path d="M231.07,226.44a15.3,15.3,0,0,0,1.85,4.17,1.55,1.55,0,0,0,1.07.51c2.57.62,6.17,1.13,7.19,4,.59,1.7.37,3.23,1.47,4.51-2.36-.78-2.08-4.19-4.24-5.08-1.6-.77-3.89-1.26-5.56-1.92-2.2-1.22-2-4.09-1.78-6.19Z" style="fill:#fff"></path><path d="M285.53,253c2.55.6,4.32-1.74,7-1.4,1.43.11,2.8.74,4.09.32,1.64-.65,3.35-2,5.17-2.44a2.45,2.45,0,0,1,1.23-.06c-2.86,1.34-4.79,5.38-8.5,4.54-1.59-.25-2.59-.82-4.21-.43-1.44.33-3.54.66-4.73-.53Z" style="fill:#fff"></path><path d="M322.79,240.68c1.81-2.11,1.79-4.84,3-7.32,2.58-3.57,3.18-7.79,3.16-12.18a12.43,12.43,0,0,1-1.49,13.07c-1.25,2.16-2.06,5.37-4.63,6.43Z" style="fill:#fff"></path><path d="M254.12,220.56a1.37,1.37,0,0,1,.61,1.2,1.35,1.35,0,0,1-1.35,1.32,17.72,17.72,0,0,1-7-1.88,1.38,1.38,0,0,1-.56-1.82,1.29,1.29,0,0,1,1.76-.61,15.71,15.71,0,0,0,5.94,1.6A1.17,1.17,0,0,1,254.12,220.56Z" style="fill:#fff"></path><path d="M274.85,243.61a1.35,1.35,0,0,1-.41-1.29,1.32,1.32,0,0,1,1.54-1.07,18.09,18.09,0,0,1,6.61,3.09,1.4,1.4,0,0,1,.26,1.89,1.28,1.28,0,0,1-1.83.3,15.53,15.53,0,0,0-5.58-2.61A1.25,1.25,0,0,1,274.85,243.61Z" style="fill:#fff"></path><path d="M306.74,198.78a1.4,1.4,0,0,1,.63-1.21,1.27,1.27,0,0,1,1.79.45,20.09,20.09,0,0,1,2.27,7.18,1.39,1.39,0,0,1-1.16,1.51,1.3,1.3,0,0,1-1.43-1.19,17.12,17.12,0,0,0-1.92-6.08A1.28,1.28,0,0,1,306.74,198.78Z" style="fill:#fff"></path><path d="M297.88,238.57a1.27,1.27,0,0,1-1.22.5,1.34,1.34,0,0,1-1.08-1.54,20.3,20.3,0,0,1,2.72-7.08,1.28,1.28,0,0,1,1.81-.38,1.38,1.38,0,0,1,.34,1.88,18,18,0,0,0-2.3,6A1.41,1.41,0,0,1,297.88,238.57Z" style="fill:#fff"></path><path d="M253.86,195.42a1.43,1.43,0,0,1,.35-1.33,1.26,1.26,0,0,1,1.84,0,19.36,19.36,0,0,1,3.84,6.39,1.4,1.4,0,0,1-.79,1.75,1.28,1.28,0,0,1-1.67-.8,16.63,16.63,0,0,0-3.24-5.41A1.45,1.45,0,0,1,253.86,195.42Z" style="fill:#fff"></path><path d="M301.09,206.82a1.34,1.34,0,0,1-.87.59,15.94,15.94,0,0,0-5.75,2.36,1.27,1.27,0,0,1-1.81-.36,1.4,1.4,0,0,1,.36-1.88,18.49,18.49,0,0,1,6.8-2.8,1.29,1.29,0,0,1,1.49,1.11A1.42,1.42,0,0,1,301.09,206.82Z" style="fill:#FFA52E"></path><path d="M301.09,206.82a1.34,1.34,0,0,1-.87.59,15.94,15.94,0,0,0-5.75,2.36,1.27,1.27,0,0,1-1.81-.36,1.4,1.4,0,0,1,.36-1.88,18.49,18.49,0,0,1,6.8-2.8,1.29,1.29,0,0,1,1.49,1.11A1.42,1.42,0,0,1,301.09,206.82Z" style="fill:#fff;opacity:0.6000000000000001"></path><path d="M235.33,221.41a1.28,1.28,0,0,1-1.6-.93,16.44,16.44,0,0,0-1.94-4.38c.71,0,1.8,0,3-.13a17.23,17.23,0,0,1,1.49,3.76A1.38,1.38,0,0,1,235.33,221.41Z" style="fill:#FFA52E"></path><path d="M235.33,221.41a1.28,1.28,0,0,1-1.6-.93,16.44,16.44,0,0,0-1.94-4.38c.71,0,1.8,0,3-.13a17.23,17.23,0,0,1,1.49,3.76A1.38,1.38,0,0,1,235.33,221.41Z" style="fill:#fff;opacity:0.6000000000000001"></path><path d="M317,230.84a1.39,1.39,0,0,1,.7-.81,16.6,16.6,0,0,0,4.93-3.9,1.28,1.28,0,0,1,1.84-.17,1.4,1.4,0,0,1,.14,1.91,19.33,19.33,0,0,1-5.83,4.62,1.27,1.27,0,0,1-1.73-.65A1.44,1.44,0,0,1,317,230.84Z" style="fill:#FFA52E"></path><path d="M317,230.84a1.39,1.39,0,0,1,.7-.81,16.6,16.6,0,0,0,4.93-3.9,1.28,1.28,0,0,1,1.84-.17,1.4,1.4,0,0,1,.14,1.91,19.33,19.33,0,0,1-5.83,4.62,1.27,1.27,0,0,1-1.73-.65A1.44,1.44,0,0,1,317,230.84Z" style="fill:#fff;opacity:0.6000000000000001"></path><path d="M252.37,235.87a1.3,1.3,0,0,1-.94-.44,16.08,16.08,0,0,0-5-3.72,1.38,1.38,0,0,1-.68-1.78,1.3,1.3,0,0,1,1.71-.73,18.19,18.19,0,0,1,5.88,4.39,1.4,1.4,0,0,1-.11,1.92A1.24,1.24,0,0,1,252.37,235.87Z" style="fill:#FFA52E"></path><path d="M252.37,235.87a1.3,1.3,0,0,1-.94-.44,16.08,16.08,0,0,0-5-3.72,1.38,1.38,0,0,1-.68-1.78,1.3,1.3,0,0,1,1.71-.73,18.19,18.19,0,0,1,5.88,4.39,1.4,1.4,0,0,1-.11,1.92A1.24,1.24,0,0,1,252.37,235.87Z" style="fill:#fff;opacity:0.6000000000000001"></path><path d="M271.84,202.44a1.27,1.27,0,0,1-.93.46,15.77,15.77,0,0,0-6,1.58,1.26,1.26,0,0,1-1.74-.6,1.39,1.39,0,0,1,.59-1.82,18.15,18.15,0,0,1,7.08-1.88,1.31,1.31,0,0,1,1.33,1.31A1.39,1.39,0,0,1,271.84,202.44Z" style="fill:#FFA52E"></path><path d="M271.84,202.44a1.27,1.27,0,0,1-.93.46,15.77,15.77,0,0,0-6,1.58,1.26,1.26,0,0,1-1.74-.6,1.39,1.39,0,0,1,.59-1.82,18.15,18.15,0,0,1,7.08-1.88,1.31,1.31,0,0,1,1.33,1.31A1.39,1.39,0,0,1,271.84,202.44Z" style="fill:#fff;opacity:0.6000000000000001"></path><path d="M305.14,242.31a1.27,1.27,0,0,1-.93.46,15.89,15.89,0,0,0-6,1.59,1.26,1.26,0,0,1-1.74-.6,1.39,1.39,0,0,1,.59-1.82,18.33,18.33,0,0,1,7.07-1.88,1.31,1.31,0,0,1,1.34,1.31A1.41,1.41,0,0,1,305.14,242.31Z" style="fill:#FFA52E"></path><path d="M305.14,242.31a1.27,1.27,0,0,1-.93.46,15.89,15.89,0,0,0-6,1.59,1.26,1.26,0,0,1-1.74-.6,1.39,1.39,0,0,1,.59-1.82,18.33,18.33,0,0,1,7.07-1.88,1.31,1.31,0,0,1,1.34,1.31A1.41,1.41,0,0,1,305.14,242.31Z" style="fill:#fff;opacity:0.6000000000000001"></path><path d="M267.55,234a1.34,1.34,0,0,1,.84-.64,16.14,16.14,0,0,0,5.58-2.76,1.27,1.27,0,0,1,1.83.23,1.39,1.39,0,0,1-.24,1.9A18.52,18.52,0,0,1,269,236a1.27,1.27,0,0,1-1.55-1A1.4,1.4,0,0,1,267.55,234Z" style="fill:#FFA52E"></path><path d="M267.55,234a1.34,1.34,0,0,1,.84-.64,16.14,16.14,0,0,0,5.58-2.76,1.27,1.27,0,0,1,1.83.23,1.39,1.39,0,0,1-.24,1.9A18.52,18.52,0,0,1,269,236a1.27,1.27,0,0,1-1.55-1A1.4,1.4,0,0,1,267.55,234Z" style="fill:#fff;opacity:0.6000000000000001"></path><path d="M290.56,201.12a1.18,1.18,0,0,1-.62-.29,15.61,15.61,0,0,0-5.46-2.88,1.35,1.35,0,0,1-.93-1.65,1.31,1.31,0,0,1,1.59-1,18,18,0,0,1,6.46,3.41,1.4,1.4,0,0,1,.17,1.91A1.28,1.28,0,0,1,290.56,201.12Z" style="fill:#fff"></path><path d="M314.64,221.22a1.32,1.32,0,0,1-.68-.06,15.68,15.68,0,0,0-6.08-.88,1.3,1.3,0,0,1-1.4-1.24,1.37,1.37,0,0,1,1.21-1.47,18,18,0,0,1,7.19,1,1.38,1.38,0,0,1,.76,1.75A1.35,1.35,0,0,1,314.64,221.22Z" style="fill:#fff"></path><path d="M257.38,192.73c14.1-6.57,31.07-3.16,44.23,4.15,1.87,1.12,3.7,2.31,5.49,3.53-2-.84-4-1.79-5.93-2.65-13.67-5.8-29.15-9-43.79-5Z" style="fill:#fff"></path><path d="M306.16,419.91c10.94-3.48,24.27-25.72,36.76-94.86,1.9-10.5-62.09-49.65-66.07-39-5,13.48-11.55,50.5-12.26,54.56C258.55,374.85,293.59,423.91,306.16,419.91Z" style="fill:#d3766a"></path><path d="M359.6,272.69c1-23.37-2.38-29.52,8.9-48.81,7.4-12.66,2.5-22.82-10.44-14.75-21.17,13.21-28.73,43.1-28.37,54.22Z" style="fill:#d3766a"></path><path d="M336.53,336.17s18.71-27.39,22.2-52.19c2.41-17.15,3.49-55.05-36.94-87.26-9.59-7.63-28.68-11.72-17.54,6.45,7.9,12.9,16.82,18.69,20.05,27,0,0-24.89-2.32-32.17,7.59-3.25,4.43-11.85,16.72-17.17,27.24a47.81,47.81,0,0,0,4.81,3.68s-6.53,9.49-3.17,26.7Z" style="fill:#d3766a"></path><path d="M358.42,267.24c-5-7.6-15.75-23.53-29.1-33.5-14.83-11.08-46.39-28.41-54.45-17.38-5.91,8.09,5.55,15.77,5.55,15.77s-14.55-4.41-18.29,4.06c-3.41,7.73,5.82,13.14,5.82,13.14s-9.29-1.17-11.14,6.91c-2.23,9.71,17.6,10.55,23.85,22.33C282.06,281.21,358.42,267.24,358.42,267.24Z" style="fill:#d3766a"></path><path d="M320.23,251.36C314.4,245,297.42,233.87,280.77,232c-.37,0-.61.22-.27.33a181.87,181.87,0,0,1,39.63,19.2C320.21,251.56,320.3,251.43,320.23,251.36Z" style="fill:#263238"></path><path d="M308.62,266c-5.6-5-23.61-15.65-40.55-17-.37,0-.59.25-.25.35a194.31,194.31,0,0,1,40.71,16.8C308.61,266.21,308.69,266.07,308.62,266Z" style="fill:#263238"></path><path d="M274.39,293.91c-2.35,11.21-4.78,22.4-6.89,33.65a119.17,119.17,0,0,0-2.31,16.87,115.21,115.21,0,0,0,2.45,28.21,94.64,94.64,0,0,0,3,11c-5.75-12.14-8-25.94-7.37-39.34.54-9.6,3-19,5.17-28.29q2.75-11.15,6-22.14Z" style="fill:#263238"></path><path d="M324.2,351.39c.33-1.2.61-2.38.82-3.55,4.87-26.07-19.82-43.33-42.18-51.31-20.94-7.46-48.59-4-58.74,16a35.11,35.11,0,0,0-1.71,4c0,.17-.11.34-.17.51-.25.74-.49,1.49-.7,2.22h0a39.37,39.37,0,0,0-.94,4.09c-3.64,20.47,10.38,37.29,39.64,47.72,32.43,11.56,56.14,2.72,63.1-16.94C323.65,353.22,323.94,352.3,324.2,351.39Zm-51.48-16.78c-11.74-4.17-20.55-9.22-19.61-11.91,1.06-3,15.81.3,22.77,2.73,14.92,5.22,20.58,10.24,19.9,12.18S283.49,338.45,272.72,334.61Z" style="fill:#FFA52E"></path><path d="M324.2,351.39c.33-1.2.61-2.38.82-3.55,4.87-26.07-19.82-43.33-42.18-51.31-20.94-7.46-48.59-4-58.74,16a35.11,35.11,0,0,0-1.71,4c0,.17-.11.34-.17.51-.25.74-.49,1.49-.7,2.22h0a39.37,39.37,0,0,0-.94,4.09c-3.64,20.47,10.38,37.29,39.64,47.72,32.43,11.56,56.14,2.72,63.1-16.94C323.65,353.22,323.94,352.3,324.2,351.39Zm-51.48-16.78c-11.74-4.17-20.55-9.22-19.61-11.91,1.06-3,15.81.3,22.77,2.73,14.92,5.22,20.58,10.24,19.9,12.18S283.49,338.45,272.72,334.61Z" style="fill:#fff;opacity:0.6000000000000001"></path><g style="opacity:0.9"><path d="M220.58,323.38c-3.64,20.47,10.38,37.29,39.63,47.72,32.45,11.56,56.15,2.72,63.11-16.94.33-.94.62-1.86.88-2.77-5.7,11.44-28.62,25.69-61.91,13.82C234.37,355.26,218.86,338.12,220.58,323.38Z" style="opacity:0.1"></path><path d="M232.28,343.76c9.1,8.47,20.51,14.08,33.61,17.83,23.43,6.71,40.79,2.85,46.91-1.12.17-.11.32.17.15.31-4.83,4.3-22.23,10.58-47,3.47-16.54-4.76-29.11-14.42-34.15-19.76C231.53,344.17,232,343.45,232.28,343.76Z" style="fill:#fcf8eb"></path><path d="M226.71,337.9a10.3,10.3,0,0,1,1.72,1.71,6.59,6.59,0,0,1,1.4,2c.07.19-.13.42-.27.34a7,7,0,0,1-3.18-3.72C226.31,338,226.54,337.77,226.71,337.9Z" style="fill:#fcf8eb"></path><path d="M230.79,342.52c.4.15.12.94-.28.8S230.39,342.38,230.79,342.52Z" style="fill:#fcf8eb"></path><path d="M225.44,336a1.66,1.66,0,0,1,.66,1.25.15.15,0,0,1-.13.14c-.21,0-.4-.16-.54-.31a1.15,1.15,0,0,1-.35-.7C225.05,336.21,225.27,336,225.44,336Z" style="fill:#fcf8eb"></path><path d="M259.11,329.07c4.84,4.33,10.86,7.24,17.75,9.24,12.32,3.58,21.38,1.8,24.55-.13.09-.05.16.09.08.16-2.49,2.11-11.54,5.1-24.56,1.3a44.92,44.92,0,0,1-18.05-10.21C258.72,329.27,258.93,328.91,259.11,329.07Z" style="fill:#fcf8eb"></path></g><path d="M324.51,350.18c.2-.79.37-1.57.51-2.35,4.87-26.06-19.82-43.32-42.18-51.3-19-6.76-43.45-4.56-55.43,10.81h0c-4,2.81-4.84,7.92-5.89,9.69s-2,5.33-.93,6.34,2-.79,3.3-.25.2,6.23,1.72,8.68,4.1,3.11,6.05,4.77c1.21,1,.68,3.11,1.55,4.86.55,1.1,2.6,1.82,3.06,2.87a16,16,0,0,0,2.1,3.92c1.7,1.72,4.31,1.27,5.09,1.77s1.39,2.34,2.53,2.88,9.24,1.46,11.17,2.14,4.88,5.9,7.49,7,3.75,0,5.42.63c2.37.95,2.07,3.4,4.68,3.77,3.25.47,3.87-1.59,5.41-1.87,1.83-.32,2.56,1.12,5.13,1.56s6.49-2.53,8.54-2.58,2.58.85,4,.48,3.36-2.39,5.91-2.26,2.88,1.7,5.41,1.4,4.39-1.8,6.58-3.46,2.28-1,4.32-2.66.87-3.49,2.68-5.34C323.53,351,324.05,350.59,324.51,350.18Zm-28.73-12.57c-3,1.59-12.3.84-23.06-3-11.75-4.17-19.43-9.07-19.6-11.91a1.43,1.43,0,0,1,.07-.58l.06-.13c1-1.86,3.29-3.05,4.33-2.86s1.88,1.06,3.29.93,5.4-1.43,7.25-1.19,1.62,1.55,3.26,2.12,3.11-.34,3.73,0,1.42,2.1,2.6,2.63,2.4-.36,4.05.45,1.36,1.82,2.58,2.25,4.44,1,6,2.12,1.46,1.83,2.76,2.46,1.16,0,1.95.91,2.05,2.65,1.74,4a1.56,1.56,0,0,1,0,.61l-.06.21A1.9,1.9,0,0,1,295.78,337.61Z" style="fill:#FFA52E"></path><path d="M324.51,350.18c.2-.79.37-1.57.51-2.35,4.87-26.06-19.82-43.32-42.18-51.3-19-6.76-43.45-4.56-55.43,10.81h0c-4,2.81-4.84,7.92-5.89,9.69s-2,5.33-.93,6.34,2-.79,3.3-.25.2,6.23,1.72,8.68,4.1,3.11,6.05,4.77c1.21,1,.68,3.11,1.55,4.86.55,1.1,2.6,1.82,3.06,2.87a16,16,0,0,0,2.1,3.92c1.7,1.72,4.31,1.27,5.09,1.77s1.39,2.34,2.53,2.88,9.24,1.46,11.17,2.14,4.88,5.9,7.49,7,3.75,0,5.42.63c2.37.95,2.07,3.4,4.68,3.77,3.25.47,3.87-1.59,5.41-1.87,1.83-.32,2.56,1.12,5.13,1.56s6.49-2.53,8.54-2.58,2.58.85,4,.48,3.36-2.39,5.91-2.26,2.88,1.7,5.41,1.4,4.39-1.8,6.58-3.46,2.28-1,4.32-2.66.87-3.49,2.68-5.34C323.53,351,324.05,350.59,324.51,350.18Zm-28.73-12.57c-3,1.59-12.3.84-23.06-3-11.75-4.17-19.43-9.07-19.6-11.91a1.43,1.43,0,0,1,.07-.58l.06-.13c1-1.86,3.29-3.05,4.33-2.86s1.88,1.06,3.29.93,5.4-1.43,7.25-1.19,1.62,1.55,3.26,2.12,3.11-.34,3.73,0,1.42,2.1,2.6,2.63,2.4-.36,4.05.45,1.36,1.82,2.58,2.25,4.44,1,6,2.12,1.46,1.83,2.76,2.46,1.16,0,1.95.91,2.05,2.65,1.74,4a1.56,1.56,0,0,1,0,.61l-.06.21A1.9,1.9,0,0,1,295.78,337.61Z" style="opacity:0.7000000000000001"></path><path d="M227.23,323.31c.31,2.11.05,4.43,1.2,6a1.11,1.11,0,0,0,.32.18c2.68,1.24,6.6,2.72,6.68,6.24.15,1.88-.47,3.58.38,5.32-1.89-1.43-1.41-4.29-2.29-6.18-1.34-1.84-3.84-2.64-5.76-3.86-2.39-1.69-1.24-5.55-.53-7.72Z" style="fill:#fff"></path><path d="M314.43,356.63c2.16-1.75,2.63-4.44,4.24-6.66,3.18-3,4.54-7.09,5.32-11.4a12.43,12.43,0,0,1-3.84,12.58c-1.62,1.9-3,4.9-5.72,5.48Z" style="fill:#fff"></path><path d="M248.62,301.28c14.1-6.58,31.06-3.16,44.22,4.15,1.88,1.11,3.7,2.31,5.5,3.53-2-.84-4-1.79-5.93-2.65-13.68-5.8-29.15-9-43.79-5Z" style="fill:#fff"></path><path d="M271.67,337.4c4.09,1.43,26.11,6.31,26.91.3a2.76,2.76,0,0,1-.38,1.86c-4.61,5.66-21.51,2-26.53-2.16Z" style="fill:#fff"></path><path d="M65.17,452.93c10.35,4.94,39.59,2.91,96-39,8.57-6.36-9.95-80.81-20.17-75.73-12.88,6.39-43,28.92-46.28,31.38C66.93,390.43,53.26,447.24,65.17,452.93Z" style="fill:#d3766a"></path><path d="M124.56,352.07s20.63-22.68,35.15-31.24c19.45-11.46,41-13.35,50-13.6,18.92-.52,65,11.31,63.92,25.18-1,12.56-47.49-1.91-47.49-1.91S276,337.43,272,352.33s-57-5-57-5,51.07,8.27,44.54,23c-4.93,11.13-54-4.16-54-4.16s43.84,7.41,39.26,19.06c-5.06,12.88-51.21,1.61-51.21,1.61-16.62,27.67-35.86,34-50.08,36.95C140.14,424.51,124.56,352.07,124.56,352.07Z" style="fill:#d3766a"></path><path d="M209.07,327c5.89.6,11.85,1.17,17.66,2.29s11.59,2.45,17.27,4.11c13.93,4.07,22,8.8,21.49,8.56-12.57-5.62-33.31-10-39.12-11.08s-11.55-2.54-17.35-3.66C208.88,327.19,208.93,327,209.07,327Z" style="fill:#263238"></path><path d="M204.63,347.91c7.49,1.09,15,1.9,22.39,3.33s14.3,3.41,21.58,5.33c.56.15.29.4-.28.28-7.35-1.63-14.27-2.57-21.64-4.12s-14.69-3.38-22.09-4.65C204.48,348.06,204.52,347.89,204.63,347.91Z" style="fill:#263238"></path><path d="M197.6,365.17c11.52,1.09,22.82,4.3,33.84,7.71.55.17.17.46-.4.32-11.2-2.78-20-5-33.48-7.63C197.35,365.53,197.36,365.15,197.6,365.17Z" style="fill:#263238"></path><path d="M193.66,386.85c12.19,2.58,24.71,4.9,37.18,4.5a27.43,27.43,0,0,0,8.92-1.69c4.7-1.94,5.72-6.18,1.62-9.5-5.43-4.64-13.71-7.47-20.16-10.52,10.81,2,22.69,5.26,33.63,2.78,8.64-2.72,2.79-9.06-2.17-12.14-2.84-2-7-3.82-10.1-5.35,6.89,1.66,14.23,3.44,21.36,2.72a12.05,12.05,0,0,0,5.21-1.63,11.93,11.93,0,0,1-5.16,2,51,51,0,0,1-16.66-.79l.35-1.07c4.74,2.21,14.76,7.15,13,13.59-3.3,8.6-23.83,4.91-31.08,3.64l.62-1.89c5.19,2.54,13.18,5.66,15.38,11.48,1.12,3.65-2,7.17-5.19,8.3-12.33,4.42-34.23-1-46.78-4.41Z" style="fill:#263238"></path><path d="M133.88,342.26c-9.39,6.56-18.82,13.06-28.06,19.82A118.69,118.69,0,0,0,92.59,372.8,115.26,115.26,0,0,0,75.07,395a97.16,97.16,0,0,0-5.4,10.07c4.12-12.78,11.94-24.37,21.55-33.72,7-6.63,15.22-11.78,23.14-17.1q9.61-6.24,19.52-12Z" style="fill:#263238"></path></g><g id="freepik--speech-bubble--inject-21"><path d="M367,110.82a50.28,50.28,0,0,1-84,31.81l-25.16,3.69,12.59-21.75A50.29,50.29,0,1,1,367,110.82Z" style="fill:#fff"></path><path d="M367,110.82a50.64,50.64,0,0,1-10.15,25.49,55.5,55.5,0,0,1-4.56,5.25,57,57,0,0,1-5.3,4.5,49.71,49.71,0,0,1-12.13,6.75A50.39,50.39,0,0,1,321.35,156a49.44,49.44,0,0,1-7,.13,44,44,0,0,1-7-.72,50.79,50.79,0,0,1-24.88-12.29l.6.19L258,147.2l-1.82.29.92-1.61,12.52-21.8-.06.86a50.86,50.86,0,0,1,3.09-44.82,51.66,51.66,0,0,1,15.75-16.77A50.79,50.79,0,0,1,367,110.82Zm0,0A49.75,49.75,0,0,0,310,56.4a49.44,49.44,0,0,0-20.77,8.2,51.91,51.91,0,0,0-15,16.42,49.66,49.66,0,0,0-6.39,21.27,50.33,50.33,0,0,0,3.54,21.91l.19.45-.24.41-12.67,21.71-.9-1.33,25.19-3.52.34,0,.25.23a49.5,49.5,0,0,0,24.08,12.4,42.35,42.35,0,0,0,6.82.83,48,48,0,0,0,20.32-3,46.93,46.93,0,0,0,12.13-6.53,45.43,45.43,0,0,0,9.88-9.63A50.53,50.53,0,0,0,367,110.82Z" style="fill:#263238"></path><path d="M338.34,115.07a65.79,65.79,0,0,1-21.13,18.33,65.82,65.82,0,0,1-21.12-18.33c-7.43-9.84-7.07-25.25,3.57-28.58,11.77-3.68,17.55,14,17.55,14s5.87-17.82,17.56-14C345.37,89.94,345.77,105.23,338.34,115.07Z" style="fill:#FFA52E"></path></g><g id="freepik--Box--inject-21"><path d="M399.42,340.82c-1.25,0-2.46.1-3.64.23-26.36,2.89-35.74,31.51-36.91,55.22-1.09,22.21,10.22,47.68,32.32,51.6a31.9,31.9,0,0,0,4.32.47l.54,0c.79,0,1.57,0,2.33,0h0a40.74,40.74,0,0,0,4.19-.28c20.64-2.44,32.7-20.72,34.21-51.75,1.69-34.39-13.63-54.53-34.46-55.5C401.33,340.81,400.37,340.8,399.42,340.82ZM398.25,395c-.6,12.45-2.89,22.33-5.74,22.21-3.19-.14-4.28-15.22-4-22.58.68-15.8,3.85-22.67,5.9-22.58S398.81,383.53,398.25,395Z" style="fill:#FFA52E"></path><path d="M399.42,340.82c-1.25,0-2.46.1-3.64.23-26.36,2.89-35.74,31.51-36.91,55.22-1.09,22.21,10.22,47.68,32.32,51.6a31.9,31.9,0,0,0,4.32.47l.54,0c.79,0,1.57,0,2.33,0h0a40.74,40.74,0,0,0,4.19-.28c20.64-2.44,32.7-20.72,34.21-51.75,1.69-34.39-13.63-54.53-34.46-55.5C401.33,340.81,400.37,340.8,399.42,340.82ZM398.25,395c-.6,12.45-2.89,22.33-5.74,22.21-3.19-.14-4.28-15.22-4-22.58.68-15.8,3.85-22.67,5.9-22.58S398.81,383.53,398.25,395Z" style="fill:#fff;opacity:0.6000000000000001"></path><g style="opacity:0.9"><path d="M402.58,448.11c20.64-2.44,32.69-20.72,34.21-51.74,1.69-34.41-13.63-54.54-34.46-55.51-1-.05-2-.06-2.91,0,12.6,2.14,32.86,20,31.13,55.26C429.1,425.69,417.18,445.49,402.58,448.11Z" style="opacity:0.1"></path><path d="M418.7,431c5.48-11.16,7.55-23.71,7.35-37.33-.35-24.36-9.07-39.87-14.64-44.58-.15-.13.07-.35.25-.24,5.51,3.39,16.56,18.22,16.91,44,.23,17.21-5.39,32-9,38.4C419.31,431.61,418.5,431.42,418.7,431Z" style="fill:#fcf8eb"></path><path d="M414.7,438a10.08,10.08,0,0,1,1.15-2.14,6.29,6.29,0,0,1,1.51-1.92c.16-.12.44,0,.41.15a7,7,0,0,1-2.64,4.13C414.92,438.39,414.63,438.24,414.7,438Z" style="fill:#fcf8eb"></path><path d="M418,432.79c0-.42.86-.38.84,0S417.93,433.22,418,432.79Z" style="fill:#fcf8eb"></path><path d="M413.29,439.79a1.12,1.12,0,0,1,.4-.62,1.2,1.2,0,0,1,.61-.38.16.16,0,0,1,.17.09c.08.2-.05.43-.15.61a1.18,1.18,0,0,1-.56.54C413.56,440.12,413.25,440,413.29,439.79Z" style="fill:#fcf8eb"></path><path d="M396.88,409.58c2.74-5.89,3.79-12.5,3.71-19.67-.14-12.83-4.46-21-7.23-23.46-.07-.07,0-.18.13-.12,2.74,1.77,8.22,9.57,8.36,23.13a44.9,44.9,0,0,1-4.56,20.23C397.18,409.9,396.78,409.8,396.88,409.58Z" style="fill:#fcf8eb"></path></g><path d="M398.17,340.86c-.81.05-1.6.11-2.39.19-26.36,2.89-35.74,31.51-36.91,55.22-1,20.12,8.2,42.92,26.37,49.94h0c3.85,3,9,2.35,11,2.83s5.67.36,6.34-.93-1.34-1.7-1.2-3.09,5.91-2,7.81-4.16S411,436,412,433.69c.64-1.46,2.78-1.55,4.21-2.89.89-.85,1-3,1.85-3.76a16,16,0,0,0,3.15-3.14c1.16-2.12,0-4.49.23-5.38s1.83-2,2-3.27S422.2,406,422.29,404s4.23-6.38,4.57-9.2-1.11-3.59-1-5.38c.22-2.54,2.65-3,2.25-5.57-.49-3.25-2.64-3.24-3.35-4.64-.84-1.66.33-2.77,0-5.36s-4.31-5.48-4.94-7.43.07-2.71-.71-4-3.26-2.53-3.87-5,.78-3.26-.23-5.59-3-3.68-5.22-5.3-1.62-1.89-3.79-3.36-3.59.17-5.89-1C399.2,341.58,398.7,341.18,398.17,340.86ZM394.45,372c2.4,2.44,4.36,11.53,3.8,22.94-.6,12.46-3.06,21.23-5.74,22.22a1.39,1.39,0,0,1-.57.09l-.15,0c-2.05-.4-3.86-2.26-4-3.31s.47-2.11-.07-3.42-2.92-4.75-3.23-6.6,1-2,1.09-3.73-1.23-2.88-1.1-3.57,1.6-2,1.76-3.25-1-2.18-.74-4,1.35-1.83,1.41-3.12-.35-4.54.28-6.4,1.33-1.92,1.56-3.35-.33-1.11.3-2.13,1.95-2.73,3.35-2.83a1.81,1.81,0,0,1,.59-.17h.21A1.9,1.9,0,0,1,394.45,372Z" style="fill:#FFA52E"></path><path d="M398.17,340.86c-.81.05-1.6.11-2.39.19-26.36,2.89-35.74,31.51-36.91,55.22-1,20.12,8.2,42.92,26.37,49.94h0c3.85,3,9,2.35,11,2.83s5.67.36,6.34-.93-1.34-1.7-1.2-3.09,5.91-2,7.81-4.16S411,436,412,433.69c.64-1.46,2.78-1.55,4.21-2.89.89-.85,1-3,1.85-3.76a16,16,0,0,0,3.15-3.14c1.16-2.12,0-4.49.23-5.38s1.83-2,2-3.27S422.2,406,422.29,404s4.23-6.38,4.57-9.2-1.11-3.59-1-5.38c.22-2.54,2.65-3,2.25-5.57-.49-3.25-2.64-3.24-3.35-4.64-.84-1.66.33-2.77,0-5.36s-4.31-5.48-4.94-7.43.07-2.71-.71-4-3.26-2.53-3.87-5,.78-3.26-.23-5.59-3-3.68-5.22-5.3-1.62-1.89-3.79-3.36-3.59.17-5.89-1C399.2,341.58,398.7,341.18,398.17,340.86ZM394.45,372c2.4,2.44,4.36,11.53,3.8,22.94-.6,12.46-3.06,21.23-5.74,22.22a1.39,1.39,0,0,1-.57.09l-.15,0c-2.05-.4-3.86-2.26-4-3.31s.47-2.11-.07-3.42-2.92-4.75-3.23-6.6,1-2,1.09-3.73-1.23-2.88-1.1-3.57,1.6-2,1.76-3.25-1-2.18-.74-4,1.35-1.83,1.41-3.12-.35-4.54.28-6.4,1.33-1.92,1.56-3.35-.33-1.11.3-2.13,1.95-2.73,3.35-2.83a1.81,1.81,0,0,1,.59-.17h.21A1.9,1.9,0,0,1,394.45,372Z" style="opacity:0.7000000000000001"></path><path d="M400.59,441.76c1.92-.91,4.22-1.32,5.41-2.89a1.05,1.05,0,0,0,.08-.36c.41-2.92.69-7.11,4.05-8.19,1.75-.7,3.56-.59,5-1.9-.81,2.21-3.7,2.58-5.25,4-1.38,1.82-1.42,4.44-2,6.63-.93,2.78-4.95,2.79-7.23,2.74Z" style="fill:#fff"></path><path d="M407.26,348.65c-2.3-1.57-5-1.24-7.6-2.13-3.83-2.17-8.1-2.3-12.45-1.79a12.42,12.42,0,0,1,13.15,0c2.29,1,5.56,1.45,6.9,3.89Z" style="fill:#fff"></path><path d="M373.31,427.66c-10.37-11.59-12-28.83-8.82-43.54.53-2.11,1.14-4.21,1.79-6.28-.22,2.18-.57,4.31-.82,6.45-1.6,14.76-.2,30.51,7.85,43.37Z" style="fill:#fff"></path><path d="M401.22,395.14c.19-4.33-1.51-26.81-7.49-25.84a2.7,2.7,0,0,1,1.89-.17c6.74,2.77,8.15,20,5.6,26Z" style="fill:#fff"></path><path d="M371.56,342.38c-1.2-.3-2.39-.55-3.57-.74-26.18-4.18-42.8,20.95-50.19,43.51-6.92,21.12-2.75,48.68,17.54,58.3a33,33,0,0,0,4,1.6l.51.16c.75.24,1.5.45,2.24.64h0c1.39.35,2.76.63,4.11.83,20.56,3.1,37-11.34,46.68-40.86,10.71-32.73,1.27-56.2-18.57-62.64C373.41,342.88,372.48,342.61,371.56,342.38Zm-15.43,51.9c-3.87,11.84-8.69,20.77-11.41,19.9-3-1-.1-15.81,2.15-22.82,4.83-15.06,9.7-20.85,11.66-20.22S359.69,383.41,356.13,394.28Z" style="fill:#FFA52E"></path><path d="M371.56,342.38c-1.2-.3-2.39-.55-3.57-.74-26.18-4.18-42.8,20.95-50.19,43.51-6.92,21.12-2.75,48.68,17.54,58.3a33,33,0,0,0,4,1.6l.51.16c.75.24,1.5.45,2.24.64h0c1.39.35,2.76.63,4.11.83,20.56,3.1,37-11.34,46.68-40.86,10.71-32.73,1.27-56.2-18.57-62.64C373.41,342.88,372.48,342.61,371.56,342.38Zm-15.43,51.9c-3.87,11.84-8.69,20.77-11.41,19.9-3-1-.1-15.81,2.15-22.82,4.83-15.06,9.7-20.85,11.66-20.22S359.69,383.41,356.13,394.28Z" style="fill:#fff;opacity:0.6000000000000001"></path><g style="opacity:0.9"><path d="M346.25,446.69c20.56,3.1,37-11.34,46.68-40.86,10.72-32.73,1.26-56.2-18.57-62.64-.95-.31-1.88-.58-2.8-.81,11.59,5.4,26.42,27.94,15.43,61.52C377.76,432.08,361,448,346.25,446.69Z" style="opacity:0.1"></path><path d="M366.32,434.46c8.23-9.31,13.55-20.87,17-34.06,6.1-23.59,1.78-40.85-2.34-46.87-.11-.16.16-.31.3-.15,4.43,4.71,11.16,21.94,4.69,46.86-4.33,16.66-13.66,29.47-18.87,34.65C366.75,435.2,366,434.81,366.32,434.46Z" style="fill:#fcf8eb"></path><path d="M360.6,440.18a10.71,10.71,0,0,1,1.68-1.76,6.54,6.54,0,0,1,2-1.45c.19-.08.43.12.36.26a7.05,7.05,0,0,1-3.64,3.28C360.73,440.58,360.49,440.36,360.6,440.18Z" style="fill:#fcf8eb"></path><path d="M365.12,436c.14-.4.94-.14.8.26S365,436.39,365.12,436Z" style="fill:#fcf8eb"></path><path d="M358.78,441.5a1.15,1.15,0,0,1,.56-.5,1.11,1.11,0,0,1,.68-.19.15.15,0,0,1,.14.12c0,.22-.16.41-.3.55a1.14,1.14,0,0,1-.69.37C359,441.88,358.7,441.67,358.78,441.5Z" style="fill:#fcf8eb"></path><path d="M350.94,408c4.2-4.94,7-11,8.78-18C363,377.63,361,368.62,359,365.5c-.05-.08.08-.16.15-.08,2.18,2.43,5.4,11.4,1.95,24.51a44.88,44.88,0,0,1-9.74,18.31C351.15,408.41,350.79,408.21,350.94,408Z" style="fill:#fcf8eb"></path></g><path d="M370.35,342.1c-.8-.18-1.58-.33-2.36-.46-26.18-4.18-42.8,20.95-50.19,43.5-6.27,19.14-3.44,43.56,12.24,55.14h0c2.91,3.93,8,4.63,9.84,5.63s5.38,1.83,6.36.77-.84-2-.34-3.29,6.23-.37,8.63-1.95,3-4.18,4.62-6.17c1-1.24,3.09-.76,4.82-1.68,1.08-.58,1.75-2.64,2.79-3.13a16.28,16.28,0,0,0,3.86-2.2c1.68-1.74,1.16-4.34,1.64-5.13s2.3-1.46,2.82-2.61,1.22-9.27,1.84-11.22,5.77-5,6.84-7.67-.12-3.75.5-5.43c.88-2.4,3.34-2.16,3.64-4.78.39-3.26-1.69-3.83-2-5.36-.37-1.82,1-2.58,1.42-5.17s-2.7-6.42-2.8-8.47.79-2.6.37-4.05-2.47-3.3-2.41-5.85,1.62-2.92,1.26-5.45-1.91-4.34-3.63-6.49-1.06-2.25-2.77-4.24-3.51-.78-5.41-2.55C371.15,343.06,370.77,342.54,370.35,342.1Zm-11.82,29c1.67,3,1.16,12.27-2.4,23.13-3.87,11.85-8.56,19.67-11.41,19.91a1.37,1.37,0,0,1-.57-.06l-.14-.06c-1.87-.92-3.13-3.2-3-4.24s1-1.92.84-3.33-1.57-5.35-1.38-7.21,1.5-1.66,2-3.31-.42-3.11-.11-3.73,2.06-1.48,2.56-2.67-.43-2.38.34-4.06,1.78-1.41,2.19-2.63.85-4.47,2-6.1,1.79-1.5,2.39-2.82,0-1.16.85-2,2.6-2.12,4-1.85a1.57,1.57,0,0,1,.61,0l.21.05A1.91,1.91,0,0,1,358.53,371.14Z" style="fill:#FFA52E"></path><path d="M348.71,440.39a15.26,15.26,0,0,0,4.4-1.18,1.5,1.5,0,0,0,.67-1c1-2.45,2.08-5.92,5.08-6.49,1.77-.32,3.24.14,4.68-.74-1.14,2.21-4.47,1.4-5.68,3.4-1,1.45-1.85,3.64-2.76,5.19-1.55,2-4.36,1.37-6.39.79Z" style="fill:#fff"></path><path d="M383.43,390.73c1-2.42-1-4.53-.3-7.08.34-1.4,1.17-2.65,1-4-.39-1.72-1.45-3.62-1.61-5.49a2.34,2.34,0,0,1,.14-1.23c.87,3,4.56,5.57,3.15,9.11-.49,1.53-1.2,2.43-1.08,4.09.11,1.48.11,3.6-1.26,4.59Z" style="fill:#fff"></path><path d="M377.06,352c-1.81-2.11-4.51-2.51-6.77-4.06-3.12-3.1-7.2-4.36-11.54-5a12.45,12.45,0,0,1,12.68,3.51c1.94,1.57,5,2.87,5.63,5.57Z" style="fill:#fff"></path><path d="M330.18,430a1.28,1.28,0,0,1-1,.87,1.39,1.39,0,0,1-1.62-1,18.08,18.08,0,0,1,0-7.29,1.33,1.33,0,0,1,1.61-1,1.35,1.35,0,0,1,1,1.58,15.9,15.9,0,0,0,0,6.17A1.22,1.22,0,0,1,330.18,430Z" style="fill:#fff"></path><path d="M346.49,416.71a1.36,1.36,0,0,1,1.28-.42,1.34,1.34,0,0,1,1.09,1.54,17.6,17.6,0,0,1-2.95,6.65,1.39,1.39,0,0,1-1.89.27,1.28,1.28,0,0,1-.32-1.83,15.61,15.61,0,0,0,2.5-5.62A1.22,1.22,0,0,1,346.49,416.71Z" style="fill:#fff"></path><path d="M372.49,399.82a1.39,1.39,0,0,1-1.34.21,1.33,1.33,0,0,1-.82-1.69,18,18,0,0,1,4.08-6,1.39,1.39,0,0,1,1.91,0,1.27,1.27,0,0,1,0,1.85,15.71,15.71,0,0,0-3.45,5.11A1.23,1.23,0,0,1,372.49,399.82Z" style="fill:#fff"></path><path d="M333.17,361.34a1.4,1.4,0,0,1-1.09-.82,1.26,1.26,0,0,1,.71-1.69,19.66,19.66,0,0,1,7.45-1.13,1.38,1.38,0,0,1,1.31,1.38,1.29,1.29,0,0,1-1.4,1.23,17.35,17.35,0,0,0-6.3.95A1.44,1.44,0,0,1,333.17,361.34Z" style="fill:#fff"></path><path d="M371.09,376.28a1.3,1.3,0,0,1,.31,1.29,1.33,1.33,0,0,1-1.69.82,20.15,20.15,0,0,1-6.57-3.78,1.29,1.29,0,0,1-.1-1.85,1.38,1.38,0,0,1,1.91-.05,17.74,17.74,0,0,0,5.56,3.21A1.33,1.33,0,0,1,371.09,376.28Z" style="fill:#fff"></path><path d="M321.61,413a1.41,1.41,0,0,1-1.26-.55,1.27,1.27,0,0,1,.28-1.82,19.41,19.41,0,0,1,6.91-2.79,1.4,1.4,0,0,1,1.61,1.05,1.28,1.28,0,0,1-1,1.52,16.73,16.73,0,0,0-5.85,2.36A1.34,1.34,0,0,1,321.61,413Z" style="fill:#fff"></path><path d="M340.24,368.17a1.35,1.35,0,0,1,.44.95,16.15,16.15,0,0,0,1.43,6.05,1.26,1.26,0,0,1-.63,1.73,1.42,1.42,0,0,1-1.81-.65,18.67,18.67,0,0,1-1.7-7.16,1.28,1.28,0,0,1,1.33-1.29A1.43,1.43,0,0,1,340.24,368.17Z" style="fill:#FFA52E"></path><path d="M340.24,368.17a1.35,1.35,0,0,1,.44.95,16.15,16.15,0,0,0,1.43,6.05,1.26,1.26,0,0,1-.63,1.73,1.42,1.42,0,0,1-1.81-.65,18.67,18.67,0,0,1-1.7-7.16,1.28,1.28,0,0,1,1.33-1.29A1.43,1.43,0,0,1,340.24,368.17Z" style="fill:#fff;opacity:0.6000000000000001"></path><path d="M344.15,436.33a1.31,1.31,0,0,1-.92.5,16.82,16.82,0,0,0-6,1.92,1.41,1.41,0,0,1-1.87-.45,1.26,1.26,0,0,1,.42-1.79,19.29,19.29,0,0,1,7.13-2.28,1.4,1.4,0,0,1,1.52,1.17A1.26,1.26,0,0,1,344.15,436.33Z" style="fill:#FFA52E"></path><path d="M344.15,436.33a1.31,1.31,0,0,1-.92.5,16.82,16.82,0,0,0-6,1.92,1.41,1.41,0,0,1-1.87-.45,1.26,1.26,0,0,1,.42-1.79,19.29,19.29,0,0,1,7.13-2.28,1.4,1.4,0,0,1,1.52,1.17A1.26,1.26,0,0,1,344.15,436.33Z" style="fill:#fff;opacity:0.6000000000000001"></path><path d="M366.44,356.21a1.33,1.33,0,0,1-.69-.81,16.7,16.7,0,0,0-3.09-5.48,1.27,1.27,0,0,1,.12-1.84,1.39,1.39,0,0,1,1.91.16,19.09,19.09,0,0,1,3.65,6.48,1.26,1.26,0,0,1-.91,1.6A1.4,1.4,0,0,1,366.44,356.21Z" style="fill:#FFA52E"></path><path d="M366.44,356.21a1.33,1.33,0,0,1-.69-.81,16.7,16.7,0,0,0-3.09-5.48,1.27,1.27,0,0,1,.12-1.84,1.39,1.39,0,0,1,1.91.16,19.09,19.09,0,0,1,3.65,6.48,1.26,1.26,0,0,1-.91,1.6A1.4,1.4,0,0,1,366.44,356.21Z" style="fill:#fff;opacity:0.6000000000000001"></path><path d="M361.34,420.82a1.28,1.28,0,0,1-.58.86,16.12,16.12,0,0,0-4.45,4.32,1.36,1.36,0,0,1-1.86.39,1.3,1.3,0,0,1-.46-1.8,18.2,18.2,0,0,1,5.26-5.12,1.4,1.4,0,0,1,1.88.4A1.33,1.33,0,0,1,361.34,420.82Z" style="fill:#FFA52E"></path><path d="M361.34,420.82a1.28,1.28,0,0,1-.58.86,16.12,16.12,0,0,0-4.45,4.32,1.36,1.36,0,0,1-1.86.39,1.3,1.3,0,0,1-.46-1.8,18.2,18.2,0,0,1,5.26-5.12,1.4,1.4,0,0,1,1.88.4A1.33,1.33,0,0,1,361.34,420.82Z" style="fill:#fff;opacity:0.6000000000000001"></path><path d="M331.35,396.38a1.3,1.3,0,0,1,.31,1,15.9,15.9,0,0,0,.62,6.16,1.26,1.26,0,0,1-.86,1.63,1.4,1.4,0,0,1-1.71-.87A18.21,18.21,0,0,1,329,397a1.3,1.3,0,0,1,1.5-1.11A1.35,1.35,0,0,1,331.35,396.38Z" style="fill:#FFA52E"></path><path d="M331.35,396.38a1.3,1.3,0,0,1,.31,1,15.9,15.9,0,0,0,.62,6.16,1.26,1.26,0,0,1-.86,1.63,1.4,1.4,0,0,1-1.71-.87A18.21,18.21,0,0,1,329,397a1.3,1.3,0,0,1,1.5-1.11A1.35,1.35,0,0,1,331.35,396.38Z" style="fill:#fff;opacity:0.6000000000000001"></path><path d="M375.92,369.69a1.29,1.29,0,0,1,.31,1,15.91,15.91,0,0,0,.64,6.16,1.27,1.27,0,0,1-.86,1.63,1.39,1.39,0,0,1-1.71-.87,18.24,18.24,0,0,1-.76-7.28,1.31,1.31,0,0,1,1.5-1.11A1.34,1.34,0,0,1,375.92,369.69Z" style="fill:#FFA52E"></path><path d="M375.92,369.69a1.29,1.29,0,0,1,.31,1,15.91,15.91,0,0,0,.64,6.16,1.27,1.27,0,0,1-.86,1.63,1.39,1.39,0,0,1-1.71-.87,18.24,18.24,0,0,1-.76-7.28,1.31,1.31,0,0,1,1.5-1.11A1.34,1.34,0,0,1,375.92,369.69Z" style="fill:#fff;opacity:0.6000000000000001"></path><path d="M361.89,405.54a1.34,1.34,0,0,1-.51-.93,16.5,16.5,0,0,0-1.85-5.95,1.26,1.26,0,0,1,.51-1.77,1.39,1.39,0,0,1,1.84.54,18.54,18.54,0,0,1,2.2,7,1.28,1.28,0,0,1-1.24,1.38A1.39,1.39,0,0,1,361.89,405.54Z" style="fill:#FFA52E"></path><path d="M361.89,405.54a1.34,1.34,0,0,1-.51-.93,16.5,16.5,0,0,0-1.85-5.95,1.26,1.26,0,0,1,.51-1.77,1.39,1.39,0,0,1,1.84.54,18.54,18.54,0,0,1,2.2,7,1.28,1.28,0,0,1-1.24,1.38A1.39,1.39,0,0,1,361.89,405.54Z" style="fill:#fff;opacity:0.6000000000000001"></path><path d="M333,377.68a1.15,1.15,0,0,1-.38.57,15.82,15.82,0,0,0-3.7,4.94,1.34,1.34,0,0,1-1.77.66,1.3,1.3,0,0,1-.73-1.72,18,18,0,0,1,4.37-5.85,1.41,1.41,0,0,1,1.92.13A1.29,1.29,0,0,1,333,377.68Z" style="fill:#fff"></path><path d="M356.57,357a1.33,1.33,0,0,1-.17.66,15.44,15.44,0,0,0-1.81,5.87,1.3,1.3,0,0,1-1.44,1.18,1.35,1.35,0,0,1-1.27-1.41,18,18,0,0,1,2.14-6.95,1.36,1.36,0,0,1,1.84-.47A1.34,1.34,0,0,1,356.57,357Z" style="fill:#fff"></path><path d="M320.92,406.18c-3.82-15.08,2.71-31.11,12.35-42.66,1.45-1.64,3-3.21,4.5-4.74-1.2,1.82-2.5,3.55-3.71,5.33-8.26,12.34-14.32,26.95-13.14,42.07Z" style="fill:#fff"></path><rect x="239.97" y="395.43" width="202.59" height="54.04" style="fill:#FFA52E"></rect><rect x="239.97" y="395.43" width="202.59" height="54.04" style="opacity:0.30000000000000004"></rect><rect x="239.97" y="395.43" width="67.34" height="54.04" style="opacity:0.30000000000000004"></rect></g></svg>