<svg xmlns="http://www.w3.org/2000/svg" viewBox="0 0 500 500"><g id="freepik--background-complete--inject-323"><path d="M386.26,212.05H303.88s4.1-5.33,8.61-6c0,0,8.79-26.14,23.49-26.33,13.67-.17,19.15,16.08,19.15,16.08s6.33-7.29,12.38-4S377,204.72,377,204.72,383.79,208.39,386.26,212.05Z" style="fill:#ebebeb"></path><path d="M37.86,149.48H142s0-6.65-14.36-8c0,0-13.1-29.09-33.1-25.18-12.46,2.44-18.83,19.54-18.83,19.54S66.33,122.42,58.8,125,46.8,142,46.8,142,39,145.72,37.86,149.48Z" style="fill:#ebebeb"></path><path d="M124,79.94h70.83s-6.69-6.22-9.66-6.22-11.64-20.89-22.72-20-17,16.44-17,16.44S132,65.94,124,79.94Z" style="fill:#ebebeb"></path><path d="M73.67,201H144.5s-6.68-6.22-9.65-6.22-11.65-20.89-22.72-20-17,16.44-17,16.44S81.7,187,73.67,201Z" style="fill:#ebebeb"></path><path d="M199.14,99.1h60.57s-3-3.92-6.33-4.41c0,0-6.45-19.23-17.27-19.36C226.06,75.2,222,87.15,222,87.15s-4.65-5.36-9.1-2.91-7,9.47-7,9.47S201,96.4,199.14,99.1Z" style="fill:#ebebeb"></path><path d="M401.57,173h60.57s-3-3.92-6.33-4.41c0,0-6.46-19.22-17.27-19.36-10.05-.13-14.08,11.82-14.08,11.82s-4.65-5.36-9.1-2.91-7,9.47-7,9.47S403.39,170.34,401.57,173Z" style="fill:#ebebeb"></path><rect x="313.04" y="251.32" width="34.68" height="131.54" transform="translate(660.77 634.17) rotate(180)" style="fill:#ebebeb"></rect><rect x="313.04" y="242.59" width="29.75" height="8.72" transform="translate(655.84 493.91) rotate(180)" style="fill:#c7c7c7"></rect><rect x="316.85" y="255.87" width="27.08" height="98.33" transform="translate(660.77 610.08) rotate(180)" style="fill:#dbdbdb"></rect><rect x="316.85" y="265.26" width="27.08" height="2.32" transform="translate(660.77 532.84) rotate(180)" style="fill:#fff"></rect><rect x="316.85" y="274.88" width="27.08" height="2.32" transform="translate(660.77 552.09) rotate(180)" style="fill:#fff"></rect><rect x="316.85" y="284.51" width="27.08" height="2.32" transform="translate(660.77 571.33) rotate(180)" style="fill:#fff"></rect><rect x="316.85" y="294.13" width="27.08" height="2.32" transform="translate(660.77 590.58) rotate(180)" style="fill:#fff"></rect><rect x="316.85" y="303.76" width="27.08" height="2.32" transform="translate(660.77 609.84) rotate(180)" style="fill:#fff"></rect><rect x="316.85" y="313.38" width="27.08" height="2.32" transform="translate(660.77 629.08) rotate(180)" style="fill:#fff"></rect><rect x="316.85" y="323.01" width="27.08" height="2.32" transform="translate(660.77 648.33) rotate(180)" style="fill:#fff"></rect><rect x="316.85" y="332.63" width="27.08" height="2.32" transform="translate(660.77 667.58) rotate(180)" style="fill:#fff"></rect><rect x="316.85" y="342.26" width="27.08" height="2.32" transform="translate(660.77 686.83) rotate(180)" style="fill:#fff"></rect><rect x="316.85" y="351.88" width="27.08" height="2.32" transform="translate(660.77 706.08) rotate(180)" style="fill:#fff"></rect><rect x="291.32" y="251.32" width="21.72" height="131.54" transform="translate(604.36 634.17) rotate(180)" style="fill:#dbdbdb"></rect><rect x="294.58" y="242.59" width="18.46" height="8.72" transform="translate(607.62 493.91) rotate(180)" style="fill:#a6a6a6"></rect><rect x="293.35" y="255.87" width="16.7" height="98.33" transform="translate(603.39 610.08) rotate(180)" style="fill:#c7c7c7"></rect><rect x="293.35" y="265.26" width="16.7" height="2.32" transform="translate(603.39 532.84) rotate(180)" style="fill:#fff"></rect><rect x="293.35" y="274.88" width="16.7" height="2.32" transform="translate(603.39 552.09) rotate(180)" style="fill:#fff"></rect><rect x="293.35" y="284.51" width="16.7" height="2.32" transform="translate(603.39 571.33) rotate(180)" style="fill:#fff"></rect><rect x="293.35" y="294.13" width="16.7" height="2.32" transform="translate(603.39 590.58) rotate(180)" style="fill:#fff"></rect><rect x="293.35" y="303.76" width="16.7" height="2.32" transform="translate(603.39 609.84) rotate(180)" style="fill:#fff"></rect><rect x="293.35" y="313.38" width="16.7" height="2.32" transform="translate(603.39 629.08) rotate(180)" style="fill:#fff"></rect><rect x="293.35" y="323.01" width="16.7" height="2.32" transform="translate(603.39 648.33) rotate(180)" style="fill:#fff"></rect><rect x="293.35" y="332.63" width="16.7" height="2.32" transform="translate(603.39 667.58) rotate(180)" style="fill:#fff"></rect><rect x="293.35" y="342.26" width="16.7" height="2.32" transform="translate(603.39 686.83) rotate(180)" style="fill:#fff"></rect><rect x="293.35" y="351.88" width="16.7" height="2.32" transform="translate(603.39 706.08) rotate(180)" style="fill:#fff"></rect><rect x="117.99" y="199.09" width="35.06" height="183.77" transform="translate(271.04 581.94) rotate(180)" style="fill:#dbdbdb"></rect><rect x="140.79" y="205.06" width="6.81" height="7.02" transform="translate(288.4 417.13) rotate(180)" style="fill:#ebebeb"></rect><rect x="132.08" y="205.06" width="6.81" height="7.02" transform="translate(270.97 417.13) rotate(180)" style="fill:#ebebeb"></rect><rect x="140.79" y="216.97" width="6.81" height="7.02" transform="translate(288.4 440.96) rotate(180)" style="fill:#ebebeb"></rect><rect x="132.08" y="216.97" width="6.81" height="7.02" transform="translate(270.97 440.96) rotate(180)" style="fill:#ebebeb"></rect><rect x="140.79" y="228.88" width="6.81" height="7.02" transform="translate(288.4 464.78) rotate(180)" style="fill:#ebebeb"></rect><rect x="132.08" y="228.88" width="6.81" height="7.02" transform="translate(270.97 464.78) rotate(180)" style="fill:#ebebeb"></rect><rect x="140.79" y="240.8" width="6.81" height="7.02" transform="translate(288.4 488.61) rotate(180)" style="fill:#ebebeb"></rect><rect x="132.08" y="240.8" width="6.81" height="7.02" transform="translate(270.97 488.61) rotate(180)" style="fill:#ebebeb"></rect><rect x="140.79" y="252.71" width="6.81" height="7.02" transform="translate(288.4 512.44) rotate(180)" style="fill:#ebebeb"></rect><rect x="132.08" y="252.71" width="6.81" height="7.02" transform="translate(270.97 512.44) rotate(180)" style="fill:#ebebeb"></rect><rect x="140.79" y="264.62" width="6.81" height="7.02" transform="translate(288.4 536.26) rotate(180)" style="fill:#ebebeb"></rect><rect x="132.08" y="264.62" width="6.81" height="7.02" transform="translate(270.97 536.26) rotate(180)" style="fill:#ebebeb"></rect><rect x="140.79" y="276.54" width="6.81" height="7.02" transform="translate(288.4 560.09) rotate(180)" style="fill:#ebebeb"></rect><rect x="132.08" y="276.54" width="6.81" height="7.02" transform="translate(270.97 560.09) rotate(180)" style="fill:#ebebeb"></rect><rect x="140.79" y="288.45" width="6.81" height="7.02" transform="translate(288.4 583.91) rotate(180)" style="fill:#ebebeb"></rect><rect x="132.08" y="288.45" width="6.81" height="7.02" transform="translate(270.97 583.91) rotate(180)" style="fill:#ebebeb"></rect><rect x="140.79" y="300.36" width="6.81" height="7.02" transform="translate(288.4 607.74) rotate(180)" style="fill:#ebebeb"></rect><rect x="132.08" y="300.36" width="6.81" height="7.02" transform="translate(270.97 607.74) rotate(180)" style="fill:#ebebeb"></rect><rect x="140.79" y="312.27" width="6.81" height="7.02" transform="translate(288.4 631.57) rotate(180)" style="fill:#ebebeb"></rect><rect x="132.08" y="312.27" width="6.81" height="7.02" transform="translate(270.97 631.57) rotate(180)" style="fill:#ebebeb"></rect><rect x="140.79" y="324.19" width="6.81" height="7.02" transform="translate(288.4 655.39) rotate(180)" style="fill:#ebebeb"></rect><rect x="132.08" y="324.19" width="6.81" height="7.02" transform="translate(270.97 655.39) rotate(180)" style="fill:#ebebeb"></rect><rect x="140.79" y="336.1" width="6.81" height="7.02" transform="translate(288.4 679.22) rotate(180)" style="fill:#ebebeb"></rect><rect x="132.08" y="336.1" width="6.81" height="7.02" transform="translate(270.97 679.22) rotate(180)" style="fill:#ebebeb"></rect><rect x="140.79" y="348.01" width="6.81" height="7.02" transform="translate(288.4 703.04) rotate(180)" style="fill:#ebebeb"></rect><rect x="132.08" y="348.01" width="6.81" height="7.02" transform="translate(270.97 703.04) rotate(180)" style="fill:#ebebeb"></rect><rect x="140.79" y="359.93" width="6.81" height="7.02" transform="translate(288.4 726.87) rotate(180)" style="fill:#ebebeb"></rect><rect x="123.43" y="359.93" width="6.81" height="7.02" style="fill:#ebebeb"></rect><rect x="123.43" y="348.01" width="6.81" height="7.02" style="fill:#ebebeb"></rect><rect x="123.43" y="336.1" width="6.81" height="7.02" style="fill:#ebebeb"></rect><rect x="123.43" y="324.19" width="6.81" height="7.02" style="fill:#ebebeb"></rect><rect x="123.43" y="312.27" width="6.81" height="7.02" style="fill:#ebebeb"></rect><rect x="123.43" y="300.36" width="6.81" height="7.02" style="fill:#ebebeb"></rect><rect x="123.43" y="288.45" width="6.81" height="7.02" style="fill:#ebebeb"></rect><rect x="123.43" y="276.54" width="6.81" height="7.02" style="fill:#ebebeb"></rect><rect x="123.43" y="264.62" width="6.81" height="7.02" style="fill:#ebebeb"></rect><rect x="123.43" y="252.71" width="6.81" height="7.02" style="fill:#ebebeb"></rect><rect x="123.43" y="240.8" width="6.81" height="7.02" style="fill:#ebebeb"></rect><rect x="123.43" y="228.88" width="6.81" height="7.02" style="fill:#ebebeb"></rect><rect x="123.43" y="216.97" width="6.81" height="7.02" style="fill:#ebebeb"></rect><rect x="123.43" y="205.06" width="6.81" height="7.02" style="fill:#ebebeb"></rect><rect x="132.08" y="359.93" width="6.81" height="7.02" transform="translate(270.97 726.87) rotate(180)" style="fill:#ebebeb"></rect><rect x="90.35" y="199.09" width="27.64" height="183.77" transform="translate(208.35 581.94) rotate(180)" style="fill:#a6a6a6"></rect><rect x="93.2" y="359.93" width="5.63" height="7.02" style="fill:#c7c7c7"></rect><rect x="100.4" y="359.93" width="5.63" height="7.02" style="fill:#c7c7c7"></rect><rect x="93.2" y="348.01" width="5.63" height="7.02" style="fill:#c7c7c7"></rect><rect x="100.4" y="348.01" width="5.63" height="7.02" style="fill:#c7c7c7"></rect><rect x="93.2" y="336.1" width="5.63" height="7.02" style="fill:#c7c7c7"></rect><rect x="100.4" y="336.1" width="5.63" height="7.02" style="fill:#c7c7c7"></rect><rect x="93.2" y="324.19" width="5.63" height="7.02" style="fill:#c7c7c7"></rect><rect x="100.4" y="324.19" width="5.63" height="7.02" style="fill:#c7c7c7"></rect><rect x="93.2" y="312.27" width="5.63" height="7.02" style="fill:#c7c7c7"></rect><rect x="100.4" y="312.27" width="5.63" height="7.02" style="fill:#c7c7c7"></rect><rect x="93.2" y="300.36" width="5.63" height="7.02" style="fill:#c7c7c7"></rect><rect x="100.4" y="300.36" width="5.63" height="7.02" style="fill:#c7c7c7"></rect><rect x="93.2" y="288.45" width="5.63" height="7.02" style="fill:#c7c7c7"></rect><rect x="100.4" y="288.45" width="5.63" height="7.02" style="fill:#c7c7c7"></rect><rect x="93.2" y="276.54" width="5.63" height="7.02" style="fill:#c7c7c7"></rect><rect x="100.4" y="276.54" width="5.63" height="7.02" style="fill:#c7c7c7"></rect><rect x="93.2" y="264.62" width="5.63" height="7.02" style="fill:#c7c7c7"></rect><rect x="100.4" y="264.62" width="5.63" height="7.02" style="fill:#c7c7c7"></rect><rect x="93.2" y="252.71" width="5.63" height="7.02" style="fill:#c7c7c7"></rect><rect x="100.4" y="252.71" width="5.63" height="7.02" style="fill:#c7c7c7"></rect><rect x="93.2" y="240.8" width="5.63" height="7.02" style="fill:#c7c7c7"></rect><rect x="100.4" y="240.8" width="5.63" height="7.02" style="fill:#c7c7c7"></rect><rect x="93.2" y="228.88" width="5.63" height="7.02" style="fill:#c7c7c7"></rect><rect x="100.4" y="228.88" width="5.63" height="7.02" style="fill:#c7c7c7"></rect><rect x="93.2" y="216.97" width="5.63" height="7.02" style="fill:#c7c7c7"></rect><rect x="100.4" y="216.97" width="5.63" height="7.02" style="fill:#c7c7c7"></rect><rect x="93.2" y="205.06" width="5.63" height="7.02" style="fill:#c7c7c7"></rect><rect x="107.54" y="205.06" width="5.63" height="7.02" transform="translate(220.7 417.13) rotate(180)" style="fill:#c7c7c7"></rect><rect x="107.54" y="216.97" width="5.63" height="7.02" transform="translate(220.7 440.96) rotate(180)" style="fill:#c7c7c7"></rect><rect x="107.54" y="228.88" width="5.63" height="7.02" transform="translate(220.7 464.78) rotate(180)" style="fill:#c7c7c7"></rect><rect x="107.54" y="240.8" width="5.63" height="7.02" transform="translate(220.7 488.61) rotate(180)" style="fill:#c7c7c7"></rect><rect x="107.54" y="252.71" width="5.63" height="7.02" transform="translate(220.7 512.44) rotate(180)" style="fill:#c7c7c7"></rect><rect x="107.54" y="264.62" width="5.63" height="7.02" transform="translate(220.7 536.26) rotate(180)" style="fill:#c7c7c7"></rect><rect x="107.54" y="276.54" width="5.63" height="7.02" transform="translate(220.7 560.09) rotate(180)" style="fill:#c7c7c7"></rect><rect x="107.54" y="288.45" width="5.63" height="7.02" transform="translate(220.7 583.91) rotate(180)" style="fill:#c7c7c7"></rect><rect x="107.54" y="300.36" width="5.63" height="7.02" transform="translate(220.7 607.74) rotate(180)" style="fill:#c7c7c7"></rect><rect x="107.54" y="312.27" width="5.63" height="7.02" transform="translate(220.7 631.57) rotate(180)" style="fill:#c7c7c7"></rect><rect x="107.54" y="324.19" width="5.63" height="7.02" transform="translate(220.7 655.39) rotate(180)" style="fill:#c7c7c7"></rect><rect x="107.54" y="336.1" width="5.63" height="7.02" transform="translate(220.7 679.22) rotate(180)" style="fill:#c7c7c7"></rect><rect x="107.54" y="348.01" width="5.63" height="7.02" transform="translate(220.7 703.04) rotate(180)" style="fill:#c7c7c7"></rect><rect x="107.54" y="359.93" width="5.63" height="7.02" transform="translate(220.7 726.87) rotate(180)" style="fill:#c7c7c7"></rect><rect x="100.4" y="205.06" width="5.63" height="7.02" style="fill:#c7c7c7"></rect><rect x="421.34" y="195.08" width="36.57" height="187.78" style="fill:#ebebeb"></rect><rect x="421.34" y="191.34" width="37.45" height="3.74" transform="translate(880.12 386.42) rotate(180)" style="fill:#c7c7c7"></rect><rect x="450.89" y="200.59" width="3.71" height="182.27" style="fill:#fff"></rect><rect x="444.33" y="200.59" width="3.71" height="182.27" style="fill:#fff"></rect><rect x="437.77" y="200.59" width="3.71" height="182.27" style="fill:#fff"></rect><rect x="431.21" y="200.59" width="3.71" height="182.27" style="fill:#fff"></rect><rect x="424.64" y="200.59" width="3.71" height="182.27" style="fill:#fff"></rect><rect x="450.89" y="205.31" width="3.71" height="7.38" transform="translate(905.49 418.01) rotate(180)" style="fill:#ebebeb"></rect><rect x="444.33" y="205.31" width="3.71" height="7.38" transform="translate(892.37 418.01) rotate(180)" style="fill:#ebebeb"></rect><rect x="437.77" y="205.31" width="3.71" height="7.38" transform="translate(879.24 418.01) rotate(180)" style="fill:#ebebeb"></rect><rect x="431.21" y="205.31" width="3.71" height="7.38" transform="translate(866.12 418.01) rotate(180)" style="fill:#ebebeb"></rect><rect x="424.64" y="205.31" width="3.71" height="7.38" transform="translate(852.99 418.01) rotate(180)" style="fill:#ebebeb"></rect><rect x="450.89" y="217.31" width="3.71" height="7.38" transform="translate(905.49 442) rotate(180)" style="fill:#ebebeb"></rect><rect x="444.33" y="217.31" width="3.71" height="7.38" transform="translate(892.37 442) rotate(180)" style="fill:#ebebeb"></rect><rect x="437.77" y="217.31" width="3.71" height="7.38" transform="translate(879.24 442) rotate(180)" style="fill:#ebebeb"></rect><rect x="431.21" y="217.31" width="3.71" height="7.38" transform="translate(866.12 442) rotate(180)" style="fill:#ebebeb"></rect><rect x="424.64" y="217.31" width="3.71" height="7.38" transform="translate(852.99 442) rotate(180)" style="fill:#ebebeb"></rect><rect x="450.89" y="229.31" width="3.71" height="7.38" transform="translate(905.49 466) rotate(180)" style="fill:#ebebeb"></rect><rect x="444.33" y="229.31" width="3.71" height="7.38" transform="translate(892.37 466) rotate(180)" style="fill:#ebebeb"></rect><rect x="437.77" y="229.31" width="3.71" height="7.38" transform="translate(879.24 466) rotate(180)" style="fill:#ebebeb"></rect><rect x="431.21" y="229.31" width="3.71" height="7.38" transform="translate(866.12 466) rotate(180)" style="fill:#ebebeb"></rect><rect x="424.64" y="229.31" width="3.71" height="7.38" transform="translate(852.99 466) rotate(180)" style="fill:#ebebeb"></rect><rect x="450.89" y="241.3" width="3.71" height="7.38" transform="translate(905.49 489.99) rotate(180)" style="fill:#ebebeb"></rect><rect x="444.33" y="241.3" width="3.71" height="7.38" transform="translate(892.37 489.99) rotate(180)" style="fill:#ebebeb"></rect><rect x="437.77" y="241.3" width="3.71" height="7.38" transform="translate(879.24 489.99) rotate(180)" style="fill:#ebebeb"></rect><rect x="431.21" y="241.3" width="3.71" height="7.38" transform="translate(866.12 489.99) rotate(180)" style="fill:#ebebeb"></rect><rect x="424.64" y="241.3" width="3.71" height="7.38" transform="translate(852.99 489.99) rotate(180)" style="fill:#ebebeb"></rect><rect x="450.89" y="253.3" width="3.71" height="7.38" transform="translate(905.49 513.98) rotate(180)" style="fill:#ebebeb"></rect><rect x="444.33" y="253.3" width="3.71" height="7.38" transform="translate(892.37 513.98) rotate(180)" style="fill:#ebebeb"></rect><rect x="437.77" y="253.3" width="3.71" height="7.38" transform="translate(879.24 513.98) rotate(180)" style="fill:#ebebeb"></rect><rect x="431.21" y="253.3" width="3.71" height="7.38" transform="translate(866.12 513.98) rotate(180)" style="fill:#ebebeb"></rect><rect x="424.64" y="253.3" width="3.71" height="7.38" transform="translate(852.99 513.98) rotate(180)" style="fill:#ebebeb"></rect><rect x="450.89" y="265.3" width="3.71" height="7.38" transform="translate(905.49 537.97) rotate(180)" style="fill:#ebebeb"></rect><rect x="444.33" y="265.3" width="3.71" height="7.38" transform="translate(892.37 537.97) rotate(180)" style="fill:#ebebeb"></rect><rect x="437.77" y="265.3" width="3.71" height="7.38" transform="translate(879.24 537.97) rotate(180)" style="fill:#ebebeb"></rect><rect x="431.21" y="265.3" width="3.71" height="7.38" transform="translate(866.12 537.97) rotate(180)" style="fill:#ebebeb"></rect><rect x="424.64" y="265.3" width="3.71" height="7.38" transform="translate(852.99 537.97) rotate(180)" style="fill:#ebebeb"></rect><rect x="450.89" y="277.29" width="3.71" height="7.38" transform="translate(905.49 561.97) rotate(180)" style="fill:#ebebeb"></rect><rect x="444.33" y="277.29" width="3.71" height="7.38" transform="translate(892.37 561.97) rotate(180)" style="fill:#ebebeb"></rect><rect x="437.77" y="277.29" width="3.71" height="7.38" transform="translate(879.24 561.97) rotate(180)" style="fill:#ebebeb"></rect><rect x="431.21" y="277.29" width="3.71" height="7.38" transform="translate(866.12 561.97) rotate(180)" style="fill:#ebebeb"></rect><rect x="424.64" y="277.29" width="3.71" height="7.38" transform="translate(852.99 561.97) rotate(180)" style="fill:#ebebeb"></rect><rect x="450.89" y="289.29" width="3.71" height="7.38" transform="translate(905.49 585.96) rotate(180)" style="fill:#ebebeb"></rect><rect x="444.33" y="289.29" width="3.71" height="7.38" transform="translate(892.37 585.96) rotate(180)" style="fill:#ebebeb"></rect><rect x="437.77" y="289.29" width="3.71" height="7.38" transform="translate(879.24 585.96) rotate(180)" style="fill:#ebebeb"></rect><rect x="431.21" y="289.29" width="3.71" height="7.38" transform="translate(866.12 585.96) rotate(180)" style="fill:#ebebeb"></rect><rect x="424.64" y="289.29" width="3.71" height="7.38" transform="translate(852.99 585.96) rotate(180)" style="fill:#ebebeb"></rect><rect x="450.89" y="301.28" width="3.71" height="7.38" transform="translate(905.49 609.95) rotate(180)" style="fill:#ebebeb"></rect><rect x="444.33" y="301.28" width="3.71" height="7.38" transform="translate(892.37 609.95) rotate(180)" style="fill:#ebebeb"></rect><rect x="437.77" y="301.28" width="3.71" height="7.38" transform="translate(879.24 609.95) rotate(180)" style="fill:#ebebeb"></rect><rect x="431.21" y="301.28" width="3.71" height="7.38" transform="translate(866.12 609.95) rotate(180)" style="fill:#ebebeb"></rect><rect x="424.64" y="301.28" width="3.71" height="7.38" transform="translate(852.99 609.95) rotate(180)" style="fill:#ebebeb"></rect><rect x="450.89" y="313.28" width="3.71" height="7.38" transform="translate(905.49 633.94) rotate(180)" style="fill:#ebebeb"></rect><rect x="444.33" y="313.28" width="3.71" height="7.38" transform="translate(892.37 633.94) rotate(180)" style="fill:#ebebeb"></rect><rect x="437.77" y="313.28" width="3.71" height="7.38" transform="translate(879.24 633.94) rotate(180)" style="fill:#ebebeb"></rect><rect x="431.21" y="313.28" width="3.71" height="7.38" transform="translate(866.12 633.94) rotate(180)" style="fill:#ebebeb"></rect><rect x="424.64" y="313.28" width="3.71" height="7.38" transform="translate(852.99 633.94) rotate(180)" style="fill:#ebebeb"></rect><rect x="450.89" y="325.28" width="3.71" height="7.38" transform="translate(905.49 657.94) rotate(180)" style="fill:#ebebeb"></rect><rect x="444.33" y="325.28" width="3.71" height="7.38" transform="translate(892.37 657.94) rotate(180)" style="fill:#ebebeb"></rect><rect x="437.77" y="325.28" width="3.71" height="7.38" transform="translate(879.24 657.94) rotate(180)" style="fill:#ebebeb"></rect><rect x="431.21" y="325.28" width="3.71" height="7.38" transform="translate(866.12 657.94) rotate(180)" style="fill:#ebebeb"></rect><rect x="424.64" y="325.28" width="3.71" height="7.38" transform="translate(852.99 657.94) rotate(180)" style="fill:#ebebeb"></rect><rect x="450.89" y="337.27" width="3.71" height="7.38" transform="translate(905.49 681.93) rotate(180)" style="fill:#ebebeb"></rect><rect x="444.33" y="337.27" width="3.71" height="7.38" transform="translate(892.37 681.93) rotate(180)" style="fill:#ebebeb"></rect><rect x="437.77" y="337.27" width="3.71" height="7.38" transform="translate(879.24 681.93) rotate(180)" style="fill:#ebebeb"></rect><rect x="431.21" y="337.27" width="3.71" height="7.38" transform="translate(866.12 681.93) rotate(180)" style="fill:#ebebeb"></rect><rect x="424.64" y="337.27" width="3.71" height="7.38" transform="translate(852.99 681.93) rotate(180)" style="fill:#ebebeb"></rect><rect x="450.89" y="349.27" width="3.71" height="7.38" transform="translate(905.49 705.92) rotate(180)" style="fill:#ebebeb"></rect><rect x="444.33" y="349.27" width="3.71" height="7.38" transform="translate(892.37 705.92) rotate(180)" style="fill:#ebebeb"></rect><rect x="437.77" y="349.27" width="3.71" height="7.38" transform="translate(879.24 705.92) rotate(180)" style="fill:#ebebeb"></rect><rect x="431.21" y="349.27" width="3.71" height="7.38" transform="translate(866.12 705.92) rotate(180)" style="fill:#ebebeb"></rect><rect x="424.64" y="349.27" width="3.71" height="7.38" transform="translate(852.99 705.92) rotate(180)" style="fill:#ebebeb"></rect><rect x="450.89" y="361.27" width="3.71" height="21.59" style="fill:#ebebeb"></rect><rect x="444.33" y="361.27" width="3.71" height="21.59" style="fill:#ebebeb"></rect><rect x="437.77" y="361.27" width="3.71" height="21.59" style="fill:#ebebeb"></rect><rect x="431.21" y="361.27" width="3.71" height="21.59" style="fill:#ebebeb"></rect><rect x="424.64" y="361.27" width="3.71" height="21.59" style="fill:#ebebeb"></rect><rect x="397.86" y="195.08" width="23.48" height="187.78" style="fill:#dbdbdb"></rect><rect x="396.84" y="191.34" width="24.5" height="3.74" transform="translate(818.18 386.42) rotate(180)" style="fill:#c7c7c7"></rect><rect x="414.32" y="200.59" width="3.71" height="182.27" style="fill:#c7c7c7"></rect><rect x="407.76" y="200.59" width="3.71" height="182.27" style="fill:#c7c7c7"></rect><rect x="401.2" y="200.59" width="3.71" height="182.27" style="fill:#c7c7c7"></rect><rect x="414.32" y="205.31" width="3.71" height="7.38" transform="translate(832.35 418.01) rotate(180)" style="fill:#dbdbdb"></rect><rect x="407.76" y="205.31" width="3.71" height="7.38" transform="translate(819.23 418.01) rotate(180)" style="fill:#dbdbdb"></rect><rect x="401.2" y="205.31" width="3.71" height="7.38" transform="translate(806.1 418.01) rotate(180)" style="fill:#dbdbdb"></rect><rect x="414.32" y="217.31" width="3.71" height="7.38" transform="translate(832.35 442) rotate(180)" style="fill:#dbdbdb"></rect><rect x="407.76" y="217.31" width="3.71" height="7.38" transform="translate(819.23 442) rotate(180)" style="fill:#dbdbdb"></rect><rect x="401.2" y="217.31" width="3.71" height="7.38" transform="translate(806.1 442) rotate(180)" style="fill:#dbdbdb"></rect><rect x="414.32" y="229.31" width="3.71" height="7.38" transform="translate(832.35 466) rotate(180)" style="fill:#dbdbdb"></rect><rect x="407.76" y="229.31" width="3.71" height="7.38" transform="translate(819.23 466) rotate(180)" style="fill:#dbdbdb"></rect><rect x="401.2" y="229.31" width="3.71" height="7.38" transform="translate(806.1 466) rotate(180)" style="fill:#dbdbdb"></rect><rect x="414.32" y="241.3" width="3.71" height="7.38" transform="translate(832.35 489.99) rotate(180)" style="fill:#dbdbdb"></rect><rect x="407.76" y="241.3" width="3.71" height="7.38" transform="translate(819.23 489.99) rotate(180)" style="fill:#dbdbdb"></rect><rect x="401.2" y="241.3" width="3.71" height="7.38" transform="translate(806.1 489.99) rotate(180)" style="fill:#dbdbdb"></rect><rect x="414.32" y="253.3" width="3.71" height="7.38" transform="translate(832.35 513.98) rotate(180)" style="fill:#dbdbdb"></rect><rect x="407.76" y="253.3" width="3.71" height="7.38" transform="translate(819.23 513.98) rotate(180)" style="fill:#dbdbdb"></rect><rect x="401.2" y="253.3" width="3.71" height="7.38" transform="translate(806.1 513.98) rotate(180)" style="fill:#dbdbdb"></rect><rect x="414.32" y="265.3" width="3.71" height="7.38" transform="translate(832.35 537.97) rotate(180)" style="fill:#dbdbdb"></rect><rect x="407.76" y="265.3" width="3.71" height="7.38" transform="translate(819.23 537.97) rotate(180)" style="fill:#dbdbdb"></rect><rect x="401.2" y="265.3" width="3.71" height="7.38" transform="translate(806.1 537.97) rotate(180)" style="fill:#dbdbdb"></rect><rect x="414.32" y="277.29" width="3.71" height="7.38" transform="translate(832.35 561.97) rotate(180)" style="fill:#dbdbdb"></rect><rect x="407.76" y="277.29" width="3.71" height="7.38" transform="translate(819.23 561.97) rotate(180)" style="fill:#dbdbdb"></rect><rect x="401.2" y="277.29" width="3.71" height="7.38" transform="translate(806.1 561.97) rotate(180)" style="fill:#dbdbdb"></rect><rect x="414.32" y="289.29" width="3.71" height="7.38" transform="translate(832.35 585.96) rotate(180)" style="fill:#dbdbdb"></rect><rect x="407.76" y="289.29" width="3.71" height="7.38" transform="translate(819.23 585.96) rotate(180)" style="fill:#dbdbdb"></rect><rect x="401.2" y="289.29" width="3.71" height="7.38" transform="translate(806.1 585.96) rotate(180)" style="fill:#dbdbdb"></rect><rect x="414.32" y="301.28" width="3.71" height="7.38" transform="translate(832.35 609.95) rotate(180)" style="fill:#dbdbdb"></rect><rect x="407.76" y="301.28" width="3.71" height="7.38" transform="translate(819.23 609.95) rotate(180)" style="fill:#dbdbdb"></rect><rect x="401.2" y="301.28" width="3.71" height="7.38" transform="translate(806.1 609.95) rotate(180)" style="fill:#dbdbdb"></rect><rect x="414.32" y="313.28" width="3.71" height="7.38" transform="translate(832.35 633.94) rotate(180)" style="fill:#dbdbdb"></rect><rect x="407.76" y="313.28" width="3.71" height="7.38" transform="translate(819.23 633.94) rotate(180)" style="fill:#dbdbdb"></rect><rect x="401.2" y="313.28" width="3.71" height="7.38" transform="translate(806.1 633.94) rotate(180)" style="fill:#dbdbdb"></rect><rect x="414.32" y="325.28" width="3.71" height="7.38" transform="translate(832.35 657.94) rotate(180)" style="fill:#dbdbdb"></rect><rect x="407.76" y="325.28" width="3.71" height="7.38" transform="translate(819.23 657.94) rotate(180)" style="fill:#dbdbdb"></rect><rect x="401.2" y="325.28" width="3.71" height="7.38" transform="translate(806.1 657.94) rotate(180)" style="fill:#dbdbdb"></rect><rect x="414.32" y="337.27" width="3.71" height="7.38" transform="translate(832.35 681.93) rotate(180)" style="fill:#dbdbdb"></rect><rect x="407.76" y="337.27" width="3.71" height="7.38" transform="translate(819.23 681.93) rotate(180)" style="fill:#dbdbdb"></rect><rect x="401.2" y="337.27" width="3.71" height="7.38" transform="translate(806.1 681.93) rotate(180)" style="fill:#dbdbdb"></rect><rect x="414.32" y="349.27" width="3.71" height="7.38" transform="translate(832.35 705.92) rotate(180)" style="fill:#dbdbdb"></rect><rect x="407.76" y="349.27" width="3.71" height="7.38" transform="translate(819.23 705.92) rotate(180)" style="fill:#dbdbdb"></rect><rect x="401.2" y="349.27" width="3.71" height="7.38" transform="translate(806.1 705.92) rotate(180)" style="fill:#dbdbdb"></rect><rect x="414.32" y="361.27" width="3.71" height="21.59" style="fill:#dbdbdb"></rect><rect x="407.76" y="361.27" width="3.71" height="21.59" style="fill:#dbdbdb"></rect><rect x="401.2" y="361.27" width="3.71" height="21.59" style="fill:#dbdbdb"></rect><rect x="244.5" y="271.86" width="43.95" height="111" style="fill:#ebebeb"></rect><rect x="244.5" y="268.12" width="45.01" height="3.74" transform="translate(534.01 539.98) rotate(180)" style="fill:#c7c7c7"></rect><rect x="280.02" y="277.37" width="4.45" height="105.48" style="fill:#fff"></rect><rect x="272.13" y="277.37" width="4.46" height="105.48" style="fill:#fff"></rect><rect x="264.25" y="277.37" width="4.45" height="105.48" style="fill:#fff"></rect><rect x="256.36" y="277.37" width="4.46" height="105.48" style="fill:#fff"></rect><rect x="248.47" y="277.37" width="4.45" height="105.48" style="fill:#fff"></rect><rect x="280.02" y="282.09" width="4.45" height="7.38" transform="translate(564.5 571.57) rotate(180)" style="fill:#ebebeb"></rect><rect x="272.14" y="282.09" width="4.45" height="7.38" transform="translate(548.73 571.57) rotate(180)" style="fill:#ebebeb"></rect><rect x="264.25" y="282.09" width="4.45" height="7.38" transform="translate(532.95 571.57) rotate(180)" style="fill:#ebebeb"></rect><rect x="256.36" y="282.09" width="4.45" height="7.38" transform="translate(517.18 571.57) rotate(180)" style="fill:#ebebeb"></rect><rect x="248.47" y="282.09" width="4.45" height="7.38" transform="translate(501.4 571.57) rotate(180)" style="fill:#ebebeb"></rect><rect x="280.02" y="294.09" width="4.45" height="7.38" transform="translate(564.5 595.56) rotate(180)" style="fill:#ebebeb"></rect><rect x="272.14" y="294.09" width="4.45" height="7.38" transform="translate(548.73 595.56) rotate(180)" style="fill:#ebebeb"></rect><rect x="264.25" y="294.09" width="4.45" height="7.38" transform="translate(532.95 595.56) rotate(180)" style="fill:#ebebeb"></rect><rect x="256.36" y="294.09" width="4.45" height="7.38" transform="translate(517.18 595.56) rotate(180)" style="fill:#ebebeb"></rect><rect x="248.47" y="294.09" width="4.45" height="7.38" transform="translate(501.4 595.56) rotate(180)" style="fill:#ebebeb"></rect><rect x="280.02" y="306.09" width="4.45" height="7.38" transform="translate(564.5 619.56) rotate(180)" style="fill:#ebebeb"></rect><rect x="272.14" y="306.09" width="4.45" height="7.38" transform="translate(548.73 619.56) rotate(180)" style="fill:#ebebeb"></rect><rect x="264.25" y="306.09" width="4.45" height="7.38" transform="translate(532.95 619.56) rotate(180)" style="fill:#ebebeb"></rect><rect x="256.36" y="306.09" width="4.45" height="7.38" transform="translate(517.18 619.56) rotate(180)" style="fill:#ebebeb"></rect><rect x="248.47" y="306.09" width="4.45" height="7.38" transform="translate(501.4 619.56) rotate(180)" style="fill:#ebebeb"></rect><rect x="280.02" y="318.08" width="4.45" height="7.38" transform="translate(564.5 643.55) rotate(180)" style="fill:#ebebeb"></rect><rect x="272.14" y="318.08" width="4.45" height="7.38" transform="translate(548.73 643.55) rotate(180)" style="fill:#ebebeb"></rect><rect x="264.25" y="318.08" width="4.45" height="7.38" transform="translate(532.95 643.55) rotate(180)" style="fill:#ebebeb"></rect><rect x="256.36" y="318.08" width="4.45" height="7.38" transform="translate(517.18 643.55) rotate(180)" style="fill:#ebebeb"></rect><rect x="248.47" y="318.08" width="4.45" height="7.38" transform="translate(501.4 643.55) rotate(180)" style="fill:#ebebeb"></rect><rect x="280.02" y="330.08" width="4.45" height="7.38" transform="translate(564.5 667.54) rotate(180)" style="fill:#ebebeb"></rect><rect x="272.14" y="330.08" width="4.45" height="7.38" transform="translate(548.73 667.54) rotate(180)" style="fill:#ebebeb"></rect><rect x="264.25" y="330.08" width="4.45" height="7.38" transform="translate(532.95 667.54) rotate(180)" style="fill:#ebebeb"></rect><rect x="256.36" y="330.08" width="4.45" height="7.38" transform="translate(517.18 667.54) rotate(180)" style="fill:#ebebeb"></rect><rect x="248.47" y="330.08" width="4.45" height="7.38" transform="translate(501.4 667.54) rotate(180)" style="fill:#ebebeb"></rect><rect x="280.02" y="342.08" width="4.45" height="7.38" transform="translate(564.5 691.53) rotate(180)" style="fill:#ebebeb"></rect><rect x="272.14" y="342.08" width="4.45" height="7.38" transform="translate(548.73 691.53) rotate(180)" style="fill:#ebebeb"></rect><rect x="264.25" y="342.08" width="4.45" height="7.38" transform="translate(532.95 691.53) rotate(180)" style="fill:#ebebeb"></rect><rect x="256.36" y="342.08" width="4.45" height="7.38" transform="translate(517.18 691.53) rotate(180)" style="fill:#ebebeb"></rect><rect x="248.47" y="342.08" width="4.45" height="7.38" transform="translate(501.4 691.53) rotate(180)" style="fill:#ebebeb"></rect><rect x="280.02" y="354.07" width="4.45" height="7.38" transform="translate(564.5 715.53) rotate(180)" style="fill:#ebebeb"></rect><rect x="272.14" y="354.07" width="4.45" height="7.38" transform="translate(548.73 715.53) rotate(180)" style="fill:#ebebeb"></rect><rect x="264.25" y="354.07" width="4.45" height="7.38" transform="translate(532.95 715.53) rotate(180)" style="fill:#ebebeb"></rect><rect x="256.36" y="354.07" width="4.45" height="7.38" transform="translate(517.18 715.53) rotate(180)" style="fill:#ebebeb"></rect><rect x="248.47" y="354.07" width="4.45" height="7.38" transform="translate(501.4 715.53) rotate(180)" style="fill:#ebebeb"></rect><rect x="280.02" y="366.07" width="4.45" height="7.38" transform="translate(564.5 739.52) rotate(180)" style="fill:#ebebeb"></rect><rect x="272.14" y="366.07" width="4.45" height="7.38" transform="translate(548.73 739.52) rotate(180)" style="fill:#ebebeb"></rect><rect x="264.25" y="366.07" width="4.45" height="7.38" transform="translate(532.95 739.52) rotate(180)" style="fill:#ebebeb"></rect><rect x="256.36" y="366.07" width="4.45" height="7.38" transform="translate(517.18 739.52) rotate(180)" style="fill:#ebebeb"></rect><rect x="248.47" y="366.07" width="4.45" height="7.38" transform="translate(501.4 739.52) rotate(180)" style="fill:#ebebeb"></rect><rect x="280.02" y="378.07" width="4.45" height="4.79" style="fill:#ebebeb"></rect><rect x="272.13" y="378.07" width="4.46" height="4.79" style="fill:#ebebeb"></rect><rect x="264.25" y="378.07" width="4.45" height="4.79" style="fill:#ebebeb"></rect><rect x="256.36" y="378.07" width="4.46" height="4.79" style="fill:#ebebeb"></rect><rect x="248.47" y="378.07" width="4.45" height="4.79" style="fill:#ebebeb"></rect><rect x="216.28" y="271.86" width="28.22" height="111" style="fill:#dbdbdb"></rect><rect x="215.06" y="268.12" width="29.44" height="3.74" transform="translate(459.56 539.98) rotate(180)" style="fill:#c7c7c7"></rect><rect x="236.07" y="277.37" width="4.46" height="105.48" style="fill:#c7c7c7"></rect><rect x="228.19" y="277.37" width="4.45" height="105.48" style="fill:#c7c7c7"></rect><rect x="220.29" y="277.37" width="4.46" height="105.48" style="fill:#c7c7c7"></rect><rect x="236.07" y="282.09" width="4.45" height="7.38" transform="translate(476.6 571.57) rotate(180)" style="fill:#dbdbdb"></rect><rect x="228.19" y="282.09" width="4.45" height="7.38" transform="translate(460.82 571.57) rotate(180)" style="fill:#dbdbdb"></rect><rect x="220.3" y="282.09" width="4.45" height="7.38" transform="translate(445.05 571.57) rotate(180)" style="fill:#dbdbdb"></rect><rect x="236.07" y="294.09" width="4.45" height="7.38" transform="translate(476.6 595.56) rotate(180)" style="fill:#dbdbdb"></rect><rect x="228.19" y="294.09" width="4.45" height="7.38" transform="translate(460.82 595.56) rotate(180)" style="fill:#dbdbdb"></rect><rect x="220.3" y="294.09" width="4.45" height="7.38" transform="translate(445.05 595.56) rotate(180)" style="fill:#dbdbdb"></rect><rect x="236.07" y="306.09" width="4.45" height="7.38" transform="translate(476.6 619.56) rotate(180)" style="fill:#dbdbdb"></rect><rect x="228.19" y="306.09" width="4.45" height="7.38" transform="translate(460.82 619.56) rotate(180)" style="fill:#dbdbdb"></rect><rect x="220.3" y="306.09" width="4.45" height="7.38" transform="translate(445.05 619.56) rotate(180)" style="fill:#dbdbdb"></rect><rect x="236.07" y="318.08" width="4.45" height="7.38" transform="translate(476.6 643.55) rotate(180)" style="fill:#dbdbdb"></rect><rect x="228.19" y="318.08" width="4.45" height="7.38" transform="translate(460.82 643.55) rotate(180)" style="fill:#dbdbdb"></rect><rect x="220.3" y="318.08" width="4.45" height="7.38" transform="translate(445.05 643.55) rotate(180)" style="fill:#dbdbdb"></rect><rect x="236.07" y="330.08" width="4.45" height="7.38" transform="translate(476.6 667.54) rotate(180)" style="fill:#dbdbdb"></rect><rect x="228.19" y="330.08" width="4.45" height="7.38" transform="translate(460.82 667.54) rotate(180)" style="fill:#dbdbdb"></rect><rect x="220.3" y="330.08" width="4.45" height="7.38" transform="translate(445.05 667.54) rotate(180)" style="fill:#dbdbdb"></rect><rect x="236.07" y="342.08" width="4.45" height="7.38" transform="translate(476.6 691.53) rotate(180)" style="fill:#dbdbdb"></rect><rect x="228.19" y="342.08" width="4.45" height="7.38" transform="translate(460.82 691.53) rotate(180)" style="fill:#dbdbdb"></rect><rect x="220.3" y="342.08" width="4.45" height="7.38" transform="translate(445.05 691.53) rotate(180)" style="fill:#dbdbdb"></rect><rect x="236.07" y="354.07" width="4.45" height="7.38" transform="translate(476.6 715.53) rotate(180)" style="fill:#dbdbdb"></rect><rect x="228.19" y="354.07" width="4.45" height="7.38" transform="translate(460.82 715.53) rotate(180)" style="fill:#dbdbdb"></rect><rect x="220.3" y="354.07" width="4.45" height="7.38" transform="translate(445.05 715.53) rotate(180)" style="fill:#dbdbdb"></rect><rect x="236.07" y="366.07" width="4.45" height="7.38" transform="translate(476.6 739.52) rotate(180)" style="fill:#dbdbdb"></rect><rect x="228.19" y="366.07" width="4.45" height="7.38" transform="translate(460.82 739.52) rotate(180)" style="fill:#dbdbdb"></rect><rect x="220.3" y="366.07" width="4.45" height="7.38" transform="translate(445.05 739.52) rotate(180)" style="fill:#dbdbdb"></rect><rect x="236.07" y="378.07" width="4.46" height="4.79" style="fill:#dbdbdb"></rect><rect x="228.19" y="378.07" width="4.45" height="4.79" style="fill:#dbdbdb"></rect><rect x="220.29" y="378.07" width="4.46" height="4.79" style="fill:#dbdbdb"></rect><rect x="69.81" y="253.54" width="18.52" height="21.88" transform="translate(158.14 528.95) rotate(180)" style="fill:#dbdbdb"></rect><rect x="58.07" y="253.54" width="11.75" height="22.68" transform="translate(127.88 529.76) rotate(180)" style="fill:#c7c7c7"></rect><rect x="57.28" y="263.2" width="11.66" height="13.02" transform="translate(126.22 539.42) rotate(180)" style="fill:#dbdbdb"></rect><rect x="50.01" y="263.2" width="7.27" height="13.02" transform="translate(107.3 539.42) rotate(180)" style="fill:#c7c7c7"></rect><rect x="65.49" y="274" width="29.95" height="108.86" transform="translate(160.92 656.85) rotate(180)" style="fill:#ebebeb"></rect><rect x="82.6" y="278.67" width="9.42" height="3.85" transform="translate(174.61 561.2) rotate(180)" style="fill:#fff"></rect><rect x="70.55" y="278.67" width="9.42" height="3.85" transform="translate(150.51 561.2) rotate(180)" style="fill:#fff"></rect><rect x="82.6" y="285.21" width="9.42" height="3.85" transform="translate(174.61 574.27) rotate(180)" style="fill:#fff"></rect><rect x="70.55" y="285.21" width="9.42" height="3.85" transform="translate(150.51 574.27) rotate(180)" style="fill:#fff"></rect><rect x="82.6" y="291.74" width="9.42" height="3.85" transform="translate(174.61 587.34) rotate(180)" style="fill:#fff"></rect><rect x="70.55" y="291.74" width="9.42" height="3.85" transform="translate(150.51 587.34) rotate(180)" style="fill:#fff"></rect><rect x="82.6" y="298.28" width="9.42" height="3.85" transform="translate(174.61 600.4) rotate(180)" style="fill:#fff"></rect><rect x="70.55" y="298.28" width="9.42" height="3.85" transform="translate(150.51 600.4) rotate(180)" style="fill:#fff"></rect><rect x="82.6" y="304.81" width="9.42" height="3.85" transform="translate(174.61 613.47) rotate(180)" style="fill:#fff"></rect><rect x="70.55" y="304.81" width="9.42" height="3.85" transform="translate(150.51 613.47) rotate(180)" style="fill:#fff"></rect><rect x="82.6" y="311.35" width="9.42" height="3.85" transform="translate(174.61 626.54) rotate(180)" style="fill:#fff"></rect><rect x="70.55" y="311.35" width="9.42" height="3.85" transform="translate(150.51 626.54) rotate(180)" style="fill:#fff"></rect><rect x="82.6" y="317.88" width="9.42" height="3.85" transform="translate(174.61 639.61) rotate(180)" style="fill:#fff"></rect><rect x="70.55" y="317.88" width="9.42" height="3.85" transform="translate(150.51 639.61) rotate(180)" style="fill:#fff"></rect><rect x="82.6" y="324.41" width="9.42" height="3.85" transform="translate(174.61 652.68) rotate(180)" style="fill:#fff"></rect><rect x="70.55" y="324.41" width="9.42" height="3.85" transform="translate(150.51 652.68) rotate(180)" style="fill:#fff"></rect><rect x="82.6" y="330.95" width="9.42" height="3.85" transform="translate(174.61 665.74) rotate(180)" style="fill:#fff"></rect><rect x="70.55" y="330.95" width="9.42" height="3.85" transform="translate(150.51 665.74) rotate(180)" style="fill:#fff"></rect><rect x="82.6" y="337.48" width="9.42" height="3.85" transform="translate(174.61 678.81) rotate(180)" style="fill:#fff"></rect><rect x="70.55" y="337.48" width="9.42" height="3.85" transform="translate(150.51 678.81) rotate(180)" style="fill:#fff"></rect><rect x="82.6" y="344.02" width="9.42" height="3.85" transform="translate(174.61 691.88) rotate(180)" style="fill:#fff"></rect><rect x="70.55" y="344.02" width="9.42" height="3.85" transform="translate(150.51 691.88) rotate(180)" style="fill:#fff"></rect><rect x="82.6" y="350.55" width="9.42" height="3.85" transform="translate(174.61 704.95) rotate(180)" style="fill:#fff"></rect><rect x="70.55" y="350.55" width="9.42" height="3.85" transform="translate(150.51 704.95) rotate(180)" style="fill:#fff"></rect><rect x="82.6" y="357.08" width="9.42" height="3.85" transform="translate(174.61 718.02) rotate(180)" style="fill:#fff"></rect><rect x="70.55" y="357.08" width="9.42" height="3.85" transform="translate(150.51 718.02) rotate(180)" style="fill:#fff"></rect><rect x="82.6" y="363.62" width="9.42" height="3.85" transform="translate(174.61 731.09) rotate(180)" style="fill:#fff"></rect><rect x="70.55" y="363.62" width="9.42" height="3.85" transform="translate(150.51 731.09) rotate(180)" style="fill:#fff"></rect><rect x="41.21" y="274" width="24.27" height="108.86" transform="translate(106.7 656.85) rotate(180)" style="fill:#c7c7c7"></rect><rect x="43.65" y="363.62" width="7.73" height="3.85" style="fill:#ebebeb"></rect><rect x="53.54" y="363.62" width="7.73" height="3.85" style="fill:#ebebeb"></rect><rect x="43.65" y="357.08" width="7.73" height="3.85" style="fill:#ebebeb"></rect><rect x="53.54" y="357.08" width="7.73" height="3.85" style="fill:#ebebeb"></rect><rect x="43.65" y="350.55" width="7.73" height="3.85" style="fill:#ebebeb"></rect><rect x="53.54" y="350.55" width="7.73" height="3.85" style="fill:#ebebeb"></rect><rect x="43.65" y="344.02" width="7.73" height="3.85" style="fill:#ebebeb"></rect><rect x="53.54" y="344.02" width="7.73" height="3.85" style="fill:#ebebeb"></rect><rect x="43.65" y="337.48" width="7.73" height="3.85" style="fill:#ebebeb"></rect><rect x="53.54" y="337.48" width="7.73" height="3.85" style="fill:#ebebeb"></rect><rect x="43.65" y="330.95" width="7.73" height="3.85" style="fill:#ebebeb"></rect><rect x="53.54" y="330.95" width="7.73" height="3.85" style="fill:#ebebeb"></rect><rect x="43.65" y="324.41" width="7.73" height="3.85" style="fill:#ebebeb"></rect><rect x="53.54" y="324.41" width="7.73" height="3.85" style="fill:#ebebeb"></rect><rect x="43.65" y="317.88" width="7.73" height="3.85" style="fill:#ebebeb"></rect><rect x="53.54" y="317.88" width="7.73" height="3.85" style="fill:#ebebeb"></rect><rect x="43.65" y="311.35" width="7.73" height="3.85" style="fill:#ebebeb"></rect><rect x="53.54" y="311.35" width="7.73" height="3.85" style="fill:#ebebeb"></rect><rect x="43.65" y="304.81" width="7.73" height="3.85" style="fill:#ebebeb"></rect><rect x="53.54" y="304.81" width="7.73" height="3.85" style="fill:#ebebeb"></rect><rect x="43.65" y="298.28" width="7.73" height="3.85" style="fill:#ebebeb"></rect><rect x="53.54" y="298.28" width="7.73" height="3.85" style="fill:#ebebeb"></rect><rect x="43.65" y="291.74" width="7.73" height="3.85" style="fill:#ebebeb"></rect><rect x="53.54" y="291.74" width="7.73" height="3.85" style="fill:#ebebeb"></rect><rect x="43.65" y="285.21" width="7.73" height="3.85" style="fill:#ebebeb"></rect><rect x="53.54" y="285.21" width="7.73" height="3.85" style="fill:#ebebeb"></rect><rect x="43.65" y="278.67" width="7.73" height="3.85" style="fill:#ebebeb"></rect><rect x="53.54" y="278.67" width="7.73" height="3.85" style="fill:#ebebeb"></rect><rect x="385.31" y="253.54" width="18.52" height="21.88" transform="translate(789.15 528.95) rotate(180)" style="fill:#dbdbdb"></rect><rect x="373.57" y="253.54" width="11.74" height="22.68" transform="translate(758.88 529.76) rotate(180)" style="fill:#c7c7c7"></rect><rect x="372.78" y="263.2" width="11.66" height="13.02" transform="translate(757.22 539.42) rotate(180)" style="fill:#dbdbdb"></rect><rect x="365.51" y="263.2" width="7.27" height="13.02" transform="translate(738.3 539.42) rotate(180)" style="fill:#c7c7c7"></rect><rect x="380.99" y="274" width="29.95" height="108.86" transform="translate(791.93 656.85) rotate(180)" style="fill:#ebebeb"></rect><rect x="398.1" y="278.67" width="9.42" height="3.85" transform="translate(805.61 561.2) rotate(180)" style="fill:#fff"></rect><rect x="386.05" y="278.67" width="9.42" height="3.85" transform="translate(781.52 561.2) rotate(180)" style="fill:#fff"></rect><rect x="398.1" y="285.21" width="9.42" height="3.85" transform="translate(805.61 574.27) rotate(180)" style="fill:#fff"></rect><rect x="386.05" y="285.21" width="9.42" height="3.85" transform="translate(781.52 574.27) rotate(180)" style="fill:#fff"></rect><rect x="398.1" y="291.74" width="9.42" height="3.85" transform="translate(805.61 587.34) rotate(180)" style="fill:#fff"></rect><rect x="386.05" y="291.74" width="9.42" height="3.85" transform="translate(781.52 587.34) rotate(180)" style="fill:#fff"></rect><rect x="398.1" y="298.28" width="9.42" height="3.85" transform="translate(805.61 600.4) rotate(180)" style="fill:#fff"></rect><rect x="386.05" y="298.28" width="9.42" height="3.85" transform="translate(781.52 600.4) rotate(180)" style="fill:#fff"></rect><rect x="398.1" y="304.81" width="9.42" height="3.85" transform="translate(805.61 613.47) rotate(180)" style="fill:#fff"></rect><rect x="386.05" y="304.81" width="9.42" height="3.85" transform="translate(781.52 613.47) rotate(180)" style="fill:#fff"></rect><rect x="398.1" y="311.35" width="9.42" height="3.85" transform="translate(805.61 626.54) rotate(180)" style="fill:#fff"></rect><rect x="386.05" y="311.35" width="9.42" height="3.85" transform="translate(781.52 626.54) rotate(180)" style="fill:#fff"></rect><rect x="398.1" y="317.88" width="9.42" height="3.85" transform="translate(805.61 639.61) rotate(180)" style="fill:#fff"></rect><rect x="386.05" y="317.88" width="9.42" height="3.85" transform="translate(781.52 639.61) rotate(180)" style="fill:#fff"></rect><rect x="398.1" y="324.41" width="9.42" height="3.85" transform="translate(805.61 652.68) rotate(180)" style="fill:#fff"></rect><rect x="386.05" y="324.41" width="9.42" height="3.85" transform="translate(781.52 652.68) rotate(180)" style="fill:#fff"></rect><rect x="398.1" y="330.95" width="9.42" height="3.85" transform="translate(805.61 665.74) rotate(180)" style="fill:#fff"></rect><rect x="386.05" y="330.95" width="9.42" height="3.85" transform="translate(781.52 665.74) rotate(180)" style="fill:#fff"></rect><rect x="398.1" y="337.48" width="9.42" height="3.85" transform="translate(805.61 678.81) rotate(180)" style="fill:#fff"></rect><rect x="386.05" y="337.48" width="9.42" height="3.85" transform="translate(781.52 678.81) rotate(180)" style="fill:#fff"></rect><rect x="398.1" y="344.02" width="9.42" height="3.85" transform="translate(805.61 691.88) rotate(180)" style="fill:#fff"></rect><rect x="386.05" y="344.02" width="9.42" height="3.85" transform="translate(781.52 691.88) rotate(180)" style="fill:#fff"></rect><rect x="398.1" y="350.55" width="9.42" height="3.85" transform="translate(805.61 704.95) rotate(180)" style="fill:#fff"></rect><rect x="386.05" y="350.55" width="9.42" height="3.85" transform="translate(781.52 704.95) rotate(180)" style="fill:#fff"></rect><rect x="398.1" y="357.08" width="9.42" height="3.85" transform="translate(805.61 718.02) rotate(180)" style="fill:#fff"></rect><rect x="386.05" y="357.08" width="9.42" height="3.85" transform="translate(781.52 718.02) rotate(180)" style="fill:#fff"></rect><rect x="398.1" y="363.62" width="9.42" height="3.85" transform="translate(805.61 731.09) rotate(180)" style="fill:#fff"></rect><rect x="386.05" y="363.62" width="9.42" height="3.85" transform="translate(781.52 731.09) rotate(180)" style="fill:#fff"></rect><rect x="356.71" y="274" width="24.27" height="108.86" transform="translate(737.7 656.85) rotate(180)" style="fill:#c7c7c7"></rect><rect x="359.15" y="363.62" width="7.73" height="3.85" style="fill:#ebebeb"></rect><rect x="369.04" y="363.62" width="7.73" height="3.85" style="fill:#ebebeb"></rect><rect x="359.15" y="357.08" width="7.73" height="3.85" style="fill:#ebebeb"></rect><rect x="369.04" y="357.08" width="7.73" height="3.85" style="fill:#ebebeb"></rect><rect x="359.15" y="350.55" width="7.73" height="3.85" style="fill:#ebebeb"></rect><rect x="369.04" y="350.55" width="7.73" height="3.85" style="fill:#ebebeb"></rect><rect x="359.15" y="344.02" width="7.73" height="3.85" style="fill:#ebebeb"></rect><rect x="369.04" y="344.02" width="7.73" height="3.85" style="fill:#ebebeb"></rect><rect x="359.15" y="337.48" width="7.73" height="3.85" style="fill:#ebebeb"></rect><rect x="369.04" y="337.48" width="7.73" height="3.85" style="fill:#ebebeb"></rect><rect x="359.15" y="330.95" width="7.73" height="3.85" style="fill:#ebebeb"></rect><rect x="369.04" y="330.95" width="7.73" height="3.85" style="fill:#ebebeb"></rect><rect x="359.15" y="324.41" width="7.73" height="3.85" style="fill:#ebebeb"></rect><rect x="369.04" y="324.41" width="7.73" height="3.85" style="fill:#ebebeb"></rect><rect x="359.15" y="317.88" width="7.73" height="3.85" style="fill:#ebebeb"></rect><rect x="369.04" y="317.88" width="7.73" height="3.85" style="fill:#ebebeb"></rect><rect x="359.15" y="311.35" width="7.73" height="3.85" style="fill:#ebebeb"></rect><rect x="369.04" y="311.35" width="7.73" height="3.85" style="fill:#ebebeb"></rect><rect x="359.15" y="304.81" width="7.73" height="3.85" style="fill:#ebebeb"></rect><rect x="369.04" y="304.81" width="7.73" height="3.85" style="fill:#ebebeb"></rect><rect x="359.15" y="298.28" width="7.73" height="3.85" style="fill:#ebebeb"></rect><rect x="369.04" y="298.28" width="7.73" height="3.85" style="fill:#ebebeb"></rect><rect x="359.15" y="291.74" width="7.73" height="3.85" style="fill:#ebebeb"></rect><rect x="369.04" y="291.74" width="7.73" height="3.85" style="fill:#ebebeb"></rect><rect x="359.15" y="285.21" width="7.73" height="3.85" style="fill:#ebebeb"></rect><rect x="369.04" y="285.21" width="7.73" height="3.85" style="fill:#ebebeb"></rect><rect x="359.15" y="278.67" width="7.73" height="3.85" style="fill:#ebebeb"></rect><rect x="369.04" y="278.67" width="7.73" height="3.85" style="fill:#ebebeb"></rect><rect x="188.32" y="311.92" width="35.33" height="70.93" transform="translate(411.97 694.78) rotate(180)" style="fill:#c7c7c7"></rect><rect x="211.84" y="318.06" width="6.25" height="4.35" transform="translate(429.93 640.47) rotate(180)" style="fill:#dbdbdb"></rect><rect x="211.84" y="327.34" width="6.25" height="4.35" transform="translate(429.93 659.03) rotate(180)" style="fill:#dbdbdb"></rect><rect x="211.84" y="336.63" width="6.25" height="4.35" transform="translate(429.93 677.6) rotate(180)" style="fill:#dbdbdb"></rect><rect x="211.84" y="345.91" width="6.25" height="4.35" transform="translate(429.93 696.16) rotate(180)" style="fill:#dbdbdb"></rect><rect x="211.84" y="355.19" width="6.25" height="4.35" transform="translate(429.93 714.73) rotate(180)" style="fill:#dbdbdb"></rect><rect x="211.84" y="364.47" width="6.25" height="4.35" transform="translate(429.93 733.29) rotate(180)" style="fill:#dbdbdb"></rect><rect x="211.84" y="373.76" width="6.25" height="4.35" transform="translate(429.93 751.86) rotate(180)" style="fill:#dbdbdb"></rect><rect x="202.85" y="318.06" width="6.25" height="4.35" transform="translate(411.95 640.47) rotate(180)" style="fill:#dbdbdb"></rect><rect x="202.85" y="327.34" width="6.25" height="4.35" transform="translate(411.95 659.03) rotate(180)" style="fill:#dbdbdb"></rect><rect x="202.85" y="336.63" width="6.25" height="4.35" transform="translate(411.95 677.6) rotate(180)" style="fill:#dbdbdb"></rect><rect x="202.85" y="345.91" width="6.25" height="4.35" transform="translate(411.95 696.16) rotate(180)" style="fill:#dbdbdb"></rect><rect x="202.85" y="355.19" width="6.25" height="4.35" transform="translate(411.95 714.73) rotate(180)" style="fill:#dbdbdb"></rect><rect x="202.85" y="364.47" width="6.25" height="4.35" transform="translate(411.95 733.29) rotate(180)" style="fill:#dbdbdb"></rect><rect x="202.85" y="373.76" width="6.25" height="4.35" transform="translate(411.95 751.86) rotate(180)" style="fill:#dbdbdb"></rect><rect x="193.88" y="318.06" width="6.25" height="4.35" transform="translate(394 640.47) rotate(180)" style="fill:#dbdbdb"></rect><rect x="193.88" y="327.34" width="6.25" height="4.35" transform="translate(394 659.03) rotate(180)" style="fill:#dbdbdb"></rect><rect x="193.88" y="336.63" width="6.25" height="4.35" transform="translate(394 677.6) rotate(180)" style="fill:#dbdbdb"></rect><rect x="193.88" y="345.91" width="6.25" height="4.35" transform="translate(394 696.16) rotate(180)" style="fill:#dbdbdb"></rect><rect x="193.88" y="355.19" width="6.25" height="4.35" transform="translate(394 714.73) rotate(180)" style="fill:#dbdbdb"></rect><rect x="193.88" y="364.47" width="6.25" height="4.35" transform="translate(394 733.29) rotate(180)" style="fill:#dbdbdb"></rect><rect x="193.88" y="373.76" width="6.25" height="4.35" transform="translate(394 751.86) rotate(180)" style="fill:#dbdbdb"></rect><rect x="188.32" y="304.53" width="23.52" height="7.39" transform="translate(400.16 616.45) rotate(180)" style="fill:#dbdbdb"></rect><rect x="188.32" y="299.95" width="14.91" height="4.58" transform="translate(391.55 604.48) rotate(180)" style="fill:#ebebeb"></rect><rect x="163.53" y="311.92" width="24.79" height="70.93" transform="translate(351.85 694.78) rotate(180)" style="fill:#a6a6a6"></rect><rect x="166.07" y="373.06" width="5.09" height="4.35" style="fill:#c7c7c7"></rect><rect x="166.07" y="363.78" width="5.09" height="4.35" style="fill:#c7c7c7"></rect><rect x="166.07" y="354.5" width="5.09" height="4.35" style="fill:#c7c7c7"></rect><rect x="166.07" y="345.22" width="5.09" height="4.35" style="fill:#c7c7c7"></rect><rect x="166.07" y="335.93" width="5.09" height="4.35" style="fill:#c7c7c7"></rect><rect x="166.07" y="326.65" width="5.09" height="4.35" style="fill:#c7c7c7"></rect><rect x="166.07" y="317.37" width="5.09" height="4.35" style="fill:#c7c7c7"></rect><rect x="173.39" y="373.06" width="5.09" height="4.35" style="fill:#c7c7c7"></rect><rect x="173.39" y="363.78" width="5.09" height="4.35" style="fill:#c7c7c7"></rect><rect x="173.39" y="354.5" width="5.09" height="4.35" style="fill:#c7c7c7"></rect><rect x="173.39" y="345.22" width="5.09" height="4.35" style="fill:#c7c7c7"></rect><rect x="173.39" y="335.93" width="5.09" height="4.35" style="fill:#c7c7c7"></rect><rect x="173.39" y="326.65" width="5.09" height="4.35" style="fill:#c7c7c7"></rect><rect x="173.39" y="317.37" width="5.09" height="4.35" style="fill:#c7c7c7"></rect><rect x="180.69" y="373.06" width="5.09" height="4.35" style="fill:#c7c7c7"></rect><rect x="180.69" y="363.78" width="5.09" height="4.35" style="fill:#c7c7c7"></rect><rect x="180.69" y="354.5" width="5.09" height="4.35" style="fill:#c7c7c7"></rect><rect x="180.69" y="345.22" width="5.09" height="4.35" style="fill:#c7c7c7"></rect><rect x="180.69" y="335.93" width="5.09" height="4.35" style="fill:#c7c7c7"></rect><rect x="180.69" y="326.65" width="5.09" height="4.35" style="fill:#c7c7c7"></rect><rect x="180.69" y="317.37" width="5.09" height="4.35" style="fill:#c7c7c7"></rect><rect x="167.29" y="304.53" width="21.03" height="7.39" transform="translate(355.61 616.45) rotate(180)" style="fill:#c7c7c7"></rect><rect x="176.92" y="299.95" width="11.4" height="4.58" transform="translate(365.24 604.48) rotate(180)" style="fill:#dbdbdb"></rect></g><g id="freepik--Shadow--inject-323"><ellipse cx="250" cy="462.81" rx="128.35" ry="12.15" style="fill:#ebebeb"></ellipse></g><g id="freepik--Floor--inject-323"><rect x="37.86" y="382.86" width="424.28" height="6.8" style="fill:#c7c7c7"></rect><path d="M67.6,382.86a11.59,11.59,0,0,1,0,6.8,10.27,10.27,0,0,1-.5-3.4A10.78,10.78,0,0,1,67.6,382.86Z" style="fill:#263238"></path><path d="M100.77,382.86a10.78,10.78,0,0,1,.5,3.4,10.27,10.27,0,0,1-.5,3.4,11.59,11.59,0,0,1,0-6.8Z" style="fill:#263238"></path><path d="M133.93,382.86a11.81,11.81,0,0,1,0,6.8,11.81,11.81,0,0,1,0-6.8Z" style="fill:#263238"></path><path d="M167.09,382.86a11.59,11.59,0,0,1,0,6.8,10.27,10.27,0,0,1-.5-3.4A10.5,10.5,0,0,1,167.09,382.86Z" style="fill:#263238"></path><path d="M200.26,382.86a10.78,10.78,0,0,1,.5,3.4,10.27,10.27,0,0,1-.5,3.4,11.59,11.59,0,0,1,0-6.8Z" style="fill:#263238"></path><path d="M233.42,382.86a11.81,11.81,0,0,1,0,6.8,11.59,11.59,0,0,1,0-6.8Z" style="fill:#263238"></path><path d="M266.58,382.86a11.59,11.59,0,0,1,0,6.8,11.81,11.81,0,0,1,0-6.8Z" style="fill:#263238"></path><path d="M299.74,382.86a11.59,11.59,0,0,1,0,6.8,10.27,10.27,0,0,1-.5-3.4A10.78,10.78,0,0,1,299.74,382.86Z" style="fill:#263238"></path><path d="M332.91,382.86a10.5,10.5,0,0,1,.5,3.4,10.27,10.27,0,0,1-.5,3.4,11.59,11.59,0,0,1,0-6.8Z" style="fill:#263238"></path><path d="M366.07,382.86a11.81,11.81,0,0,1,0,6.8,11.81,11.81,0,0,1,0-6.8Z" style="fill:#263238"></path><path d="M399.23,382.86a11.59,11.59,0,0,1,0,6.8,10.27,10.27,0,0,1-.5-3.4A10.5,10.5,0,0,1,399.23,382.86Z" style="fill:#263238"></path><path d="M432.4,382.86a10.78,10.78,0,0,1,.5,3.4,10.27,10.27,0,0,1-.5,3.4,11.59,11.59,0,0,1,0-6.8Z" style="fill:#263238"></path><polygon points="32.13 389.66 86.6 389.42 141.06 389.33 250 389.16 358.94 389.33 413.4 389.42 467.87 389.66 413.4 389.9 358.94 389.99 250 390.16 141.06 389.99 86.6 389.9 32.13 389.66" style="fill:#263238"></polygon></g><g id="freepik--Trees--inject-323"><path d="M72.88,310.26s19.64,43.62-12.42,43.65S49.13,308.8,49.13,308.8s-7.42-3.26,1.16-27.61,12.43-24.36,16-24.36c4.52,0,8.74,10.53,5.67,26.71C72,283.54,83.27,303.72,72.88,310.26Z" style="fill:#37474f"></path><polygon points="57.65 382.86 60.67 317.11 63.83 382.85 57.65 382.86" style="fill:#263238"></polygon><polygon points="59.44 344.68 71.08 331.05 61.96 346.47 59.44 344.68" style="fill:#263238"></polygon><path d="M201.35,331.28S216.07,364,192,364s-8.49-33.81-8.49-33.81-5.57-2.44.86-20.69,9.32-18.26,12-18.26c3.39,0,6.55,7.89,4.25,20C200.66,311.26,209.13,326.38,201.35,331.28Z" style="fill:#37474f"></path><polygon points="189.93 385.69 192.19 336.42 194.56 385.69 189.93 385.69" style="fill:#263238"></polygon><polygon points="191.27 357.08 200 346.87 193.16 358.43 191.27 357.08" style="fill:#263238"></polygon><path d="M313,331.28S327.68,364,303.65,364s-8.49-33.81-8.49-33.81-5.57-2.44.86-20.69,9.32-18.26,12-18.26c3.39,0,6.55,7.89,4.25,20C312.27,311.26,320.74,326.38,313,331.28Z" style="fill:#37474f"></path><polygon points="301.54 385.69 303.8 336.42 306.17 385.69 301.54 385.69" style="fill:#263238"></polygon><polygon points="302.88 357.08 311.61 346.87 304.77 358.43 302.88 357.08" style="fill:#263238"></polygon><path d="M423,315s-9.15-3.62-16.39,9c-7.43,13,1.91,21.48,9.31,16.39,0,0,5.82,12.19,17.42,9.27s13.49-12.2,13.49-12.2,10.3.71,10.58-7-7.27-14.51-7.27-14.51-.46-19.15-12.94-19S423,315,423,315Z" style="fill:#455a64"></path><polygon points="431.61 382.83 434.15 325.82 436.83 382.82 431.61 382.83" style="fill:#263238"></polygon><polygon points="433.4 347.24 425.37 331.26 434.72 344.75 433.4 347.24" style="fill:#263238"></polygon><path d="M89.56,315s-9.14-3.62-16.39,9c-7.42,13,1.91,21.48,9.31,16.39,0,0,5.82,12.19,17.42,9.27s13.49-12.2,13.49-12.2,10.3.71,10.59-7-7.28-14.51-7.28-14.51-.45-19.15-12.93-19S89.56,315,89.56,315Z" style="fill:#455a64"></path><polygon points="98.13 382.83 100.68 325.82 103.35 382.82 98.13 382.83" style="fill:#263238"></polygon><polygon points="99.92 347.24 91.89 331.26 101.24 344.75 99.92 347.24" style="fill:#263238"></polygon><path d="M346.11,323.17s-8-3.18-14.4,7.93c-6.53,11.38,1.68,18.87,8.18,14.4,0,0,5.11,10.71,15.31,8.14s11.85-10.72,11.85-10.72,9.05.63,9.3-6.13S370,324,370,324s-.4-16.84-11.37-16.7S346.11,323.17,346.11,323.17Z" style="fill:#455a64"></path><polygon points="353.64 382.82 355.88 332.73 358.23 382.82 353.64 382.82" style="fill:#263238"></polygon><polygon points="355.22 351.55 348.16 337.51 356.37 349.36 355.22 351.55" style="fill:#263238"></polygon><path d="M373.06,319.23s-17.12,38.24,11,38.21,9.84-39.53,9.84-39.53,6.5-2.87-1.06-24.18-10.94-21.32-14.07-21.31c-4,0-7.63,9.24-4.91,23.41C373.82,295.83,364,313.52,373.06,319.23Z" style="fill:#37474f"></path><polygon points="386.54 382.79 383.77 325.21 381.13 382.8 386.54 382.79" style="fill:#263238"></polygon><polygon points="384.9 349.35 374.68 337.44 382.7 350.93 384.9 349.35" style="fill:#263238"></polygon></g><g id="freepik--Balloons--inject-323"><path d="M412.45,50a69,69,0,0,0-5.1,7.09c-1.57,2.48-3,5-4.38,7.72a76.16,76.16,0,0,0-6.18,16.88,61.48,61.48,0,0,0-1.41,8.9,57,57,0,0,0,0,8.86,103.89,103.89,0,0,0,3.05,16.82c.65,2.73,1.28,5.46,1.77,8.23a47.78,47.78,0,0,1,.73,8.49,41.46,41.46,0,0,1-4.09,17,83.58,83.58,0,0,1-4.2,7.73q-2.26,3.81-4.37,7.73c-1.43,2.59-2.79,5.23-4.14,7.87s-2.67,5.31-3.95,8q4.18-7.83,8.56-15.53c1.46-2.56,2.95-5.1,4.5-7.58a70.9,70.9,0,0,0,4.34-7.8,48.47,48.47,0,0,0,3.09-8.53,38.09,38.09,0,0,0,1.2-9,48.45,48.45,0,0,0-.7-8.75c-.47-2.84-1.13-5.58-1.79-8.31a101.41,101.41,0,0,1-3.11-16.59,59,59,0,0,1,1.23-17.41,77.17,77.17,0,0,1,5.87-16.78A86.07,86.07,0,0,1,412.45,50Z" style="fill:#2f2f2e"></path><path d="M404.75,69.27s.56,6.79.14,7.06-8.57-1.56-8.67-1.94S399,68,399,68Z" style="fill:#455a64"></path><path d="M413.38,18.05c13.82,3.09,22.54,16.66,18,33.35s-22,20.35-28.93,18.8c-5-1.12-24.05-9.7-19.3-30.94C387.2,21.11,399.61,15,413.38,18.05Z" style="fill:#455a64"></path><path d="M426.14,45.67a15.68,15.68,0,1,1-4.2-21.77A15.67,15.67,0,0,1,426.14,45.67Z" style="fill:#fff;opacity:0.1"></path><path d="M423.43,38.43a9.37,9.37,0,1,1-2.51-13A9.38,9.38,0,0,1,423.43,38.43Z" style="fill:#fff;opacity:0.2"></path><path d="M415.07,109.05a57,57,0,0,1-.47,8.66,71.34,71.34,0,0,1-1.56,8.55,59.35,59.35,0,0,1-6.53,16.11A46.14,46.14,0,0,1,395,155.46c-4.59,3.63-9.77,6.37-14.87,9-2.56,1.35-5.09,2.72-7.53,4.22a41.34,41.34,0,0,0-6.77,5.19,32.25,32.25,0,0,0-8.48,14.58,64.53,64.53,0,0,0-1.76,8.42c-.45,2.86-1,5.71-1.57,8.54s-1.23,5.66-1.91,8.47-1.38,5.62-2.15,8.41q1.83-8.49,3.39-17c.51-2.85,1-5.69,1.36-8.55a57.37,57.37,0,0,1,1.66-8.57,38.22,38.22,0,0,1,3.33-8.12,30.78,30.78,0,0,1,5.35-7,42.88,42.88,0,0,1,6.93-5.38c2.47-1.56,5.05-2.91,7.61-4.25a92.21,92.21,0,0,0,14.76-8.86,47.88,47.88,0,0,0,11.41-12.7,59.56,59.56,0,0,0,6.73-15.81A70.27,70.27,0,0,0,415.07,109.05Z" style="fill:#2f2f2e"></path><path d="M416.65,121.85s-.21,6.81-.65,7-8.35-2.5-8.4-2.89,3.48-6.06,3.48-6.06Z" style="fill:#FFA52E"></path><path d="M431,71.92c13.38,4.62,20.53,19.08,14.14,35.15S421,124.84,414.26,122.52c-4.87-1.68-22.81-12.34-15.72-32.91C404.61,72,417.63,67.32,431,71.92Z" style="fill:#FFA52E"></path><circle cx="428.63" cy="90.61" r="15.68" style="fill:#fff;opacity:0.1"></circle><circle cx="431.54" cy="87.21" r="9.37" transform="translate(146.72 422.94) rotate(-61.12)" style="fill:#fff;opacity:0.2"></circle></g><g id="freepik--Benches--inject-323"><rect x="105.75" y="345.1" width="2.17" height="19.22" style="fill:#263238"></rect><rect x="145.09" y="345.1" width="2.17" height="19.22" style="fill:#263238"></rect><rect x="100.07" y="346.85" width="52.87" height="2.84" style="fill:#FFA52E"></rect><rect x="100.07" y="346.85" width="52.87" height="2.84" style="opacity:0.2"></rect><rect x="100.07" y="351.23" width="52.87" height="2.84" style="fill:#FFA52E"></rect><rect x="100.07" y="351.23" width="52.87" height="2.84" style="opacity:0.2"></rect><rect x="100.07" y="355.6" width="52.87" height="2.84" style="fill:#FFA52E"></rect><rect x="100.07" y="355.6" width="52.87" height="2.84" style="opacity:0.2"></rect><rect x="100.07" y="359.98" width="52.87" height="2.84" style="fill:#FFA52E"></rect><rect x="100.07" y="359.98" width="52.87" height="2.84" style="opacity:0.2"></rect><rect x="95.41" y="364.32" width="62.93" height="4.23" style="fill:#FFA52E"></rect><rect x="95.41" y="364.32" width="62.93" height="4.23" style="opacity:0.2"></rect><rect x="98.94" y="368.55" width="2.17" height="14.31" style="fill:#263238"></rect><rect x="152.65" y="368.55" width="2.17" height="14.31" style="fill:#263238"></rect><g style="opacity:0.2"><path d="M107.1,348.27a.27.27,0,1,1-.27-.27A.27.27,0,0,1,107.1,348.27Z"></path><path d="M107.1,352.65a.27.27,0,1,1-.27-.27A.27.27,0,0,1,107.1,352.65Z"></path><circle cx="106.83" cy="357.02" r="0.27"></circle><path d="M107.1,361.4a.27.27,0,1,1-.27-.27A.27.27,0,0,1,107.1,361.4Z"></path><path d="M146.44,348.27a.27.27,0,1,1-.27-.27A.27.27,0,0,1,146.44,348.27Z"></path><path d="M146.44,352.65a.27.27,0,1,1-.27-.27A.27.27,0,0,1,146.44,352.65Z"></path><path d="M146.44,357a.27.27,0,1,1-.27-.26A.27.27,0,0,1,146.44,357Z"></path><path d="M146.44,361.4a.27.27,0,1,1-.27-.27A.27.27,0,0,1,146.44,361.4Z"></path></g><rect x="351.99" y="345.1" width="2.17" height="19.22" style="fill:#263238"></rect><rect x="391.32" y="345.1" width="2.17" height="19.22" style="fill:#263238"></rect><rect x="346.3" y="346.85" width="52.87" height="2.84" style="fill:#FFA52E"></rect><rect x="346.3" y="346.85" width="52.87" height="2.84" style="opacity:0.2"></rect><rect x="346.3" y="351.23" width="52.87" height="2.84" style="fill:#FFA52E"></rect><rect x="346.3" y="351.23" width="52.87" height="2.84" style="opacity:0.2"></rect><rect x="346.3" y="355.6" width="52.87" height="2.84" style="fill:#FFA52E"></rect><rect x="346.3" y="355.6" width="52.87" height="2.84" style="opacity:0.2"></rect><rect x="346.3" y="359.98" width="52.87" height="2.84" style="fill:#FFA52E"></rect><rect x="346.3" y="359.98" width="52.87" height="2.84" style="opacity:0.2"></rect><rect x="341.65" y="364.32" width="62.93" height="4.23" style="fill:#FFA52E"></rect><rect x="341.65" y="364.32" width="62.93" height="4.23" style="opacity:0.2"></rect><rect x="345.18" y="368.55" width="2.17" height="14.31" style="fill:#263238"></rect><rect x="398.89" y="368.55" width="2.17" height="14.31" style="fill:#263238"></rect><g style="opacity:0.2"><path d="M353.34,348.27a.27.27,0,1,1-.27-.27A.27.27,0,0,1,353.34,348.27Z"></path><path d="M353.34,352.65a.27.27,0,1,1-.27-.27A.27.27,0,0,1,353.34,352.65Z"></path><path d="M353.34,357a.27.27,0,1,1-.27-.26A.27.27,0,0,1,353.34,357Z"></path><path d="M353.34,361.4a.27.27,0,1,1-.27-.27A.27.27,0,0,1,353.34,361.4Z"></path><path d="M392.68,348.27a.27.27,0,1,1-.27-.27A.27.27,0,0,1,392.68,348.27Z"></path><path d="M392.68,352.65a.27.27,0,1,1-.27-.27A.27.27,0,0,1,392.68,352.65Z"></path><path d="M392.68,357a.27.27,0,1,1-.27-.26A.27.27,0,0,1,392.68,357Z"></path><path d="M392.68,361.4a.27.27,0,1,1-.27-.27A.27.27,0,0,1,392.68,361.4Z"></path></g></g><g id="freepik--Character--inject-323"><path d="M156.72,457.12c-1.68-1.49-31.9-54.39-31.78-57.13,0-1,7.49-5.89,16.65-11.5,2-1.21,32.55-22.32,32.55-22.32l19.71,34.3-32.67,22.06s2.51,25.43,2,28.43S158.39,458.61,156.72,457.12Z" style="fill:#d3766a"></path><path d="M163.23,451c-.46,3-4.84,7.65-6.51,6.16s-31.9-54.39-31.78-57.13c0-.87,5.29-4.43,12.39-8.87,2,7.29,7.48,22.26,12.62,34.39,4.2,9.91,8.2,17.92,10,18.29,2.21.47,2.64-3.38,2.54-7.16C163,443.05,163.45,449.54,163.23,451Z" style="fill:#263238"></path><path d="M161.87,429.85s-2.61-5.23-11.92-4.34Z" style="fill:#263238"></path><path d="M310.32,466.8c-2.13.71-63,.53-65.37-.94-.88-.56-1.37-9.43-1.66-20.17-.06-2.32,0-39.4,0-39.4l37.22,0,2.1,39.36s23.29,10.5,25.66,12.39S312.45,466.1,310.32,466.8Z" style="fill:#d3766a"></path><path d="M290.76,449.44l-.44-.17h.09Z" style="fill:#263238"></path><path d="M310.32,466.8c-2.13.71-63,.53-65.37-.94-.71-.45-1.17-6.33-1.47-14.24,6.79,1.77,23.49,4.48,37.26,6,10.7,1.14,19.64,1.54,20.83.17s-1-3.46-3.93-5.1a105.44,105.44,0,0,1,10.59,5.43C310.59,460,312.45,466.1,310.32,466.8Z" style="fill:#263238"></path><path d="M290.32,449.27s-5.83-.27-9.58,8.31Z" style="fill:#263238"></path><path d="M243.31,439.34l38.93.6s-2.27-76.12-2.54-79.05c-2.13-22.6-15.91-96.12-15.91-96.12H219.62s18.43,72.9,19.78,96.08C240.63,382,243.31,439.34,243.31,439.34Z" style="fill:#d3766a"></path><path d="M219.63,264.78s11.23,44.43,16.79,75c.13.62.25,1.25.35,1.87.16.79.29,1.57.42,2.34l23.69-79.17Z" style="fill:#263238"></path><path d="M149.21,383.23l21.67,32.38s51.44-30.65,56.79-44.89c6.9-18.33,17.59-72.79,17.59-72.79l7.17-1c2.58-2.33,7.11-32.17,7.11-32.17h-51s-8,17.92-4.82,37.27c0,0-8.55,35.94-11.21,47.26C191,356,149.21,383.23,149.21,383.23Z" style="fill:#d3766a"></path><path d="M228.06,155.67a17.69,17.69,0,0,0-9.16,9.11c-2.41,5.68-.61,18.73-.61,22.12s-4.09,4.86-4.21,8.82c-.09,3.41,2.52,4,3.31,6.33.62,1.78-.57,4.95,1.73,7.25,2.09,2.1,4.63.95,6.42,1.34s3.67,3.87,6.88,4.17,5.2-3,6.78-3.39,4.6,4.05,9.65,2.41,5.5-6.35,7.43-7.71,7.61-1.14,9.42-4.37,1.39-6.88,2.18-8.45,3.13-1.89,3.78-5.24-2.61-4.6-3.62-7.13c-.71-1.76.52-3.82-1.28-6.34-2.48-3.46-7-1.53-9.69-5.05-2.14-2.76-8.21-15.5-17.11-16.89C233.82,151.68,228.06,155.67,228.06,155.67Z" style="fill:#263238"></path><path d="M218.27,186.09a4.8,4.8,0,0,1-1,2L216,190a14.37,14.37,0,0,0-2.22,3.83,4.57,4.57,0,0,0,.42,4,7.23,7.23,0,0,0,1.5,1.53A8.63,8.63,0,0,1,217.4,201a4,4,0,0,1,.36,2.48c-.07.77-.18,1.51-.21,2.24a5.41,5.41,0,0,0,1.08,4,3.09,3.09,0,0,0,1.74,1.05,5.62,5.62,0,0,0,2.16,0c.73-.12,1.46-.32,2.21-.48a3.87,3.87,0,0,1,2.26,0,4.05,4.05,0,0,0-2.2.24c-.72.23-1.44.49-2.19.68a6.1,6.1,0,0,1-2.34.16,3.74,3.74,0,0,1-2.14-1.15,5.85,5.85,0,0,1-1.37-4.48c0-.78.12-1.54.17-2.28a3.1,3.1,0,0,0-.26-1.94c-.72-1.07-2.3-1.81-3.16-3.22a5.09,5.09,0,0,1-.4-4.68,14.51,14.51,0,0,1,2.52-3.87l1.49-1.72A5.24,5.24,0,0,0,218.27,186.09Z" style="fill:#263238"></path><path d="M249.26,158.45a67.43,67.43,0,0,1,5.07,6.37c.83,1.06,1.63,2.15,2.53,3.13a9.21,9.21,0,0,0,1.43,1.31,1.44,1.44,0,0,0,.37.22,1.78,1.78,0,0,0,.41.14,7.42,7.42,0,0,0,1,.2,39.9,39.9,0,0,1,4,.83,7,7,0,0,1,3.59,2.22,4.33,4.33,0,0,1,.9,2,5.5,5.5,0,0,1-.14,2.11,8.7,8.7,0,0,0-.36,4,8.21,8.21,0,0,1-.06-4.06,5.23,5.23,0,0,0,0-1.93,3.78,3.78,0,0,0-.87-1.64,6.79,6.79,0,0,0-3.3-1.89,37,37,0,0,0-4-.73c-.33-.07-.68-.14-1-.24a2.82,2.82,0,0,1-1-.5,9,9,0,0,1-1.54-1.47,31.33,31.33,0,0,1-2.49-3.27l-2.24-3.4A36.66,36.66,0,0,0,249.26,158.45Z" style="fill:#263238"></path><path d="M268.93,192.11a7,7,0,0,0-.23,2.85c0,1,0,1.95,0,2.93a14.16,14.16,0,0,1-.35,3,6.45,6.45,0,0,1-1.34,2.79,8.13,8.13,0,0,1-5.62,2c-1,0-2,0-2.91.11a6,6,0,0,0-2.77.66,5.65,5.65,0,0,1,2.72-1.08c1-.16,1.95-.23,2.9-.36,1.87-.23,3.83-.66,5-2a5.7,5.7,0,0,0,1.18-2.4,17.24,17.24,0,0,0,.48-2.8c.11-1,.16-1.92.23-2.9.05-.48.1-1,.17-1.46A2.73,2.73,0,0,1,268.93,192.11Z" style="fill:#263238"></path><path d="M250.48,202.68c9.68,5.36,30.93,17.65,33.74,18.12,6.71,1.12,24.57-.16,27.89.29,5.07.68,6.52,28.76,3,28.43a192.33,192.33,0,0,1-38.5-5.64c-7.85-2-26.39-24.65-33.55-33.43S243.72,199,250.48,202.68Z" style="fill:#d3766a"></path><path d="M331.82,248.07c-5.66,2.1-18.91,1.88-22.09.59s-3.54-23.83-.8-26,22.35-7.8,28.2-5.87S337.69,245.89,331.82,248.07Z" style="fill:#d3766a"></path><path d="M360.36,144.27a62.33,62.33,0,0,1,2.2,9.16,77.88,77.88,0,0,1,1,9.39,64.38,64.38,0,0,1-1.8,18.8,51.75,51.75,0,0,1-3.14,9,51,51,0,0,1-4.78,8.22c-3.65,5.2-8.19,9.66-12.68,14-2.24,2.19-4.46,4.4-6.53,6.72a44.25,44.25,0,0,0-5.44,7.5,35,35,0,0,0-4.32,17.81,69.59,69.59,0,0,0,.78,9.31c.42,3.12.73,6.25,1,9.38s.48,6.27.64,9.41.3,6.28.36,9.42q-.72-9.39-1.73-18.75c-.35-3.12-.74-6.23-1.23-9.32a62,62,0,0,1-.93-9.44,41.41,41.41,0,0,1,1-9.48,32.91,32.91,0,0,1,3.41-8.93,45.75,45.75,0,0,1,5.55-7.75c2.09-2.39,4.35-4.59,6.61-6.78,4.52-4.35,9-8.72,12.62-13.8a51.91,51.91,0,0,0,7.95-16.76A65,65,0,0,0,363,162.84,76.77,76.77,0,0,0,360.36,144.27Z" style="fill:#2f2f2e"></path><path d="M359.06,146.24s-2.53,7.35-2.14,7.76,9.91.71,10.12.31-1.26-7.86-1.26-7.86Z" style="fill:#455a64"></path><path d="M364,87.18c-16.15-.5-29.63,12-29.33,31.77s18.54,28.72,26.66,29c5.86.18,29.32-3.92,30.09-28.74C392.09,98,380.11,87.67,364,87.18Z" style="fill:#455a64"></path><circle cx="368.28" cy="108.7" r="17.89" transform="translate(-15.22 128.01) rotate(-19.33)" style="fill:#fff;opacity:0.1"></circle><path d="M380,107.19a10.7,10.7,0,1,1-6.82-13.5A10.71,10.71,0,0,1,380,107.19Z" style="fill:#fff;opacity:0.2"></path><path d="M338,262.86a70.65,70.65,0,0,0,.68-9,91.44,91.44,0,0,0-.27-9.2,79.39,79.39,0,0,0-3.62-18.28,64.38,64.38,0,0,0-3.55-8.63,60.1,60.1,0,0,0-4.77-7.85,106.57,106.57,0,0,0-11.77-13.25c-2-2.06-4.06-4.14-6-6.33a48.91,48.91,0,0,1-5.22-7.13A43,43,0,0,1,298,166a84.07,84.07,0,0,1-.45-9.11c0-3.06-.14-6.13-.29-9.2s-.35-6.13-.58-9.2-.49-6.13-.81-9.2q.53,9.19.79,18.36c.09,3.05.14,6.1.1,9.13a73.73,73.73,0,0,0,.36,9.25A51.43,51.43,0,0,0,299,175.2a40.39,40.39,0,0,0,3.76,8.58,51.21,51.21,0,0,0,5.34,7.37c1.94,2.26,4,4.33,6.06,6.38a104.62,104.62,0,0,1,11.69,13,61.16,61.16,0,0,1,8.29,16.07,79.86,79.86,0,0,1,3.85,18A90.86,90.86,0,0,1,338,262.86Z" style="fill:#2f2f2e"></path><path d="M298.48,127.79s2.91,7.21,2.55,7.64-9.87,1.22-10.1.84.85-7.93.85-7.93Z" style="fill:#455a64"></path><path d="M290.45,69.07c16.1-1.34,30.22,10.48,30.95,30.19s-17,29.65-25.12,30.32c-5.85.49-29.49-2.38-31.54-27.13C263,81.31,274.41,70.4,290.45,69.07Z" style="fill:#455a64"></path><circle cx="287.32" cy="90.78" r="17.89" transform="matrix(0.07, -1, 1, 0.07, 175.48, 370.57)" style="fill:#fff;opacity:0.1"></circle><path d="M275.5,89.89a10.7,10.7,0,1,0,6.11-13.84A10.7,10.7,0,0,0,275.5,89.89Z" style="fill:#fff;opacity:0.2"></path><path d="M331.18,171.17a36.52,36.52,0,0,0-1.48,7.11,58.88,58.88,0,0,0-.39,7.28,72.67,72.67,0,0,0,3.78,21.5c.78,2.33,1.7,4.55,2.36,6.84a46.23,46.23,0,0,1,2,14.11,59.31,59.31,0,0,1-2,14.17c-1.14,4.67-2.72,9.24-4.12,13.88a133.55,133.55,0,0,0-3.67,14.08,65.29,65.29,0,0,0-1.1,14.49c.15-9.72,2.73-19.11,5.85-28.23,1.56-4.57,3.1-9.17,4.33-13.89A59,59,0,0,0,338.9,228a48.1,48.1,0,0,0-2.2-14.5c-.7-2.35-1.66-4.61-2.44-6.86s-1.52-4.56-2.11-6.89A70.43,70.43,0,0,1,330,185.54,49.64,49.64,0,0,1,331.18,171.17Z" style="fill:#2f2f2e"></path><path d="M332.61,175.21s2.23,6.7,1.87,7.07-9,.54-9.2.18,1.23-7.13,1.23-7.13Z" style="fill:#37474f"></path><path d="M328.72,121.51c14.67-.28,26.78,11.24,26.31,29.16s-17.14,25.9-24.52,26c-5.33.1-26.59-3.86-27-26.41C303.11,131,314.1,121.8,328.72,121.51Z" style="fill:#37474f"></path><circle cx="333.12" cy="140.54" r="16.25" transform="translate(-25.71 184.8) rotate(-29.91)" style="fill:#fff;opacity:0.1"></circle><path d="M343.84,139.57a9.72,9.72,0,1,1-5.73-12.49A9.72,9.72,0,0,1,343.84,139.57Z" style="fill:#fff;opacity:0.2"></path><path d="M322.85,117.6a72.38,72.38,0,0,0-4.84,9.49,88.32,88.32,0,0,0-3.6,10,73.24,73.24,0,0,0-3,21.14A59.88,59.88,0,0,0,312.49,169a58.67,58.67,0,0,0,3.08,10.3c2.64,6.68,6.45,12.79,10.22,18.78,1.88,3,3.73,6,5.4,9.12a50.06,50.06,0,0,1,4,9.69,39.68,39.68,0,0,1,0,20.72,79,79,0,0,1-3.33,10c-1.28,3.32-2.46,6.68-3.59,10s-2.18,6.77-3.19,10.17-2,6.82-2.89,10.26q3.28-10.14,6.87-20.15c1.21-3.34,2.46-6.66,3.82-9.92a70.14,70.14,0,0,0,3.52-10.13,46.82,46.82,0,0,0,1.46-10.68,37.34,37.34,0,0,0-1.39-10.71,51,51,0,0,0-4.05-10c-1.66-3.17-3.56-6.2-5.46-9.2-3.82-6-7.6-12-10.23-18.51a58.91,58.91,0,0,1-4.29-20.52,73.17,73.17,0,0,1,2.58-20.95A86.68,86.68,0,0,1,322.85,117.6Z" style="fill:#2f2f2e"></path><path d="M322.29,123.61s.75,7.74.27,8-9.8-1.64-9.92-2.07,3.08-7.35,3.08-7.35Z" style="fill:#FFA52E"></path><path d="M331.31,65c15.81,3.3,26,18.64,21.07,37.75s-24.75,23.58-32.7,21.92c-5.75-1.2-27.59-10.68-22.52-35C301.49,69,315.55,61.74,331.31,65Z" style="fill:#FFA52E"></path><circle cx="332.28" cy="87.11" r="17.89" transform="translate(9.59 204.89) rotate(-34.74)" style="fill:#fff;opacity:0.1"></circle><path d="M344.11,87.77a10.69,10.69,0,1,1-4.25-14.51A10.68,10.68,0,0,1,344.11,87.77Z" style="fill:#fff;opacity:0.2"></path><path d="M327.54,215.59c-2,2.51,2.1,3.42,2.1,3.42s-6.2.11-7.26,3.48,4,4.19,4.33,4.26c-.32,0-6,.25-6.73,3.76s4.43,3.71,4.76,3.71c-.31.1-4.35,1.57-4.28,4.35.12,4.78,10.55,1.33,13.93,3.21,0,0-2.53,6.1-2.57,6.29,0,0,10-3.09,12.28-7.79a3.34,3.34,0,0,0-.87-4.09s3.33-.64,4-3.38c.32-1.41-1.64-3.18-1.64-3.18a4.2,4.2,0,0,0,3.07-3.1c.34-2-1.68-3.44-1.68-3.44s2.27-1.78,2-3.91C348.32,214.89,331.8,210.23,327.54,215.59Z" style="fill:#d3766a"></path><path d="M346.68,222.81c.05,0,.09-.06,0-.09a29.8,29.8,0,0,0-17.3-3.78c-.19,0-.23.34,0,.35A60.87,60.87,0,0,1,346.68,222.81Z" style="fill:#263238"></path><path d="M345.66,229.62a.06.06,0,0,0,0-.12,27.92,27.92,0,0,0-19.12-3c-.23.06-.38.33-.11.29C330.94,226.13,340.47,227.66,345.66,229.62Z" style="fill:#263238"></path><path d="M324.32,234.49c6.39-1.24,12.53-.31,18.7,1.56.08,0,.11-.09.05-.13-2.77-1.74-6.83-2.52-10-2.86a17.26,17.26,0,0,0-8.76,1.2C324.16,234.31,324.18,234.51,324.32,234.49Z" style="fill:#263238"></path><path d="M329.64,219a19.57,19.57,0,0,0-3.5.71,6.62,6.62,0,0,0-3,1.69,2.19,2.19,0,0,0-.56,1.44,3.19,3.19,0,0,0,.42,1.53,3.86,3.86,0,0,0,2.66,1.63l2.59.44-2.59.48a10.86,10.86,0,0,0-3.28,1.15,3.83,3.83,0,0,0-2,2.39,2.2,2.2,0,0,0,1.09,2.54,6.67,6.67,0,0,0,3.25.69l3.11,0-2.91,1a10.14,10.14,0,0,0-2.3,1.16,4.25,4.25,0,0,0-1.58,1.81,2,2,0,0,0,.36,2,4.31,4.31,0,0,0,2.23,1,34.17,34.17,0,0,0,5.38.35c.91,0,1.82.05,2.74.11a6.35,6.35,0,0,1,2.65.61,6.86,6.86,0,0,0-2.66-.36c-.91,0-1.81.06-2.72.1a29,29,0,0,1-5.51-.07,5.12,5.12,0,0,1-2.72-1.09,2.82,2.82,0,0,1-.65-3,5.21,5.21,0,0,1,1.91-2.29,10.92,10.92,0,0,1,2.53-1.33l.2,1a7.67,7.67,0,0,1-3.85-.78,3.22,3.22,0,0,1-1.45-1.59,3.6,3.6,0,0,1-.13-2.12,4.84,4.84,0,0,1,2.58-3,11.71,11.71,0,0,1,3.62-1.21v.92a4.55,4.55,0,0,1-3.18-2.18,3.8,3.8,0,0,1-.42-1.92,2.71,2.71,0,0,1,.79-1.8,6.68,6.68,0,0,1,3.31-1.61A15.57,15.57,0,0,1,329.64,219Z" style="fill:#263238"></path><path d="M312.11,221.09s18.56-17.66,21.9-7c1,3.16,1.31,17.33-1.54,17.44-3.67.15-4.9-5.74-5.09-9.55,0,0-5.47,6.89-11.4,4.51A6.32,6.32,0,0,1,312.11,221.09Z" style="fill:#d3766a"></path><path d="M333.68,213.2a13.59,13.59,0,0,1,1.06,3.76,28.4,28.4,0,0,1,.35,3.9,45,45,0,0,1-.39,7.85,7.27,7.27,0,0,1-.57,2,2.79,2.79,0,0,1-.72.95,1.83,1.83,0,0,1-.57.34,2.06,2.06,0,0,1-.63.12,3.24,3.24,0,0,1-2.16-.74,6.12,6.12,0,0,1-1.38-1.64,12.06,12.06,0,0,1-1.32-3.82,26.35,26.35,0,0,1-.42-3.94l.81.25a15.76,15.76,0,0,1-2.16,2.09,14.67,14.67,0,0,1-2.49,1.64,10.18,10.18,0,0,1-2.82.94,7.65,7.65,0,0,1-2.94,0,8.65,8.65,0,0,0,2.87-.27,10.45,10.45,0,0,0,2.61-1.14,13.54,13.54,0,0,0,2.29-1.69,15.63,15.63,0,0,0,1.92-2.08l.7-.93.11,1.18a29.64,29.64,0,0,0,.53,3.78,11.38,11.38,0,0,0,1.25,3.48,3.21,3.21,0,0,0,2.54,1.85c.88,0,1.32-1.33,1.54-2.52a36.18,36.18,0,0,0,.48-3.8c.11-1.28.21-2.57.24-3.86A24.7,24.7,0,0,0,333.68,213.2Z" style="fill:#263238"></path><path d="M188.46,338.94s31.5,5.34,59.87,5.34c.65,0,5.39-18,5.39-18S258,344,258.33,344.1c1.75.58,23.05-6.3,23.08-6.32.78-.77-21.68-117.84-32.55-135.64-2-3.33-13.9-6.84-19.77.12C206.19,229.45,188.46,338.94,188.46,338.94Z" style="fill:#FFA52E"></path><path d="M253.72,326.29l-1.63-29.82c-.54-9.94-1-19.88-1.66-29.81s-1.19-19.88-1.88-29.8c-.32-5-.72-9.93-1.13-14.89l-.63-7.44L246,207.1c1.48,9.85,2.41,19.78,3.28,29.7s1.49,19.86,2.1,29.8,1.06,19.89,1.44,29.84S253.57,316.34,253.72,326.29Z" style="fill:#2f2f2e"></path><path d="M246,220.59a1.38,1.38,0,0,1-1.18,1.37,1.42,1.42,0,0,1-1.07-.3,1.44,1.44,0,0,1-.49-1.07,1.42,1.42,0,0,1,.49-1.06,1.37,1.37,0,0,1,2.25,1.06Zm0,0a1.09,1.09,0,0,0-.38-.8,1,1,0,0,0-.8-.19,1,1,0,0,0,0,2,1,1,0,0,0,.8-.2A1.07,1.07,0,0,0,246,220.59Z" style="fill:#2f2f2e"></path><path d="M247.22,233.92A1.37,1.37,0,0,1,245,235a1.39,1.39,0,0,1,0-2.12,1.37,1.37,0,0,1,2.25,1.06Zm0,0a1.06,1.06,0,0,0-.38-.8,1,1,0,0,0-.8-.19,1,1,0,0,0-.81,1,1,1,0,0,0,.81,1,1,1,0,0,0,.8-.2A1.06,1.06,0,0,0,247.22,233.92Z" style="fill:#2f2f2e"></path><path d="M248.49,247.25a1.38,1.38,0,0,1-1.18,1.37,1.39,1.39,0,0,1-1.06-.31,1.41,1.41,0,0,1-.5-1.06,1.45,1.45,0,0,1,.5-1.07,1.37,1.37,0,0,1,2.24,1.07Zm0,0a1,1,0,0,0-.38-.8,1,1,0,0,0-.8-.2,1,1,0,0,0-.81,1,1,1,0,0,0,.81,1,1,1,0,0,0,1.18-1Z" style="fill:#2f2f2e"></path><path d="M249.21,260.58A1.39,1.39,0,0,1,248,262a1.46,1.46,0,0,1-1.06-.31,1.4,1.4,0,0,1,0-2.13,1.44,1.44,0,0,1,1.06-.31A1.4,1.4,0,0,1,249.21,260.58Zm0,0a1.05,1.05,0,0,0-.39-.8,1,1,0,0,0-.8-.2,1,1,0,0,0-.8,1,1,1,0,0,0,.8,1,1,1,0,0,0,.8-.19A1.07,1.07,0,0,0,249.21,260.58Z" style="fill:#2f2f2e"></path><path d="M249.68,273.9a1.39,1.39,0,0,1-1.19,1.37,1.36,1.36,0,0,1-1.55-1.37,1.38,1.38,0,0,1,.49-1.06,1.37,1.37,0,0,1,2.25,1.06Zm0,0a1.07,1.07,0,0,0-.39-.8,1,1,0,0,0-.8-.19,1,1,0,0,0,0,2,1,1,0,0,0,.8-.2A1.05,1.05,0,0,0,249.68,273.9Z" style="fill:#2f2f2e"></path><path d="M250.39,287.23a1.38,1.38,0,0,1-1.18,1.37,1.42,1.42,0,0,1-1.07-.3,1.44,1.44,0,0,1-.49-1.07,1.4,1.4,0,0,1,.49-1.06,1.37,1.37,0,0,1,2.25,1.06Zm0,0a1.09,1.09,0,0,0-.38-.8,1,1,0,0,0-.8-.19,1,1,0,0,0-.81,1,1,1,0,0,0,.81,1,1,1,0,0,0,.8-.2A1.07,1.07,0,0,0,250.39,287.23Z" style="fill:#2f2f2e"></path><path d="M251.43,300.56a1.37,1.37,0,0,1-2.25,1.06,1.37,1.37,0,0,1-.49-1.06,1.36,1.36,0,0,1,1.55-1.37A1.39,1.39,0,0,1,251.43,300.56Zm0,0a1,1,0,0,0-1.19-1,1,1,0,0,0-.8,1,1,1,0,0,0,.8,1,1,1,0,0,0,1.19-1Z" style="fill:#2f2f2e"></path><path d="M252.12,313.89a1.39,1.39,0,0,1-1.19,1.37,1.46,1.46,0,0,1-1.06-.31,1.38,1.38,0,0,1-.49-1.06,1.36,1.36,0,0,1,1.55-1.37A1.39,1.39,0,0,1,252.12,313.89Zm0,0a1.05,1.05,0,0,0-.39-.8,1,1,0,0,0-.8-.2,1,1,0,0,0-.8,1,1,1,0,0,0,.8,1,1,1,0,0,0,.8-.19A1.07,1.07,0,0,0,252.12,313.89Z" style="fill:#2f2f2e"></path><g style="opacity:0.6000000000000001"><path d="M251.79,333.41c-.38,1.36-.77,2.78-1.16,4.12q-5.81.33-12,.33-8.42,0-17.65-.6c-12.73-.82-24-2.37-31.57-3.6q.3-1.73.69-3.93c7.44,1.2,18.61,2.74,31.19,3.55A235,235,0,0,0,251.79,333.41Z" style="fill:#fff"></path><path d="M280.73,332.76a126.6,126.6,0,0,1-24.32,4.35c-.33-1.32-.68-2.68-1-4A126.24,126.24,0,0,0,280,328.78C280.31,330.28,280.54,331.61,280.73,332.76Z" style="fill:#fff"></path><path d="M279.53,326a133.27,133.27,0,0,1-24.88,4.14c-.54-2.23-.93-3.82-.93-3.82s-.43,1.65-1.06,4q-6.74.47-14.08.46-8.42,0-17.65-.6c-12.05-.78-22.82-2.21-30.33-3.4.23-1.23.47-2.55.73-3.93,7.41,1.17,18,2.58,29.91,3.34,22.92,1.48,42.51.05,57.55-4.13C279.06,323.39,279.3,324.72,279.53,326Z" style="fill:#fff"></path></g><path d="M235.36,200.82c7.11,3.61-.8,23.21-4.93,25.93s-11.86,4.2-14.65-1.57S227.32,196.74,235.36,200.82Z" style="fill:#d3766a"></path><path d="M229.55,201.45c-23.14,13.77-58.41,48-63.57,53.51-3.5,3.74,15.87,22.68,17.86,19.78,2.56-3.71,38.65-41.12,51.49-64C241,200.71,234.17,198.7,229.55,201.45Z" style="fill:#d3766a"></path><path d="M136.64,282.82a1.46,1.46,0,0,0,1.31.3c-.59,2.3-.5,4.3,1.11,5.08a2.63,2.63,0,0,0,2.9-.59,2,2,0,0,0,1.35,2.4c1.9.59,5-2.64,7.76-6.19-1.49,2.73-2.26,5.24-.58,5.83,4.46,1.58,9.76-7,14.16-12.33a22.14,22.14,0,0,1,4.65-4.41,6.48,6.48,0,0,1,.86-.45,1.76,1.76,0,0,1,2,.16c.9.91-.54,3.48-2,4.82-2.75,2.54-4,8.17-2.4,9.91,2.3,2.55,7.83-4.11,10.33-6,3.35-2.47,7.36-8.33,7.71-8.7,0,0-1.11-2.34-2.84-5.5-3.28-6-8.8-15-13-16.41,0,0-13.67,3.81-25.06,11.38C141.12,264.74,132.82,280,136.64,282.82Z" style="fill:#d3766a"></path><path d="M160.82,270.92a16.92,16.92,0,0,0-5.85,5.21c-2.14,2.94-2.68,4.94-4.24,8.05,0,.08.09.15.13.07.74-1.48,3.44-6.29,4.32-7.65a16.43,16.43,0,0,1,5.66-5.64S160.84,270.9,160.82,270.92Z" style="fill:#263238"></path><path d="M156.27,266.75a37.65,37.65,0,0,0-6.6,5.69c-2.42,2.64-3.84,6-5.25,9.27-.85,2-1.65,3.93-2.41,5.93,0,.08.09.15.12.07q2.13-5,4.55-9.93a25.71,25.71,0,0,1,6.06-8c1.45-1.27,2-1.86,3.56-3C156.33,266.77,156.3,266.73,156.27,266.75Z" style="fill:#263238"></path><path d="M152,263c-2.64,1.65-5,3-7,5.54a38,38,0,0,0-4.88,9c-.75,1.81-1.45,3.65-2.11,5.5,0,.08.1.13.13.05a101.56,101.56,0,0,1,5.5-11.94,16.3,16.3,0,0,1,3.41-4.42A35.87,35.87,0,0,1,152,263S152,263,152,263Z" style="fill:#263238"></path><path d="M229.72,221.16c-.53.52-1.05,1.05-1.59,1.56l-.46.44a39.61,39.61,0,0,0,3.15-5s0-.07-.07,0a68.58,68.58,0,0,0-4.25,5.63c-.68.94-1.34,1.89-2,2.84-.33.48-1.17,1.6-1.22,1.67-.81,1.22-.38,1.06.19.48.14-.14,2.32-2.91,3.08-4l.59-.82c.4-.33.8-.67,1.16-1a21.42,21.42,0,0,0,1.48-1.68S229.75,221.13,229.72,221.16Z" style="fill:#263238"></path><path d="M235.92,199.84c.27,1,5.39,7.61,10.12,7.26,1.54-.11,1.27-8.54,1.27-8.54l.13-.63,1.71-8.77L237.23,182S235.81,199.4,235.92,199.84Z" style="fill:#d3766a"></path><path d="M249.15,189.16l-1.72,8.77-.12.63s.05,1.53,0,3.29c-6.48-.79-9.56-5.55-10.94-8.86.38-5,.87-11,.87-11Z" style="fill:#263238"></path><path d="M259.6,169.56c8.42,17.2-.93,24.19-4.64,26-3.37,1.65-15.05,6.82-25.2-9.42s-4.82-25.59,2.68-29.76S251.17,152.36,259.6,169.56Z" style="fill:#d3766a"></path><path d="M256.72,170.27a11.81,11.81,0,0,1-1.3.23,2.17,2.17,0,0,1-1.38,0,.68.68,0,0,1-.31-.77,1.71,1.71,0,0,1,1.4-1,2.53,2.53,0,0,1,1.77.23A.73.73,0,0,1,256.72,170.27Z" style="fill:#263238"></path><path d="M244.89,175.73A10.07,10.07,0,0,0,246,175a2.12,2.12,0,0,0,1-1,.68.68,0,0,0-.32-.77,1.66,1.66,0,0,0-1.69.26,2.46,2.46,0,0,0-1.11,1.4A.72.72,0,0,0,244.89,175.73Z" style="fill:#263238"></path><path d="M247.47,177.32c-2,.69-.46,4.62,1.38,4S249.14,176.75,247.47,177.32Z" style="fill:#263238"></path><path d="M246.78,177.83c-.26.35-.44.88-.84,1.08s-1,0-1.44-.31c-.05,0-.07,0-.05.07.28.75.87,1.41,1.72,1.21s1-1,.94-1.88C247.09,177.85,246.88,177.69,246.78,177.83Z" style="fill:#263238"></path><path d="M256.08,173.5c1.9-.89,3.55,3,1.78,3.81S254.48,174.25,256.08,173.5Z" style="fill:#263238"></path><path d="M257,173.41c.4.08.86.32,1.23.19s.57-.7.68-1.22c0,0,.05,0,.07,0,.34.73.42,1.6-.23,2s-1.34,0-1.83-.69C256.82,173.63,256.83,173.38,257,173.41Z" style="fill:#263238"></path><path d="M252.28,187.79a2,2,0,0,0,1.29.37,3.39,3.39,0,0,0,1.22-.76s.09,0,.07,0a1.75,1.75,0,0,1-1.34,1.2,1.39,1.39,0,0,1-1.34-.77C252.14,187.82,252.22,187.76,252.28,187.79Z" style="fill:#263238"></path><path d="M255.59,181.38s1,1.71,1.31,2.56c0,.08-.16.2-.44.34h0a4.36,4.36,0,0,1-4.54.07.09.09,0,0,1,.07-.17,6.57,6.57,0,0,0,4.13-.43c0-.26-1.78-2.9-1.64-2.93.61-.13,1.71-.28,2.12-.34-.61-1.12-2.5-4.23-3.6-6.27-.07-.13.12-.26.2-.15a60.66,60.66,0,0,1,4.56,6.8C257.84,181.06,256,181.39,255.59,181.38Z" style="fill:#263238"></path><path d="M256.13,183.65a5.27,5.27,0,0,1-1.09,2.47,2.38,2.38,0,0,1-1.24.78c-1.06.26-1.55-.58-1.77-1.4a5.62,5.62,0,0,1-.19-1.34A7,7,0,0,0,256.13,183.65Z" style="fill:#263238"></path><path d="M255,186.12a2.38,2.38,0,0,1-1.24.78c-1.06.26-1.55-.58-1.77-1.4A2.48,2.48,0,0,1,255,186.12Z" style="fill:#ff9cbd"></path><path d="M233.1,190a8,8,0,0,0,1.08-7.84,20.41,20.41,0,0,0,4.54-9.84c.06.42.51,3.45.7,5,10-7.28,9.15-17.51,9.15-17.51a22.19,22.19,0,0,1,8.28,4.89s-3.3-6.95-9-9.95c-7-3.67-12.28.13-12.28.13a16.65,16.65,0,0,0-12.83,11.94C219.47,178.12,233.1,190,233.1,190Z" style="fill:#263238"></path><path d="M246.86,171.49a22,22,0,0,1-4.6,4.78s0,0,0,0a18.37,18.37,0,0,0,6.34-13.31,13,13,0,0,0-.64-5,.09.09,0,1,1,.18-.06,15.22,15.22,0,0,1,1.29,4.85,13.2,13.2,0,0,1-.62,4.88,15.13,15.13,0,0,1-1.93,3.88Z" style="fill:#263238"></path><path d="M229,186c1.53,2.11-7.7-7.24-8.34-8.94s-.77-11.26,4.83-17.62c4.7-5.33,12.78-6.24,14.19-6.39a11.08,11.08,0,0,1,4.41.34s-11.26,0-17.46,8.11C224,165,223.27,178.08,229,186Z" style="fill:#FFA52E"></path><path d="M222.16,159.91s-.19-5.74,3.63-8.95c0,0,2.56,4.21,2,6.52-.28,1.16-3.33,3.58-4.07,3.3A9.31,9.31,0,0,1,222.16,159.91Z" style="fill:#FFA52E"></path><path d="M225.91,159.68a6.31,6.31,0,0,1-1.71,1l-.13,0-.11,0h-.11a.5.5,0,0,1-.13,0,7.32,7.32,0,0,1-1.26-.66l-.3-.19h0a12.18,12.18,0,0,1,.15-2,3.31,3.31,0,0,1,2,.31A11.41,11.41,0,0,1,225.91,159.68Z" style="fill:#050400;opacity:0.1"></path><path d="M221.52,161.14s-6.35,2.93-8.29,6c0,0,3.5,2,6.88.83,1.51-.52,3.74-5.38,3.08-5.92A7,7,0,0,0,221.52,161.14Z" style="fill:#FFA52E"></path><path d="M223.28,162.21a3.72,3.72,0,0,1-.41,1.92,3.49,3.49,0,0,1-1.4-.44,4.05,4.05,0,0,1-1.37-1.83c.85-.45,1.42-.72,1.42-.72a6.66,6.66,0,0,1,1.67.93l.06.08A.09.09,0,0,1,223.28,162.21Z" style="fill:#050400;opacity:0.1"></path><path d="M221.78,162.85a2.28,2.28,0,1,0-.88-3.09A2.27,2.27,0,0,0,221.78,162.85Z" style="fill:#FFA52E"></path><path d="M235.38,186.1s-6-4.06-8-1.7,4.07,9.32,7.47,9.28a3.24,3.24,0,0,0,3.42-3.19Z" style="fill:#d3766a"></path><path d="M229.12,186.35a0,0,0,0,0,0,.09c2.41,0,4.26,1.54,5.8,3.25a1.78,1.78,0,0,0-2.67.51c0,.06,0,.12.1.09a2,2,0,0,1,2.29-.14,9.45,9.45,0,0,1,1.62,1.27c.17.15.47-.08.31-.27l0,0C235.57,188.44,232.07,185.52,229.12,186.35Z" style="fill:#263238"></path></g></svg>