<svg xmlns="http://www.w3.org/2000/svg" viewBox="0 0 750 500"><g id="freepik--background-complete--inject-340"><path d="M692.87,293.72H665.39V281.53h27.48Zm-26.48-1h25.48V282.53H666.39Z" style="fill:#ebebeb"></path><path d="M678.1,307.83H650.62V295.64H678.1Zm-26.48-1H677.1V296.64H651.62Z" style="fill:#ebebeb"></path><path d="M707.64,307.83H680.16V295.64h27.48Zm-26.48-1h25.48V296.64H681.16Z" style="fill:#ebebeb"></path><path d="M410.87,180.16H383.39V168h27.48Zm-26.48-1h25.48V169H384.39Z" style="fill:#ebebeb"></path><path d="M396.1,194.27H368.62V182.08H396.1Zm-26.48-1H395.1V183.08H369.62Z" style="fill:#ebebeb"></path><path d="M425.64,194.27H398.16V182.08h27.48Zm-26.48-1h25.48V183.08H399.16Z" style="fill:#ebebeb"></path><path d="M99.38,234.61H71.9V222.42H99.38Zm-26.48-1H98.38V223.42H72.9Z" style="fill:#ebebeb"></path><path d="M691.34,160.56H663.86V148.37h27.48Zm-26.48-1h25.48V149.37H664.86Z" style="fill:#ebebeb"></path><path d="M691.34,51.88H663.86V39.69h27.48Zm-26.48-1h25.48V40.69H664.86Z" style="fill:#ebebeb"></path><path d="M706.11,66H678.63V53.8h27.48Zm-26.48-1h25.48V54.8H679.63Z" style="fill:#ebebeb"></path><path d="M69.84,51.89H42.36V39.7H69.84Zm-26.48-1H68.84V40.7H43.36Z" style="fill:#ebebeb"></path><rect x="49.64" y="159.02" width="211.39" height="10.03" style="fill:#ebebeb"></rect><polygon points="104.42 118.55 104.42 159.02 82.59 159.02 82.59 118.55 88.49 108.54 90.5 96.3 90.09 96.04 90.09 95.3 90.8 95.01 90.09 94.85 90.09 93.63 96.89 93.63 96.89 94.85 96.2 95.01 96.89 95.3 96.89 96.04 96.51 96.3 98.52 108.54 104.42 118.55" style="fill:#dbdbdb"></polygon><rect x="82.59" y="130.69" width="21.83" height="18.96" style="fill:#a6a6a6"></rect><polygon points="132.63 118.55 132.63 159.02 110.8 159.02 110.8 118.55 116.7 108.54 118.71 96.3 118.31 96.04 118.31 95.3 119.01 95.01 118.31 94.85 118.31 93.63 125.1 93.63 125.1 94.85 124.42 95.01 125.1 95.3 125.1 96.04 124.72 96.3 126.73 108.54 132.63 118.55" style="fill:#dbdbdb"></polygon><rect x="110.8" y="130.69" width="21.83" height="18.96" style="fill:#a6a6a6"></rect><polygon points="160.85 118.55 160.85 159.02 139.02 159.02 139.02 118.55 144.92 108.54 146.93 96.3 146.53 96.04 146.53 95.3 147.23 95.01 146.53 94.85 146.53 93.63 153.32 93.63 153.32 94.85 152.64 95.01 153.32 95.3 153.32 96.04 152.94 96.3 154.95 108.54 160.85 118.55" style="fill:#dbdbdb"></polygon><rect x="139.02" y="130.69" width="21.83" height="18.96" style="fill:#a6a6a6"></rect><polygon points="189.06 118.55 189.06 159.02 167.23 159.02 167.23 118.55 173.13 108.54 175.14 96.3 174.74 96.04 174.74 95.3 175.44 95.01 174.74 94.85 174.74 93.63 181.54 93.63 181.54 94.85 180.85 95.01 181.54 95.3 181.54 96.04 181.15 96.3 183.16 108.54 189.06 118.55" style="fill:#dbdbdb"></polygon><rect x="167.23" y="130.69" width="21.83" height="18.96" style="fill:#a6a6a6"></rect><polygon points="70.32 200.32 65.23 169.13 75.26 169.13 80.35 200.32 70.32 200.32" style="fill:#ebebeb"></polygon><polygon points="76.42 176.34 66.4 176.34 65.23 169.13 75.25 169.13 76.42 176.34" style="fill:#dbdbdb"></polygon><polygon points="240.36 200.32 245.45 169.13 235.42 169.13 230.33 200.32 240.36 200.32" style="fill:#ebebeb"></polygon><polygon points="234.26 176.34 244.27 176.34 245.45 169.13 235.43 169.13 234.26 176.34" style="fill:#dbdbdb"></polygon><rect x="458.97" y="159.02" width="211.39" height="10.03" style="fill:#ebebeb"></rect><polygon points="561.95 118.55 561.95 159.02 540.12 159.02 540.12 118.55 546.02 108.54 548.03 96.3 547.63 96.04 547.63 95.3 548.34 95.01 547.63 94.85 547.63 93.63 554.43 93.63 554.43 94.85 553.74 95.01 554.43 95.3 554.43 96.04 554.04 96.3 556.05 108.54 561.95 118.55" style="fill:#dbdbdb"></polygon><rect x="540.12" y="130.69" width="21.83" height="18.96" style="fill:#a6a6a6"></rect><polygon points="648.35 118.55 648.35 159.02 626.52 159.02 626.52 118.55 632.42 108.54 634.43 96.3 634.03 96.04 634.03 95.3 634.73 95.01 634.03 94.85 634.03 93.63 640.82 93.63 640.82 94.85 640.14 95.01 640.82 95.3 640.82 96.04 640.44 96.3 642.45 108.54 648.35 118.55" style="fill:#dbdbdb"></polygon><rect x="626.52" y="130.69" width="21.83" height="18.96" style="fill:#a6a6a6"></rect><polygon points="616.91 118.55 616.91 159.02 595.08 159.02 595.08 118.55 600.98 108.54 602.99 96.3 602.59 96.04 602.59 95.3 603.29 95.01 602.59 94.85 602.59 93.63 609.38 93.63 609.38 94.85 608.7 95.01 609.38 95.3 609.38 96.04 609 96.3 611.01 108.54 616.91 118.55" style="fill:#dbdbdb"></polygon><rect x="595.08" y="130.69" width="21.83" height="18.96" style="fill:#a6a6a6"></rect><polygon points="479.64 200.32 474.55 169.13 484.58 169.13 489.67 200.32 479.64 200.32" style="fill:#ebebeb"></polygon><polygon points="485.74 176.34 475.73 176.34 474.55 169.13 484.57 169.13 485.74 176.34" style="fill:#dbdbdb"></polygon><polygon points="649.68 200.32 654.77 169.13 644.74 169.13 639.65 200.32 649.68 200.32" style="fill:#ebebeb"></polygon><polygon points="643.58 176.34 653.6 176.34 654.77 169.13 644.75 169.13 643.58 176.34" style="fill:#dbdbdb"></polygon><polygon points="77.34 312.85 77.34 354.36 54.95 354.36 54.95 312.85 61 302.58 63.06 290.02 62.65 289.75 62.65 288.99 63.37 288.7 62.65 288.53 62.65 287.28 69.62 287.28 69.62 288.53 68.92 288.7 69.62 288.99 69.62 289.75 69.23 290.02 71.29 302.58 77.34 312.85" style="fill:#dbdbdb"></polygon><rect x="54.95" y="325.3" width="22.4" height="19.45" style="fill:#a6a6a6"></rect><polygon points="355.29 312.85 355.29 354.36 332.89 354.36 332.89 312.85 338.94 302.58 341 290.02 340.59 289.75 340.59 288.99 341.31 288.7 340.59 288.53 340.59 287.28 347.56 287.28 347.56 288.53 346.86 288.7 347.56 288.99 347.56 289.75 347.17 290.02 349.23 302.58 355.29 312.85" style="fill:#dbdbdb"></polygon><rect x="332.89" y="325.3" width="22.4" height="19.45" style="fill:#a6a6a6"></rect><polygon points="695.05 312.85 695.05 354.36 672.66 354.36 672.66 312.85 678.71 302.58 680.77 290.02 680.36 289.75 680.36 288.99 681.08 288.7 680.36 288.53 680.36 287.28 687.33 287.28 687.33 288.53 686.63 288.7 687.33 288.99 687.33 289.75 686.94 290.02 689 302.58 695.05 312.85" style="fill:#dbdbdb"></polygon><rect x="672.66" y="325.3" width="22.4" height="19.45" style="fill:#a6a6a6"></rect><polygon points="102.87 312.85 102.87 354.36 80.47 354.36 80.47 312.85 86.53 302.58 88.59 290.02 88.18 289.75 88.18 288.99 88.9 288.7 88.18 288.53 88.18 287.28 95.15 287.28 95.15 288.53 94.45 288.7 95.15 288.99 95.15 289.75 94.76 290.02 96.82 302.58 102.87 312.85" style="fill:#dbdbdb"></polygon><rect x="80.47" y="325.3" width="22.4" height="19.45" style="fill:#a6a6a6"></rect><polygon points="212.04 312.85 212.04 354.36 189.65 354.36 189.65 312.85 195.7 302.58 197.76 290.02 197.35 289.75 197.35 288.99 198.07 288.7 197.35 288.53 197.35 287.28 204.32 287.28 204.32 288.53 203.62 288.7 204.32 288.99 204.32 289.75 203.93 290.02 205.99 302.58 212.04 312.85" style="fill:#dbdbdb"></polygon><rect x="189.65" y="325.3" width="22.4" height="19.45" style="fill:#a6a6a6"></rect><polygon points="237.57 312.85 237.57 354.36 215.17 354.36 215.17 312.85 221.23 302.58 223.29 290.02 222.88 289.75 222.88 288.99 223.6 288.7 222.88 288.53 222.88 287.28 229.85 287.28 229.85 288.53 229.15 288.7 229.85 288.99 229.85 289.75 229.45 290.02 231.52 302.58 237.57 312.85" style="fill:#dbdbdb"></polygon><rect x="215.17" y="325.3" width="22.4" height="19.45" style="fill:#a6a6a6"></rect></g><g id="freepik--Balloons--inject-340"><rect x="84.94" y="245.51" width="1.1" height="116.33" style="fill:#263238"></rect><polygon points="119.47 199.84 87.92 361.83 86.8 361.83 118.41 199.63 119.47 199.84" style="fill:#263238"></polygon><polygon points="85.08 361.83 83.99 361.83 74.44 158.83 75.54 158.78 84.94 358.69 85.08 361.83" style="fill:#263238"></polygon><path d="M106.69,120.14c-2.74,8.92-8,16.14-13.46,21.7C85,150.37,76.41,155,76.5,155.91c.25,2.59,2.77,6.52,2.57,7.38S76.77,165,75,165s-3.89-.85-4.09-1.71,2.32-4.79,2.57-7.38c.18-1.82-34.41-18.67-32-52,1.23-17.11,12-24,21.19-26.8a42.76,42.76,0,0,1,7.79-1.59A39.31,39.31,0,0,1,75,75.27c4.87,0,31.55,1.18,33.53,28.66A43.74,43.74,0,0,1,106.69,120.14Z" style="fill:#FFA52E"></path><path d="M76.5,155.91c.25,2.59,2.77,6.52,2.57,7.38S76.77,165,75,165s-3.89-.85-4.09-1.71,2.32-4.79,2.57-7.38c.18-1.82-34.41-18.67-32-52,1.23-17.11,12-24,21.19-26.8-8.13,7-18.14,20.62-10.89,42.87,6.68,20.55,26.35,26.64,41.48,21.84C85,150.37,76.41,155,76.5,155.91Z" style="opacity:0.1"></path><circle cx="90.59" cy="94" r="7.54" transform="translate(-29.08 41.82) rotate(-22.5)" style="fill:#fff"></circle><path d="M150.65,158.81c-2.75,8.92-8.05,16.14-13.46,21.7-8.29,8.53-16.82,13.16-16.74,14.07.26,2.59,2.77,6.52,2.58,7.37s-2.31,1.72-4.08,1.72-3.89-.85-4.09-1.72,2.32-4.78,2.57-7.37c.18-1.82-34.42-18.67-32-52,1.23-17.1,12-24,21.18-26.79a43.65,43.65,0,0,1,7.8-1.6,41,41,0,0,1,4.56-.26c4.87,0,31.55,1.18,33.52,28.65A43.77,43.77,0,0,1,150.65,158.81Z" style="fill:#c7c7c7"></path><path d="M120.45,194.58c.26,2.59,2.77,6.52,2.58,7.37s-2.31,1.72-4.08,1.72-3.89-.85-4.09-1.72,2.32-4.78,2.57-7.37c.18-1.82-34.42-18.67-32-52,1.23-17.1,12-24,21.18-26.79-8.12,6.94-18.13,20.62-10.89,42.87,6.69,20.55,26.35,26.64,41.49,21.84C128.9,189,120.37,193.67,120.45,194.58Z" style="fill:#a6a6a6"></path><circle cx="135.61" cy="132.77" r="7.54" transform="translate(-40.62 62.34) rotate(-22.61)" style="fill:#fff"></circle><path d="M117.17,204.51c-2.8,9-8.2,16.28-13.67,21.86-8.22,8.38-16.59,12.92-16.5,13.82.25,2.58,2.77,6.52,2.57,7.38s-2.3,1.72-4.08,1.72-3.89-.86-4.09-1.72,2.32-4.8,2.57-7.38c.18-1.82-34.41-18.66-32-52,1.24-17.23,12.2-24.12,21.4-26.87a43.69,43.69,0,0,1,7.74-1.54,40.52,40.52,0,0,1,4.4-.26c4.87,0,31.55,1.19,33.53,28.67A43.77,43.77,0,0,1,117.17,204.51Z" style="fill:#37474f"></path><path d="M52,188.21c1.24-17.23,12.2-24.12,21.4-26.87-8.18,6.86-18.56,20.6-11.22,43.15,6.67,20.49,26.25,26.6,41.37,21.88-8.22,8.38-16.59,12.92-16.5,13.82.25,2.58,2.77,6.52,2.57,7.38s-2.3,1.72-4.08,1.72-3.89-.86-4.09-1.72,2.32-4.8,2.57-7.38C84.15,238.37,49.56,221.53,52,188.21Z" style="fill:#263238"></path><path d="M108.76,178.14a7.54,7.54,0,1,1-7.54-7.54A7.54,7.54,0,0,1,108.76,178.14Z" style="fill:#fff"></path><rect x="641.01" y="245.51" width="1.1" height="116.33" style="fill:#263238"></rect><polygon points="675.55 199.84 643.99 361.83 642.87 361.83 674.48 199.63 675.55 199.84" style="fill:#263238"></polygon><polygon points="641.15 361.83 640.07 361.83 630.51 158.83 631.61 158.78 641.01 358.69 641.15 361.83" style="fill:#263238"></polygon><path d="M662.77,120.14c-2.75,8.92-8.06,16.14-13.47,21.7-8.28,8.53-16.82,13.17-16.73,14.07.25,2.59,2.77,6.52,2.57,7.38s-2.3,1.71-4.08,1.71-3.89-.85-4.09-1.71,2.32-4.79,2.58-7.38c.17-1.82-34.42-18.67-32-52,1.23-17.11,12-24,21.19-26.8a42.68,42.68,0,0,1,7.8-1.59,39.17,39.17,0,0,1,4.55-.27c4.87,0,31.56,1.18,33.53,28.66A43.74,43.74,0,0,1,662.77,120.14Z" style="fill:#FFA52E"></path><path d="M632.57,155.91c.25,2.59,2.77,6.52,2.57,7.38s-2.3,1.71-4.08,1.71-3.89-.85-4.09-1.71,2.32-4.79,2.58-7.38c.17-1.82-34.42-18.67-32-52,1.23-17.11,12-24,21.19-26.8-8.13,7-18.13,20.62-10.89,42.87,6.69,20.55,26.35,26.64,41.48,21.84C641,150.37,632.48,155,632.57,155.91Z" style="opacity:0.1"></path><circle cx="646.66" cy="94" r="7.54" transform="translate(13.56 255.83) rotate(-22.61)" style="fill:#fff"></circle><path d="M706.72,158.81c-2.75,8.92-8.05,16.14-13.46,21.7-8.29,8.53-16.82,13.16-16.73,14.07.25,2.59,2.77,6.52,2.57,7.37s-2.31,1.72-4.08,1.72-3.89-.85-4.09-1.72,2.32-4.78,2.57-7.37c.18-1.82-34.41-18.67-32-52,1.23-17.1,12-24,21.19-26.79a43.56,43.56,0,0,1,7.79-1.6,41.08,41.08,0,0,1,4.56-.26c4.87,0,31.55,1.18,33.53,28.65A43.77,43.77,0,0,1,706.72,158.81Z" style="fill:#c7c7c7"></path><path d="M676.53,194.58c.25,2.59,2.77,6.52,2.57,7.37s-2.31,1.72-4.08,1.72-3.89-.85-4.09-1.72,2.32-4.78,2.57-7.37c.18-1.82-34.41-18.67-32-52,1.23-17.1,12-24,21.19-26.79-8.13,6.94-18.14,20.62-10.9,42.87,6.69,20.55,26.35,26.64,41.49,21.84C685,189,676.44,193.67,676.53,194.58Z" style="fill:#a6a6a6"></path><circle cx="691.69" cy="132.77" r="7.54" transform="translate(2.12 276.12) rotate(-22.61)" style="fill:#fff"></circle><path d="M673.24,204.51c-2.8,9-8.2,16.28-13.67,21.86-8.22,8.38-16.59,12.92-16.5,13.82.25,2.58,2.77,6.52,2.57,7.38s-2.3,1.72-4.08,1.72-3.89-.86-4.09-1.72,2.32-4.8,2.58-7.38c.17-1.82-34.42-18.66-32-52,1.24-17.23,12.2-24.12,21.4-26.87a43.78,43.78,0,0,1,7.75-1.54,40.49,40.49,0,0,1,4.39-.26c4.87,0,31.56,1.19,33.53,28.67A43.77,43.77,0,0,1,673.24,204.51Z" style="fill:#37474f"></path><path d="M608,188.21c1.24-17.23,12.2-24.12,21.4-26.87-8.18,6.86-18.55,20.6-11.22,43.15,6.67,20.49,26.25,26.6,41.37,21.88-8.22,8.38-16.59,12.92-16.5,13.82.25,2.58,2.77,6.52,2.57,7.38s-2.3,1.72-4.08,1.72-3.89-.86-4.09-1.72,2.32-4.8,2.58-7.38C640.22,238.37,605.63,221.53,608,188.21Z" style="fill:#263238"></path><path d="M664.83,178.14a7.54,7.54,0,1,1-7.53-7.54A7.54,7.54,0,0,1,664.83,178.14Z" style="fill:#fff"></path></g><g id="freepik--bar-counter--inject-340"><rect x="43.3" y="354.36" width="652.7" height="26.9" style="fill:#FFA52E"></rect><rect x="43.3" y="354.36" width="652.7" height="26.9" style="opacity:0.30000000000000004"></rect><rect x="56.66" y="381.26" width="636.68" height="80.16" style="fill:#FFA52E"></rect><rect x="56.66" y="381.26" width="636.68" height="80.16" style="opacity:0.30000000000000004"></rect><polygon points="693.34 381.26 56.66 381.26 56.66 398.72 693.34 391.72 693.34 381.26" style="opacity:0.30000000000000004"></polygon><path d="M81.86,461.42c-.13-4.47-.22-8.93-.3-13.4s-.2-8.94-.24-13.41L81,407.81V407h.86l38.84-.15,38.85.15h.85v.85l-.31,26.8c0,4.47-.16,8.94-.23,13.41s-.18,8.93-.3,13.4c-.13-4.47-.22-8.93-.31-13.4s-.19-8.94-.23-13.41l-.31-26.8.85.85-38.85.15-38.84-.16.85-.84-.31,26.8c0,4.47-.16,8.94-.24,13.41S82,457,81.86,461.42Z" style="opacity:0.1"></path><path d="M183.58,461.42c-.13-4.47-.22-8.93-.3-13.4s-.2-8.94-.24-13.41l-.31-26.8V407h.86l38.84-.15,38.84.15h.86v.85l-.31,26.8c0,4.47-.16,8.94-.23,13.41s-.18,8.93-.31,13.4c-.12-4.47-.21-8.93-.3-13.4s-.19-8.94-.23-13.41l-.31-26.8.84.85-38.84.15-38.84-.16.85-.84-.32,26.8c0,4.47-.16,8.94-.23,13.41S183.71,457,183.58,461.42Z" style="opacity:0.1"></path><path d="M285.3,461.42c-.13-4.47-.22-8.93-.3-13.4s-.2-8.94-.24-13.41l-.31-26.8V407h.86l38.84-.15L363,407h.86v.85l-.31,26.8c0,4.47-.16,8.94-.24,13.41s-.17,8.93-.3,13.4q-.18-6.71-.3-13.4c-.07-4.47-.2-8.94-.23-13.41l-.31-26.8.84.85-38.84.15-38.84-.16.84-.84-.31,26.8c0,4.47-.16,8.94-.23,13.41S285.42,457,285.3,461.42Z" style="opacity:0.1"></path><path d="M387,461.42c-.13-4.47-.22-8.93-.3-13.4s-.2-8.94-.24-13.41l-.31-26.8V407H387l38.84-.15,38.84.15h.86v.85l-.31,26.8c0,4.47-.16,8.94-.24,13.41s-.17,8.93-.3,13.4c-.13-4.47-.22-8.93-.3-13.4s-.2-8.94-.24-13.41l-.31-26.8.85.85-38.84.15L387,408.65l.84-.84-.31,26.8c0,4.47-.16,8.94-.23,13.41S387.14,457,387,461.42Z" style="opacity:0.1"></path><path d="M488.74,461.42c-.13-4.47-.22-8.93-.3-13.4s-.2-8.94-.24-13.41l-.31-26.8V407h.86l38.84-.15,38.84.15h.86v.85l-.31,26.8c0,4.47-.16,8.94-.24,13.41s-.17,8.93-.3,13.4c-.13-4.47-.22-8.93-.3-13.4s-.2-8.94-.24-13.41l-.31-26.8.85.85-38.84.15-38.84-.16.84-.84-.31,26.8c0,4.47-.16,8.94-.24,13.41S488.86,457,488.74,461.42Z" style="opacity:0.1"></path><path d="M590.45,461.42c-.12-4.47-.21-8.93-.3-13.4s-.19-8.94-.23-13.41l-.31-26.8V407h.85l38.85-.15,38.84.15H669v.85l-.31,26.8c0,4.47-.16,8.94-.24,13.41s-.17,8.93-.3,13.4c-.13-4.47-.22-8.93-.3-13.4s-.2-8.94-.24-13.41l-.31-26.8.85.85-38.84.15-38.85-.16.85-.84-.31,26.8c0,4.47-.16,8.94-.24,13.41S590.58,457,590.45,461.42Z" style="opacity:0.1"></path><polygon points="43.3 461.48 125.04 461.24 206.78 461.15 370.27 460.98 533.75 461.15 615.5 461.24 697.24 461.48 615.5 461.73 533.75 461.81 370.27 461.98 206.78 461.81 125.04 461.72 43.3 461.48" style="fill:#263238"></polygon></g><g id="freepik--Text--inject-340"><path d="M542.14,94.38a541,541,0,0,1-334.28,0Q218,63.15,228.15,31.92a475.24,475.24,0,0,0,293.7,0Q532,63.15,542.14,94.38Z" style="fill:#FFA52E"></path><path d="M542.14,94.38a541,541,0,0,1-334.28,0Q218,63.15,228.15,31.92a475.24,475.24,0,0,0,293.7,0Q532,63.15,542.14,94.38Z" style="fill:#fff;opacity:0.6000000000000001"></path><g style="opacity:0.1"><path d="M231.74,40a11.22,11.22,0,0,1-.33,3.78,32.16,32.16,0,0,1-1.1,3.62A34,34,0,0,1,227,54.16c.66-2.44,1.53-4.78,2.38-7.12l1.28-3.49A26.63,26.63,0,0,0,231.74,40Z"></path><path d="M232.74,40.82a12,12,0,0,1,1.23,3,20.65,20.65,0,0,1,.61,3.21,18.89,18.89,0,0,1-.41,6.49c-.14-1.09-.2-2.15-.29-3.22s-.19-2.11-.29-3.16C233.37,45.05,233.09,43,232.74,40.82Z"></path><path d="M235.11,40a23.8,23.8,0,0,0,2.46,2.27,20.48,20.48,0,0,0,2.7,1.85,21.12,21.12,0,0,0,2.95,1.43c1,.43,2.09.73,3.18,1.1a11,11,0,0,1-3.42-.36A12.54,12.54,0,0,1,237,42.83,9.11,9.11,0,0,1,235.11,40Z"></path></g><g style="opacity:0.1"><path d="M519.08,40a26.63,26.63,0,0,0,1.08,3.56L521.45,47c.85,2.34,1.71,4.68,2.37,7.12a35.08,35.08,0,0,1-3.31-6.77,30.17,30.17,0,0,1-1.09-3.62A11,11,0,0,1,519.08,40Z"></path><path d="M518.09,40.82c-.35,2.14-.63,4.23-.85,6.34-.11,1.05-.21,2.1-.29,3.16s-.16,2.13-.3,3.22a18.89,18.89,0,0,1-.41-6.49,20.65,20.65,0,0,1,.61-3.21A12,12,0,0,1,518.09,40.82Z"></path><path d="M515.72,40a9.31,9.31,0,0,1-1.94,2.84,12.54,12.54,0,0,1-5.94,3.45,10.92,10.92,0,0,1-3.41.36c1.09-.37,2.15-.67,3.17-1.1a22.24,22.24,0,0,0,5.66-3.28A23.8,23.8,0,0,0,515.72,40Z"></path></g><path d="M235.11,40a2.37,2.37,0,1,1-2.37-2.37A2.37,2.37,0,0,1,235.11,40Z" style="fill:#263238"></path><path d="M519.63,40a2.37,2.37,0,1,1-2.37-2.37A2.37,2.37,0,0,1,519.63,40Z" style="fill:#263238"></path><path d="M236,79.83l5.19-18.77a1.81,1.81,0,0,1,2.23-1.27l.1,0h0L247.92,61a6.25,6.25,0,0,1,4.37,7.71,6.16,6.16,0,0,1-2.21,3.3A7.06,7.06,0,0,1,243,83.65l-5.63-1.55a0,0,0,0,1,0,0c-.06,0-.07,0-.1,0A1.83,1.83,0,0,1,236,79.83Zm4-.81,4,1.1a3.42,3.42,0,0,0,1.82-6.59l-4-1.09ZM242.8,68.9l2.74.76a2.64,2.64,0,0,0,3.22-1.88,2.59,2.59,0,0,0-1.82-3.21l-2.73-.76Z" style="fill:#fff"></path><path d="M267.07,84l-7.81-1.8L256.71,86a1.84,1.84,0,0,1-1.93.74,2.2,2.2,0,0,1-.59-.23,1.87,1.87,0,0,1-.52-2.56l11.48-17.3a1.9,1.9,0,0,1,3.41.79L271.29,88a1.88,1.88,0,0,1-1.6,2.07,2,2,0,0,1-.63,0,1.77,1.77,0,0,1-1.38-1.5Zm-.5-3.84-1-7.51L261.36,79Z" style="fill:#fff"></path><path d="M275.63,79.33a12.11,12.11,0,0,1,14.08-9.46,12.34,12.34,0,0,1,7,3.92,1.89,1.89,0,0,1-2.82,2.53A8.28,8.28,0,0,0,289,73.56a8.73,8.73,0,0,0-6.27,1.26,8.11,8.11,0,0,0-3.42,5.2,8,8,0,0,0,1.32,6.08,8.74,8.74,0,0,0,5.4,3.43,8.3,8.3,0,0,0,5.56-.82,2,2,0,0,1,2.53.84,2,2,0,0,1-.81,2.54,12.34,12.34,0,0,1-8,1.13A12.07,12.07,0,0,1,275.63,79.33Z" style="fill:#fff"></path><path d="M300.43,94l2.65-19.29a1.79,1.79,0,0,1,2-1.56,1.82,1.82,0,0,1,1.59,2L305.63,83l8.47,1.16,1.08-7.84a1.79,1.79,0,0,1,2-1.56,1.83,1.83,0,0,1,1.59,2l-2.65,19.3a1.82,1.82,0,0,1-2.08,1.54,1.78,1.78,0,0,1-1.55-2l1.08-7.85-8.47-1.16-1.08,7.85A1.81,1.81,0,0,1,302,96,1.78,1.78,0,0,1,300.43,94Z" style="fill:#fff"></path><path d="M324.14,97,326,77.65A1.78,1.78,0,0,1,328,76h.1l10.64,1a1.84,1.84,0,0,1,1.64,2,1.87,1.87,0,0,1-2,1.67l-8.9-.85-.57,6,7.65.73a1.83,1.83,0,0,1-.34,3.65l-7.66-.73-.57,6,8.9.85a1.83,1.83,0,0,1-.35,3.65l-10.64-1c-.07,0-.07,0-.07,0l0,0A1.81,1.81,0,0,1,324.14,97Z" style="fill:#fff"></path><path d="M344.08,98.79l1.12-19.43a1.82,1.82,0,0,1,1.92-1.71,1.84,1.84,0,0,1,1.74,1.92l-1,17.59,8.93.52a1.86,1.86,0,0,1,1.7,1.95,1.84,1.84,0,0,1-1.91,1.7l-10.68-.61h-.09A1.81,1.81,0,0,1,344.08,98.79Z" style="fill:#fff"></path><path d="M380.31,81.63a12.1,12.1,0,0,1-.22,16.69,10.8,10.8,0,0,1-7.93,3.43,11.19,11.19,0,0,1-8-3.64,12.31,12.31,0,0,1,.23-16.7A11,11,0,0,1,372.48,78,10.64,10.64,0,0,1,380.31,81.63ZM379.77,90a8.56,8.56,0,0,0-2.16-5.8,7.11,7.11,0,0,0-5.18-2.42A7.25,7.25,0,0,0,367.05,84a8.43,8.43,0,0,0-2.32,5.75,8.25,8.25,0,0,0,2.17,5.77A7.18,7.18,0,0,0,372.21,98a7.09,7.09,0,0,0,5.24-2.3A8.37,8.37,0,0,0,379.77,90Z" style="fill:#fff"></path><path d="M405.78,98.41a1.82,1.82,0,0,1-1.07,2.35,2.65,2.65,0,0,1-.72.13h0a2.44,2.44,0,0,1-1.3-.32,3.22,3.22,0,0,1-1.09-1.11,8.74,8.74,0,0,1-.84-3.93,2.9,2.9,0,0,0-.45-1.41,3,3,0,0,0-1-.91,6.25,6.25,0,0,0-1.87-.73l-3.89.15.26,7.15a1.82,1.82,0,0,1-1.78,1.88,1.81,1.81,0,0,1-1.88-1.74l-.72-19.46a1.79,1.79,0,0,1,1.75-1.88h0l5.87-.22a7.07,7.07,0,0,1,7.32,6.83,7,7,0,0,1-2.37,5.5,5.36,5.36,0,0,1,1.2,1.18,6.28,6.28,0,0,1,1.22,3.52,8,8,0,0,0,.2,1.94A1.79,1.79,0,0,1,405.78,98.41Zm-5.11-13.08A3.4,3.4,0,0,0,397.15,82l-4.06.15.25,6.8,4.06-.15A3.39,3.39,0,0,0,400.67,85.33Z" style="fill:#fff"></path><path d="M428.76,90.26l-4,.41.73,7.12a1.83,1.83,0,0,1-3.65.37l-2-19.37a1.81,1.81,0,0,1,1.62-2h0l5.84-.6a7.07,7.07,0,1,1,1.43,14.06ZM424.35,87l4-.41a3.4,3.4,0,1,0-.69-6.76l-4,.41Z" style="fill:#fff"></path><path d="M450.28,91.07l-7.94,1.13-1,4.47a1.86,1.86,0,0,1-1.54,1.39,1.81,1.81,0,0,1-2.05-2.21l4.48-20.27a1.85,1.85,0,0,1,1.57-1.39,1.82,1.82,0,0,1,1.9.9l10,18.21a1.86,1.86,0,0,1-.75,2.5,1.69,1.69,0,0,1-.6.19,1.78,1.78,0,0,1-1.83-.9Zm-1.85-3.41L444.78,81l-1.64,7.4Z" style="fill:#fff"></path><path d="M475.61,89.26a1.81,1.81,0,0,1-.69,2.48,3.18,3.18,0,0,1-.7.24h0a2.45,2.45,0,0,1-1.33-.11,3.26,3.26,0,0,1-1.26-.94,9,9,0,0,1-1.43-3.76,2.82,2.82,0,0,0-.65-1.31,3.21,3.21,0,0,0-1.16-.76,6.37,6.37,0,0,0-2-.43l-3.82.74,1.35,7a1.84,1.84,0,0,1-1.48,2.13,1.81,1.81,0,0,1-2.12-1.44L456.66,74a1.78,1.78,0,0,1,1.44-2.12h0l5.77-1.11a7.06,7.06,0,0,1,6.77,11.44,5.2,5.2,0,0,1,1.36,1,6.2,6.2,0,0,1,1.74,3.29,8.41,8.41,0,0,0,.5,1.89A1.75,1.75,0,0,1,475.61,89.26Zm-7-12.16a3.39,3.39,0,0,0-4-2.73l-4,.76,1.28,6.68,4-.77A3.38,3.38,0,0,0,468.57,77.1Z" style="fill:#fff"></path><path d="M490.53,68.55l-5.1,1.24,4.15,17.13a1.78,1.78,0,0,1-1.33,2.19,1.81,1.81,0,0,1-2.19-1.34L481.9,70.65l-5.07,1.23a1.85,1.85,0,0,1-2.2-1.37,1.81,1.81,0,0,1,1.34-2.2L489.67,65a1.81,1.81,0,0,1,2.19,1.34A1.86,1.86,0,0,1,490.53,68.55Z" style="fill:#fff"></path><path d="M512.53,61.62l-3.86,10.81L511.21,81A1.79,1.79,0,0,1,510,83.23,1.82,1.82,0,0,1,507.73,82l-2.54-8.55-9.06-7a1.78,1.78,0,1,1,2.16-2.84l7.6,5.8,3.22-9a1.81,1.81,0,0,1,2.32-1.11A1.84,1.84,0,0,1,512.53,61.62Z" style="fill:#fff"></path></g><g id="freepik--character-1--inject-340"><path d="M200.88,461.48H124.5c-2.57-30.15-5.68-61.92-8.27-87.35-.1-.9-.19-1.79-.28-2.67-1.45-14.12-2.72-26.13-3.63-34.59,0-.38-.09-.75-.12-1.12-.07-.72-.15-1.4-.22-2.06l0-.23c-.08-.77-.16-1.49-.23-2.17,0-.16,0-.32,0-.47s-.06-.6-.1-.88c-.44-4.08-.69-6.34-.69-6.34h71.83S193.21,396.38,200.88,461.48Z" style="fill:#37474f"></path><path d="M182.71,323.6l-8.65,27-1.94,6.07-10.94,34.21,0,.11-.44,1.4L158.59,399l-.38,1.2L158,401l-.05.16L138.6,461.48H124.47c-2.58-30.14-5.68-61.9-8.27-87.33l-.27-2.68c-1.44-14.13-2.71-26.14-3.61-34.6,0-.38-.09-.75-.12-1.12-.08-.71-.15-1.4-.22-2.06l0-.23c-.08-.76-.16-1.49-.23-2.17,0-.16,0-.32,0-.47s-.07-.59-.1-.88c-.44-4.08-.69-6.34-.69-6.34Z" style="fill:#263238"></path><path d="M135.82,461.48h-1.65c0-.47-.06-.93-.1-1.4q-1.09-14.88-2.2-29.77l-5.31-71.19-.29-3.89-1.75-23.5,2.1,22.71.33,3.49,2.13,23,4.22,49.25q1,12.12,2,24.24C135.45,456.79,135.64,459.13,135.82,461.48Z" style="fill:#263238"></path><path d="M184.83,323.53s-2.1,0-2.12.07c-.32,1.48-3.24,24.78-8.44,44.8C171,381,167.65,392.29,165.36,396a3.37,3.37,0,0,1-1,1.18c-.89.53-3,1.56-5.57,2.74l-.57.26q-.27.14-.54.24c-4.46,2.05-9.81,4.4-12.29,5.43h0s-4.15,20.69-10.08,48.56q-.59,2.78-1.2,5.64l-.3,1.4H54.64C65.52,423,74.89,389.19,74.89,389.19S74.6,343.48,90,323.53Z" style="fill:#37474f"></path><path d="M95.71,376.47c2.22-.57,4.59-.75,6.86-1.11,1.83-.29,3.65-.61,5.46-1a23.77,23.77,0,0,0,9.64-4.06c3.14-2.44,4.74-6.15,6.25-9.71q1.35-3.16,2.78-6.31c.45-1,.91-2,1.38-3a33.68,33.68,0,0,0,1.72-3.65c.06-.18.35-.09.27.08a25.66,25.66,0,0,0-.77,2.63c-.31,1-.6,2-.91,3.06-.57,1.82-1.12,3.64-1.71,5.44-1.08,3.24-2,6.64-3.87,9.56-3.35,5.33-9.34,7.48-15.32,8.23-1.72.22-3.45.34-5.18.44a37.59,37.59,0,0,1-6.54.05A.31.31,0,0,1,95.71,376.47Z" style="fill:#263238"></path><path d="M170.91,393.93a161.24,161.24,0,0,0-25.42,11.84.29.29,0,0,0,.24.53c8.56-3.68,17.29-7.2,25.65-11.35A.56.56,0,0,0,170.91,393.93Z" style="fill:#263238"></path><path d="M173.49,335.27c0-.3-.54-.37-.54,0,.07,10.17-.58,19.12-1.43,28.62-.4,4.41-4,28.8-11.6,27-1.28-.3-1.94-1.56-2.14-3.49-.24-2.32.64-5.17,1-7.48.85-5.1,1.53-10.22,2-15.38a139.7,139.7,0,0,0-.31-28.84.25.25,0,0,0-.5,0c0,13.32-.33,26.62-2.33,39.81-.95,6.34-4.15,15.89,2.49,16.87s11.12-15,11.95-19.38C174.37,360.8,174.46,347.62,173.49,335.27Z" style="fill:#263238"></path><path d="M160.12,391.51a43.05,43.05,0,0,0-1.72,5.06,11.44,11.44,0,0,0-.71,4.15.29.29,0,0,0,.53.11,14.64,14.64,0,0,0,1.77-4c.59-1.56,1.2-3.11,1.74-4.69A.86.86,0,0,0,160.12,391.51Z" style="fill:#263238"></path><path d="M86.86,365.15c.36,5.83,1.9,11.55,1.8,17.41s-1.63,11.56-2.94,17.2c-2.46,10.66-9.25,35.47-16.62,61.72H67.31c6.57-23.12,12.36-44.05,14.63-53.58,1.41-5.91,3-11.82,4.09-17.79,1.18-6.2.83-12,0-18.21A58.36,58.36,0,0,1,85.87,355a112.24,112.24,0,0,1,4-16.57c.89-2.86,1.86-5.69,2.84-8.52.11-.31.6-.17.5.15C89.69,341.46,86.11,353,86.86,365.15Z" style="fill:#263238"></path><path d="M144.07,239.13c19.27,12.13,53.9,29.12,67.07,30.18,14.63,1.18,35.35-37.86,49.28-62,2.77-4.79-33.14-28.62-35.84-23.35-7,13.78-20.55,44.37-23.93,45.24-2.76.71-31.4-3.51-47.54-6.07C127.42,219,130.51,230.59,144.07,239.13Z" style="fill:#ad6359"></path><path d="M249.58,220.81l-30-24.2c.18-.9,1.69-3.27,2.83-6.34,0,0,1.76-10.46-.14-19.92-1.58-8-4.84-19.58-.59-20.59,6.18-1.49,12.07,12.71,14.95,21.07,3.19-3.59,6.28-6.39,8.67-7.36,7.95-3.22,26.84,30.45,22.58,38.06C263.8,208.87,254.12,219.3,249.58,220.81Z" style="fill:#ad6359"></path><path d="M234.08,170.88c.14,4.46,5.31,1.74,5.31,1.74s-6.49,5.71-4.57,10.24c1.87,4.37,8,.86,8.44.62-.34.3-6.17,5.7-3.77,10.06,2.51,4.53,8,0,8.41-.35-.23.39-3.2,5.59-.62,8.49,4.43,5,12.4-8.11,17.7-9.16,0,0,2.8,8.77,2.94,9,0,0,7.83-12.29,6-19.35a4.66,4.66,0,0,0-4.62-3.56s3-3.68,1.18-7.17c-.92-1.79-4.6-1.91-4.6-1.91s2.25-3.05.46-6.06c-1.41-2.4-4.88-2.14-4.88-2.14s.8-3.93-1.44-5.92C255.52,151.39,233.78,161.34,234.08,170.88Z" style="fill:#ad6359"></path><path d="M260.92,161.28a.06.06,0,1,0,0-.12c-7.95,1.53-16.22,5.64-21.79,11.57-.19.2.05.58.29.4A85.15,85.15,0,0,1,260.92,161.28Z" style="fill:#263238"></path><path d="M266,169.44a.09.09,0,0,0-.06-.16c-8.18,1.61-17.37,6.5-23,14.1-.19.26-.1.69.14.41C247.19,179,258.71,172,266,169.44Z" style="fill:#263238"></path><path d="M247.69,193.86c5.67-7.08,13.05-11.62,21.29-15.2.1,0,0-.2-.07-.18-4.51.65-9.53,3.48-13.24,6a24,24,0,0,0-8.23,9.17C247.37,193.81,247.57,194,247.69,193.86Z" style="fill:#263238"></path><path d="M239.24,172.6c-.22.23.36.29.15.53-.89,1-5.73,7.57-4,9.91,1.39,1.88,4.86,1.32,6.12.58l3.14-1.86-2.31,2.84a14.78,14.78,0,0,0-2.44,4.18,5.38,5.38,0,0,0,0,4.38,3,3,0,0,0,3.45,1.7,9.26,9.26,0,0,0,4.08-2.19l3.27-2.84-2.16,3.74a14.34,14.34,0,0,0-1.39,3.3,5.77,5.77,0,0,0,0,3.34,2.76,2.76,0,0,0,2.23,1.86,6.08,6.08,0,0,0,3.26-1,48.91,48.91,0,0,0,6-4.47c1-.8,2-1.6,3-2.36a9,9,0,0,1,3.38-1.75,9.61,9.61,0,0,0-3.16,2c-1,.82-1.87,1.69-2.8,2.56A40.83,40.83,0,0,1,253.1,202a7.08,7.08,0,0,1-3.88,1.29,3.91,3.91,0,0,1-3.39-2.61,7.08,7.08,0,0,1,0-4.15,15.83,15.83,0,0,1,1.49-3.71l1.12.9a10.72,10.72,0,0,1-4.79,2.65,4.45,4.45,0,0,1-3-.39,5,5,0,0,1-2-2.14,6.77,6.77,0,0,1,0-5.54,16.35,16.35,0,0,1,2.76-4.56l.84,1c-1.63.88-5.45,1.93-8-.71C231.47,180.1,238,173.68,239.24,172.6Z" style="fill:#263238"></path><path d="M239.39,172.62a9.15,9.15,0,0,1-2.71.37,2.09,2.09,0,0,1-1.82-1,4.22,4.22,0,0,1-.21-2.39q.19-1.34.54-2.76a7,7,0,0,0-1.49,2.54,4.16,4.16,0,0,0,.06,3.19,3,3,0,0,0,1.29,1.21,3.06,3.06,0,0,0,1.67.22A4.8,4.8,0,0,0,239.39,172.62Z" style="fill:#263238"></path><path d="M183,224.63,172.83,260s-24.45-12.39-35-22.9c-7.46-7.44-11.9-17.08,12.59-16.22S183,224.63,183,224.63Z" style="fill:#a6a6a6"></path><path d="M167.47,253.77a57,57,0,0,1,1.68-6.94c.63-2.28,1.3-4.56,2-6.83s1.37-4.59,2.11-6.86,1.64-4.62,2.46-6.93c.05-.13.28-.08.24.06-.57,2.31-1.06,4.64-1.69,6.94s-1.31,4.56-2,6.83-1.38,4.59-2.11,6.86a58.93,58.93,0,0,1-2.48,6.93A.11.11,0,0,1,167.47,253.77Z" style="fill:#263238"></path><path d="M177.11,245.1,172.83,260s-24.45-12.4-35-22.9c-5.32-5.31-9.11-11.74-2-14.69Z" style="opacity:0.1"></path><path d="M187.75,346,77,352.61s12-91.8,48.15-130.45c4.47-4.78,15.73-5.23,23.08-1.94C168.09,229.1,188,345.61,187.75,346Z" style="fill:#a6a6a6"></path><path d="M186.47,338.19,78.36,344c.32-1.91.7-4.1,1.15-6.53l105.78-5.64C185.75,334.17,186.14,336.33,186.47,338.19Z" style="fill:#c7c7c7"></path><path d="M184.55,327.85,80.27,333.41c.24-1.26.5-2.57.77-3.92L183.81,324C184.07,325.34,184.31,326.62,184.55,327.85Z" style="fill:#c7c7c7"></path><path d="M183.12,320.55,81.77,326q.3-1.44.63-2.91l100.14-5.34C182.74,318.67,182.93,319.62,183.12,320.55Z" style="fill:#c7c7c7"></path><path d="M148.86,243.05c-6.33.78-15.87-9.81-19.21-17.91-.22-.55,1.19-6,2.59-12.66.84-4.06,1.68-8.59,2.14-12.79.09-.86,25.6,9.3,25.6,9.3s-3.56,8.51-4.32,15.82a9.22,9.22,0,0,0,0,1.74,2.79,2.79,0,0,1,0,.29C155.83,230.17,155,242.3,148.86,243.05Z" style="fill:#ad6359"></path><path d="M133.47,206.06c7.9,15.17,19.92,15.42,22.72,15.26A74.46,74.46,0,0,1,160,209s-25.51-10.16-25.6-9.29C134.15,201.77,133.83,203.93,133.47,206.06Z" style="fill:#263238"></path><path d="M124.11,170.25c-1.83,9.64,6.06,36.05,13.35,41.33C148,219.23,163.87,218.34,170,206c5.95-12-4.94-46.22-12.95-50.87C145.26,148.25,126.8,156,124.11,170.25Z" style="fill:#ad6359"></path><path d="M152.34,185.27c0-.06-.12.13-.09.2.58,1.76.94,3.88-.5,4.94,0,0,0,.13.05.1C153.68,189.66,153.17,186.85,152.34,185.27Z" style="fill:#263238"></path><path d="M150.2,183.88c-2.93.62-1.47,6.43,1.25,5.85S152.66,183.35,150.2,183.88Z" style="fill:#263238"></path><path d="M162.8,182.24c0-.07.16,0,.18.13.39,1.81,1.15,3.82,2.93,4,.05,0,.07.1,0,.11C163.86,186.71,162.88,184,162.8,182.24Z" style="fill:#263238"></path><path d="M163.93,180c2.84-1,4.53,4.8,1.9,5.68S161.55,180.75,163.93,180Z" style="fill:#263238"></path><path d="M147.69,180.93a22.6,22.6,0,0,0,2.13-1.23,4,4,0,0,0,1.94-1.66,1.26,1.26,0,0,0-.48-1.47,3.15,3.15,0,0,0-3.17.25,4.57,4.57,0,0,0-2.25,2.45A1.35,1.35,0,0,0,147.69,180.93Z" style="fill:#263238"></path><path d="M165.45,176.47a22.62,22.62,0,0,1-2.47,0,3.94,3.94,0,0,1-2.5-.5,1.27,1.27,0,0,1-.31-1.51,3.15,3.15,0,0,1,2.89-1.34,4.63,4.63,0,0,1,3.17,1A1.36,1.36,0,0,1,165.45,176.47Z" style="fill:#263238"></path><path d="M154.34,201.76a2.78,2.78,0,0,0,1.78.68,4.8,4.8,0,0,0,1.82-.94.06.06,0,0,1,.1.07,2.51,2.51,0,0,1-2,1.56,2,2,0,0,1-1.81-1.24C154.13,201.79,154.26,201.72,154.34,201.76Z" style="fill:#263238"></path><path d="M154.88,195.9a6.31,6.31,0,0,0,4.77,1.7,7.84,7.84,0,0,0,2.23-.46,1.66,1.66,0,0,0,.41-.15,3.89,3.89,0,0,0,.38-.16.46.46,0,0,0,.26-.49v0a1.89,1.89,0,0,0-.06-.18h0l0-.16c-.31-1.39-1-3.47-1-3.47.57.13,3.45.64,3.23-.07-1.87-5.91-3.94-12.47-7-18a.17.17,0,0,0-.31.13c1.56,5.74,4.13,11.17,5.8,16.92a10.82,10.82,0,0,0-3.12-.15c-.18.1,1.36,4,1.45,4.62a.14.14,0,0,1,0,.07c-2.25.88-4.18.62-6.84-.37C154.84,195.63,154.73,195.78,154.88,195.9Z" style="fill:#263238"></path><path d="M160.89,196.65a7.55,7.55,0,0,1-2.34,3,3.46,3.46,0,0,1-2,.62c-1.53,0-1.9-1.33-1.92-2.52a8.06,8.06,0,0,1,.21-1.89A9.68,9.68,0,0,0,160.89,196.65Z" style="fill:#263238"></path><path d="M158.55,199.64a3.46,3.46,0,0,1-2,.62c-1.53,0-1.9-1.33-1.92-2.52C156.25,197.51,158,198.17,158.55,199.64Z" style="fill:#ff9abb"></path><path d="M126.28,189c1.66-1.24,4-7.9,5-10.64s-1.29-14.7-2.09-18.23a19.15,19.15,0,0,0-5.1,9.54C123.26,173.89,124.26,181.46,126.28,189Z" style="fill:#263238;opacity:0.2"></path><path d="M154.21,164.58a9.41,9.41,0,0,1-7.6,5.11,9.58,9.58,0,0,1-8.51-3.83c0-.08-.18,0-.12.09a9.47,9.47,0,0,0,8.68,4.5,9.65,9.65,0,0,0,7.75-5.76A.11.11,0,0,0,154.21,164.58Z" style="fill:#263238"></path><path d="M139.32,144.33c-5.27,1.39-9.42,5.49-10.48,9.56a10.54,10.54,0,0,0,.61,6.92c0,.08.23,0,.19-.07a11.57,11.57,0,0,1,2.86-11.44,14.88,14.88,0,0,1,12.44-4.64,9.45,9.45,0,0,1,5.88,2.77c.15.16.52-.06.38-.23C149,144.24,144.08,143.07,139.32,144.33Z" style="fill:#263238"></path><path d="M172.81,148.38a12,12,0,0,0-6.48-5.07c-3.73-1.23-7.33-.05-10.88,1.2-.1,0,0,.19.05.15,3-1,6.16-1.94,9.36-1.17a11.78,11.78,0,0,1,6.65,4.3,11.49,11.49,0,0,1-1.28,15,11.66,11.66,0,0,1-8.73,3.07c-.13,0-.17.19-.05.2a11.75,11.75,0,0,0,11.36-17.68Z" style="fill:#263238"></path><path d="M123.8,175.39s-7.27-8.28-4.36-14.76c1.64-3.67,9.65-5.13,9.65-5.13a14.65,14.65,0,0,1,7.66-8.2c6.26-3.08,15-1.07,15-1.07s5.44-5.08,12.12-3.11c9.31,2.75,11.24,15.49,3.93,21.46-5.13,4.2-14.22.93-14.22.93-.73.28-7.39,6.79-14.88,1.25,0,0-3.77,5.36-8.75,3.41A7.08,7.08,0,0,1,123.8,175.39Z" style="fill:#263238"></path><path d="M134.56,194.26s-7.21-7.9-10.87-5.22,2.55,14.69,7.41,15.81a4.75,4.75,0,0,0,6-3.35Z" style="fill:#ad6359"></path><path d="M125.56,192.44c-.08,0-.08.11,0,.13,3.42.89,5.52,3.68,7.12,6.64-1.12-1.07-2.52-1.56-4-.2-.08.07,0,.19.11.16a2.92,2.92,0,0,1,3.32.6,14.37,14.37,0,0,1,1.86,2.38c.19.27.7,0,.54-.27l0-.08C134,197.65,130.06,192.28,125.56,192.44Z" style="fill:#263238"></path><polygon points="212.5 187 213.61 198.17 156.17 201.96 155.43 194.52 212.5 187" style="fill:#ebebeb"></polygon><polygon points="189.9 189.98 190.86 199.67 213.61 198.17 224.37 226.5 229.51 224.66 218.35 199.68 238.3 224.81 245.37 218.71 224.91 198.64 256.13 214.93 258.19 207.87 231.68 196.11 253.74 199.14 253.59 191.61 228.21 191.62 261.11 182.94 259.26 175.35 220.69 190.38 249.79 173.86 245.54 168.09 223.01 185.35 239.52 161.87 233.94 158.43 218.29 184.18 223.07 163.19 216.09 162.16 212.5 187 189.9 189.98" style="fill:#FFA52E"></polygon><path d="M125.5,251.06c22.48,37.35,64.78,73.88,75.88,62.33,10.15-10.56,22.47-52.62,24.76-70.51.68-5.25-43.38-9.68-44.1-4.07-.88,6.79-3.76,23.88-4,24.51-.61,1.33-26.64-19.54-41.58-29.31C116.21,220.81,116.89,236.75,125.5,251.06Z" style="fill:#ad6359"></path><path d="M183.74,190.19c4.12-1.77,7.14,1.74,7.14,1.74a9.52,9.52,0,0,1,5.31-3.75c3.83-.87,6.88,4.77,6.88,4.77a11.74,11.74,0,0,1,6.22-3.07c3.76-.46,7.64,4.79,7.64,4.79a10.34,10.34,0,0,1,7.17.75c5.82,3.18,6.41,13.3,6.85,19.72s-4.33,25.07-4.88,28.71L184.85,247s-10.17-28.25-9.61-35.88C175.71,204.72,179.12,192.18,183.74,190.19Z" style="fill:#ad6359"></path><path d="M190.24,192.27c-2.13,6.71-2.17,13.69-2.6,20.66,0,.15.23.16.24,0,.35-6.93,2.07-13.71,2.69-20.61A.17.17,0,0,0,190.24,192.27Z" style="fill:#263238"></path><path d="M202.54,193.12a18.33,18.33,0,0,0-.39,4.79c0,1.7,0,3.4,0,5.11.07,3.4.22,6.81.47,10.21,0,.15.24.17.24,0-.07-3.4-.08-6.79,0-10.19,0-1.7.1-3.4.16-5.09a21.48,21.48,0,0,0,0-4.81A.24.24,0,0,0,202.54,193.12Z" style="fill:#263238"></path><path d="M216.93,194.82a12.51,12.51,0,0,0-.12,4.32c.06,1.56.12,3.11.17,4.66.09,3.1.19,6.21.17,9.31a.12.12,0,0,0,.24,0c0-3.15.11-6.3.11-9.46q0-2.32,0-4.65a11.91,11.91,0,0,0-.39-4.21A.08.08,0,0,0,216.93,194.82Z" style="fill:#263238"></path><path d="M213,291.34c1.3-4,2.57-8,3.78-12s2.42-8,3.51-12.06,2.21-8.08,3.12-12.16,1.73-8.17,2.26-12.3v0h0l1.92-9.5,1.84-9.51c.29-1.59.57-3.17.83-4.77.12-.79.25-1.59.34-2.38a10,10,0,0,0,.09-2.38l-.6-9.67,1,9.65a10,10,0,0,1,0,2.45c-.06.81-.18,1.61-.28,2.42q-.33,2.4-.72,4.8c-1,6.39-2.26,12.73-3.51,19.08v0a112.91,112.91,0,0,1-2.29,12.41c-1,4.09-2.07,8.14-3.23,12.17s-2.49,8-3.82,12S214.53,287.43,213,291.34Z" style="fill:#263238"></path><path d="M178.63,227.91l3.59,10.85v.09l-1.78,11q-.91,5.49-1.67,11a86.37,86.37,0,0,0-.74,11c-.07,3.7,0,7.41,0,11.13-.4-3.7-.62-7.41-.7-11.13a72,72,0,0,1,.52-11.17c.48-3.7,1.14-7.35,1.79-11s1.43-7.29,2.25-10.91v.09Z" style="fill:#263238"></path><path d="M173.29,260.85A16.15,16.15,0,0,1,175.7,262c.39.22.77.43,1.14.67s.75.45,1.15.66a3.76,3.76,0,0,1-1.32-.32,9,9,0,0,1-1.21-.58A10.7,10.7,0,0,1,173.29,260.85Z" style="fill:#263238"></path><path d="M165.18,251.48l-25,27s-16.28-22.05-21-36.16c-3.32-10-3-20.61,18.53-8.85S165.18,251.48,165.18,251.48Z" style="fill:#a6a6a6"></path><path d="M138.22,270.55a56.87,56.87,0,0,1,4.61-5.44c1.59-1.76,3.21-3.5,4.84-5.22s3.28-3.48,5-5.19,3.54-3.38,5.31-5.08c.1-.1.28.06.18.17-1.54,1.8-3,3.66-4.63,5.43s-3.21,3.49-4.84,5.22-3.29,3.48-5,5.18a59.25,59.25,0,0,1-5.32,5.07A.1.1,0,0,1,138.22,270.55Z" style="fill:#263238"></path><path d="M151.89,241.75a54.24,54.24,0,0,1,7.14,4.19c1.14.77,2.25,1.6,3.33,2.46a19.75,19.75,0,0,1,3,2.91l.16.2-.16.15c-.66.6-1.31,1.2-2,1.77.51-.73,1.07-1.42,1.61-2.12v.35a34.61,34.61,0,0,0-3.18-2.53l-3.33-2.4C156.25,245.13,154,243.52,151.89,241.75Z" style="fill:#263238"></path><path d="M143,275.49c-.85,1.08-1.74,2.12-2.61,3.18l-.17.21-.19-.21c-1.63-1.85-3.2-3.72-4.66-5.69s-2.86-4-4.17-6.05-2.56-4.18-3.69-6.36a65.87,65.87,0,0,1-3-6.68c1.22,2.12,2.39,4.25,3.67,6.33s2.55,4.14,3.89,6.18,2.69,4.05,4.09,6,2.79,4,4.28,5.92H140C141,277.4,142,276.42,143,275.49Z" style="fill:#263238"></path><path d="M124.72,258.35a12.37,12.37,0,0,1,2.21,1.68,14.1,14.1,0,0,1,1.86,2.05,6.88,6.88,0,0,1-2.37-1.5A7.51,7.51,0,0,1,124.72,258.35Z" style="fill:#263238"></path></g><g id="freepik--character-3--inject-340"><path d="M503.72,314.42s-.09.33-.25.95c0,.11-.06.23-.09.37l0,.11q0,.15-.09.33c-.09.34-.19.74-.31,1.18-.06.22-.12.46-.18.71-.55,2.11-1.33,5.07-2.28,8.74-.11.43-.22.87-.34,1.32a2.45,2.45,0,0,0-.08.29c-.75,2.89-1.6,6.16-2.54,9.75-.2.74-.4,1.5-.59,2.27q-1.2,4.63-2.56,9.85c-.06.21-.12.42-.17.64-1.64,6.33-3.43,13.24-5.32,20.51-5.55,21.42-11.92,46-17.7,68.55-.2.76-.39,1.52-.59,2.28-.08.27-.15.55-.21.83-.17.66-.34,1.32-.5,2-.1.37-.19.74-.29,1.11l-.45,1.74h0c-.6,2.32-1.18,4.62-1.76,6.88h0c-.13.5-.25,1-.38,1.48h0q-.67,2.63-1.33,5.17h-72c7.86-28,18.27-62.61,27-91.21,9.65-31.58,17.3-55.85,17.3-55.85Z" style="fill:#263238"></path><path d="M491.78,323.33l-22.6,85.53-2.79,10.61c-.16.59-.32,1.19-.47,1.78-.41,1.53-.81,3.07-1.22,4.6-.52,2-1,4-1.57,5.95q-3.92,14.83-7.76,29.68h-1.6q1.34-5.13,2.69-10.24,3-11.4,6.07-22.78c.59-2.23,1.19-4.45,1.8-6.68.38-1.43.77-2.85,1.15-4.28l.42-1.53,2-7.45,11.78-42.63Z" style="fill:#37474f"></path><path d="M439.61,314.42c4.56,35.29,21.06,93.9,27.4,141.89,14.82-58.15,36.72-141.89,36.72-141.89Z" style="fill:#37474f"></path><path d="M541.19,461.48H468l-.62-6.66h0l-2.69-29-.37-4.07-3.57-38.44-.13-1.42c-3.94-1.82-6.85-3.18-8.57-4l-1.81-.85a5.49,5.49,0,0,1-.14-.58c-.82-3.86-4.35-24.89-7.09-41.41v0c-1.7-10.25-3.1-18.77-3.37-20.37,0-.11,0-.18,0-.23v0h85Z" style="fill:#263238"></path><path d="M447,375.2a144.72,144.72,0,0,1,22.27,11.66.26.26,0,0,1-.23.46c-7.52-3.65-15.19-7.16-22.49-11.22A.5.5,0,0,1,447,375.2Z" style="fill:#37474f"></path><path d="M449.88,340.42c1.22,7.27,1.91,14.65,2.72,22,.2,1.75.41,3.51.6,5.26a10.25,10.25,0,0,0,1.26,4.63c1.58,2.44,4.41,3.59,7,4.71.3.13.18.6-.15.5-2.6-.82-5.48-1.89-7.4-3.92-2.33-2.47-2.26-6.21-2.62-9.39a200.33,200.33,0,0,1-1.71-23.72C449.55,340.27,449.85,340.23,449.88,340.42Z" style="fill:#37474f"></path><path d="M458.71,342.65c.26,5.24.85,10.47,1.28,15.69.22,2.58.4,5.16.56,7.74s.46,5.31.38,7.94c0,.17-.29.22-.32,0-.43-2.48-.49-5.07-.7-7.58s-.39-5.29-.54-7.94c-.3-5.29-.44-10.61-.92-15.88C458.44,342.48,458.7,342.49,458.71,342.65Z" style="fill:#37474f"></path><polygon points="472.1 461.48 470.81 461.48 470.74 460.94 469.15 447.93 469.15 447.92 466.4 425.33 465.92 421.25 465.48 417.5 462.22 389.7 465.9 415.97 466.39 419.47 467.2 425.23 469.88 445.05 469.89 445.07 472.01 460.77 472.1 461.48" style="fill:#37474f"></polygon><path d="M465,238.51c-13.71,21.62-41.62,53.91-54.47,61.35-14.29,8.27-54.2-21.37-80-39.15-5.13-3.53,19.83-45.08,25.11-41,13.81,10.59,42.31,35.12,46.16,34.37,3.15-.61,30.19-18.73,45.34-29.13C471.24,208.38,474.63,223.29,465,238.51Z" style="fill:#d3766a"></path><path d="M355.88,221.85a27.94,27.94,0,0,1-.64-9.2c.62-4.17,5.9-17.21,5-21.86s-6-3.43-10,3S342,211.74,342,211.74Z" style="fill:#d3766a"></path><path d="M307,243.72c6.2,7.43,24.84,17.66,30.29,18.4s23.89-30.37,21.82-35.61-24.91-28.65-34.6-30.61S300.52,236,307,243.72Z" style="fill:#d3766a"></path><path d="M363.56,181.94l-11.87,31.4c-4.21,11.14-13.15,19.16-15.4,25.11l-7.84,20.76-23.53-8.89s5.6-14.8,7.84-20.76.84-17.88,5.05-29l11.86-31.4Z" style="fill:#ebebeb"></path><path d="M363.56,181.94l-7.36,20-3.7,10a51.36,51.36,0,0,1-4.61,9.67c-1.87,3-4,5.93-6.09,8.79s-4.3,5.68-5.43,9l-7.5,20-.16.42-.42-.16-23.54-8.85-.46-.17.17-.46,7.55-20c1.33-3.23,1.5-6.8,1.84-10.33s.61-7.1,1.21-10.63A50.59,50.59,0,0,1,318,198.92l3.81-10L329.41,169l.1-.26.26.1Zm0,0-34-12.54.37-.16-7.45,20-3.73,10a49.37,49.37,0,0,0-2.82,10.17c-.59,3.49-.9,7-1.18,10.56-.15,1.77-.29,3.55-.54,5.33a21.82,21.82,0,0,1-1.32,5.26l-7.52,20-.29-.64,23.52,8.93-.59.26,7.58-19.94a21.63,21.63,0,0,1,2.5-4.79c1-1.5,2.06-2.92,3.12-4.34,2.14-2.84,4.26-5.69,6.14-8.69a49.52,49.52,0,0,0,4.64-9.51l3.84-9.9Z" style="fill:#263238"></path><path d="M356.06,195.73l-6.73,17.82c-3.72,9.83-12.31,16.64-14.3,21.88L328.38,253l-19.33-7.31,6.65-17.6c2-5.25,0-16,3.74-25.87S327,182.35,327,182.35c3.91,1.48,4.56,4.85,11,7.9C343.47,192.82,352.5,192.7,356.06,195.73Z" style="fill:#FFA52E"></path><g style="opacity:0.1"><path d="M340.85,221.69a1.53,1.53,0,1,0-.67,2.07A1.53,1.53,0,0,0,340.85,221.69Z"></path><path d="M351.58,199a1.53,1.53,0,1,0-.66,2.06A1.54,1.54,0,0,0,351.58,199Z"></path><path d="M342.92,216.78a1.08,1.08,0,1,0-1.93,1,1.07,1.07,0,0,0,1.46.47A1.09,1.09,0,0,0,342.92,216.78Z"></path><path d="M316.17,243.83a1.07,1.07,0,0,0-1.45-.48,1.09,1.09,0,1,0,1,1.94A1.08,1.08,0,0,0,316.17,243.83Z"></path><path d="M327.93,192.1a1.08,1.08,0,1,0-.47,1.46A1.09,1.09,0,0,0,327.93,192.1Z"></path><path d="M335.89,220.73a.75.75,0,0,0-1-.33.77.77,0,0,0-.33,1,.76.76,0,0,0,1.36-.7Z"></path><path d="M314.17,240.41a.77.77,0,0,0-1-.33.76.76,0,1,0,.7,1.36A.77.77,0,0,0,314.17,240.41Z"></path></g><path d="M367.21,180.37h0a5,5,0,0,1-6.46,2.92L349.38,179l-3.21,8.49a2.89,2.89,0,0,1-5.41-2l1.34-3.55a.94.94,0,0,0-.56-1.24.93.93,0,0,0-1.21.53l-2.46,6.5a4.55,4.55,0,0,1-8.51-3.22l4.31-11.41-3.21-1.22a5,5,0,1,1,3.56-9.38l1,.39a6.52,6.52,0,0,1,.71-1.39,6.85,6.85,0,0,1,12,1.22,9.42,9.42,0,0,1,14.91,10.63l1.61.61A5,5,0,0,1,367.21,180.37Z" style="fill:#fff"></path><path d="M367.21,180.37a5.14,5.14,0,0,1-1.41,2,5,5,0,0,1-2.22,1.11,4.89,4.89,0,0,1-2.49-.08c-.79-.26-1.56-.57-2.35-.86l-9.38-3.51.1,0-2.52,6.85-.63,1.71a3.06,3.06,0,0,1-1.2,1.48,3.11,3.11,0,0,1-4.56-3.79l1.25-3.43a.65.65,0,0,0-1.07-.72,3.65,3.65,0,0,0-.31.74l-1.26,3.43-.63,1.71-.31.85a5.66,5.66,0,0,1-.44.89,4.88,4.88,0,0,1-3.19,2.2,5,5,0,0,1-5.91-4,4.82,4.82,0,0,1,.06-2c.18-.67.41-1.19.62-1.77l1.28-3.42,2.58-6.83.28.63-2.37-.91a7.59,7.59,0,0,1-2.38-1.22,5.44,5.44,0,0,1,3.91-9.64A5.09,5.09,0,0,1,334,162c.42.15.79.31,1.19.46l-.49.22a7.17,7.17,0,0,1,2.62-3.33,7.16,7.16,0,0,1,8,0A7.07,7.07,0,0,1,348,162.6l-.35-.09a9.53,9.53,0,0,1,11.84-.45,9.61,9.61,0,0,1,3.58,5.08,9.48,9.48,0,0,1-.32,6.19l0-.05c.74.3,1.51.53,2.22.9a5,5,0,0,1,2.29,6.19Zm0,0a5,5,0,0,0-2.31-6.14c-.71-.36-1.48-.59-2.22-.88l0,0,0,0a9.39,9.39,0,0,0,.27-6.13,10.59,10.59,0,0,0-1.37-2.78,9.48,9.48,0,0,0-2.21-2.17,9.35,9.35,0,0,0-5.85-1.67,9.22,9.22,0,0,0-5.58,2.3l-.23.2-.12-.29a6.56,6.56,0,0,0-2.5-3,6.72,6.72,0,0,0-3.71-1.06,6.5,6.5,0,0,0-3.64,1.21,6.42,6.42,0,0,0-2.3,3l-.13.35-.37-.13c-.39-.14-.8-.3-1.18-.42a4.53,4.53,0,0,0-1.14-.23,4.78,4.78,0,0,0-2.27.41,4.64,4.64,0,0,0-2.62,3.58,4.59,4.59,0,0,0,1.64,4.11,6.57,6.57,0,0,0,2.12,1.05l2.38.89.45.17-.17.46-2.59,6.82-1.3,3.41c-.21.56-.47,1.16-.6,1.66a4.11,4.11,0,0,0,1.64,4.33,4.11,4.11,0,0,0,3.14.66,4.16,4.16,0,0,0,2.68-1.79,5.22,5.22,0,0,0,.39-.74l.33-.85.66-1.7,1.33-3.4a3.19,3.19,0,0,1,.43-.91,1.26,1.26,0,0,1,2.06.21,1.26,1.26,0,0,1,.05,1.13l-1.32,3.4a2.67,2.67,0,0,0,3.88,3.29c1-.57,1.27-1.87,1.75-3l2.65-6.8,0-.07.07,0,9.36,3.58c.78.29,1.55.61,2.34.87a4.89,4.89,0,0,0,2.46.11,5,5,0,0,0,3.64-3.12Z" style="fill:#263238"></path><path d="M338.75,201.91c.78,5.07-5.64,3.08-5.64,3.08s8.55,5.09,7.33,10.63c-1.19,5.33-8.86,2.66-9.42,2.47.45.28,8.19,5.16,6.39,10.6-1.87,5.65-9.11,1.64-9.58,1.38.34.39,4.8,5.64,2.5,9.46-4,6.56-15.75-6.55-22-6.62,0,0-1.32,10.51-1.42,10.81,0,0-11.46-12.25-10.9-20.62a5.35,5.35,0,0,1,4.47-5s-4.13-3.54-2.85-7.87c.66-2.22,4.8-3.13,4.8-3.13s-3.19-3-1.8-6.75c1.09-3,5.07-3.46,5.07-3.46s-1.74-4.28.38-7C310.38,184.39,337.08,191.05,338.75,201.91Z" style="fill:#d3766a"></path><path d="M306.36,196.72a.08.08,0,0,1,0-.15c9.31.05,19.53,3,27.1,8.49.24.18.06.67-.25.52C324.33,201.36,316.11,198.33,306.36,196.72Z" style="fill:#263238"></path><path d="M302.36,207c-.11,0-.08-.19,0-.19,9.6.1,21,3.69,29,11.1.27.25.26.75-.08.48C325.63,213.88,311.14,208.42,302.36,207Z" style="fill:#263238"></path><path d="M328.21,230.78c-7.92-6.81-17.21-10.4-27.29-12.71-.13,0-.08-.21,0-.21,5.24-.22,11.51,1.93,16.25,4a27.46,27.46,0,0,1,11.23,8.63C328.56,230.65,328.38,230.92,328.21,230.78Z" style="fill:#263238"></path><path d="M333.11,205a31.79,31.79,0,0,1,4.31,3.78,10.62,10.62,0,0,1,2.8,4.72,3.5,3.5,0,0,1-.37,2.45,5,5,0,0,1-1.81,1.8,6.11,6.11,0,0,1-5,.14l-3.95-1.43,3.21,2.72a16.9,16.9,0,0,1,3.65,4.22,6.12,6.12,0,0,1,.93,4.94,3.51,3.51,0,0,1-3.53,2.66,10.66,10.66,0,0,1-5.08-1.62l-4.3-2.52,3.22,3.77a15.6,15.6,0,0,1,2.27,3.45,6.59,6.59,0,0,1,.77,3.76,3.16,3.16,0,0,1-2.13,2.58,7,7,0,0,1-3.89-.42,54,54,0,0,1-7.77-3.78c-1.28-.69-2.57-1.39-3.89-2a10.41,10.41,0,0,0-4.19-1.27,11.16,11.16,0,0,1,4,1.63c1.26.73,2.48,1.52,3.7,2.31a46.76,46.76,0,0,0,7.74,4.27,8.14,8.14,0,0,0,4.66.65,4.49,4.49,0,0,0,3.28-3.68,8.1,8.1,0,0,0-.83-4.7,17.9,17.9,0,0,0-2.47-3.87l-1.07,1.25a12.23,12.23,0,0,0,6,2,5.14,5.14,0,0,0,3.28-1.07,5.85,5.85,0,0,0,1.87-2.85,7.79,7.79,0,0,0-1.18-6.26,18.63,18.63,0,0,0-4.09-4.58l-.74,1.29a7.34,7.34,0,0,0,6.17-.5,6.24,6.24,0,0,0,2.11-2.34,4.54,4.54,0,0,0,.34-3.15,10.83,10.83,0,0,0-3.34-4.87A25.5,25.5,0,0,0,333.11,205Z" style="fill:#263238"></path><path d="M362.08,222.68l-31.2,47s65.25,39.79,77.76,33.24,45.54-41.27,58.9-65.31S463.1,214,450.68,221.75s-46.87,30.88-48.81,31.38C398.13,254.09,362.08,222.68,362.08,222.68Z" style="fill:#455a64"></path><path d="M342.71,271.4c1.16-1.64,2.11-3.5,3.15-5.22s2.15-3.43,3.24-5.13q3.18-4.94,6.33-9.88c4.25-6.68,8.37-13.48,13-19.94a.11.11,0,0,1,.18.11,203.64,203.64,0,0,1-12,20.5q-3.21,5-6.55,10c-1.13,1.67-2.28,3.34-3.48,4.95s-2.56,3.16-3.66,4.82C342.83,271.7,342.62,271.54,342.71,271.4Z" style="fill:#263238"></path><path d="M472,234c-13.14,23.67-40.45,55-60.75,73.58l57.32-101.21C478.1,206.5,483.26,213.81,472,234Z" style="opacity:0.1"></path><path d="M420.76,352.3c1.55,2,112.84,10,113.45,9.39,1.67-1.74-19.33-114.87-39.86-139-6.08-7.14-26.81-4.78-29.23-3-6.41,4.69-12.27,14-17.22,26C438,269.76,419.41,350.56,420.76,352.3Z" style="fill:#455a64"></path><path d="M465.8,235.2c-.68,10-1.56,19.87-2.47,29.8s-2,19.83-2.95,29.75-2.16,19.81-3.35,29.71l-1.82,14.84c-.67,4.94-1.29,9.88-2,14.82.33-5,.76-9.94,1.14-14.92l1.33-14.89c.91-9.92,2-19.83,2.95-29.75s2.16-19.81,3.36-29.7S464.39,245.07,465.8,235.2Z" style="fill:#263238"></path><path d="M469.91,266.39a1.87,1.87,0,1,1-1.7-2A1.86,1.86,0,0,1,469.91,266.39Z" style="fill:#263238"></path><path d="M467.5,285.49a1.87,1.87,0,1,1-1.7-2A1.87,1.87,0,0,1,467.5,285.49Z" style="fill:#263238"></path><path d="M465.09,304.59a1.87,1.87,0,1,1-1.7-2A1.87,1.87,0,0,1,465.09,304.59Z" style="fill:#263238"></path><path d="M462.68,323.69a1.87,1.87,0,1,1-1.71-2A1.87,1.87,0,0,1,462.68,323.69Z" style="fill:#263238"></path><path d="M460.26,342.79a1.87,1.87,0,1,1-1.7-2A1.86,1.86,0,0,1,460.26,342.79Z" style="fill:#263238"></path><path d="M486.39,241.45C498,264.27,522.78,299,534.88,307.63c13.45,9.57,56-16.21,83.31-31.49,5.44-3-15.52-46.74-21.17-43.19-14.73,9.25-45.4,31-49.17,29.9-3.08-.9-28.3-21.47-42.41-33.24C483,210.87,478.21,225.4,486.39,241.45Z" style="fill:#d3766a"></path><path d="M615.22,277.41c5.29-1.32,29-9.47,35.09-13.22s22.84-15.8,20.45-20.75-7.58-1.82-7.58-1.82,6.26-6.21,3.4-11-10.77.37-10.77.37,6-6.84,2.77-11.39-10.28,1.95-10.28,1.95,5.75-6,1.53-8.65c-5.07-3.18-14.42,9.09-21.45,12.72-1.6.83-33.57,14.41-33.57,14.41Z" style="fill:#d3766a"></path><path d="M648.91,221c-6.89,9-11.47,11.75-21.94,15.62-.21.08-.14.4.08.34,10.6-2.86,16.84-5.47,22.32-15.65C649.64,220.84,649.24,220.59,648.91,221Z" style="fill:#263238"></path><path d="M656.34,230.29c-8,8.73-12.92,11.75-23.59,16.61-.15.07,0,.33.11.27,10.87-3.89,17-6.64,23.86-16.41C657,230.32,656.71,229.89,656.34,230.29Z" style="fill:#263238"></path><path d="M662.63,241.85c-8.34,7.89-13.61,11.44-24.58,14.82a.21.21,0,0,0,.11.41c11.51-2.36,18.12-6.74,24.68-14.95C663.29,241.57,663.15,241.35,662.63,241.85Z" style="fill:#263238"></path><path d="M590.91,237.64s8-11.76,12.62-16.15,28-14.4,30.43-9.48c3.16,6.34-9.17,14.77-15.75,18.11,0,0,7.32,14.68-.23,22.65S590.91,237.64,590.91,237.64Z" style="fill:#d3766a"></path><path d="M634.26,214C633,221.9,624,225.73,617.9,229.45a.66.66,0,0,0-.12,1.07c2.66,6.36,4.56,16.1.65,22.24a.17.17,0,0,0,.27.2c5.08-6,4-15.74.64-22.52,6.36-3.71,15.13-7.94,15-16.4C634.33,214,634.26,214,634.26,214Z" style="fill:#263238"></path><path d="M590.33,235.32,617,285s-68.69,33.5-80.54,25.82S495,265.48,483.94,240.29s6.62-23,18.26-14.18,43.77,35.13,45.66,35.81C551.5,263.22,590.33,235.32,590.33,235.32Z" style="fill:#455a64"></path><path d="M605.05,285.64c-1-1.74-1.78-3.68-2.65-5.49s-1.81-3.62-2.75-5.41q-2.7-5.21-5.37-10.42c-3.61-7.06-7.07-14.21-11-21.07a.11.11,0,0,0-.19.09,204.72,204.72,0,0,0,10,21.53q2.73,5.29,5.59,10.52c1,1.77,2,3.53,3,5.25s2.25,3.39,3.19,5.14C604.91,285.93,605.13,285.79,605.05,285.64Z" style="fill:#263238"></path><path d="M500.13,161.24l25-29.73s-10.35-15.18-19.66-21.84c-15-10.71-32.27-7.94-32.27-7.94l-10.85,39.34Z" style="fill:#FFA52E"></path><path d="M462.34,141.07l37.79,20.17,4.65-4.68c-2.57-3-9.91-10.94-18.13-15.49-6.67-3.7-16.29-6.28-22.16-7.64Z" style="fill:#263238"></path><path d="M482,154l-16.47-8.68,6.27-13.18,1.35.64,14.95,7,1.45.69Zm-12.52-10,11.33,6,4.56-8.16-12.14-5.69Z" style="fill:#fff"></path><path d="M476.37,115.15a4,4,0,0,1,4.88-2.91,4.05,4.05,0,0,1,2.24,1.42.63.63,0,1,1-1,.78,2.86,2.86,0,0,0-1.56-1,2.73,2.73,0,0,0-2.11.31,2.63,2.63,0,0,0-1.25,1.67,2.59,2.59,0,0,0,.36,2,2.74,2.74,0,0,0,1.74,1.25,2.94,2.94,0,0,0,1.56-.06l.35-1.46-1.53-.37a.63.63,0,0,1-.46-.76.61.61,0,0,1,.75-.45l2.11.51h0a.61.61,0,0,1,.48.74l-.57,2.37a.89.89,0,0,1-.08.17.13.13,0,0,1,0,0h0a.53.53,0,0,1-.27.21,4.07,4.07,0,0,1-2.63.25A4,4,0,0,1,476.37,115.15Z" style="fill:#fff"></path><path d="M489.23,122.4a.61.61,0,0,1-.65.57.77.77,0,0,1-.23-.06h0a.79.79,0,0,1-.35-.28,1.12,1.12,0,0,1-.19-.49,3,3,0,0,1,.29-1.31.83.83,0,0,0,.05-.48.91.91,0,0,0-.18-.42,2.35,2.35,0,0,0-.47-.48l-1.21-.49-.9,2.21a.61.61,0,0,1-1.13-.46l2.45-6a.6.6,0,0,1,.79-.34h0l1.82.74a2.34,2.34,0,0,1,1.28,3.08,2.3,2.3,0,0,1-1.47,1.34,1.77,1.77,0,0,1,.2.53,2.12,2.12,0,0,1-.11,1.23,2.51,2.51,0,0,0-.2.62A.6.6,0,0,1,489.23,122.4Zm.24-4.67a1.13,1.13,0,0,0-.62-1.49l-1.25-.51-.85,2.1,1.25.51A1.13,1.13,0,0,0,489.47,117.73Z" style="fill:#fff"></path><path d="M498.77,121.09a4.05,4.05,0,0,1-2.85,4.79,3.64,3.64,0,0,1-2.86-.33,3.69,3.69,0,0,1-1.71-2.39,4,4,0,0,1,.48-3,4,4,0,0,1,2.36-1.84,3.69,3.69,0,0,1,2.92.37A3.54,3.54,0,0,1,498.77,121.09Zm-1.55,2.32a2.87,2.87,0,0,0,.34-2,2.37,2.37,0,0,0-3-1.79,2.85,2.85,0,0,0-2,3.3,2.45,2.45,0,0,0,1.13,1.59,2.37,2.37,0,0,0,1.9.2A2.77,2.77,0,0,0,497.22,123.41Z" style="fill:#fff"></path><path d="M506.7,127.32a4,4,0,0,1-3.63,4.22,3.64,3.64,0,0,1-2.76-.81,3.75,3.75,0,0,1-1.28-2.65,4.1,4.1,0,0,1,3.63-4.22,3.63,3.63,0,0,1,2.81.86A3.55,3.55,0,0,1,506.7,127.32Zm-1.92,2a2.87,2.87,0,0,0,.68-2,2.38,2.38,0,0,0-2.67-2.29,2.83,2.83,0,0,0-1.82,1,2.72,2.72,0,0,0-.68,1.93,2.41,2.41,0,0,0,.84,1.76,2.35,2.35,0,0,0,1.83.53A2.78,2.78,0,0,0,504.78,129.34Z" style="fill:#fff"></path><path d="M513.86,134.72l-5,4.17a.61.61,0,0,1-.86-.08.6.6,0,0,1,.07-.85l3.54-3-2.7.21a.6.6,0,0,1-.51-.22h0a.63.63,0,0,1-.13-.55l.67-2.62-3.54,3a.61.61,0,0,1-.79-.94l5-4.18a.63.63,0,0,1,.86.08l0,0a.64.64,0,0,1,.12.54l-.92,3.62,3.73-.28a.63.63,0,0,1,.52.22h0A.62.62,0,0,1,513.86,134.72Z" style="fill:#fff"></path><ellipse cx="473.91" cy="162.15" rx="17.01" ry="40.18" transform="translate(91.62 485.78) rotate(-59.14)" style="fill:#FFA52E"></ellipse><path d="M464.73,234.56c5.55,3.22,16.79-4.2,21.32-11.45.31-.49.75-20.89,1-25,0-.84-26.16,4.76-26.16,4.76s2,8.77,1.57,15.94a9.66,9.66,0,0,1-.28,1.68c0,.07,0,.17-.05.27C461.41,223.93,461.88,232.92,464.73,234.56Z" style="fill:#d3766a"></path><path d="M462.12,220.76a17.19,17.19,0,0,0,2.64.29c13.55.49,19.37-15.79,21.29-23-4.77.43-25.18,4.78-25.18,4.78s2,8.78,1.57,16a8.47,8.47,0,0,1-.27,1.66A1.72,1.72,0,0,0,462.12,220.76Z" style="fill:#263238"></path><path d="M491.24,166.24c2.91,9.13-1.61,35.65-8.06,41.63-9.34,8.67-24.79,9.68-32.2-1.59-7.18-10.92-.68-45.39,6.53-50.84C468.14,147.42,487,152.76,491.24,166.24Z" style="fill:#d3766a"></path><path d="M466.5,182.11c0-.07.12.11.11.18-.35,1.78-.46,3.87,1.06,4.74.05,0,0,.11,0,.09C465.71,186.52,465.88,183.74,466.5,182.11Z" style="fill:#263238"></path><path d="M468.4,180.51c2.92.25,2.19,6.06-.51,5.82S466,180.29,468.4,180.51Z" style="fill:#263238"></path><path d="M456.25,180.34c0-.07-.15.07-.16.14-.17,1.8-.67,3.84-2.37,4.24-.05,0-.06.1,0,.1C455.74,184.79,456.38,182.07,456.25,180.34Z" style="fill:#263238"></path><path d="M454.88,178.26c-2.87-.58-3.82,5.19-1.17,5.73S457.28,178.75,454.88,178.26Z" style="fill:#263238"></path><path d="M470.49,177.23a20.87,20.87,0,0,1-2.33-.58,3.93,3.93,0,0,1-2.26-1.05,1.25,1.25,0,0,1,.06-1.51,3.05,3.05,0,0,1,3.05-.6,4.53,4.53,0,0,1,2.77,1.7A1.32,1.32,0,0,1,470.49,177.23Z" style="fill:#263238"></path><path d="M452.32,174.78c.81.1,1.58.06,2.4.09a3.92,3.92,0,0,0,2.46-.38,1.24,1.24,0,0,0,.37-1.47,3.09,3.09,0,0,0-2.76-1.43,4.54,4.54,0,0,0-3.13.86A1.32,1.32,0,0,0,452.32,174.78Z" style="fill:#263238"></path><path d="M466.2,198.63c-.49.36-1,.89-1.65.86a4.71,4.71,0,0,1-1.87-.69c-.06,0-.12,0-.09.08a2.44,2.44,0,0,0,2.16,1.26,1.92,1.92,0,0,0,1.61-1.41C466.4,198.63,466.27,198.57,466.2,198.63Z" style="fill:#263238"></path><path d="M459.26,194.67a7.36,7.36,0,0,0,2.74,2.5,3.3,3.3,0,0,0,2,.28c1.47-.26,1.62-1.58,1.44-2.74a8,8,0,0,0-.5-1.78A9.52,9.52,0,0,1,459.26,194.67Z" style="fill:#fff"></path><path d="M465.46,195h0a7.52,7.52,0,0,1-1.87.69c.62-.31,1.25-.61,1.84-.94A.93.93,0,0,1,465.46,195Z" style="fill:#c7c7c7"></path><path d="M462.2,196.12a5.31,5.31,0,0,1-.87.23,4.75,4.75,0,0,1-.53.05l-.26-.23C461.09,196.17,461.64,196.15,462.2,196.12Z" style="fill:#c7c7c7"></path><path d="M465,193a6.16,6.16,0,0,1-4.42,2.22,7.91,7.91,0,0,1-2.22-.18,1.76,1.76,0,0,1-.41-.1,3.31,3.31,0,0,1-.39-.11.45.45,0,0,1-.31-.45h0a1,1,0,0,1,0-.18v0l0-.15c.13-1.39.53-3.48.53-3.48-.54.19-3.26,1-3.13.31,1.11-5.95,2.34-12.56,4.7-18.24a.17.17,0,0,1,.32.09c-.84,5.76-2.68,11.32-3.62,17.09a11,11,0,0,1,3-.52c.19.09-.84,4-.85,4.66a.09.09,0,0,0,0,.06c2.29.59,4.13.11,6.59-1.17C465,192.74,465.11,192.87,465,193Z" style="fill:#263238"></path><path d="M481.73,181.77c-1.6-5,1.52-13.2-1-15.49-5.36-5-16.81,3.95-24.52,3.78-7.47-.16-9.85-4.91-8.35-10.79s6.25-7.74,14.68-8.58a30.16,30.16,0,0,1,25.13,8.84s6.76,5.28,6.77,11c0,3.94-5,20.07-6.51,20.23C486,191,482.38,183.8,481.73,181.77Z" style="fill:#263238"></path><path d="M481.12,164.37a18.68,18.68,0,0,0-6.79.25c-2.12.46-4,1.69-5.88,2.64-4.3,2.14-9,3.75-13.89,3.32a.05.05,0,0,0,0,.1c4.47.67,8.89-.51,12.91-2.33,2-.92,4-2.27,6.1-2.94a24.1,24.1,0,0,1,7.53-.64A.2.2,0,0,0,481.12,164.37Z" style="fill:#263238"></path><path d="M484.19,187.88s6.05-8.51,9.92-6.35-.74,14.54-5.31,16.2a4.63,4.63,0,0,1-6.19-2.54Z" style="fill:#d3766a"></path><path d="M492.7,185.05c.07,0,.09.09,0,.12-3.2,1.27-4.91,4.22-6.11,7.28,1-1.17,2.26-1.81,3.83-.67.08.06,0,.19-.09.17a2.85,2.85,0,0,0-3.14,1,13.85,13.85,0,0,0-1.53,2.53c-.15.29-.66.13-.55-.2l0-.07C485.11,191.1,488.32,185.42,492.7,185.05Z" style="fill:#263238"></path><path d="M496.51,175.52s-13.37-18.64-40.3-25.73c0,0,14.85-4.15,29.21,7.31S496.51,175.52,496.51,175.52Z" style="fill:#FFA52E"></path><path d="M462.48,217.77l5.13,14.86,19-17.54,4.84,6.17s-19.16,28.42-19.2,27.09l-5.39-12.86-9.1,8.31,1.79-21.9Z" style="fill:#FFA52E"></path><path d="M458.05,232.92c.42-3.6.74-7.25,1.32-10.83,0-.13.22-.18.25,0,.55,3.53-1.12,17.31-1.27,20.63l0,0c.38-.36,8.41-7.29,8.48-7.17,1.2,2.06,5.16,11.42,5.42,12.27,3-4.51,14.6-20.9,18.14-25.14a.13.13,0,0,1,.21.14c-2.72,4.79-18,26.87-18.27,26.79A143,143,0,0,1,466.76,236c-1.38,1.53-9.53,9.4-9.53,8.86A112.71,112.71,0,0,1,458.05,232.92Z" style="fill:#263238"></path></g><g id="freepik--character-2--inject-340"><path d="M327,461.42h-70.3C254,433.07,251.15,402,249,378.24l-.18-1.92c-2-21.85-3.32-37-3.32-37h65.82s0,.07,0,.2C311.86,343.53,320,407.16,327,461.42Z" style="fill:#455a64"></path><path d="M267.72,461.42h-1.11c-4-30.9-7-61.9-9.74-92.93h0c-.13-1.54-.28-3.08-.41-4.61-.45-5.28-.9-10.58-1.33-15.85,0-.17.23-.17.26,0q.72,7,1.43,14.05c.16,1.7.34,3.39.51,5.1h0c1.78,17.72,3.56,35.43,5.5,53.13Q265.08,440.89,267.72,461.42Z" style="fill:#263238"></path><path d="M301.82,339.36,293,397.73l-.31,2-.79,5.29-.06.37-.21,1.42-8.3,54.63H251.1c-4.69-26.44-9.8-55.31-13.87-78.32-.07-.41-.15-.81-.22-1.22-4.39-24.81-7.53-42.52-7.53-42.52Z" style="fill:#263238"></path><path d="M311.39,339.3s0,.09,0,.26c-.52,3.4-6.19,39.91-15.6,63.86-.07.2-.14.39-.22.59,0,0-1.33.41-3.72,1.36-.93.37-2.05.83-3.3,1.36l-1.36.62c-2.76,1.23-6.11,2.85-9.94,4.92l-1.08.59s0,.16,0,.44c-.25,3.24-1.83,24.1-3.61,48.12h-66C211.87,405,218.63,339.3,218.63,339.3Z" style="fill:#455a64"></path><path d="M226,349.46c-1.87,24.44-3.66,48.89-5.62,73.31q-1.56,19.32-3.26,38.65h-1c3.31-37.3,6.35-74.62,9.33-111.95C225.46,349.12,226,349.12,226,349.46Z" style="fill:#263238"></path><path d="M298.84,402.29a144.16,144.16,0,0,0-22.71,10.58.26.26,0,0,0,.21.47c7.65-3.29,15.45-6.43,22.91-10.14A.5.5,0,0,0,298.84,402.29Z" style="fill:#263238"></path><path d="M301.27,349.78c0-.26-.48-.32-.48,0,.06,9.09-.52,17.08-1.28,25.57-.36,3.94-3.53,25.73-10.36,24.14-1.15-.27-1.73-1.39-1.91-3.12-.22-2.07.56-4.62.91-6.68.75-4.56,1.36-9.14,1.76-13.74a125.4,125.4,0,0,0-.28-25.77.22.22,0,0,0-.44,0c0,11.91-.3,23.79-2.08,35.58-.86,5.66-3.71,14.19,2.21,15.06s9.94-13.4,10.68-17.3C302.05,372.59,302.14,360.82,301.27,349.78Z" style="fill:#263238"></path><path d="M289.33,400a36.46,36.46,0,0,0-1.54,4.52,10.32,10.32,0,0,0-.64,3.71c0,.24.35.26.48.1a13,13,0,0,0,1.58-3.61c.52-1.4,1.07-2.78,1.55-4.19A.76.76,0,0,0,289.33,400Z" style="fill:#263238"></path><path d="M258.4,356.91a12.71,12.71,0,0,0-.29-2.83.15.15,0,0,0-.28,0,11.65,11.65,0,0,0-.32,2.44c-.09.94-.22,1.87-.32,2.81a40.83,40.83,0,0,1-1,5.69,20.23,20.23,0,0,1-5.22,9.38,27.13,27.13,0,0,1-8.82,5.81c-3.67,1.56-7.54,2.14-11.33,3.25a.14.14,0,0,0,0,.28,32.71,32.71,0,0,0,12.27-2.41,26.23,26.23,0,0,0,9.21-5.88,20.49,20.49,0,0,0,5.36-9.65,28.8,28.8,0,0,0,.74-5.7A26.26,26.26,0,0,0,258.4,356.91Z" style="fill:#263238"></path><path d="M311.28,351c-1.66,1.79-94,.8-94.58.14-.32-.41-7.13-7.49-4.81-16C220,305.15,243,240.41,264.78,225c5.4-3.81,23.8-4.58,28.66,1.59,12.44,15.8,24.36,81.38,25,106.59C318.69,343.5,311.7,350.51,311.28,351Z" style="fill:#FFA52E"></path><path d="M292.56,232.25a13.5,13.5,0,0,0-2.09-3.35,13.4,13.4,0,0,0,1.17,3.76,14.12,14.12,0,0,0,2.09,3.35A13.49,13.49,0,0,0,292.56,232.25ZM266.14,265a13.69,13.69,0,0,0-2.09-3.35,13.37,13.37,0,0,0,1.17,3.77,14.32,14.32,0,0,0,2.09,3.35A13.45,13.45,0,0,0,266.14,265Zm13.54,48.81a14.75,14.75,0,0,0-2.09-3.33,13.7,13.7,0,0,0,1.16,3.76,13.5,13.5,0,0,0,2.09,3.35A13.73,13.73,0,0,0,279.68,313.79ZM318,338h0a14.41,14.41,0,0,0-1.07-3.25,14.62,14.62,0,0,0-2.09-3.33,13.77,13.77,0,0,0,1.16,3.77,14.36,14.36,0,0,0,1.94,3.16l.15.18A4.34,4.34,0,0,0,318,338Zm-79.56-35.82a14.7,14.7,0,0,0-2.1-3.35,13.91,13.91,0,0,0,1.17,3.77,13.63,13.63,0,0,0,2.09,3.34A14.16,14.16,0,0,0,238.48,302.13Zm-17.21,34.65a14,14,0,0,0-2.1-3.35,13.91,13.91,0,0,0,1.17,3.77,13.69,13.69,0,0,0,2.09,3.35A13.9,13.9,0,0,0,221.27,336.78Zm81.53-43.6a14.66,14.66,0,0,0-2.09-3.35,15.17,15.17,0,0,0,3.25,7.11A13.59,13.59,0,0,0,302.8,293.18ZM253.28,281.5a14.06,14.06,0,0,0-3.34,2.09,13.72,13.72,0,0,0,3.76-1.16,14,14,0,0,0,3.35-2.1A14.14,14.14,0,0,0,253.28,281.5Zm-10.71,43.17a14.32,14.32,0,0,0-3.35,2.09,13.68,13.68,0,0,0,3.77-1.17,13.45,13.45,0,0,0,3.34-2.09A13.61,13.61,0,0,0,242.57,324.67ZM303.33,249l-1.38.57a13.45,13.45,0,0,0-3.34,2.09,13.4,13.4,0,0,0,3.76-1.17c.42-.2.83-.4,1.23-.63Zm-10.94,83.17a14.06,14.06,0,0,0-3.34,2.09,13.39,13.39,0,0,0,3.76-1.16,13.69,13.69,0,0,0,3.35-2.09A14.12,14.12,0,0,0,292.39,332.14Zm-39.11-87.95a13.53,13.53,0,0,0-3.34,2.11,14.11,14.11,0,0,0,3.78-1.18,14,14,0,0,0,3.33-2.09A13.77,13.77,0,0,0,253.28,244.19ZM245,262.77a14.2,14.2,0,0,0-.89,3.86,13.54,13.54,0,0,0,1.85-3.5,14.49,14.49,0,0,0,.88-3.85A14.44,14.44,0,0,0,245,262.77ZM221.69,311.2a13.27,13.27,0,0,0-.88,3.84,13.74,13.74,0,0,0,1.84-3.49,13.19,13.19,0,0,0,.87-3.84A14.22,14.22,0,0,0,221.69,311.2Zm88.86-33.95a10.73,10.73,0,0,0-.44,2.49,11.16,11.16,0,0,0,.73-1.11C310.74,278.17,310.65,277.71,310.55,277.25Zm-30-25.4a13.4,13.4,0,0,0-.87,3.85,14.39,14.39,0,0,0,1.83-3.49,13.85,13.85,0,0,0,.88-3.84A14.2,14.2,0,0,0,280.58,251.85Zm-1.36,36a13.89,13.89,0,0,0-.87,3.86,14.42,14.42,0,0,0,1.84-3.49,13.84,13.84,0,0,0,.87-3.84A14.3,14.3,0,0,0,279.22,287.88ZM262,332.51a13.53,13.53,0,0,0-.87,3.83,15.06,15.06,0,0,0,2.71-7.33A14.67,14.67,0,0,0,262,332.51Zm46.75,18.19-.24.7,1.09-.09.1-.27a13.89,13.89,0,0,0,.89-3.84A14.32,14.32,0,0,0,308.76,350.7Zm-65.45-2.62a13.78,13.78,0,0,0-3.83-.88A13.33,13.33,0,0,0,243,349a14.2,14.2,0,0,0,3.86.89A13.85,13.85,0,0,0,243.31,348.08Zm62.2-32a13.19,13.19,0,0,0-3.84-.87A15.49,15.49,0,0,0,309,318,13.47,13.47,0,0,0,305.51,316.1Zm-73.62-38.45c-.11.24-.21.49-.31.74a10.67,10.67,0,0,0,2.06.33A11.4,11.4,0,0,0,231.89,277.65ZM280,348.08a13.9,13.9,0,0,0-3.86-.88,13.45,13.45,0,0,0,3.49,1.84,14.28,14.28,0,0,0,3.86.89A14.14,14.14,0,0,0,280,348.08Zm-9.66-112.54a14.16,14.16,0,0,0-3.83-.89,13,13,0,0,0,3.47,1.83,14.21,14.21,0,0,0,3.86.9A13.5,13.5,0,0,0,270.33,235.54Zm22.45,34.1a14.31,14.31,0,0,0-3.84-.89,13,13,0,0,0,3.47,1.83,14.21,14.21,0,0,0,3.86.9A13.61,13.61,0,0,0,292.78,269.64Zm-31.47,33.51a14.55,14.55,0,0,0-3.83-.9,12.76,12.76,0,0,0,3.47,1.84,14.2,14.2,0,0,0,3.86.89A13.78,13.78,0,0,0,261.31,303.15Z" style="fill:#fff"></path><path d="M288.66,240.05c-6.09,1.56-16.76-7.6-21-15.1-.29-.52.41-6,.94-12.72.31-4.07.55-8.61.48-12.77,0-.86,26.21,5.87,26.21,5.87s-2.41,8.77-2.24,16a9.85,9.85,0,0,0,.22,1.7c0,.08,0,.18,0,.29C293.86,226.57,294.55,238.54,288.66,240.05Z" style="fill:#f7a9a0"></path><path d="M270.64,199.54c1.34,7,6,23.93,19.95,24a15.82,15.82,0,0,0,2.67-.19.85.85,0,0,0,0-.29,10,10,0,0,1-.21-1.69c-.18-7.27,2.24-16,2.24-16S276.33,200.47,270.64,199.54Z" style="fill:#263238"></path><path d="M266,167.22c-3,9.27,1.4,36.29,7.91,42.41,9.45,8.89,25.17,10,32.78-1.4,7.38-11.06,1-46.17-6.3-51.76C289.6,148.23,270.43,153.53,266,167.22Z" style="fill:#f7a9a0"></path><path d="M287.56,181.19c.78-.3,1.45-.71,2.19-1.08a4,4,0,0,0,2-1.53,1.26,1.26,0,0,0-.38-1.49,3.14,3.14,0,0,0-3.16,0,4.59,4.59,0,0,0-2.39,2.28A1.35,1.35,0,0,0,287.56,181.19Z" style="fill:#263238"></path><path d="M305.84,178.27c-.83,0-1.6-.21-2.42-.33a3.92,3.92,0,0,1-2.4-.81,1.25,1.25,0,0,1-.11-1.53,3.1,3.1,0,0,1,3-.95,4.58,4.58,0,0,1,3,1.41A1.34,1.34,0,0,1,305.84,178.27Z" style="fill:#263238"></path><path d="M291.69,201.78c.49.38,1,.92,1.67.89a4.79,4.79,0,0,0,1.91-.69c.06,0,.12,0,.09.08a2.48,2.48,0,0,1-2.21,1.27,2,2,0,0,1-1.63-1.44C291.48,201.78,291.62,201.73,291.69,201.78Z" style="fill:#263238"></path><path d="M293,196.07a6.28,6.28,0,0,0,4.49,2.28,8.18,8.18,0,0,0,2.26-.16,2.58,2.58,0,0,0,.42-.1,3.31,3.31,0,0,0,.39-.11.45.45,0,0,0,.32-.46h0a.53.53,0,0,0,0-.18v0l0-.16c-.13-1.41-.52-3.54-.52-3.54.54.2,3.31,1.07,3.18.34-1.09-6.06-2.29-12.79-4.66-18.59a.17.17,0,0,0-.32.09c.81,5.86,2.65,11.54,3.56,17.41a10.62,10.62,0,0,0-3-.54c-.19.08.83,4.1.84,4.74v.06c-2.34.59-4.21.08-6.7-1.23C293,195.8,292.84,195.94,293,196.07Z" style="fill:#263238"></path><path d="M298.79,197.57a7.43,7.43,0,0,1-2.69,2.65,3.31,3.31,0,0,1-2,.36c-1.51-.21-1.71-1.54-1.57-2.72A8,8,0,0,1,293,196,9.6,9.6,0,0,0,298.79,197.57Z" style="fill:#263238"></path><path d="M296.1,200.22a3.31,3.31,0,0,1-2,.36c-1.51-.21-1.71-1.54-1.57-2.72C294.11,197.83,295.79,198.71,296.1,200.22Z" style="fill:#ff9abb"></path><path d="M287.85,186.1a5.18,5.18,0,0,1,2.86-.6,4.35,4.35,0,0,1,1.5.43,3.69,3.69,0,0,1,1.22,1.07l.57.8-1,0a10,10,0,0,0-2.09.26,4.37,4.37,0,0,0-1.94,1,3.21,3.21,0,0,1,1.67-1.69,6.06,6.06,0,0,1,2.35-.57l-.42.82a3.53,3.53,0,0,0-2-1.24A11.18,11.18,0,0,0,287.85,186.1Z" style="fill:#263238"></path><path d="M291.14,189.65a9.6,9.6,0,0,0,2-1.07c.14-.12.68-.63.63-.75a4.17,4.17,0,0,0-.51-1,2.9,2.9,0,0,1,.73,1,1.46,1.46,0,0,1-.65,1.08A4.58,4.58,0,0,1,291.14,189.65Z" style="fill:#263238"></path><path d="M308,183.25a5.08,5.08,0,0,0-1.46-.07,5.38,5.38,0,0,0-1.45.35,4.24,4.24,0,0,0-1.3.87,3.39,3.39,0,0,0-.84,1.38l-.32.94,1-.28a10.08,10.08,0,0,1,2.07-.37,4.34,4.34,0,0,1,2.14.33,3.2,3.2,0,0,0-2.1-1.11,6,6,0,0,0-2.41.16l.64.66a3.51,3.51,0,0,1,1.56-1.79A11.23,11.23,0,0,1,308,183.25Z" style="fill:#263238"></path><path d="M305.88,187.62a8.6,8.6,0,0,1-2.24-.42c-.17-.07-.85-.39-.83-.52a4.65,4.65,0,0,1,.18-1.12,3.06,3.06,0,0,0-.41,1.13,1.48,1.48,0,0,0,.94.84A4.55,4.55,0,0,0,305.88,187.62Z" style="fill:#263238"></path><path d="M262.25,191.86c7.56.58,11.56-8.42,9.83-15.69,0,0,20.1,2.8,21.16-13.35a15.84,15.84,0,0,0,13,7.33l1.94,5.45c2.06-.59,4.57-5.92-.45-10.55,0,0-.29-8.05-6.2-12.91a11,11,0,0,0-11.82-1.73,16.59,16.59,0,0,0-12.1-3.06c-7.42.9-10.51,7.64-10.51,7.64s-10,1.84-11.72,8.91a14.67,14.67,0,0,0,1.89,11.83s-2.52,2.76-1.28,8.81C256.81,188.43,260,191.69,262.25,191.86Z" style="fill:#263238"></path><path d="M292.81,161.39a19.22,19.22,0,0,1,0,3.94,16.19,16.19,0,0,1-.76,3.81,10.13,10.13,0,0,1-4.69,5.77c-2.18,1.38-4.86,1.58-7.42,1.81-1.31,0-2.62,0-3.93-.12s-2.62-.31-3.95-.43c1.29.32,2.59.59,3.89.88s2.66.26,4,.39c2.66-.09,5.46-.3,7.88-1.72a10.68,10.68,0,0,0,4.92-6.37A16.13,16.13,0,0,0,292.81,161.39Z" style="fill:#263238"></path><path d="M267.13,155a18.53,18.53,0,0,0-7.42,1.56,11.18,11.18,0,0,0-5.66,5.19,12,12,0,0,0-1,3.78,11.19,11.19,0,0,0,.16,3.87,10.45,10.45,0,0,0,4.06,6.34,11.42,11.42,0,0,1-3.35-6.47,12.73,12.73,0,0,1,.94-7.12,9.65,9.65,0,0,1,2.11-2.89,14.85,14.85,0,0,1,3-2.06A23.5,23.5,0,0,1,267.13,155Z" style="fill:#263238"></path><path d="M289.74,150.41a19,19,0,0,1,5.92-1.11,10.79,10.79,0,0,1,9.84,5.35,20.72,20.72,0,0,1,2.36,5.55,15,15,0,0,0-1.75-5.91,11,11,0,0,0-4.34-4.51,10.87,10.87,0,0,0-6.14-1.19A14.38,14.38,0,0,0,289.74,150.41Z" style="fill:#263238"></path><path d="M303.12,170.78a20.8,20.8,0,0,1-6.08-3.32A12.45,12.45,0,0,1,294.7,165a15.29,15.29,0,0,1-1.67-3.06,8.47,8.47,0,0,0,1.06,3.44,9.39,9.39,0,0,0,2.36,2.81A11.73,11.73,0,0,0,299.6,170,10.69,10.69,0,0,0,303.12,170.78Z" style="fill:#263238"></path><path d="M301.88,186.63c-.47-4.24,1.43-7.95,4.23-8.26s5.48,2.88,5.95,7.13-1.43,7.94-4.23,8.26S302.35,190.87,301.88,186.63Zm1-.11c.41,3.67,2.56,6.45,4.8,6.2s3.73-3.44,3.32-7.11-2.56-6.46-4.8-6.21S302.5,182.84,302.91,186.52Z" style="fill:#455a64"></path><path d="M282.54,188.78a7.25,7.25,0,1,1,8,6.9A7.51,7.51,0,0,1,282.54,188.78Zm1-.11a6.21,6.21,0,1,0,5.41-7.35A6.47,6.47,0,0,0,283.57,188.67Z" style="fill:#455a64"></path><path d="M296.49,186.53c3.7-1.78,5.58-.71,5.59-.7l.55-.89c-.09-.05-2.33-1.4-6.59.66Z" style="fill:#455a64"></path><path d="M283,188.06l.07-1c-.68-.05-16.7-1.2-18.42-1.1s-5.74,2.91-6.19,3.24l.61.84c1.11-.81,4.24-2.89,5.56-3h.08C266,186.88,277.24,187.64,283,188.06Z" style="fill:#455a64"></path><path d="M271.91,189.51s-6.1-8.7-10.05-6.52.64,14.79,5.29,16.51a4.71,4.71,0,0,0,6.31-2.54Z" style="fill:#f7a9a0"></path><path d="M263.27,186.57a.06.06,0,0,0,0,.12c3.26,1.32,5,4.33,6.17,7.46-1-1.21-2.28-1.86-3.89-.71-.09.06,0,.19.09.17a2.92,2.92,0,0,1,3.19,1,13.7,13.7,0,0,1,1.53,2.58c.16.29.68.14.57-.2l0-.07C271,192.78,267.72,187,263.27,186.57Z" style="fill:#263238"></path><path d="M293.35,222.48l-5.12,16.12-20.91-18.35-5,6.76s21.35,30,21.37,28.6l5.44-14,10,8.69-2.51-23.5Z" style="fill:#ebebeb"></path><path d="M298.52,238.66c-.55-3.87-1-7.78-1.71-11.62,0-.13-.24-.18-.26,0-.5,3.81,1.65,18.58,1.9,22.14,0,0,0,0,0,0-.42-.37-9.24-7.61-9.32-7.48-1.23,2.24-5.24,12.42-5.49,13.33-3.38-4.77-16.26-22.07-20.17-26.53a.13.13,0,0,0-.22.15c3.05,5.08,20.12,28.4,20.35,28.32a155.06,155.06,0,0,0,5.68-14.76c1.52,1.6,10.49,9.84,10.48,9.26A124,124,0,0,0,298.52,238.66Z" style="fill:#263238"></path><path d="M459.74,340.05v-2.86c0-.15,0-.29,0-.45l0-64.07h-6.59a7.17,7.17,0,0,0-1-.08l-44.14,0v10.86H390l0,50.71h18v5.9H404v8.51l60.51,0v-8.51ZM408,326.53H396.88l0-35.43H408Z" style="fill:#ebebeb;opacity:0.7000000000000001"></path><rect x="413.46" y="277.68" width="40.78" height="61.62" style="fill:#FFA52E"></rect><polygon points="430.22 339.3 413.48 339.31 413.45 277.7 416.8 277.7 430.22 339.3" style="opacity:0.1"></polygon><g style="opacity:0.1"><path d="M449.42,329.4a2.79,2.79,0,1,0,0,4A2.81,2.81,0,0,0,449.42,329.4Z"></path><path d="M450.24,319.72a2,2,0,1,0,0,2.8A2,2,0,0,0,450.24,319.72Z"></path><path d="M440.28,330.51a1.4,1.4,0,1,0,0,2A1.4,1.4,0,0,0,440.28,330.51Z"></path></g><path d="M410.37,282.19l47.46,0a7.35,7.35,0,0,0,7.34-7.36h0a7.35,7.35,0,0,0-7.35-7.35l-47.45,0a7.35,7.35,0,0,0-7.35,7.35h0A7.35,7.35,0,0,0,410.37,282.19Z" style="fill:#ebebeb"></path><path d="M425.42,306.74h0a6.66,6.66,0,0,1-6.67-6.67V281.69A6.66,6.66,0,0,1,425.4,275h0a6.67,6.67,0,0,1,6.67,6.67v18.38A6.67,6.67,0,0,1,425.42,306.74Z" style="fill:#ebebeb"></path><path d="M434.87,279.52v10.4a1.37,1.37,0,0,0-1.4-1.4,1.39,1.39,0,0,0-1.41,1.4v-10.4a1.41,1.41,0,1,1,2.81,0Z" style="fill:#ebebeb"></path><path d="M439.12,299.72h0a4.23,4.23,0,0,1-4.24-4.23V277.68a4.24,4.24,0,0,1,4.24-4.24h0a4.23,4.23,0,0,1,4.23,4.24v17.81A4.23,4.23,0,0,1,439.12,299.72Z" style="fill:#ebebeb"></path><path d="M412.26,265.21a10,10,0,1,0,7.47-7.48A10.05,10.05,0,0,0,412.26,265.21Z" style="fill:#ebebeb"></path><path d="M428,264.52a13.82,13.82,0,1,0,10.84-10.86A13.83,13.83,0,0,0,428,264.52Z" style="fill:#ebebeb"></path><path d="M423.93,264.52a3,3,0,1,1-3-3A3,3,0,0,1,423.93,264.52Z" style="fill:#fff"></path><path d="M440.84,260a3,3,0,1,1-3-3A3,3,0,0,1,440.84,260Z" style="fill:#fff"></path><path d="M417.58,270.31a1.83,1.83,0,1,1-1.83-1.82A1.83,1.83,0,0,1,417.58,270.31Z" style="fill:#fff"></path><path d="M424.68,301.55a1.83,1.83,0,1,1-1.83-1.82A1.83,1.83,0,0,1,424.68,301.55Z" style="fill:#fff"></path><path d="M258.18,255.64c-5.33,41.59,4.48,96.74,14.1,100,14.16,4.86,67.16-5.48,84.06-11.44,5.1-1.81-7.72-46.21-12.74-43.31-6.06,3.51-50.34,9.07-51,9.22-1.47.33-11.06-30.75-18.22-51.79C266.16,234.28,260.36,238.7,258.18,255.64Z" style="fill:#f7a9a0"></path><path d="M394.67,286.75c3,3.57.38,7.62.38,7.62a9.88,9.88,0,0,1,5.29,4.16c2,3.57-2.72,8.25-2.72,8.25a12.21,12.21,0,0,1,4.89,5.28c1.56,3.6-2.52,9-2.52,9a10.7,10.7,0,0,1,1.37,7.35c-1.45,6.72-11.33,10.29-17.59,12.62s-28.16,3-31.94,3.57l-13.34-40s25.1-18.44,32.85-20.13C377.86,283,391.34,282.75,394.67,286.75Z" style="fill:#f7a9a0"></path><path d="M394.53,293.83c-7.31-.15-14.26,1.87-21.31,3.49a.13.13,0,0,0,.06.25c7-1.7,14.23-2,21.28-3.39A.18.18,0,0,0,394.53,293.83Z" style="fill:#263238"></path><path d="M397.3,306.31a18.62,18.62,0,0,0-4.88,1q-2.55.72-5.07,1.53c-3.36,1.07-6.71,2.22-10,3.47-.15.06-.1.3.06.25q5-1.6,10.13-3c1.7-.46,3.4-.9,5.11-1.34a23.07,23.07,0,0,0,4.77-1.45A.25.25,0,0,0,397.3,306.31Z" style="fill:#263238"></path><path d="M399.85,321.11a13.31,13.31,0,0,0-4.34,1.16l-4.58,1.54c-3.06,1-6.11,2-9.21,2.91-.15,0-.09.29.06.25,3.15-.9,6.31-1.76,9.44-2.69,1.54-.45,3.08-.92,4.62-1.39a12.55,12.55,0,0,0,4.07-1.63A.09.09,0,0,0,399.85,321.11Z" style="fill:#263238"></path><path d="M337,301.21l13.22,47.86s-70.85,15.24-80.25,6.41-18-67.58-12.66-98.3,14-10.64,17.05,1.18,18.14,49.9,19.12,50.2S337,301.21,337,301.21Z" style="fill:#FFA52E"></path><path d="M261.31,303.15a14.55,14.55,0,0,0-3.83-.9,12.76,12.76,0,0,0,3.47,1.84,14.2,14.2,0,0,0,3.86.89A13.78,13.78,0,0,0,261.31,303.15ZM280,348.08a13.9,13.9,0,0,0-3.86-.88,13.45,13.45,0,0,0,3.49,1.84,14.28,14.28,0,0,0,3.86.89A14.14,14.14,0,0,0,280,348.08Zm25.52-32a13.19,13.19,0,0,0-3.84-.87A15.49,15.49,0,0,0,309,318,13.47,13.47,0,0,0,305.51,316.1ZM345,330.35a10.26,10.26,0,0,0-2.16-.35,11.8,11.8,0,0,0,2.45,1.4ZM308.76,350.7a14.25,14.25,0,0,0-.89,3.84,12.78,12.78,0,0,0,1.84-3.5,13.89,13.89,0,0,0,.89-3.84A14.32,14.32,0,0,0,308.76,350.7ZM262,332.51c-.16.47-.32.94-.46,1.42a11.14,11.14,0,0,0-.41,2.41,10.67,10.67,0,0,0,.72-1.08,17,17,0,0,0,1.12-2.41,13.87,13.87,0,0,0,.87-3.84A14.67,14.67,0,0,0,262,332.51Zm69-13.79a13.52,13.52,0,0,0-.87,3.84,15.16,15.16,0,0,0,2.71-7.33A14.08,14.08,0,0,0,331.05,318.72Zm-51.83-30.84a13.89,13.89,0,0,0-.87,3.86,14.42,14.42,0,0,0,1.84-3.49,13.84,13.84,0,0,0,.87-3.84A14.3,14.3,0,0,0,279.22,287.88Zm13.17,44.26a14.06,14.06,0,0,0-3.34,2.09,13.39,13.39,0,0,0,3.76-1.16,13.69,13.69,0,0,0,3.35-2.09A14.12,14.12,0,0,0,292.39,332.14Zm46,13A14.32,14.32,0,0,0,335,347.2a15.17,15.17,0,0,0,7.11-3.25A14.16,14.16,0,0,0,338.38,345.11Zm-82.7-64.49c0,.24,0,.48,0,.73a10.14,10.14,0,0,0,1.37-1A10.08,10.08,0,0,0,255.68,280.62ZM317,334.69a14.62,14.62,0,0,0-2.09-3.33,13.77,13.77,0,0,0,1.16,3.77,13.94,13.94,0,0,0,2.09,3.34A13.73,13.73,0,0,0,317,334.69ZM321.28,304l-.8.14a11.23,11.23,0,0,0,1.21,1.67A10.59,10.59,0,0,0,321.28,304Zm-41.6,9.79a14.75,14.75,0,0,0-2.09-3.33,13.7,13.7,0,0,0,1.16,3.76,13.5,13.5,0,0,0,2.09,3.35A13.73,13.73,0,0,0,279.68,313.79ZM266.14,265a13.69,13.69,0,0,0-2.09-3.35,13.37,13.37,0,0,0,1.17,3.77,14.32,14.32,0,0,0,2.09,3.35A13.45,13.45,0,0,0,266.14,265Z" style="fill:#fff"></path><path d="M337.14,300.75s-14.48,2-21.21,3.26-13.46,2.32-20.1,3.87a50.47,50.47,0,0,0-10.45,3.61c-.16.08,0,.31.12.25a89.48,89.48,0,0,1,9.82-2.66c3.2-.73,6.43-1.31,9.65-1.91,6.72-1.24,13.44-2.46,20.14-3.78,3.7-.74,8.09-1.13,11.77-2.07h0c0,.08.41,1.33.44,1.41a.52.52,0,0,0,.14.19.09.09,0,0,0,.16,0A9.77,9.77,0,0,0,337.14,300.75Z" style="fill:#263238"></path><path d="M281.56,273.64c0-.08-.14-.05-.13,0,.42,2.38.95,4.74,1.5,7.1-.36-.93-.71-1.86-1.07-2.78-1.18-3-2.41-6-3.54-9,0-.07-.14,0-.11,0,1.69,5.35,3.28,10.74,5.21,16s3.9,10.5,6.06,15.67c.59,1.42,1.22,2.81,1.84,4.22.33.74.66,1.47,1,2.22s.72,1.43,1.07,2.16c.05.09.2,0,.17-.06-.22-.65-.37-1.31-.61-2s-.52-1.36-.76-2c-.47-1.29-.91-2.59-1.39-3.87-1-2.62-2-5.23-3-7.84-1.49-3.89-3-7.78-4.45-11.66C282.82,279.13,282.27,276.37,281.56,273.64Z" style="fill:#263238"></path><path d="M328,307.62c.26,1.36.42,2.73.72,4.09s.57,2.62.89,3.93c.64,2.66,1.3,5.31,2,8,1.33,5.3,2.68,10.6,4.19,15.86.43,1.49.87,3,1.29,4.48a30,30,0,0,0,1.36,4.25c0,.09.17,0,.17-.06a28.47,28.47,0,0,0-.77-4.08l-.87-3.93c-.6-2.67-1.23-5.32-1.88-8-1.29-5.23-2.61-10.45-4-15.66-.4-1.5-.82-3-1.25-4.48s-1-3-1.47-4.45C328.29,307.35,328,307.39,328,307.62Z" style="fill:#263238"></path><path d="M268.44,353.61a15.06,15.06,0,0,1-2.51-3.92c-.66-1.41-1.31-2.83-1.88-4.27s-1.07-2.92-1.6-4.38-.94-3-1.41-4.44a176.43,176.43,0,0,1-4.26-18.12c-.29-1.53-.54-3.06-.78-4.59s-.51-3.06-.7-4.6c-.38-3.07-.82-6.14-1.07-9.24s-.51-6.17-.7-9.26c-.09-1.55-.11-3.1-.16-4.65s-.08-3.09-.09-4.64c.84,6.14,1.6,12.26,2.5,18.37s1.84,12.19,3,18.25,2.35,12.09,3.8,18.07c.77,3,1.52,6,2.43,8.9.43,1.49.92,2.94,1.44,4.39.3.7.55,1.44.89,2.12l.5,1C268,353,268.22,353.28,268.44,353.61Z" style="fill:#263238"></path><path d="M252,285.28a23.17,23.17,0,0,1,1.18,2.83c.16.49.33,1,.46,1.46a14.81,14.81,0,0,1,.39,1.49,12.86,12.86,0,0,1-1.32-2.78A13.38,13.38,0,0,1,252,285.28Z" style="fill:#263238"></path></g><g id="freepik--character-4--inject-340"><path d="M613.38,232.32c-13.72,20.49-30.28,45.58-44.72,70.23-6.31,10.77-21.3,33-25.08,38.79-5,7.62,36.81,24.19,39.65,18.63,1.85-3.63,10.54-25.16,17.44-43.52,8.88-23.6,22.61-54.39,24.63-77.15C627.11,219,618.69,224.39,613.38,232.32Z" style="fill:#eb9481"></path><path d="M566.2,374.3c2.07-1.68,3-.61,1.92,4s-9.08,22-2.77,24.32,17.3-22.43,18.45-30.26.25-20.89.25-20.89C580.94,355.86,572.4,365.77,566.2,374.3Z" style="fill:#eb9481"></path><path d="M550,331.87c-8.77,12.73-19.94,28.36-20.75,45.42a8.43,8.43,0,0,0,1.43,5.35c-.5,7.64,3,10.17,3,10.17,1.71,7.26,5.6,9.37,5.6,9.37s-.49,9,4.89,10.17c6,1.36,5.53-11.52,9.59-18.76C563,377,580.89,356,584.05,351.48Z" style="fill:#eb9481"></path><path d="M551.25,369.35c-2.64,4.94-5.36,9.72-7.32,15-2.14,5.78-3.24,11.71-4.5,17.71a.15.15,0,0,1-.3,0c.57-11.23,5.31-23.7,11.9-32.79C551.19,369,551.38,369.1,551.25,369.35Z" style="fill:#263238"></path><path d="M542.05,362.28c-2.3,5-6.29,13.67-8.22,30.56,0,.05-.11.06-.11,0a58.07,58.07,0,0,1,8.09-30.67C542,361.87,542.2,362,542.05,362.28Z" style="fill:#263238"></path><path d="M537,358.57c-3.59,8.57-4.77,14.42-6.3,24,0,.06-.1.06-.1,0,.58-11.12,2-15.09,6.12-24.2C536.89,358.09,537.17,358.24,537,358.57Z" style="fill:#263238"></path><path d="M614.85,295.52l-37.17-27.83s17.56-22.85,33.11-38.05,29.32-14.73,19.84,19.07S614.85,295.52,614.85,295.52Z" style="fill:#FFA52E"></path><path d="M617.33,286.82c-15-9.73-29.14-22.19-31.77-24.19-.13-.09.05-.28.17-.17,2.47,2.09,20.29,14.59,31.79,24.16C617.65,286.73,617.47,286.91,617.33,286.82Z" style="fill:#263238"></path><path d="M630.63,248.71c-9.48,33.79-15.77,46.82-15.77,46.82l-30.63-22.94,39.23-51.82C632.42,217.59,637.34,224.82,630.63,248.71Z" style="opacity:0.1"></path><path d="M652.16,339.63s-1.37,15.38-3.38,37.63c-.06.64-.11,1.29-.18,1.95-2.12,23.47-4.91,54.07-7.57,82.27H569.56c7-54.7,15.05-117.66,15.56-121.65l0-.2Z" style="fill:#37474f"></path><path d="M642.37,348.44q-.68,8.06-1.36,16.11c-.14,1.57-.27,3.15-.41,4.72-2.68,30.79-5.7,61.55-9.6,92.21h-1.14q2.53-19.69,4.66-39.43c2-18,3.79-36.08,5.61-54.13.18-1.73.35-3.46.53-5.19q.72-7.14,1.45-14.29C642.13,348.27,642.39,348.27,642.37,348.44Z" style="fill:#263238"></path><path d="M668.48,339.63l-7.66,43.3c-.07.41-.15.83-.22,1.25-4,22.72-9,51.05-13.71,77.3H613.31l-8.07-53.2-.22-1.44-.06-.38-.81-5.36-.31-2-9-59.45Z" style="fill:#263238"></path><path d="M691.67,461.48H624.53c-1.74-23.37-3.26-43.3-3.5-46.54,0-.3,0-.46,0-.46l-1.11-.61c-3.89-2.11-7.3-3.76-10.11-5l-1.38-.6c-1.28-.56-2.41-1-3.37-1.41-2.44-1-3.79-1.38-3.79-1.38l-.24-.61c-9.57-24.38-15.35-61.56-15.87-65,0-.17,0-.26,0-.26h94.45S686.23,404.63,691.67,461.48Z" style="fill:#37474f"></path><path d="M681.9,461.48h-1q-1.62-18.45-3.1-36.92c-2-24.87-3.82-49.76-5.73-74.64,0-.36.52-.35.55,0C675.57,387.11,678.6,424.31,681.9,461.48Z" style="fill:#263238"></path><path d="M597.86,403.7A146.4,146.4,0,0,1,621,414.48a.26.26,0,0,1-.21.47c-7.8-3.34-15.74-6.55-23.34-10.32A.51.51,0,0,1,597.86,403.7Z" style="fill:#263238"></path><path d="M595.38,350.24c0-.27.5-.33.5,0a257.57,257.57,0,0,0,1.3,26c.37,4,3.59,26.2,10.55,24.58,1.17-.27,1.76-1.42,1.95-3.17.22-2.12-.58-4.71-.93-6.81-.77-4.64-1.39-9.3-1.79-14a127.85,127.85,0,0,1,.28-26.24.23.23,0,0,1,.45,0c0,12.12.31,24.22,2.12,36.22.87,5.77,3.78,14.46-2.26,15.34s-10.12-13.64-10.87-17.62C594.59,373.46,594.51,361.47,595.38,350.24Z" style="fill:#263238"></path><path d="M607.55,401.41a37.58,37.58,0,0,1,1.56,4.59,10.31,10.31,0,0,1,.65,3.78c0,.25-.35.27-.48.11a13.32,13.32,0,0,1-1.61-3.68c-.53-1.42-1.09-2.83-1.58-4.27A.78.78,0,0,1,607.55,401.41Z" style="fill:#263238"></path><path d="M639,357.5a12.52,12.52,0,0,1,.3-2.88.15.15,0,0,1,.28,0,11.47,11.47,0,0,1,.32,2.49c.1.95.23,1.91.33,2.86a42.15,42.15,0,0,0,1,5.8,20.63,20.63,0,0,0,5.31,9.54,27.57,27.57,0,0,0,9,5.92c3.74,1.59,7.67,2.18,11.53,3.31a.15.15,0,0,1,0,.29,33.29,33.29,0,0,1-12.49-2.46,26.8,26.8,0,0,1-9.38-6,20.91,20.91,0,0,1-5.46-9.82,29.27,29.27,0,0,1-.75-5.82A27.09,27.09,0,0,1,639,357.5Z" style="fill:#263238"></path><path d="M688.59,370.41c-.27.29-115.19-3.33-116.2-4.55-1.4-1.71,23.19-115.85,42.72-140,4.89-6,21.33-7.67,27.79-1,18.72,19.43,22.1,33.32,26.58,46.25,3.31,9.58,7.09,25.82,10.39,42.45C685.34,341,689.58,369.37,688.59,370.41Z" style="fill:#FFA52E"></path><polygon points="619.37 260.77 636.03 261.88 635.09 277.8 626.22 281.84 618.3 276.92 619.37 260.77" style="opacity:0.1"></polygon><path d="M465.66,337.49V346l60.51,0v-8.52h-3.94v-5.9h18l0-50.7h-18V270.06l-44.14,0a7.17,7.17,0,0,0-1,.08h-6.59l0,64.08c0,.15,0,.3,0,.45v2.86Zm56.58-48.94h11.1l0,35.43H522.23Z" style="fill:#ebebeb;opacity:0.7000000000000001"></path><rect x="475.96" y="275.13" width="40.78" height="61.62" transform="translate(992.53 612.13) rotate(-179.97)" style="fill:#FFA52E"></rect><polygon points="499.98 336.75 516.72 336.75 516.75 275.15 513.4 275.14 499.98 336.75" style="opacity:0.1"></polygon><g style="opacity:0.1"><path d="M480.78,326.84a2.8,2.8,0,1,1,0,4A2.8,2.8,0,0,1,480.78,326.84Z"></path><path d="M480,317.17a2,2,0,1,1,0,2.8A2,2,0,0,1,480,317.17Z"></path><path d="M489.92,328a1.4,1.4,0,0,1,2,2,1.4,1.4,0,1,1-2-2Z"></path></g><path d="M519.83,279.64l-47.46,0a7.33,7.33,0,0,1-7.34-7.35h0a7.35,7.35,0,0,1,7.35-7.35l47.46,0a7.35,7.35,0,0,1,7.34,7.36h0A7.35,7.35,0,0,1,519.83,279.64Z" style="fill:#ebebeb"></path><path d="M504.78,304.18h0a6.67,6.67,0,0,0,6.68-6.66V279.14a6.67,6.67,0,0,0-6.67-6.67h0a6.67,6.67,0,0,0-6.67,6.66v18.38A6.66,6.66,0,0,0,504.78,304.18Z" style="fill:#ebebeb"></path><path d="M495.34,277v10.41a1.41,1.41,0,0,1,2.81,0V277a1.4,1.4,0,0,0-1.4-1.4A1.39,1.39,0,0,0,495.34,277Z" style="fill:#ebebeb"></path><path d="M491.08,297.17h0a4.23,4.23,0,0,0,4.24-4.23V275.13a4.24,4.24,0,0,0-4.24-4.24h0a4.23,4.23,0,0,0-4.23,4.23v17.81A4.23,4.23,0,0,0,491.08,297.17Z" style="fill:#ebebeb"></path><path d="M517.94,262.66a10,10,0,0,1-12.07,12,9.94,9.94,0,0,1-7.47-7.47,10.05,10.05,0,0,1,12.07-12.06A9.94,9.94,0,0,1,517.94,262.66Z" style="fill:#ebebeb"></path><path d="M502.24,262a13.82,13.82,0,1,1-10.84-10.85A13.82,13.82,0,0,1,502.24,262Z" style="fill:#ebebeb"></path><path d="M506.27,262a3,3,0,1,0,3-3A3,3,0,0,0,506.27,262Z" style="fill:#fff"></path><path d="M489.36,257.42a3,3,0,1,0,3-3A3,3,0,0,0,489.36,257.42Z" style="fill:#fff"></path><path d="M512.62,267.76a1.83,1.83,0,1,0,1.83-1.82A1.83,1.83,0,0,0,512.62,267.76Z" style="fill:#fff"></path><path d="M505.52,299a1.83,1.83,0,1,0,1.83-1.82A1.83,1.83,0,0,0,505.52,299Z" style="fill:#fff"></path><path d="M654.24,252.77c.32,20.21,1.54,82.23-11.19,91.36-9.2,6.61-65.25.07-80-3.49-14.23-3.44-1.42-44.77,7.08-43.33,12,2,44.24,8.64,48.32,6.93,2.87-1.2,2.59-26.76,19.33-56C649.21,228.22,654,238.4,654.24,252.77Z" style="fill:#eb9481"></path><path d="M526.78,291.52c-2.35,4,.82,7.49.82,7.49a9.85,9.85,0,0,0-4.53,4.89c-1.39,3.79,3.94,7.63,3.94,7.63a12.08,12.08,0,0,0-4,5.92c-1,3.76,3.85,8.4,3.85,8.4a10.6,10.6,0,0,0-.19,7.39c2.46,6.34,12.66,8.29,19.13,9.59s26.06-1.07,29.83-1.14l8.67-41.21s-17.7-13.81-35.14-14.81C542.62,285.29,529.42,287.09,526.78,291.52Z" style="fill:#eb9481"></path><path d="M528,298.41c7.11-1.28,14.21-.39,21.35.1a.13.13,0,0,1,0,.25c-7.09-.57-14.21.28-21.31,0A.17.17,0,0,1,528,298.41Z" style="fill:#263238"></path><path d="M527.26,311a18.84,18.84,0,0,1,4.91.24c1.74.21,3.46.44,5.19.71q5.17.78,10.32,1.83c.15,0,.14.28,0,.25-3.45-.52-6.9-1-10.36-1.36-1.73-.18-3.47-.36-5.2-.52a22.85,22.85,0,0,1-4.88-.67A.25.25,0,0,1,527.26,311Z" style="fill:#263238"></path><path d="M527.06,325.87a13,13,0,0,1,4.42.46l4.7.79c3.15.51,6.29,1,9.45,1.42a.12.12,0,1,1,0,.24c-3.21-.39-6.43-.73-9.64-1.15-1.57-.21-3.14-.42-4.72-.65a12.35,12.35,0,0,1-4.22-1A.09.09,0,0,1,527.06,325.87Z" style="fill:#263238"></path><path d="M573.88,293.76a26.49,26.49,0,0,1,5.12,2.31,25,25,0,0,1,4.54,3.33l-.18-.09c1.21.3,2.41.63,3.59,1.05a32.9,32.9,0,0,1-3.73-.28h-.08L583,300c-1.47-1.09-3-2.1-4.54-3.11S575.41,294.86,573.88,293.76Z" style="fill:#263238"></path><path d="M576.47,343.22c-1-.11-2.06-.25-3.09-.39s-2.06-.28-3.09-.44h.09c-2.26.29-4.52.52-6.79.72s-4.53.35-6.81.45a55.89,55.89,0,0,1-6.85,0,47.18,47.18,0,0,1-6.72-1.29c2.25.26,4.53.5,6.76.63s4.5-.19,6.76-.32l6.79-.45c2.27-.14,4.53-.27,6.8-.38h.09c1,.23,2,.44,3,.7S575.47,343,576.47,343.22Z" style="fill:#263238"></path><path d="M660.73,307.83,616,295.43s8-27.67,17-47.49,21.95-24.38,25.41,10.55S660.73,307.83,660.73,307.83Z" style="fill:#FFA52E"></path><path d="M659.16,298.12c-17.51-3.49-35.28-9.82-38.46-10.7-.15,0-.06-.28.09-.23,3.08,1,24.26,6,38.48,10.68C659.43,297.92,659.33,298.15,659.16,298.12Z" style="fill:#263238"></path><path d="M615.33,295.64c1.48-5.59,3.4-11.55,5.31-17,.67-1.91,1.4-3.79,2.13-5.68.36-2.2,1-4.36,1.51-6.52.05-.19.32-.1.28.08-.26,1.22-.48,2.46-.75,3.69,1-2.58,2.11-5.13,3.23-7.68,0-.08.17,0,.14.05-1.95,5.42-3.78,10.88-5.59,16.34s-3.82,10.91-5.47,16.42c0,0,5.31,1.51,5.26,1.6S615.31,295.69,615.33,295.64Z" style="fill:#263238"></path><path d="M661.36,308.13c.16-6.16,0-12.81-.31-19-.11-2.15-.29-4.29-.47-6.43.29-2.36.32-4.75.42-7.12,0-.2-.3-.2-.31,0-.11,1.33-.25,2.66-.35,4q-.42-4.41-1-8.8c0-.1-.16-.1-.15,0,.36,6.12.59,12.24.8,18.37s.61,12.28.65,18.4c0,0-6.45-1.64-6.42-1.53S661.36,308.18,661.36,308.13Z" style="fill:#263238"></path><path d="M620.69,240.31c4.76.94,16.07-6.53,21.09-13.49.34-.48.23-6,.41-12.67.12-4.06.35-8.58.86-12.69l-26.53,3.06s1.46,8.92.53,16.08a10.09,10.09,0,0,1-.39,1.66c0,.08,0,.17-.07.28C615.67,225.67,613.23,238.85,620.69,240.31Z" style="fill:#eb9481"></path><path d="M616.66,222.26a2.55,2.55,0,0,0-.08.28,17.35,17.35,0,0,0,2.64.47c14.69,1.48,20.49-15.92,21.91-21.33l-24.62,2.83s1.46,8.93.54,16.09A9.37,9.37,0,0,1,616.66,222.26Z" style="fill:#263238"></path><path d="M647.84,166.71c2.78,9.21-2.15,35.78-8.71,41.7-9.51,8.57-25,9.35-32.32-2.08-7-11.07,0-45.59,7.31-51C624.91,147.46,643.72,153.11,647.84,166.71Z" style="fill:#eb9481"></path><path d="M623.37,181.47c0-.06.12.12.11.19-.4,1.77-.57,3.88.94,4.78,0,0,0,.12,0,.1C622.46,185.88,622.71,183.09,623.37,181.47Z" style="fill:#263238"></path><path d="M625.33,179.92c2.91.33,2,6.14-.68,5.83S622.88,179.63,625.33,179.92Z" style="fill:#263238"></path><path d="M612.79,179.48c0-.07-.16.06-.17.13-.22,1.81-.77,3.85-2.49,4.19,0,0-.06.11,0,.11C612.16,183.93,612.87,181.22,612.79,179.48Z" style="fill:#263238"></path><path d="M611.47,177.35c-2.86-.66-4,5.11-1.33,5.72S613.86,177.91,611.47,177.35Z" style="fill:#263238"></path><path d="M628,177.61a21.78,21.78,0,0,1-2.13-1.14A3.84,3.84,0,0,1,624,174.9a1.25,1.25,0,0,1,.42-1.46,3.09,3.09,0,0,1,3.12.16,4.51,4.51,0,0,1,2.28,2.33A1.32,1.32,0,0,1,628,177.61Z" style="fill:#263238"></path><path d="M609.79,174.78a21.21,21.21,0,0,0,2.4-.25,3.88,3.88,0,0,0,2.4-.71,1.24,1.24,0,0,0,.16-1.51,3.06,3.06,0,0,0-2.94-1,4.54,4.54,0,0,0-3,1.29A1.33,1.33,0,0,0,609.79,174.78Z" style="fill:#263238"></path><path d="M622.48,198.43c-.5.35-1,.87-1.68.82a4.75,4.75,0,0,1-1.86-.74.07.07,0,0,0-.1.08,2.46,2.46,0,0,0,2.14,1.32,1.94,1.94,0,0,0,1.66-1.37C622.68,198.44,622.55,198.38,622.48,198.43Z" style="fill:#263238"></path><path d="M621.41,192.75a6.18,6.18,0,0,1-4.51,2.1,7.63,7.63,0,0,1-2.22-.23,2.77,2.77,0,0,1-.41-.12,3.3,3.3,0,0,1-.38-.12.44.44,0,0,1-.3-.46h0a1.16,1.16,0,0,1,0-.18h0l0-.16c.18-1.39.64-3.48.64-3.48-.55.18-3.31.94-3.16.23,1.28-5.94,2.7-12.54,5.22-18.18a.17.17,0,0,1,.32.09c-1,5.76-3,11.3-4.1,17.06a10.9,10.9,0,0,1,3-.43c.18.08-1,4-1,4.64v.07c2.29.66,4.15.22,6.65-1C621.42,192.48,621.54,192.63,621.41,192.75Z" style="fill:#263238"></path><path d="M615.61,194a7.36,7.36,0,0,0,2.56,2.7,3.3,3.3,0,0,0,2,.43c1.5-.16,1.73-1.47,1.64-2.64a7.88,7.88,0,0,0-.38-1.83A9.45,9.45,0,0,1,615.61,194Z" style="fill:#263238"></path><path d="M618.17,196.74a3.3,3.3,0,0,0,2,.43c1.5-.16,1.73-1.47,1.64-2.64C620.22,194.45,618.53,195.26,618.17,196.74Z" style="fill:#ff9abb"></path><path d="M645.49,187c-4.6-.47-3.68-11.73-3.68-11.73s-7-1.56-10-11.36c0,0-9.3,5.3-16.83,3.6-11.82-2.67-10.84-18.12-6.26-21.08,6.5-4.2,17.48,2.78,17.48,2.78s17.22-4,21.8,7.7c0,0,7.58.65,7.75,9.06S648.92,187.32,645.49,187Z" style="fill:#263238"></path><path d="M643.41,176.64a15.69,15.69,0,0,1-8.69-5.24c-2.25-2.81-3.44-7-2.27-10.53.06-.19-.25-.28-.31-.08-1,3.9-.95,8,1.42,11.38a11,11,0,0,0,9.81,4.81C643.55,177,643.61,176.69,643.41,176.64Z" style="fill:#263238"></path><path d="M656.54,161.05c-2.21-3.07-5.77-3.68-9.32-3.71-.2,0-.19.33,0,.31,3.5-.25,6.9,2.23,8.6,5.15s1.11,6.37.26,9.43a24.77,24.77,0,0,1-10.5,14.31c-.08.05,0,.19.08.14A24.81,24.81,0,0,0,657.44,171C658.18,167.8,658.59,163.89,656.54,161.05Z" style="fill:#263238"></path><path d="M626.62,149.76a11.62,11.62,0,0,0-6.32-5.29,14,14,0,0,0-9.93.59,7.85,7.85,0,0,0-4.4,6.51c-.35,3.22,1,6.32,2.75,8.92a.07.07,0,0,0,.12-.07,13.85,13.85,0,0,1-2.1-8.09,7.24,7.24,0,0,1,4.52-6.21c5-2,12.11-1.31,15.1,3.8C626.46,150.09,626.72,149.93,626.62,149.76Z" style="fill:#263238"></path><path d="M642.1,188.36s6.2-8.46,10.06-6.22-.95,14.58-5.57,16.19a4.65,4.65,0,0,1-6.18-2.65Z" style="fill:#eb9481"></path><path d="M650.69,185.64a.07.07,0,0,1,0,.13c-3.24,1.22-5,4.16-6.25,7.22,1-1.16,2.3-1.79,3.86-.61.09.06,0,.19-.09.17a2.85,2.85,0,0,0-3.17.93,13.55,13.55,0,0,0-1.57,2.51c-.16.28-.67.12-.55-.21a.19.19,0,0,1,0-.07C643,191.61,646.29,186,650.69,185.64Z" style="fill:#263238"></path></g></svg>