<svg xmlns="http://www.w3.org/2000/svg" viewBox="0 0 500 500"><g id="freepik--background-complete--inject-566"><polygon points="162.65 143.14 161.44 145.58 158.75 145.97 160.7 147.87 160.24 150.55 162.65 149.28 165.05 150.55 164.59 147.87 166.54 145.97 163.85 145.58 162.65 143.14" style="fill:#ebebeb"></polygon><polygon points="202.56 244.2 201.35 246.63 198.66 247.03 200.61 248.92 200.15 251.6 202.56 250.34 204.96 251.6 204.5 248.92 206.45 247.03 203.76 246.63 202.56 244.2" style="fill:#ebebeb"></polygon><polygon points="280.81 193.85 279.6 196.29 276.91 196.68 278.86 198.58 278.4 201.26 280.81 200 283.21 201.26 282.75 198.58 284.7 196.68 282.01 196.29 280.81 193.85" style="fill:#ebebeb"></polygon><polygon points="166.54 231.75 165.8 233.26 164.13 233.5 165.34 234.68 165.05 236.33 166.54 235.55 168.03 236.33 167.74 234.68 168.95 233.5 167.28 233.26 166.54 231.75" style="fill:#ebebeb"></polygon><polygon points="202.56 199.42 201.81 200.93 200.15 201.17 201.35 202.34 201.07 204 202.56 203.22 204.04 204 203.76 202.34 204.96 201.17 203.3 200.93 202.56 199.42" style="fill:#ebebeb"></polygon><polygon points="176.05 185 175.59 185.93 174.56 186.08 175.3 186.8 175.13 187.83 176.05 187.34 176.97 187.83 176.79 186.8 177.53 186.08 176.51 185.93 176.05 185" style="fill:#ebebeb"></polygon><polygon points="231.41 180.69 230.95 181.62 229.92 181.77 230.66 182.49 230.49 183.52 231.41 183.03 232.33 183.52 232.15 182.49 232.9 181.77 231.87 181.62 231.41 180.69" style="fill:#ebebeb"></polygon><polygon points="298.75 241.57 298.29 242.5 297.26 242.65 298 243.37 297.83 244.4 298.75 243.91 299.66 244.4 299.49 243.37 300.23 242.65 299.2 242.5 298.75 241.57" style="fill:#ebebeb"></polygon><polygon points="278.37 118.57 277.62 120.07 275.96 120.32 277.16 121.49 276.88 123.14 278.37 122.36 279.85 123.14 279.57 121.49 280.77 120.32 279.11 120.07 278.37 118.57" style="fill:#ebebeb"></polygon><polygon points="338.84 230.72 338.1 232.23 336.44 232.47 337.64 233.65 337.36 235.3 338.84 234.52 340.33 235.3 340.05 233.65 341.25 232.47 339.59 232.23 338.84 230.72" style="fill:#ebebeb"></polygon><path d="M309,162.25h57.07s-2.84-3.69-6-4.16c0,0-6.08-18.11-16.27-18.24-9.47-.12-13.26,11.14-13.26,11.14s-4.39-5.05-8.58-2.74-6.57,8.92-6.57,8.92S310.72,159.71,309,162.25Z" style="fill:#ebebeb"></path><path d="M206.09,189.55H133.92s0-4.61,10-5.52c0,0,9.07-20.15,22.93-17.44,8.63,1.68,13,13.53,13,13.53s6.52-9.32,11.74-7.52,8.31,11.74,8.31,11.74S205.27,186.94,206.09,189.55Z" style="fill:#ebebeb"></path><path d="M272.48,113.49H223.41s4.63-4.31,6.68-4.31,8.07-14.47,15.75-13.85,11.74,11.39,11.74,11.39S266.91,103.79,272.48,113.49Z" style="fill:#ebebeb"></path><path d="M317.23,221.52h-42s2.08-2.72,4.38-3.06c0,0,4.48-13.31,12-13.41,7-.09,9.75,8.19,9.75,8.19s3.23-3.71,6.31-2,4.83,6.55,4.83,6.55S316,219.65,317.23,221.52Z" style="fill:#ebebeb"></path><path d="M227.54,162A17.91,17.91,0,1,1,208,135.59,16.75,16.75,0,1,0,227.54,162Z" style="fill:#ebebeb"></path><path d="M443.28,333.23a27.31,27.31,0,0,1-.08,3.27c0-.73,0-1.45.06-2.18C443.27,334,443.27,333.6,443.28,333.23Z" style="fill:#ebebeb"></path><path d="M451.58,403.29c-.15.31.36.57.53.28a69.36,69.36,0,0,0,8.9-26.31,36.45,36.45,0,0,0,7.74-13.74h0c4.35-.62,9-1.76,11.41-5.75,2.29-3.71,2.65-9,3.06-13.19a.46.46,0,0,0,.07-.07.18.18,0,0,0-.23-.27,63.3,63.3,0,0,0-9.31,8.61c-2.42,2.83-3.32,6.08-4.68,9.42a67.86,67.86,0,0,0,2.39-18.61.23.23,0,0,0,.07-.24l-.06-.19V343s0,0,0,0c2.83-3.06,5.19-5.38,5.43-9.71.3-5.33-2.06-9.57-4.18-14.28a.23.23,0,0,0-.42,0c-1.74,3.7-3.92,7.63-4.22,11.78-.32,4.38,1.36,8.8,2.94,12.82a.25.25,0,0,0,.11.12c-1.16,11.68-3.77,22.48-10,32.46,2-17.42-2.25-35.27-9.47-51.83v0c10.24-3.85,7.48-13.75,6.14-22.37a3.35,3.35,0,0,0-.07-.45h0a0,0,0,0,0-.07,0s-5.41,7.12-6.48,11.09c-.87,3.24-.48,6.8-.23,10.2-1.45-3.21-3-6.38-4.63-9.48,0-.19,0-.38,0-.57.05,0,.09-.08.05-.12l0-.05c.13-3.78.25-7.56-1.33-11.11-1.82-4.09-5.28-7.45-8.51-10.48,0-.05-.22,0-.21,0-.46,4.28-1.33,9.56.53,13.63,1.71,3.75,5.88,5.84,8.89,8.37l.07,0c5.66,13.59,11.65,27.14,13.88,41.74A66.92,66.92,0,0,1,443,339.3c2.57-2.39,4.29-5.06,4.08-8.71a23.51,23.51,0,0,0-5.29-13.42h0a.14.14,0,0,0-.12-.06.23.23,0,0,0-.28.31,22.81,22.81,0,0,0-.71,18.67,104.47,104.47,0,0,1-6.78-11.25c2.05-7.48-4.71-11.42-9.23-16.32-.13-.14-.39,0-.29.19s.09.12.13.19c-.84,7.78,2.2,13.86,9.33,17.5l.15,0a56.71,56.71,0,0,0,11.84,18.1,16.54,16.54,0,0,0-5.71-2.66c-4.05-.95-7.55.76-11.34,2l-.1,0-.05,0a.32.32,0,0,0,0,.6l0,0c5.79,3.78,13.83,8.86,20,2.91l.41.25a71,71,0,0,0,10.58,8.06.38.38,0,0,0,.19.06c.18,1.28.34,2.57.46,3.87a78.34,78.34,0,0,1-3.77,31.48c-5-7-8.55-13.83-10.36-22.42,1.81-7-2.08-12.31-6.89-17.23h0a.18.18,0,0,0-.33.07c-.68,3.32-1.71,7.67-.49,11s4.39,5.43,7.26,7.07l.07,0A48.83,48.83,0,0,0,449,380.73a18.74,18.74,0,0,0-6.22-6.27c-3.26-1.9-6.5-1.8-10.17-1.52-.3,0,4.51,12.9,16.8,9.12l.41.49a39,39,0,0,0,6.39,9.65A94.16,94.16,0,0,1,451.58,403.29ZM449,381.63c-3.39.06-7,.33-10-1.53-2.77-1.73-3.91-4-5.93-6.59,3.69.2,6.65-.26,10.13,2.08C445.58,377.17,447.26,379.45,449,381.63Zm-3.38-12.88c-3-1.73-5.94-4.16-6.56-7.7-.53-3,.07-6,.2-9,1.66,2.17,3.31,4.38,4.77,6.69,2.1,3.31,2,6.19,1.74,9.78a.22.22,0,0,0-.15.26Zm-12.31-43.66a18.65,18.65,0,0,1-6.38-6.11c-1.84-3.06-1.56-6.25-2.1-9.6a36.13,36.13,0,0,0,4.78,5.05A11.5,11.5,0,0,1,433.32,325.09Zm9.6,13.15a1,1,0,0,0-.13.16,53.36,53.36,0,0,1-1.75-9.94c-.19-3.24.49-6.4.66-9.61a64.51,64.51,0,0,1,1.31,9.79c.08,1.44.22,3,.27,4.59,0-1.53,0-3.06,0-4.58a49.15,49.15,0,0,0-1.5-10.38.76.76,0,0,1,0-.15c1.08,3.72,3.27,7,3.55,11a15,15,0,0,1-2.27,9,14.15,14.15,0,0,0,.18-1.58A14,14,0,0,1,442.92,338.24Zm-1.32-19.89,0,.17a47.48,47.48,0,0,0-.76,10.23,56.8,56.8,0,0,0,1.83,9.75l-.09.09c-1.35-3.8-3.09-7.57-2.85-11.7C439.93,324,441,321.17,441.6,318.35Zm2.07,19a14.55,14.55,0,0,0,1.85-7.5c-.07-4.13-2.21-7.56-3.55-11.33a37.24,37.24,0,0,1,3.72,8.71C446.77,331.67,446,334.33,443.67,337.33Zm4.41,9.76c-2.94,1.56-5.8,2.59-9.26,2s-6.29-2.86-9.14-4.74c3.43-.8,6.57-2.38,10.21-1.54C443,343.5,445.43,345.43,448.08,347.09Zm-2.68-37.73a49.7,49.7,0,0,0-8.34-17.61c2.64,2.89,5.15,5.71,6.8,9.38C445.09,303.86,445.13,306.61,445.4,309.36Zm.1,2.16A139.67,139.67,0,0,0,437,292a56.27,56.27,0,0,1,8.57,18.8c0,.33.1.66.16,1Zm-6.58-9.06c-1.37-3.45-1.61-7.3-2.26-10.95a181.77,181.77,0,0,1,8.76,19.92C443,308.65,440.29,305.9,438.92,302.46Zm6.49,9.24c-2.75-2.23-6.1-4.27-7.55-7.6-1.53-3.51-1.34-9-1.35-12.81.5,3.81.86,8,2.35,11.55C440.27,306.19,443,309,445.41,311.7Zm7.16,4.12h0c.61-4.83,3.23-8.69,4.94-13.09a38,38,0,0,1-1.44,10.41c-1,3.58-2.84,6.82-4.34,10.2.13-2.17.32-4.32.66-6.47,0,0,0,0,0,0a38.9,38.9,0,0,0-.8,6.09c-.1-3.66-.17-7.85.92-11.21,1.18-3.64,3.38-6.4,5-9.65a1,1,0,0,1,0,.17C455.43,306.5,453.08,311.11,452.57,315.82Zm5.16-11.59c.26,3.43.57,6.93-.24,10.27a18.2,18.2,0,0,1-5.77,9.21,52.32,52.32,0,0,0,4.54-10.52,42,42,0,0,0,1-5.41C457.46,306.61,457.65,305.42,457.73,304.23Zm-6,19.78c0-.07,0-.15,0-.22a17.7,17.7,0,0,0,5.72-8.53,21.83,21.83,0,0,0,.79-7.46,35.06,35.06,0,0,1,.3,4.69C458.38,317.77,456,321.21,451.69,324Zm19.67,18.77c-1.28-3.92-2.81-8.49-2.28-12.57a74.6,74.6,0,0,1,3.49-10.13s3.45,8.21,3.38,12.39C475.88,337,473.12,339.09,471.36,342.78Zm-2.22,20c1.81-3.22,2.62-6.7,5.12-9.6a103,103,0,0,1,8.72-8.38c-.84,3.43-1.18,7-2.44,10.35C478.58,360.34,474.06,361.77,469.14,362.82Z" style="fill:#ebebeb"></path><path d="M433,324.53c.11.25.21.49.31.74,0,.07.14,0,.12,0s-.09-.27-.14-.41l.21.22c0,.23.07.45.1.68a0,0,0,0,0,.05,0l-.09-.61.27.29s0,0,0,0l-.31-.32c-.92-5.88-4.28-10.81-8.2-15.2-.1-.16-.19-.33-.29-.5s0,0-.05,0a.06.06,0,0,0-.1,0l-.12-.13s-.08,0-.06,0l.21.3a39.06,39.06,0,0,0,3,8.59A26.65,26.65,0,0,0,433,324.53Zm-7.56-14.26c2.5,4.74,5.41,9.25,7.53,14.18a27.29,27.29,0,0,1-4.89-6.37,46.14,46.14,0,0,1-2.9-8.17Zm7.83,14.5a40.3,40.3,0,0,0-3.47-7.07c-1.21-2.16-2.39-4.34-3.64-6.48,1.43,1.85,3,3.62,4.24,5.58a21.08,21.08,0,0,1,3.09,8.2Z" style="fill:#ebebeb"></path><path d="M429,344.52l.79-.17a24.87,24.87,0,0,0,9.24,3.94,16.07,16.07,0,0,0,9-1.3l.37.16s.06,0,0,0h0s0,0,0-.05l-.22-.07-.07,0,.44-.21s0,0,0,0l-.46.21a29.29,29.29,0,0,0-9.33-3.41,25.71,25.71,0,0,0-9.07.7l-.15-.1s0,0,0,0a.43.43,0,0,1,.1.09h-.12s0,0,0,0l-.54.12C428.85,344.4,428.89,344.54,429,344.52Zm18.46,2.21a51.16,51.16,0,0,0-16.92-2.53,24,24,0,0,1,8.23-.49A34.49,34.49,0,0,1,447.44,346.73Zm-17.56-2.4.07,0A58.1,58.1,0,0,1,448,347l0,0C441.84,349.62,435.3,348,429.88,344.33Z" style="fill:#ebebeb"></path><path d="M445.51,369.27a.07.07,0,0,0,.14,0c0-.14,0-.27,0-.41l.34.36a.05.05,0,0,0,.08-.07l-.42-.46c.11-5.9-2.35-11.13-5.78-15.77-.16-.33-.33-.67-.5-1,0,0-.05,0,0,0l.24.57-.21-.28c0-.06,0-.11,0-.16a0,0,0,0,0,0,0v.1a1.47,1.47,0,0,1-.1-.13s-.07,0-.05,0l.15.21a25.26,25.26,0,0,0,1.17,9.23,21.8,21.8,0,0,0,4.92,7.08,1.1,1.1,0,0,1,0,.16s.06,0,.05,0,0-.06,0-.09l0,0Zm0-.75-.08-.08a34.53,34.53,0,0,0-2.16-7h0a38,38,0,0,1,2.12,7c-2-2.23-3.93-4.51-4.87-7.44a33,33,0,0,1-1.13-8.57l.37.56c.9,2.09,1.87,4.15,2.69,6.28,0,0,0,0,0,0-.72-1.91-1.43-3.81-2.29-5.66a31.39,31.39,0,0,1,3.8,6.78A25.72,25.72,0,0,1,445.51,368.52Z" style="fill:#ebebeb"></path><path d="M433,373.61l.22,0c3.93,4.63,10.09,8.14,16.27,8,0,0,0,0,0,0a24.89,24.89,0,0,1-9.47-2.65,25.67,25.67,0,0,1-6.63-5.23l.41.07A71.42,71.42,0,0,1,448.51,381l.3.27h0l-.18-.19.48.31s.06,0,0-.05l-.91-.67a21.42,21.42,0,0,0-6.64-5.08,31.2,31.2,0,0,0-8.2-2.1l-.32-.1-.21-.21s-.08,0-.05.05l.11.14s0,.06,0,.08A.09.09,0,0,0,433,373.61Zm1.94.35a29.11,29.11,0,0,1,6.6,1.82,24.14,24.14,0,0,1,6.41,4.64A50.35,50.35,0,0,0,434.89,374Z" style="fill:#ebebeb"></path><path d="M471.25,343.05a.76.76,0,0,1,0-.15s.05,0,.06,0a29.56,29.56,0,0,0,3.44-11.1,22.92,22.92,0,0,0-.61-5.59,55.3,55.3,0,0,0-1.59-6.61.09.09,0,0,0-.18,0c.07.35.15.7.23,1.05,0,3.79.12,7.58-.25,11.36-.34,3.55-1,7-1.15,10.6l-.06.15a.11.11,0,0,0,.05.14c0,.05,0,.11,0,.16A0,0,0,1,0,471.25,343.05Zm0-.61c.21-3.5.91-6.95,1.24-10.43a80.08,80.08,0,0,0,.13-11.17c.78,3.39,1.84,6.83,1.82,10.32C474.46,335,472.82,338.94,471.29,342.44Z" style="fill:#ebebeb"></path><path d="M471.08,343.16c-.16-3.8-1.64-7.29-1.3-11.15a30.89,30.89,0,0,1,2.29-9.61s.06,0,.05,0a32,32,0,0,0-2.2,10.41c-.18,3.51,1.11,6.85,1.24,10.33A0,0,0,1,1,471.08,343.16Z" style="fill:#ebebeb"></path><path d="M468,362.87c.26,0,.52-.06.78-.1,0,0,0,.08.08.05l.12-.08.18,0a.61.61,0,0,0-.07.1c-.06.08.07.15.12.07l.16-.21a16.85,16.85,0,0,0,9.87-6.34c2.54-3.3,2.81-7.84,4.08-11.69,0-.08-.1-.13-.13-.06-.13.27-.23.54-.34.81.05-.17.11-.33.15-.5,0,0,0,0,0,0A46.92,46.92,0,0,1,477.3,355a36.57,36.57,0,0,1-7.48,7c2-2.85,3.72-5.89,6-8.61s4.76-5.67,7.12-8.52c0,0,0-.06,0,0-2.72,2.76-5.12,5.89-7.57,8.89-2.2,2.7-3.91,5.69-5.87,8.55l-.29.21c-.4.07-.79.13-1.18.16C467.8,362.64,467.8,362.88,468,362.87Zm1.62-.54a33.55,33.55,0,0,0,12.76-15.52c-.8,2.78-1.08,5.75-2.59,8.28a16.3,16.3,0,0,1-10.21,7.3Z" style="fill:#ebebeb"></path><path d="M441,392.06l.92,8.41c1.28,11.64,3.43,31.37,3.43,32.57h19.3c0-1.2,2.13-20.93,3.4-32.57.54-4.93.93-8.41.93-8.41Z" style="fill:#dbdbdb"></path><path d="M441,392.06l.92,8.41H468c.54-4.93.93-8.41.93-8.41Z" style="fill:#c7c7c7"></path><rect x="439.2" y="390.67" width="31.51" height="6.14" transform="translate(909.9 787.48) rotate(180)" style="fill:#dbdbdb"></rect><path d="M66.74,325.53l-13.13.28-6.66.11c-2.22.05-4.46,0-6.69.06h-.45v-.45l-.05-11.19v-.5h.5l13.24.06c4.41,0,8.83.12,13.24.17H67v.27c0,1.9-.08,3.79-.13,5.65Zm0,0-.14-5.65c0-1.87-.12-3.71-.13-5.54l.27.27c-4.41.05-8.83.16-13.24.17l-13.24.06.5-.5-.06,11.19-.44-.45c2.18,0,4.36,0,6.54.06l6.58.11Z" style="fill:#ebebeb"></path><path d="M52,339.64l-13.13.28-6.66.11c-2.22.05-4.46,0-6.69.06H25v-.45L25,328.45V328h.51l13.24.06c4.41,0,8.82.12,13.24.17h.27v.27c0,1.9-.09,3.79-.13,5.65Zm0,0L51.83,334c0-1.87-.12-3.71-.14-5.54l.28.27c-4.42,0-8.83.16-13.24.17L25.49,329l.5-.5-.06,11.19-.44-.45c2.18,0,4.35,0,6.54.06l6.58.11Z" style="fill:#ebebeb"></path><path d="M468.66,253.32l-13.13.28-6.66.11c-2.22,0-4.46,0-6.69,0h-.45v-.45l-.05-11.19v-.5h.5l13.24.06c4.41,0,8.83.11,13.24.16h.27v.27c0,1.9-.08,3.78-.13,5.65Zm0,0-.14-5.66c0-1.86-.12-3.7-.13-5.53l.27.27c-4.41,0-8.83.16-13.24.16l-13.24.07.5-.5-.06,11.19-.44-.45c2.18,0,4.36,0,6.54.06l6.58.11Z" style="fill:#ebebeb"></path><path d="M453.89,65.11l-13.13.27-6.66.12c-2.22,0-4.46,0-6.69,0H427v-.44l0-11.19v-.51h.51l13.24.06c4.41,0,8.82.11,13.24.16h.27v.27c0,1.89-.09,3.78-.13,5.65Zm0,0-.14-5.66c-.05-1.86-.12-3.7-.14-5.53l.28.27c-4.42.05-8.83.16-13.24.16l-13.24.06.5-.49-.06,11.19-.44-.45c2.18,0,4.35,0,6.54,0l6.58.12Z" style="fill:#ebebeb"></path><path d="M468.66,79.22l-13.13.27-6.66.12c-2.22,0-4.46,0-6.69,0h-.45v-.45L441.68,68v-.51h.5l13.24.06c4.41,0,8.83.11,13.24.16h.27V68c0,1.89-.08,3.78-.13,5.65Zm0,0-.14-5.66c0-1.86-.12-3.7-.13-5.53l.27.27c-4.41,0-8.83.16-13.24.16l-13.24.06.5-.49-.06,11.18-.44-.44c2.18,0,4.36,0,6.54,0l6.58.12Z" style="fill:#ebebeb"></path><path d="M72.59,65.11l-13.12.27-6.66.12c-2.23,0-4.47,0-6.7,0h-.44v-.44l-.06-11.19v-.51h.5l13.24.06c4.42,0,8.83.11,13.24.16h.28v.27c0,1.89-.09,3.78-.13,5.65Zm0,0-.14-5.66c0-1.86-.11-3.7-.13-5.53l.27.27c-4.41.05-8.82.16-13.24.16l-13.24.06.5-.49,0,11.19-.45-.45c2.18,0,4.36,0,6.55,0l6.58.12Z" style="fill:#ebebeb"></path><path d="M278.91,290.37c0,10.61-6.85,13.7-6.85,13.7H227.82S221,301,221,290.37c0-11.35,9.7-16.41,19.57-23.84A27.41,27.41,0,0,0,249.94,254a27.41,27.41,0,0,0,9.39,12.55C269.2,274,278.91,279,278.91,290.37Z" style="fill:#c7c7c7"></path><path d="M254.48,240.3v0h0a4.37,4.37,0,1,1-5.64-4.92,4.48,4.48,0,0,1,2.11-.14h0a3.86,3.86,0,0,0-1.05.18,3.7,3.7,0,1,0,4.59,4.86Z" style="fill:#c7c7c7"></path><path d="M251.29,252.63a1.35,1.35,0,1,1-1.35-1.34A1.34,1.34,0,0,1,251.29,252.63Z" style="fill:#c7c7c7"></path><path d="M250.78,244.76a.85.85,0,0,1-.84.84.84.84,0,0,1,0-1.68A.85.85,0,0,1,250.78,244.76Z" style="fill:#c7c7c7"></path><path d="M249.94,251.29a5.17,5.17,0,0,1,0-5.69A5.15,5.15,0,0,1,249.94,251.29Z" style="fill:#c7c7c7"></path><path d="M218.38,302.47c0,7.69-5,9.93-5,9.93H181.35s-5-2.24-5-9.93c0-8.23,7-11.89,14.2-17.29a19.8,19.8,0,0,0,6.8-9.09,19.87,19.87,0,0,0,6.81,9.09C211.34,290.58,218.38,294.24,218.38,302.47Z" style="fill:#c7c7c7"></path><path d="M200.67,266.17v0h0a3.17,3.17,0,1,1-4.09-3.57,3.21,3.21,0,0,1,1.53-.1h0a2.31,2.31,0,0,0-.77.13,2.68,2.68,0,0,0,1.65,5.11A2.66,2.66,0,0,0,200.67,266.17Z" style="fill:#c7c7c7"></path><path d="M198.36,275.11a1,1,0,1,1-2,0,1,1,0,0,1,2,0Z" style="fill:#c7c7c7"></path><circle cx="197.38" cy="269.4" r="0.61" style="fill:#c7c7c7"></circle><path d="M197.38,274.14a3.75,3.75,0,0,1,0-4.13A3.75,3.75,0,0,1,197.38,274.14Z" style="fill:#c7c7c7"></path><path d="M323.62,302.47c0,7.69-5,9.93-5,9.93H286.58s-5-2.24-5-9.93c0-8.23,7-11.89,14.19-17.29a19.87,19.87,0,0,0,6.81-9.09,19.8,19.8,0,0,0,6.8,9.09C316.58,290.58,323.62,294.24,323.62,302.47Z" style="fill:#c7c7c7"></path><path d="M305.91,266.17v0h0a3.16,3.16,0,1,1-4.08-3.57,3.2,3.2,0,0,1,1.53-.1h0a2.25,2.25,0,0,0-.76.13,2.68,2.68,0,1,0,3.33,3.52Z" style="fill:#c7c7c7"></path><path d="M303.59,275.11a1,1,0,1,1-1-1A1,1,0,0,1,303.59,275.11Z" style="fill:#c7c7c7"></path><circle cx="302.62" cy="269.4" r="0.61" style="fill:#c7c7c7"></circle><path d="M302.62,274.14a3.75,3.75,0,0,1,0-4.13A3.75,3.75,0,0,1,302.62,274.14Z" style="fill:#c7c7c7"></path><path d="M220.86,305v39.14h19.7V330.35a9.38,9.38,0,0,1,18.76,0v13.81H279V305Zm5.53,9.05h-3.17v-5.33a1.59,1.59,0,0,1,3.17,0Zm6.28,0h-3.16v-5.33a1.58,1.58,0,1,1,3.16,0Zm6.29,0H235.8v-5.33a1.58,1.58,0,0,1,3.16,0Zm6.28,0h-3.16v-5.33a1.58,1.58,0,0,1,3.16,0Zm6.28,0h-3.16v-5.33a1.58,1.58,0,0,1,3.16,0Zm6.28,0h-3.15v-5.33a1.58,1.58,0,1,1,3.15,0Zm6.29,0h-3.16v-5.33a1.58,1.58,0,0,1,3.16,0Zm6.29,0h-3.17v-5.33a1.59,1.59,0,0,1,3.17,0Zm6.28,0H273.5v-5.33a1.58,1.58,0,0,1,3.16,0Z" style="fill:#c7c7c7"></path><path d="M221,312.4v31.76H205V333a7.62,7.62,0,1,0-15.23,0v11.2h-16V312.4Z" style="fill:#c7c7c7"></path><rect x="218.84" y="301.57" width="62.21" height="3.45" rx="1.52" style="fill:#c7c7c7"></rect><rect x="164.75" y="224.97" width="5.23" height="0.96" rx="0.42" transform="translate(-58.08 392.81) rotate(-90)" style="fill:#c7c7c7"></rect><path d="M161,236.34v3.27h12.81v-3.27Zm0,8.11v3.27h12.81v-3.27Z" style="fill:#c7c7c7"></path><path d="M161,247.72v96.44h12.81V247.72Zm8.11,14.47h-3.41v-7.44a1.71,1.71,0,0,1,3.41,0Z" style="fill:#c7c7c7"></path><rect x="160.96" y="239.61" width="12.81" height="4.83" style="fill:#c7c7c7"></rect><path d="M173.77,232.4v3.94H161V232.4a6.41,6.41,0,1,1,12.81,0Z" style="fill:#c7c7c7"></path><path d="M176.38,246.08v0a1.62,1.62,0,0,1-1.62,1.62H160a1.63,1.63,0,0,1-1.62-1.62v0a1.63,1.63,0,0,1,1.62-1.63h14.79A1.62,1.62,0,0,1,176.38,246.08Z" style="fill:#c7c7c7"></path><rect x="158.35" y="236.34" width="18.04" height="3.27" rx="1.63" style="fill:#c7c7c7"></rect><rect x="330.02" y="224.97" width="5.23" height="0.96" rx="0.42" transform="translate(107.18 558.08) rotate(-90)" style="fill:#c7c7c7"></rect><path d="M326.23,236.34v3.27H339v-3.27Zm0,8.11v3.27H339v-3.27Z" style="fill:#c7c7c7"></path><path d="M326.23,247.72v96.44H339V247.72Zm8.11,14.47h-3.41v-7.44a1.71,1.71,0,0,1,3.41,0Z" style="fill:#c7c7c7"></path><rect x="326.23" y="239.61" width="12.81" height="4.83" style="fill:#c7c7c7"></rect><path d="M339,232.4v3.94H326.23V232.4a6.41,6.41,0,1,1,12.81,0Z" style="fill:#c7c7c7"></path><path d="M341.65,246.08v0a1.63,1.63,0,0,1-1.62,1.62H325.24a1.62,1.62,0,0,1-1.62-1.62v0a1.62,1.62,0,0,1,1.62-1.63H340A1.63,1.63,0,0,1,341.65,246.08Z" style="fill:#c7c7c7"></path><path d="M341.65,238v0a1.62,1.62,0,0,1-1.62,1.62H325.24a1.61,1.61,0,0,1-1.62-1.62v0a1.62,1.62,0,0,1,1.62-1.63H340A1.63,1.63,0,0,1,341.65,238Z" style="fill:#c7c7c7"></path><path d="M326.21,312.4v31.76h-16V333A7.62,7.62,0,1,0,295,333v11.2H279V312.4Z" style="fill:#c7c7c7"></path></g><g id="freepik--Shadow--inject-566"><ellipse cx="120.39" cy="452.29" rx="97.99" ry="19.56" style="fill:#ebebeb"></ellipse><ellipse cx="362.51" cy="452.29" rx="97.99" ry="19.56" style="fill:#ebebeb"></ellipse></g><g id="freepik--Floor--inject-566"><polygon points="91.55 344.56 131.16 344.31 170.77 344.23 250 344.06 329.23 344.23 368.84 344.31 408.45 344.56 368.84 344.8 329.23 344.89 250 345.06 170.77 344.89 131.16 344.8 91.55 344.56" style="fill:#263238"></polygon></g><g id="freepik--Plants--inject-566"><path d="M264.23,361.73H229.42s.08-4.17,3.5-5.28a5.33,5.33,0,0,1,5.46,1.06s1.4-7.68,7.77-7.68,9.43,6.62,9.43,6.62,1.43-2,5-1.63S264.23,361.73,264.23,361.73Z" style="fill:#37474f"></path><path d="M298.71,406.42H263.9s.08-4.17,3.51-5.28a5.3,5.3,0,0,1,5.45,1.05s1.4-7.67,7.77-7.67,9.43,6.62,9.43,6.62,1.43-2,5-1.63S298.71,406.42,298.71,406.42Z" style="fill:#37474f"></path><path d="M350.8,380.43s-1.07-4-3.2-4.62a3.26,3.26,0,0,0-3.43,1.18s-.5-3.83-3.52-5a5.16,5.16,0,0,0-5.29,1.2s-2.32-4.86-6.46-4.86-6.23,7.11-6.23,7.11-2.44-2.12-4.95-.92-2.5,5.89-2.5,5.89Z" style="fill:#37474f"></path><path d="M181.29,376.88H149.2s1.06-3.65,3.19-3.9a3.21,3.21,0,0,1,3.11,1.43s-.09-5.08,3.88-6,7.31,3.62,7.31,3.62a8.48,8.48,0,0,1,5.89-2.39c3.39.16,4.25,4.39,4.25,4.39S179.93,372.61,181.29,376.88Z" style="fill:#455a64"></path><path d="M289.79,361.73H257.7s1.06-3.64,3.19-3.9a3.21,3.21,0,0,1,3.11,1.43s-.09-5.08,3.88-5.95,7.31,3.63,7.31,3.63a8.52,8.52,0,0,1,5.89-2.4c3.39.17,4.25,4.4,4.25,4.4S288.43,357.47,289.79,361.73Z" style="fill:#455a64"></path><path d="M264,410.69H231.9s1-3.65,3.18-3.91a3.24,3.24,0,0,1,3.12,1.44s-.1-5.09,3.88-6,7.3,3.62,7.3,3.62a8.55,8.55,0,0,1,5.89-2.4c3.4.17,4.26,4.4,4.26,4.4S262.62,406.42,264,410.69Z" style="fill:#455a64"></path><path d="M317.52,380.43H297.8s.05-2.36,2-3a3,3,0,0,1,3.09.6s.79-4.35,4.41-4.35,5.34,3.75,5.34,3.75a3,3,0,0,1,2.81-.92C317.44,376.73,317.52,380.43,317.52,380.43Z" style="fill:#455a64"></path><path d="M197.11,361.73h19.71s0-2.36-2-3a3,3,0,0,0-3.09.6S211,355,207.35,355s-5.34,3.75-5.34,3.75a3,3,0,0,0-2.82-.92C197.19,358,197.11,361.73,197.11,361.73Z" style="fill:#455a64"></path></g><g id="freepik--Arch--inject-566"><path d="M34.88,433.2l57.06-.39-.39.39L91,357.14c-.24-25.35-.29-70.7-.44-96.05l-.09-19c-.06-6.33,0-12.68-.17-19-.32-12.62-1-25.43.67-38.25A72,72,0,0,1,95.83,166a48.61,48.61,0,0,1,11-16.24l1.87-1.68c.32-.27.61-.57,1-.81l1-.73,2.06-1.46,2.21-1.22,1.11-.6,1.17-.49c.79-.31,1.56-.65,2.36-.93a36.41,36.41,0,0,1,4.92-1.21,34.63,34.63,0,0,1,10.06-.2c.83.13,1.66.23,2.48.39s1.64.33,2.45.57,1.62.45,2.42.72,1.56.56,2.44,1l-3,1.8a40.54,40.54,0,0,1,6.82-21.3,39.93,39.93,0,0,1,7.64-8.36,44.67,44.67,0,0,1,9.61-5.87c.86-.37,1.71-.75,2.58-1.11l2.7-.88,1.35-.44c.46-.11.93-.2,1.39-.3l2.8-.57a39.45,39.45,0,0,1,11.38.12,40.06,40.06,0,0,1,10.78,3.51,43.33,43.33,0,0,1,4.92,2.8c.78.54,1.56,1.06,2.31,1.65A28.5,28.5,0,0,1,208,116l-3.54,2.67a32.18,32.18,0,0,1-3.88-11.87,24.37,24.37,0,0,1,2.11-12.53,38,38,0,0,1,7.13-10.12,90.39,90.39,0,0,1,8.91-8c3.06-2.46,6.21-4.79,9-7.24a84.22,84.22,0,0,0,8-8,82,82,0,0,0,6.8-9.08c1-1.59,2-3.21,2.88-4.87a51.25,51.25,0,0,0,2.4-5,2.34,2.34,0,0,1,3-1.29A2.28,2.28,0,0,1,252.16,42v0a51.25,51.25,0,0,0,2.4,5c.89,1.66,1.87,3.28,2.88,4.87a84.53,84.53,0,0,0,6.8,9.08,85.4,85.4,0,0,0,8,8c2.83,2.44,6,4.78,9,7.24a89.14,89.14,0,0,1,8.91,8,37.78,37.78,0,0,1,7.13,10.12,24.37,24.37,0,0,1,2.11,12.53,32.17,32.17,0,0,1-3.87,11.87L292,116a28.5,28.5,0,0,1,2.26-1.9c.75-.59,1.53-1.11,2.31-1.65a43.33,43.33,0,0,1,4.92-2.8,40.06,40.06,0,0,1,10.78-3.51,39.52,39.52,0,0,1,11.39-.13l2.79.57c.46.1.93.19,1.39.3l1.35.44,2.7.89c.87.35,1.72.73,2.59,1.1a44.8,44.8,0,0,1,9.61,5.88,39.39,39.39,0,0,1,7.63,8.36,40.37,40.37,0,0,1,6.82,21.3l-3-1.8c.88-.4,1.63-.68,2.44-1s1.61-.52,2.42-.73,1.63-.37,2.45-.56,1.65-.27,2.48-.4a34.73,34.73,0,0,1,15,1.41c.8.29,1.57.63,2.36.94.39.16.79.31,1.17.48l1.11.61,2.22,1.22,2.06,1.45,1,.73c.35.25.64.55.95.82l1.87,1.67A48.78,48.78,0,0,1,404.18,166a72.33,72.33,0,0,1,4.9,18.83c1.7,12.82,1,25.63.67,38.25-.16,6.3-.11,12.65-.16,19l-.09,19c-.15,25.35-.2,70.7-.44,96.05l-.61,76.06-.39-.39,57.06.39-57.06.39a.38.38,0,0,1-.39-.38h0l-.61-76.06c-.25-25.35-.29-70.7-.44-96.05l-.09-19c0-6.34-.12-12.66,0-19,.2-12.69.75-25.35-1-37.7a68.42,68.42,0,0,0-4.82-17.81,45.45,45.45,0,0,0-10.3-14.89l-1.68-1.5a9.9,9.9,0,0,0-.85-.73l-.92-.63-1.82-1.29-2-1.06-1-.53c-.34-.15-.69-.27-1-.41-.69-.27-1.37-.57-2.06-.82a32.12,32.12,0,0,0-4.31-1,30.36,30.36,0,0,0-8.88-.14c-.73.12-1.48.22-2.21.37s-1.46.29-2.18.51-1.43.4-2.13.65-1.42.53-2,.78l0,0a2.09,2.09,0,0,1-2.95-1.82,36.18,36.18,0,0,0-6.19-19,34.84,34.84,0,0,0-6.83-7.41,40.35,40.35,0,0,0-8.69-5.24l-2.35-1-2.41-.77-1.21-.39c-.4-.1-.82-.17-1.23-.26l-2.47-.49a33.2,33.2,0,0,0-19.56,3.28,39.9,39.9,0,0,0-4.4,2.51c-.69.49-1.4,1-2.05,1.48a23.83,23.83,0,0,0-1.86,1.55l0,0a2.24,2.24,0,0,1-3.5-2.71A27.86,27.86,0,0,0,295,106.39a19.59,19.59,0,0,0-1.75-10.21,33.41,33.41,0,0,0-6.29-8.87,84.43,84.43,0,0,0-8.48-7.56c-3-2.41-6.12-4.7-9.19-7.34a90.5,90.5,0,0,1-8.49-8.47,88.22,88.22,0,0,1-7.2-9.59c-1.08-1.69-2.12-3.4-3.07-5.17a53.65,53.65,0,0,1-2.66-5.54h4.34a55.79,55.79,0,0,1-2.66,5.54c-1,1.77-2,3.48-3.07,5.17a87.23,87.23,0,0,1-7.21,9.58,89.31,89.31,0,0,1-8.48,8.48c-3.07,2.63-6.19,4.93-9.2,7.34a85.42,85.42,0,0,0-8.47,7.56,33.79,33.79,0,0,0-6.3,8.86A19.83,19.83,0,0,0,205,106.39a27.69,27.69,0,0,0,3.34,10.17,2.25,2.25,0,0,1-3.5,2.71l0,0c-.52-.48-1.2-1.06-1.85-1.56s-1.36-1-2.06-1.47a39,39,0,0,0-4.4-2.51A33.32,33.32,0,0,0,177,110.41l-2.46.5-1.24.25-1.2.39-2.41.77-2.35,1a40.67,40.67,0,0,0-8.69,5.24,35.33,35.33,0,0,0-6.83,7.41,36.17,36.17,0,0,0-6.2,19,2.08,2.08,0,0,1-2.15,2,2.23,2.23,0,0,1-.78-.18l0,0a21,21,0,0,0-2-.78q-1.05-.37-2.13-.66c-.72-.22-1.46-.33-2.18-.51s-1.47-.24-2.21-.37a31.07,31.07,0,0,0-8.88.14,33.76,33.76,0,0,0-4.31,1c-.69.25-1.37.55-2.06.81-.34.14-.69.27-1,.42l-1,.53-2,1.06-1.83,1.28-.91.64c-.31.21-.57.49-.86.73l-1.68,1.49a45.55,45.55,0,0,0-10.3,14.89,68.08,68.08,0,0,0-4.81,17.82c-1.77,12.35-1.22,25-1,37.7.1,6.38,0,12.7,0,19l-.1,19c-.14,25.35-.19,70.7-.43,96.05l-.61,76.06h0a.38.38,0,0,1-.39.39h0Z" style="fill:#FFA52E"></path><path d="M25.49,433.2l66.45-.39-.39.39L91,357.14c-.24-25.35-.29-70.7-.44-96.05l-.09-19c-.06-6.33,0-12.68-.17-19-.32-12.62-1-25.43.67-38.25A72,72,0,0,1,95.83,166a48.61,48.61,0,0,1,11-16.24l1.87-1.68c.32-.27.61-.57,1-.81l1-.73,2.06-1.46,2.21-1.22,1.11-.6,1.17-.49c.79-.31,1.56-.65,2.36-.93a36.41,36.41,0,0,1,4.92-1.21,34.63,34.63,0,0,1,10.06-.2c.83.13,1.66.23,2.48.39s1.64.33,2.45.57,1.62.45,2.42.72,1.56.56,2.44,1l-3,1.8a40.54,40.54,0,0,1,6.82-21.3,39.93,39.93,0,0,1,7.64-8.36,44.67,44.67,0,0,1,9.61-5.87c.86-.37,1.71-.75,2.58-1.11l2.7-.88,1.35-.44c.46-.11.93-.2,1.39-.3l2.8-.57a39.45,39.45,0,0,1,11.38.12,40.06,40.06,0,0,1,10.78,3.51,43.33,43.33,0,0,1,4.92,2.8c.78.54,1.56,1.06,2.31,1.65A28.5,28.5,0,0,1,208,116l-3.54,2.67a32.18,32.18,0,0,1-3.88-11.87,24.37,24.37,0,0,1,2.11-12.53,38,38,0,0,1,7.13-10.12,90.39,90.39,0,0,1,8.91-8c3.06-2.46,6.21-4.79,9-7.24a84.22,84.22,0,0,0,8-8,82,82,0,0,0,6.8-9.08c1-1.59,2-3.21,2.88-4.87a51.25,51.25,0,0,0,2.4-5,2.34,2.34,0,0,1,3-1.29A2.28,2.28,0,0,1,252.16,42v0a51.25,51.25,0,0,0,2.4,5c.89,1.66,1.87,3.28,2.88,4.87a84.53,84.53,0,0,0,6.8,9.08,85.4,85.4,0,0,0,8,8c2.83,2.44,6,4.78,9,7.24a89.14,89.14,0,0,1,8.91,8,37.78,37.78,0,0,1,7.13,10.12,24.37,24.37,0,0,1,2.11,12.53,32.17,32.17,0,0,1-3.87,11.87L292,116a28.5,28.5,0,0,1,2.26-1.9c.75-.59,1.53-1.11,2.31-1.65a43.33,43.33,0,0,1,4.92-2.8,40.06,40.06,0,0,1,10.78-3.51,39.52,39.52,0,0,1,11.39-.13l2.79.57c.46.1.93.19,1.39.3l1.35.44,2.7.89c.87.35,1.72.73,2.59,1.1a44.8,44.8,0,0,1,9.61,5.88,39.39,39.39,0,0,1,7.63,8.36,40.37,40.37,0,0,1,6.82,21.3l-3-1.8c.88-.4,1.63-.68,2.44-1s1.61-.52,2.42-.73,1.63-.37,2.45-.56,1.65-.27,2.48-.4a34.73,34.73,0,0,1,15,1.41c.8.29,1.57.63,2.36.94.39.16.79.31,1.17.48l1.11.61,2.22,1.22,2.06,1.45,1,.73c.35.25.64.55.95.82l1.87,1.67A48.78,48.78,0,0,1,404.18,166a72.33,72.33,0,0,1,4.9,18.83c1.7,12.82,1,25.63.67,38.25-.16,6.3-.11,12.65-.16,19l-.09,19c-.15,25.35-.2,70.7-.44,96.05l-.61,76.06-.39-.39,68,.39-68,.39a.38.38,0,0,1-.39-.38h0l-.61-76.06c-.25-25.35-.29-70.7-.44-96.05l-.09-19c0-6.34-.12-12.66,0-19,.2-12.69.75-25.35-1-37.7a68.42,68.42,0,0,0-4.82-17.81,45.45,45.45,0,0,0-10.3-14.89l-1.68-1.5a9.9,9.9,0,0,0-.85-.73l-.92-.63-1.82-1.29-2-1.06-1-.53c-.34-.15-.69-.27-1-.41-.69-.27-1.37-.57-2.06-.82a32.12,32.12,0,0,0-4.31-1,30.36,30.36,0,0,0-8.88-.14c-.73.12-1.48.22-2.21.37s-1.46.29-2.18.51-1.43.4-2.13.65-1.42.53-2,.78l0,0a2.09,2.09,0,0,1-2.95-1.82,36.18,36.18,0,0,0-6.19-19,34.84,34.84,0,0,0-6.83-7.41,40.35,40.35,0,0,0-8.69-5.24l-2.35-1-2.41-.77-1.21-.39c-.4-.1-.82-.17-1.23-.26l-2.47-.49a33.2,33.2,0,0,0-19.56,3.28,39.9,39.9,0,0,0-4.4,2.51c-.69.49-1.4,1-2.05,1.48a23.83,23.83,0,0,0-1.86,1.55l0,0a2.24,2.24,0,0,1-3.5-2.71A27.86,27.86,0,0,0,295,106.39a19.59,19.59,0,0,0-1.75-10.21,33.41,33.41,0,0,0-6.29-8.87,84.43,84.43,0,0,0-8.48-7.56c-3-2.41-6.12-4.7-9.19-7.34a90.5,90.5,0,0,1-8.49-8.47,88.22,88.22,0,0,1-7.2-9.59c-1.08-1.69-2.12-3.4-3.07-5.17a53.65,53.65,0,0,1-2.66-5.54h4.34a55.79,55.79,0,0,1-2.66,5.54c-1,1.77-2,3.48-3.07,5.17a87.23,87.23,0,0,1-7.21,9.58,89.31,89.31,0,0,1-8.48,8.48c-3.07,2.63-6.19,4.93-9.2,7.34a85.42,85.42,0,0,0-8.47,7.56,33.79,33.79,0,0,0-6.3,8.86A19.83,19.83,0,0,0,205,106.39a27.69,27.69,0,0,0,3.34,10.17,2.25,2.25,0,0,1-3.5,2.71l0,0c-.52-.48-1.2-1.06-1.85-1.56s-1.36-1-2.06-1.47a39,39,0,0,0-4.4-2.51A33.32,33.32,0,0,0,177,110.41l-2.46.5-1.24.25-1.2.39-2.41.77-2.35,1a40.67,40.67,0,0,0-8.69,5.24,35.33,35.33,0,0,0-6.83,7.41,36.17,36.17,0,0,0-6.2,19,2.08,2.08,0,0,1-2.15,2,2.23,2.23,0,0,1-.78-.18l0,0a21,21,0,0,0-2-.78q-1.05-.37-2.13-.66c-.72-.22-1.46-.33-2.18-.51s-1.47-.24-2.21-.37a31.07,31.07,0,0,0-8.88.14,33.76,33.76,0,0,0-4.31,1c-.69.25-1.37.55-2.06.81-.34.14-.69.27-1,.42l-1,.53-2,1.06-1.83,1.28-.91.64c-.31.21-.57.49-.86.73l-1.68,1.49a45.55,45.55,0,0,0-10.3,14.89,68.08,68.08,0,0,0-4.81,17.82c-1.77,12.35-1.22,25-1,37.7.1,6.38,0,12.7,0,19l-.1,19c-.14,25.35-.19,70.7-.43,96.05l-.61,76.06h0a.38.38,0,0,1-.39.39h0Z" style="opacity:0.30000000000000004"></path></g><g id="freepik--Lanterns--inject-566"><path d="M156.94,89.19c-.85,1.9,0,6,0,6l17.54,5.36V73.12S157.77,87.29,156.94,89.19Zm12.75-3.62c.72-.5,1.39-.7,1.49-.46s-.4.85-1.12,1.34-1.39.71-1.49.47S169,86.07,169.69,85.57ZM167.5,84.2c.29-.89.72-1.56,1-1.5s.19.82-.09,1.7-.72,1.55-1,1.5S167.21,85.07,167.5,84.2Zm-2.84-.66c.24-.16.69.32,1,1.07s.38,1.48.14,1.64-.68-.31-1-1.06S164.43,83.7,164.66,83.54ZM162,87.14c.09-.29.77-.39,1.5-.2s1.25.54,1.15.83-.76.38-1.5.2S161.93,87.42,162,87.14Zm1.56,3.77c-.73.5-1.4.71-1.5.46s.4-.84,1.13-1.33,1.39-.71,1.49-.47S164.31,90.42,163.59,90.91Zm2.19,1.38c-.3.89-.73,1.55-1,1.49s-.2-.81.09-1.7.72-1.55,1-1.49S166.06,91.41,165.78,92.29Zm.35-2.51a1.36,1.36,0,0,1-.77-1.85,1.64,1.64,0,0,1,1.78-1.23,1.36,1.36,0,0,1,.78,1.85A1.65,1.65,0,0,1,166.13,89.78ZM168.61,93c-.24.16-.68-.32-1-1.07s-.39-1.48-.14-1.64.67.31,1,1.06S168.84,92.79,168.61,93Zm2.63-3.6c-.09.29-.76.38-1.49.2s-1.26-.55-1.16-.83.77-.39,1.5-.2S171.34,89.06,171.24,89.35Z" style="fill:#FFA52E"></path><path d="M192,89.19c-.84-1.9-17.54-16.07-17.54-16.07v27.45L192,95.21S192.86,91.09,192,89.19Zm-8.72-4.58c.31-.75.75-1.23,1-1.07s.17.9-.14,1.65-.76,1.22-1,1.06S183,85.35,183.3,84.61Zm-2.8-1.91c.24-.06.67.61.95,1.5s.34,1.64.1,1.7-.67-.61-1-1.5S180.26,82.76,180.5,82.7Zm-2.73,2.41c.1-.24.77,0,1.5.46s1.23,1.1,1.12,1.35-.77,0-1.49-.47S177.67,85.36,177.77,85.11Zm-.06,4.24c-.09-.29.42-.66,1.16-.83s1.4-.09,1.49.2-.42.66-1.15.83S177.81,89.64,177.71,89.35Zm3.63,2.53c-.31.75-.76,1.23-1,1.07s-.17-.91.14-1.65.76-1.22,1-1.06S181.66,91.14,181.34,91.88Zm-.3-3.33a1.36,1.36,0,0,1,.78-1.85,1.64,1.64,0,0,1,1.78,1.23,1.36,1.36,0,0,1-.77,1.85A1.65,1.65,0,0,1,181,88.55Zm3.1,5.23c-.23.06-.66-.6-1-1.49s-.33-1.64-.09-1.7.67.61,1,1.49S184.38,93.73,184.14,93.78Zm2.72-2.41c-.1.25-.77,0-1.49-.46s-1.22-1.1-1.12-1.34.77,0,1.49.47S187,91.13,186.86,91.37ZM185.77,88c-.73.18-1.4.09-1.5-.2s.43-.66,1.16-.83,1.41-.09,1.5.2S186.5,87.8,185.77,88Z" style="fill:#FFA52E"></path><g style="opacity:0.1"><path d="M192,89.19c-.84-1.9-17.54-16.07-17.54-16.07v27.45L192,95.21S192.86,91.09,192,89.19Zm-8.72-4.58c.31-.75.75-1.23,1-1.07s.17.9-.14,1.65-.76,1.22-1,1.06S183,85.35,183.3,84.61Zm-2.8-1.91c.24-.06.67.61.95,1.5s.34,1.64.1,1.7-.67-.61-1-1.5S180.26,82.76,180.5,82.7Zm-2.73,2.41c.1-.24.77,0,1.5.46s1.23,1.1,1.12,1.35-.77,0-1.49-.47S177.67,85.36,177.77,85.11Zm-.06,4.24c-.09-.29.42-.66,1.16-.83s1.4-.09,1.49.2-.42.66-1.15.83S177.81,89.64,177.71,89.35Zm3.63,2.53c-.31.75-.76,1.23-1,1.07s-.17-.91.14-1.65.76-1.22,1-1.06S181.66,91.14,181.34,91.88Zm-.3-3.33a1.36,1.36,0,0,1,.78-1.85,1.64,1.64,0,0,1,1.78,1.23,1.36,1.36,0,0,1-.77,1.85A1.65,1.65,0,0,1,181,88.55Zm3.1,5.23c-.23.06-.66-.6-1-1.49s-.33-1.64-.09-1.7.67.61,1,1.49S184.38,93.73,184.14,93.78Zm2.72-2.41c-.1.25-.77,0-1.49-.46s-1.22-1.1-1.12-1.34.77,0,1.49.47S187,91.13,186.86,91.37ZM185.77,88c-.73.18-1.4.09-1.5-.2s.43-.66,1.16-.83,1.41-.09,1.5.2S186.5,87.8,185.77,88Z"></path></g><path d="M156.94,95.21l5.71,32.17,11.83,4.85V100.65Zm13.17,8.13c.79.23-.62,2.13-.62,2.13S169.33,103.11,170.11,103.34Zm-6.44-1.51c.82,0,0,2.22,0,2.22S162.86,101.83,163.67,101.83Zm-2.3-.09c.93-.66,1.79,2.53,1.79,2.53S160.44,102.41,161.37,101.74Zm-.68,2.21c.27-.78,2.1.71,2.1.71S160.43,104.72,160.69,104Zm10.23,23.56-5.44-2.27-3.43-20,1.72.39a2.68,2.68,0,0,1,1.65-2.54c1.38-.44,3,.64,3.56,2.43a4.27,4.27,0,0,1,.22,1.34l1.72.39Zm-.77-21.2s2.19-.91,2.22-.09S170.15,106.31,170.15,106.31Zm-.24-.48s1.73-2.81,2.43-1.91S169.91,105.83,169.91,105.83Z" style="fill:#FFA52E"></path><g style="opacity:0.1"><path d="M156.94,95.21l5.71,32.17,11.83,4.85V100.65Zm13.17,8.13c.79.23-.62,2.13-.62,2.13S169.33,103.11,170.11,103.34Zm-6.44-1.51c.82,0,0,2.22,0,2.22S162.86,101.83,163.67,101.83Zm-2.3-.09c.93-.66,1.79,2.53,1.79,2.53S160.44,102.41,161.37,101.74Zm-.68,2.21c.27-.78,2.1.71,2.1.71S160.43,104.72,160.69,104Zm10.23,23.56-5.44-2.27-3.43-20,1.72.39a2.68,2.68,0,0,1,1.65-2.54c1.38-.44,3,.64,3.56,2.43a4.27,4.27,0,0,1,.22,1.34l1.72.39Zm-.77-21.2s2.19-.91,2.22-.09S170.15,106.31,170.15,106.31Zm-.24-.48s1.73-2.81,2.43-1.91S169.91,105.83,169.91,105.83Z"></path></g><path d="M174.48,100.65v31.58l11.83-4.85L192,95.21Zm5,4.82s-1.41-1.9-.63-2.13S179.47,105.47,179.47,105.47Zm5.83-1.42s-.83-2.22,0-2.22S185.3,104.05,185.3,104.05Zm.49.22s.87-3.19,1.8-2.53S185.79,104.27,185.79,104.27Zm.38.39s1.83-1.49,2.09-.71S186.17,104.66,186.17,104.66ZM178,107.22l1.72-.39a4.29,4.29,0,0,1,.23-1.34c.58-1.79,2.18-2.87,3.56-2.43a2.69,2.69,0,0,1,1.64,2.54l1.73-.39-3.43,20L178,127.51Zm-1.44-1c0-.82,2.21.09,2.21.09S176.55,107,176.59,106.22Zm0-2.3c.71-.9,2.44,1.91,2.44,1.91S175.91,104.82,176.61,103.92Z" style="fill:#FFA52E"></path><g style="opacity:0.2"><path d="M174.48,100.65v31.58l11.83-4.85L192,95.21Zm5,4.82s-1.41-1.9-.63-2.13S179.47,105.47,179.47,105.47Zm5.83-1.42s-.83-2.22,0-2.22S185.3,104.05,185.3,104.05Zm.49.22s.87-3.19,1.8-2.53S185.79,104.27,185.79,104.27Zm.38.39s1.83-1.49,2.09-.71S186.17,104.66,186.17,104.66ZM178,107.22l1.72-.39a4.29,4.29,0,0,1,.23-1.34c.58-1.79,2.18-2.87,3.56-2.43a2.69,2.69,0,0,1,1.64,2.54l1.73-.39-3.43,20L178,127.51Zm-1.44-1c0-.82,2.21.09,2.21.09S176.55,107,176.59,106.22Zm0-2.3c.71-.9,2.44,1.91,2.44,1.91S175.91,104.82,176.61,103.92Z"></path></g><polygon points="174.48 132.23 174.48 136.55 159.36 129.8 162.65 127.38 174.48 132.23" style="fill:#FFA52E"></polygon><polygon points="174.48 132.23 174.48 136.55 189.6 129.8 186.31 127.38 174.48 132.23" style="fill:#FFA52E"></polygon><g style="opacity:0.1"><polygon points="174.48 132.23 174.48 136.55 189.6 129.8 186.31 127.38 174.48 132.23"></polygon></g><path d="M174.48,101.65a1,1,0,0,1-.3,0l-18-5.51a1,1,0,0,1-.67-1.26,1,1,0,0,1,1.25-.67l17.76,5.43,17.75-5.43a1,1,0,0,1,.59,1.93l-18,5.51A1,1,0,0,1,174.48,101.65Z" style="fill:#FFA52E"></path><path d="M174.48,137.56a1,1,0,0,1-.41-.09L159,130.72a1,1,0,1,1,.82-1.83l14.71,6.56,14.71-6.56a1,1,0,1,1,.82,1.83l-15.12,6.75A1,1,0,0,1,174.48,137.56Z" style="fill:#FFA52E"></path><rect x="173.81" width="1.34" height="74.46" style="fill:#FFA52E"></rect><path d="M174.48,70.78l-6.26-6.26,6.26-6.25,6.25,6.25Zm-4.36-6.26,4.36,4.36,4.36-4.36-4.36-4.36Z" style="fill:#FFA52E"></path><path d="M174.48,50.87l-6.26-6.26,6.26-6.25,6.25,6.25Zm-4.36-6.26L174.48,49l4.36-4.37-4.36-4.36Z" style="fill:#FFA52E"></path><path d="M308,89.19c-.85,1.9,0,6,0,6l17.54,5.36V73.12S308.82,87.29,308,89.19Zm12.75-3.62c.72-.5,1.39-.7,1.49-.46s-.4.85-1.12,1.34-1.4.71-1.5.47S320,86.07,320.74,85.57Zm-2.19-1.37c.29-.89.72-1.56,1-1.5s.19.82-.1,1.7-.71,1.55-1,1.5S318.26,85.07,318.55,84.2Zm-2.84-.66c.24-.16.68.32,1,1.07s.37,1.48.14,1.64-.68-.31-1-1.06S315.48,83.7,315.71,83.54Zm-2.64,3.6c.1-.29.77-.39,1.5-.2s1.25.54,1.16.83-.76.38-1.5.2S313,87.42,313.07,87.14Zm1.56,3.77c-.72.5-1.39.71-1.49.46s.4-.84,1.12-1.33,1.4-.71,1.5-.47S315.36,90.42,314.63,90.91Zm2.19,1.38c-.29.89-.72,1.55-1,1.49s-.2-.81.1-1.7.71-1.55,1-1.49S317.11,91.41,316.82,92.29Zm.36-2.51a1.35,1.35,0,0,1-.77-1.85,1.64,1.64,0,0,1,1.78-1.23,1.35,1.35,0,0,1,.77,1.85A1.64,1.64,0,0,1,317.18,89.78ZM319.65,93c-.23.16-.67-.32-1-1.07s-.38-1.48-.14-1.64.68.31,1,1.06S319.89,92.79,319.65,93Zm2.64-3.6c-.09.29-.76.38-1.5.2s-1.25-.55-1.15-.83.76-.39,1.49-.2S322.39,89.06,322.29,89.35Z" style="fill:#FFA52E"></path><path d="M343.07,89.19c-.85-1.9-17.54-16.07-17.54-16.07v27.45l17.54-5.36S343.9,91.09,343.07,89.19Zm-8.73-4.58c.32-.75.76-1.23,1-1.07s.17.9-.15,1.65-.75,1.22-1,1.06S334,85.35,334.34,84.61Zm-2.8-1.91c.25-.06.67.61,1,1.5s.34,1.64.1,1.7-.67-.61-1-1.5S331.3,82.76,331.54,82.7Zm-2.72,2.41c.1-.24.77,0,1.49.46s1.23,1.1,1.13,1.35-.77,0-1.5-.47S328.72,85.36,328.82,85.11Zm-.06,4.24c-.09-.29.42-.66,1.16-.83s1.4-.09,1.49.2-.42.66-1.15.83S328.85,89.64,328.76,89.35Zm3.63,2.53c-.32.75-.76,1.23-1,1.07s-.18-.91.14-1.65.75-1.22,1-1.06S332.7,91.14,332.39,91.88Zm-.3-3.33a1.36,1.36,0,0,1,.77-1.85,1.63,1.63,0,0,1,1.78,1.23,1.35,1.35,0,0,1-.77,1.85A1.64,1.64,0,0,1,332.09,88.55Zm3.1,5.23c-.24.06-.67-.6-1-1.49s-.33-1.64-.09-1.7.66.61.95,1.49S335.43,93.73,335.19,93.78Zm2.72-2.41c-.1.25-.77,0-1.49-.46s-1.23-1.1-1.13-1.34.77,0,1.5.47S338,91.13,337.91,91.37ZM336.82,88c-.74.18-1.41.09-1.5-.2s.42-.66,1.16-.83,1.4-.09,1.5.2S337.55,87.8,336.82,88Z" style="fill:#FFA52E"></path><g style="opacity:0.1"><path d="M343.07,89.19c-.85-1.9-17.54-16.07-17.54-16.07v27.45l17.54-5.36S343.9,91.09,343.07,89.19Zm-8.73-4.58c.32-.75.76-1.23,1-1.07s.17.9-.15,1.65-.75,1.22-1,1.06S334,85.35,334.34,84.61Zm-2.8-1.91c.25-.06.67.61,1,1.5s.34,1.64.1,1.7-.67-.61-1-1.5S331.3,82.76,331.54,82.7Zm-2.72,2.41c.1-.24.77,0,1.49.46s1.23,1.1,1.13,1.35-.77,0-1.5-.47S328.72,85.36,328.82,85.11Zm-.06,4.24c-.09-.29.42-.66,1.16-.83s1.4-.09,1.49.2-.42.66-1.15.83S328.85,89.64,328.76,89.35Zm3.63,2.53c-.32.75-.76,1.23-1,1.07s-.18-.91.14-1.65.75-1.22,1-1.06S332.7,91.14,332.39,91.88Zm-.3-3.33a1.36,1.36,0,0,1,.77-1.85,1.63,1.63,0,0,1,1.78,1.23,1.35,1.35,0,0,1-.77,1.85A1.64,1.64,0,0,1,332.09,88.55Zm3.1,5.23c-.24.06-.67-.6-1-1.49s-.33-1.64-.09-1.7.66.61.95,1.49S335.43,93.73,335.19,93.78Zm2.72-2.41c-.1.25-.77,0-1.49-.46s-1.23-1.1-1.13-1.34.77,0,1.5.47S338,91.13,337.91,91.37ZM336.82,88c-.74.18-1.41.09-1.5-.2s.42-.66,1.16-.83,1.4-.09,1.5.2S337.55,87.8,336.82,88Z"></path></g><path d="M308,95.21l5.71,32.17,11.83,4.85V100.65Zm13.17,8.13c.78.23-.62,2.13-.62,2.13S320.38,103.11,321.16,103.34Zm-6.44-1.51c.82,0,0,2.22,0,2.22S313.9,101.83,314.72,101.83Zm-2.3-.09c.93-.66,1.79,2.53,1.79,2.53S311.49,102.41,312.42,101.74Zm-.68,2.21c.27-.78,2.1.71,2.1.71S311.47,104.72,311.74,104ZM322,127.51l-5.44-2.27-3.44-20,1.73.39a2.68,2.68,0,0,1,1.65-2.54c1.38-.44,3,.64,3.56,2.43a4.27,4.27,0,0,1,.22,1.34l1.72.39Zm-.77-21.2s2.18-.91,2.22-.09S321.2,106.31,321.2,106.31Zm-.25-.48s1.74-2.81,2.44-1.91S321,105.83,321,105.83Z" style="fill:#FFA52E"></path><g style="opacity:0.1"><path d="M308,95.21l5.71,32.17,11.83,4.85V100.65Zm13.17,8.13c.78.23-.62,2.13-.62,2.13S320.38,103.11,321.16,103.34Zm-6.44-1.51c.82,0,0,2.22,0,2.22S313.9,101.83,314.72,101.83Zm-2.3-.09c.93-.66,1.79,2.53,1.79,2.53S311.49,102.41,312.42,101.74Zm-.68,2.21c.27-.78,2.1.71,2.1.71S311.47,104.72,311.74,104ZM322,127.51l-5.44-2.27-3.44-20,1.73.39a2.68,2.68,0,0,1,1.65-2.54c1.38-.44,3,.64,3.56,2.43a4.27,4.27,0,0,1,.22,1.34l1.72.39Zm-.77-21.2s2.18-.91,2.22-.09S321.2,106.31,321.2,106.31Zm-.25-.48s1.74-2.81,2.44-1.91S321,105.83,321,105.83Z"></path></g><path d="M325.53,100.65v31.58l11.83-4.85,5.71-32.17Zm5,4.82s-1.4-1.9-.62-2.13S330.51,105.47,330.51,105.47Zm5.83-1.42s-.83-2.22,0-2.22S336.34,104.05,336.34,104.05Zm.5.22s.86-3.19,1.79-2.53S336.84,104.27,336.84,104.27Zm.38.39s1.82-1.49,2.09-.71S337.22,104.66,337.22,104.66Zm-8.14,2.56,1.72-.39a4.27,4.27,0,0,1,.22-1.34c.59-1.79,2.18-2.87,3.56-2.43a2.68,2.68,0,0,1,1.65,2.54l1.73-.39-3.44,20-5.44,2.27Zm-1.45-1c0-.82,2.22.09,2.22.09S327.6,107,327.63,106.22Zm0-2.3c.7-.9,2.44,1.91,2.44,1.91S327,104.82,327.66,103.92Z" style="fill:#FFA52E"></path><g style="opacity:0.2"><path d="M325.53,100.65v31.58l11.83-4.85,5.71-32.17Zm5,4.82s-1.4-1.9-.62-2.13S330.51,105.47,330.51,105.47Zm5.83-1.42s-.83-2.22,0-2.22S336.34,104.05,336.34,104.05Zm.5.22s.86-3.19,1.79-2.53S336.84,104.27,336.84,104.27Zm.38.39s1.82-1.49,2.09-.71S337.22,104.66,337.22,104.66Zm-8.14,2.56,1.72-.39a4.27,4.27,0,0,1,.22-1.34c.59-1.79,2.18-2.87,3.56-2.43a2.68,2.68,0,0,1,1.65,2.54l1.73-.39-3.44,20-5.44,2.27Zm-1.45-1c0-.82,2.22.09,2.22.09S327.6,107,327.63,106.22Zm0-2.3c.7-.9,2.44,1.91,2.44,1.91S327,104.82,327.66,103.92Z"></path></g><polygon points="325.53 132.23 325.53 136.55 310.4 129.8 313.7 127.38 325.53 132.23" style="fill:#FFA52E"></polygon><polygon points="325.53 132.23 325.53 136.55 340.65 129.8 337.36 127.38 325.53 132.23" style="fill:#FFA52E"></polygon><g style="opacity:0.1"><polygon points="325.53 132.23 325.53 136.55 340.65 129.8 337.36 127.38 325.53 132.23"></polygon></g><path d="M325.52,101.65a1,1,0,0,1-.29,0L307.18,96.1a1,1,0,0,1,.59-1.93l17.75,5.43,17.76-5.43a1,1,0,0,1,1.25.67,1,1,0,0,1-.67,1.26l-18,5.51A1,1,0,0,1,325.52,101.65Z" style="fill:#FFA52E"></path><path d="M325.53,137.56a1,1,0,0,1-.41-.09L310,130.72a1,1,0,0,1-.5-1.33,1,1,0,0,1,1.32-.5l14.72,6.56,14.71-6.56a1,1,0,0,1,1.32.5,1,1,0,0,1-.5,1.33l-15.13,6.75A.93.93,0,0,1,325.53,137.56Z" style="fill:#FFA52E"></path><rect x="324.85" width="1.34" height="74.46" style="fill:#FFA52E"></rect><path d="M325.52,70.78l-6.25-6.26,6.25-6.25,6.26,6.25Zm-4.36-6.26,4.36,4.36,4.36-4.36-4.36-4.36Z" style="fill:#FFA52E"></path><path d="M325.52,50.87l-6.25-6.26,6.25-6.25,6.26,6.25Zm-4.36-6.26L325.52,49l4.36-4.37-4.36-4.36Z" style="fill:#FFA52E"></path><path d="M45.25,129.19c-.85,1.9,0,6,0,6l17.54,5.36V113.12S46.08,127.29,45.25,129.19ZM58,125.57c.72-.5,1.39-.7,1.49-.46s-.4.85-1.12,1.34-1.39.71-1.5.47S57.28,126.07,58,125.57Zm-2.19-1.37c.29-.89.72-1.56,1-1.5s.19.82-.1,1.7-.71,1.55-1,1.5S55.52,125.07,55.81,124.2ZM53,123.54c.24-.16.68.32,1,1.07s.37,1.48.14,1.64-.68-.31-1-1.06S52.74,123.7,53,123.54Zm-2.64,3.6c.1-.29.77-.39,1.5-.2s1.26.54,1.16.83-.76.38-1.5.2S50.24,127.42,50.33,127.14Zm1.56,3.77c-.72.5-1.39.71-1.49.46s.4-.84,1.13-1.33,1.39-.71,1.49-.47S52.62,130.42,51.89,130.91Zm2.19,1.38c-.29.89-.72,1.55-.95,1.49s-.21-.81.09-1.7.72-1.55,1-1.49S54.37,131.41,54.08,132.29Zm.36-2.51a1.36,1.36,0,0,1-.77-1.85,1.64,1.64,0,0,1,1.78-1.23,1.36,1.36,0,0,1,.78,1.85A1.65,1.65,0,0,1,54.44,129.78ZM56.92,133c-.24.16-.68-.32-1-1.07s-.38-1.48-.14-1.64.68.31,1,1.06S57.15,132.79,56.92,133Zm2.63-3.6c-.09.29-.76.38-1.5.2s-1.25-.55-1.15-.83.76-.39,1.49-.2S59.65,129.06,59.55,129.35Z" style="fill:#FFA52E"></path><path d="M80.33,129.19c-.85-1.9-17.54-16.07-17.54-16.07v27.45l17.54-5.36S81.16,131.09,80.33,129.19Zm-8.73-4.58c.32-.75.76-1.23,1-1.07s.17.9-.15,1.65-.75,1.22-1,1.06S71.29,125.35,71.6,124.61Zm-2.79-1.91c.24-.06.66.61,1,1.5s.34,1.64.1,1.7-.67-.61-1-1.5S68.56,122.76,68.81,122.7Zm-2.73,2.41c.1-.24.77,0,1.49.46s1.24,1.1,1.13,1.35-.77,0-1.49-.47S66,125.36,66.08,125.11ZM66,129.35c-.09-.29.42-.66,1.16-.83s1.4-.09,1.49.2-.42.66-1.15.83S66.11,129.64,66,129.35Zm3.63,2.53c-.32.75-.76,1.23-1,1.07s-.18-.91.14-1.65.76-1.22,1-1.06S70,131.14,69.65,131.88Zm-.3-3.33a1.36,1.36,0,0,1,.77-1.85,1.65,1.65,0,0,1,1.79,1.23,1.36,1.36,0,0,1-.77,1.85A1.65,1.65,0,0,1,69.35,128.55Zm3.1,5.23c-.24.06-.67-.6-1-1.49s-.33-1.64-.09-1.7.67.61.95,1.49S72.69,133.73,72.45,133.78Zm2.72-2.41c-.1.25-.77,0-1.49-.46s-1.23-1.1-1.13-1.34.77,0,1.5.47S75.28,131.13,75.17,131.37ZM74.08,128c-.74.18-1.41.09-1.5-.2s.42-.66,1.16-.83,1.41-.09,1.5.2S74.81,127.8,74.08,128Z" style="fill:#FFA52E"></path><g style="opacity:0.1"><path d="M80.33,129.19c-.85-1.9-17.54-16.07-17.54-16.07v27.45l17.54-5.36S81.16,131.09,80.33,129.19Zm-8.73-4.58c.32-.75.76-1.23,1-1.07s.17.9-.15,1.65-.75,1.22-1,1.06S71.29,125.35,71.6,124.61Zm-2.79-1.91c.24-.06.66.61,1,1.5s.34,1.64.1,1.7-.67-.61-1-1.5S68.56,122.76,68.81,122.7Zm-2.73,2.41c.1-.24.77,0,1.49.46s1.24,1.1,1.13,1.35-.77,0-1.49-.47S66,125.36,66.08,125.11ZM66,129.35c-.09-.29.42-.66,1.16-.83s1.4-.09,1.49.2-.42.66-1.15.83S66.11,129.64,66,129.35Zm3.63,2.53c-.32.75-.76,1.23-1,1.07s-.18-.91.14-1.65.76-1.22,1-1.06S70,131.14,69.65,131.88Zm-.3-3.33a1.36,1.36,0,0,1,.77-1.85,1.65,1.65,0,0,1,1.79,1.23,1.36,1.36,0,0,1-.77,1.85A1.65,1.65,0,0,1,69.35,128.55Zm3.1,5.23c-.24.06-.67-.6-1-1.49s-.33-1.64-.09-1.7.67.61.95,1.49S72.69,133.73,72.45,133.78Zm2.72-2.41c-.1.25-.77,0-1.49-.46s-1.23-1.1-1.13-1.34.77,0,1.5.47S75.28,131.13,75.17,131.37Zm.07-4.23c.09.28-.43.66-1.16.83s-1.41.09-1.5-.2.42-.66,1.16-.83,1.41-.09,1.5.2"></path></g><path d="M45.25,135.21,51,167.38l11.83,4.85V140.65Zm13.17,8.13c.78.23-.62,2.13-.62,2.13S57.64,143.11,58.42,143.34ZM52,141.83c.82,0,0,2.22,0,2.22S51.16,141.83,52,141.83Zm-2.3-.09c.93-.66,1.79,2.53,1.79,2.53S48.75,142.41,49.68,141.74ZM49,144c.27-.78,2.1.71,2.1.71S48.73,144.72,49,144Zm10.23,23.56-5.44-2.27-3.44-20,1.73.39a2.68,2.68,0,0,1,1.65-2.54c1.38-.44,3,.64,3.56,2.43a4.27,4.27,0,0,1,.22,1.34l1.72.39Zm-.77-21.2s2.18-.91,2.22-.09S58.46,146.31,58.46,146.31Zm-.25-.48S60,143,60.65,143.92,58.21,145.83,58.21,145.83Z" style="fill:#FFA52E"></path><g style="opacity:0.1"><path d="M45.25,135.21,51,167.38l11.83,4.85V140.65Zm13.17,8.13c.78.23-.62,2.13-.62,2.13S57.64,143.11,58.42,143.34ZM52,141.83c.82,0,0,2.22,0,2.22S51.16,141.83,52,141.83Zm-2.3-.09c.93-.66,1.79,2.53,1.79,2.53S48.75,142.41,49.68,141.74ZM49,144c.27-.78,2.1.71,2.1.71S48.73,144.72,49,144Zm10.23,23.56-5.44-2.27-3.44-20,1.73.39a2.68,2.68,0,0,1,1.65-2.54c1.38-.44,3,.64,3.56,2.43a4.27,4.27,0,0,1,.22,1.34l1.72.39Zm-.77-21.2s2.18-.91,2.22-.09S58.46,146.31,58.46,146.31Zm-.25-.48S60,143,60.65,143.92,58.21,145.83,58.21,145.83Z"></path></g><path d="M62.79,140.65v31.58l11.83-4.85,5.71-32.17Zm5,4.82s-1.4-1.9-.62-2.13S67.77,145.47,67.77,145.47Zm5.84-1.42s-.83-2.22,0-2.22S73.61,144.05,73.61,144.05Zm.49.22s.86-3.19,1.8-2.53S74.1,144.27,74.1,144.27Zm.38.39s1.82-1.49,2.09-.71S74.48,144.66,74.48,144.66Zm-8.14,2.56,1.72-.39a4.58,4.58,0,0,1,.22-1.34c.59-1.79,2.19-2.87,3.56-2.43a2.68,2.68,0,0,1,1.65,2.54l1.73-.39-3.44,20-5.44,2.27Zm-1.44-1c0-.82,2.21.09,2.21.09S64.86,147,64.9,146.22Zm0-2.3c.71-.9,2.44,1.91,2.44,1.91S64.22,144.82,64.92,143.92Z" style="fill:#FFA52E"></path><g style="opacity:0.2"><path d="M62.79,140.65v31.58l11.83-4.85,5.71-32.17Zm5,4.82s-1.4-1.9-.62-2.13S67.77,145.47,67.77,145.47Zm5.84-1.42s-.83-2.22,0-2.22S73.61,144.05,73.61,144.05Zm.49.22s.86-3.19,1.8-2.53S74.1,144.27,74.1,144.27Zm.38.39s1.82-1.49,2.09-.71S74.48,144.66,74.48,144.66Zm-8.14,2.56,1.72-.39a4.58,4.58,0,0,1,.22-1.34c.59-1.79,2.19-2.87,3.56-2.43a2.68,2.68,0,0,1,1.65,2.54l1.73-.39-3.44,20-5.44,2.27Zm-1.44-1c0-.82,2.21.09,2.21.09S64.86,147,64.9,146.22Zm0-2.3c.71-.9,2.44,1.91,2.44,1.91S64.22,144.82,64.92,143.92Z"></path></g><polygon points="62.79 172.23 62.79 176.55 47.66 169.8 50.96 167.38 62.79 172.23" style="fill:#FFA52E"></polygon><polygon points="62.79 172.23 62.79 176.55 77.91 169.8 74.62 167.38 62.79 172.23" style="fill:#FFA52E"></polygon><g style="opacity:0.1"><polygon points="62.79 172.23 62.79 176.55 77.91 169.8 74.62 167.38 62.79 172.23"></polygon></g><path d="M62.78,141.65a1,1,0,0,1-.29,0L44.44,136.1a1,1,0,0,1,.59-1.93l17.75,5.43,17.76-5.43a1,1,0,0,1,.58,1.93l-18,5.51A1,1,0,0,1,62.78,141.65Z" style="fill:#FFA52E"></path><path d="M62.79,177.56a1,1,0,0,1-.41-.09l-15.12-6.75a1,1,0,1,1,.81-1.83l14.72,6.56,14.71-6.56a1,1,0,0,1,1.33.5,1,1,0,0,1-.51,1.33L63.2,177.47A1,1,0,0,1,62.79,177.56Z" style="fill:#FFA52E"></path><rect x="62.11" width="1.34" height="114.46" style="fill:#FFA52E"></rect><path d="M62.78,100.78l-6.25-6.26,6.25-6.25L69,94.52Zm-4.36-6.26,4.36,4.36,4.36-4.36-4.36-4.36Z" style="fill:#FFA52E"></path><path d="M62.78,60.87l-6.25-6.26,6.25-6.25L69,54.61Zm-4.36-6.26L62.78,59l4.36-4.37-4.36-4.36Z" style="fill:#FFA52E"></path><path d="M419.68,129.19c-.85,1.9,0,6,0,6l17.54,5.36V113.12S420.51,127.29,419.68,129.19Zm12.75-3.62c.72-.5,1.39-.7,1.49-.46s-.4.85-1.12,1.34-1.39.71-1.49.47S431.71,126.07,432.43,125.57Zm-2.19-1.37c.29-.89.72-1.56,1-1.5s.19.82-.09,1.7-.72,1.55-1,1.5S430,125.07,430.24,124.2Zm-2.84-.66c.24-.16.69.32,1,1.07s.38,1.48.14,1.64-.68-.31-1-1.06S427.17,123.7,427.4,123.54Zm-2.63,3.6c.09-.29.77-.39,1.49-.2s1.26.54,1.16.83-.76.38-1.5.2S424.67,127.42,424.77,127.14Zm1.56,3.77c-.73.5-1.4.71-1.5.46s.4-.84,1.13-1.33,1.39-.71,1.49-.47S427.05,130.42,426.33,130.91Zm2.18,1.38c-.29.89-.72,1.55-.95,1.49s-.2-.81.09-1.7.72-1.55,1-1.49S428.8,131.41,428.51,132.29Zm.36-2.51a1.36,1.36,0,0,1-.77-1.85,1.64,1.64,0,0,1,1.78-1.23,1.36,1.36,0,0,1,.78,1.85A1.65,1.65,0,0,1,428.87,129.78Zm2.48,3.17c-.24.16-.68-.32-1-1.07s-.39-1.48-.15-1.64.68.31,1,1.06S431.58,132.79,431.35,133Zm2.63-3.6c-.09.29-.76.38-1.5.2s-1.25-.55-1.15-.83.77-.39,1.5-.2S434.08,129.06,434,129.35Z" style="fill:#FFA52E"></path><path d="M454.76,129.19c-.84-1.9-17.54-16.07-17.54-16.07v27.45l17.54-5.36S455.6,131.09,454.76,129.19ZM446,124.61c.31-.75.75-1.23,1-1.07s.17.9-.14,1.65-.76,1.22-1,1.06S445.72,125.35,446,124.61Zm-2.8-1.91c.24-.06.67.61.95,1.5s.34,1.64.1,1.7-.67-.61-1-1.5S443,122.76,443.24,122.7Zm-2.73,2.41c.1-.24.77,0,1.49.46s1.24,1.1,1.13,1.35-.77,0-1.49-.47S440.41,125.36,440.51,125.11Zm-.06,4.24c-.09-.29.42-.66,1.16-.83s1.4-.09,1.49.2-.42.66-1.15.83S440.55,129.64,440.45,129.35Zm3.63,2.53c-.31.75-.76,1.23-1,1.07s-.17-.91.14-1.65.76-1.22,1-1.06S444.39,131.14,444.08,131.88Zm-.3-3.33a1.36,1.36,0,0,1,.78-1.85,1.64,1.64,0,0,1,1.78,1.23,1.36,1.36,0,0,1-.77,1.85A1.65,1.65,0,0,1,443.78,128.55Zm3.1,5.23c-.24.06-.66-.6-1-1.49s-.33-1.64-.09-1.7.67.61.95,1.49S447.12,133.73,446.88,133.78Zm2.72-2.41c-.1.25-.77,0-1.49-.46s-1.22-1.1-1.12-1.34.77,0,1.49.47S449.71,131.13,449.6,131.37Zm-1.09-3.4c-.73.18-1.4.09-1.5-.2s.42-.66,1.16-.83,1.41-.09,1.5.2S449.24,127.8,448.51,128Z" style="fill:#FFA52E"></path><g style="opacity:0.1"><path d="M454.76,129.19c-.84-1.9-17.54-16.07-17.54-16.07v27.45l17.54-5.36S455.6,131.09,454.76,129.19ZM446,124.61c.31-.75.75-1.23,1-1.07s.17.9-.14,1.65-.76,1.22-1,1.06S445.72,125.35,446,124.61Zm-2.8-1.91c.24-.06.67.61.95,1.5s.34,1.64.1,1.7-.67-.61-1-1.5S443,122.76,443.24,122.7Zm-2.73,2.41c.1-.24.77,0,1.49.46s1.24,1.1,1.13,1.35-.77,0-1.49-.47S440.41,125.36,440.51,125.11Zm-.06,4.24c-.09-.29.42-.66,1.16-.83s1.4-.09,1.49.2-.42.66-1.15.83S440.55,129.64,440.45,129.35Zm3.63,2.53c-.31.75-.76,1.23-1,1.07s-.17-.91.14-1.65.76-1.22,1-1.06S444.39,131.14,444.08,131.88Zm-.3-3.33a1.36,1.36,0,0,1,.78-1.85,1.64,1.64,0,0,1,1.78,1.23,1.36,1.36,0,0,1-.77,1.85A1.65,1.65,0,0,1,443.78,128.55Zm3.1,5.23c-.24.06-.66-.6-1-1.49s-.33-1.64-.09-1.7.67.61.95,1.49S447.12,133.73,446.88,133.78Zm2.72-2.41c-.1.25-.77,0-1.49-.46s-1.22-1.1-1.12-1.34.77,0,1.49.47S449.71,131.13,449.6,131.37Zm-1.09-3.4c-.73.18-1.4.09-1.5-.2s.42-.66,1.16-.83,1.41-.09,1.5.2S449.24,127.8,448.51,128Z"></path></g><path d="M419.68,135.21l5.71,32.17,11.83,4.85V140.65Zm13.17,8.13c.79.23-.62,2.13-.62,2.13S432.07,143.11,432.85,143.34Zm-6.44-1.51c.82,0,0,2.22,0,2.22S425.6,141.83,426.41,141.83Zm-2.3-.09c.93-.66,1.79,2.53,1.79,2.53S423.18,142.41,424.11,141.74Zm-.68,2.21c.27-.78,2.1.71,2.1.71S423.17,144.72,423.43,144Zm10.23,23.56-5.44-2.27-3.43-20,1.72.39a2.68,2.68,0,0,1,1.65-2.54c1.38-.44,3,.64,3.56,2.43a4.27,4.27,0,0,1,.22,1.34l1.72.39Zm-.77-21.2s2.19-.91,2.22-.09S432.89,146.31,432.89,146.31Zm-.24-.48s1.73-2.81,2.43-1.91S432.65,145.83,432.65,145.83Z" style="fill:#FFA52E"></path><g style="opacity:0.1"><path d="M419.68,135.21l5.71,32.17,11.83,4.85V140.65Zm13.17,8.13c.79.23-.62,2.13-.62,2.13S432.07,143.11,432.85,143.34Zm-6.44-1.51c.82,0,0,2.22,0,2.22S425.6,141.83,426.41,141.83Zm-2.3-.09c.93-.66,1.79,2.53,1.79,2.53S423.18,142.41,424.11,141.74Zm-.68,2.21c.27-.78,2.1.71,2.1.71S423.17,144.72,423.43,144Zm10.23,23.56-5.44-2.27-3.43-20,1.72.39a2.68,2.68,0,0,1,1.65-2.54c1.38-.44,3,.64,3.56,2.43a4.27,4.27,0,0,1,.22,1.34l1.72.39Zm-.77-21.2s2.19-.91,2.22-.09S432.89,146.31,432.89,146.31Zm-.24-.48s1.73-2.81,2.43-1.91S432.65,145.83,432.65,145.83Z"></path></g><path d="M437.22,140.65v31.58l11.83-4.85,5.71-32.17Zm5,4.82s-1.41-1.9-.63-2.13S442.21,145.47,442.21,145.47Zm5.83-1.42s-.83-2.22,0-2.22S448,144.05,448,144.05Zm.49.22s.87-3.19,1.8-2.53S448.53,144.27,448.53,144.27Zm.38.39s1.82-1.49,2.09-.71S448.91,144.66,448.91,144.66Zm-8.14,2.56,1.72-.39a4.58,4.58,0,0,1,.22-1.34c.59-1.79,2.19-2.87,3.57-2.43a2.69,2.69,0,0,1,1.64,2.54l1.73-.39-3.43,20-5.45,2.27Zm-1.44-1c0-.82,2.21.09,2.21.09S439.29,147,439.33,146.22Zm0-2.3c.71-.9,2.44,1.91,2.44,1.91S438.65,144.82,439.35,143.92Z" style="fill:#FFA52E"></path><g style="opacity:0.2"><path d="M437.22,140.65v31.58l11.83-4.85,5.71-32.17Zm5,4.82s-1.41-1.9-.63-2.13S442.21,145.47,442.21,145.47Zm5.83-1.42s-.83-2.22,0-2.22S448,144.05,448,144.05Zm.49.22s.87-3.19,1.8-2.53S448.53,144.27,448.53,144.27Zm.38.39s1.82-1.49,2.09-.71S448.91,144.66,448.91,144.66Zm-8.14,2.56,1.72-.39a4.58,4.58,0,0,1,.22-1.34c.59-1.79,2.19-2.87,3.57-2.43a2.69,2.69,0,0,1,1.64,2.54l1.73-.39-3.43,20-5.45,2.27Zm-1.44-1c0-.82,2.21.09,2.21.09S439.29,147,439.33,146.22Zm0-2.3c.71-.9,2.44,1.91,2.44,1.91S438.65,144.82,439.35,143.92Z"></path></g><polygon points="437.22 172.23 437.22 176.55 422.1 169.8 425.39 167.38 437.22 172.23" style="fill:#FFA52E"></polygon><polygon points="437.22 172.23 437.22 176.55 452.34 169.8 449.05 167.38 437.22 172.23" style="fill:#FFA52E"></polygon><g style="opacity:0.1"><polygon points="437.22 172.23 437.22 176.55 452.34 169.8 449.05 167.38 437.22 172.23"></polygon></g><path d="M437.22,141.65a1,1,0,0,1-.3,0l-18-5.51a1,1,0,0,1,.58-1.93l17.76,5.43L455,134.17a1,1,0,0,1,.59,1.93l-18.05,5.51A1,1,0,0,1,437.22,141.65Z" style="fill:#FFA52E"></path><path d="M437.22,177.56a1,1,0,0,1-.41-.09l-15.12-6.75a1,1,0,1,1,.82-1.83l14.71,6.56,14.71-6.56a1,1,0,1,1,.82,1.83l-15.12,6.75A1,1,0,0,1,437.22,177.56Z" style="fill:#FFA52E"></path><rect x="436.55" width="1.34" height="114.46" style="fill:#FFA52E"></rect><path d="M437.22,100.78,431,94.52l6.26-6.25,6.25,6.25Zm-4.36-6.26,4.36,4.36,4.36-4.36-4.36-4.36Z" style="fill:#FFA52E"></path><path d="M437.22,60.87,431,54.61l6.26-6.25,6.25,6.25Zm-4.36-6.26L437.22,59l4.36-4.37-4.36-4.36Z" style="fill:#FFA52E"></path></g><g id="freepik--character-2--inject-566"><path d="M312.92,456.57c2.12.68,62.46-.1,64.73-1.59.88-.55,1.28-9.35,1.45-20,0-.12,0-.23,0-.34,0-2.19.07-4.45.07-6.74,0-.32,0-.63,0-.94l-2.93-31.31-40.36.41,4,31,.05,1.22.24,6.42,0,.66s-23,10.63-25.3,12.54S310.8,455.9,312.92,456.57Z" style="fill:#eb9481"></path><path d="M332.26,439.11l-.4.19.38-.19Z" style="fill:#455a64"></path><path d="M379,439.49c-.22,8.52-.61,15-1.36,15.49-2.28,1.49-62.62,2.28-64.74,1.59s-14.23-5.84-12.83-13.53c.47-2.64,4.6-.44,9.88-.4,8.36.05,17.71-1.36,21.89-3.34-3.42,1.72-6.78,4.56-.91,5.14C337,445,366.29,443.4,379,439.49Z" style="fill:#455a64"></path><path d="M379,439.49c-.22,8.52-.61,15-1.36,15.49-1.09.72-15.58,1.27-30.57,1.59l6.18-13C362.71,442.75,372.82,441.39,379,439.49Z" style="fill:#37474f"></path><path d="M337.52,434.86H381s-6.58-101.5-6.24-103.27c.43-2.28,20.29-109.75,20.29-109.75H358.2s-22.56,99.68-23.72,109.31C332.6,346.7,337.52,434.86,337.52,434.86Z" style="fill:#FFA52E"></path><g style="opacity:0.1"><path d="M339.45,427.44c6.64-.14,4.73-.19,11.37-.25,3.25,0,24.59-.22,27.63.28.06,0,.06.13,0,.14-3,.5-24.38.31-27.63.28-6.64-.06-4.73-.12-11.37-.25A.1.1,0,0,1,339.45,427.44Z"></path><path d="M391.2,226.8c-1.62,6.28-2.82,12.69-4.18,19s-2.68,12.72-4,19.08q-4,18.88-7.94,37.77c-1.32,6.33-2.68,12.65-4,19a69.85,69.85,0,0,0-1.59,18.55c.41,12.86,1,25.71,1.48,38.56.3,7.28.6,14.56.95,21.84s.52,14.59,1.22,21.84a.07.07,0,0,0,.14,0c.11-6.49-.22-13-.41-19.51s-.42-13-.65-19.5q-.72-19.32-1.5-38.62c-.26-6.32-.58-12.6.47-18.86s2.54-12.59,3.85-18.87q3.94-18.88,7.89-37.78,2.18-10.5,4.36-21c1.47-7.12,3.12-14.24,4.28-21.42A.19.19,0,0,0,391.2,226.8Z"></path></g><path d="M369.27,457.15c2.11.69,62.46.13,64.74-1.35.88-.55,1.31-9.35,1.52-20,0-.11,0-.22,0-.33,0-2.2-4.61-39-4.61-39l-39.44.26,5.11,38.66,0,.66s-23,10.55-25.34,12.44S367.15,456.47,369.27,457.15Z" style="fill:#eb9481"></path><path d="M435.44,440.3c-.24,8.52-.65,15-1.4,15.49-2.29,1.49-62.63,2.12-64.74,1.43s-14.22-5.89-12.8-13.57c.48-2.64,4.61-.43,9.89-.38,8.36.08,17.71-1.31,21.89-3.28-3.43,1.71-6.79,4.54-.92,5.14C393.42,445.74,422.7,444.18,435.44,440.3Z" style="fill:#455a64"></path><path d="M359.39,221.84s.85,17.62,4.88,31.58c.32,1.15.67,2.29,1.05,3.38a65.5,65.5,0,0,1,10.62,5.45s5.64,68,6.59,75.47c2,15.52,9.3,97.77,9.3,97.77l47.16.18s-17.23-96.07-17.18-101.81c.09-9.21-15.24-112-15.24-112Z" style="fill:#FFA52E"></path><g style="opacity:0.1"><path d="M397,427.77c6.64-.11,4.73-.18,11.37-.21,3.25,0,24.59-.12,27.63.4.06,0,.06.12,0,.14-3,.49-24.39.21-27.63.16-6.64-.09-4.74-.13-11.37-.3A.1.1,0,1,1,397,427.77Z"></path><path d="M363.52,255.75a81.07,81.07,0,0,1,12.42,6.5c.15.1,0,.34-.13.26-4.19-2-8.47-4-12.55-6.26A.28.28,0,0,1,363.52,255.75Z"></path><path d="M363.27,240.8c.29,1.54.66,3.07,1,4.61s.54,2.91.92,4.33a7.36,7.36,0,0,0,2,3.63c.57.53,1.19,1,1.79,1.47.32.26.68.51,1,.77,0-.2-.08-.41-.11-.62-.11-.58-.2-1.17-.3-1.75-.22-1.31-.43-2.61-.63-3.91-.39-2.56-.75-5.15-1.29-7.69,0-.1.14-.14.16,0,.64,2.51,1.35,5,1.9,7.54.28,1.24,1.25,7.38,1.29,7.81s.08.9.1,1.35a5.31,5.31,0,0,1,0,1.38c0,.11-.16.09-.21,0h0a5.09,5.09,0,0,1-.39-1.33c-.12-.44-.22-.88-.3-1.33,0-.16-.05-.33-.07-.49-.6-.37-1.17-.85-1.73-1.26s-1.23-.87-1.81-1.36a6.94,6.94,0,0,1-2.2-3.44,25.33,25.33,0,0,1-.73-4.42c-.19-1.74-.33-3.49-.58-5.23C363.1,240.74,363.25,240.69,363.27,240.8Z"></path><path d="M418,345.62c-3.8-25.64-6.92-51.36-9.74-77.12-1.6-14.61-3-29.25-4.89-43.83,0-.12-.2-.12-.19,0,1,13.07,2.33,26.12,3.68,39.16s2.83,26.07,4.4,39.09c3.1,25.69,6.77,51.31,11.25,76.79q3.8,21.56,8.31,42.94c0,.12.2.06.18-.06Q423.7,384.27,418,345.62Z"></path><path d="M380.55,312.63c-.28-4-.56-8.07-.91-12.1-.69-8.07-1.46-16.14-2.44-24.18-.55-4.55-.69-9.52-1.42-14,0-.09-.15-.09-.14,0,.55,8.07.83,16.56,1.62,24.61.4,4,.77,8.06,1.16,12.09s.71,8.08,1.19,12.1c.54,4.54.8,9.12,1.43,13.64,0,.11.18.11.17,0C381.16,320.71,380.82,316.66,380.55,312.63Z"></path></g><path d="M378.63,174c1.52,13.41-8.83,46.6-14.08,50.86-1.36,1.11-7.32,3.23-10.6,2.59-6.66-1.3-18.89-13.86-27.64-25.64-2.84-3.82,14-13.51,19.06-13.12,1.93.16,9.26,10.92,9.81,10.24,2.83-3.47,13.37-23.61,15.14-26C375.09,166.53,378,168.45,378.63,174Z" style="fill:#eb9481"></path><path d="M328.6,204.58c-4.14-3.72-8.92-14.28-11.18-21.21-1.19-3.67-3.08-14.29-1.14-15.19,1.76-.82,3.33,2.1,3.33,2.1s-.23-5.3,1.52-5.9c2.56-.88,3.69,3.78,3.69,3.78s-.64-4.83,1.9-5.74,3.75,4.13,3.75,4.13-.78-4.4,1.67-4.17c2.95.27,3.56,8.49,5.51,12.29.44.86,6.76,17.45,6.76,17.45Z" style="fill:#eb9481"></path><path d="M319.54,170.33a45.33,45.33,0,0,0,4.39,12.34c.56,1.12,1.2,2.19,1.78,3.29,0,0,.09,0,.06,0a63.26,63.26,0,0,1-2.57-6.06c-.78-2-1.49-4.06-2.24-6.09-.43-1.15-.82-2.32-1.23-3.47C319.69,170.2,319.52,170.22,319.54,170.33Z" style="fill:#263238"></path><path d="M324.71,168a29.84,29.84,0,0,0,.66,3q.44,1.53,1,3a53,53,0,0,0,2.49,5.67c.54,1.07,1.16,2.08,1.76,3.1,0,.08.14,0,.11-.07-.93-1.84-1.73-3.77-2.51-5.68s-1.47-3.82-2.16-5.75L324.87,168C324.84,167.93,324.69,168,324.71,168Z" style="fill:#263238"></path><path d="M330.42,166.36a45.79,45.79,0,0,0,1.78,7,62.17,62.17,0,0,0,2.72,6.8c0,.05.09,0,.07,0-.72-2.31-1.49-4.6-2.21-6.91s-1.46-4.6-2.28-6.87C330.49,166.3,330.42,166.31,330.42,166.36Z" style="fill:#263238"></path><path d="M348.32,191.46s.72-7.09-.37-10.2-8.76-12.61-10.63-10.61c-2.42,2.59,1.07,9.2,3.14,12.15,0,0-5.59,6-4,11.43S348.32,191.46,348.32,191.46Z" style="fill:#eb9481"></path><path d="M336.84,171.62c-.89,4.21,2,7.84,3.86,10.89a.4.4,0,0,1-.14.56c-2.21,2.69-4.73,7.23-4.25,11.07,0,.11-.11.16-.14.05-1-4,1.2-8.69,3.77-11.45-1.91-3.09-4.71-6.9-3.13-11.13C336.81,171.58,336.84,171.59,336.84,171.62Z" style="fill:#263238"></path><path d="M349.49,192.18,332,213a16.9,16.9,0,0,0,4.91,7c5.59,4.45,14.69,8.28,18.2,8.11,5.68-.27,9.62-2.3,11.35-4.53s12-26.32,12.74-42.26-5.06-17.12-11.14-6-12.4,22.93-12.88,22.72c-.18-.07-1.24-1.53-2.09-2.54A26.88,26.88,0,0,0,349.49,192.18Z" style="fill:#37474f"></path><path d="M340.38,214c1.11-1.28,2.19-2.59,3.26-3.91,2.12-2.6,4.23-5.21,6.26-7.88,1.15-1.5,2.26-3,3.39-4.55.07-.09-.06-.18-.13-.1-2.19,2.55-4.41,5.08-6.53,7.69s-4.21,5.22-6.24,7.89c-1.14,1.51-2.2,3.09-3.38,4.56a.06.06,0,0,0,.09.07C338.14,216.48,339.3,215.26,340.38,214Z" style="fill:#263238"></path><path d="M355.18,198a8.54,8.54,0,0,1,2.38,3.34,8.73,8.73,0,0,1-2.38-3.34Z" style="fill:#263238"></path><path d="M379.2,181.3c-.76,15.94-11,40-12.74,42.26s-5.67,4.26-11.35,4.53c-1.71.08-4.76-.79-8.07-2.22l27.13-57.66C377.46,166.89,379.7,171,379.2,181.3Z" style="fill:#263238"></path><path d="M425.13,321.36c0-.07-7.2,7.4-22,10.45L398,299.71c-1.42,2-3.62,33.63-4.51,33.69-22.92,1.4-59.33-8.26-59.43-8.36-.47-.47,33-143.62,36.09-153.24,1.4-4.29,10.17-7.47,14.92-4.69C404.53,178.53,425.14,321.59,425.13,321.36Z" style="fill:#37474f"></path><path d="M390.19,335.44c-26,0-56.18-8.23-57.51-8.59l1.07-3.86c.32.09,32.26,8.79,58,8.44l6.06-35.37,6.86,33.27a80.49,80.49,0,0,0,20.66-9.47l2.18,3.35a81.19,81.19,0,0,1-23.94,10.55l-2,.44-3.42-16.56-3,17.71-1.64,0C392.44,335.43,391.32,335.44,390.19,335.44Z" style="fill:#263238"></path><path d="M373.73,176.43c3.22.31,8.55-5.68,10.13-9.83a64.85,64.85,0,0,0-1.48-6.39c-.48-2-1-4.33-1.25-6.45l-12.86,5.05a34,34,0,0,1,2.4,8,4.39,4.39,0,0,1,0,.88v.15C370.66,169.5,370.62,176.13,373.73,176.43Z" style="fill:#eb9481"></path><path d="M370.7,167.66v.15a8.61,8.61,0,0,0,1.38-.11c7.65-1.23,8.68-11.07,8.82-13.85l-3.85,1.52h0l-8.77,3.45a33.83,33.83,0,0,1,2.4,8A4.39,4.39,0,0,1,370.7,167.66Z" style="fill:#263238"></path><path d="M380.23,138.35c2.3,4.41,2.36,18.39-.41,22-4,5.28-11.83,7.17-16.62,2.07-4.65-4.95-4.41-23.17-1.2-26.61C366.72,130.78,376.82,131.83,380.23,138.35Z" style="fill:#eb9481"></path><path d="M369.92,148.87s.08,0,.08.09c0,.94.11,2,1,2.32,0,0,0,.06,0,.06C369.92,151.2,369.75,149.76,369.92,148.87Z" style="fill:#263238"></path><path d="M370.76,147.88c1.51-.13,1.65,2.91.25,3S369.49,148,370.76,147.88Z" style="fill:#263238"></path><path d="M364.53,149s-.07,0-.07.09c.08.94,0,2-.83,2.38,0,0,0,.06,0,0C364.67,151.35,364.75,149.9,364.53,149Z" style="fill:#263238"></path><path d="M363.64,148.08c-1.51,0-1.49,3-.08,3S364.92,148.12,363.64,148.08Z" style="fill:#263238"></path><path d="M371.89,146.44c-.42-.09-.79-.24-1.2-.36a2,2,0,0,1-1.15-.6.63.63,0,0,1,.07-.78,1.57,1.57,0,0,1,1.59-.24,2.36,2.36,0,0,1,1.4.94A.69.69,0,0,1,371.89,146.44Z" style="fill:#263238"></path><path d="M362.4,146.61c.41-.09.78-.24,1.19-.37a2.06,2.06,0,0,0,1.14-.61.63.63,0,0,0-.07-.78,1.61,1.61,0,0,0-1.6-.23,2.35,2.35,0,0,0-1.39,1A.69.69,0,0,0,362.4,146.61Z" style="fill:#263238"></path><path d="M371.27,157.14c-.22.23-.43.54-.77.59a2.6,2.6,0,0,1-1-.19,0,0,0,0,0,0,.05,1.26,1.26,0,0,0,1.22.45,1,1,0,0,0,.7-.87S371.3,157.1,371.27,157.14Z" style="fill:#263238"></path><path d="M370.14,154.37a3.18,3.18,0,0,1-2.06,1.52,3.72,3.72,0,0,1-1.15.11h-.23l-.2,0a.23.23,0,0,1-.2-.21h0v-.1h0v-.08c-.05-.72,0-1.83,0-1.83-.26.15-1.58.82-1.57.44a47.75,47.75,0,0,1,.77-9.75.09.09,0,0,1,.18,0c.08,3-.37,6-.33,9.07a5.4,5.4,0,0,1,1.49-.54c.1,0-.07,2.14,0,2.46v0a4.48,4.48,0,0,0,3.26-1.19C370.12,154.23,370.2,154.29,370.14,154.37Z" style="fill:#263238"></path><path d="M367.34,155.62a3.79,3.79,0,0,0,1.57,1.1,1.78,1.78,0,0,0,1,0c.74-.24.72-.93.56-1.51a4.47,4.47,0,0,0-.38-.89A5,5,0,0,1,367.34,155.62Z" style="fill:#263238"></path><path d="M368.91,156.72a1.78,1.78,0,0,0,1,0c.74-.24.72-.93.56-1.51A1.77,1.77,0,0,0,368.91,156.72Z" style="fill:#ff97b8"></path><path d="M381.91,147.91c-1,1.89-2.28,1.53-2.51,2a3.59,3.59,0,0,0-.07,1.7c0,.21-1.15.68-1.57.07a45.92,45.92,0,0,1-.89-4.91c-.8-4.91-2.66-7.25-5.87-7.46-3.39-.22-4.64,1.4-6.3,1.37-2.16,0-2-.92-3.14-.87-.71,0-1.5,1.74-1.63,2.64.37-3.06,1.07-5.55,2.07-6.61,4.72-5.06,14.82-4,18.23,2.52C381.23,140.27,381.81,144,381.91,147.91Z" style="fill:#263238"></path><path d="M378.78,149.51s2.34-4.9,4.51-4.14.93,7.51-1.27,8.77a2.4,2.4,0,0,1-3.39-.75Z" style="fill:#eb9481"></path><path d="M382.89,147.3s.05,0,0,.06a6.09,6.09,0,0,0-2.48,4.27,1.33,1.33,0,0,1,1.9-.68c.05,0,0,.1,0,.09a1.49,1.49,0,0,0-1.52.78,7.32,7.32,0,0,0-.56,1.43c-.05.16-.32.13-.3-.05v0C379.54,151.08,380.68,147.88,382.89,147.3Z" style="fill:#263238"></path><path d="M360.42,139.69s11.43-4.05,21.06,3.13c0,0-.32-11.78-10.93-11.28C360.87,132,360.42,139.69,360.42,139.69Z" style="fill:#c7c7c7"></path><path d="M370.41,173.52a34.82,34.82,0,0,1-.41-4.6c.07-.27,1.41.36,1.68.36s1.33,4.57,1.33,4.57,0-4.61.33-4.91,9.27-7.44,10-7.55.7,5.86.7,5.86-3,8.65-9.51,9.68C370.8,177.51,370.41,173.52,370.41,173.52Z" style="fill:#37474f"></path><path d="M390.1,177.53c1.87,14.7-2.06,45-7.38,48.73-1.44,1-6.17,4-9.5,3.65-10-.9-24.43-13.64-33.86-23.34-3.32-3.41,12.29-18.61,16.5-15.86,2.53,1.65,13.94,12.64,14.45,12,2.67-3.59,9.41-26.71,10.7-29.55C384.84,164.71,389.12,169.9,390.1,177.53Z" style="fill:#eb9481"></path><path d="M356.93,192.6s-3.49-8.07-6-13.24c-1.41-2.88-4.27-7.61-6.28-9.25-3-2.46-17.13-10.83-19.23-7.45-1.9,3.06,11.15,8.71,11.15,8.71s-12.67-6.87-14.28-2.76,14,8.53,14,8.53-13.17-6.76-14.17-2.26c-.75,3.4,13.15,8.2,13.15,8.2s-11.36-5.74-12.29-2.27c-1,3.82,11.53,9.06,11.53,9.06-.87,9.2,2.27,13.78,5.06,16.87C340.19,207.48,356.93,192.6,356.93,192.6Z" style="fill:#eb9481"></path><path d="M341.07,173.46c-1.46-.86-2.93-1.74-4.46-2.47s-3.09-1.4-4.68-2a29.31,29.31,0,0,0-6.4-1.68,62.14,62.14,0,0,1,10.89,4.09c1.53.73,3.09,1.38,4.62,2.1C341.08,173.54,341.1,173.48,341.07,173.46Z" style="fill:#263238"></path><path d="M338.54,179c-1.91-1-3.77-2.09-5.72-3s-3.87-1.64-5.88-2.43c-.15-.06-.14,0,0,.11,2,.87,3.72,1.83,5.68,2.72s4,1.72,5.88,2.68C338.55,179.1,338.57,179.05,338.54,179Z" style="fill:#263238"></path><path d="M337.23,184.2a48.68,48.68,0,0,0-9.1-4c-.16-.05-.12.08,0,.14,3.06,1.26,5.46,2.23,9,3.92C337.23,184.33,337.29,184.24,337.23,184.2Z" style="fill:#263238"></path><path d="M361.78,225.36c-1.26-.91-2.56-1.75-3.82-2.66s-2.51-1.81-3.75-2.74a90.52,90.52,0,0,1-7.14-6,87.06,87.06,0,0,1-6.46-6.71,25.42,25.42,0,0,1-4.85-7.87,21.4,21.4,0,0,1-1.11-4.81,48.45,48.45,0,0,1-.17-5c0-.25-1.61-.75-1.93-.89-.64-.29-1.27-.56-1.89-.87a32.2,32.2,0,0,1-3.61-2.08,13.11,13.11,0,0,1-3.21-2.77c-.63-.82-1.15-2.3.15-2.8a5.11,5.11,0,0,1,2.27,0,21.29,21.29,0,0,1,2.52.39h.05c.05,0,.09-.07,0-.1-1.13-.59-2.23-1.25-3.31-1.94-.54-.34-1.07-.69-1.59-1.07a4.68,4.68,0,0,1-1.39-1.34,1.81,1.81,0,0,1-.23-1.47,1.79,1.79,0,0,1,1.31-1,6.32,6.32,0,0,1,3.5.17s0,0,0-.05l-.27-.11s0,0,0,0a13.42,13.42,0,0,1-2.56-1.57,4.26,4.26,0,0,1-1.94-2.33,1.79,1.79,0,0,1,1.41-2.06,5.31,5.31,0,0,1,1.54-.11,17,17,0,0,1,1.73.2s0,0,0,0c-.62-.19-1.25-.33-1.88-.47a4,4,0,0,0-1.69,0,2,2,0,0,0-1.74,2.16,3.8,3.8,0,0,0,1.74,2.57,14.73,14.73,0,0,0,2.57,1.43,5.38,5.38,0,0,0-2.64-.12,2,2,0,0,0-1.6,2.47c.35,1.35,1.76,2.16,2.86,2.85a21.57,21.57,0,0,0,3.2,1.66,8.86,8.86,0,0,0-3.65-.58,1.87,1.87,0,0,0-1.62,2.51,6.94,6.94,0,0,0,2.6,3.24,26.77,26.77,0,0,0,4,2.59c.79.41,1.59.79,2.41,1.14a21.1,21.1,0,0,0,2.25.78,17.39,17.39,0,0,0,.68,8.55,23.52,23.52,0,0,0,4.22,8.12,70.69,70.69,0,0,0,6.56,7.07,85.36,85.36,0,0,0,7.25,6.18c1.42,1.08,2.87,2.13,4.39,3.07a44.65,44.65,0,0,0,4.67,2.63A.07.07,0,1,0,361.78,225.36Z" style="fill:#263238"></path><path d="M331.8,169a12.73,12.73,0,0,1-2.53-1.51,21,21,0,0,1-2.28-1.8c-.6-.55-1.42-1.21-1.55-2.06-.21-1.4,1.38-1.75,2.43-1.58h0a2.38,2.38,0,0,0-2.5.68c-.63.83-.12,1.81.47,2.5a14.53,14.53,0,0,0,2.62,2.27,11.37,11.37,0,0,0,1.55.9c.56.28,1.17.45,1.74.71C331.82,169.08,331.87,169,331.8,169Z" style="fill:#263238"></path><path d="M370.09,202c-.66-.12-3.24-4.45-6.35-7.17a13.37,13.37,0,0,0-5.42-2.67L344.43,216a13.21,13.21,0,0,0,5.13,6.38c7.39,4.55,20.42,8.87,25,8.05,6.87-1.25,9.43-3.87,10.7-6.5s6.65-24.54,5.66-41.33-8.36-17.84-11.69-5.45A175.9,175.9,0,0,1,370.09,202Z" style="fill:#37474f"></path><path d="M369.92,202.37c.48-1.59,1-3.14,1.59-4.7s1.15-3.09,1.75-4.63,1.24-3.06,1.9-4.57,1.33-3,2-4.53c-.39,1.61-.93,3.18-1.47,4.74s-1.14,3.1-1.74,4.64-1.24,3.06-1.92,4.57S370.68,200.9,369.92,202.37Z" style="fill:#263238"></path><path d="M391.35,191.68c-.73,6.68-1.59,13.35-2.72,20a91.21,91.21,0,0,1-2.13,9.89,14.69,14.69,0,0,1-.89,2.42,9.48,9.48,0,0,1-1.52,2.13,14.18,14.18,0,0,1-4.19,3,18.7,18.7,0,0,1-4.88,1.58,8.15,8.15,0,0,1-2.61.09c-.84-.09-1.68-.22-2.51-.37a62.08,62.08,0,0,1-9.78-2.6,47,47,0,0,1-9.16-4.31,21.16,21.16,0,0,1-4-3.15,10.05,10.05,0,0,1-2.61-4.3v0l1.5-2.48L344.48,216v0a9.94,9.94,0,0,0,2.7,4.14,23.82,23.82,0,0,0,4,3,46.52,46.52,0,0,0,9.14,4.08,64.84,64.84,0,0,0,9.7,2.5c.82.14,1.65.26,2.47.35a7.26,7.26,0,0,0,2.41-.11,19,19,0,0,0,4.68-1.53,13.37,13.37,0,0,0,4-2.8,8.24,8.24,0,0,0,1.42-2,13,13,0,0,0,.86-2.29c.95-3.2,1.57-6.51,2.22-9.8s1.18-6.61,1.72-9.92S390.86,195,391.35,191.68Z" style="fill:#263238"></path><path d="M391.68,196.22a4.76,4.76,0,0,1-.16,1.2,11.64,11.64,0,0,1-.34,1.15,8.48,8.48,0,0,1-1.09,2.14,12.9,12.9,0,0,1,.62-2.31,11.55,11.55,0,0,1,.45-1.1C391.32,196.93,391.5,196.58,391.68,196.22Z" style="fill:#263238"></path><path d="M353.1,215.41c.86-1.46,1.68-2.94,2.49-4.43,1.6-2.95,3.2-5.9,4.71-8.9.85-1.69,1.66-3.4,2.5-5.09a.09.09,0,0,0-.15-.08c-1.69,2.91-3.4,5.8-5,8.76s-3.18,5.9-4.69,8.9c-.85,1.69-1.59,3.44-2.48,5.1,0,.07.06.11.1.05C351.35,218.26,352.26,216.85,353.1,215.41Z" style="fill:#263238"></path><path d="M358.32,192.16a11.67,11.67,0,0,1,5.48,2.33,57.59,57.59,0,0,1,4.09,4.35l3.85,4.5c.64.75,1.28,1.5,1.95,2.23a18.66,18.66,0,0,0,2.07,2.1,25.27,25.27,0,0,1-4.44-3.95c-1.38-1.42-2.69-2.9-4-4.39s-2.56-3-3.9-4.41a10.35,10.35,0,0,0-2.38-1.63A17.52,17.52,0,0,0,358.32,192.16Z" style="fill:#263238"></path></g><g id="freepik--character-1--inject-566"><path d="M181.84,452.15c-2,.62-59.39-.9-61.54-2.34-.81-.53-1.08-8.91-1.12-19,0-2.19.74-37.4.74-37.4l37.34.88-1.09,37.38s21.7,10.41,23.89,12.24S183.85,451.54,181.84,452.15Z" style="fill:#d3766a"></path><path d="M119.21,435.22c.1,8,.4,14.14,1.09,14.6,2.15,1.44,59.51,2.95,61.54,2.33s.39-6.43-1.78-8.25c-1.21-1-8.31-4.61-14.45-7.65,2.13,1.4,4.86,3.38,4.58,4.51C169.66,443,141.06,443.75,119.21,435.22Z" style="fill:#263238"></path><path d="M107.45,225.19s12.73,109.59,13,110.85c0,.12-5.58,44.11-5.92,68.11a39.32,39.32,0,0,0,4.8,18.29h37.15A26.35,26.35,0,0,0,161,408.53c.71-21.1-2.21-64.12-3.31-74.74-2-18.89-18.6-108.4-18.6-108.4Z" style="fill:#263238"></path><path d="M118.73,350.63c1-8.58,1.69-14.46,1.69-14.58-.23-1.27-13-110.86-13-110.86l29.91.19Z" style="opacity:0.1"></path><path d="M102.85,457.49c-2.11-.07-56.84-20.78-58.41-22.84-.6-.78,20.81-52.22,20.81-52.22L101,395.7,86.46,430.93s15.93,15.73,17.4,18.17S105,457.56,102.85,457.49Z" style="fill:#d3766a"></path><path d="M44.44,434.64c1.57,2.07,56.3,22.77,58.42,22.86s2.47-6,1-8.4c-.85-1.42-6.54-7.27-11.18-12,1.56,2.07,3.72,5.17,3,6.2-1.26,1.9-28.47-7.31-46-22.93C46.56,428.32,44.24,434.38,44.44,434.64Z" style="fill:#263238"></path><path d="M139.07,225.39s2.94,19.73-2.9,27.07c-1.39,1.75-5.68,3.38-7.9,5,0,0-7.85,75-9.45,83.84-2.61,14.39-12.62,53.05-20.17,72-2.7,6.77-9.17,10.34-9.17,10.34L53.79,410.3s.07-13.13,2.19-19c5.7-15.74,19.91-42.05,22.15-53.65.68-3.56,8.45-74.16,8.24-75.71-2.47-18.45,9.44-36.82,9.44-36.82Z" style="fill:#263238"></path><path d="M115.45,178.26c.57,13.49,15.92,44.68,21.77,48.08,1.51.88,7.73,2.06,10.87.92,6.38-2.31,16.52-16.61,23.35-29.6,2.22-4.21-16-11.18-20.85-10-1.89.45-6.64,11.59-7.29,11-3.33-3-17.69-20.64-19.81-22.71C117.8,170.36,115.22,172.7,115.45,178.26Z" style="fill:#d3766a"></path><path d="M169.6,200.77c3.52-4.32,6.62-15.49,7.77-22.69.62-3.81.84-14.58-1.21-15.17-1.87-.54-3,2.59-3,2.59s-.6-5.28-2.42-5.6c-2.66-.48-3.07,4.3-3.07,4.3s-.1-4.87-2.76-5.37-3.06,4.65-3.06,4.65.09-4.47-2.3-3.86c-2.88.72-2.2,8.94-3.54,13-.3.92-4,18.29-4,18.29Z" style="fill:#d3766a"></path><path d="M173.27,165.53a45.84,45.84,0,0,1-2.43,12.88c-.39,1.18-.85,2.34-1.25,3.52a0,0,0,1,1-.07,0,61.35,61.35,0,0,0,1.6-6.38c.46-2.12.85-4.25,1.28-6.37.24-1.21.45-2.42.68-3.62C173.1,165.42,173.27,165.42,173.27,165.53Z" style="fill:#263238"></path><path d="M167.81,164.07c0,1-.07,2-.19,3s-.3,2.1-.51,3.15a53.91,53.91,0,0,1-1.59,6c-.37,1.13-.83,2.23-1.26,3.34,0,.07-.14,0-.12-.06.64-2,1.13-4,1.61-6s.86-4,1.23-6c.22-1.15.45-2.31.67-3.46C167.66,164,167.81,164,167.81,164.07Z" style="fill:#263238"></path><path d="M161.9,163.28a45.56,45.56,0,0,1-.68,7.18,63,63,0,0,1-1.63,7.14c0,.05-.09,0-.08,0,.36-2.39.76-4.78,1.12-7.17s.73-4.77,1.19-7.14C161.83,163.24,161.9,163.24,161.9,163.28Z" style="fill:#263238"></path><path d="M148.09,190.85s-1.8-6.89-1.2-10.13,6.7-13.81,8.86-12.12c2.79,2.18.36,9.25-1.23,12.48,0,0,6.46,5,5.69,10.69S148.09,190.85,148.09,190.85Z" style="fill:#d3766a"></path><path d="M156.38,169.48c1.52,4-.81,8.06-2.14,11.36a.4.4,0,0,0,.23.53c2.6,2.31,5.79,6.41,5.9,10.28,0,.11.14.14.15,0,.35-4.1-2.52-8.39-5.49-10.73,1.41-3.34,3.58-7.54,1.38-11.48C156.39,169.44,156.37,169.45,156.38,169.48Z" style="fill:#263238"></path><path d="M147.05,191.75l20.5,17.89s-14.85,17.84-20.5,18.45-9.87-.79-11.92-2.72-15.9-24.16-19.11-39.79,2.35-17.69,10.08-7.64,16.63,20.39,17.07,20.11S147.05,191.75,147.05,191.75Z" style="fill:#FFA52E"></path><path d="M140.25,203c.72-1.3,1.47-2.59,2.23-3.87s2.17-3.34,3-4.65c0-.05.12,0,.09,0-.78,1.32-1.8,3.65-2.58,5s-1.56,2.6-2.36,3.89-1.57,2.57-2.43,3.79c0,0-.11,0-.09-.06C138.75,205.65,139.51,204.3,140.25,203Z" style="fill:#263238"></path><path d="M138.74,211.15l2.56,15.28-46.25-.65s-2.17-29.58,8.74-48.05c5.34-9.06,12.5-8.79,17.91-4.46,1.37,1.1,17,16,19.4,23.19C143.21,202.8,138.74,211.15,138.74,211.15Z" style="fill:#FFA52E"></path><path d="M131.76,208.64a43.17,43.17,0,0,0-6.68,1.92c-1.08.42-2.13.89-3.18,1.39-.52.25-1,.48-1.58.71a7.39,7.39,0,0,1-1.71.54c-.06,0,0,.09,0,.08a10.57,10.57,0,0,0,1.68-.21,12.06,12.06,0,0,0,1.58-.49c1.1-.42,2.17-.89,3.27-1.32,2.2-.87,4.4-1.73,6.66-2.42C131.92,208.81,131.87,208.62,131.76,208.64Z" style="fill:#263238"></path><path d="M137.66,210.21a49.71,49.71,0,0,0-5.72.31c-.95.12-1.88.29-2.82.49-.45.09-.89.19-1.34.3s-1,.31-1.45.43c0,0,0,.09,0,.08.47-.09,1-.1,1.42-.16l1.41-.19,2.84-.37c1.89-.27,3.77-.52,5.67-.72C137.78,210.37,137.76,210.21,137.66,210.21Z" style="fill:#263238"></path><path d="M155.81,310.94s-32.87,7.14-45.39,5.75a42.64,42.64,0,0,1-7.37-1.63l-2.39-40-8.75,35.78c-8.41-3.64-15.5-7.6-15.5-7.6s6.68-31.38,7.26-41.52c1.41-24.31,11.38-36,11.38-36l46.25.64C147.16,247.16,155.81,310.94,155.81,310.94Z" style="fill:#FFA52E"></path><path d="M112.28,318.8A40.84,40.84,0,0,1,102.4,317l-1.23-.42L99,292.9l-5.69,20.3-1.81-.36c-2.84-.56-14.73-7-17.09-8.32l1.92-3.5c5.25,2.87,11.19,5.93,14.21,7.25l10.49-37.39,3.86,42.65a37.81,37.81,0,0,0,9.35,1.34c5.39.05,20.78-2,41.84-6.55l.84,3.91c-18.29,4-35.86,6.7-42.71,6.64C113.57,318.86,112.92,318.84,112.28,318.8Z" style="fill:#FFA52E"></path><path d="M112.28,318.8A40.84,40.84,0,0,1,102.4,317l-1.23-.42L99,292.9l-5.69,20.3-1.81-.36c-2.84-.56-14.73-7-17.09-8.32l1.92-3.5c5.25,2.87,11.19,5.93,14.21,7.25l10.49-37.39,3.86,42.65a37.81,37.81,0,0,0,9.35,1.34c5.39.05,20.78-2,41.84-6.55l.84,3.91c-18.29,4-35.86,6.7-42.71,6.64C113.57,318.86,112.92,318.84,112.28,318.8Z" style="opacity:0.1"></path><g style="opacity:0.1"><path d="M113.91,306.9a1.22,1.22,0,1,1-1.22-1.21A1.22,1.22,0,0,1,113.91,306.9Z"></path><ellipse cx="112.69" cy="302.79" rx="0.37" ry="1.77"></ellipse><path d="M110,303.74c.69.69,1.13,1.36,1,1.51s-.82-.31-1.51-1-1.13-1.37-1-1.51S109.35,303.05,110,303.74Z"></path><path d="M108.57,306.54c1,0,1.77.16,1.77.36s-.79.37-1.77.37-1.76-.16-1.76-.37S107.6,306.54,108.57,306.54Z"></path><path d="M109.52,309.55c.69-.69,1.36-1.13,1.51-1s-.3.82-1,1.51-1.37,1.13-1.51,1S108.83,310.24,109.52,309.55Z"></path><path d="M112.32,311c0-1,.16-1.77.37-1.77s.36.79.36,1.77-.16,1.76-.36,1.76S112.32,312,112.32,311Z"></path><path d="M115.34,310.07c-.69-.69-1.14-1.36-1-1.51s.81.3,1.5,1,1.14,1.37,1,1.51S116,310.76,115.34,310.07Z"></path><path d="M116.8,307.27c-1,0-1.77-.16-1.77-.37s.79-.36,1.77-.36,1.76.16,1.76.36S117.77,307.27,116.8,307.27Z"></path><path d="M115.85,304.26c-.69.68-1.36,1.13-1.5,1s.3-.82,1-1.51,1.36-1.13,1.5-1S116.54,303.57,115.85,304.26Z"></path></g><g style="opacity:0.1"><path d="M131.09,305.14a1.22,1.22,0,1,1-1.22-1.22A1.22,1.22,0,0,1,131.09,305.14Z"></path><path d="M130.23,301c0,1-.16,1.76-.36,1.76s-.37-.79-.37-1.76.17-1.77.37-1.77S130.23,300.05,130.23,301Z"></path><path d="M127.22,302c.69.69,1.13,1.37,1,1.51s-.82-.3-1.51-1-1.13-1.36-1-1.51S126.53,301.28,127.22,302Z"></path><path d="M125.76,304.77c1,0,1.76.17,1.76.37s-.79.37-1.76.37-1.77-.17-1.77-.37S124.78,304.77,125.76,304.77Z"></path><path d="M126.7,307.79c.69-.69,1.37-1.13,1.51-1s-.3.82-1,1.51-1.37,1.13-1.51,1S126,308.48,126.7,307.79Z"></path><path d="M129.5,309.25c0-1,.17-1.76.37-1.76s.36.79.36,1.76-.16,1.77-.36,1.77S129.5,310.23,129.5,309.25Z"></path><path d="M132.52,308.31c-.69-.69-1.14-1.37-1-1.51s.81.3,1.5,1,1.14,1.36,1,1.51S133.21,309,132.52,308.31Z"></path><path d="M134,305.51c-1,0-1.77-.17-1.77-.37s.79-.37,1.77-.37,1.77.17,1.77.37S135,305.51,134,305.51Z"></path><path d="M133,302.49c-.69.69-1.36,1.13-1.5,1s.3-.82,1-1.51,1.36-1.13,1.5-1S133.72,301.8,133,302.49Z"></path></g><g style="opacity:0.1"><circle cx="146.72" cy="302.79" r="1.22"></circle><path d="M147.08,298.68c0,1-.16,1.77-.36,1.77s-.37-.79-.37-1.77.16-1.77.37-1.77S147.08,297.7,147.08,298.68Z"></path><path d="M144.07,299.63c.69.68,1.13,1.36,1,1.5s-.82-.3-1.51-1-1.13-1.36-1-1.5S143.38,298.94,144.07,299.63Z"></path><path d="M142.6,302.43c1,0,1.77.16,1.77.36s-.79.37-1.77.37-1.76-.17-1.76-.37S141.63,302.43,142.6,302.43Z"></path><path d="M143.55,305.44c.69-.69,1.36-1.13,1.51-1s-.3.82-1,1.51-1.37,1.13-1.51,1S142.86,306.13,143.55,305.44Z"></path><path d="M146.35,306.9c0-1,.16-1.76.37-1.76s.36.79.36,1.76-.16,1.77-.36,1.77S146.35,307.88,146.35,306.9Z"></path><path d="M149.37,306c-.69-.69-1.14-1.37-1-1.51s.81.3,1.5,1,1.14,1.37,1,1.51S150.05,306.65,149.37,306Z"></path><path d="M150.83,303.16c-1,0-1.77-.17-1.77-.37s.79-.36,1.77-.36,1.76.16,1.76.36S151.8,303.16,150.83,303.16Z"></path><path d="M149.88,300.14c-.69.69-1.36,1.14-1.5,1s.3-.82,1-1.5,1.36-1.14,1.5-1S150.57,299.45,149.88,300.14Z"></path></g><g style="opacity:0.1"><path d="M86.76,296.91a1.22,1.22,0,1,1-1.22-1.21A1.21,1.21,0,0,1,86.76,296.91Z"></path><path d="M85.91,292.8c0,1-.16,1.77-.37,1.77s-.36-.79-.36-1.77.16-1.76.36-1.76S85.91,291.83,85.91,292.8Z"></path><path d="M82.9,293.75c.69.69,1.13,1.36,1,1.5s-.82-.3-1.51-1-1.13-1.37-1-1.51S82.21,293.06,82.9,293.75Z"></path><path d="M81.43,296.55c1,0,1.77.16,1.77.36s-.79.37-1.77.37-1.76-.16-1.76-.37S80.46,296.55,81.43,296.55Z"></path><path d="M82.38,299.56c.69-.69,1.36-1.13,1.51-1s-.3.82-1,1.51-1.37,1.13-1.51,1S81.69,300.25,82.38,299.56Z"></path><path d="M85.18,301c0-1,.16-1.77.36-1.77s.37.79.37,1.77-.16,1.76-.37,1.76S85.18,302,85.18,301Z"></path><path d="M88.19,300.08c-.69-.69-1.13-1.36-1-1.51s.82.3,1.51,1,1.13,1.37,1,1.51S88.88,300.77,88.19,300.08Z"></path><ellipse cx="89.66" cy="296.91" rx="1.77" ry="0.37"></ellipse><path d="M88.71,294.27c-.69.68-1.36,1.13-1.51,1s.3-.81,1-1.5,1.37-1.13,1.51-1S89.4,293.58,88.71,294.27Z"></path></g><path d="M105.66,183.39c.42,14.81,9,44.15,14.82,47,1.57.76,6.7,2.95,9.94,2.14,9.72-2.44,22-17.26,29.85-28.3,2.75-3.88-15-16.48-18.75-13.11-2.24,2-11.82,14.64-12.43,14C125.9,202,115.67,180.23,114,177.63,108.87,169.91,105.44,175.7,105.66,183.39Z" style="fill:#d3766a"></path><path d="M140.76,193.16s2.2-8.52,3.9-14c1-3.07,3.05-8.19,4.78-10.12,2.59-2.89,15.25-13.34,17.85-10.33,2.35,2.73-9.67,10.33-9.67,10.33s11.45-8.74,13.68-4.93-12.49,10.58-12.49,10.58,12-8.71,13.65-4.42c1.26,3.24-11.72,10.13-11.72,10.13s10.33-7.42,11.78-4.14c1.6,3.62-10,10.74-10,10.74,2.28,8.95-.11,14-2.39,17.44C159.59,205.28,140.76,193.16,140.76,193.16Z" style="fill:#d3766a"></path><path d="M153.47,171.8c1.31-1.08,2.62-2.18,4-3.13s2.84-1.86,4.32-2.68a28.46,28.46,0,0,1,6.07-2.65,62.4,62.4,0,0,0-10.14,5.72c-1.39.95-2.84,1.84-4.24,2.79C153.47,171.87,153.44,171.82,153.47,171.8Z" style="fill:#263238"></path><path d="M156.83,176.91c1.73-1.3,3.4-2.65,5.18-3.88s3.58-2.22,5.43-3.31c.15-.08.15,0,0,.11-1.81,1.17-3.39,2.38-5.19,3.57s-3.65,2.31-5.4,3.55C156.83,177,156.8,176.93,156.83,176.91Z" style="fill:#263238"></path><path d="M158.92,181.82a47.92,47.92,0,0,1,8.38-5.33c.15-.07.13.06,0,.15-2.82,1.72-5,3-8.3,5.27C158.94,181.94,158.86,181.86,158.92,181.82Z" style="fill:#263238"></path><path d="M141,226.27c1.11-1.09,2.26-2.12,3.37-3.21s2.2-2.18,3.28-3.29a88.63,88.63,0,0,0,6.12-7,85.87,85.87,0,0,0,5.36-7.64,25.49,25.49,0,0,0,3.57-8.52,20.81,20.81,0,0,0,.35-4.92c-.08-1.66-.35-3.29-.59-4.93,0-.25,1.47-1,1.77-1.19.58-.38,1.16-.75,1.73-1.15a32.44,32.44,0,0,0,3.24-2.61,13.07,13.07,0,0,0,2.75-3.23c.49-.9.77-2.46-.58-2.74a5,5,0,0,0-2.26.3,21.39,21.39,0,0,0-2.43.77s0,0,0,0h0s-.1,0-.06-.08c1-.77,2-1.59,3-2.43.48-.42,1-.85,1.41-1.3a4.85,4.85,0,0,0,1.16-1.54,1.84,1.84,0,0,0,0-1.49,1.78,1.78,0,0,0-1.45-.82,6.3,6.3,0,0,0-3.44.7,0,0,0,0,1,0-.05l.25-.15a0,0,0,0,1,0,0,12.51,12.51,0,0,0,2.29-1.95,4.16,4.16,0,0,0,1.55-2.6,1.77,1.77,0,0,0-1.71-1.81,5.26,5.26,0,0,0-1.53.13,14,14,0,0,0-1.68.47s0,0,0,0c.58-.28,1.18-.51,1.78-.75a3.94,3.94,0,0,1,1.66-.3,2,2,0,0,1,2,1.86,3.77,3.77,0,0,1-1.32,2.81,14.35,14.35,0,0,1-2.32,1.81,5.47,5.47,0,0,1,2.6-.53,2,2,0,0,1,2,2.19c-.14,1.39-1.41,2.41-2.39,3.27a23.24,23.24,0,0,1-2.9,2.13,8.62,8.62,0,0,1,3.51-1.13,1.85,1.85,0,0,1,2,2.22,7,7,0,0,1-2.07,3.61,26.52,26.52,0,0,1-3.6,3.17c-.71.54-1.45,1-2.21,1.51a23.47,23.47,0,0,1-2.09,1.12,17.56,17.56,0,0,1,.65,8.55,23.62,23.62,0,0,1-2.92,8.67,71.77,71.77,0,0,1-5.39,8,87,87,0,0,1-6.21,7.23c-1.24,1.28-2.5,2.55-3.86,3.71a46.15,46.15,0,0,1-4.21,3.32A.07.07,0,0,1,141,226.27Z" style="fill:#263238"></path><path d="M161.93,165.91A12.8,12.8,0,0,0,164.2,164a19.88,19.88,0,0,0,2-2.13,4.12,4.12,0,0,0,1.21-2.27c0-1.41-1.63-1.52-2.64-1.19,0,0,0,0,0,0a2.4,2.4,0,0,1,2.57.29c.75.73.4,1.77-.08,2.55A14.06,14.06,0,0,1,165,163.9,12.47,12.47,0,0,1,163.6,165c-.52.36-1.09.62-1.61,1A.05.05,0,1,1,161.93,165.91Z" style="fill:#263238"></path><path d="M129.2,204.48c1.11-.39,10.12-11.54,10.12-11.54l17.39,21.41s-20.52,19.06-27.51,18.9-9.92-2.37-11.58-4.77-10.36-23.22-12-40,5.51-18.91,10.7-7.18A177.72,177.72,0,0,0,129.2,204.48Z" style="fill:#FFA52E"></path><path d="M128.89,204.78c.93-1.16,1.89-2.29,2.86-3.43s2-2.25,3-3.35,3.35-3.69,4.39-4.84c0,0,.12,0,.08.06-1,1.17-3.09,3.89-4.07,5.08s-1.93,2.33-2.93,3.48-2,2.3-3,3.43-2,2.26-3,3.31c-.05,0-.11,0-.08-.07C126.94,207.18,127.93,206,128.89,204.78Z" style="fill:#263238"></path><path d="M129.43,204.82c-1-1.34-1.89-2.72-2.79-4.11s-1.75-2.8-2.6-4.22-1.66-2.85-2.44-4.31-1.55-2.92-2.18-4.46c.91,1.39,1.81,2.77,2.68,4.17s1.74,2.81,2.58,4.22,1.67,2.85,2.46,4.31S128.71,203.32,129.43,204.82Z" style="fill:#263238"></path><path d="M106.61,197.56q1.47,4.75,3,9.47c1,3.16,2.08,6.3,3.19,9.42s2.25,6.24,3.62,9.23a22.13,22.13,0,0,0,1.14,2.16,8.31,8.31,0,0,0,1.59,1.76,12.61,12.61,0,0,0,4.24,2.28,19.36,19.36,0,0,0,4.77.92,10,10,0,0,0,2.39-.09,15.87,15.87,0,0,0,2.3-.76,43.49,43.49,0,0,0,8.49-5c5.39-3.84,10.31-8.3,15.31-12.66v.07l-1.78-2.28,1.86,2.21,0,0,0,0a167,167,0,0,1-15,13.08,43.32,43.32,0,0,1-8.6,5.12,15,15,0,0,1-2.42.81,10.64,10.64,0,0,1-2.57.13,18.76,18.76,0,0,1-5-.95,13.6,13.6,0,0,1-4.46-2.44,8.77,8.77,0,0,1-1.71-1.93,21.76,21.76,0,0,1-1.17-2.24,96.55,96.55,0,0,1-3.54-9.33C110.19,210.34,108.34,204,106.61,197.56Z" style="fill:#263238"></path><path d="M107,202.1c.23.33.47.65.68,1s.42.68.62,1a12.63,12.63,0,0,1,1,2.19,8.39,8.39,0,0,1-1.4-1.95,8.21,8.21,0,0,1-.51-1.08A4.21,4.21,0,0,1,107,202.1Z" style="fill:#263238"></path><path d="M112.26,158.05c-3.8-.26-12.84,3.79-15.26,9.16s-1,13.27.78,13.79,8.65-1.12,13-4.49S114.12,158.18,112.26,158.05Z" style="fill:#263238"></path><path d="M112.27,158.07c.12,0,.1-.25,0-.23-3.23.4-6.5,2-9.43,3.35a18.77,18.77,0,0,0-6.52,4.3,8.71,8.71,0,0,0-2.15,7,18,18,0,0,0,3,8.52c0,.06.19,0,.15-.07-2.29-5.13-4.57-11.47.19-15.92C101.54,161.21,107.27,160,112.27,158.07Z" style="fill:#263238"></path><path d="M108.93,155.11c-1.21-1.14-3,.77-1.74,1.91S110.15,156.25,108.93,155.11Z" style="fill:#FFA52E"></path><path d="M110.25,157.13c-1.21-1.14-3,.77-1.74,1.91S111.47,158.27,110.25,157.13Z" style="fill:#FFA52E"></path><path d="M111.92,158.9c-1.22-1.14-3,.77-1.75,1.91S113.13,160,111.92,158.9Z" style="fill:#FFA52E"></path><path d="M113.75,160.4c-1.22-1.14-3,.77-1.75,1.91S115,161.54,113.75,160.4Z" style="fill:#FFA52E"></path><path d="M115.85,161.59c-1.21-1.14-3,.77-1.74,1.91S117.07,162.73,115.85,161.59Z" style="fill:#FFA52E"></path><path d="M118.05,162.35c-1.21-1.14-3,.77-1.74,1.91S119.27,163.49,118.05,162.35Z" style="fill:#FFA52E"></path><path d="M111.61,172.33c.31.87,5.3,6.23,9.4,5.56,1.33-.23.45-7.57.45-7.57l.06-.55.82-7.8-9.59-4.69-1.38-.6s-.08,2.14-.16,4.82c0,.12,0,.25,0,.38s0,.29,0,.43c0,.4,0,.81,0,1.22s0,.61,0,.93v1A50.43,50.43,0,0,0,111.61,172.33Z" style="fill:#d3766a"></path><path d="M111.21,161.5a15.75,15.75,0,0,0,10.31,8.27l.82-7.8-9.59-4.69-1.38-.6S111.29,158.82,111.21,161.5Z" style="fill:#263238"></path><path d="M130.8,167.08a6.53,6.53,0,0,1-1.06,2.73,1.59,1.59,0,0,1-2.74-.13,8.74,8.74,0,0,1-1-5,17.92,17.92,0,0,1,1.44-6.61,1.85,1.85,0,0,0,.4.24,17.63,17.63,0,0,0-1.38,6.24,9.17,9.17,0,0,0,.76,4.63,1.59,1.59,0,0,0,1.09.93c.69.1,1.16-.63,1.41-1.17a11.89,11.89,0,0,0,.8-6.19,12.88,12.88,0,0,0-.69-3.13,6.26,6.26,0,0,0-.46-1.07,1.32,1.32,0,0,0-.55-.53c-.28-.11-.13-.56.15-.45a1.85,1.85,0,0,1,.84.86,7.94,7.94,0,0,1,.43,1,14.7,14.7,0,0,1,.54,7.68Z" style="fill:#FFA52E"></path><path d="M132.6,150.93c1,13.72-7.15,15.84-10.11,16-2.68.18-11.85.47-14.23-13.07s3.7-18.33,9.82-19.08S131.64,137.21,132.6,150.93Z" style="fill:#d3766a"></path><path d="M127.08,147c-.33,0-.63,0-1,0a1.55,1.55,0,0,1-1-.21.5.5,0,0,1-.11-.59,1.22,1.22,0,0,1,1.13-.49,1.73,1.73,0,0,1,1.21.41A.52.52,0,0,1,127.08,147Z" style="fill:#263238"></path><path d="M117.89,149.2a6.24,6.24,0,0,0,.88-.36,1.52,1.52,0,0,0,.83-.54.51.51,0,0,0-.11-.59,1.25,1.25,0,0,0-1.23-.06,1.75,1.75,0,0,0-1,.83A.51.51,0,0,0,117.89,149.2Z" style="fill:#263238"></path><path d="M120.79,152.13s-.06.06-.05.1c.22.91.32,2-.45,2.46,0,0,0,.07,0,.05C121.29,154.39,121.15,153,120.79,152.13Z" style="fill:#263238"></path><path d="M119.77,151.35c-1.5.19-1,3.17.4,3S121,151.18,119.77,151.35Z" style="fill:#263238"></path><path d="M119.21,151.6c-.23.21-.43.56-.74.64s-.69-.17-1-.43c0,0-.06,0,0,.05.09.57.41,1.12,1,1.1s.89-.59.94-1.19C119.43,151.66,119.31,151.52,119.21,151.6Z" style="fill:#263238"></path><path d="M125.92,150.68s.08,0,.08.07c.12.93.42,2,1.3,2.15,0,0,0,0,0,0C126.26,153,125.88,151.58,125.92,150.68Z" style="fill:#263238"></path><path d="M126.59,149.58c1.47-.35,2.07,2.61.71,2.94S125.36,149.88,126.59,149.58Z" style="fill:#263238"></path><path d="M127.25,149.65c.26.11.55.35.83.31s.51-.41.65-.76c0,0,.05,0,.06,0,.12.56.06,1.19-.47,1.41s-.93-.22-1.18-.75C127.09,149.79,127.14,149.61,127.25,149.65Z" style="fill:#263238"></path><path d="M122.37,159.48c.25.19.51.46.85.45a2.59,2.59,0,0,0,1-.36,0,0,0,0,1,0,0,1.27,1.27,0,0,1-1.12.65,1,1,0,0,1-.83-.73C122.26,159.48,122.33,159.45,122.37,159.48Z" style="fill:#263238"></path><path d="M125.62,155.45a20,20,0,0,1,.55,2c0,.06-.14.11-.35.17h0a3.14,3.14,0,0,1-3.21-.61c0-.05,0-.13.08-.1a4.75,4.75,0,0,0,3,.29c0-.19-.83-2.27-.73-2.3a5.77,5.77,0,0,1,1.53.07c-.83-2.82-2.11-5.49-2.9-8.31a.09.09,0,0,1,.16-.07,47.88,47.88,0,0,1,3.51,8.81C127.32,155.75,125.9,155.51,125.62,155.45Z" style="fill:#263238"></path><path d="M125.36,157.52a3.51,3.51,0,0,1-1.2,1.31,1.56,1.56,0,0,1-.93.21c-.72-.06-.84-.69-.81-1.24a4,4,0,0,1,.17-.88A4.54,4.54,0,0,0,125.36,157.52Z" style="fill:#263238"></path><path d="M124.16,158.83a1.56,1.56,0,0,1-.93.21c-.72-.06-.84-.69-.81-1.24A1.62,1.62,0,0,1,124.16,158.83Z" style="fill:#ff97b8"></path><path d="M125.15,154.27a.18.18,0,0,1-.16.19.18.18,0,0,1-.2-.16.19.19,0,0,1,.17-.2A.19.19,0,0,1,125.15,154.27Z" style="fill:#FFA52E"></path><path d="M108.45,155.67c3.14-1,2.66-7.24,2.66-7.24,9.2-2.92,10.52-9.57,10.52-9.57a18.48,18.48,0,0,0,9.24,4.24s.33-.81-1.94-4.64c-2-3.4-5.94-6.22-12.19-4.63a10.78,10.78,0,0,0-5.59,3.78s-5.24,2-6.61,6.09C102.29,150.45,108.45,155.67,108.45,155.67Z" style="fill:#263238"></path><path d="M110.52,154.81s-2.93-4.34-4.9-3.31.19,7.3,2.46,8.19a2.33,2.33,0,0,0,3.14-1.2Z" style="fill:#d3766a"></path><path d="M106.28,153.28a0,0,0,0,0,0,.06,5.92,5.92,0,0,1,3,3.73,1.29,1.29,0,0,0-1.92-.38s0,.09,0,.08a1.43,1.43,0,0,1,1.56.53,6.3,6.3,0,0,1,.73,1.29c.08.14.34.07.28-.1v0C110,156.41,108.48,153.52,106.28,153.28Z" style="fill:#263238"></path><path d="M110.92,168.41a6.76,6.76,0,0,1-1.06,2.74,1.59,1.59,0,0,1-2.74-.14,8.73,8.73,0,0,1-1-5,17.86,17.86,0,0,1,1.43-6.6,1.64,1.64,0,0,0,.4.23,17.88,17.88,0,0,0-1.37,6.24,9.26,9.26,0,0,0,.75,4.63,1.67,1.67,0,0,0,1.09.94c.7.09,1.16-.64,1.42-1.18a11.85,11.85,0,0,0,.79-6.18,12.09,12.09,0,0,0-.69-3.14,6.19,6.19,0,0,0-.46-1.06,1.24,1.24,0,0,0-.55-.54c-.28-.11-.13-.55.15-.44a1.78,1.78,0,0,1,.85.86,6.71,6.71,0,0,1,.42,1,13.46,13.46,0,0,1,.79,3.92A14.71,14.71,0,0,1,110.92,168.41Z" style="fill:#FFA52E"></path><path d="M108.69,151.79s7.29-5.18,13.39-6.79a35.6,35.6,0,0,1,9.31-1.37S128.78,132,119,133.43,106.56,145.46,108.69,151.79Z" style="fill:#37474f"></path><path d="M128.53,187.65c-6.49-.05-14.68-10-18.93-9.49s-7.09,6.37-7.83,11.64-4,27.34-4.83,34.41c-.22,2-7,14.52-8.92,15.13s-1.24-10.5-1.93-14.58,4.06-11.87,3.13-15.74-4.1-11.11-1.78-21.15,8.31-23.75,10.28-29.54,3.11-14.42,5.68-17.49c7.46-8.91,15.17-7.23,15.55-7.41-4.32.95-13.47,5.59-9,21.2,2.26,8,7.29,12.65,12.85,12.22,3.45-.27,9.06-3,9.81-11.53,2,6.77,1.18,13.83,1.38,16.76C134.33,177.65,131.52,187.67,128.53,187.65Z" style="fill:#37474f"></path><path d="M103.76,178.63a16.81,16.81,0,0,1,4.24-3,6.06,6.06,0,0,1,1.27-.4,3,3,0,0,1,.68,0,2.43,2.43,0,0,1,.67.15,15.67,15.67,0,0,1,2.36,1.16c3,1.76,5.86,3.76,8.85,5.5a21.55,21.55,0,0,0,4.62,2.22,3.12,3.12,0,0,0,1.2.13,1.93,1.93,0,0,0,1-.54,7.18,7.18,0,0,0,1.4-2.08,27.67,27.67,0,0,0,1.68-4.89c.44-1.67.8-3.37,1.09-5.08a37.53,37.53,0,0,1-2.42,10.13,7.07,7.07,0,0,1-1.45,2.24,2.36,2.36,0,0,1-1.25.65,3.29,3.29,0,0,1-1.37-.12,21.58,21.58,0,0,1-4.76-2.23c-3-1.79-5.84-3.79-8.79-5.6a15.38,15.38,0,0,0-2.27-1.19,3.22,3.22,0,0,0-2.42.23A16.28,16.28,0,0,0,103.76,178.63Z" style="fill:#263238"></path><path d="M131.37,167.72c-.16,1.64-.43,3.27-.73,4.89s-.68,3.22-1.11,4.82c-.24.79-.5,1.58-.82,2.35a7.46,7.46,0,0,1-.55,1.14,2,2,0,0,1-.92,1,3,3,0,0,1-2.52-.12,7,7,0,0,1-2-1.48,7.21,7.21,0,0,0,2.09,1.25,2.7,2.7,0,0,0,2.26,0,1.88,1.88,0,0,0,.72-.82,8.41,8.41,0,0,0,.5-1.1c.29-.75.53-1.53.76-2.32.47-1.56.84-3.17,1.22-4.76Z" style="fill:#263238"></path><path d="M103.58,173.42q-2,2.55-3.79,5.24c-1.22,1.78-2.38,3.59-3.42,5.47A30.27,30.27,0,0,0,93.75,190a16.26,16.26,0,0,0-.29,6.34c.2,2.13.57,4.26,1,6.38a60,60,0,0,1,.92,6.43,23.65,23.65,0,0,1-.78,6.45q-.73,3.16-1.73,6.25.87-3.12,1.49-6.3a23.33,23.33,0,0,0,.63-6.37c-.39-4.27-1.56-8.47-2-12.79a16.82,16.82,0,0,1,.35-6.51A28.11,28.11,0,0,1,96,183.94,76.94,76.94,0,0,1,103.58,173.42Z" style="fill:#263238"></path><path d="M90.28,202.85a17.13,17.13,0,0,1,1.82,7.49,14.17,14.17,0,0,1-.71,3.83c-.35,1.24-.75,2.47-1.11,3.7a24.73,24.73,0,0,0-1.39,7.49c0,1.27.09,2.56.2,3.84a28.79,28.79,0,0,0,.5,3.81,36.46,36.46,0,0,1-1.08-7.65,23.89,23.89,0,0,1,1.29-7.64c.38-1.23.79-2.45,1.16-3.68a16,16,0,0,0,.76-3.72,15.16,15.16,0,0,0-.34-3.79A19.94,19.94,0,0,0,90.28,202.85Z" style="fill:#263238"></path><path d="M109.54,138.39A26.82,26.82,0,0,0,106,144.7a8,8,0,0,0-.44,1.73,17.78,17.78,0,0,0-.09,1.8q0,1.82,0,3.63c0,2.42.13,4.84.34,7.25.12,1.2.24,2.41.47,3.58a10.29,10.29,0,0,0,1.08,3.35,14.25,14.25,0,0,0,2.45,2.59c.9.79,1.85,1.54,2.83,2.26a71.68,71.68,0,0,0,6,4,30.54,30.54,0,0,0,3.21,1.67,7,7,0,0,0,1.68.55,1.46,1.46,0,0,0,1.43-.71,10.26,10.26,0,0,0,1.52-3.24,30.69,30.69,0,0,0,.84-3.53,29.35,29.35,0,0,1-.73,3.57,10.39,10.39,0,0,1-1.44,3.36,1.72,1.72,0,0,1-1.65.83,7,7,0,0,1-1.77-.54,32.21,32.21,0,0,1-3.28-1.62,61.61,61.61,0,0,1-6.13-4c-1-.72-1.95-1.46-2.88-2.26a15.39,15.39,0,0,1-2.55-2.67,10.69,10.69,0,0,1-1.13-3.54c-.22-1.2-.34-2.42-.45-3.63q-.3-3.65-.28-7.29c0-1.21,0-2.43.08-3.64a16.21,16.21,0,0,1,.12-1.83,8.38,8.38,0,0,1,.49-1.78A27.14,27.14,0,0,1,109.54,138.39Z" style="fill:#263238"></path><path d="M102,156.87c-.05,1.74,0,3.47.08,5.19a12.31,12.31,0,0,0,1.12,4.92,12,12,0,0,0,3.77,3.35c1.44.95,2.95,1.79,4.48,2.61a32.21,32.21,0,0,1-4.69-2.28,20.78,20.78,0,0,1-2.17-1.48,7.93,7.93,0,0,1-1.83-2,12.36,12.36,0,0,1-1.07-5.15A30.2,30.2,0,0,1,102,156.87Z" style="fill:#263238"></path><path d="M109.18,151.52a14,14,0,0,1-.09-3,7.33,7.33,0,0,1,.79-2.95,25.05,25.05,0,0,1,3.65-4.85c-.63.79-1.24,1.6-1.83,2.42a21.74,21.74,0,0,0-1.61,2.54,7.92,7.92,0,0,0-.79,2.86A19,19,0,0,0,109.18,151.52Z" style="fill:#263238"></path><path d="M109.85,150.61a19.29,19.29,0,0,1,.3-2,13.8,13.8,0,0,1,.54-2,5.37,5.37,0,0,1,1.14-1.68,19.16,19.16,0,0,1,1.42-1.43c-.44.51-.87,1-1.29,1.54a5.61,5.61,0,0,0-1,1.66c-.22.62-.4,1.26-.56,1.91Z" style="fill:#263238"></path></g></svg>