<svg xmlns="http://www.w3.org/2000/svg" viewBox="0 0 750 500"><g id="freepik--background-complete--inject-564"><path d="M712.51,242.24l-13.12.28-6.66.11c-2.23.05-4.47,0-6.7.06h-.44v-.45l-.06-11.19v-.5h.5l13.24.06c4.42,0,8.83.12,13.24.17h.28v.27c0,1.9-.09,3.79-.13,5.65Zm0,0-.14-5.65c0-1.87-.11-3.71-.13-5.54l.27.27c-4.41.05-8.82.16-13.24.17l-13.24.06.5-.5,0,11.19-.45-.45c2.18,0,4.36,0,6.55.06l6.58.11Z" style="fill:#ebebeb"></path><path d="M697.74,256.35l-13.12.28-6.66.11c-2.23.05-4.47,0-6.7.06h-.44v-.45l-.06-11.19v-.5h.5l13.24.06c4.41,0,8.83.12,13.24.17H698v.27c0,1.9-.08,3.79-.13,5.65Zm0,0-.14-5.65c-.05-1.87-.11-3.71-.13-5.54l.27.27c-4.41,0-8.83.16-13.24.17l-13.24.06.5-.5,0,11.19-.45-.45c2.18,0,4.36,0,6.55.06l6.58.11Z" style="fill:#ebebeb"></path><path d="M727.29,256.35l-13.13.28-6.66.11c-2.23.05-4.46,0-6.7.06h-.44v-.45l-.05-11.19v-.5h.5l13.24.06c4.42,0,8.83.12,13.24.17h.28v.27c0,1.9-.09,3.79-.13,5.65Zm0,0-.15-5.65c0-1.87-.11-3.71-.13-5.54l.27.27c-4.41,0-8.82.16-13.24.17l-13.24.06.5-.5,0,11.19-.45-.45c2.19,0,4.36,0,6.55.06l6.58.11Z" style="fill:#ebebeb"></path><path d="M234.07,33l-13.13.28-6.66.11c-2.22,0-4.46,0-6.69.05h-.45V33l0-11.19v-.5h.51l13.24.06c4.41,0,8.82.11,13.24.16h.27v.27c0,1.9-.09,3.78-.13,5.65Zm0,0-.15-5.66c0-1.86-.11-3.7-.13-5.53l.28.27c-4.42,0-8.83.16-13.24.16l-13.24.07.5-.5L208,33l-.44-.45c2.18,0,4.35,0,6.54.06l6.58.11Z" style="fill:#ebebeb"></path><path d="M219.3,47.13l-13.13.28-6.66.11c-2.23,0-4.46,0-6.7,0h-.44v-.45l-.05-11.19v-.5h.5l13.24.06c4.42,0,8.83.11,13.24.16h.28v.27c0,1.9-.09,3.78-.13,5.65Zm0,0-.15-5.66c0-1.86-.11-3.7-.13-5.53l.27.27c-4.41,0-8.82.16-13.24.16l-13.24.07.5-.5-.05,11.19-.45-.45c2.19,0,4.36,0,6.55.06l6.58.11Z" style="fill:#ebebeb"></path><path d="M248.84,47.13l-13.13.28-6.66.11c-2.22,0-4.46,0-6.69,0h-.45v-.45l0-11.19v-.5h.5l13.24.06c4.41,0,8.83.11,13.24.16h.27v.27c0,1.9-.08,3.78-.13,5.65Zm0,0-.14-5.66c0-1.86-.12-3.7-.13-5.53l.27.27c-4.41,0-8.83.16-13.24.16l-13.24.07.5-.5-.06,11.19-.44-.45c2.18,0,4.36,0,6.54.06l6.58.11Z" style="fill:#ebebeb"></path><path d="M65.08,237.39,52,237.67l-6.66.11c-2.22.05-4.46,0-6.69.06h-.45v-.45l0-11.19v-.5h.51l13.24.07c4.41,0,8.82.11,13.24.16h.27v.27c0,1.9-.09,3.79-.13,5.66Zm0,0-.14-5.65c0-1.86-.12-3.71-.14-5.54l.28.28c-4.42.05-8.83.15-13.24.16l-13.24.06.5-.5L39,237.39,38.6,237c2.18,0,4.35,0,6.54.05l6.58.11Z" style="fill:#ebebeb"></path><path d="M560.23,40.07l-13.13.28-6.66.11c-2.23,0-4.46,0-6.69.06h-.45v-.45l0-11.19v-.5h.51l13.24.07c4.41,0,8.82.11,13.24.16h.27v.27c0,1.9-.09,3.79-.13,5.66Zm0,0-.15-5.65c0-1.86-.11-3.71-.13-5.54l.28.27c-4.42.06-8.83.16-13.24.17l-13.24.06.5-.5-.06,11.19-.44-.44c2.18,0,4.35,0,6.54,0l6.58.11Z" style="fill:#ebebeb"></path><path d="M690.84,69.38l-13.12.28-6.67.11c-2.22,0-4.46,0-6.69.06h-.44v-.45l0-11.19v-.5h.5l13.24.06c4.41,0,8.83.12,13.24.17h.28v.27c0,1.9-.08,3.79-.13,5.65Zm0,0-.14-5.65c-.05-1.87-.11-3.71-.13-5.54l.27.27c-4.41,0-8.83.16-13.24.17l-13.24.06.5-.5-.05,11.19-.45-.45c2.18,0,4.36,0,6.55.06l6.57.11Z" style="fill:#ebebeb"></path><path d="M705.61,83.49l-13.12.28-6.66.11c-2.23.05-4.47,0-6.7.05h-.44v-.45l-.06-11.19v-.5h.5l13.24.06c4.42,0,8.83.12,13.24.17h.28v.27c0,1.9-.09,3.79-.14,5.65Zm0,0-.14-5.65c0-1.87-.11-3.71-.13-5.54l.27.27c-4.41.05-8.82.16-13.24.17l-13.24.06.5-.5,0,11.19-.45-.45c2.18,0,4.36,0,6.55.06l6.58.11Z" style="fill:#ebebeb"></path><path d="M69.34,69.39l-13.13.28-6.66.11c-2.22,0-4.46,0-6.69.06h-.45v-.45l0-11.19v-.5h.51l13.24.07c4.41,0,8.82.11,13.24.16h.27v.27c0,1.9-.09,3.79-.13,5.66Zm0,0-.15-5.65c0-1.87-.11-3.71-.13-5.54l.28.27c-4.42.06-8.83.16-13.24.17l-13.24.06.5-.5L43.3,69.39,42.86,69c2.18,0,4.35,0,6.54,0l6.58.11Z" style="fill:#ebebeb"></path><polygon points="674.07 166.44 651.35 61.58 630.35 166.43 629.35 166.28 651.31 56.64 675.07 166.28 674.07 166.44" style="fill:#dbdbdb"></polygon><path d="M653.41,58.54a2.08,2.08,0,1,1-2.08-2.08A2.08,2.08,0,0,1,653.41,58.54Z" style="fill:#a6a6a6"></path><polygon points="680.94 169.23 679.94 182.36 677.57 213.61 627.22 213.61 624.85 182.36 623.85 169.23 680.94 169.23" style="fill:#ebebeb"></polygon><polygon points="680.94 169.23 679.94 182.36 624.85 182.36 623.85 169.23 680.94 169.23" style="fill:#dbdbdb"></polygon><rect x="620.39" y="165.02" width="64" height="10.2" style="fill:#ebebeb"></rect><path d="M682.94,167.6a3.72,3.72,0,0,1,.78,3.48,6.84,6.84,0,0,1-3.92,3.51,4.18,4.18,0,0,1-1.4,6.14c1.53,1.78,2.16,3.81.19,5.13a4.59,4.59,0,0,1-1.39,6.53c.43,1.41-.93,5.63-3.83,5.62a3,3,0,0,1-2.64-4.51,3.58,3.58,0,0,1-.83-5.66s-1.79.38-2.64-.52a2.48,2.48,0,0,1-.15-2.42,4.09,4.09,0,0,1,.94-6,3.37,3.37,0,0,1,0-5.05,4.62,4.62,0,0,1-2-1.7c-1.46.7-2.34.08-3.15-1.29a3.38,3.38,0,0,1-3.65.95,4,4,0,0,1-5.9,2.38,5.49,5.49,0,0,1-1.11,3,7.51,7.51,0,0,1-.66.72,6,6,0,0,0-.64,1.06,4.78,4.78,0,0,1-1.33,1.53,2.5,2.5,0,0,1-3.33-.14,1.9,1.9,0,0,1-.3-2,2.55,2.55,0,0,1-1.6-3.24,3.09,3.09,0,0,1-3.06-1.79,3.29,3.29,0,0,1-2.52,1.26,3.71,3.71,0,0,1-2.1,4.66,3.8,3.8,0,0,1-1.64,5.41,2.68,2.68,0,0,1-.78,3.56,3.38,3.38,0,0,1-.13,3.05,2.18,2.18,0,0,1-2.07,1,1.62,1.62,0,0,1-1-2.43,4.13,4.13,0,0,1-1.48-6.8,3.37,3.37,0,0,1-2-5.12,3.47,3.47,0,0,1-2.63-2.67,3.41,3.41,0,0,1,.72-2.72,2,2,0,0,1-1.83-.68,1.78,1.78,0,0,1-.37-1.15,2.58,2.58,0,0,1-2.81-1.23,2.54,2.54,0,0,1,.51-3,2.15,2.15,0,0,1-1.44-1.55,2,2,0,0,1,.17-1.3,2.5,2.5,0,0,1-3-2.11,2,2,0,0,1,1.36-2.12,2.51,2.51,0,0,1-.19-1.63c.38-1.55,2.18-2,3.6-2.21a3.19,3.19,0,0,1,3.56-4.18,3.29,3.29,0,0,1,1.53-3.07,3.13,3.13,0,0,1,3.45.27h.09a3.89,3.89,0,0,1,3.29,3.78,3.94,3.94,0,0,1,3.8,0,5.6,5.6,0,0,1,2.64,3.87,4.53,4.53,0,0,1,7.28.95,4.27,4.27,0,0,1,4.5-1.06,4.32,4.32,0,0,1,2.68,3.41,10.33,10.33,0,0,1,9.68-1.9,4.54,4.54,0,0,1,6.86-2.18,4.53,4.53,0,0,1,4.7-2.76c2.39.24,4.15,2.17,5.13,4.24a4.62,4.62,0,0,1,4,6.08A3.36,3.36,0,0,1,682.94,167.6Z" style="fill:#a6a6a6"></path><circle cx="111.6" cy="106.81" r="39.44" transform="translate(-17.99 190.88) rotate(-76.72)" style="fill:#c7c7c7"></circle><circle cx="113.41" cy="107.68" r="37.64" transform="matrix(0.92, -0.38, 0.38, 0.92, -32.58, 51.6)" style="fill:#a6a6a6"></circle><circle cx="113.41" cy="107.68" r="35.26" style="fill:#fff"></circle><path d="M147.87,100.2c-16.06,9.73-42.44,25.69-57.19,34.44a35.37,35.37,0,0,1-9.64-13l48.78-45.21A35.32,35.32,0,0,1,147.87,100.2Z" style="fill:#ebebeb;opacity:0.5"></path><path d="M148.64,108.92a34.86,34.86,0,0,1-2.33,11.45l-44,20.8a35.15,35.15,0,0,1-5.56-2.39C110.07,131.11,134.34,117.14,148.64,108.92Z" style="fill:#ebebeb;opacity:0.5"></path><rect x="113.07" y="74.98" width="0.68" height="5.34" style="fill:#a6a6a6"></rect><rect x="98.05" y="79.01" width="0.68" height="5.34" transform="translate(-27.66 60.14) rotate(-30)" style="fill:#a6a6a6"></rect><rect x="87.06" y="90" width="0.68" height="5.34" transform="translate(-36.55 122.02) rotate(-60)" style="fill:#a6a6a6"></rect><rect x="80.71" y="107.34" width="5.34" height="0.68" style="fill:#a6a6a6"></rect><rect x="84.73" y="122.36" width="5.34" height="0.68" transform="translate(-49.64 60.14) rotate(-30)" style="fill:#a6a6a6"></rect><rect x="95.72" y="133.35" width="5.34" height="0.68" transform="translate(-66.57 152.16) rotate(-60.04)" style="fill:#a6a6a6"></rect><rect x="113.07" y="135.04" width="0.68" height="5.34" style="fill:#a6a6a6"></rect><rect x="128.08" y="131.02" width="0.68" height="5.34" transform="translate(-49.64 82.12) rotate(-30)" style="fill:#a6a6a6"></rect><rect x="139.07" y="120.03" width="0.68" height="5.34" transform="translate(-36.56 182.08) rotate(-60)" style="fill:#a6a6a6"></rect><rect x="140.76" y="107.34" width="5.34" height="0.68" style="fill:#a6a6a6"></rect><rect x="136.74" y="92.33" width="5.34" height="0.68" transform="translate(-27.66 82.14) rotate(-30.01)" style="fill:#a6a6a6"></rect><rect x="125.75" y="81.34" width="5.34" height="0.68" transform="translate(-6.49 152.13) rotate(-60.03)" style="fill:#a6a6a6"></rect><polygon points="101.07 80.25 115.92 109.36 112.87 110.73 100.24 80.62 101.07 80.25" style="fill:#dbdbdb"></polygon><polygon points="115.75 131.33 111.42 105.63 114.75 105.3 116.66 131.24 115.75 131.33" style="fill:#a6a6a6"></polygon><path d="M114.55,107.68a1.14,1.14,0,1,1-1.14-1.14A1.15,1.15,0,0,1,114.55,107.68Z" style="fill:#c7c7c7"></path></g><g id="freepik--Table--inject-564"><polygon points="55.82 402.74 135.62 402.5 215.41 402.41 375 402.24 534.59 402.41 614.38 402.49 694.18 402.74 614.38 402.98 534.59 403.07 375 403.24 215.41 403.07 135.62 402.98 55.82 402.74" style="fill:#263238"></polygon></g><g id="freepik--Window--inject-564"><rect x="187.45" y="56.51" width="375.1" height="227.64" style="fill:#ebebeb"></rect><rect x="195.8" y="65.64" width="358.39" height="209.38" style="fill:#FFA52E"></rect><rect x="195.8" y="65.64" width="358.39" height="209.38" style="opacity:0.1"></rect><rect x="370.95" y="-64.55" width="8.35" height="358.64" transform="translate(489.89 -260.36) rotate(90)" style="fill:#ebebeb"></rect><polygon points="281.97 133.44 280.77 135.88 278.07 136.27 280.02 138.17 279.56 140.85 281.97 139.58 284.38 140.85 283.92 138.17 285.86 136.27 283.17 135.88 281.97 133.44" style="fill:#fff"></polygon><polygon points="373.46 189.62 372.26 192.06 369.56 192.45 371.51 194.35 371.05 197.03 373.46 195.77 375.87 197.03 375.41 194.35 377.35 192.45 374.66 192.06 373.46 189.62" style="fill:#fff"></polygon><polygon points="467.22 81.32 466.02 83.75 463.33 84.15 465.27 86.04 464.81 88.72 467.22 87.46 469.63 88.72 469.17 86.04 471.12 84.15 468.43 83.75 467.22 81.32" style="fill:#fff"></polygon><polygon points="237.15 200.99 236.41 202.5 234.75 202.74 235.95 203.91 235.66 205.57 237.15 204.78 238.64 205.57 238.35 203.91 239.56 202.74 237.9 202.5 237.15 200.99" style="fill:#fff"></polygon><polygon points="293.93 180.8 293.19 182.31 291.53 182.55 292.73 183.72 292.45 185.38 293.93 184.6 295.42 185.38 295.14 183.72 296.34 182.55 294.68 182.31 293.93 180.8" style="fill:#fff"></polygon><polygon points="533.16 242.14 532.41 243.64 530.75 243.88 531.96 245.06 531.67 246.72 533.16 245.93 534.65 246.72 534.36 245.06 535.57 243.88 533.9 243.64 533.16 242.14" style="fill:#fff"></polygon><polygon points="210.31 89.6 209.84 90.53 208.82 90.68 209.56 91.41 209.39 92.43 210.31 91.94 211.22 92.43 211.05 91.41 211.79 90.68 210.76 90.53 210.31 89.6" style="fill:#fff"></polygon><polygon points="399.84 93.45 399.38 94.39 398.35 94.54 399.09 95.26 398.92 96.28 399.84 95.8 400.76 96.28 400.58 95.26 401.32 94.54 400.3 94.39 399.84 93.45" style="fill:#fff"></polygon><polygon points="413.85 176.46 413.39 177.39 412.36 177.54 413.11 178.26 412.93 179.29 413.85 178.81 414.77 179.29 414.6 178.26 415.34 177.54 414.31 177.39 413.85 176.46" style="fill:#fff"></polygon><polygon points="339.08 83.51 338.34 85.02 336.68 85.26 337.88 86.44 337.59 88.09 339.08 87.31 340.57 88.09 340.29 86.44 341.49 85.26 339.82 85.02 339.08 83.51" style="fill:#fff"></polygon><polygon points="528.28 128.75 527.54 130.26 525.87 130.5 527.08 131.67 526.79 133.33 528.28 132.55 529.77 133.33 529.48 131.67 530.69 130.5 529.02 130.26 528.28 128.75" style="fill:#fff"></polygon><g style="opacity:0.5"><path d="M467.14,99.92h57.07s-2.83-3.69-6-4.15c0,0-6.09-18.11-16.27-18.24-9.47-.12-13.27,11.13-13.27,11.13s-4.38-5-8.58-2.74-6.56,8.92-6.56,8.92S468.86,97.38,467.14,99.92Z" style="fill:#fff"></path><path d="M420.84,155.24H348.67s0-4.62,9.94-5.52c0,0,9.08-20.15,22.94-17.45,8.63,1.69,13,13.54,13,13.54s6.52-9.32,11.74-7.52S414.64,150,414.64,150,420,152.63,420.84,155.24Z" style="fill:#fff"></path><path d="M278.16,94.87H229.09s4.63-4.31,6.69-4.31,8.07-14.47,15.74-13.85S263.27,88.1,263.27,88.1,272.6,85.17,278.16,94.87Z" style="fill:#fff"></path><path d="M538.9,190.88h-42s2.08-2.72,4.38-3.06c0,0,4.48-13.32,12-13.41,7-.09,9.75,8.19,9.75,8.19s3.23-3.72,6.31-2,4.83,6.56,4.83,6.56S537.64,189,538.9,190.88Z" style="fill:#fff"></path></g><path d="M274.64,163.51a17.91,17.91,0,1,1-19.51-26.37,16.75,16.75,0,1,0,19.51,26.37Z" style="fill:#fff"></path><g style="opacity:0.2"><path d="M388.29,237.19c0,16.67-10.77,21.52-10.77,21.52H308s-10.76-4.85-10.76-21.52c0-17.84,15.25-25.79,30.77-37.48A43.1,43.1,0,0,0,342.77,180a43,43,0,0,0,14.74,19.72C373,211.4,388.29,219.35,388.29,237.19Z"></path><path d="M349.9,158.48v0h0a6.86,6.86,0,1,1-8.86-7.73,6.73,6.73,0,0,1,3.32-.22h0a5.67,5.67,0,0,0-1.66.28,5.82,5.82,0,1,0,7.22,7.63Z"></path><circle cx="342.77" cy="177.87" r="2.12"></circle><circle cx="342.77" cy="165.5" r="1.32"></circle><path d="M342.76,175.76c-3.12-4.47,0-8.95,0-8.95S345.89,171.29,342.76,175.76Z"></path><path d="M293.16,256.2c0,12.09-7.81,15.61-7.81,15.61H235s-7.81-3.52-7.81-15.61c0-12.93,11.06-18.69,22.31-27.17a31.23,31.23,0,0,0,10.7-14.29A31.16,31.16,0,0,0,270.85,229C282.1,237.51,293.16,243.27,293.16,256.2Z"></path><path d="M265.33,199.14v0h0a5,5,0,1,1-4-5.76h0a4.22,4.22,0,1,0,4,5.73Z"></path><path d="M261.69,213.2a1.54,1.54,0,1,1-1.53-1.53A1.54,1.54,0,0,1,261.69,213.2Z"></path><path d="M261.11,204.23a1,1,0,1,1-.95-.95A.95.95,0,0,1,261.11,204.23Z"></path><path d="M260.16,211.67a5.87,5.87,0,0,1,0-6.49A5.89,5.89,0,0,1,260.16,211.67Z"></path><path d="M458.56,256.2c0,12.09-7.81,15.61-7.81,15.61h-50.4s-7.8-3.52-7.8-15.61c0-12.93,11.06-18.69,22.31-27.17a31.25,31.25,0,0,0,10.69-14.29A31.25,31.25,0,0,0,436.24,229C447.49,237.51,458.56,243.27,458.56,256.2Z"></path><path d="M430.73,199.14v0h0a5,5,0,1,1-6.42-5.6,4.92,4.92,0,0,1,2.4-.16h0a4.22,4.22,0,1,0,1.39,8.24A4.26,4.26,0,0,0,430.73,199.14Z"></path><path d="M427.09,213.2a1.54,1.54,0,1,1-1.54-1.53A1.54,1.54,0,0,1,427.09,213.2Z"></path><path d="M426.51,204.23a1,1,0,1,1-1-.95A1,1,0,0,1,426.51,204.23Z"></path><path d="M425.55,211.67a5.89,5.89,0,0,1,0-6.49A5.87,5.87,0,0,1,425.55,211.67Z"></path><path d="M297.06,260.21V275h91.41V260.21Zm8.68,14.23h-5v-8.39a2.49,2.49,0,0,1,5,0Zm9.88,0h-5v-8.39a2.49,2.49,0,0,1,5,0Zm9.87,0h-5v-8.39a2.48,2.48,0,0,1,5,0Zm9.87,0h-5v-8.39a2.48,2.48,0,0,1,5,0Zm9.88,0h-5v-8.39a2.48,2.48,0,0,1,5,0Zm9.87,0h-4.95v-8.39a2.48,2.48,0,0,1,4.95,0Zm9.9,0h-5v-8.39a2.49,2.49,0,0,1,5,0Zm9.88,0h-5v-8.39a2.5,2.5,0,0,1,5,0Zm9.86,0h-5v-8.39a2.49,2.49,0,0,1,5,0Z"></path><rect x="223.07" y="271.81" width="74.17" height="3.21"></rect><rect x="293.88" y="254.79" width="97.77" height="5.42" rx="1.52"></rect><rect x="208.87" y="134.39" width="8.21" height="1.51" rx="0.42" transform="translate(77.83 348.12) rotate(-90)"></rect><path d="M202.91,165v5.14h20.14V165Zm0-12.75v5.15h20.14v-5.15Z"></path><path d="M202.91,170.15V275h20.14V170.15Zm12.74,22.75h-5.34V181.2a2.67,2.67,0,0,1,5.34,0Z"></path><rect x="202.91" y="157.41" width="20.13" height="7.6"></rect><path d="M223,146.06v6.2H202.91v-6.2a10.07,10.07,0,0,1,20.13,0Z"></path><path d="M227.15,167.56v0a2.55,2.55,0,0,1-2.55,2.55H201.36a2.56,2.56,0,0,1-2.56-2.55v0a2.56,2.56,0,0,1,2.56-2.55H224.6A2.55,2.55,0,0,1,227.15,167.56Z"></path><path d="M227.15,154.82v0a2.55,2.55,0,0,1-2.55,2.56H201.36a2.56,2.56,0,0,1-2.56-2.56v0a2.56,2.56,0,0,1,2.56-2.56H224.6A2.56,2.56,0,0,1,227.15,154.82Z"></path><rect x="468.62" y="134.39" width="8.21" height="1.51" rx="0.42" transform="translate(337.58 607.88) rotate(-90)"></rect><path d="M462.67,165v5.14H482.8V165Zm0-12.75v5.15H482.8v-5.15Z"></path><path d="M462.67,170.15V275H482.8V170.15Zm12.74,22.75h-5.35V181.2a2.68,2.68,0,0,1,5.35,0Z"></path><rect x="462.67" y="157.41" width="20.13" height="7.6"></rect><path d="M482.8,146.06v6.2H462.67v-6.2a10.07,10.07,0,0,1,20.13,0Z"></path><path d="M486.91,167.56v0a2.56,2.56,0,0,1-2.56,2.55H461.11a2.55,2.55,0,0,1-2.55-2.55v0a2.55,2.55,0,0,1,2.55-2.55h23.24A2.56,2.56,0,0,1,486.91,167.56Z"></path><path d="M486.91,154.82v0a2.56,2.56,0,0,1-2.56,2.56H461.11a2.55,2.55,0,0,1-2.55-2.56v0a2.56,2.56,0,0,1,2.55-2.56h23.24A2.56,2.56,0,0,1,486.91,154.82Z"></path><rect x="388.47" y="271.81" width="74.17" height="3.21"></rect></g><rect x="305.98" y="56.46" width="8.35" height="227.74" style="fill:#ebebeb"></rect><rect x="435.67" y="56.46" width="8.35" height="227.74" style="fill:#ebebeb"></rect></g><g id="freepik--Shadow--inject-564"><ellipse cx="375" cy="433.07" rx="230.61" ry="18.62" style="fill:#ebebeb"></ellipse></g><g id="freepik--character-3--inject-564"><polygon points="690.91 402.61 568.24 402.61 592.7 260.34 684.42 260.34 690.91 402.61" style="fill:#ebebeb"></polygon><polygon points="690.91 402.61 680.15 402.61 674.12 260.34 684.42 260.34 690.91 402.61" style="fill:#dbdbdb"></polygon><path d="M591.82,281.19c1.35,28.73-14.14,119.08-35.09,120.37-21.1,1.3-67.27-49.71-82-72.57-4.21-6.54,34.36-34,41.31-29.48,5.79,3.8,29.36,36.38,31.45,35.49,2.35-1,10.64-23.36,24-52.09C586.8,249.79,591.22,268.5,591.82,281.19Z" style="fill:#d3766a"></path><path d="M480.32,336.6c-4.08-4.11-21.11-24.62-24.58-31.38s-12-27-7.1-30.14,7.89,2.53,7.89,2.53-2.26-9.1,3-11.84,9.58,6.29,9.58,6.29-1.64-9.52,3.78-11.89,8.26,7.45,8.26,7.45-1.91-8.62,3.38-8.7c6.36-.08,8.07,16.22,12.46,23.4C498,284,519.48,314,519.48,314Z" style="fill:#d3766a"></path><path d="M480.86,266.79c1.29,12,3.93,17,11.3,26.31.15.18-.09.43-.26.26-8-8.45-12.27-14.27-11.63-26.54C480.31,266.22,480.8,266.22,480.86,266.79Z" style="fill:#263238"></path><path d="M469,271.1c2.43,12.33,5.25,17.81,12.25,28.11.1.15-.13.33-.25.19-7.72-9.53-11.79-15.44-12.6-28.08C468.35,270.75,468.88,270.54,469,271.1Z" style="fill:#263238"></path><path d="M456.9,278.13c3.22,11.77,6,17.9,14.13,27a.23.23,0,0,1-.32.32c-9.15-8.51-12.73-16.14-14.15-27.22C456.46,277.51,456.7,277.39,456.9,278.13Z" style="fill:#263238"></path><path d="M528.17,318.07s-.22-16.64-2-23.19-17.51-28.5-22.44-25.38c-6.37,4,.2,18.49,4.34,25.15,0,0-14.74,9.31-12.27,20.7S528.17,318.07,528.17,318.07Z" style="fill:#d3766a"></path><path d="M502.32,271.18c-3.16,7.86,2.85,16.26,6.38,23a.7.7,0,0,1-.48,1c-5.92,4.31-13,12.12-12.85,19.85a.18.18,0,0,1-.35,0c-1.3-8.26,5-16.51,11.82-20.82-3.73-6.88-9.38-15.56-4.59-23.17C502.27,271.1,502.34,271.13,502.32,271.18Z" style="fill:#263238"></path><path d="M529.91,313.12l-43.32,35.53s-.52,11.78,6.83,19.35c16.52,17,50.89,37.76,64.92,33.52,20.29-6.13,31.34-74.51,34.31-110.75s-10.1-32.52-21.55-9.41c-10.24,20.67-22.3,52.6-23.65,52-.72-.33-4.06-7.22-8.47-12.44A41.72,41.72,0,0,0,529.91,313.12Z" style="fill:#c7c7c7"></path><path d="M560.88,364.44a123.2,123.2,0,0,0-5.84-16.8,118.88,118.88,0,0,0-8.18-15.56c-1.74-2.86-3.61-5.63-5.47-8.42-.06-.08-.19,0-.13.09a152.41,152.41,0,0,1,8.39,15.57q3.79,7.92,7.29,16c1.32,3,2.5,6.14,3.71,9.22A.12.12,0,0,0,560.88,364.44Z" style="fill:#263238"></path><path d="M504.61,352.34c2.78-2.19,5.52-4.44,8.22-6.72,5.37-4.51,10.73-9,16-13.69,3-2.64,5.82-5.35,8.75-8,.17-.16-.07-.4-.24-.26-5.5,4.37-11,8.67-16.42,13.19s-10.71,9.05-15.92,13.73c-2.94,2.63-5.73,5.47-8.73,8a.11.11,0,0,0,.15.17C499,356.53,501.88,354.49,504.61,352.34Z" style="fill:#263238"></path><path d="M592.65,290.77c-3,36.24-14,104.62-34.31,110.75-8.41,2.54-24.12-3.89-38.92-13.12l67.86-124.59C591.61,264.51,594.14,272.64,592.65,290.77Z" style="fill:#a6a6a6"></path><path d="M551.72,402.61H673.29c1.34-2.46-18.59-108.94-59.59-138.93-9.09-6.65-25.23-2.37-29.72,4.1C561.42,300.29,551.72,402.61,551.72,402.61Z" style="fill:#c7c7c7"></path><path d="M622.11,276.29c14.58,24.79,43,112,25,122.85S553,369.1,532.37,353c-6.12-4.79,28.25-36.52,36.53-35.72,6.89.66,38.1,22.75,38.79,20.6.4-1.23-3-18-4.57-49.64C601.27,251.78,615.67,265.33,622.11,276.29Z" style="fill:#d3766a"></path><path d="M485.16,289.72a2.74,2.74,0,0,1,2.5-.27c-.57-4.39,0-8.05,3.2-9.14,1.84-.65,3.63.11,5.24,1.74.08-2.22,1-3.76,3-4.13,3.64-.66,8.68,6,12.94,13.21-2.14-5.39-3-10.2.25-10.92,8.61-1.9,16.45,15.2,23.39,26,2.06,3.22,4.92,7,7.61,9.21a10.91,10.91,0,0,0,1.48,1c1.42.81,2.76,1,3.81.18,1.87-1.49-.21-6.56-2.58-9.38-4.5-5.32-5.5-16-2.2-18.87,4.83-4.2,13.55,9.38,17.76,13.35,5.64,5.32,11.73,17.07,12.3,17.85,0,0-2.59,4.07-6.5,9.52-7.45,10.41-19.68,25.8-27.7,27.42,0,0-24.43-10.15-43.78-26.73C489.36,324.17,477.45,294.07,485.16,289.72Z" style="fill:#d3766a"></path><path d="M527.19,317.21a31.91,31.91,0,0,1-9.64-11c-3.29-5.93-3.82-9.74-6-15.85a.13.13,0,0,1,.24-.09c1,2.9,4.95,12.41,6.27,15.11a30.28,30.28,0,0,0,9.19,11.72S527.24,317.24,527.19,317.21Z" style="fill:#263238"></path><path d="M517.83,323.89a71.19,71.19,0,0,1-10.92-12c-3.88-5.44-5.73-12-7.6-18.35-1.12-3.81-2.17-7.65-3.12-11.52,0-.16.2-.26.25-.09q2.79,9.78,6.16,19.39A47.42,47.42,0,0,0,512,317.42c2.38,2.68,3.31,3.91,5.89,6.39C518,323.86,517.88,323.94,517.83,323.89Z" style="fill:#263238"></path><path d="M509.06,329.89c-4.5-3.64-8.59-6.78-11.65-11.82-4.06-6.66-6.08-14.59-7-17.78-1-3.53-1.85-7.08-2.67-10.66,0-.14.22-.2.26-.06a188.65,188.65,0,0,0,7.48,23.34,30.23,30.23,0,0,0,5.29,8.95,66.78,66.78,0,0,0,8.3,8A0,0,0,0,1,509.06,329.89Z" style="fill:#263238"></path><path d="M512.34,280.21a3,3,0,0,0-1.66,1.4,4.22,4.22,0,0,0-.4,2.16,17.66,17.66,0,0,0,.87,4.36,21.48,21.48,0,0,1,.59,2.2s0,.11,0,.17,0,0,0,.14-.18.2-.26.16c-.23-.09-.17-.14-.23-.18a.51.51,0,0,1-.09-.13l-.3-.49-.54-1c-.71-1.31-1.45-2.61-2.24-3.87-1.6-2.47-3.41-5-5.94-6.38a4.34,4.34,0,0,0-4-.1,2.75,2.75,0,0,0-1.57,3.24l.41,1.6-1.12-1.23a5.31,5.31,0,0,0-3.28-1.72,3.3,3.3,0,0,0-3.18,1.4,8.59,8.59,0,0,0-1.26,3.65,11.76,11.76,0,0,0,0,3.93l.19,1-.87-.47a2.49,2.49,0,0,0-2.32.26,3.3,3.3,0,0,0-1.54,2,16.78,16.78,0,0,0-.61,5.63,43.93,43.93,0,0,0,2.2,11.13c1.37,4.37,4,12.36,9.13,18.64,3.54,4.34,9.7,8.54,11.55,9.87-1.73-1-8.3-4.7-12.21-9.3-5-5.92-7.86-14.57-9.24-18.77A43.08,43.08,0,0,1,482.23,298a17.34,17.34,0,0,1,.62-5.93,5.82,5.82,0,0,1,.69-1.42,3.51,3.51,0,0,1,1.22-1.09,3.28,3.28,0,0,1,3.24-.26l-.67.48a12.22,12.22,0,0,1-.07-4.26,9.41,9.41,0,0,1,1.44-4,3.88,3.88,0,0,1,1.76-1.43,4.83,4.83,0,0,1,2.22-.3,6,6,0,0,1,3.83,2l-.71.37a3.84,3.84,0,0,1,.23-2.48,3.6,3.6,0,0,1,1.8-1.69,5.1,5.1,0,0,1,2.35-.5,5.32,5.32,0,0,1,2.3.65c2.76,1.59,4.49,4.21,6.07,6.74.79,1.29,1.5,2.62,2.19,4l.51,1c.12.32.55.74.09.6a18.86,18.86,0,0,0-.5-2.17,18.55,18.55,0,0,1-.72-4.45,4.54,4.54,0,0,1,.48-2.2A3.07,3.07,0,0,1,512.34,280.21Z" style="fill:#263238"></path><path d="M578.92,320.36l-28.68,53.56s6.3,11.08,17.42,15.69c23.84,9.89,64.82,17.09,78.05,12.08,19.41-7.34,1.21-71.75-16.9-113.94s-28.45-24-26.83,3.89c1.49,25.76,5.09,44.34,4.5,44.38-.31,0-6.67-7.15-13.85-11.28A38.39,38.39,0,0,0,578.92,320.36Z" style="fill:#c7c7c7"></path><path d="M623.22,403a170.27,170.27,0,0,1-20.26-2.1A158.69,158.69,0,0,1,583,396.41c-3.28-.94-6.51-2.09-9.69-3.34a70.35,70.35,0,0,1-9.27-4.44,43.77,43.77,0,0,1-8.36-6.06,22.72,22.72,0,0,1-5.81-8.51l-.06-.17.07-.13c1.32-2.24,2.63-4.48,4-6.69-1.09,2.36-2.23,4.69-3.36,7v-.3a23.49,23.49,0,0,0,6.09,7.76,45.05,45.05,0,0,0,8.29,5.54,105.08,105.08,0,0,0,18.66,7.44c3.23,1,6.48,1.85,9.75,2.67s6.57,1.54,9.88,2.23C609.84,400.79,616.51,402,623.22,403Z" style="fill:#263238"></path><path d="M634.52,301.8a267.28,267.28,0,0,1,10.18,25.51,244.15,244.15,0,0,1,7.54,26.46c1.92,9,3.38,18.13,3.14,27.39a40.49,40.49,0,0,1-2.45,13.66,12.08,12.08,0,0,1-4.7,5.17,18.73,18.73,0,0,1-6.39,2.52,20.52,20.52,0,0,0,6.1-2.95,11.36,11.36,0,0,0,4.09-5.11,31.33,31.33,0,0,0,1.42-6.55,56.49,56.49,0,0,0,.37-6.76,99.1,99.1,0,0,0-1.08-13.53c-.62-4.5-1.46-9-2.45-13.41-1.94-8.9-4.41-17.68-7.07-26.41S637.64,310.4,634.52,301.8Z" style="fill:#263238"></path><path d="M640.92,310.17a16.56,16.56,0,0,1,.93,3.08,26.1,26.1,0,0,1,.49,3.17,21.56,21.56,0,0,1-.3,6.41c-.18-1.07-.28-2.12-.39-3.17l-.31-3.15C641.17,314.41,641,312.32,640.92,310.17Z" style="fill:#263238"></path><path d="M607.08,337.67c-.65-2.91-1.17-5.85-1.68-8.79s-.94-5.9-1.35-8.85-.77-5.92-1-8.9a89,89,0,0,1-.51-8.95c.2,1.49.38,3,.63,4.44l.64,4.42c.45,2.95.86,5.9,1.27,8.85s.79,5.91,1.12,8.88S606.84,334.69,607.08,337.67Z" style="fill:#263238"></path><path d="M600.75,308.88a29.3,29.3,0,0,1,2.24,4.87,30.45,30.45,0,0,1,1.47,5.15,21.45,21.45,0,0,1-2.41-4.81A22.47,22.47,0,0,1,600.75,308.88Z" style="fill:#263238"></path><path d="M578.92,320.36a27.41,27.41,0,0,1,6.56.65,24.74,24.74,0,0,1,6.29,2.24,35.2,35.2,0,0,1,5.49,3.8c1.7,1.37,3.37,2.78,5,4.2,3.29,2.87,6.52,5.8,9.66,8.83s6.23,6.1,9.17,9.35c-3.5-2.63-6.87-5.39-10.21-8.19s-6.63-5.64-9.93-8.48c-1.63-1.44-3.28-2.85-4.92-4.26a42.4,42.4,0,0,0-5-3.9,28.68,28.68,0,0,0-5.79-2.65A40.07,40.07,0,0,0,578.92,320.36Z" style="fill:#263238"></path><path d="M568.74,368.67q2.64-4.6,5.14-9.29c3.32-6.17,6.63-12.35,9.75-18.63,1.77-3.54,3.43-7.12,5.17-10.67.1-.2-.21-.35-.32-.15-3.48,6.09-7,12.14-10.36,18.33s-6.6,12.38-9.71,18.65c-1.76,3.54-3.29,7.21-5.14,10.69-.07.13.14.23.21.1C565.1,374.63,567,371.67,568.74,368.67Z" style="fill:#263238"></path><path d="M584.67,282.62c7.27.92,18.29-11.22,22.16-20.52.26-.64-4.82-24.47-5.33-29.3-.11-1-29.49,10.6-29.49,10.6s4.06,9.79,4.91,18.21C577,262.32,577.64,281.73,584.67,282.62Z" style="fill:#d3766a"></path><path d="M604.22,247.8c-12.69,12.22-27.14,10.48-27.79,10.39a84.63,84.63,0,0,0-4.42-14.8s29.38-11.58,29.48-10.59C601.74,235.07,603,241.52,604.22,247.8Z" style="fill:#263238"></path><path d="M601.78,197.69c5,10.14,4.22,41.83-2.27,49.9-9.4,11.7-27.25,15.52-37.8,3.65-10.24-11.5-8.56-52.78-1.09-60.37C571.64,179.7,594.47,182.71,601.78,197.69Z" style="fill:#d3766a"></path><path d="M575.66,221.54c0-.08.17.1.17.19-.09,2.13.17,4.59,2.1,5.32.06,0,.05.13,0,.12C575.55,226.81,575.24,223.55,575.66,221.54Z" style="fill:#263238"></path><path d="M577.59,219.33c3.43-.24,3.64,6.65.46,6.87S574.71,219.52,577.59,219.33Z" style="fill:#263238"></path><path d="M563.56,222.29c0-.08-.16.11-.16.19.13,2.14-.07,4.6-2,5.37-.06,0,0,.13,0,.12C563.79,227.56,564,224.29,563.56,222.29Z" style="fill:#263238"></path><path d="M561.59,220.12c-3.44-.16-3.5,6.74-.32,6.88S564.47,220.25,561.59,220.12Z" style="fill:#263238"></path><path d="M580.21,216.09a24.16,24.16,0,0,1-2.7-.86,4.54,4.54,0,0,1-2.58-1.4,1.46,1.46,0,0,1,.18-1.77,3.63,3.63,0,0,1,3.63-.48,5.3,5.3,0,0,1,3.13,2.2A1.55,1.55,0,0,1,580.21,216.09Z" style="fill:#263238"></path><path d="M558.82,216.73a25.46,25.46,0,0,0,2.71-.79,4.6,4.6,0,0,0,2.62-1.34,1.46,1.46,0,0,0-.14-1.77,3.62,3.62,0,0,0-3.62-.57,5.3,5.3,0,0,0-3.18,2.12A1.56,1.56,0,0,0,558.82,216.73Z" style="fill:#263238"></path><path d="M579.11,241.26c-.49.51-1,1.22-1.75,1.31a5.79,5.79,0,0,1-2.31-.47c-.07,0-.14.05-.09.11a2.89,2.89,0,0,0,2.74,1.08,2.27,2.27,0,0,0,1.62-1.94C579.35,241.22,579.19,241.18,579.11,241.26Z" style="fill:#263238"></path><path d="M576.68,234.94a7.3,7.3,0,0,1-4.75,3.38,9.15,9.15,0,0,1-2.61.2,2.78,2.78,0,0,1-.51,0l-.47-.06a.53.53,0,0,1-.44-.47h0a1.62,1.62,0,0,1,0-.22v-.2c-.09-1.65,0-4.15,0-4.15-.59.32-3.61,1.79-3.59.93.21-7.12.44-15,2.15-22.08a.2.2,0,0,1,.39.05c.07,6.85-1.06,13.66-1.1,20.54a12.84,12.84,0,0,1,3.4-1.14c.24.06-.25,4.83-.15,5.57a.24.24,0,0,0,0,.08c2.77.27,4.83-.63,7.45-2.57C576.63,234.63,576.8,234.76,576.68,234.94Z" style="fill:#263238"></path><path d="M570.26,237.66a8.67,8.67,0,0,0,3.53,2.57,3.87,3.87,0,0,0,2.36.07c1.69-.5,1.69-2.06,1.33-3.39a9,9,0,0,0-.82-2A11.18,11.18,0,0,1,570.26,237.66Z" style="fill:#263238"></path><path d="M573.79,240.23a3.87,3.87,0,0,0,2.36.07c1.69-.5,1.69-2.06,1.33-3.39C575.66,237.15,573.89,238.45,573.79,240.23Z" style="fill:#ff99ba"></path><path d="M605,218.63c.08,11.73-1.68,26.19-5.43,30.86-9.41,11.7-27.7,15.86-38.26,4-3.68-4.14-5.44-14.37-6.32-23.27,0,0,2.15,12.65,7.57,17s11.62,4.54,13.62,3.54.53-6.89.53-6.89l2.6-.48s.06,4.62,3.63,5.49,9.75-3.73,11.53-7.61,1.62-21.9,1.62-21.9Z" style="fill:#263238"></path><path d="M604.56,229.27a4.2,4.2,0,0,1-1-.07c-10.52-1.9-7.76-30-20.4-31.61-8.61-1.07-12.41,4.13-15.85,4s-5-4.88-7.76-3.88c-2.16.78-3.31,4.63-4,8,1-7,2.77-12.54,5.09-14.9,11-11.17,33.85-8.16,41.16,6.82C604.73,203.74,605.67,217.47,604.56,229.27Z" style="fill:#263238"></path><path d="M598.19,223.83s5.6-11,10.48-9.09,1.63,17.06-3.41,19.78a5.47,5.47,0,0,1-7.66-1.9Z" style="fill:#d3766a"></path><path d="M607.63,219.07a.08.08,0,0,1,0,.14c-3.52,2-5,5.76-5.88,9.54.92-1.54,2.32-2.5,4.35-1.44a.11.11,0,0,1-.07.21,3.38,3.38,0,0,0-3.5,1.67,16.78,16.78,0,0,0-1.35,3.21c-.12.36-.75.26-.68-.14a.29.29,0,0,0,0-.09C599.82,227.43,602.59,220.26,607.63,219.07Z" style="fill:#263238"></path><path d="M556.13,201.27s22.72-5.54,48.33,8.21c0,0,2.1-24.65-24.15-26.16C558.28,182.05,556.13,201.27,556.13,201.27Z" style="fill:#FFA52E"></path><path d="M576.48,276.31a80.9,80.9,0,0,1-1-10.69c.16-.63,3.28.85,3.88.84s3.1,10.61,3.1,10.61,0-10.7.77-11.4,21.51-17.27,23.12-17.53,1.63,13.6,1.63,13.6-7,20.08-22.08,22.47C577.38,285.57,576.48,276.31,576.48,276.31Z" style="fill:#c7c7c7"></path></g><g id="freepik--character-2--inject-564"><polygon points="446.33 402.25 323.67 402.25 338.13 259.98 429.85 259.98 446.33 402.25" style="fill:#ebebeb"></polygon><polygon points="446.33 402.25 435.58 402.25 419.54 259.98 429.85 259.98 446.33 402.25" style="fill:#dbdbdb"></polygon><path d="M393.9,306.11c-.9,8.08-13.54,80.4-32.9,92.08-11.13,6.71-30.85,10.17-27.92-13.77,1.94-15.91,25.66-59.83,43-77.5C383.17,299.71,395,296.27,393.9,306.11Z" style="fill:#eb9481"></path><path d="M393.9,306.11c-.9,8.08-13.54,80.4-32.9,92.08-11.13,6.71-30.85,10.17-27.92-13.77,1.94-15.91,25.66-59.83,43-77.5C383.17,299.71,395,296.27,393.9,306.11Z" style="fill:#FFA52E"></path><path d="M393.9,306.11c-.9,8.08-13.54,80.4-32.9,92.08-7.5,4.52-18.91,7.57-24.64,1.74,11.2-22.24,40-79.34,50.39-99.54C391.11,299.27,394.51,300.63,393.9,306.11Z" style="opacity:0.1"></path><path d="M309.61,330.76c1.29-4.4,33.54-22.51,35.93-16.2,10.92,28.86,16.7,67.35,10.8,81.06-5.11,11.85-19.89,4-23.89.43C326.65,390.82,308.33,335.11,309.61,330.76Z" style="fill:#eb9481"></path><path d="M311.82,339.22s-2.29-2.69-8.72-14.79c-4.44-8.37-9.91-31.6,7.44-51.8,6.65-7.74,15-6.45,9.5,2.81-3.86,6.53-7.09,10.72-7.75,13.21,0,0,10.84-4.14,16.43-.41A125.1,125.1,0,0,1,342.65,299a26.07,26.07,0,0,1-1.79,2.79s7.16,10.68,5.18,20Z" style="fill:#eb9481"></path><path d="M300.14,315.77c1.13-4.84,3.7-15,8.7-22.67,5.56-8.47,18.55-23.28,24.76-19.11,4.55,3.06.09,9.15.09,9.15s6.65-5,10.16-1.33c3.2,3.33-.54,7.84-.54,7.84s4.56-2.33,7,1.47c3,4.58-7.08,8.72-8.09,15.94C342,308.68,300.14,315.77,300.14,315.77Z" style="fill:#eb9481"></path><path d="M316.93,300.61c1.81-4.37,8.47-13.25,16.67-17.34.19-.09.36,0,.21.12A99.52,99.52,0,0,0,317,300.67S316.91,300.66,316.93,300.61Z" style="fill:#263238"></path><path d="M325.51,305.83c1.95-3.62,9.22-12.46,17.68-16.32.19-.09.35,0,.2.13a106.71,106.71,0,0,0-17.8,16.24C325.56,305.93,325.49,305.87,325.51,305.83Z" style="fill:#263238"></path><path d="M300.86,289.78a54.57,54.57,0,0,1,5.67-12.44c2.41-3.87,5.56-7.47,9.74-9.59a5.66,5.66,0,0,1,3.53-.62,2.58,2.58,0,0,1,1.58,1.1,4.38,4.38,0,0,1,.72,1.69,6.16,6.16,0,0,1-.48,3.56,15.71,15.71,0,0,1-1.75,3c-1.3,1.85-2.51,3.78-3.69,5.72-.59,1-1.17,1.95-1.73,2.94a25.23,25.23,0,0,0-1.53,2.95l-.78-.45c2.11-2.31,4.25-4.57,6.46-6.78a64.74,64.74,0,0,1,7-6.26,10.33,10.33,0,0,1,4.54-1.76,5.8,5.8,0,0,1,4.76,1.29,4,4,0,0,1,1.16,2.3A6.35,6.35,0,0,1,336,279a15.16,15.16,0,0,1-1.9,4.4l-.64-.6a19.3,19.3,0,0,1,4.5-2.24,10,10,0,0,1,2.52-.49,4.78,4.78,0,0,1,2.6.54,4.67,4.67,0,0,1,1.79,2,5.51,5.51,0,0,1,.61,2.55,8,8,0,0,1-1.79,4.76l-.42-.56a9,9,0,0,1,3.14-.62,4.84,4.84,0,0,1,3.08,1,4.5,4.5,0,0,1,1.06,1.25,4.41,4.41,0,0,1,.61,1.52,4.08,4.08,0,0,1-.84,3.09,51.82,51.82,0,0,1-4.14,4.58,15.46,15.46,0,0,0-3.3,5.08v-.1c.61,1.19,1.17,2.41,1.66,3.65a18.41,18.41,0,0,1,1.1,3.85,18.14,18.14,0,0,0-1.23-3.8,39.39,39.39,0,0,0-1.74-3.58l0-.05v-.05a15.77,15.77,0,0,1,3.23-5.26c1.35-1.56,2.86-3,4-4.62a3.52,3.52,0,0,0,.7-2.69,3.67,3.67,0,0,0-.55-1.31,3.84,3.84,0,0,0-.93-1.07c-1.54-1.16-3.79-.86-5.55-.17l-1.18.46.76-1a7.41,7.41,0,0,0,1.55-4.3,4.7,4.7,0,0,0-.56-2.17,4,4,0,0,0-1.46-1.62,5.72,5.72,0,0,0-4.43.05,18.17,18.17,0,0,0-4.27,2.14l-1.64,1.09,1-1.7a14.56,14.56,0,0,0,1.77-4.13,4,4,0,0,0-.8-3.92,4.86,4.86,0,0,0-4-1,9.15,9.15,0,0,0-4.08,1.61,64.3,64.3,0,0,0-6.92,6.13q-3.31,3.27-6.46,6.7l-1.72,1.87.95-2.31a26.84,26.84,0,0,1,1.62-3.12c.57-1,1.16-2,1.76-3,1.2-1.94,2.42-3.87,3.75-5.75a15.11,15.11,0,0,0,1.7-2.85,5.4,5.4,0,0,0,.49-3.11,3.79,3.79,0,0,0-.59-1.44,1.82,1.82,0,0,0-1.15-.82,5,5,0,0,0-3.09.53c-4,2-7.18,5.45-9.68,9.21A56.67,56.67,0,0,0,300.86,289.78Z" style="fill:#263238"></path><path d="M310.17,338.92l38-23.66s18.83,56.92,7.85,81c-5,11-21.07,10-29.26-9.55S310.17,338.92,310.17,338.92Z" style="fill:#FFA52E"></path><path d="M349.23,326.32c-5.41,3.72-28.05,18-33.14,20.75-.35.19-.55,0-.2-.27,16-11.62,27.72-17.38,33.2-20.72C349.22,326,349.37,326.22,349.23,326.32Z" style="fill:#263238"></path><path d="M358.77,385.87c.12-3,.44-6,.35-9,.07-3-.11-6-.25-9-.47-6-1.09-11.91-2.14-17.8s-2.23-11.76-3.72-17.56-3.08-11.58-5-17.26l.16.05-3.47,2,3.35-2.22.12-.08.05.14a171.13,171.13,0,0,1,5.57,17.13c1.53,5.81,2.86,11.67,3.87,17.6a156.4,156.4,0,0,1,1.91,17.93A104,104,0,0,1,358.77,385.87Z" style="fill:#263238"></path><path d="M359.29,370.5a17,17,0,0,1,1.77,4.32,16.1,16.1,0,0,1,.44,2.3,7.71,7.71,0,0,1-.06,2.35c-.13-.77-.34-1.51-.52-2.25l-.59-2.21C360,373.53,359.54,372.05,359.29,370.5Z" style="fill:#263238"></path><path d="M445.35,402.48c0-.12-92.79-.23-92.79-.23-.22-.36,16.24-74,24.56-93.78,2.82-6.71,13.58-12,24.51-4.62C431.26,323.9,445.35,403.17,445.35,402.48Z" style="fill:#FFA52E"></path><path d="M396.89,304c-.44,1.62-8.61,11.89-16,11.26-2.42-.21-1.86-13.46-1.86-13.46l-.19-1L376.26,287l18.87-11S397.07,303.35,396.89,304Z" style="fill:#eb9481"></path><path d="M376.26,287l2.55,13.82.18,1s-.1,2.4,0,5.17c10.19-1.12,15.13-8.56,17.35-13.74-.51-7.9-1.18-17.25-1.18-17.25Z" style="fill:#263238"></path><path d="M353.15,264.55c-5.37,29.64,11.77,36.21,18.16,37.36,5.81,1,25.7,3.86,34.1-25.06s-3.68-40.8-16.82-43.89S358.52,234.91,353.15,264.55Z" style="fill:#eb9481"></path><path d="M361.52,265.35a20.67,20.67,0,0,0,2.08-.09,3.32,3.32,0,0,0,2.1-.49,1.08,1.08,0,0,0,.22-1.29,2.66,2.66,0,0,0-2.49-1.05,3.88,3.88,0,0,0-2.64,1A1.14,1.14,0,0,0,361.52,265.35Z" style="fill:#263238"></path><path d="M381.55,269.68a20.55,20.55,0,0,1-1.94-.76,3.37,3.37,0,0,1-1.83-1.15,1.07,1.07,0,0,1,.22-1.29,2.62,2.62,0,0,1,2.68-.18,3.88,3.88,0,0,1,2.19,1.76A1.14,1.14,0,0,1,381.55,269.68Z" style="fill:#263238"></path><path d="M374.35,290.71c-.54.43-1.1,1-1.85,1a5.41,5.41,0,0,1-2.14-.74c-.06,0-.13,0-.09.09a2.74,2.74,0,0,0,2.47,1.38,2.17,2.17,0,0,0,1.79-1.63C374.58,290.71,374.42,290.65,374.35,290.71Z" style="fill:#263238"></path><path d="M367.07,282s-.91,3-1.14,4.38c0,.13.31.25.79.36,0,0,0,0,.06,0a6.88,6.88,0,0,0,7-1.46c.12-.12,0-.3-.18-.23a10.36,10.36,0,0,1-6.48.76c0-.41,1.73-5.06,1.5-5.06-1,0-2.71.15-3.36.21.55-1.94,2.38-7.35,3.37-10.87.06-.22-.27-.35-.36-.15a96.65,96.65,0,0,0-4.67,12C363.5,282.29,366.46,282.17,367.07,282Z" style="fill:#263238"></path><path d="M360.45,273.75a3,3,0,0,0,.53,1.55,2.21,2.21,0,0,0,1.55.87,2,2,0,0,0,1.67-.68,3.65,3.65,0,0,0,.73-1.44,6.38,6.38,0,0,0,.15-1,4.17,4.17,0,0,0-.26-2,6.34,6.34,0,0,1-.2,1.45,9.63,9.63,0,0,1-.41,1.25c-.35.83-.92,1.5-1.6,1.4s-1.2-.68-1.41-1.57a14.75,14.75,0,0,1-.29-2.8A6.4,6.4,0,0,0,360.45,273.75Z" style="fill:#263238"></path><path d="M380.17,276.79a3.19,3.19,0,0,1-1,1.31,2.23,2.23,0,0,1-1.74.37,2,2,0,0,1-1.39-1.15,3.64,3.64,0,0,1-.26-1.6,6.19,6.19,0,0,1,.15-1,4.28,4.28,0,0,1,.84-1.82,6.57,6.57,0,0,0-.24,1.44,8.26,8.26,0,0,0,0,1.32c.08.9.42,1.71,1.1,1.81s1.35-.28,1.81-1.07a14,14,0,0,0,1.12-2.58A6.35,6.35,0,0,1,380.17,276.79Z" style="fill:#263238"></path><path d="M405.41,276.85a60.69,60.69,0,0,1-2.24,6.39c-10-4.59-3.87-24.82-11.35-29.13-5-2.87-11.64.44-17-1.67s-4.95-4.76-9.28-5-9.15,6.87-10.75,10.07c6.61-23.41,21.81-27.4,33.84-24.56C401.73,236.06,413.82,247.92,405.41,276.85Z" style="fill:#263238"></path><path d="M357.42,250s25-3.48,51,14.06c0,0,5.4-28.32-22.63-32.79C362.28,227.51,357.42,250,357.42,250Z" style="fill:#455a64"></path><path d="M376.47,285.16a8.78,8.78,0,0,1-6.09-10.8h0a8.77,8.77,0,1,1,8.24,11.12A8.48,8.48,0,0,1,376.47,285.16Zm-5-10.49a7.6,7.6,0,1,0,9.36-5.27,7.18,7.18,0,0,0-1.87-.28A7.6,7.6,0,0,0,371.51,274.67Z" style="fill:#37474f"></path><path d="M358.13,282.53c-3.56-.51-5.91-4.81-5.24-9.6a10.48,10.48,0,0,1,2.69-5.81,5.46,5.46,0,0,1,9.26,1.3,10.39,10.39,0,0,1,1,6.33c-.63,4.53-3.76,7.9-7.11,7.82C358.52,282.57,358.33,282.55,358.13,282.53Zm-1.7-14.6a9.29,9.29,0,0,0-2.38,5.17c-.58,4.14,1.32,7.85,4.25,8.26s5.78-2.62,6.36-6.77a9.29,9.29,0,0,0-.85-5.62,4.68,4.68,0,0,0-3.39-2.65l-.45,0A4.87,4.87,0,0,0,356.43,267.93Z" style="fill:#37474f"></path><path d="M370.53,275.4l.87-.78c-1.16-1.29-4-3.21-6.44-1.24l.74.91C367.88,272.52,370.42,275.29,370.53,275.4Z" style="fill:#37474f"></path><path d="M408.91,283.09l1.1-.39c-.18-.52-1.84-5.07-4.37-5.85-2.37-.73-18.14-1.46-18.81-1.49l-.05,1.17c4.52.2,16.68.87,18.51,1.44C407,278.49,408.47,281.84,408.91,283.09Z" style="fill:#37474f"></path><path d="M399.12,279s6.68-9.33,10.92-6.93-.87,16-5.9,17.77a5.09,5.09,0,0,1-6.79-2.82Z" style="fill:#eb9481"></path><path d="M408.48,275.93a.07.07,0,0,1,0,.14c-3.52,1.38-5.41,4.61-6.75,8,1.06-1.28,2.49-2,4.22-.72.09.07,0,.21-.1.19a3.14,3.14,0,0,0-3.46,1.05,15,15,0,0,0-1.68,2.77c-.17.32-.73.14-.61-.22l0-.08C400.11,282.55,403.67,276.33,408.48,275.93Z" style="fill:#263238"></path><path d="M391.25,313.16c.43,8.11,24.95,80.88,40.7,88.32,11.75,5.55,29.13,2.32,25.23-16.66-3.22-15.69-33.69-66.51-53.91-80C394.87,299.16,390.73,303.27,391.25,313.16Z" style="fill:#eb9481"></path><path d="M391.25,313.16c.43,8.11,24.95,80.88,40.7,88.32,11.75,5.55,29.13,2.32,25.23-16.66-3.22-15.69-33.69-66.51-53.91-80C394.87,299.16,390.73,303.27,391.25,313.16Z" style="fill:#eb9481"></path><path d="M391.25,313.16c.43,8.11,24.95,80.88,40.7,88.32,11.75,5.55,29.13,2.32,25.23-16.66-3.22-15.69-33.69-66.51-53.91-80C394.87,299.16,390.73,303.27,391.25,313.16Z" style="fill:#FFA52E"></path><path d="M387.36,360c-11.64-8.23-24-23.39-27.24-38.84a7.77,7.77,0,0,1,.52-5.09c-1.57-6.9,1.22-9.71,1.22-9.71-.66-7.47,3.75-9.36,3.75-9.36s-.57-5.86,4.47-6.58,6.28,9.49,11,15.51c10.9,13.79,29.2,27.15,32.74,30.82Z" style="fill:#eb9481"></path><path d="M381.33,325.18a112.93,112.93,0,0,1-8.85-12.62c-2.8-5-4.66-10.21-6.69-15.5a.14.14,0,0,0-.26.08c2.15,10.16,8.29,20.85,15.62,28.19C381.32,325.5,381.49,325.39,381.33,325.18Z" style="fill:#263238"></path><path d="M374,333c-2.82-4.18-7.72-11.56-11.94-26.69a0,0,0,0,0-.09,0,53.71,53.71,0,0,0,11.83,26.8C374,333.35,374.15,333.24,374,333Z" style="fill:#263238"></path><path d="M370.08,337c-4.52-7.29-6.45-12.46-9.24-21,0-.05-.11,0-.09,0,2.14,10.06,4.06,13.47,9.1,21.19C370,337.41,370.25,337.24,370.08,337Z" style="fill:#263238"></path><path d="M393.37,319.33c2.17,1.17,2.79,0,1-4S382.3,297,387.62,293.78s19.63,17.31,22,24.21,3.9,18.91,3.9,18.91C410,333.47,400.49,326,393.37,319.33Z" style="fill:#eb9481"></path><path d="M366.39,337.12A68.15,68.15,0,0,1,361.52,327a30.82,30.82,0,0,1-1.56-5.42,13.6,13.6,0,0,1-.23-2.85,6.3,6.3,0,0,1,.71-2.82l0,.21a17.52,17.52,0,0,1-.52-5.15,7.9,7.9,0,0,1,1.77-4.93l-.09.31a12.69,12.69,0,0,1-.1-2.75,11.41,11.41,0,0,1,.52-2.7,8.1,8.1,0,0,1,1.29-2.47,7.34,7.34,0,0,1,2.12-1.84l-.21.43a8.5,8.5,0,0,1,.28-3.14,5.42,5.42,0,0,1,1.68-2.72,5.34,5.34,0,0,1,3-1.21,4,4,0,0,1,3.06,1.12,10.39,10.39,0,0,1,1.89,2.48c.52.87,1,1.77,1.41,2.68.89,1.79,1.63,3.69,2.51,5.41a52.84,52.84,0,0,0,6.9,9.59c1.3,1.49,2.66,2.94,4.06,4.35.69.71,1.41,1.4,2.13,2.06s1.49,1.5,2.18,1.67a.66.66,0,0,0,.44,0,1.28,1.28,0,0,0,.21-.14c.1-.09,0,0,.07-.09a2.79,2.79,0,0,0-.19-1.21,23,23,0,0,0-1.14-2.69c-.87-1.78-1.81-3.54-2.73-5.3s-1.87-3.53-2.74-5.33A28.83,28.83,0,0,1,386,298.9a7.66,7.66,0,0,1,0-3.09,3.53,3.53,0,0,1,1.79-2.55,3.77,3.77,0,0,1,3.09.19,10.32,10.32,0,0,1,2.51,1.71,54.83,54.83,0,0,1,7.92,9,58.42,58.42,0,0,0-8.15-8.7,9.41,9.41,0,0,0-2.45-1.58,3.28,3.28,0,0,0-2.7-.13,3.05,3.05,0,0,0-1.48,2.21,7.39,7.39,0,0,0,0,2.85,28.14,28.14,0,0,0,2.23,5.45c.89,1.78,1.85,3.52,2.81,5.27s1.93,3.49,2.81,5.29a23.5,23.5,0,0,1,1.2,2.81,3.11,3.11,0,0,1,.2,1.72,1,1,0,0,1-.34.51,2.42,2.42,0,0,1-.41.27,1.57,1.57,0,0,1-1,.1,3.64,3.64,0,0,1-1.45-.88c-.38-.36-.72-.63-1.13-1-.75-.68-1.47-1.37-2.17-2.08-1.42-1.41-2.8-2.87-4.12-4.37a51.73,51.73,0,0,1-7.06-9.77c-.46-.91-.88-1.83-1.27-2.74s-.81-1.81-1.23-2.71a17.24,17.24,0,0,0-3.06-4.89,3,3,0,0,0-2.38-.89,4.5,4.5,0,0,0-2.48,1,6,6,0,0,0-1.68,5.07l0,.3-.23.13a6.91,6.91,0,0,0-3.07,3.82,10.57,10.57,0,0,0-.51,2.5,11.61,11.61,0,0,0,0,2.57l0,.18-.11.13a7.18,7.18,0,0,0-1.66,4.47,17,17,0,0,0,.42,5l0,.11-.06.1a8.54,8.54,0,0,0-.5,5.31,31,31,0,0,0,1.4,5.39c.61,1.76,1.32,3.49,2.08,5.19S365.49,335.48,366.39,337.12Z" style="fill:#263238"></path><path d="M409.29,331.61c-4.47-1-35.41,10.18-32.54,16.29,11.65,24.75,51.27,54.68,66.12,56.26,12.83,1.37,13.27-15.35,12.09-20.6C453.25,376,413.71,332.64,409.29,331.61Z" style="fill:#eb9481"></path><path d="M416.12,336.11l-39.26,21.48s40.37,44.34,66.77,46.62c12.07,1,19.07-13.44,6-30.19S416.12,336.11,416.12,336.11Z" style="fill:#FFA52E"></path><path d="M416.12,336.11c3.52,3.38,6.92,6.88,10.27,10.41s6.62,7.16,9.88,10.79,6.36,7.4,9.38,11.24a84.72,84.72,0,0,1,8.23,12.09c-.7-1-1.32-2.05-2.05-3s-1.42-2-2.2-2.91l-2.26-2.87L445.05,369c-3.14-3.72-6.29-7.42-9.53-11.06s-6.46-7.29-9.69-10.93Z" style="fill:#263238"></path><path d="M444.93,368.12A25.23,25.23,0,0,1,449.3,371a23.05,23.05,0,0,1,1.95,1.74,9.84,9.84,0,0,1,1.65,2c-.66-.57-1.36-1.07-2-1.6l-2-1.6A43.31,43.31,0,0,1,444.93,368.12Z" style="fill:#263238"></path><path d="M386,364c5.9-2.89,29.48-15.59,34.34-18.69.34-.21.25-.49-.14-.31-18,8.21-28.75,15.62-34.35,18.76C385.69,363.79,385.82,364,386,364Z" style="fill:#263238"></path><path d="M380.39,355.66l-3.47,2,0-.17q6.26,6.69,13,12.88c4.46,4.16,9.1,8.12,13.86,11.93s9.72,7.34,14.78,10.73l3.87,2.44c1.28.83,2.65,1.51,4,2.29,2.6,1.6,5.39,2.83,8.1,4.27a115.74,115.74,0,0,1-16.32-8.37c-1.32-.78-2.58-1.65-3.87-2.49s-2.55-1.69-3.78-2.6-2.49-1.78-3.72-2.7l-3.64-2.8c-4.78-3.82-9.38-7.88-13.82-12.09a182.32,182.32,0,0,1-12.59-13.34l-.09-.11.12-.07Z" style="fill:#263238"></path></g><g id="freepik--character-1--inject-564"><polygon points="59.3 402.48 181.96 402.48 157.5 260.2 65.78 260.2 59.3 402.48" style="fill:#ebebeb"></polygon><polygon points="59.3 402.48 70.05 402.48 76.09 260.2 65.78 260.2 59.3 402.48" style="fill:#dbdbdb"></polygon><path d="M146.7,284.91c1.08,28.74,24.16,117.46,45.15,117,21.14-.49,62.82-55.22,75.56-79.25,3.64-6.87-37.12-31-43.66-25.87-5.45,4.27-26.18,38.73-28.33,38-2.43-.79-10.59-22.55-26.28-50C151,253,146.22,272.22,146.7,284.91Z" style="fill:#c95f50"></path><path d="M259.3,334.78c4.62-3.5,24.36-21.41,28.74-27.62s15.69-25,11.27-28.84-8.16,1.4-8.16,1.4,3.51-8.69-1.28-12.15-10.37,4.88-10.37,4.88,3-9.19-2.07-12.29-9.22,6.21-9.22,6.21,3.1-8.27-2.13-9.09c-6.28-1-10.27,14.92-15.62,21.42-1.22,1.47-26.75,28.14-26.75,28.14Z" style="fill:#c95f50"></path><path d="M268.58,265.58c-3,11.68-6.28,16.28-14.89,24.46-.17.15,0,.44.22.29,9.16-7.23,14.16-12.4,15.25-24.64C269.21,265.09,268.72,265,268.58,265.58Z" style="fill:#263238"></path><path d="M279.72,271.52c-4.14,11.87-7.69,16.89-16.08,26.11-.12.13.09.34.22.22,9-8.36,13.85-13.63,16.43-26C280.4,271.26,279.91,271,279.72,271.52Z" style="fill:#263238"></path><path d="M290.7,280.17c-4.83,11.21-8.49,16.88-17.78,24.79a.22.22,0,0,0,.27.35c10.25-7.14,14.88-14.18,17.84-24.95C291.23,279.62,291,279.47,290.7,280.17Z" style="fill:#263238"></path><path d="M214.53,309.7s2.56-16.44,5.26-22.68,21.34-25.76,25.79-22c5.74,4.89-2.8,18.27-7.84,24.29,0,0,13.29,11.29,9.24,22.22S214.53,309.7,214.53,309.7Z" style="fill:#c95f50"></path><path d="M246.72,266.91c2,8.23-5.11,15.69-9.56,21.89a.7.7,0,0,0,.33,1.1c5.26,5.1,11.18,13.83,9.93,21.46a.18.18,0,0,0,.34.09c2.45-8-2.66-17.05-8.78-22.28,4.67-6.28,11.48-14.08,7.81-22.28C246.77,266.84,246.7,266.86,246.72,266.91Z" style="fill:#263238"></path><path d="M211.09,311.49l46.17,31.74S211,406.37,190.24,402s-37.53-71.6-43.56-107.45,11-34.38,22.67-11.37,24.68,50.7,26,50S211.09,311.49,211.09,311.49Z" style="fill:#455a64"></path><path d="M216.56,388.93c-9.84,8.58-19.48,14.5-26.32,13.05-20.73-4.39-37.53-71.6-43.56-107.45-2.21-13.12-1.32-21.24,1.26-25.13Z" style="fill:#37474f"></path><path d="M185,353.74a123.59,123.59,0,0,1,7.6-16.08,120.42,120.42,0,0,1,9.8-14.6c2-2.66,4.2-5.21,6.34-7.78.07-.08.19,0,.12.11a154.63,154.63,0,0,0-10,14.57q-4.62,7.49-9,15.11c-1.64,2.88-3.14,5.84-4.68,8.77A.12.12,0,0,1,185,353.74Z" style="fill:#263238"></path><path d="M181.11,402.49H64.68C62.7,405,90,303.38,119.3,275.2c12-11.55,26.12-6.26,32.91-.28,3.93,3.46,22.86,34,25,46.21,1.89,10.81-5.41,22.42-5.41,22.42Z" style="fill:#455a64"></path><path d="M154.36,339.37a100.21,100.21,0,0,0-14.7,2.55c-2.4.64-4.74,1.38-7.09,2.17-1.17.4-2.34.76-3.52,1.11a15.9,15.9,0,0,1-3.79.74.09.09,0,0,0,0,.18,26.33,26.33,0,0,0,3.66-.1,25.63,25.63,0,0,0,3.47-.68c2.44-.63,4.84-1.36,7.27-2,4.89-1.3,9.79-2.6,14.77-3.55A.21.21,0,0,0,154.36,339.37Z" style="fill:#263238"></path><path d="M166.66,343.66a110,110,0,0,0-12.31-.49c-2,.05-4.09.21-6.14.42-1,.11-2,.23-2.92.36s-2.12.43-3.19.56c-.12,0-.11.19,0,.18,1-.09,2.05,0,3.07-.05l3.07-.11c2-.06,4.09-.11,6.14-.2,4.1-.17,8.19-.3,12.29-.34C166.89,344,166.87,343.68,166.66,343.66Z" style="fill:#263238"></path><path d="M116.35,282.21c-11.77,26.24-30.41,116-11.38,124.87s90.31-40.2,109-58.48c5.56-5.43-32.09-33.2-40.23-31.5-6.77,1.42-35.37,26.8-36.3,24.74-.52-1.17,1-18.24-.9-49.84C134.38,255.56,121.55,270.62,116.35,282.21Z" style="fill:#c95f50"></path><path d="M254,280.53a2.7,2.7,0,0,0-2.51,0c.08-4.43-.94-8-4.19-8.74-1.9-.44-3.59.51-5,2.31-.32-2.2-1.37-3.63-3.48-3.78-3.69-.25-8,6.95-11.42,14.56,1.54-5.59,1.87-10.47-1.43-10.83-8.78-.94-14.69,16.92-20.4,28.45-1.69,3.42-4.12,7.53-6.55,10a10.22,10.22,0,0,1-1.36,1.17c-1.33,1-2.63,1.31-3.77.6-2-1.27-.51-6.54,1.53-9.6,3.9-5.78,3.71-16.52.12-19C190.2,282,183,296.47,179.28,300.88c-5,5.91-9.78,18.25-10.26,19.09,0,0,3,3.77,7.51,8.76,8.54,9.52,22.39,23.47,30.53,24.2,0,0,23.18-12.77,40.58-31.37C253.55,315.23,262.09,284,254,280.53Z" style="fill:#c95f50"></path><path d="M215.19,312.46a31.66,31.66,0,0,0,8.38-12c2.62-6.25,2.73-10.1,4.23-16.41a.13.13,0,0,0-.26-.06c-.71,3-3.55,12.88-4.57,15.71a30.26,30.26,0,0,1-7.85,12.66S215.15,312.5,215.19,312.46Z" style="fill:#263238"></path><path d="M225.23,318.08a71,71,0,0,0,9.53-13.14c3.26-5.83,4.38-12.55,5.55-19.07.69-3.92,1.31-7.85,1.83-11.79,0-.17-.23-.24-.26-.07q-1.69,10-4,19.95A47.54,47.54,0,0,1,230.31,311c-2.08,2.92-2.87,4.25-5.16,7A.05.05,0,0,0,225.23,318.08Z" style="fill:#263238"></path><path d="M234.6,323.08c4.08-4.12,7.8-7.69,10.29-13,3.3-7.07,4.44-15.16,5-18.43.59-3.62,1.07-7.25,1.49-10.89,0-.15-.24-.18-.26,0a190.55,190.55,0,0,1-4.88,24,30.15,30.15,0,0,1-4.27,9.48,68,68,0,0,1-7.38,8.87S234.58,323.1,234.6,323.08Z" style="fill:#263238"></path><path d="M225.9,274.06a3,3,0,0,1,1.8,1.21,4.4,4.4,0,0,1,.63,2.1,18,18,0,0,1-.39,4.44c-.13.74-.28,1.47-.34,2.24a1,1,0,0,0,0,.17s0,0,0,.14.21.18.27.13c.23-.11.17-.15.22-.2l.07-.14.24-.52.43-1c.57-1.39,1.15-2.76,1.81-4.1,1.32-2.62,2.84-5.34,5.2-7a4.3,4.3,0,0,1,3.94-.53,2.73,2.73,0,0,1,1.92,3l-.23,1.64,1-1.35a5.22,5.22,0,0,1,3.07-2.07,3.31,3.31,0,0,1,3.32,1,8.53,8.53,0,0,1,1.65,3.5,11.86,11.86,0,0,1,.39,3.91l-.08,1,.81-.56a2.49,2.49,0,0,1,2.33,0,3.29,3.29,0,0,1,1.75,1.85,16.56,16.56,0,0,1,1.23,5.53,43.5,43.5,0,0,1-1,11.3c-.87,4.5-2.65,12.73-7,19.53-3,4.7-8.7,9.56-10.39,11.08,1.61-1.16,7.73-5.58,11.11-10.58,4.35-6.44,6.22-15.35,7.12-19.67a42.71,42.71,0,0,0,1-11.72,17.54,17.54,0,0,0-1.27-5.83,5.77,5.77,0,0,0-.84-1.34,3.68,3.68,0,0,0-1.33-.94,3.26,3.26,0,0,0-3.25.09l.72.4a12.06,12.06,0,0,0-.41-4.24,9.4,9.4,0,0,0-1.87-3.85,3.87,3.87,0,0,0-1.91-1.23,4.81,4.81,0,0,0-2.23-.06,6.08,6.08,0,0,0-3.59,2.45l.75.3a3.77,3.77,0,0,0-.5-2.44,3.59,3.59,0,0,0-2-1.49,5.13,5.13,0,0,0-2.4-.24,5.27,5.27,0,0,0-2.21.91c-2.56,1.88-4,4.67-5.3,7.36-.63,1.37-1.19,2.76-1.73,4.16l-.4,1c-.09.33-.47.79,0,.6,0-.72.16-1.46.26-2.2a18.41,18.41,0,0,0,.23-4.51,4.51,4.51,0,0,0-.72-2.13A3.1,3.1,0,0,0,225.9,274.06Z" style="fill:#263238"></path><path d="M164.12,321.28l34.39,50.09s-71.75,43.25-91.85,38.08S97.58,338.26,111,294.34s25.65-27,27.1.92c1.34,25.77-.2,44.64.4,44.6S164.12,321.28,164.12,321.28Z" style="fill:#455a64"></path><path d="M123.6,354.55A143.35,143.35,0,0,1,138,339.84a140.93,140.93,0,0,1,16.2-12.34c3.23-2.16,6.55-4.16,9.86-6.18.1-.07.19.09.1.15a180.47,180.47,0,0,0-16.43,12.24q-7.86,6.46-15.48,13.19c-2.87,2.53-5.62,5.2-8.41,7.84A.13.13,0,0,1,123.6,354.55Z" style="fill:#263238"></path><path d="M137.55,402.64l15.37-7.6c5.12-2.53,10.26-5,15.35-7.6s10.21-5.12,15.29-7.73l3.79-2,3.76-2,3.73-2.1c1.24-.72,2.44-1.48,3.67-2.21a138.15,138.15,0,0,1-14.59,9c-5,2.77-10.1,5.38-15.2,7.95s-10.28,5-15.48,7.4S142.83,400.45,137.55,402.64Z" style="fill:#263238"></path><path d="M106.82,308.93c-1.55,7.77-2.95,15.54-4.32,23.32-.65,3.9-1.31,7.78-1.89,11.69s-1.17,7.8-1.63,11.71-1,7.83-1.28,11.75-.61,7.85-.74,11.78-.12,7.87.13,11.79a57.11,57.11,0,0,0,1.79,11.67,50.44,50.44,0,0,1-2.77-11.57,103,103,0,0,1-.71-11.91A186.65,186.65,0,0,1,97,355.4q1.52-11.81,4-23.44C102.6,324.21,104.52,316.51,106.82,308.93Z" style="fill:#263238"></path><path d="M101.38,318c.19,2.15.22,4.25.27,6.36l0,3.16c0,1,0,2.11,0,3.19a21.36,21.36,0,0,1-1-6.33,26.34,26.34,0,0,1,.14-3.21A17.19,17.19,0,0,1,101.38,318Z" style="fill:#263238"></path><path d="M138,341.58c-.1-3-.09-6-.07-9s.08-6,.14-8.94.16-6,.28-8.94l.16-4.47c.08-1.49.1-3,.14-4.47a86.4,86.4,0,0,1,.47,8.95c.06,3,0,6,0,9s-.19,6-.38,8.94S138.36,338.61,138,341.58Z" style="fill:#263238"></path><path d="M141.16,312.26a22.59,22.59,0,0,1-.72,5.33,21.54,21.54,0,0,1-1.86,5,30.64,30.64,0,0,1,.89-5.28A29.49,29.49,0,0,1,141.16,312.26Z" style="fill:#263238"></path><path d="M130.31,274.88c.36,2.06,9.31,15.79,18.62,15.88,3,0,3.91-16.52,3.91-16.52l.34-1.21L158,256.14l-19.37-14-2.81-1.87s-1,4.71-2.2,10.59c-.06.27-.11.54-.17.83s-.15.65-.21,1c-.19.87-.38,1.77-.55,2.66-.13.68-.26,1.35-.38,2.07s-.24,1.42-.38,2.14A112.8,112.8,0,0,0,130.31,274.88Z" style="fill:#c95f50"></path><path d="M133.59,250.82A35.22,35.22,0,0,0,153.18,273L158,256.14l-19.37-14-2.81-1.87S134.79,244.94,133.59,250.82Z" style="fill:#263238"></path><path d="M183.11,233c0,30.82-18.47,34.3-25.12,34.29-6,0-26.57-.8-29.76-31.46s11.16-40.4,25-41.11S183.11,202.16,183.11,233Z" style="fill:#c95f50"></path><path d="M179.21,229.42c-.71-.16-1.34-.42-2-.64a3.43,3.43,0,0,1-2-1,1.1,1.1,0,0,1,.13-1.33,2.7,2.7,0,0,1,2.73-.38,4,4,0,0,1,2.36,1.64A1.17,1.17,0,0,1,179.21,229.42Z" style="fill:#263238"></path><path d="M159.35,228.34a18.92,18.92,0,0,0,2.13,0,3.45,3.45,0,0,0,2.17-.42,1.11,1.11,0,0,0,.26-1.32,2.73,2.73,0,0,0-2.49-1.16,4,4,0,0,0-2.74.88A1.17,1.17,0,0,0,159.35,228.34Z" style="fill:#263238"></path><path d="M163.21,235.36c0-.08-.18.08-.18.17-.08,2.1-.53,4.49-2.48,5.05-.06,0-.06.12,0,.11C162.9,240.53,163.46,237.36,163.21,235.36Z" style="fill:#263238"></path><path d="M158.9,236.15a2.45,2.45,0,0,1-.57.47,1.31,1.31,0,0,1-1.13.14c-1.17-.35-1.45-1.69-1.29-2.93,0-.09.06-.14.11-.06.38.72.83,1.47,1.55,1.49a2.55,2.55,0,0,0,1.37-.61A6.31,6.31,0,0,0,158.9,236.15Z" style="fill:#263238"></path><path d="M163,237.78a3.16,3.16,0,0,1-.88,1.43,2.26,2.26,0,0,1-1.75.53,2.05,2.05,0,0,1-1.52-1.05,3.68,3.68,0,0,1-.4-1.61,6.63,6.63,0,0,1,.06-1,4.29,4.29,0,0,1,.7-1.94,6.42,6.42,0,0,0-.12,1.5,9.8,9.8,0,0,0,.13,1.35c.17.91.59,1.71,1.29,1.76s1.36-.42,1.76-1.26a14.94,14.94,0,0,0,.92-2.74A6.52,6.52,0,0,1,163,237.78Z" style="fill:#263238"></path><path d="M174.26,235.87c0-.08.16.11.15.19-.19,2.09,0,4.52,1.8,5.33.06,0,0,.13,0,.11C173.89,241,173.75,237.82,174.26,235.87Z" style="fill:#263238"></path><path d="M178.43,237.21a2.17,2.17,0,0,0,.5.54,1.33,1.33,0,0,0,1.1.29c1.21-.2,1.66-1.49,1.66-2.74,0-.09,0-.14-.1-.07-.47.66-1,1.35-1.73,1.28a2.62,2.62,0,0,1-1.28-.79A6.67,6.67,0,0,1,178.43,237.21Z" style="fill:#263238"></path><path d="M174.17,238.3a3.13,3.13,0,0,0,.69,1.54,2.3,2.3,0,0,0,1.66.75,2.06,2.06,0,0,0,1.64-.85,3.56,3.56,0,0,0,.62-1.54,8.55,8.55,0,0,0,.07-1,4.49,4.49,0,0,0-.45-2,6.86,6.86,0,0,1-.08,1.51A9.39,9.39,0,0,1,178,238c-.29.88-.8,1.62-1.51,1.57s-1.29-.59-1.58-1.48a14.48,14.48,0,0,1-.55-2.83A6.57,6.57,0,0,0,174.17,238.3Z" style="fill:#263238"></path><path d="M160,252.15c.42.56.81,1.31,1.55,1.49a5.65,5.65,0,0,0,2.31-.17.07.07,0,0,1,.07.12,2.82,2.82,0,0,1-2.81.71,2.24,2.24,0,0,1-1.34-2.09C159.75,252.09,159.92,252.07,160,252.15Z" style="fill:#263238"></path><path d="M169.76,244.9s.12,3.16,0,4.63c0,.14-5.48.71-7.47-3.15-.08-.15.12-.28.24-.18a10.61,10.61,0,0,0,6.21,2.47c.14-.4-.39-5.41-.15-5.41a13.29,13.29,0,0,1,3.26,1.09c-.06-6.59-1.18-13.12-1.14-19.69,0-.23.35-.27.39,0,1.66,6.76,1.9,14.34,2.14,21.15C173.24,246.61,170.32,245.2,169.76,244.9Z" style="fill:#263238"></path><path d="M129.88,235.26c5.42,1.92,9.64-10.53,9.64-10.53s24.62,1.17,30.86-17.72c0,0,1.38,13.21,12.59,21.5,0,0,3.81-21.37-12.09-29.16,0,0-19.2-12.15-34.54,1.83S126.24,234,129.88,235.26Z" style="fill:#263238"></path><path d="M170.78,205.59a21.56,21.56,0,0,1-3,8.6A22.41,22.41,0,0,1,161.6,221a16.63,16.63,0,0,1-1.95,1.26l-1,.6c-.34.17-.7.32-1.05.48-.71.3-1.41.63-2.13.9s-1.48.44-2.22.64c-.37.1-.73.21-1.11.3l-1.13.17-2.27.35c-1.52.08-3,.09-4.55.07,1.5-.29,3-.43,4.46-.74l2.17-.53,1.08-.26c.36-.11.7-.25,1-.38.7-.26,1.39-.51,2.09-.74s1.33-.64,2-.95l1-.48.94-.58a20,20,0,0,0,1.83-1.21,25.72,25.72,0,0,0,6.11-6.29,27.69,27.69,0,0,0,2.24-3.84A26.59,26.59,0,0,0,170.78,205.59Z" style="fill:#263238"></path><path d="M134.08,236.13S128.22,226,123.66,228s-.73,16.35,4.22,18.69a5.22,5.22,0,0,0,7.2-2.19Z" style="fill:#c95f50"></path><path d="M124.86,232.05a.07.07,0,0,0,0,.14c3.46,1.76,5.05,5.24,6.07,8.8-.95-1.42-2.33-2.27-4.22-1.16-.1.06,0,.21.08.2a3.22,3.22,0,0,1,3.42,1.42,15.83,15.83,0,0,1,1.44,3c.14.34.73.22.64-.16a.29.29,0,0,1,0-.09C132.71,239.63,129.72,232.94,124.86,232.05Z" style="fill:#263238"></path><path d="M130.42,230.47s17.22-10.36,31.2-12.94c12.83-2.36,21.1-1.47,21.1-1.47s-3.86-26.5-26.16-25S126.72,215.91,130.42,230.47Z" style="fill:#FFA52E"></path><path d="M169.63,314.16c-9.51,3.54-27.56-20.7-38.44-24.51-4.6-1.62-19.49,3.43-23.58,7.88-26.2,28.54-8.32-41.63-2.91-54.28s9.45-31.79,15.72-38.23c18.26-18.72,35.26-13.62,36.14-14-9.84,1.38-31.16,10.22-23.89,46,3.71,18.27,14.19,29.61,26.72,29.59,7.79,0,20-6,23.17-25.07-1.54,21,1.09,32.13,1,38.73C183.5,292.85,177.8,311.11,169.63,314.16Z" style="fill:#FFA52E"></path><g style="opacity:0.2"><path d="M114.77,289.82a37.25,37.25,0,0,1,10-6.06,13,13,0,0,1,2.91-.69,7.21,7.21,0,0,1,1.54,0,5.75,5.75,0,0,1,1.47.47,34,34,0,0,1,5.1,3c6.46,4.45,12.48,9.43,18.9,13.84,3.19,2.18,6.43,4.44,10,5.76a6.65,6.65,0,0,0,2.65.5,4.41,4.41,0,0,0,2.38-1,16.26,16.26,0,0,0,3.49-4.43,62.05,62.05,0,0,0,4.59-10.68c1.28-3.67,2.38-7.42,3.31-11.21-1.57,7.63-3.49,15.29-7.14,22.32a15.94,15.94,0,0,1-3.65,4.76,5.28,5.28,0,0,1-2.9,1.26,7.75,7.75,0,0,1-3.07-.52,48.75,48.75,0,0,1-10.29-5.81c-6.41-4.52-12.45-9.49-18.75-14.05a34.44,34.44,0,0,0-4.89-3.07c-1.65-.92-3.66-.42-5.47.1A36.93,36.93,0,0,0,114.77,289.82Z"></path><path d="M178.56,270.07c-.66,3.65-1.52,7.26-2.47,10.84S174,288,172.76,291.54c-.67,1.74-1.39,3.46-2.23,5.14a21,21,0,0,1-1.43,2.46,4.69,4.69,0,0,1-2.24,2,6.73,6.73,0,0,1-5.63-.7,15.29,15.29,0,0,1-4.22-3.65,16.82,16.82,0,0,0,4.47,3.16,6,6,0,0,0,5.06.38,4.15,4.15,0,0,0,1.76-1.72,19.26,19.26,0,0,0,1.31-2.36c.79-1.64,1.46-3.36,2.09-5.08,1.33-3.43,2.43-7,3.56-10.48Z"></path><path d="M134.62,200.56a60,60,0,0,0-9,13.55,18.6,18.6,0,0,0-1.29,3.81c-.28,1.28-.35,2.68-.51,4q-.37,4.06-.62,8.14c-.31,5.44-.54,10.88-.47,16.32.07,2.71.13,5.43.44,8.12a23.36,23.36,0,0,0,1.84,7.7,33.35,33.35,0,0,0,5,6.21c1.9,1.93,3.9,3.77,6,5.55a159.29,159.29,0,0,0,12.89,10,72.78,72.78,0,0,0,6.91,4.29,16.1,16.1,0,0,0,3.69,1.53,3.32,3.32,0,0,0,3.32-1.35,23,23,0,0,0,3.95-7,65.81,65.81,0,0,0,2.49-7.78,66,66,0,0,1-2.23,7.88,23.73,23.73,0,0,1-3.8,7.29,3.94,3.94,0,0,1-3.86,1.59,16.57,16.57,0,0,1-3.88-1.52,72.69,72.69,0,0,1-7.07-4.2,140,140,0,0,1-13.08-9.92c-2.08-1.78-4.11-3.62-6-5.56a33.92,33.92,0,0,1-5.27-6.43,24.25,24.25,0,0,1-1.93-8.13c-.29-2.74-.34-5.48-.4-8.22q0-8.21.64-16.39.31-4.08.78-8.16a39,39,0,0,1,.6-4.08,18.51,18.51,0,0,1,1.4-3.9A60.57,60.57,0,0,1,134.62,200.56Z"></path><path d="M114.63,240.73c-.41,3.88-.69,7.77-.72,11.65s.12,7.84,1.67,11.23,4.9,5.78,7.89,8.16,6.32,4.52,9.61,6.61A72.34,72.34,0,0,1,123,272.47a42.58,42.58,0,0,1-4.61-3.69,17.44,17.44,0,0,1-3.77-4.68c-1.61-3.8-1.63-7.84-1.52-11.75A68.67,68.67,0,0,1,114.63,240.73Z"></path><path d="M131.55,230a31.93,31.93,0,0,1,.32-6.83,16.61,16.61,0,0,1,2.28-6.47,54.82,54.82,0,0,1,9-10.26c-1.56,1.66-3,3.38-4.51,5.11a49.39,49.39,0,0,0-4,5.43,17.82,17.82,0,0,0-2.28,6.28A45.91,45.91,0,0,0,131.55,230Z"></path><path d="M133.22,228a44.84,44.84,0,0,1,1-4.42,29.18,29.18,0,0,1,1.54-4.28,12.17,12.17,0,0,1,2.84-3.59,43.86,43.86,0,0,1,3.44-2.95c-1.08,1.05-2.13,2.14-3.16,3.22a13,13,0,0,0-2.63,3.55c-.6,1.35-1.12,2.77-1.59,4.19Z"></path></g></g><g id="freepik--speech-bubble--inject-564"><path d="M482.57,199.66a31.21,31.21,0,0,0,52.15,19.75l15.62,2.29-7.82-13.5a31.21,31.21,0,1,0-59.95-8.54Z" style="fill:#fff"></path><path d="M491.91,173.89a31.12,31.12,0,0,1,26.15-8.69,31.49,31.49,0,0,1,13.33,5,31.9,31.9,0,0,1,9.77,10.41,31.52,31.52,0,0,1,1.92,27.82l0-.54,7.77,13.53.57,1-1.13-.17-15.6-2.4.37-.11a31.58,31.58,0,0,1-15.45,7.62,27.16,27.16,0,0,1-4.32.45,29.81,29.81,0,0,1-4.33-.08,31.11,31.11,0,0,1-8.41-2,30.71,30.71,0,0,1-7.53-4.19,34.9,34.9,0,0,1-3.29-2.79,33.61,33.61,0,0,1-2.83-3.25,31.4,31.4,0,0,1,3-41.6Zm-3,41.52a27.79,27.79,0,0,0,6.14,6,28.86,28.86,0,0,0,7.53,4.06,31,31,0,0,0,8.33,1.83,30.57,30.57,0,0,0,4.28,0,27.44,27.44,0,0,0,4.23-.51,30.86,30.86,0,0,0,14.95-7.7l.15-.15.22,0,15.63,2.19-.56.83L542,208.5l-.15-.25L542,208a30.78,30.78,0,0,0-1.76-26.81A32.13,32.13,0,0,0,530.86,171a30.71,30.71,0,0,0-12.89-5.1,30.86,30.86,0,0,0-29,49.53Z" style="fill:#263238"></path><circle cx="499.99" cy="197.36" r="3.78" style="fill:#263238"></circle><circle cx="513.53" cy="197.36" r="3.78" style="fill:#263238"></circle><circle cx="527.08" cy="197.36" r="3.78" style="fill:#263238"></circle></g><g id="freepik--Lanterns--inject-564"><rect x="663.59" y="374.07" width="40.44" height="68.35" transform="translate(1367.63 816.49) rotate(180)" style="fill:#263238"></rect><rect x="667.47" y="377.74" width="32.68" height="61.01" transform="translate(1367.63 816.49) rotate(180)" style="fill:#fff"></rect><path d="M690.14,358.53H677.48l-13.89,15.54H704Zm-3.68,4.61c.69-.7,1.37-1.14,1.51-1s-.3.83-1,1.51-1.36,1.13-1.51,1S685.77,363.82,686.46,363.14Zm-2.65-2.72c.2,0,.37.8.37,1.77S684,364,683.81,364s-.36-.79-.36-1.76S683.61,360.42,683.81,360.42Zm-5.88,5.89c0-.21.8-.38,1.77-.38s1.77.17,1.77.38-.79.35-1.77.35S677.93,366.5,677.93,366.31Zm3.23,3.16c-.69.68-1.36,1.13-1.5,1s.3-.81,1-1.5,1.36-1.14,1.5-1S681.85,368.77,681.16,369.47Zm1-4.83c-.14.14-.81-.3-1.5-1s-1.14-1.37-1-1.51.81.3,1.5,1S682.3,364.49,682.15,364.64Zm1.66,7.54c-.2,0-.36-.79-.36-1.77s.16-1.77.36-1.77.37.79.37,1.77S684,372.18,683.81,372.18Zm0-4.66a1.22,1.22,0,1,1,1.22-1.21A1.22,1.22,0,0,1,683.81,367.52Zm4.16,2.93c-.14.15-.82-.3-1.51-1s-1.13-1.37-1-1.5.82.29,1.51,1S688.11,370.31,688,370.45Zm-.05-3.79c-1,0-1.76-.16-1.76-.35s.79-.38,1.76-.38,1.77.17,1.77.38S688.9,366.66,687.92,366.66Z" style="fill:#37474f"></path><polygon points="685.79 347.68 681.83 347.68 677.48 354.31 690.14 354.31 685.79 347.68" style="fill:#37474f"></polygon><rect x="683.27" y="404.15" width="1.08" height="5.86" style="fill:#a6a6a6"></rect><path d="M686.58,401.79c-.32,3.52-2.77,4.09-2.77,4.09s-2.44-.57-2.76-4.09,2.76-7.61,2.76-7.61S686.9,398.28,686.58,401.79Z" style="fill:#FFA52E"></path><path d="M686.58,401.79c-.32,3.52-2.77,4.09-2.77,4.09s-2.44-.57-2.76-4.09,2.76-7.61,2.76-7.61S686.9,398.28,686.58,401.79Z" style="opacity:0.1"></path><path d="M685.72,403.06c-.22,2.42-1.91,2.82-1.91,2.82s-1.68-.4-1.9-2.82,1.9-5.25,1.9-5.25S685.94,400.64,685.72,403.06Z" style="fill:#FFA52E"></path><polygon points="690.45 438.75 677.17 438.75 677.54 408.55 690.09 408.55 690.45 438.75" style="fill:#ebebeb"></polygon><path d="M678.44,409.39a18.92,18.92,0,0,0,2.65.48,19.61,19.61,0,0,0,2.65.14,21.45,21.45,0,0,0,2.65-.18c.89-.11,1.77-.28,2.67-.44q-.62.28-1.26.54a10.42,10.42,0,0,1-1.32.38,12.41,12.41,0,0,1-5.47.05A8.68,8.68,0,0,1,678.44,409.39Z" style="fill:#dbdbdb"></path><rect x="677.48" y="354.32" width="1.11" height="4.22" style="fill:#37474f"></rect><rect x="689.03" y="354.32" width="1.11" height="4.22" style="fill:#37474f"></rect><rect x="676.14" y="377.74" width="0.78" height="61.02" style="fill:#37474f"></rect><rect x="690.71" y="377.74" width="0.78" height="61.02" style="fill:#37474f"></rect><rect x="683.42" y="376.14" width="0.78" height="32.68" transform="translate(1076.29 -291.34) rotate(90)" style="fill:#37474f"></rect><rect x="683.42" y="409.96" width="0.78" height="32.68" transform="translate(1110.11 -257.52) rotate(90)" style="fill:#37474f"></rect><path d="M663.59,442.42v9.89h4.88v-3h2.24c3,0,2.54-6.9,8.86-6.9Zm6.6,2.06c.07,0,.12.25.12.54s0,.56-.12.56-.11-.25-.11-.56S670.13,444.48,670.19,444.48Zm-1.84,1.84c0-.07.24-.12.55-.12s.56.05.56.12-.25.11-.56.11S668.35,446.39,668.35,446.32Zm1,1c-.22.22-.43.36-.47.33s.09-.26.31-.49.43-.35.47-.31S669.58,447.1,669.36,447.31Zm.31-1.5s-.25-.11-.47-.33-.36-.42-.31-.47.25.09.47.31S669.72,445.75,669.67,445.81Zm.52,2.36c-.06,0-.11-.25-.11-.56s0-.55.11-.55.12.25.12.55S670.26,448.17,670.19,448.17Zm0-1.47a.38.38,0,0,1-.38-.38.39.39,0,1,1,.77,0A.38.38,0,0,1,670.19,446.7Zm.84-1.38c.22-.22.43-.35.47-.31s-.09.26-.31.47-.43.36-.47.33S670.81,445.55,671,445.32Zm.47,2.32s-.25-.11-.47-.33-.36-.42-.31-.47.25.09.47.31S671.55,447.58,671.5,447.64Zm0-1.21c-.31,0-.56,0-.56-.11s.25-.12.56-.12.55.05.55.12S671.8,446.43,671.49,446.43Z" style="fill:#263238"></path><path d="M688.05,442.42c6.32,0,5.82,6.9,8.86,6.9h2.24v3H704v-9.89Zm9.49,2.6c0,.31,0,.56-.11.56s-.12-.25-.12-.56.05-.54.12-.54S697.54,444.73,697.54,445Zm1.18,1.41c-.31,0-.56,0-.56-.11s.25-.12.56-.12.55.05.55.12S699,446.43,698.72,446.43Zm-.77.41s.25.09.47.31.36.43.31.49-.25-.11-.47-.33S697.9,446.89,698,446.84Zm.31-1.52c.22-.22.43-.35.47-.31s-.09.26-.31.47-.43.36-.47.33S698,445.55,698.26,445.32Zm-1,2.29c0-.3.05-.55.12-.55s.11.25.11.55,0,.56-.11.56S697.31,447.92,697.31,447.61Zm-.27-1.29a.39.39,0,1,1,.77,0,.39.39,0,0,1-.77,0Zm-.14-.51s-.25-.11-.47-.33-.36-.42-.31-.47.25.09.47.31S697,445.75,696.9,445.81Zm-.47,1.34c.22-.22.43-.35.47-.31s-.09.26-.31.47-.43.36-.47.33S696.21,447.38,696.43,447.15Zm-.85-.83c0-.07.24-.12.55-.12s.56.05.56.12-.25.11-.56.11S695.58,446.39,695.58,446.32Z" style="fill:#263238"></path><rect x="45.97" y="374.07" width="40.44" height="68.35" transform="translate(132.38 816.49) rotate(180)" style="fill:#263238"></rect><rect x="49.85" y="377.74" width="32.68" height="61.01" transform="translate(132.38 816.49) rotate(180)" style="fill:#fff"></rect><path d="M72.52,358.53H59.86L46,374.07H86.41Zm-3.68,4.61c.69-.7,1.37-1.14,1.51-1s-.3.83-1,1.51-1.36,1.13-1.51,1S68.15,363.82,68.84,363.14Zm-2.65-2.72c.2,0,.37.8.37,1.77s-.17,1.76-.37,1.76-.36-.79-.36-1.76S66,360.42,66.19,360.42Zm-5.88,5.89c0-.21.8-.38,1.77-.38s1.77.17,1.77.38-.79.35-1.77.35S60.31,366.5,60.31,366.31Zm3.23,3.16c-.69.68-1.36,1.13-1.5,1s.3-.81,1-1.5,1.36-1.14,1.5-1S64.23,368.77,63.54,369.47Zm1-4.83c-.14.14-.81-.3-1.5-1s-1.14-1.37-1-1.51.81.3,1.5,1S64.68,364.49,64.53,364.64Zm1.66,7.54c-.2,0-.36-.79-.36-1.77s.16-1.77.36-1.77.37.79.37,1.77S66.39,372.18,66.19,372.18Zm0-4.66a1.22,1.22,0,1,1,1.22-1.21A1.22,1.22,0,0,1,66.19,367.52Zm4.16,2.93c-.14.15-.82-.3-1.51-1s-1.13-1.37-1-1.5.82.29,1.51,1S70.49,370.31,70.35,370.45Zm0-3.79c-1,0-1.76-.16-1.76-.35s.79-.38,1.76-.38,1.77.17,1.77.38S71.28,366.66,70.3,366.66Z" style="fill:#37474f"></path><polygon points="68.17 347.68 64.21 347.68 59.86 354.31 72.52 354.31 68.17 347.68" style="fill:#37474f"></polygon><rect x="65.65" y="404.15" width="1.08" height="5.86" style="fill:#a6a6a6"></rect><path d="M69,401.79c-.31,3.52-2.76,4.09-2.76,4.09s-2.44-.57-2.76-4.09,2.76-7.61,2.76-7.61S69.27,398.28,69,401.79Z" style="fill:#FFA52E"></path><path d="M69,401.79c-.31,3.52-2.76,4.09-2.76,4.09s-2.44-.57-2.76-4.09,2.76-7.61,2.76-7.61S69.27,398.28,69,401.79Z" style="opacity:0.1"></path><path d="M68.1,403.06c-.22,2.42-1.91,2.82-1.91,2.82s-1.69-.4-1.91-2.82,1.91-5.25,1.91-5.25S68.32,400.64,68.1,403.06Z" style="fill:#FFA52E"></path><polygon points="72.83 438.75 59.55 438.75 59.91 408.55 72.47 408.55 72.83 438.75" style="fill:#ebebeb"></polygon><path d="M60.82,409.39a18.79,18.79,0,0,0,2.64.48,19.76,19.76,0,0,0,2.66.14,21.45,21.45,0,0,0,2.65-.18c.88-.11,1.76-.28,2.66-.44-.41.19-.83.37-1.25.54a10.42,10.42,0,0,1-1.32.38,12.46,12.46,0,0,1-5.48.05A8.73,8.73,0,0,1,60.82,409.39Z" style="fill:#dbdbdb"></path><rect x="59.86" y="354.32" width="1.11" height="4.22" style="fill:#37474f"></rect><rect x="71.41" y="354.32" width="1.11" height="4.22" style="fill:#37474f"></rect><rect x="58.51" y="377.74" width="0.78" height="61.02" style="fill:#37474f"></rect><rect x="73.08" y="377.74" width="0.78" height="61.02" style="fill:#37474f"></rect><rect x="65.8" y="376.14" width="0.78" height="32.68" transform="translate(458.67 326.29) rotate(90)" style="fill:#37474f"></rect><rect x="65.8" y="409.96" width="0.78" height="32.68" transform="translate(492.49 360.11) rotate(90)" style="fill:#37474f"></rect><path d="M46,442.42v9.89h4.88v-3h2.24c3,0,2.54-6.9,8.86-6.9Zm6.6,2.06c.07,0,.12.25.12.54s0,.56-.12.56-.11-.25-.11-.56S52.51,444.48,52.57,444.48Zm-1.84,1.84c0-.07.24-.12.55-.12s.56.05.56.12-.25.11-.56.11S50.73,446.39,50.73,446.32Zm1,1c-.22.22-.43.36-.47.33s.09-.26.31-.49.43-.35.47-.31S52,447.1,51.74,447.31Zm.31-1.5s-.25-.11-.47-.33-.36-.42-.31-.47.25.09.47.31S52.1,445.75,52.05,445.81Zm.52,2.36c-.06,0-.11-.25-.11-.56s0-.55.11-.55.12.25.12.55S52.64,448.17,52.57,448.17Zm0-1.47a.38.38,0,0,1-.38-.38.39.39,0,1,1,.77,0A.38.38,0,0,1,52.57,446.7Zm.84-1.38c.22-.22.43-.35.47-.31s-.09.26-.31.47-.43.36-.47.33S53.19,445.55,53.41,445.32Zm.47,2.32s-.25-.11-.47-.33-.36-.42-.31-.47.25.09.47.31S53.93,447.58,53.88,447.64Zm0-1.21c-.31,0-.56,0-.56-.11s.25-.12.56-.12.55.05.55.12S54.18,446.43,53.87,446.43Z" style="fill:#263238"></path><path d="M70.43,442.42c6.32,0,5.82,6.9,8.86,6.9h2.24v3h4.88v-9.89Zm9.49,2.6c0,.31,0,.56-.11.56s-.12-.25-.12-.56,0-.54.12-.54S79.92,444.73,79.92,445Zm1.18,1.41c-.31,0-.56,0-.56-.11s.25-.12.56-.12.55.05.55.12S81.41,446.43,81.1,446.43Zm-.77.41s.25.09.47.31.36.43.31.49-.25-.11-.47-.33S80.28,446.89,80.33,446.84Zm.31-1.52c.22-.22.43-.35.47-.31s-.09.26-.31.47-.43.36-.47.33S80.42,445.55,80.64,445.32Zm-1,2.29c0-.3,0-.55.12-.55s.11.25.11.55,0,.56-.11.56S79.69,447.92,79.69,447.61Zm-.27-1.29a.39.39,0,1,1,.77,0,.39.39,0,0,1-.77,0Zm-.14-.51s-.25-.11-.47-.33-.36-.42-.31-.47.25.09.47.31S79.33,445.75,79.28,445.81Zm-.47,1.34c.22-.22.43-.35.47-.31s-.09.26-.31.47-.43.36-.47.33S78.59,447.38,78.81,447.15Zm-.85-.83c0-.07.24-.12.55-.12s.56.05.56.12-.25.11-.56.11S78,446.39,78,446.32Z" style="fill:#263238"></path></g><g id="freepik--Food--inject-564"><polygon points="322.85 421.91 296.23 421.91 294.63 372.14 324.46 372.14 322.85 421.91" style="fill:#ebebeb"></polygon><polygon points="325.69 424.98 293.4 424.98 291.46 364.63 327.63 364.63 325.69 424.98" style="fill:#ebebeb;opacity:0.5"></polygon><polygon points="202.53 421.91 175.91 421.91 174.31 372.14 204.13 372.14 202.53 421.91" style="fill:#ebebeb"></polygon><polygon points="205.36 424.98 173.08 424.98 171.13 364.63 207.3 364.63 205.36 424.98" style="fill:#ebebeb;opacity:0.5"></polygon><polygon points="549.18 421.91 522.56 421.91 520.96 372.14 550.79 372.14 549.18 421.91" style="fill:#ebebeb"></polygon><polygon points="552.02 424.98 519.73 424.98 517.79 364.63 553.96 364.63 552.02 424.98" style="fill:#ebebeb;opacity:0.5"></polygon><polygon points="255.45 419.12 246.5 427.06 171.13 427.06 162.18 419.12 255.45 419.12" style="fill:#455a64"></polygon><rect x="171.13" y="427.06" width="75.15" height="2.01" style="fill:#37474f"></rect><path d="M227.8,419.12H188.26s9.62-13.2,19.77-13.2S227.8,419.12,227.8,419.12Z" style="fill:#FFA52E"></path><path d="M227.8,419.12H188.26s9.62-13.2,19.77-13.2S227.8,419.12,227.8,419.12Z" style="fill:#fff;opacity:0.7000000000000001"></path><polygon points="573.9 419.12 564.95 427.06 489.58 427.06 480.63 419.12 573.9 419.12" style="fill:#455a64"></polygon><rect x="489.58" y="427.06" width="75.15" height="2.01" style="fill:#37474f"></rect><path d="M546.93,419.12H507.39s9.62-13.2,19.77-13.2S546.93,419.12,546.93,419.12Z" style="fill:#FFA52E"></path><path d="M546.93,419.12H507.39s9.62-13.2,19.77-13.2S546.93,419.12,546.93,419.12Z" style="fill:#fff;opacity:0.7000000000000001"></path><polygon points="413.22 419.12 404.27 427.06 328.9 427.06 319.95 419.12 413.22 419.12" style="fill:#455a64"></polygon><rect x="328.9" y="427.06" width="75.15" height="2.01" style="fill:#37474f"></rect><path d="M386.24,419.12H346.7s9.62-13.2,19.77-13.2S386.24,419.12,386.24,419.12Z" style="fill:#FFA52E"></path><path d="M386.24,419.12H346.7s9.62-13.2,19.77-13.2S386.24,419.12,386.24,419.12Z" style="fill:#fff;opacity:0.7000000000000001"></path><rect x="293.66" y="437.88" width="162.69" height="6.64" transform="translate(750 882.4) rotate(180)" style="fill:#c7c7c7"></rect><path d="M330.22,378.34C326,375,324,373,323.76,371.77s1.36-5.23-2.79-5.72c-3.18-.37-2.4,5.66-3.35,6.37-1.19.89-5.56.51-6.16,3.12s1,4,6.68,3.7c2.54-.16,7.8,6.17,7.8,6.17S333.06,380.58,330.22,378.34Z" style="fill:#ebebeb"></path><path d="M309.86,391.56c2.67-.47,9.05,5.62,9.05,5.62s7-6,3.68-8.05a1.18,1.18,0,0,0-.19-.11l-1-.62c-4.11-2.6-6.14-4.26-6.48-5.47s.26-5.8-4.21-5.81c-3.44,0-1.33,6.38-2.24,7.25-1.17,1.1-6.66,1.1-6.21,5.21C302.58,392.42,303.88,392.61,309.86,391.56Z" style="fill:#fff"></path><path d="M308.17,437.88H445.63c3.24-1.11,11.16-12.27,9.82-18.26s-6.68-6.49-9.34-12.28-12.18-24.21-18.81-32c-3.75-4.41-10-8.54-17.21-11.77A81.35,81.35,0,0,0,397,359c-13.26-3.35-27.2-3.3-35.36,2.95-3.47,2.66-6.6,5.3-9.42,7.85a134.33,134.33,0,0,0-13,13.49c-1.36,1.63-2.52,3.12-3.48,4.41-1.59,2.12-2.67,3.73-3.28,4.67-.39.62-.58,1-.58,1a3.94,3.94,0,0,1-2.32-2.21c-.11-.25-.23-.51-.34-.79h0c-.61-1.39-1.34-2.92-2-3.34-2.21-1.44-5,1.84-5,1.84a4.45,4.45,0,0,1,0,.89c-.12,1.31-.85,3.85-4.33,6l-1.39-.8s-3.13,6.15,2.39,6.25a9.21,9.21,0,0,1,5.13,1.39s-6.19,4.23-9.12,4.3-15.37-6.14-18.79-3.45C291.69,407,295.78,427.37,308.17,437.88Z" style="fill:#FFA52E"></path><path d="M308.17,437.88H445.63c3.24-1.11,11.16-12.27,9.82-18.26s-6.68-6.49-9.34-12.28-12.18-24.21-18.81-32c-3.75-4.41-10-8.54-17.21-11.77A81.35,81.35,0,0,0,397,359c-13.26-3.35-27.2-3.3-35.36,2.95-3.47,2.66-6.6,5.3-9.42,7.85a134.33,134.33,0,0,0-13,13.49c-1.36,1.63-2.52,3.12-3.48,4.41-1.59,2.12-2.67,3.73-3.28,4.67-.39.62-.58,1-.58,1a3.94,3.94,0,0,1-2.32-2.21c-.11-.25-.23-.51-.34-.79h0c-.61-1.39-1.34-2.92-2-3.34-2.21-1.44-5,1.84-5,1.84a4.45,4.45,0,0,1,0,.89c-.12,1.31-.85,3.85-4.33,6l-1.39-.8s-3.13,6.15,2.39,6.25a9.21,9.21,0,0,1,5.13,1.39s-6.19,4.23-9.12,4.3-15.37-6.14-18.79-3.45C291.69,407,295.78,427.37,308.17,437.88Z" style="opacity:0.2"></path><path d="M375.94,357.9c15.05-1.17,21.75,6.64,22.92,12.68s-4.94,16-15.53,20.16-30.52,7.15-34.46-.87S361.06,359.06,375.94,357.9Z" style="fill:#fff;opacity:0.30000000000000004"></path><path d="M408.12,426.24a6.09,6.09,0,0,0,.94-5.33,4.65,4.65,0,0,0-1.67-2.35,16.33,16.33,0,0,0-2.39-1.49,48.07,48.07,0,0,1-4.69-2.62,25.24,25.24,0,0,1-2.12-1.57,10.31,10.31,0,0,1-1.77-1.79,22.05,22.05,0,0,1-3.5-9.7,16.38,16.38,0,0,1-.06-5,2.59,2.59,0,0,1,.3-.84c0-.06,0,0-.05,0H393l.17,0c.42.1.84.55,1.25,1.28a48.8,48.8,0,0,0,2.66,4.84,12.81,12.81,0,0,0,4.32,4,21.93,21.93,0,0,0,5.34,2,55.31,55.31,0,0,0,5.43,1.06l5.39.81c.89.14,1.8.26,2.65.45a8.34,8.34,0,0,1,2.36.9,10.05,10.05,0,0,1,3.7,3.63,17.57,17.57,0,0,1,2.06,5,15.37,15.37,0,0,0-1.54-5.27,11,11,0,0,0-3.64-4.27,9.25,9.25,0,0,0-2.63-1.21c-.91-.27-1.79-.45-2.69-.66-1.78-.39-3.58-.71-5.35-1.08-3.5-.76-7.09-1.47-10-3.18a10.78,10.78,0,0,1-3.57-3.38,51.29,51.29,0,0,1-2.53-4.73,6.34,6.34,0,0,0-1-1.32,3.59,3.59,0,0,0-1.68-1,3.17,3.17,0,0,0-.51-.08,2,2,0,0,0-.74.07,2.06,2.06,0,0,0-1.12.81,4.5,4.5,0,0,0-.68,1.69,17.6,17.6,0,0,0,.11,5.81,28.77,28.77,0,0,0,1.46,5.46,17.39,17.39,0,0,0,2.77,5c2.67,3,6.16,4.47,9.49,5.88,1.63.71,3.35,1.42,4,3.05A6.1,6.1,0,0,1,408.12,426.24Z" style="opacity:0.2"></path><path d="M323.62,402.31c1.73,1.23,3.4,2.55,5,3.92a23.29,23.29,0,0,1,4.33,4.5,9.73,9.73,0,0,1,1,2.87c.23,1,.43,2.08.69,3.12a28.6,28.6,0,0,0,2.17,6.14,22.78,22.78,0,0,0,3.72,5.4,30.56,30.56,0,0,0,4.88,4.35,26.23,26.23,0,0,0,12.08,5.08,20.92,20.92,0,0,0,13-2.41,23.39,23.39,0,0,0,2.83-1.81,24.18,24.18,0,0,0,2.48-2.27,17,17,0,0,0,3.66-5.7,21.17,21.17,0,0,0,1.33-6.57,17.6,17.6,0,0,0-1.07-6.66,20.6,20.6,0,0,0-8.47-10.11l.06,0a2.07,2.07,0,0,0-.25-.15l.09.05a30.62,30.62,0,0,0-4.78-2.33,21.83,21.83,0,0,0-5.2-1.21,48.83,48.83,0,0,0-10.43.43c-1.71.15-3.41.38-5.07.36a14.24,14.24,0,0,1-4.92-.86c-3.18-1.12-5.67-3.73-8.84-5.12,3,1.63,5.3,4.36,8.59,5.75a15.62,15.62,0,0,0,5.13,1.2,40.94,40.94,0,0,0,5.21-.12,52,52,0,0,1,10.13,0,20.59,20.59,0,0,1,4.77,1.26,29.25,29.25,0,0,1,4.4,2.3l.09,0a.05.05,0,0,1-.05,0l.05,0a18.6,18.6,0,0,1,7.47,9.22,16.81,16.81,0,0,1-.33,11.73,15.51,15.51,0,0,1-3.21,4.94,21.26,21.26,0,0,1-2.2,2,24.28,24.28,0,0,1-2.53,1.64,19.26,19.26,0,0,1-11.65,2.27,24.79,24.79,0,0,1-11.29-4.5,29,29,0,0,1-4.73-4,22.74,22.74,0,0,1-3.66-4.95,27.28,27.28,0,0,1-2.31-5.77l-.86-3.07a10.38,10.38,0,0,0-1.26-3.07,23.75,23.75,0,0,0-4.72-4.42C327.22,404.58,325.43,403.42,323.62,402.31Z" style="opacity:0.2"></path><path d="M321.4,388.06l1,.62c.63-.67,2.94-2.9,4.83-1.66.64.42,1.37,2,2,3.34h0a19,19,0,0,0,3.24,2,78,78,0,0,1,6.3-8.52c-1.26-.83-2.55-1.57-3.07-2.76-1-2.42-.16-3.08-2.09-5s-5,.9-5,.9,1.94,5.61-4.94,6.12A4.64,4.64,0,0,0,321.4,388.06Z" style="fill:#FFA52E"></path><path d="M321.4,388.06l1,.62c.63-.67,2.94-2.9,4.83-1.66.64.42,1.37,2,2,3.34h0a19,19,0,0,0,3.24,2,78,78,0,0,1,6.3-8.52c-1.26-.83-2.55-1.57-3.07-2.76-1-2.42-.16-3.08-2.09-5s-5,.9-5,.9,1.94,5.61-4.94,6.12A4.64,4.64,0,0,0,321.4,388.06Z" style="opacity:0.4"></path><path d="M358.85,401.61c-4.61-.31-7.59,1.91-7.86,3.94-.29,2.25,1.8,5.43,7.14,5.6s9-1.93,8.4-5.2C366.53,406,366,402.07,358.85,401.61Z" style="fill:#fff;opacity:0.30000000000000004"></path><path d="M310.49,407.4s-6.3-2.56-7.31-2.2-.28,4,2.73,4.24S311.58,408.67,310.49,407.4Z" style="fill:#fff;opacity:0.30000000000000004"></path><path d="M282.4,382.87s8.64-3.16,8.64-11.33-7.43-23.6-7.43-33.35,8.92-12.08,8.92-12.08l5.85,2.51s-10.4,1.76-10.5,9.66c-.07,6.11,9,21.27,8.92,36s-11.4,23.06-11.4,23.06Z" style="fill:#FFA52E"></path><path d="M286.54,393c0,8.51-12.68,14.56-17.84,15.75-3.62.83-3.62,5-3.62,5H248.36s0-4.19-3.63-5c-5.15-1.19-17.83-7.24-17.83-15.75s3.21-10.72,10.59-16,15.33-10.31,15.33-26.14-3.91-41.16-3.91-41.16h15.62s-3.91,25.32-3.91,41.16S268.57,371.68,276,377,286.54,384.49,286.54,393Z" style="fill:#FFA52E"></path><path d="M285.91,387.57H227.53a11.79,11.79,0,0,1,1.34-3h55.7A11.79,11.79,0,0,1,285.91,387.57Z" style="opacity:0.1"></path><path d="M262.7,362.85h-12a23.65,23.65,0,0,0,1-3h10A23.65,23.65,0,0,0,262.7,362.85Z" style="opacity:0.1"></path><path d="M261.28,358.06h-9.13a28.67,28.67,0,0,0,.46-3h8.22C260.94,356.13,261.09,357.12,261.28,358.06Z" style="opacity:0.1"></path><path d="M262.58,324.22c-.12,1-.23,2-.34,3h-11c-.12-1-.22-2-.34-3Z" style="opacity:0.1"></path><path d="M284.51,398.84a17.55,17.55,0,0,1-2.71,3H231.64a17.14,17.14,0,0,1-2.71-3Z" style="opacity:0.1"></path><g style="opacity:0.1"><path d="M233.19,393.2a1,1,0,1,1-1-.95A1,1,0,0,1,233.19,393.2Z"></path><path d="M232.52,390c0,.76-.13,1.38-.29,1.38s-.28-.62-.28-1.38.13-1.38.28-1.38S232.52,389.23,232.52,390Z"></path><path d="M230.17,390.73c.54.53.88,1.06.77,1.17s-.64-.23-1.18-.77-.88-1.06-.77-1.18S229.63,390.19,230.17,390.73Z"></path><path d="M229,392.91c.76,0,1.37.13,1.37.29s-.61.28-1.37.28-1.38-.13-1.38-.28S228.26,392.91,229,392.91Z"></path><path d="M229.76,395.26c.54-.53,1.07-.88,1.18-.77s-.23.64-.77,1.18-1.07.88-1.18.77S229.23,395.8,229.76,395.26Z"></path><path d="M232,396.41c0-.77.13-1.38.28-1.38s.29.61.29,1.38-.13,1.37-.29,1.37S232,397.17,232,396.41Z"></path><path d="M234.3,395.67c-.54-.54-.88-1.07-.77-1.18s.64.24,1.17.77.89,1.07.78,1.18S234.84,396.21,234.3,395.67Z"></path><path d="M235.44,393.48c-.76,0-1.38-.13-1.38-.28s.62-.29,1.38-.29,1.38.13,1.38.29S236.2,393.48,235.44,393.48Z"></path><path d="M234.7,391.13c-.53.54-1.06.88-1.17.77s.23-.64.77-1.17,1.06-.89,1.18-.78S235.24,390.59,234.7,391.13Z"></path></g><g style="opacity:0.1"><path d="M245.43,393.2a.95.95,0,0,1-1.9,0,1,1,0,0,1,1.9,0Z"></path><path d="M244.76,390c0,.76-.13,1.38-.28,1.38s-.29-.62-.29-1.38.13-1.38.29-1.38S244.76,389.23,244.76,390Z"></path><path d="M242.41,390.73c.54.53.88,1.06.77,1.17s-.64-.23-1.17-.77-.89-1.06-.78-1.18S241.87,390.19,242.41,390.73Z"></path><path d="M241.27,392.91c.76,0,1.38.13,1.38.29s-.62.28-1.38.28-1.38-.13-1.38-.28S240.51,392.91,241.27,392.91Z"></path><path d="M242,395.26c.53-.53,1.06-.88,1.17-.77s-.23.64-.77,1.18-1.06.88-1.18.77S241.47,395.8,242,395.26Z"></path><path d="M244.19,396.41c0-.77.13-1.38.29-1.38s.28.61.28,1.38-.13,1.37-.28,1.37S244.19,397.17,244.19,396.41Z"></path><path d="M246.54,395.67c-.53-.54-.88-1.07-.77-1.18s.64.24,1.18.77.88,1.07.77,1.18S247.08,396.21,246.54,395.67Z"></path><path d="M247.68,393.48c-.76,0-1.37-.13-1.37-.28s.61-.29,1.37-.29,1.38.13,1.38.29S248.45,393.48,247.68,393.48Z"></path><path d="M247,391.13c-.54.54-1.07.88-1.18.77s.24-.64.77-1.17,1.07-.89,1.18-.78S247.49,390.59,247,391.13Z"></path></g><g style="opacity:0.1"><path d="M257.67,393.2a.95.95,0,1,1-1.9,0,1,1,0,1,1,1.9,0Z"></path><path d="M257,390c0,.76-.13,1.38-.29,1.38s-.29-.62-.29-1.38.13-1.38.29-1.38S257,389.23,257,390Z"></path><path d="M254.65,390.73c.54.53.89,1.06.77,1.17s-.63-.23-1.17-.77-.88-1.06-.77-1.18S254.11,390.19,254.65,390.73Z"></path><path d="M253.51,392.91c.76,0,1.38.13,1.38.29s-.62.28-1.38.28-1.38-.13-1.38-.28S252.75,392.91,253.51,392.91Z"></path><path d="M254.25,395.26c.54-.53,1.06-.88,1.17-.77s-.23.64-.77,1.18-1.06.88-1.17.77S253.71,395.8,254.25,395.26Z"></path><path d="M256.43,396.41c0-.77.13-1.38.29-1.38s.29.61.29,1.38-.13,1.37-.29,1.37S256.43,397.17,256.43,396.41Z"></path><path d="M258.79,395.67c-.54-.54-.89-1.07-.78-1.18s.64.24,1.18.77.88,1.07.77,1.18S259.32,396.21,258.79,395.67Z"></path><path d="M259.93,393.48c-.76,0-1.38-.13-1.38-.28s.62-.29,1.38-.29,1.38.13,1.38.29S260.69,393.48,259.93,393.48Z"></path><path d="M259.19,391.13c-.54.54-1.06.88-1.18.77s.24-.64.78-1.17,1.06-.89,1.17-.78S259.73,390.59,259.19,391.13Z"></path></g><g style="opacity:0.1"><path d="M269.91,393.2a.95.95,0,1,1-1-.95A.95.95,0,0,1,269.91,393.2Z"></path><path d="M269.25,390c0,.76-.13,1.38-.29,1.38s-.28-.62-.28-1.38.12-1.38.28-1.38S269.25,389.23,269.25,390Z"></path><path d="M266.9,390.73c.53.53.88,1.06.77,1.17s-.64-.23-1.18-.77-.88-1.06-.77-1.18S266.36,390.19,266.9,390.73Z"></path><path d="M265.75,392.91c.76,0,1.38.13,1.38.29s-.62.28-1.38.28-1.37-.13-1.37-.28S265,392.91,265.75,392.91Z"></path><path d="M266.49,395.26c.54-.53,1.07-.88,1.18-.77s-.24.64-.77,1.18-1.07.88-1.18.77S266,395.8,266.49,395.26Z"></path><path d="M268.68,396.41c0-.77.12-1.38.28-1.38s.29.61.29,1.38-.13,1.37-.29,1.37S268.68,397.17,268.68,396.41Z"></path><path d="M271,395.67c-.54-.54-.88-1.07-.77-1.18s.64.24,1.17.77.89,1.07.77,1.18S271.57,396.21,271,395.67Z"></path><path d="M272.17,393.48c-.76,0-1.38-.13-1.38-.28s.62-.29,1.38-.29,1.38.13,1.38.29S272.93,393.48,272.17,393.48Z"></path><path d="M271.43,391.13c-.53.54-1.06.88-1.17.77s.23-.64.77-1.17,1.06-.89,1.17-.78S272,390.59,271.43,391.13Z"></path></g><g style="opacity:0.1"><path d="M282.16,393.2a1,1,0,1,1-1-.95A1,1,0,0,1,282.16,393.2Z"></path><path d="M281.49,390c0,.76-.13,1.38-.28,1.38s-.29-.62-.29-1.38.13-1.38.29-1.38S281.49,389.23,281.49,390Z"></path><path d="M279.14,390.73c.54.53.88,1.06.77,1.17s-.64-.23-1.18-.77-.88-1.06-.77-1.18S278.6,390.19,279.14,390.73Z"></path><path d="M278,392.91c.76,0,1.37.13,1.37.29s-.61.28-1.37.28-1.38-.13-1.38-.28S277.24,392.91,278,392.91Z"></path><path d="M278.73,395.26c.54-.53,1.07-.88,1.18-.77s-.23.64-.77,1.18-1.07.88-1.18.77S278.2,395.8,278.73,395.26Z"></path><path d="M280.92,396.41c0-.77.13-1.38.29-1.38s.28.61.28,1.38-.13,1.37-.28,1.37S280.92,397.17,280.92,396.41Z"></path><path d="M283.27,395.67c-.54-.54-.88-1.07-.77-1.18s.64.24,1.18.77.88,1.07.77,1.18S283.81,396.21,283.27,395.67Z"></path><path d="M284.41,393.48c-.76,0-1.37-.13-1.37-.28s.61-.29,1.37-.29,1.38.13,1.38.29S285.17,393.48,284.41,393.48Z"></path><path d="M283.68,391.13c-.54.54-1.07.88-1.18.77s.23-.64.77-1.17,1.07-.89,1.18-.78S284.21,390.59,283.68,391.13Z"></path></g><polygon points="270.31 418 243.13 418 248.36 413.76 265.08 413.76 270.31 418" style="fill:#FFA52E"></polygon><polygon points="270.31 418 243.13 418 248.36 413.76 265.08 413.76 270.31 418" style="opacity:0.1"></polygon><polygon points="267.31 306.33 264.53 309.67 248.91 309.67 246.13 306.33 267.31 306.33" style="fill:#FFA52E"></polygon><polygon points="267.31 306.33 264.53 309.67 248.91 309.67 246.13 306.33 267.31 306.33" style="opacity:0.1"></polygon><path d="M264.66,306.33H248.78c1.81-16.31,4.88-22.44,7.94-22.44S262.85,290,264.66,306.33Z" style="fill:#FFA52E"></path><path d="M259.52,281.11a2.79,2.79,0,1,1-2.79-2.79A2.79,2.79,0,0,1,259.52,281.11Z" style="fill:#FFA52E"></path><path d="M250,311.06a57.28,57.28,0,0,0-13.26,2A28.15,28.15,0,0,0,225.41,319a17.64,17.64,0,0,0-3.71,4.86,17.39,17.39,0,0,0-1.75,5.8A27.36,27.36,0,0,0,221.77,342a80,80,0,0,0,5.67,11.88l3.35,5.86a44.73,44.73,0,0,1,3.15,6.31,28.46,28.46,0,0,1,1.64,7,13.33,13.33,0,0,1-.22,3.76,7.13,7.13,0,0,1-1.86,3.53,6.32,6.32,0,0,1-1.64,1.15,8.44,8.44,0,0,1-.9.36,5.76,5.76,0,0,1-1,.22,4.34,4.34,0,0,1-2.05-.25,4.14,4.14,0,0,1-1.61-1.17,4.56,4.56,0,0,1-1-3.53,3.54,3.54,0,0,1,2.06-2.73,3.29,3.29,0,0,0-1.41,2.78,3.64,3.64,0,0,0,1.25,2.65,2.75,2.75,0,0,0,2.52.61,4.47,4.47,0,0,0,1.26-.59,4.56,4.56,0,0,0,1-.93c1.14-1.4,1.2-3.5.84-5.52a27.37,27.37,0,0,0-1.94-6.08,55.12,55.12,0,0,0-3.26-5.62c-1.21-1.89-2.42-3.82-3.61-5.78a70.31,70.31,0,0,1-6.16-12.48A29.37,29.37,0,0,1,216,329.08a20.18,20.18,0,0,1,2.44-7,19.46,19.46,0,0,1,4.83-5.57,28.17,28.17,0,0,1,13-5.39A43.72,43.72,0,0,1,250,311.06Z" style="fill:#FFA52E"></path></g></svg>