<svg xmlns="http://www.w3.org/2000/svg" viewBox="0 0 500 500"><g id="freepik--background-complete--inject-836"><path d="M108.31,87.88c-51.82,0-51.91,73.68,0,73.68S160.21,87.88,108.31,87.88Z" style="fill:#ebebeb"></path><path d="M139.82,131.63c-2.77,12.67-13.28,23.67-31.52,23.67-43.07,0-43-61.16,0-61.16.28,0,.56,0,.84,0-40.46.74-40.27,58.65.8,58.65C126.69,152.81,136.67,143.12,139.82,131.63Z" style="fill:#dbdbdb"></path><path d="M108.61,102.2a1.32,1.32,0,0,1,1.35,1.24v2a19.22,19.22,0,0,1,10,3.59c.5.36.78.66.78,1.18a1.38,1.38,0,0,1-1.45,1.28,1.43,1.43,0,0,1-1-.36,16.71,16.71,0,0,0-8.41-3.33v14.36c8.52,1.64,12.11,4.56,12.11,9.59,0,5.44-5,9.28-12,9.49v4a1.35,1.35,0,0,1-2.69,0v-4a22,22,0,0,1-12.61-5,1.27,1.27,0,0,1-.62-1.07,1.41,1.41,0,0,1,1.4-1.29,1.5,1.5,0,0,1,1,.36,18.86,18.86,0,0,0,10.93,4.67V124.31C99,122.62,95.5,119.8,95.5,114.67s4.93-9.13,11.77-9.28v-2A1.32,1.32,0,0,1,108.61,102.2Zm-1.23,19.5v-14c-5.44.11-9,3.08-9,6.77C98.36,118,100.15,120.11,107.38,121.7Zm2.47,3.12V139c5.6-.1,9.25-3.08,9.25-7C119.1,128.47,117.14,126.31,109.85,124.82Z" style="fill:#dbdbdb"></path><path d="M401.27,308.26c-46.66,8.37-34.34,77.49,12.4,69.1S448,299.87,401.27,308.26Z" style="fill:#dbdbdb"></path><path d="M405.65,307.47c-44.47,8-32.14,77.1,12.4,69.1S450.18,299.48,405.65,307.47Z" style="fill:#ebebeb"></path><path d="M440.05,343.65c-.24,12.31-7.41,24.24-23.06,27.05-37,6.63-47.2-50.73-10.29-57.35q.36-.08.72-.12c-34.6,6.93-24.68,61.21,10.56,54.89C432.35,365.54,439.28,354.91,440.05,343.65Z" style="fill:#dbdbdb"></path><path d="M414.52,320.83a1.19,1.19,0,0,1,1,1.3l-.23,1.94a16,16,0,0,1,8.24,4.42,1.34,1.34,0,0,1,.55,1.19,1.26,1.26,0,0,1-1.4,1.07,1.22,1.22,0,0,1-.84-.44,13.81,13.81,0,0,0-6.91-4l-1.6,13.59c7.2,2.42,10,5.55,9.42,10.31-.6,5.14-5.35,8.27-11.44,7.75l-.45,3.79a1.17,1.17,0,1,1-2.33-.27l.45-3.84a18.35,18.35,0,0,1-10.36-6,1.23,1.23,0,0,1,.94-2.15,1.25,1.25,0,0,1,.83.44,15.8,15.8,0,0,0,8.95,5.53L411,341.62c-7.09-2.45-9.78-5.48-9.21-10.33s5.28-8.14,11.22-7.59l.22-1.84A1.19,1.19,0,0,1,414.52,320.83Zm-3.23,18.32,1.55-13.25c-4.72-.46-8.15,2-8.56,5.49C403.89,334.69,405.2,336.91,411.29,339.15Zm1.78,3.21-1.57,13.4c4.86.47,8.35-2,8.78-5.66C420.68,346.75,419.22,344.51,413.07,342.36Z" style="fill:#dbdbdb"></path><path d="M414.79,284.89l13.36-.28,6.58-.11c2.19-.05,4.36,0,6.54-.06l-.44.45-.06-11.19.5.5L428,274.14c-4.41,0-8.82-.12-13.24-.17l.28-.27c0,1.83-.09,3.67-.14,5.54Zm0,0-.14-5.54c0-1.86-.11-3.75-.13-5.65v-.27h.27c4.42-.05,8.83-.16,13.24-.17l13.24-.06h.5v.5l0,11.19v.45h-.45c-2.23,0-4.47,0-6.69-.06l-6.66-.11Z" style="fill:#ebebeb"></path><path d="M429.56,299l13.36-.28,6.58-.11c2.19-.05,4.36,0,6.54-.06l-.44.45-.05-11.19.49.5-13.24-.06c-4.41,0-8.82-.12-13.24-.17l.28-.27c0,1.83-.09,3.67-.13,5.54Zm0,0-.14-5.54c0-1.86-.11-3.75-.13-5.65v-.27h.27c4.42-.05,8.83-.16,13.24-.17l13.24-.06h.51v.5L456.49,299v.45H456c-2.23,0-4.46,0-6.69-.06l-6.66-.11Z" style="fill:#ebebeb"></path><path d="M400,299l13.36-.28,6.58-.11c2.18-.05,4.36,0,6.54-.06l-.44.45L426,287.81l.5.5-13.24-.06c-4.41,0-8.83-.12-13.24-.17l.27-.27c0,1.83-.08,3.67-.13,5.54Zm0,0-.14-5.54c-.05-1.86-.11-3.75-.13-5.65v-.27H400c4.41-.05,8.83-.16,13.24-.17l13.24-.06h.5v.5L427,299v.45h-.44c-2.23,0-4.47,0-6.69-.06l-6.66-.11Z" style="fill:#ebebeb"></path><path d="M58.73,299l13.35-.28,6.58-.11c2.19-.05,4.37,0,6.55-.06l-.45.45-.05-11.19.5.5L72,288.25c-4.42,0-8.83-.12-13.24-.17l.27-.27c0,1.83-.09,3.67-.13,5.54Zm0,0-.15-5.54c0-1.86-.11-3.75-.13-5.65v-.27h.28c4.41-.05,8.82-.16,13.24-.17l13.24-.06h.5v.5L85.65,299v.45h-.44c-2.23,0-4.47,0-6.7-.06l-6.66-.11Z" style="fill:#ebebeb"></path><path d="M58.73,47.77l13.35-.28,6.58-.12c2.19,0,4.37,0,6.55,0l-.45.45-.05-11.19.5.49L72,37c-4.42,0-8.83-.11-13.24-.16l.27-.27c0,1.83-.09,3.67-.13,5.53Zm0,0-.15-5.54c0-1.87-.11-3.76-.13-5.65v-.27h.28c4.41,0,8.82-.16,13.24-.16l13.24-.06h.5v.51l-.06,11.19v.44h-.44c-2.23,0-4.47,0-6.7-.05L71.85,48Z" style="fill:#ebebeb"></path><path d="M44,61.88l13.35-.28,6.58-.12c2.19,0,4.36,0,6.55,0l-.45.45,0-11.19.5.49L57.2,51.12C52.78,51.12,48.37,51,44,51l.27-.27c0,1.83-.09,3.67-.13,5.53Zm0,0-.15-5.54c0-1.87-.11-3.76-.13-5.65v-.27H44c4.41,0,8.82-.16,13.24-.16l13.24-.06h.5v.51l-.06,11.19v.44h-.44c-2.24,0-4.47,0-6.7,0l-6.66-.12Z" style="fill:#ebebeb"></path><path d="M429.56,47.78l13.36-.28,6.58-.11c2.19,0,4.36,0,6.54-.06l-.44.45-.05-11.19.49.5L442.8,37c-4.41,0-8.82-.11-13.24-.16l.28-.27c0,1.83-.09,3.67-.13,5.53Zm0,0-.14-5.54c0-1.87-.11-3.75-.13-5.65v-.27h.27c4.42-.05,8.83-.15,13.24-.16L456,36.09h.51v.5l-.05,11.19v.45H456c-2.23,0-4.46,0-6.69,0l-6.66-.11Z" style="fill:#ebebeb"></path><path d="M286.21,122.83l-13.35.28-6.58.11c-2.19,0-4.37,0-6.55.06l.45-.45.05,11.19-.5-.5,13.24.07c4.42,0,8.83.11,13.24.16l-.27.27c0-1.83.09-3.67.13-5.53Zm0,0,.15,5.54c0,1.87.11,3.75.13,5.65v.27h-.28c-4.41,0-8.82.15-13.24.16l-13.24.06h-.5V134l.06-11.19v-.45h.44c2.23,0,4.47,0,6.7,0l6.66.11Z" style="fill:#ebebeb"></path><path d="M271.44,108.72l-13.35.28-6.58.11c-2.19,0-4.37,0-6.55.06l.45-.45.05,11.19-.5-.5,13.24.07c4.41,0,8.83.11,13.24.16l-.27.27c0-1.83.08-3.67.13-5.53Zm0,0,.14,5.54c.05,1.87.12,3.75.13,5.65v.27h-.28c-4.41,0-8.83.15-13.24.16l-13.24.06h-.5v-.5l.06-11.19v-.45H245c2.23,0,4.47,0,6.7,0l6.66.11Z" style="fill:#ebebeb"></path><rect x="423.02" width="1" height="119.23" style="fill:#c7c7c7"></rect><polygon points="382.12 159.13 385.45 166.45 461.6 166.45 464.92 159.13 432.5 136.69 414.54 136.69 382.12 159.13" style="fill:#ebebeb"></polygon><polygon points="412.29 115.07 414.54 136.69 432.5 136.69 434.75 115.07 412.29 115.07" style="fill:#dbdbdb"></polygon><polygon points="382.13 159.14 385.46 166.46 461.61 166.46 464.93 159.14 382.13 159.14" style="fill:#dbdbdb"></polygon><rect x="334.13" width="1" height="95.61" style="fill:#c7c7c7"></rect><polygon points="293.23 135.52 296.56 142.84 372.71 142.84 376.03 135.52 343.61 113.08 325.65 113.08 293.23 135.52" style="fill:#ebebeb"></polygon><polygon points="323.4 91.46 325.65 113.08 343.61 113.08 345.86 91.46 323.4 91.46" style="fill:#dbdbdb"></polygon><polygon points="293.23 135.52 296.56 142.84 372.71 142.84 376.03 135.52 293.23 135.52" style="fill:#dbdbdb"></polygon></g><g id="freepik--Desk--inject-836"><polygon points="45.3 401 96.48 400.76 147.65 400.67 250 400.5 352.35 400.67 403.52 400.75 454.69 401 403.52 401.24 352.35 401.33 250 401.5 147.65 401.33 96.48 401.24 45.3 401" style="fill:#263238"></polygon></g><g id="freepik--Shadow--inject-836"><ellipse cx="250" cy="431.58" rx="184.77" ry="13.67" style="fill:#ebebeb"></ellipse></g><g id="freepik--Character--inject-836"><path d="M290,321l0,.14s0,.06,0,.1,0,.16-.05.27l0,.18a3.08,3.08,0,0,0-.07.39c0,.09,0,.18-.05.28s-.07.42-.12.66-.15.81-.23,1.29l-.45,2.44c-.05.26-.1.54-.15.83s-.14.78-.22,1.19-.16.92-.25,1.41a0,0,0,0,0,0,0c-.06.34-.13.69-.19,1.05-.19,1.07-.39,2.21-.62,3.43a.29.29,0,0,0,0,.09c-.24,1.36-.5,2.82-.78,4.35-.07.4-.15.8-.23,1.2s-.16.84-.23,1.26c0,0,0,0,0,0,0,.26-.09.53-.15.8v0q-.57,3.19-1.23,6.76c-.15.8-.29,1.61-.44,2.43-.29,1.6-.59,3.24-.9,4.93-.08.39-.15.78-.21,1.18q-.68,3.67-1.39,7.64c-.06.27-.1.54-.15.81-.23,1.24-.46,2.49-.68,3.77a1.59,1.59,0,0,0-.06.3l-.33,1.82q-.66,3.66-1.36,7.49c-.12.63-.24,1.27-.35,1.92-.23,1.29-.47,2.59-.71,3.9-.3,1.63-.6,3.27-.9,4.94s-.6,3.34-.91,5c-.16.85-.31,1.7-.47,2.55-.18,1-.37,2-.55,3.07H189.14c10.66-44.29,19.65-80,19.65-80Z" style="fill:#263238"></path><path d="M276.94,331q-6.49,35-13.12,70h-1.2c4.59-23.39,9.32-46.74,14-70.1C276.69,330.68,277,330.77,276.94,331Z" style="fill:#263238"></path><path d="M290,321s0,.05,0,.14,0,.06,0,.1,0,.16-.05.27l0,.18a3.08,3.08,0,0,0-.07.39c0,.09,0,.18-.05.28s-.08.42-.12.66-.15.81-.23,1.29c-.14.71-.28,1.52-.45,2.44-.05.26-.1.54-.15.83s-.14.78-.22,1.19-.16.92-.25,1.41a0,0,0,0,0,0,0c-.06.34-.13.69-.19,1.05-.2,1.07-.4,2.21-.62,3.43a.29.29,0,0,0,0,.09c-.25,1.36-.51,2.8-.79,4.33-.08.4-.15.81-.22,1.22s-.16.84-.23,1.26c0,0,0,0,0,0-.06.26-.1.53-.15.8v0c-.39,2.12-.8,4.38-1.23,6.76-.15.8-.29,1.61-.44,2.43-.3,1.6-.6,3.24-.9,4.93-.08.39-.15.78-.21,1.18q-.69,3.69-1.39,7.64c-.06.27-.1.54-.15.81-.23,1.24-.46,2.49-.68,3.77a1.59,1.59,0,0,0-.06.3l-.33,1.82q-.68,3.66-1.36,7.49c-.12.63-.24,1.27-.35,1.92-.24,1.29-.47,2.59-.71,3.9-.3,1.63-.6,3.27-.9,4.94s-.61,3.34-.91,5c-.16.85-.31,1.7-.47,2.55-.18,1-.37,2-.56,3.07H232.18l-3.47-35.52-.12-1.26-.14-1.36h0l-.68-6.95h0l-.59-6L224.36,321Z" style="fill:#455a64"></path><path d="M339.1,401H245.89c-.16-8.58-.33-16.88-.54-24.71h0c0-.19,0-.38,0-.57,0,0-10.88-6.44-16.74-11.49a20.69,20.69,0,0,1-2.74-2.72s0,0,0,0h0c-3.75-4.78-7.51-23.16-15.29-40.45h114C343.1,357,341.8,385.88,339.1,401Z" style="fill:#263238"></path><path d="M223.16,360.24c5.54,2.27,10.53,5.76,15.45,9.13,5.12,3.49,9.81,7.53,14.73,11.28.19.15,0,.46-.2.32-5.19-3.31-10.62-6.22-15.75-9.63-5-3.31-10.16-6.53-14.48-10.7C222.74,360.48,222.93,360.14,223.16,360.24Z" style="fill:#455a64"></path><path d="M222.46,328.17c.66,3.55,1.52,7.07,2.29,10.6.71,3.31,1.24,6.68,2.12,10a16.92,16.92,0,0,0,4.64,8.34c1.3,1.21,2.73,2.28,4.11,3.38.75.6,1.55,1.17,2.33,1.78-.1-.47-.18-1-.27-1.43l-.69-4c-.5-3-1-6-1.44-9-.9-5.89-1.72-11.84-3-17.67a.19.19,0,0,1,.36-.1c1.47,5.78,3.09,11.5,4.37,17.33.63,2.85,2.86,17,3,18s.19,2.07.23,3.1a12.46,12.46,0,0,1,0,3.17.26.26,0,0,1-.48,0h0a12.37,12.37,0,0,1-.89-3.06c-.26-1-.49-2-.67-3.06-.07-.36-.12-.74-.17-1.12-1.39-.85-2.68-2-4-2.9s-2.83-2-4.15-3.12a15.85,15.85,0,0,1-5.07-7.92,57.82,57.82,0,0,1-1.66-10.14c-.45-4-.78-8-1.34-12C222.06,328,222.41,327.93,222.46,328.17Z" style="fill:#455a64"></path><path d="M317.31,352.89c-1.49-.77-7.25.6-17.75-1.19a12,12,0,0,1-5.66-2.3c-2.73-2.23-4.8-5.82-6.46-8.89a46.47,46.47,0,0,1-4.52-11c-.05-.24-.38-.12-.34.1.39,2.17.6,4.34,1.18,6.49a40,40,0,0,0,2.17,5.89c1.58,3.56,3.43,7.38,6.63,9.79,3.35,2.52,8,3,12.08,3.28,2.34.16,11.55-.09,12.79-1.4A.52.52,0,0,0,317.31,352.89Z" style="fill:#455a64"></path><path d="M230.56,192.76c-9.6,14.19-76.28,99.65-85.93,101.4-24.59,4.43-47.11-4-37.82-25.18,10.82-24.66,71-73.55,111.1-95.2C246.63,158.27,240,178.75,230.56,192.76Z" style="fill:#dd6a57"></path><path d="M198,239.88l-52.3-24s48.39-33.64,71-43.88c23.62-10.67,33.17-4.43,13,23.33C209.91,222.65,198,239.88,198,239.88Z" style="fill:#455a64"></path><path d="M173.55,197.26a3.53,3.53,0,0,0-.32.21l40.69,19.86.2-.28Zm-11.25,7.39a3.28,3.28,0,0,0-.31.2l45.15,22,.19-.27Zm-11.09,7.46-.31.21,49.51,24.16c.05-.09.12-.18.18-.27Z" style="fill:#fff"></path><path d="M198.65,229.26a41.34,41.34,0,0,0-3.7-1.87l-3.81-1.87c-2.57-1.26-5.16-2.48-7.77-3.68-5.19-2.41-10.38-4.84-15.61-7.15-1.44-.64-2.89-1.28-4.34-1.87s-3.11-1.16-4.64-1.79c-.09,0-.14.1-.05.15,1.27.63,2.49,1.37,3.75,2s2.61,1.29,3.92,1.92q3.89,1.83,7.8,3.62c5.13,2.33,10.26,4.68,15.44,6.9,1.45.63,2.9,1.23,4.35,1.85s3,1.4,4.59,1.9C198.66,229.42,198.73,229.3,198.65,229.26Z" style="fill:#263238"></path><path d="M229.78,195.3C209.91,222.65,198,239.88,198,239.88l-16.72-7.69,57.32-64C243,171.2,240.92,180,229.78,195.3Z" style="fill:#263238"></path><path d="M200.22,340.16h134.9s-20.61-128.72-70.34-172.74c-6.14-5.44-20-4.2-29,.29-3.23,1.61-14.82,17.82-18.13,33.16S199.85,339.7,200.22,340.16Z" style="fill:#455a64"></path><path d="M322.86,285.2,263,166.15a10.42,10.42,0,0,1,1.78,1.27C293,192.4,311.84,244.66,322.86,285.2Z" style="fill:#263238"></path><path d="M259,164.55H245.28c.64-.12,1.27-.23,1.91-.33h10.19C257.92,164.31,258.44,164.42,259,164.55Zm14.1,11.24H228.82c-.07.11-.14.22-.22.33h44.73ZM282,187.36H222.31l-.15.33h60.06Zm7.28,11.57H218.07c0,.11-.06.22-.09.33h71.5Zm6.24,11.57H216c0,.11,0,.22-.05.33h79.74C295.63,210.72,295.57,210.61,295.52,210.5ZM301,222.07H214.38c0,.11,0,.22,0,.33h86.79C301.09,222.29,301,222.18,301,222.07Zm4.89,11.58h-93c0,.11,0,.22,0,.32H306C306,233.86,305.92,233.75,305.88,233.65Zm4.41,11.57H211.36c0,.11,0,.21,0,.32H310.4C310.37,245.43,310.33,245.33,310.29,245.22Zm4,11.57H209.91c0,.11,0,.22,0,.33H314.42C314.39,257,314.36,256.9,314.32,256.79ZM318,268.36H208.48c0,.11,0,.22,0,.33H318.11C318.08,268.58,318,268.47,318,268.36Zm3.4,11.57H207.08c0,.11,0,.22,0,.33H321.5Zm3.14,11.57H205.69c0,.11,0,.22,0,.33h119C324.6,291.72,324.57,291.61,324.55,291.5Zm2.89,11.57H204.32c0,.11,0,.22,0,.33H327.52C327.49,303.29,327.47,303.18,327.44,303.07Zm2.66,11.57H203c0,.11,0,.22,0,.33H330.17C330.15,314.86,330.13,314.75,330.1,314.64Zm2.44,11.57H201.65c0,.11,0,.22,0,.33h131Zm2.18,11.57H200.4l0,.33h134.4C334.76,338,334.74,337.89,334.72,337.78Z" style="fill:#fff"></path><path d="M288.18,170.66c34,12.57,117.72,45.93,122,65.45,3.12,14.35-60.76,23.27-62.58,20.95-1.43-1.84-60.75-48.05-81.66-72.92C247.76,162.54,277.31,166.64,288.18,170.66Z" style="fill:#dd6a57"></path><path d="M313.87,229.48l44.79-31s-53.52-24.68-77.62-30.8c-25.12-6.38-33.43,1.42-8.72,25.23C296.66,216.33,313.87,229.48,313.87,229.48Z" style="fill:#455a64"></path><path d="M325.55,183.94l-34.72,26.12c.09.07.16.15.25.21l34.83-26.19Zm12.28,5.24-38.1,28.66.25.22,38.21-28.73C338.07,189.28,338,189.22,337.83,189.18ZM350,194.51l-41.14,31a2.65,2.65,0,0,0,.26.21l41.22-31A2.6,2.6,0,0,1,350,194.51Z" style="fill:#fff"></path><path d="M346.3,196.35c-1.2.66-2.33,1.49-3.47,2.26s-2.34,1.58-3.52,2.36c-2.38,1.59-4.74,3.23-7.09,4.87-4.68,3.29-9.39,6.56-14,9.93-1.27.92-2.54,1.85-3.79,2.81s-2.56,2.11-3.87,3.12c-.08.06,0,.17.1.12,1.18-.78,2.44-1.46,3.63-2.24s2.43-1.6,3.63-2.43c2.36-1.62,4.7-3.26,7-4.92,4.59-3.27,9.2-6.53,13.72-9.9l3.78-2.83c1.32-1,2.72-1.92,3.95-3C346.45,196.42,346.39,196.3,346.3,196.35Z" style="fill:#263238"></path><path d="M309.73,225.93c-1.26-1.06-2.43-2.22-3.65-3.32s-2.48-2.19-3.71-3.29c-2.41-2.14-4.85-4.25-7.27-6.39-4.89-4.34-9.78-8.69-14.62-13.08-2.75-2.5-5.45-5.07-8.29-7.47a0,0,0,1,0-.06.06c2.23,2.41,4.63,4.68,7,6.94-.5-.31-1-.63-1.48-1s-1.06-.76-1.57-1.17-1-.87-1.58-1.25c-.09-.06-.17.06-.11.13a13.33,13.33,0,0,0,3.14,2.71c.58.39,1.19.74,1.8,1.07l.67.31q3.18,3,6.4,6,7.2,6.64,14.69,13c1.38,1.16,2.77,2.3,4.17,3.44s2.94,2.24,4.37,3.41C309.7,226.11,309.8,226,309.73,225.93Z" style="fill:#263238"></path><path d="M240.07,192.42c7.93,1,20-12.19,24.22-22.32.29-.7-1.44-7.52-3.16-15.91-1-5.09-2-10.79-2.58-16.05-.11-1.08-32.18,11.48-32.18,11.48s4.4,10.69,5.31,19.87a12.32,12.32,0,0,1,0,2.19c0,.1,0,.22,0,.36C231.43,176.21,232.41,191.43,240.07,192.42Z" style="fill:#dd6a57"></path><path d="M235.08,171.86a20.48,20.48,0,0,1-3.41.18c0-.14,0-.26,0-.37a10.61,10.61,0,0,0,0-2.18c-.9-9.17-5.29-19.87-5.29-19.87s26-10.2,31.26-11.43C257.26,144.38,254.5,169.39,235.08,171.86Z" style="fill:#263238"></path><path d="M255,97.33c6.65,10.35,9.88,44.77,3.88,54.33-8.7,13.87-27.54,20.27-40.48,8.76-12.55-11.15-16-56.08-8.84-65.24C220,81.68,245.16,82,255,97.33Z" style="fill:#dd6a57"></path><path d="M233.63,127.38c0-.09.2.1.2.19.16,2.33.73,5,2.9,5.52.07,0,.07.14,0,.13C234.13,133.12,233.41,129.61,233.63,127.38Z" style="fill:#263238"></path><path d="M235.46,124.76c3.7-.65,4.73,6.79,1.31,7.4S232.36,125.31,235.46,124.76Z" style="fill:#263238"></path><path d="M219.45,129c0-.08-.17.14-.15.23.39,2.3.45,5-1.53,6.05-.06,0,0,.15,0,.12C220.31,134.72,220.19,131.15,219.45,129Z" style="fill:#263238"></path><path d="M217.05,126.91c-3.74.23-3,7.71.47,7.5S220.2,126.72,217.05,126.91Z" style="fill:#263238"></path><path d="M237.93,121a30.49,30.49,0,0,1-3-.62,5.05,5.05,0,0,1-3-1.21,1.59,1.59,0,0,1,0-1.94c1-1.15,2.47-1.19,3.88-1a5.8,5.8,0,0,1,3.65,2A1.7,1.7,0,0,1,237.93,121Z" style="fill:#263238"></path><path d="M213.66,123.56a28.06,28.06,0,0,0,2.85-1.18,5,5,0,0,0,2.68-1.75,1.59,1.59,0,0,0-.36-1.91c-1.18-.94-2.65-.7-4-.19a5.78,5.78,0,0,0-3.2,2.67A1.7,1.7,0,0,0,213.66,123.56Z" style="fill:#263238"></path><path d="M238.45,147.76c-.47.62-.92,1.44-1.75,1.62a6.19,6.19,0,0,1-2.56-.23.08.08,0,0,0-.08.13,3.15,3.15,0,0,0,3.1.85,2.49,2.49,0,0,0,1.53-2.3C238.71,147.7,238.52,147.67,238.45,147.76Z" style="fill:#263238"></path><path d="M235.07,141.19a7.92,7.92,0,0,1-4.75,4.22,9.84,9.84,0,0,1-2.81.52,3.41,3.41,0,0,1-.55,0h-.51a.59.59,0,0,1-.54-.45v0a1,1,0,0,1,0-.24v0l0-.2c-.29-1.77-.49-4.49-.49-4.49-.61.41-3.71,2.36-3.78,1.42-.61-7.74-1.28-16.35-.25-24.18a.22.22,0,0,1,.43,0c.87,7.42.44,14.94,1.2,22.4a14.11,14.11,0,0,1,3.55-1.63c.27,0,.3,5.27.49,6.05a.44.44,0,0,0,0,.08c3,0,5.16-1.24,7.78-3.64C235,140.86,235.19,141,235.07,141.19Z" style="fill:#263238"></path><path d="M228.43,144.89a9.45,9.45,0,0,0,4.13,2.37,4.22,4.22,0,0,0,2.57-.19c1.78-.74,1.59-2.44,1.05-3.84a10.3,10.3,0,0,0-1.13-2.1A12.21,12.21,0,0,1,228.43,144.89Z" style="fill:#263238"></path><path d="M232.56,147.26a4.22,4.22,0,0,0,2.57-.19c1.78-.74,1.59-2.44,1.05-3.84C234.23,143.71,232.47,145.32,232.56,147.26Z" style="fill:#ff98b9"></path><path d="M260.06,123.52c-6.06,1.55-10.15-13.16-10.15-13.16s-9.59,1.29-18-9.73c0,0-9.31,11.07-19.67,12.44C196,115.2,190,95.15,194.44,89.25c6.29-8.37,23.47-4.64,23.47-4.64s20-13.15,31.25-.42c0,0,9.92-2.71,14.06,7.87S264.58,122.36,260.06,123.52Z" style="fill:#263238"></path><path d="M252.59,111.39a21.21,21.21,0,0,1-13.47-2.58c-4.17-2.52-7.65-7.32-7.8-12.3,0-.27-.45-.23-.42,0,.54,5.42,2.51,10.53,7.11,13.77a14.82,14.82,0,0,0,14.69,1.52A.24.24,0,0,0,252.59,111.39Z" style="fill:#263238"></path><path d="M262,85.48c-4.25-2.86-9.05-2-13.56-.35-.25.09-.09.51.15.39,4.32-2,9.8-.41,13.32,2.52s4.38,7.56,4.73,11.83A33.46,33.46,0,0,1,260,122.93c-.08.1.08.23.16.13a33.46,33.46,0,0,0,7.6-25.36C267.19,93.27,265.88,88.12,262,85.48Z" style="fill:#263238"></path><path d="M218.74,85.14a15.66,15.66,0,0,0-10.49-3.75,18.79,18.79,0,0,0-12.31,5.38,10.61,10.61,0,0,0-2.54,10.32c1.06,4.24,4.26,7.52,7.65,10a.09.09,0,1,0,.11-.14c-2.88-2.47-5.46-5.49-6.43-9.28a9.76,9.76,0,0,1,2.83-10c5.39-4.82,14.75-7.31,20.92-2.24A.21.21,0,0,0,218.74,85.14Z" style="fill:#263238"></path><path d="M255.73,127.12s4.67-12.58,10.19-11.18,3.94,18.28-1.18,21.86a6,6,0,0,1-8.53-1.09Z" style="fill:#dd6a57"></path><path d="M265.35,120.77a.08.08,0,0,1,.07.14c-3.56,2.65-4.69,6.88-5.16,11.08.8-1.78,2.2-3,4.53-2.11a.13.13,0,0,1-.05.24,3.67,3.67,0,0,0-3.58,2.25,17.73,17.73,0,0,0-1.05,3.65c-.09.4-.78.38-.76-.07a.31.31,0,0,0,0-.1C257.94,130.81,260,122.69,265.35,120.77Z" style="fill:#263238"></path><path d="M394.37,319.31c-9.51,33.18-36.72,60.14-42.29,63.67-4.74,3-7.21,4.54-7.21,4.54-8.4,5.6-14.18,4.08-14.18,4.08s-7.81,9.33-14.23,5.54c-7.21-4.21,5.16-16.48,7.84-27.39,6.13-25,7.86-62.23,8.91-69.62Z" style="fill:#dd6a57"></path><path d="M349.13,348.07c-1.95,7.32-3.68,14.56-6.61,21.58-3.22,7.7-7.6,14.57-11.89,21.67a.2.2,0,0,0,.32.23c9.81-11.63,16.95-28.27,18.82-43.33C349.82,347.85,349.23,347.71,349.13,348.07Z" style="fill:#263238"></path><path d="M364.75,349.58c-2.29,7-6.4,19.32-20.08,37.8-.05.06,0,.15.1.09a78.6,78.6,0,0,0,20.68-37.63C365.56,349.39,364.91,349.12,364.75,349.58Z" style="fill:#263238"></path><path d="M329.78,339.17c-.49-3.57-2.37-3.34-5.61,2.19s-11.36,30.16-19.71,26.6,3.61-38.15,9.71-46.94,19-20.89,19-20.89C332.23,307.33,331.52,325,329.78,339.17Z" style="fill:#dd6a57"></path><path d="M410.16,236.11c6.67,20.95-10.93,67.67-15.79,83.2-2.12,6.77-63.94-11.31-61.63-18.54,4.74-14.79,17-41.71,14.84-43.71C345.87,255.47,404.09,217.08,410.16,236.11Z" style="fill:#dd6a57"></path><path d="M364.52,244.46c-.82.32-1.64.57-2.44,1s-1.65.77-2.44,1.2a32,32,0,0,0-4.36,2.94,39.29,39.29,0,0,0-3.92,3.48c-.64.64-1.26,1.3-1.85,2a11.51,11.51,0,0,0-1.56,2.11.23.23,0,0,0,0,.24s0,.07.06.08c.26.11.41-.11.6-.27l.94-.87c.66-.61,1.3-1.26,2-1.88,1.33-1.23,2.73-2.41,4.17-3.52s2.92-2.16,4.42-3.17c.75-.51,1.49-1,2.25-1.53s1.51-1,2.29-1.45C364.83,244.68,364.71,244.38,364.52,244.46Z" style="fill:#263238"></path><path d="M141,234.17c-10,7-40.45,34.27-34.31,49.17s29.58,14.54,62.36,8.61Z" style="fill:#dd6a57"></path><path d="M140.12,234.82c13.43-11.19,32.94-24.78,40.93-24.35,8.38.45,37.77,3.23,44.39,6.07s25.66,21.37,27.61,27.51c1.56,4.92-8.1,9.56-20.36,1.67-11.47-7.38-13.85-9.71-17.59-11s-18.48,1.54-20.26,7.1c-1.05,3.28,3.2,12.13,9.11,14s12-1.64,20.33-1.19S240.61,263.3,239,266s-5.34,1.25-16.71,5.05c-7.31,2.45-16,6.85-28.37,14.13-12.67,7.45-31,7.32-31,7.32Z" style="fill:#dd6a57"></path><path d="M233.2,247.12c20,6.26,10.77,35.91-9.28,29.64S213.16,240.84,233.2,247.12Z" style="fill:#FFA52E"></path><path d="M233.2,247.12c20,6.26,10.77,35.91-9.28,29.64S213.16,240.84,233.2,247.12Z" style="opacity:0.1"></path><path d="M231.32,246.53c19.07,6,9.83,35.62-9.28,29.64S212.22,240.55,231.32,246.53Z" style="fill:#FFA52E"></path><path d="M214.21,260.5c-.57,5.41,1.91,11.05,8.62,13.15,15.86,5,23.53-19.65,7.7-24.6l-.31-.09c14.8,5,7.44,28.23-7.68,23.5A11.35,11.35,0,0,1,214.21,260.5Z" style="opacity:0.1"></path><g style="opacity:0.1"><path d="M229.56,252.12a.53.53,0,0,1,.3.67l-.31.81a7.12,7.12,0,0,1,3,2.8.63.63,0,0,1,.1.58.56.56,0,0,1-.72.3.55.55,0,0,1-.31-.28,6.19,6.19,0,0,0-2.51-2.49l-2.2,5.65c2.82,1.83,3.66,3.48,2.89,5.45-.82,2.14-3.21,3-5.76,2.06l-.61,1.57a.52.52,0,1,1-1-.38l.61-1.59a8.16,8.16,0,0,1-3.77-3.71.55.55,0,0,1-.06-.51.57.57,0,0,1,.7-.31.58.58,0,0,1,.31.28,7,7,0,0,0,3.22,3.36l2.23-5.74c-2.77-1.84-3.59-3.44-2.81-5.45s3.17-2.9,5.65-2l.3-.76A.53.53,0,0,1,229.56,252.12Zm-3.41,7.49,2.13-5.5c-2-.72-3.71-.05-4.28,1.4S223.79,258,226.15,259.61Zm.41,1.57-2.16,5.57c2,.74,3.79.08,4.39-1.45S229,262.78,226.56,261.18Z"></path></g><path d="M181.05,210.47c9.88-2.68,30.79-4.72,44.71.72,9.41,3.68,22.76,37.21,17.88,41.16s-9,.23-14.4-6c-2-2.27-9.84-17.12-14.06-16.48-6.08.91-20.69,9.65-20.69,9.65Z" style="fill:#dd6a57"></path><path d="M244.68,250c1.5-7.61-2.63-16.16-7.22-24.14-.08-.12-.27,0-.2.1,1.17,2,7.3,16.52,7.27,24.05C244.53,250.11,244.66,250.09,244.68,250Z" style="fill:#263238"></path><path d="M181.05,210.47c9.88-2.68,30.79-4.72,44.71.72,9.41,3.68,14.77,35.91,9.89,39.86s-11.09-1.05-15.54-9.24c-1.44-2.65-4-14-8.19-13.4-6.08.92-21,3.31-21,3.31Z" style="fill:#dd6a57"></path><path d="M199.85,230c1.57-.41,2.12-.56,3.7-.95s3.15-.74,4.75-1a12.52,12.52,0,0,1,4.22-.31,6.25,6.25,0,0,1,3.39,2.06c2.07,2.26,2.8,5.55,3.71,8.39,1,3.18,3.65,9.2,7.37,11.94a9.07,9.07,0,0,0,3.34,1.71,5.62,5.62,0,0,0,2.77.18c3.75-1.16,4.5-5.68,4.46-9.41-.08-7-2.3-14-4.84-20.39-.62-1.57-1.28-3.13-1.94-4.69a13.67,13.67,0,0,0-3-4.92c-2.35-2.17-8.39-3.29-10.26-3.66-.14,0-.07-.24.07-.21,2.27.41,8.54.74,12.18,4.4,1.32,1.34,2,3.24,2.74,4.94s1.56,3.59,2.26,5.42a72.51,72.51,0,0,1,3.35,10.89c.75,3.52,1.41,7.43.82,11-.51,3.11-2.66,6.24-5.77,7.16-2.61.79-5.21-.82-6.35-1.61a15.35,15.35,0,0,1-3-2.77A63.45,63.45,0,0,1,219,240.3c-1.32-2.7-1.91-5.78-3.45-8.36a5.39,5.39,0,0,0-3.26-2.6,14.21,14.21,0,0,0-4.22,0,44,44,0,0,0-8,1.06C199.38,230.57,199.19,230.14,199.85,230Z" style="fill:#263238"></path><path d="M173.44,212.4c2.64-1.56,17.7-11,23.62-12.66s29.06-4.87,33.69.4c5.82,6.63-11.56,12.16-19.34,13.87s-14.64,10.42-14.64,10.42Z" style="fill:#dd6a57"></path><path d="M223.41,210.35a79,79,0,0,0-7.74,1.82,50.51,50.51,0,0,0-7.24,2.13,22.84,22.84,0,0,0-6.12,4.18c-.91.83-1.75,1.7-2.58,2.6s-1.73,2.06-2.65,3c-.1.1,0,.27.15.16a57.61,57.61,0,0,1,5.6-4.73,30.86,30.86,0,0,1,6.49-3.87c4.61-2,9.58-3,14.2-5C223.71,210.59,223.59,210.32,223.41,210.35Z" style="fill:#263238"></path><path d="M234.46,251.46c1.78,1,3.79,2,5.9,1.91a4.55,4.55,0,0,0,2.51-.84,4.49,4.49,0,0,0,1-1,2.16,2.16,0,0,0,.52-1.39c0-.14.19-.13.16,0a6.11,6.11,0,0,0-.08.86,3.49,3.49,0,0,1-.2.7,3.63,3.63,0,0,1-.77,1.2,4.67,4.67,0,0,1-2.77,1.37c-2.49.34-4.67-1-6.38-2.64A.09.09,0,0,1,234.46,251.46Z" style="fill:#263238"></path><path d="M194.36,227.53a89.33,89.33,0,0,0-5.9,9.8A39.37,39.37,0,0,0,184.94,248c-.63,4-.3,8-.21,12.08a34.74,34.74,0,0,1-.23,5.77,23.5,23.5,0,0,1-1.26,4.88,23,23,0,0,1-6.69,9.12c-.11.1,0,.28.16.2a23.22,23.22,0,0,0,9.9-17c.36-4.14-.34-8.29,0-12.44a44.3,44.3,0,0,1,2.48-11.06,69.85,69.85,0,0,1,5.41-12A.07.07,0,1,0,194.36,227.53Z" style="fill:#263238"></path><path d="M157.83,221.28a180.47,180.47,0,0,0-22.13,15.91,120.72,120.72,0,0,0-19,19.46,81.74,81.74,0,0,0-8.06,13c-.05.09.08.16.14.07a102.39,102.39,0,0,1,7.71-11.15,123.29,123.29,0,0,1,8.91-10.07,182.23,182.23,0,0,1,20.69-17.75c4.12-3.1,7.9-6.06,12-9.17C158.47,221.28,158.27,221,157.83,221.28Z" style="fill:#263238"></path><path d="M273.37,412.47c-.07.41-.15.82-.23,1.24.07-.41.15-.83.22-1.24Z" style="fill:#ebebeb"></path></g><g id="freepik--Plant--inject-836"><path d="M114.74,301.92c-13.51,18.29-27.59,39.52-31,62.46,0,.34.52.46.6.11a135.23,135.23,0,0,1,6-18.36c8.88-2.45,17.59-4.45,22.26-13.27,4.75-9.06,4.15-20.87,3.25-30.74C115.73,301.59,115,301.56,114.74,301.92Z" style="fill:#FFA52E"></path><path d="M90.42,346c6.07-13.61,13.86-27.28,23.76-38.48.07-.08.17,0,.11.11-6.48,8-11.41,16.66-16.22,25.49,4.47-4.54,9.37-8.6,13.61-13.42.08-.09.22,0,.14.14-4.21,5-8.8,10.53-14.28,14.27q-2.22,4.06-4.46,8.15c.37-.21.75-.39,1.13-.58.06,0,.12.07.06.1-.42.21-.84.44-1.27.62-.71,1.29-1.41,2.57-2.15,3.86C90.69,346.49,90.29,346.24,90.42,346Z" style="fill:#263238"></path><path d="M94.94,341.2a78.18,78.18,0,0,0,10.36-6.92c.09-.07.22.05.13.13a55.06,55.06,0,0,1-10.34,7C94.92,341.54,94.77,341.3,94.94,341.2Z" style="fill:#263238"></path><path d="M82.16,361c0,.28.5.27.49,0,.07-7.56,0-15.15.12-22.74,1.94-3.9,6.09-6.06,9-9.19a40.63,40.63,0,0,0,5.39-7.51,54,54,0,0,0,6.25-20.84c.8-8.08-2.27-34.74-5.68-33.82-1.76.48-7.48,13.69-9,18.06a125.41,125.41,0,0,0-5.37,22.14C80.58,324.82,80.81,343.08,82.16,361Z" style="fill:#FFA52E"></path><path d="M82.1,328.38l0,0c.41-9.56,2.57-19.21,4.58-28.48,2.17-10,4.71-19.39,9.85-28.3.1-.17.34,0,.26.15a105.11,105.11,0,0,0-7.92,21.72c.35-.54.77-1.05,1.12-1.56.14-.2.47,0,.34.2a14,14,0,0,1-1.61,2.26.09.09,0,0,1-.07,0c-1.77,7.14-3,14.44-4.12,21.73l.24-.28a.07.07,0,0,1,.11.08c-.13.24-.29.48-.43.72-.55,3.7-1.06,7.39-1.57,11.05C89.5,322,95.13,315.41,98.3,307.24c0,0,.07,0,.06,0-3.11,8.47-8,16-15.54,21.15l-.42,2.95c0,.2-.35.15-.35-.05,0-.87,0-1.74.08-2.61C82,328.61,82,328.47,82.1,328.38Z" style="fill:#263238"></path><path d="M85.2,314.53c5-7.51,9.73-14.8,13.42-23.1,0-.09.2,0,.16.07-3.1,8.25-7.45,16.6-13.32,23.22C85.34,314.86,85.1,314.68,85.2,314.53Z" style="fill:#263238"></path><path d="M91.89,289.58c2.08-3.69,4.28-7.28,6.24-11,.06-.1.2,0,.16.09a57.2,57.2,0,0,1-6.08,11.13C92.07,290,91.77,289.79,91.89,289.58Z" style="fill:#263238"></path><path d="M91.08,291.18a0,0,0,1,1,0,.06S91,291.18,91.08,291.18Z" style="fill:#263238"></path><path d="M77,339.12A75.8,75.8,0,0,1,75.28,354c.08.54.15,1.08.23,1.63A70.83,70.83,0,0,0,78.18,339a.51.51,0,0,0,0-.51v0A110.06,110.06,0,0,0,76.53,316c-2.34-13.89-7.45-27.21-17.13-37.62a.69.69,0,0,0-1.07.22c-3.91,9.94-2.55,21.79.78,31.7a58,58,0,0,0,7.68,15.06C70.11,330.07,74.35,334,77,339.12Z" style="fill:#FFA52E"></path><path d="M60.54,283.07C69.72,298,76.1,315.62,76.88,333.21c0,.32-.51.4-.55.08-.22-1.58-.46-3.15-.71-4.71h0c-3.79-3.64-7.69-7.48-10.41-12,0-.08.07-.17.13-.1a128.54,128.54,0,0,0,10.11,11q-1-5.84-2.35-11.49c-.25-.28-.49-.57-.73-.86s.11-.45.27-.27.15.17.22.25a133.27,133.27,0,0,0-4.79-15.24c-2.34-2.78-4.95-5.19-6.65-8.55,0-.08.07-.14.12-.07,1.37,1.92,2.69,3.85,4.24,5.63.62.71,1.3,1.38,1.94,2.07a118.64,118.64,0,0,0-7.51-15.66A.2.2,0,0,1,60.54,283.07Z" style="fill:#263238"></path><path d="M62.4,301.44c3,4,6.34,7.8,9.1,11.93.08.12-.09.24-.19.15-3.54-3.33-6.54-7.87-9.11-12C62.12,301.43,62.31,301.33,62.4,301.44Z" style="fill:#263238"></path><path d="M71.92,314.29l.12.13c.09.09-.05.22-.13.14l-.13-.13C71.69,314.34,71.83,314.21,71.92,314.29Z" style="fill:#263238"></path><path d="M46.17,311.7c.73,7.66,4.76,16.82,9.68,22.72a24.18,24.18,0,0,0,7.85,6.13c3.4,1.68,7,3.62,10.48,5a68.72,68.72,0,0,1,3.71,13.18c.12-.38.23-.78.34-1.17-2.26-19.4-14.81-36-30.87-46.62A.77.77,0,0,0,46.17,311.7Z" style="fill:#FFA52E"></path><path d="M51.71,317.43c-.11-.1,0-.3.17-.21a65.74,65.74,0,0,1,20.46,25.22c.11.26-.25.49-.4.23-.75-1.31-1.51-2.58-2.28-3.83h0c-3.67-.69-7.14-3.27-9.86-5.72-.07-.06,0-.17.11-.1a22.58,22.58,0,0,0,4.63,3.25c1.5.76,3.11,1.24,4.66,1.85-1.36-2.16-2.77-4.23-4.25-6.23a42.77,42.77,0,0,1-11-6.19c-.11-.08,0-.25.1-.18A110.77,110.77,0,0,0,64.27,331,92.64,92.64,0,0,0,57,322.57c-1.25-.66-2.51-1.32-3.72-2-.1-.05,0-.22.08-.19a13.73,13.73,0,0,1,2.85,1.41C54.8,320.29,53.31,318.84,51.71,317.43Z" style="fill:#263238"></path><path d="M52.05,324.13a4.05,4.05,0,0,1,.62.44c.06.05,0,.13-.08.1a4.53,4.53,0,0,1-.64-.36C51.84,324.24,51.94,324.06,52.05,324.13Z" style="fill:#263238"></path><polygon points="103.29 400.74 59.29 400.74 62.84 360.67 63.62 351.83 98.96 351.83 99.74 360.67 103.29 400.74" style="fill:#455a64"></polygon><polygon points="99.74 360.67 62.84 360.67 63.62 351.83 98.96 351.83 99.74 360.67" style="fill:#263238"></polygon><rect x="61.52" y="345.66" width="39.55" height="8.75" style="fill:#455a64"></rect></g><g id="freepik--piggy-bank--inject-836"><path d="M167.48,324.16c.33-1.7.53-3.22.7-4.84s.25-3.23.24-4.88a27.78,27.78,0,0,0-.44-5.06,12.27,12.27,0,0,0-2.26-5.34A7.11,7.11,0,0,0,163,302a6.79,6.79,0,0,0-1.65-.46,7.83,7.83,0,0,0-1.6-.07,9.62,9.62,0,0,0-5.39,2.17,14.83,14.83,0,0,0-3.45,3.95,13.47,13.47,0,0,0-1.89,4.88,5.85,5.85,0,0,0,.24,3.1,3.39,3.39,0,0,0,1.25,1.58,3.64,3.64,0,0,0,1.81.6,3.44,3.44,0,0,0,1.9-.46,4,4,0,0,0,1.23-1.22,7.09,7.09,0,0,0,1-2.59,14.36,14.36,0,0,0,0-4.94,11.67,11.67,0,0,0-1.75-4.59,5.51,5.51,0,0,0-1.9-1.78,4,4,0,0,0-2.6-.43,7.86,7.86,0,0,0-4.13,2.42,26.16,26.16,0,0,0-4.88,7.77,25.94,25.94,0,0,1,5.38-7.23,6.79,6.79,0,0,1,3.76-1.85,3.21,3.21,0,0,1,3,1.93,10.05,10.05,0,0,1,1.09,4,12.35,12.35,0,0,1-.35,4.14,4.64,4.64,0,0,1-.76,1.61,1.1,1.1,0,0,1-.42.33.41.41,0,0,1-.29,0c-.14,0-.3-.11-.32-.16a.81.81,0,0,1-.09-.23,3.26,3.26,0,0,1,.1-1.4,11.46,11.46,0,0,1,4.54-6.08,5.26,5.26,0,0,1,3-1,3.71,3.71,0,0,1,.68.1,2.26,2.26,0,0,1,.52.21,2.17,2.17,0,0,1,.76.75,7.45,7.45,0,0,1,.91,3.13,22.7,22.7,0,0,1,0,4,41.43,41.43,0,0,1-.57,4.22c-.26,1.39-.59,2.86-1,4.13Z" style="fill:#FFA52E"></path><path d="M167.48,324.16c.33-1.7.53-3.22.7-4.84s.25-3.23.24-4.88a27.78,27.78,0,0,0-.44-5.06,12.27,12.27,0,0,0-2.26-5.34A7.11,7.11,0,0,0,163,302a6.79,6.79,0,0,0-1.65-.46,7.83,7.83,0,0,0-1.6-.07,9.62,9.62,0,0,0-5.39,2.17,14.83,14.83,0,0,0-3.45,3.95,13.47,13.47,0,0,0-1.89,4.88,5.85,5.85,0,0,0,.24,3.1,3.39,3.39,0,0,0,1.25,1.58,3.64,3.64,0,0,0,1.81.6,3.44,3.44,0,0,0,1.9-.46,4,4,0,0,0,1.23-1.22,7.09,7.09,0,0,0,1-2.59,14.36,14.36,0,0,0,0-4.94,11.67,11.67,0,0,0-1.75-4.59,5.51,5.51,0,0,0-1.9-1.78,4,4,0,0,0-2.6-.43,7.86,7.86,0,0,0-4.13,2.42,26.16,26.16,0,0,0-4.88,7.77,25.94,25.94,0,0,1,5.38-7.23,6.79,6.79,0,0,1,3.76-1.85,3.21,3.21,0,0,1,3,1.93,10.05,10.05,0,0,1,1.09,4,12.35,12.35,0,0,1-.35,4.14,4.64,4.64,0,0,1-.76,1.61,1.1,1.1,0,0,1-.42.33.41.41,0,0,1-.29,0c-.14,0-.3-.11-.32-.16a.81.81,0,0,1-.09-.23,3.26,3.26,0,0,1,.1-1.4,11.46,11.46,0,0,1,4.54-6.08,5.26,5.26,0,0,1,3-1,3.71,3.71,0,0,1,.68.1,2.26,2.26,0,0,1,.52.21,2.17,2.17,0,0,1,.76.75,7.45,7.45,0,0,1,.91,3.13,22.7,22.7,0,0,1,0,4,41.43,41.43,0,0,1-.57,4.22c-.26,1.39-.59,2.86-1,4.13Z" style="opacity:0.1"></path><path d="M172.55,398.46c4.41,6.23,3.51,25.26,6.18,27.93s30,2.38,31.88.81,1-8.29,3-9.39C214.46,417.37,172.55,398.46,172.55,398.46Z" style="fill:#FFA52E"></path><path d="M172.55,398.46c4.41,6.23,3.51,25.26,6.18,27.93s30,2.38,31.88.81,1-8.29,3-9.39C214.46,417.37,172.55,398.46,172.55,398.46Z" style="opacity:0.1"></path><path d="M289.39,398.77c-5.51,8-2.53,25-5.2,27.62s-30,2.38-31.88.81-1-8.65-2.09-10C249.65,416.49,289.39,398.77,289.39,398.77Z" style="fill:#FFA52E"></path><path d="M289.39,398.77c-5.51,8-2.53,25-5.2,27.62s-30,2.38-31.88.81-1-8.65-2.09-10C249.65,416.49,289.39,398.77,289.39,398.77Z" style="opacity:0.1"></path><path d="M213.65,417.81a3,3,0,0,0-1.18,2A130.18,130.18,0,0,1,175.83,410c-.64-4.64-1.55-9.06-3.28-11.51C172.55,398.47,214.46,417.38,213.65,417.81Z" style="opacity:0.30000000000000004"></path><path d="M289.39,398.77c-2.05,3-2.93,7.19-3.36,11.46a124.36,124.36,0,0,1-35.2,9.73,6.15,6.15,0,0,0-.6-2.76C249.64,416.49,289.39,398.77,289.39,398.77Z" style="opacity:0.30000000000000004"></path><path d="M229.14,283.44c-55,0-76.12,43.09-76.12,68.31,0,24.88,16,67.16,76.12,67.16s80.05-35.82,80.05-67.73S284.75,283.44,229.14,283.44Z" style="fill:#FFA52E"></path><path d="M229.14,283.44c-55,0-76.12,43.09-76.12,68.31,0,24.88,16,67.16,76.12,67.16s80.05-35.82,80.05-67.73S284.75,283.44,229.14,283.44Z" style="opacity:0.1"></path><path d="M244.67,286.56s25.14-19.28,52.37-17c9.37.79-6.19,21.11-6.48,37Z" style="fill:#FFA52E"></path><path d="M244.67,286.56s25.14-19.28,52.37-17c9.37.79-6.19,21.11-6.48,37Z" style="opacity:0.1"></path><path d="M280.06,298.78c-.16,1,8.52,4.72,9.42,4.15s1.8-13.07,8.88-26.39C299.4,274.58,281.74,288,280.06,298.78Z" style="opacity:0.30000000000000004"></path><path d="M285.52,348.3a4.47,4.47,0,0,0,3.61-3.15,6.66,6.66,0,0,1-2.93,5c-.12.08-.06.31.1.26,4.81-1.81,4.29-8.6,2.6-12.93-.09-.24-.18-.48-.29-.71-1.08-2.51-3-4.33-5.32-4C275.52,333.89,278.32,349.34,285.52,348.3Z" style="opacity:0.30000000000000004"></path><path d="M304,326.3c1.2,3.61,12.12.68,14.87,3,4.33,3.6,3.13,48.19-.83,51.78-2.22,2-14.6-.11-18.08,2.34S304,326.3,304,326.3Z" style="fill:#FFA52E"></path><path d="M304,326.3c1.2,3.61,12.12.68,14.87,3,4.33,3.6,3.13,48.19-.83,51.78-2.22,2-14.6-.11-18.08,2.34S304,326.3,304,326.3Z" style="opacity:0.1"></path><path d="M319.49,354.07c0,10.86-.91,19.67-2,19.67s-2-8.81-2-19.67.9-19.67,2-19.67S319.49,343.21,319.49,354.07Z" style="opacity:0.30000000000000004"></path><path d="M207.8,297.73c.18-.06,18.74-6.09,36-1.37l1.72-6.29c-19.22-5.26-39,1.2-39.79,1.47l2.06,6.19-1-3.09Z" style="opacity:0.30000000000000004"></path><path d="M182,392.41c-24.79-28.49-9.62-61.57-8.93-63a4.08,4.08,0,0,0-7.32-3.59,69,69,0,0,0-5.85,23.75c-1.19,18.12,4.8,34.76,19,46.09C183.19,399.08,185.22,396.08,182,392.41Z" style="fill:#fff"></path><path d="M171.24,316.77a4.44,4.44,0,1,0,4.44-4.43A4.44,4.44,0,0,0,171.24,316.77Z" style="fill:#fff"></path></g><g id="freepik--Coins--inject-836"><rect x="360.14" y="421.58" width="31.35" height="6.93" style="fill:#FFA52E"></rect><g style="opacity:0.1"><path d="M361.43,422.21a8,8,0,0,1,0,5.55,8,8,0,0,1,0-5.55Z"></path><path d="M363.76,422.21a8,8,0,0,1,0,5.55,8,8,0,0,1,0-5.55Z"></path><path d="M364.9,422.21a8,8,0,0,1,0,5.55,8,8,0,0,1,0-5.55Z"></path><path d="M371.17,422.21a8.1,8.1,0,0,1,0,5.55,8,8,0,0,1,0-5.55Z"></path><path d="M372.86,422.21a7.37,7.37,0,0,1,.5,2.78,7.16,7.16,0,0,1-.5,2.77,7,7,0,0,1-.5-2.77A7.37,7.37,0,0,1,372.86,422.21Z"></path><path d="M379.86,422.21a8,8,0,0,1,0,5.55,8,8,0,0,1,0-5.55Z"></path><path d="M381.48,422.21a8,8,0,0,1,0,5.55,8,8,0,0,1,0-5.55Z"></path><path d="M384.45,422.21a8,8,0,0,1,0,5.55,8.1,8.1,0,0,1,0-5.55Z"></path><path d="M378.51,422.21A7.18,7.18,0,0,1,379,425a7,7,0,0,1-.5,2.77A7.16,7.16,0,0,1,378,425,7.37,7.37,0,0,1,378.51,422.21Z"></path><path d="M367,422.21a8,8,0,0,1,0,5.55,8,8,0,0,1,0-5.55Z"></path><path d="M375.09,422.21a8,8,0,0,1,0,5.55,7,7,0,0,1-.5-2.77A7.18,7.18,0,0,1,375.09,422.21Z"></path><path d="M376.26,422.21a8,8,0,0,1,0,5.55,8,8,0,0,1,0-5.55Z"></path><path d="M388.33,422.21a7.37,7.37,0,0,1,.5,2.78,7.16,7.16,0,0,1-.5,2.77,7,7,0,0,1-.5-2.77A7.18,7.18,0,0,1,388.33,422.21Z"></path><path d="M390.08,422.21a7.37,7.37,0,0,1,.5,2.78,7,7,0,0,1-.5,2.77,7.16,7.16,0,0,1-.5-2.77A7.37,7.37,0,0,1,390.08,422.21Z"></path><path d="M385.83,422.21a8,8,0,0,1,0,5.55,8,8,0,0,1,0-5.55Z"></path><path d="M369.81,422.21a7.18,7.18,0,0,1,.5,2.78,7,7,0,0,1-.5,2.77,8,8,0,0,1,0-5.55Z"></path></g><polygon points="391.49 421.58 391.49 423.05 360.13 424.04 360.13 421.58 391.49 421.58" style="opacity:0.1"></polygon><rect x="357.52" y="414.65" width="31.35" height="6.93" style="fill:#FFA52E"></rect><g style="opacity:0.1"><path d="M387.46,420.83a7.92,7.92,0,0,1,0-5.54,7.92,7.92,0,0,1,0,5.54Z"></path><path d="M385.13,420.83a7.13,7.13,0,0,1-.5-2.77,6.92,6.92,0,0,1,.5-2.77,7.1,7.1,0,0,1,.5,2.77A7.32,7.32,0,0,1,385.13,420.83Z"></path><path d="M384,420.83a7.92,7.92,0,0,1,0-5.54,7.92,7.92,0,0,1,0,5.54Z"></path><path d="M377.73,420.83a7.92,7.92,0,0,1,0-5.54,7.92,7.92,0,0,1,0,5.54Z"></path><path d="M376,420.83a7.32,7.32,0,0,1-.5-2.77,7.1,7.1,0,0,1,.5-2.77,6.92,6.92,0,0,1,.5,2.77A7.13,7.13,0,0,1,376,420.83Z"></path><path d="M369,420.83a7.92,7.92,0,0,1,0-5.54,7.92,7.92,0,0,1,0,5.54Z"></path><path d="M367.41,420.83a7.13,7.13,0,0,1-.5-2.77,6.92,6.92,0,0,1,.5-2.77,7.92,7.92,0,0,1,0,5.54Z"></path><path d="M364.44,420.83a7.92,7.92,0,0,1,0-5.54,7.92,7.92,0,0,1,0,5.54Z"></path><path d="M370.38,420.83a7.32,7.32,0,0,1-.5-2.77,6.92,6.92,0,0,1,.5-2.77,7.1,7.1,0,0,1,.5,2.77A7.32,7.32,0,0,1,370.38,420.83Z"></path><path d="M381.92,420.83a7.13,7.13,0,0,1-.5-2.77,6.92,6.92,0,0,1,.5-2.77,7.92,7.92,0,0,1,0,5.54Z"></path><path d="M373.8,420.83a7.92,7.92,0,0,1,0-5.54,7.92,7.92,0,0,1,0,5.54Z"></path><path d="M372.64,420.83a7.92,7.92,0,0,1,0-5.54,8.07,8.07,0,0,1,0,5.54Z"></path><path d="M360.56,420.83a7.92,7.92,0,0,1,0-5.54,6.92,6.92,0,0,1,.5,2.77A7.13,7.13,0,0,1,360.56,420.83Z"></path><path d="M358.81,420.83a7.32,7.32,0,0,1-.5-2.77,7.1,7.1,0,0,1,.5-2.77,6.92,6.92,0,0,1,.5,2.77A7.13,7.13,0,0,1,358.81,420.83Z"></path><path d="M363.06,420.83a7.92,7.92,0,0,1,0-5.54,7.92,7.92,0,0,1,0,5.54Z"></path><path d="M379.08,420.83a7.13,7.13,0,0,1-.5-2.77,6.92,6.92,0,0,1,.5-2.77,7.1,7.1,0,0,1,.5,2.77A7.32,7.32,0,0,1,379.08,420.83Z"></path></g><polygon points="388.87 414.65 388.87 416.12 357.52 417.11 357.52 414.65 388.87 414.65" style="opacity:0.1"></polygon><rect x="359.93" y="407.78" width="31.35" height="6.93" style="fill:#FFA52E"></rect><g style="opacity:0.1"><path d="M361.23,408.41a8,8,0,0,1,0,5.55,8,8,0,0,1,0-5.55Z"></path><path d="M363.56,408.41a7.18,7.18,0,0,1,.5,2.78,7,7,0,0,1-.5,2.77,8,8,0,0,1,0-5.55Z"></path><path d="M364.7,408.41a8,8,0,0,1,0,5.55,8,8,0,0,1,0-5.55Z"></path><path d="M371,408.41a8,8,0,0,1,0,5.55,8,8,0,0,1,0-5.55Z"></path><path d="M372.66,408.41a7.37,7.37,0,0,1,.5,2.78,7.16,7.16,0,0,1-.5,2.77,7,7,0,0,1-.5-2.77A7.18,7.18,0,0,1,372.66,408.41Z"></path><path d="M379.66,408.41a8,8,0,0,1,0,5.55,8,8,0,0,1,0-5.55Z"></path><path d="M381.28,408.41a8,8,0,0,1,0,5.55,8,8,0,0,1,0-5.55Z"></path><path d="M384.25,408.41a8,8,0,0,1,0,5.55,8,8,0,0,1,0-5.55Z"></path><path d="M378.31,408.41a7.37,7.37,0,0,1,.5,2.78,7,7,0,0,1-.5,2.77,7.16,7.16,0,0,1-.5-2.77A7.37,7.37,0,0,1,378.31,408.41Z"></path><path d="M366.77,408.41a8,8,0,0,1,0,5.55,8,8,0,0,1,0-5.55Z"></path><path d="M374.89,408.41a8,8,0,0,1,0,5.55,8,8,0,0,1,0-5.55Z"></path><path d="M376.06,408.41a8.1,8.1,0,0,1,0,5.55,8,8,0,0,1,0-5.55Z"></path><path d="M388.13,408.41a8,8,0,0,1,0,5.55,7,7,0,0,1-.5-2.77A7.18,7.18,0,0,1,388.13,408.41Z"></path><path d="M389.88,408.41a7.37,7.37,0,0,1,.5,2.78,7.16,7.16,0,0,1-.5,2.77,7,7,0,0,1-.5-2.77A7.37,7.37,0,0,1,389.88,408.41Z"></path><path d="M385.63,408.41a8,8,0,0,1,0,5.55,8,8,0,0,1,0-5.55Z"></path><path d="M369.61,408.41a7.18,7.18,0,0,1,.5,2.78,7,7,0,0,1-.5,2.77,7.16,7.16,0,0,1-.5-2.77A7.37,7.37,0,0,1,369.61,408.41Z"></path></g><polygon points="391.29 407.78 391.29 409.25 359.93 410.24 359.93 407.78 391.29 407.78" style="opacity:0.1"></polygon><rect x="130.85" y="417.41" width="31.35" height="6.93" style="fill:#FFA52E"></rect><g style="opacity:0.1"><path d="M132.14,418a8,8,0,0,1,0,5.55,8,8,0,0,1,0-5.55Z"></path><path d="M134.48,418a7.35,7.35,0,0,1,.5,2.77,7.18,7.18,0,0,1-.5,2.78,7,7,0,0,1-.5-2.78A7.16,7.16,0,0,1,134.48,418Z"></path><path d="M135.62,418a7.35,7.35,0,0,1,.5,2.77,7,7,0,0,1-.5,2.78,7.18,7.18,0,0,1-.5-2.78A7.35,7.35,0,0,1,135.62,418Z"></path><path d="M141.88,418a8,8,0,0,1,0,5.55,8,8,0,0,1,0-5.55Z"></path><path d="M143.58,418a8,8,0,0,1,0,5.55,8,8,0,0,1,0-5.55Z"></path><path d="M150.58,418a7.16,7.16,0,0,1,.5,2.77,7,7,0,0,1-.5,2.78,8,8,0,0,1,0-5.55Z"></path><path d="M152.2,418a7.35,7.35,0,0,1,.5,2.77,7,7,0,0,1-.5,2.78,7.18,7.18,0,0,1-.5-2.78A7.35,7.35,0,0,1,152.2,418Z"></path><path d="M155.17,418a7.16,7.16,0,0,1,.5,2.77,7,7,0,0,1-.5,2.78,8,8,0,0,1,0-5.55Z"></path><path d="M149.23,418a8,8,0,0,1,0,5.55,7,7,0,0,1-.5-2.78A7.16,7.16,0,0,1,149.23,418Z"></path><path d="M137.69,418a7.35,7.35,0,0,1,.5,2.77,7.18,7.18,0,0,1-.5,2.78,7,7,0,0,1-.5-2.78A7.35,7.35,0,0,1,137.69,418Z"></path><path d="M145.81,418a8,8,0,0,1,0,5.55,8,8,0,0,1,0-5.55Z"></path><path d="M147,418a8,8,0,0,1,0,5.55,8,8,0,0,1,0-5.55Z"></path><path d="M159.05,418a8,8,0,0,1,0,5.55,8,8,0,0,1,0-5.55Z"></path><path d="M160.8,418a8,8,0,0,1,0,5.55,8,8,0,0,1,0-5.55Z"></path><path d="M156.55,418a7.16,7.16,0,0,1,.5,2.77,7,7,0,0,1-.5,2.78,8,8,0,0,1,0-5.55Z"></path><path d="M140.53,418a7.35,7.35,0,0,1,.5,2.77,7.18,7.18,0,0,1-.5,2.78,7,7,0,0,1-.5-2.78A7.16,7.16,0,0,1,140.53,418Z"></path></g><polygon points="162.21 417.41 162.21 418.88 130.85 419.87 130.85 417.41 162.21 417.41" style="opacity:0.1"></polygon><rect x="128.71" y="410.48" width="31.35" height="6.93" style="fill:#FFA52E"></rect><g style="opacity:0.1"><path d="M130,411.11a7.37,7.37,0,0,1,.5,2.78,7,7,0,0,1-.5,2.77,7,7,0,0,1-.5-2.77A7.37,7.37,0,0,1,130,411.11Z"></path><path d="M132.33,411.11a8,8,0,0,1,0,5.55,8.1,8.1,0,0,1,0-5.55Z"></path><path d="M133.48,411.11a8,8,0,0,1,0,5.55,8,8,0,0,1,0-5.55Z"></path><path d="M139.74,411.11a8,8,0,0,1,0,5.55,7,7,0,0,1-.5-2.77A7.18,7.18,0,0,1,139.74,411.11Z"></path><path d="M141.43,411.11a8,8,0,0,1,0,5.55,8,8,0,0,1,0-5.55Z"></path><path d="M148.44,411.11a8,8,0,0,1,0,5.55,8,8,0,0,1,0-5.55Z"></path><path d="M150.06,411.11a8,8,0,0,1,0,5.55,8,8,0,0,1,0-5.55Z"></path><path d="M153,411.11a8,8,0,0,1,0,5.55,8,8,0,0,1,0-5.55Z"></path><path d="M147.08,411.11a8,8,0,0,1,0,5.55,8,8,0,0,1,0-5.55Z"></path><path d="M135.55,411.11a8,8,0,0,1,0,5.55,8,8,0,0,1,0-5.55Z"></path><path d="M143.66,411.11a7.18,7.18,0,0,1,.5,2.78,7,7,0,0,1-.5,2.77,7.16,7.16,0,0,1-.5-2.77A7.37,7.37,0,0,1,143.66,411.11Z"></path><path d="M144.83,411.11a8,8,0,0,1,0,5.55,7,7,0,0,1-.5-2.77A7.18,7.18,0,0,1,144.83,411.11Z"></path><path d="M156.9,411.11a7.18,7.18,0,0,1,.5,2.78,7,7,0,0,1-.5,2.77,8,8,0,0,1,0-5.55Z"></path><path d="M158.65,411.11a8,8,0,0,1,0,5.55,8,8,0,0,1,0-5.55Z"></path><path d="M154.41,411.11a8,8,0,0,1,0,5.55,8,8,0,0,1,0-5.55Z"></path><path d="M138.38,411.11a8,8,0,0,1,0,5.55,8,8,0,0,1,0-5.55Z"></path></g><polygon points="160.06 410.48 160.06 411.95 128.71 412.94 128.71 410.48 160.06 410.48" style="opacity:0.1"></polygon><rect x="133.55" y="396.68" width="31.35" height="6.93" style="fill:#FFA52E"></rect><g style="opacity:0.1"><path d="M134.84,397.31a8,8,0,0,1,0,5.55,8,8,0,0,1,0-5.55Z"></path><path d="M137.18,397.31a7.37,7.37,0,0,1,.5,2.78,7.16,7.16,0,0,1-.5,2.77,7,7,0,0,1-.5-2.77A7.18,7.18,0,0,1,137.18,397.31Z"></path><path d="M138.32,397.31a7.37,7.37,0,0,1,.5,2.78,7.16,7.16,0,0,1-.5,2.77,7,7,0,0,1-.5-2.77A7.37,7.37,0,0,1,138.32,397.31Z"></path><path d="M144.58,397.31a7.18,7.18,0,0,1,.5,2.78,7,7,0,0,1-.5,2.77,8,8,0,0,1,0-5.55Z"></path><path d="M146.28,397.31a8,8,0,0,1,0,5.55,8,8,0,0,1,0-5.55Z"></path><path d="M153.28,397.31a7.18,7.18,0,0,1,.5,2.78,7,7,0,0,1-.5,2.77,7.16,7.16,0,0,1-.5-2.77A7.37,7.37,0,0,1,153.28,397.31Z"></path><path d="M154.9,397.31a7.37,7.37,0,0,1,.5,2.78,7.16,7.16,0,0,1-.5,2.77,7,7,0,0,1-.5-2.77A7.37,7.37,0,0,1,154.9,397.31Z"></path><path d="M157.87,397.31a7.18,7.18,0,0,1,.5,2.78,7,7,0,0,1-.5,2.77,8,8,0,0,1,0-5.55Z"></path><path d="M151.93,397.31a8,8,0,0,1,0,5.55,8,8,0,0,1,0-5.55Z"></path><path d="M140.39,397.31a7.37,7.37,0,0,1,.5,2.78,7.16,7.16,0,0,1-.5,2.77,7,7,0,0,1-.5-2.77A7.37,7.37,0,0,1,140.39,397.31Z"></path><path d="M148.5,397.31a8,8,0,0,1,0,5.55,8.1,8.1,0,0,1,0-5.55Z"></path><path d="M149.67,397.31a8,8,0,0,1,0,5.55,8,8,0,0,1,0-5.55Z"></path><path d="M161.75,397.31a8,8,0,0,1,0,5.55,8,8,0,0,1,0-5.55Z"></path><path d="M163.5,397.31a8,8,0,0,1,0,5.55,8,8,0,0,1,0-5.55Z"></path><path d="M159.25,397.31a7.18,7.18,0,0,1,.5,2.78,7,7,0,0,1-.5,2.77,7.16,7.16,0,0,1-.5-2.77A7.37,7.37,0,0,1,159.25,397.31Z"></path><path d="M143.23,397.31a7.37,7.37,0,0,1,.5,2.78,7.16,7.16,0,0,1-.5,2.77,7,7,0,0,1-.5-2.77A7.18,7.18,0,0,1,143.23,397.31Z"></path></g><polygon points="164.9 396.68 164.9 398.15 133.55 399.14 133.55 396.68 164.9 396.68" style="opacity:0.1"></polygon><rect x="132.76" y="389.75" width="31.35" height="6.93" style="fill:#FFA52E"></rect><g style="opacity:0.1"><path d="M162.71,395.93a7.92,7.92,0,0,1,0-5.54,8.07,8.07,0,0,1,0,5.54Z"></path><path d="M160.37,395.93a7.32,7.32,0,0,1-.5-2.77,7.1,7.1,0,0,1,.5-2.77,6.92,6.92,0,0,1,.5,2.77A7.32,7.32,0,0,1,160.37,395.93Z"></path><path d="M159.23,395.93a7.13,7.13,0,0,1-.5-2.77,6.92,6.92,0,0,1,.5-2.77,7.1,7.1,0,0,1,.5,2.77A7.32,7.32,0,0,1,159.23,395.93Z"></path><path d="M153,395.93a7.92,7.92,0,0,1,0-5.54,7.92,7.92,0,0,1,0,5.54Z"></path><path d="M151.27,395.93a7.92,7.92,0,0,1,0-5.54,7.92,7.92,0,0,1,0,5.54Z"></path><path d="M144.27,395.93a7.13,7.13,0,0,1-.5-2.77,6.92,6.92,0,0,1,.5-2.77,7.92,7.92,0,0,1,0,5.54Z"></path><path d="M142.65,395.93a7.13,7.13,0,0,1-.5-2.77,6.92,6.92,0,0,1,.5-2.77,7.1,7.1,0,0,1,.5,2.77A7.32,7.32,0,0,1,142.65,395.93Z"></path><path d="M139.68,395.93a7.92,7.92,0,0,1,0-5.54,7.92,7.92,0,0,1,0,5.54Z"></path><path d="M145.62,395.93a7.32,7.32,0,0,1-.5-2.77,7.1,7.1,0,0,1,.5-2.77,6.92,6.92,0,0,1,.5,2.77A7.13,7.13,0,0,1,145.62,395.93Z"></path><path d="M157.16,395.93a7.32,7.32,0,0,1-.5-2.77,6.92,6.92,0,0,1,.5-2.77,7.1,7.1,0,0,1,.5,2.77A7.32,7.32,0,0,1,157.16,395.93Z"></path><path d="M149,395.93a7.92,7.92,0,0,1,0-5.54,7.92,7.92,0,0,1,0,5.54Z"></path><path d="M147.88,395.93a7.92,7.92,0,0,1,0-5.54,7.92,7.92,0,0,1,0,5.54Z"></path><path d="M135.8,395.93a7.92,7.92,0,0,1,0-5.54,7.92,7.92,0,0,1,0,5.54Z"></path><path d="M134.05,395.93a7.92,7.92,0,0,1,0-5.54,7.92,7.92,0,0,1,0,5.54Z"></path><path d="M138.3,395.93a7.92,7.92,0,0,1,0-5.54,7.92,7.92,0,0,1,0,5.54Z"></path><path d="M154.32,395.93a7.32,7.32,0,0,1-.5-2.77,7.1,7.1,0,0,1,.5-2.77,6.92,6.92,0,0,1,.5,2.77A7.32,7.32,0,0,1,154.32,395.93Z"></path></g><polygon points="164.11 389.75 164.11 391.22 132.76 392.21 132.76 389.75 164.11 389.75" style="opacity:0.1"></polygon><rect x="130.85" y="382.82" width="31.35" height="6.93" style="fill:#FFA52E"></rect><g style="opacity:0.1"><path d="M132.14,383.46a7.92,7.92,0,0,1,0,5.54,8.07,8.07,0,0,1,0-5.54Z"></path><path d="M134.48,383.46a7.32,7.32,0,0,1,.5,2.77,7.13,7.13,0,0,1-.5,2.77,7,7,0,0,1-.5-2.77A7.32,7.32,0,0,1,134.48,383.46Z"></path><path d="M135.62,383.46a7.13,7.13,0,0,1,.5,2.77,7,7,0,0,1-.5,2.77,7.13,7.13,0,0,1-.5-2.77A7.32,7.32,0,0,1,135.62,383.46Z"></path><path d="M141.88,383.46a7.92,7.92,0,0,1,0,5.54,7.92,7.92,0,0,1,0-5.54Z"></path><path d="M143.58,383.46a7.92,7.92,0,0,1,0,5.54,7.92,7.92,0,0,1,0-5.54Z"></path><path d="M150.58,383.46a7.92,7.92,0,0,1,0,5.54,7.92,7.92,0,0,1,0-5.54Z"></path><path d="M152.2,383.46a7.13,7.13,0,0,1,.5,2.77,7,7,0,0,1-.5,2.77,7.13,7.13,0,0,1-.5-2.77A7.32,7.32,0,0,1,152.2,383.46Z"></path><path d="M155.17,383.46a7.92,7.92,0,0,1,0,5.54,7.92,7.92,0,0,1,0-5.54Z"></path><path d="M149.23,383.46a7.32,7.32,0,0,1,.5,2.77,7.13,7.13,0,0,1-.5,2.77,7,7,0,0,1-.5-2.77A7.13,7.13,0,0,1,149.23,383.46Z"></path><path d="M137.69,383.46a7.32,7.32,0,0,1,.5,2.77,7,7,0,0,1-.5,2.77,7.13,7.13,0,0,1-.5-2.77A7.32,7.32,0,0,1,137.69,383.46Z"></path><path d="M145.81,383.46a7.92,7.92,0,0,1,0,5.54,7.92,7.92,0,0,1,0-5.54Z"></path><path d="M147,383.46a7.92,7.92,0,0,1,0,5.54,7.92,7.92,0,0,1,0-5.54Z"></path><path d="M159.05,383.46a7.92,7.92,0,0,1,0,5.54,7.92,7.92,0,0,1,0-5.54Z"></path><path d="M160.8,383.46a7.92,7.92,0,0,1,0,5.54,7.92,7.92,0,0,1,0-5.54Z"></path><path d="M156.55,383.46a7.92,7.92,0,0,1,0,5.54,7.92,7.92,0,0,1,0-5.54Z"></path><path d="M140.53,383.46a7.32,7.32,0,0,1,.5,2.77,7.13,7.13,0,0,1-.5,2.77,7,7,0,0,1-.5-2.77A7.32,7.32,0,0,1,140.53,383.46Z"></path></g><polygon points="162.21 382.82 162.21 384.3 130.85 385.29 130.85 382.82 162.21 382.82" style="opacity:0.1"></polygon><rect x="130.85" y="403.61" width="31.35" height="6.93" style="fill:#FFA52E"></rect><g style="opacity:0.1"><path d="M160.8,409.79a8,8,0,0,1,0-5.55,8,8,0,0,1,0,5.55Z"></path><path d="M158.46,409.79a8,8,0,0,1,0-5.55,8,8,0,0,1,0,5.55Z"></path><path d="M157.32,409.79a8,8,0,0,1,0-5.55,7,7,0,0,1,.5,2.77A7.18,7.18,0,0,1,157.32,409.79Z"></path><path d="M151.06,409.79a7.37,7.37,0,0,1-.5-2.78,7,7,0,0,1,.5-2.77,7.16,7.16,0,0,1,.5,2.77A7.37,7.37,0,0,1,151.06,409.79Z"></path><path d="M149.37,409.79a8,8,0,0,1,0-5.55,8.1,8.1,0,0,1,0,5.55Z"></path><path d="M142.36,409.79a7.37,7.37,0,0,1-.5-2.78,7.16,7.16,0,0,1,.5-2.77,7,7,0,0,1,.5,2.77A7.37,7.37,0,0,1,142.36,409.79Z"></path><path d="M140.74,409.79a8,8,0,0,1,0-5.55,7,7,0,0,1,.5,2.77A7.18,7.18,0,0,1,140.74,409.79Z"></path><path d="M137.77,409.79a7.37,7.37,0,0,1-.5-2.78,7,7,0,0,1,.5-2.77,7.16,7.16,0,0,1,.5,2.77A7.37,7.37,0,0,1,137.77,409.79Z"></path><path d="M143.71,409.79a8,8,0,0,1,0-5.55,8,8,0,0,1,0,5.55Z"></path><path d="M155.25,409.79a8,8,0,0,1,0-5.55,7,7,0,0,1,.5,2.77A7.18,7.18,0,0,1,155.25,409.79Z"></path><path d="M147.14,409.79a8,8,0,0,1,0-5.55,8,8,0,0,1,0,5.55Z"></path><path d="M146,409.79a7.18,7.18,0,0,1-.5-2.78,7,7,0,0,1,.5-2.77,7.16,7.16,0,0,1,.5,2.77A7.37,7.37,0,0,1,146,409.79Z"></path><path d="M133.9,409.79a8,8,0,0,1,0-5.55,8,8,0,0,1,0,5.55Z"></path><path d="M132.14,409.79a8,8,0,0,1,0-5.55,8,8,0,0,1,0,5.55Z"></path><path d="M136.39,409.79a7.37,7.37,0,0,1-.5-2.78,7,7,0,0,1,.5-2.77,7,7,0,0,1,.5,2.77A7.37,7.37,0,0,1,136.39,409.79Z"></path><path d="M152.41,409.79a8,8,0,0,1,0-5.55,8,8,0,0,1,0,5.55Z"></path></g><polygon points="162.21 403.61 162.21 405.08 130.85 406.07 130.85 403.61 162.21 403.61" style="opacity:0.1"></polygon><path d="M128.24,400.16c20.64,3.71,15.18,34.28-5.49,30.57S107.56,396.45,128.24,400.16Z" style="fill:#FFA52E"></path><path d="M128.24,400.16c20.64,3.71,15.18,34.28-5.49,30.57S107.56,396.45,128.24,400.16Z" style="opacity:0.1"></path><path d="M126.3,399.81c19.67,3.53,14.22,34.11-5.49,30.57S106.6,396.28,126.3,399.81Z" style="fill:#FFA52E"></path><path d="M111.08,415.82c.11,5.45,3.28,10.72,10.2,12,16.35,2.93,20.88-22.45,4.55-25.38l-.32-.05c15.31,3.07,10.92,27.08-4.67,24.28A11.35,11.35,0,0,1,111.08,415.82Z" style="opacity:0.1"></path><g style="opacity:0.1"><path d="M125.26,405.58a.53.53,0,0,1,.37.63l-.21.84a7,7,0,0,1,3.37,2.4.63.63,0,0,1,.18.56.57.57,0,0,1-.68.39.53.53,0,0,1-.34-.25,6.19,6.19,0,0,0-2.81-2.14l-1.46,5.87c3,1.47,4.06,3,3.55,5.05-.56,2.23-2.82,3.33-5.46,2.76l-.41,1.64a.52.52,0,1,1-1-.25l.41-1.66a8.08,8.08,0,0,1-4.21-3.21.54.54,0,0,1-.12-.5.55.55,0,0,1,.65-.39.49.49,0,0,1,.34.24,7,7,0,0,0,3.62,2.93l1.49-6c-3-1.48-4-3-3.46-5.05s2.77-3.28,5.35-2.7l.2-.8A.53.53,0,0,1,125.26,405.58Zm-2.45,7.86,1.42-5.73c-2-.46-3.69.42-4.06,1.93S120.26,412.11,122.81,413.44Zm.6,1.51L122,420.74c2.1.48,3.77-.4,4.17-2S126,416.24,123.41,415Z"></path></g></g></svg>