<svg xmlns="http://www.w3.org/2000/svg" viewBox="0 0 500 500"><g id="freepik--background-complete--inject-364"><path d="M103.07,272.66H42.42s3-3.93,6.34-4.42c0,0,6.46-19.25,17.29-19.38,10.06-.13,14.1,11.83,14.1,11.83s4.66-5.36,9.11-2.91,7,9.48,7,9.48S101.25,270,103.07,272.66Z" style="fill:#ebebeb"></path><path d="M148.76,80H88.11s3-3.93,6.34-4.42c0,0,6.47-19.25,17.29-19.39,10.07-.12,14.1,11.84,14.1,11.84s4.66-5.36,9.12-2.91,7,9.48,7,9.48S147,77.32,148.76,80Z" style="fill:#ebebeb"></path><path d="M382.88,111.23h76.7s0-4.9-10.57-5.86c0,0-9.64-21.42-24.37-18.54-9.17,1.79-13.86,14.38-13.86,14.38s-6.93-9.91-12.48-8-8.83,12.47-8.83,12.47S383.75,108.46,382.88,111.23Z" style="fill:#ebebeb"></path><path d="M72.74,306.62h76.7s0-4.9-10.57-5.86c0,0-9.64-21.41-24.37-18.54-9.17,1.79-13.86,14.39-13.86,14.39s-6.93-9.91-12.48-8-8.83,12.46-8.83,12.46S73.61,303.85,72.74,306.62Z" style="fill:#ebebeb"></path><path d="M373.09,140.78h52.16s-4.93-4.58-7.11-4.58-8.57-15.38-16.73-14.72-12.49,12.1-12.49,12.1S379,130.48,373.09,140.78Z" style="fill:#ebebeb"></path><path d="M386.72,228.92h44.6s-2.22-2.88-4.66-3.24c0,0-4.76-14.16-12.72-14.26-7.4-.09-10.36,8.71-10.36,8.71s-3.43-3.95-6.71-2.15-5.13,7-5.13,7S388.06,226.94,386.72,228.92Z" style="fill:#ebebeb"></path><path d="M45.81,403.23S95.38,386.67,126,370.94s55.14-41.29,58.21-42.27,7.39,2.37,9.95,1.39,7.48-2.61,9.08-1.51,49.55,34.84,59,39.93c32.93,17.76,79.85,35,79.85,35Z" style="fill:#ebebeb"></path><path d="M231.49,349.88c-.77,1.18-9.28-5.28-9.44-4.79s3.35,3.29,2.54,3.77-4.46-2.45-4.79-2,1.76,1.64.8,2.13-6.23-3.28-6.4-3,1,3,0,3.45-6.56-2.79-7.67-2.13,1.11,3.28,0,3.3-6.24-4.12-7.75-4,.54,3.22-.35,3.22-3.9-2.87-4.42-3.2,1.8,7.06,1,7.88-4.29-8.2-4.9-7.88-3.83,3.88-4.91,4.18,1.53-5.18-.18-3.87-6.53,5.75-7,3.94,2.34-6-.06-4.8c-1.46.72-5.3,3.34-5.94,3.34s-.64-2.62-1.6-1.93-5.27,3.21-7.39,3.64c-.86.17,2.75-3.57,2.11-3.51-1.5.15-12.77,7.13-5.49,1.23v0c13.55-10.58,22.8-19.69,24.6-20.27,3.07-1,7.39,2.38,9.95,1.4s7.48-2.61,9.08-1.51c.7.47,10.12,7.1,21.34,14.87h0C230.17,349,232.24,348.7,231.49,349.88Z" style="fill:#fff"></path><path d="M157.21,351.3c-.12-.12,0-.29.07-.4a2.28,2.28,0,0,1,.29-.33,7,7,0,0,1,.64-.58c.45-.37.91-.72,1.36-1.08h0q7.56-6.11,14.87-12.53c2.45-2.13,4.86-4.29,7.37-6.36a15.87,15.87,0,0,1,2-1.45,4.5,4.5,0,0,1,2.5-.27A32,32,0,0,1,191,329.6a7,7,0,0,0,2.28.37,10.52,10.52,0,0,0,2.24-.68,28.88,28.88,0,0,1,4.69-1.23,6.47,6.47,0,0,1,2.48,0c.1,0,.21.05.31.09l.3.16c.19.11.34.23.51.34l1,.7,4,2.8,7.92,5.61,7.89,5.65h0l-8-5.45-8-5.48-4-2.75-1-.69c-.16-.11-.33-.24-.49-.33l-.23-.12-.27-.08a6.14,6.14,0,0,0-2.3,0,26.72,26.72,0,0,0-4.6,1.23l-1.13.41a3.76,3.76,0,0,1-1.23.3,7.39,7.39,0,0,1-2.45-.37,34.74,34.74,0,0,0-4.59-1.3,4,4,0,0,0-2.22.21,15.16,15.16,0,0,0-1.92,1.38c-2.5,2-4.93,4.2-7.39,6.31-4.94,4.21-9.94,8.34-15.1,12.26h0v0h0c-.46.35-.93.68-1.38,1q-.35.27-.66.57a3,3,0,0,0-.29.32C157.21,351,157.1,351.18,157.21,351.3Z" style="fill:#dbdbdb"></path></g><g id="freepik--Shadow--inject-364"><ellipse cx="260.1" cy="451.69" rx="170.78" ry="14.43" style="fill:#ebebeb"></ellipse></g><g id="freepik--Floor--inject-364"><polygon points="40.02 403.3 92.51 403.05 145.01 402.96 250 402.8 354.99 402.96 407.49 403.05 459.98 403.3 407.49 403.54 354.99 403.63 250 403.8 145.01 403.63 92.51 403.54 40.02 403.3" style="fill:#263238"></polygon></g><g id="freepik--Moon--inject-364"><circle cx="250" cy="195.87" r="125.51" style="fill:#fff"></circle><circle cx="250" cy="195.87" r="125.51" style="fill:#FFA52E;opacity:0.30000000000000004"></circle><path d="M185.29,252a11.17,11.17,0,0,1,3.58,8.06,12.24,12.24,0,0,1-3.55,8.86,11,11,0,0,1-9.19,3.15,13.11,13.11,0,0,1-7.89-3.77,41.59,41.59,0,0,0,7.8-.54,9.61,9.61,0,0,0,5.38-2.69,12.7,12.7,0,0,0,3.18-5.45A23,23,0,0,0,185.29,252Z" style="opacity:0.1"></path><path d="M169.74,264.19a7.18,7.18,0,0,1-3.11-5.56,8.55,8.55,0,0,1,2.47-6.58,7.84,7.84,0,0,1,6.87-2.22,8.19,8.19,0,0,1,5.38,3.26,40.41,40.41,0,0,0-5.29,1A6.71,6.71,0,0,0,173,255.9a9.64,9.64,0,0,0-2.1,3.17A18.78,18.78,0,0,0,169.74,264.19Z" style="opacity:0.1"></path><path d="M338.62,133.87a11.19,11.19,0,0,1-2.68,8.4,12.23,12.23,0,0,1-8.55,4.26,11,11,0,0,1-9-3.75,13.09,13.09,0,0,1-3.38-8.06,40.69,40.69,0,0,0,6.18,4.78,9.7,9.7,0,0,0,5.81,1.57,12.81,12.81,0,0,0,6-2A23.26,23.26,0,0,0,338.62,133.87Z" style="opacity:0.1"></path><path d="M318.9,132.64a7.21,7.21,0,0,1,1.36-6.22,8.56,8.56,0,0,1,6.23-3.27,7.84,7.84,0,0,1,6.6,2.9,8.19,8.19,0,0,1,1.86,6,42,42,0,0,0-4.66-2.74,6.65,6.65,0,0,0-3.45-.71,9.52,9.52,0,0,0-3.68,1A18.9,18.9,0,0,0,318.9,132.64Z" style="opacity:0.1"></path><g style="opacity:0.1"><path d="M323.17,200.93a21.27,21.27,0,0,1,15.69,11.39A23.59,23.59,0,1,0,302,234.1a21.5,21.5,0,0,1,21.14-33.17Z"></path></g><path d="M348,209.9a30.6,30.6,0,0,1-.45,18.42A36,36,0,0,1,337,244c-4.89,4.2-11.43,7-17.94,6.63A28,28,0,0,1,301.86,244,37.75,37.75,0,0,0,319,247a35.18,35.18,0,0,0,4.13-.66A22.67,22.67,0,0,0,327,245a26.2,26.2,0,0,0,6.95-4.45c1.05-.94,2.09-1.93,3.08-2.94s1.91-2.11,2.72-3.27a38,38,0,0,0,4.4-7.3A43.26,43.26,0,0,0,348,209.9Z" style="opacity:0.1"></path><path d="M189.34,127.78a9.32,9.32,0,0,1,6.5,5.47,10.33,10.33,0,1,0-16.76,8.36,9.41,9.41,0,0,1,10.26-13.83Z" style="opacity:0.1"></path><path d="M199.89,132.47a12.85,12.85,0,0,1-.52,8.15,15.64,15.64,0,0,1-5.12,6.7,11.5,11.5,0,0,1-8.26,2.33,11.84,11.84,0,0,1-7.3-3.73,17.52,17.52,0,0,0,7.4,1.59,11.27,11.27,0,0,0,6.51-2.38A18.74,18.74,0,0,0,199.89,132.47Z" style="opacity:0.1"></path><path d="M229.68,273.24a13.22,13.22,0,0,1,10.43,6.05,14.68,14.68,0,1,0-21.4,15.83,13.37,13.37,0,0,1,11-21.88Z" style="opacity:0.1"></path><path d="M245.59,277.21a19.35,19.35,0,0,1,.84,11.41A22.41,22.41,0,0,1,240.92,299a16.13,16.13,0,0,1-10.62,5.23,17.58,17.58,0,0,1-11.07-3,23,23,0,0,0,10.8.85,16,16,0,0,0,8.89-5,24.79,24.79,0,0,0,5.45-9.05A26.22,26.22,0,0,0,245.59,277.21Z" style="opacity:0.1"></path></g><g id="freepik--Arch--inject-364"><polygon points="330.22 278.58 320.03 278.58 308.3 403.19 321.93 403.19 330.22 278.58" style="fill:#455a64"></polygon><polygon points="329.52 288.99 328.24 308.37 317.27 307.94 319.09 288.58 329.52 288.99" style="fill:#37474f"></polygon><rect x="315.19" y="292.76" width="16.98" height="2.78" style="fill:#455a64"></rect><rect x="366.32" y="292.76" width="16.98" height="2.78" style="fill:#455a64"></rect><polygon points="419.4 278.58 429.59 278.58 441.32 403.19 427.69 403.19 419.4 278.58" style="fill:#455a64"></polygon><polygon points="444.7 271.79 441.32 278.59 308.3 278.59 304.92 271.79 444.7 271.79" style="fill:#455a64"></polygon><path d="M460,260.76l-7.3,11H296.94l-7.3-11s71.42,4.92,85.17,4.92S460,260.76,460,260.76Z" style="fill:#37474f"></path><polygon points="420.1 288.99 421.38 308.37 432.36 307.94 430.53 288.58 420.1 288.99" style="fill:#37474f"></polygon><rect x="306.77" y="295.55" width="136.09" height="8.75" style="fill:#455a64"></rect><rect x="417.45" y="292.76" width="16.98" height="2.78" transform="translate(851.88 588.3) rotate(180)" style="fill:#455a64"></rect><rect x="369.68" y="278.59" width="10.26" height="14.18" style="fill:#455a64"></rect><polygon points="369.68 280.24 369.68 278.59 379.94 278.59 379.94 281.17 369.68 280.24" style="fill:#37474f"></polygon><polygon points="379.94 291.11 379.94 292.76 369.68 292.76 369.68 290.17 379.94 291.11" style="fill:#37474f"></polygon></g><g id="freepik--Plants--inject-364"><path d="M407.7,421.8c-3.07-4-6.56-8.33-6.35-13.59.2-4.86,1.83-10.24,6.29-12.82,1.27-.74,2.2-1,2.61.64.62,2.5-.44,5.53-1,8a51.46,51.46,0,0,0-1.29,9.49c-.07,2.24.09,4.49.08,6.74,0,.28,0,.56,0,.84,0,.11,0,.22,0,.33a.83.83,0,0,1,.08.12.25.25,0,0,1,0,.23l-.05.08A.26.26,0,0,1,407.7,421.8Z" style="fill:#FFA52E"></path><path d="M408.11,421.81c-2.51-3.62-5.45-7.36-5.08-12a20.38,20.38,0,0,1,1.65-6.22c.37-.89,1.48-3.57,2.65-3.64,2.11-.11-.71,8.38-.85,9.38a21.62,21.62,0,0,0,1.58,10.84c0,.28,0,.56,0,.84a23.89,23.89,0,0,1-2-7.56c-.31-3.62.91-6.64,1.57-10.13.15-.75.73-3.14-.56-2.94-.86.12-2,2.73-2.19,3.29a20.16,20.16,0,0,0-1.58,5.89c-.44,4.64,2.41,8.42,4.86,12.13Z" style="fill:#fff"></path><path d="M406.83,425.82l-.54.25h0a.17.17,0,0,1-.14,0,.23.23,0,0,1-.07-.28.2.2,0,0,1,.1-.07l.08,0,.17-.06v0l0,0c2.17-2.66,4.77-4.95,6.91-7.64s3.92-5.29,6.17-7.69c1.41-1.52,8.88-8.64,10.47-4.24.71,1.95-.84,4.75-1.8,6.37a21.13,21.13,0,0,1-5,5.63C418.35,421.9,412.41,423.36,406.83,425.82Z" style="fill:#FFA52E"></path><path d="M418,419.57a24.71,24.71,0,0,0,5.2-4.64c.52-.62,3-3.61,2.18-4.59-.53-.63-1.93.2-2.4.46-2,1.09-3.47,3.05-5,4.7a94.68,94.68,0,0,1-10.11,9.31l-.78.41-.64.35-.22.12-.17.09a.22.22,0,0,0,.07.27l.5-.26-.36.28h0l.44-.2.1-.05.61-.45A105,105,0,0,0,418,419.57Zm-9.26,4.78c2.1-1.66,4.11-3.43,6-5.29,1.56-1.5,3.05-3.06,4.5-4.66a21.84,21.84,0,0,1,2.6-2.58c.73-.58,3.61-2.48,2.91.21-.51,1.94-3,4.12-4.46,5.36a34.09,34.09,0,0,1-5.22,3.6C413,422.19,410.87,423.26,408.74,424.35Z" style="fill:#fff"></path><path d="M397.25,436h0a1.49,1.49,0,0,1-.13-.13c-2.48-3.85-6.39-8.55-6.16-13.41.18-3.59,2.15-8.42,5.71-9.89,4-1.64,3.24,5.95,3.13,7.9A138.79,138.79,0,0,1,397.5,436a1,1,0,0,1,0,.1v0C397.42,436.16,397.33,436.11,397.25,436Z" style="fill:#FFA52E"></path><path d="M397.45,436.09l-.06-.94c-.22-3.55-.29-7.11-.17-10.66,0-.9.73-7.76-1.05-7.43-1.08.2-1.72,2.76-2,3.6a13.93,13.93,0,0,0-.49,4.63c.24,3.59,2.07,6.83,3.34,10.17.07.15.13.31.19.47a.33.33,0,0,0,0,.1h0C397.33,436.11,397.42,436.16,397.45,436.09Zm-3.17-8.88a14.09,14.09,0,0,1-.14-4.76c.14-1.05.79-4.85,2.12-4.92.71,0,.63.4.77,1.2a8.51,8.51,0,0,1,.11,1.11c0,.92,0,1.84-.07,2.75-.08,1.61-.12,3.21-.13,4.82,0,2.63.07,5.26.25,7.89C396.27,432.58,394.85,430,394.28,427.21Z" style="fill:#fff"></path><path d="M409.79,437.32a27.07,27.07,0,0,1-15.7,1.63.19.19,0,0,1-.09,0,.2.2,0,0,1-.07-.24.2.2,0,0,1,.23-.14l.32.06c5.5-3,11-6,16.45-9.08,1.28-.74,9.55-5.27,10-2.05.27,2-2.77,4.33-4.08,5.46A27.27,27.27,0,0,1,409.79,437.32Z" style="fill:#FFA52E"></path><path d="M415.59,431.09c.33-.42.61-1,0-1.22-1.22-.5-5.05,1.71-6.14,2.27-4.53,2.31-9.14,4.17-13.83,6.06l-1.2.48h-.46a.2.2,0,0,0,.07.24l.12,0h.63a31.85,31.85,0,0,0,9.82-1.48,29.56,29.56,0,0,0,5.77-2.51C412,433.93,414.4,432.67,415.59,431.09ZM395,438.66h-.3l.5-.17a87.88,87.88,0,0,0,10.91-4.4c1.79-.87,3.52-1.86,5.34-2.67.76-.34,2.91-1.39,3.62-1.05s-.05.85-.44,1.22-.84.66-1.12.87A31.54,31.54,0,0,1,395,438.66Z" style="fill:#fff"></path><path d="M383.64,447.41l-.54-.75,1.93-1.45c2.57-2,5.14-4,7.66-6,1.45-1.17,2.86-2.35,4.23-3.58l.14-.12.33-.31q.18-.15.36-.33a39.21,39.21,0,0,0,7.86-9.53c.69-1.21,1.32-2.45,1.93-3.71l.17-.36a1,1,0,0,0,0-.1l.18-.37c0-.1.08-.19.13-.29,1.78-3.89,3.26-7.94,4.83-11.9.45-1.13.9-2.27,1.36-3.39a1,1,0,0,1,.08-.21l.1-.25c2-5,4.08-10,6-15,.07-.19.34-.06.28.12-1.23,3.38-2.37,6.78-3.54,10.19l-.46,1.35-.93,2.69c-.63,1.79-1.26,3.56-1.93,5.33a130.15,130.15,0,0,1-6.15,14.81q-.27.52-.57,1.05l-.36.65-.43.74a42.25,42.25,0,0,1-9.91,10.93l-.8.66c-.13.09-.25.2-.38.3l-.2.16-.26.21h0c-.07,0-.13.1-.2.15l-.7.55c-2.57,2-5.16,4-7.75,5.93C385.28,446.13,384.46,446.77,383.64,447.41Z" style="fill:#FFA52E"></path><path d="M415.49,390.82c1.28-4,5-10.67,10.14-9.78a3.93,3.93,0,0,1,3.37,4c0,2.41-1.66,4.68-3.09,6.48-3.79,4.82-8,9.24-11.47,14.33,0,.05-.3.43-.37.55s-.23,0-.16-.13l.34-.5C414.27,400.86,414,395.57,415.49,390.82Z" style="fill:#FFA52E"></path><path d="M414.45,405.9s0-.07,0-.11a43.6,43.6,0,0,1,2.18-4.45,83.44,83.44,0,0,1,5.73-8.56c.79-1.06,4.77-6.14,1.47-6.5-1.39-.14-2.8,1-3.75,1.9a15.58,15.58,0,0,0-3.59,4.95c-1.74,3.7-2.14,7.79-2.2,11.83,0,.19,0,.37,0,.56a1.11,1.11,0,0,1-.07.16,1.17,1.17,0,0,0-.05.11.08.08,0,0,0,0,.07.14.14,0,0,0,.18.11A.1.1,0,0,0,414.45,405.9Zm0-1.19a33,33,0,0,1,1.63-9.86,17.29,17.29,0,0,1,2.46-4.6,14.17,14.17,0,0,1,1.56-1.73,9.53,9.53,0,0,1,1.35-1.1c1.05-.71,2.49-1.09,3-.56s.42,1.22-.09,2.35a9.71,9.71,0,0,1-.59,1.1,29.88,29.88,0,0,1-1.77,2.56c-1,1.37-2,2.75-3,4.18-.66,1-1.29,1.94-1.88,2.94a42.6,42.6,0,0,0-2.73,5.34Z" style="fill:#fff"></path><path d="M107.16,415.41c2.47,2.28,4.79,4.72,7.08,7.19,1.3,1.39,2.58,2.81,3.89,4.21s2.78,3.25,4.8,4h0a1.83,1.83,0,0,1,.25.15.08.08,0,0,1,0,0,.25.25,0,0,1-.31.31l-.13-.05h-.06a8.56,8.56,0,0,1-1.83-.42,44.25,44.25,0,0,1-4.89-1.46,42,42,0,0,1-9.33-4.67,35.16,35.16,0,0,1-7-6.19c-1.63-1.89-4.08-4.69-4.54-7.24-.41-2.31,2.57-1.85,4-1.45C102.21,410.76,104.81,413.25,107.16,415.41Z" style="fill:#FFA52E"></path><path d="M99.65,413.72c-.71,1,2,4,3.11,5.34a33.59,33.59,0,0,0,6.06,5.61,44.06,44.06,0,0,0,13.31,6.42l.57.17h.06l.13.05a.26.26,0,0,0,.32-.31c-.38-.18-.75-.36-1.11-.56s-.65-.36-1-.56a57.44,57.44,0,0,1-9.37-7.61C108.32,419.08,100.59,412.41,99.65,413.72Zm22,16.8c.47.27,1,.51,1.45.74-.39-.13-.78-.25-1.16-.39a48.3,48.3,0,0,1-11.79-5.6,34.8,34.8,0,0,1-5.66-4.7,31.91,31.91,0,0,1-2.57-3c-.33-.44-2.49-3.08-1.92-3.59.4-.36,2.88,1.26,2.94,1.29.5.32,1,.66,1.46,1,1,.72,1.94,1.51,2.87,2.3,2,1.73,3.94,3.57,5.91,5.36A45.7,45.7,0,0,0,121.65,430.52Z" style="fill:#fff"></path><path d="M125.82,405.17c2.25,4.36,2.77,9.36,2.84,14.19,0,2.59,0,5.18-.08,7.77a34.35,34.35,0,0,0,.25,6.92,1.59,1.59,0,0,0,.06.3,8.64,8.64,0,0,0,.61,1.84.15.15,0,0,1,0,.13,1.63,1.63,0,0,1,.11.17s0,.1-.06.06-.11-.1-.17-.15h0a.13.13,0,0,1-.14-.09.43.43,0,0,1,0-.07l-.15-.15c-3.78-3.48-5.9-9.38-7.34-14.12s-2.1-9.78-.85-14.61c.32-1.22.85-4.1,2.32-4.52S125.34,404.24,125.82,405.17Z" style="fill:#FFA52E"></path><path d="M123.83,408c-1.49.25-1.17,4.32-1.13,5.31a51.79,51.79,0,0,0,1.36,8.93A46.54,46.54,0,0,0,129,435.91h0a1.09,1.09,0,0,1,.05.17l.16.15a.2.2,0,0,0,0,.08.14.14,0,0,0,.15.08,2,2,0,0,1-.06-.23c-.17-.59-.3-1.2-.43-1.81a1.59,1.59,0,0,1-.06-.3,101.57,101.57,0,0,1-1.33-12.84,47.52,47.52,0,0,0-1.35-8.88C126,411.59,125.07,407.79,123.83,408Zm1.33,2.16c2,4.69,2,10.27,2.3,15.28a53,53,0,0,0,1.41,10.06A50,50,0,0,1,124.56,423a69.07,69.07,0,0,1-1.34-7.42,26.44,26.44,0,0,1-.22-4.08,10.65,10.65,0,0,1,.31-2.43C123.81,407.62,124.81,409.34,125.16,410.15Z" style="fill:#fff"></path><path d="M137.54,442.81a.25.25,0,0,1,0,.26h.1a.08.08,0,0,1,.08.08.06.06,0,0,1-.06.08c-5.83.92-12.3,1.19-18-.38a23.08,23.08,0,0,1-6.83-3.06c-1.42-1-4.29-2.9-4.45-4.82-.33-3.86,9.92.15,11.46.76,2.81,1.1,5.52,2.45,8.3,3.61,3.06,1.27,6.19,2.32,9.33,3.37A.23.23,0,0,1,137.54,442.81Z" style="fill:#FFA52E"></path><path d="M137.54,442.81c-.31,0-.63-.06-.94-.1a49.74,49.74,0,0,1-14.75-4,46.5,46.5,0,0,0-7.21-2.74c-.62-.15-2.9-.87-2.53.59.19.76,3.94,2.93,5,3.41a32,32,0,0,0,7.35,2.31,52.56,52.56,0,0,0,12.9.89l.37,0a.08.08,0,0,0-.08-.08h-.09A.27.27,0,0,0,137.54,442.81Zm-10.94-.45a36.75,36.75,0,0,1-7.44-1.82,28.81,28.81,0,0,1-2.79-1.23,17,17,0,0,1-2.06-1.23c-1.57-1.14-1.89-1.56-1.76-1.87s.42-.29,1.7-.08a12.77,12.77,0,0,1,2.41.7c1.11.42,2.2.88,3.3,1.36,2.18.94,4.35,1.91,6.59,2.68a38.16,38.16,0,0,0,10,2.08A58.93,58.93,0,0,1,126.6,442.36Z" style="fill:#fff"></path><path d="M136.94,426.08a14.68,14.68,0,0,1,3,5.49c1.33,4,1.79,8.15,2.84,12.2.16.6.32,1.2.51,1.8,0,.06.42.73.37.69l-.52-.54h0c-1.57-1.65-6.27-6.74-8.06-10.19a29.53,29.53,0,0,1-2.71-6.74c-.26-1.12-.73-3.65.38-4.51S136.18,425.28,136.94,426.08Z" style="fill:#FFA52E"></path><path d="M134.55,427.06c-1.56.65,1.66,7.51,2.07,8.41a42,42,0,0,0,5.75,9.29c.25.33.51.64.78,1s.51.53.52.54-.34-.63-.37-.69a2.81,2.81,0,0,0-.1-.31c-.14-.5-.28-1-.41-1.49-1-2.71-2-5.44-3.08-8.13A38.86,38.86,0,0,0,137,430C136.73,429.61,135.23,426.77,134.55,427.06Zm1.28,1.42c3.49,5,4.75,11,7,16.59l.12.27-.29-.37a47.65,47.65,0,0,1-4.87-7.63,43.84,43.84,0,0,1-2.2-5.07,22,22,0,0,1-1-2.87c-.1-.43-.31-1.61,0-1.76S135.59,428.15,135.83,428.48Z" style="fill:#fff"></path><path d="M106.71,386.75c5.49,9.17,2.69,20.93,7.56,30.37l0,.05c.15.29.31.57.47.86a.19.19,0,0,1-.15.29.16.16,0,0,1-.14-.08l-.12-.21a51.11,51.11,0,0,1-10.47-14.85c-2.25-4.62-3.73-9.81-3-15,.19-1.28.48-3.82,2-4.3S106,385.62,106.71,386.75Z" style="fill:#FFA52E"></path><path d="M104.82,390.12c-.65.21-.73,1.16-.8,1.68a16.58,16.58,0,0,0-.09,3.92,27.29,27.29,0,0,0,2,7.77,55.74,55.74,0,0,0,6.49,12.12,30.21,30.21,0,0,0,1.94,2.42l.25.29a.2.2,0,0,0,.15-.29l-.46-.83,0-.07a33.27,33.27,0,0,1-2.77-5.73,77.62,77.62,0,0,1-2.45-9.6C108.76,400.53,107,389.39,104.82,390.12Zm1.44,1.87c1.12,2.4,1.48,5.12,2,7.69s1.13,5.18,1.75,7.76a37.08,37.08,0,0,0,2,6,28.32,28.32,0,0,0,2.48,4.64,40.34,40.34,0,0,1-3-4.21s0,0,0-.06a73.88,73.88,0,0,1-4.3-8.16.47.47,0,0,0,0-.1,34,34,0,0,1-2.61-7.67,19,19,0,0,1-.37-4.39c.08-1.67.31-3,.88-3C105.41,390.45,105.94,391.28,106.26,392Z" style="fill:#fff"></path><path d="M107.39,405.55c1.5,2.65,3.07,5.28,4.65,7.9l2.22,3.68,0,.07.81,1.33c2.42,4,4.82,8.22,7.87,11.78a39.17,39.17,0,0,0,5.4,5.12c.2.15.4.32.6.48h0l.34.25a1.33,1.33,0,0,0,.19.14c1.7,1.32,3.47,2.55,5.2,3.73,2.41,1.66,4.92,3.15,7.43,4.6a1,1,0,0,0,.23.13l.34.21.17.1a3.37,3.37,0,0,1,.32.19c.82.46,1.62.94,2.43,1.42l-.52.73a59.53,59.53,0,0,1-7.64-4.15l-.15-.09c-.24-.15-.49-.3-.72-.46s-.58-.37-.87-.56c-.7-.47-1.39-.93-2.07-1.4a61.43,61.43,0,0,1-11.16-9.23l-.26-.31a.63.63,0,0,1-.11-.12,2,2,0,0,1-.19-.22l-.29-.35c-.18-.21-.35-.42-.51-.64l-.15-.19a93.57,93.57,0,0,1-6.81-10.93c-.39-.67-.77-1.34-1.14-2-.21-.38-.41-.76-.62-1.13l-.92-1.73s0,0,0-.06c-1.45-2.71-2.84-5.45-4.3-8.16C107.11,405.54,107.32,405.42,107.39,405.55Z" style="fill:#FFA52E"></path></g><g id="freepik--Character--inject-364"><path d="M118.15,456.65c2.23.73,66.16.31,68.59-1.25.92-.58,1.4-9.9,1.66-21.17.06-2.43-9.15-38.68-9.15-38.68l-42.76.15,10.7,38.69s-24.4,11.1-26.88,13.1S115.91,455.92,118.15,456.65Z" style="fill:#37474f"></path><path d="M143.45,421.63h44.36a100.67,100.67,0,0,0,3.2-11.55c4.34-19.75-17.42-68-13.79-70.65,21.2-15.65,58.81-22.89,78.6-34.61,25.09-14.86,8.32-45.66,8.32-45.66H203.43s-1,1.89-4.27,8.77c-1.4,2.95-68.07,19.34-78.68,38.72-11.22,20.48,1.22,84.59,4.84,99.61C127,413.23,143.45,421.63,143.45,421.63Z" style="fill:#263238"></path><polygon points="188.88 425.87 144.37 426.27 141.16 420.38 188.88 419.7 188.88 425.87" style="fill:#FFA52E"></polygon><path d="M177,342.65a9.53,9.53,0,0,1-.82-3.4,8.38,8.38,0,0,1,1.1-3.37l.16-.39.28-.44a4.7,4.7,0,0,1,.63-.69c.43-.42.87-.8,1.33-1.17.91-.73,1.85-1.41,2.8-2.08,1.92-1.31,3.87-2.55,5.87-3.71s4-2.29,6.1-3.3c-.93.69-1.89,1.33-2.83,2l-2.86,1.95L183,331.93c-.95.65-1.88,1.31-2.79,2-.45.34-.9.69-1.31,1.06a5.91,5.91,0,0,0-.56.56l-.22.27-.2.39a8.07,8.07,0,0,0-1.31,3.07A11.11,11.11,0,0,0,177,342.65Z" style="fill:#37474f"></path><path d="M147.08,420.3a58.26,58.26,0,0,1-5.63-3.72,29.73,29.73,0,0,1-2.63-2.15,8.71,8.71,0,0,1-1.19-1.3,14.93,14.93,0,0,1-.93-1.47,60.81,60.81,0,0,1-2.85-6.14c-.84-2.09-1.63-4.19-2.28-6.34.52,1,1,2,1.52,3l1.47,3c1,2,1.93,4,3,6a9.53,9.53,0,0,0,1.9,2.58c.77.78,1.63,1.49,2.46,2.23s1.7,1.45,2.57,2.16Z" style="fill:#37474f"></path><path d="M152.78,420.22a45.48,45.48,0,0,1-5.37-5.38,14.09,14.09,0,0,1-2.06-3.27,20.72,20.72,0,0,1-1.33-3.63,8.44,8.44,0,0,1-.2-4,16.55,16.55,0,0,1,.71-1.83,1.92,1.92,0,0,1,.75-.94,1.39,1.39,0,0,1,1.25.08,4.38,4.38,0,0,1,.88.53,1.73,1.73,0,0,1,.39.37,2.83,2.83,0,0,1,.31.42,7.92,7.92,0,0,1,.8,1.79,18.69,18.69,0,0,1,.67,3.75,24,24,0,0,0-1.13-3.58,7.65,7.65,0,0,0-.86-1.6,1.74,1.74,0,0,0-.28-.32,1,1,0,0,0-.3-.26,4.28,4.28,0,0,0-.77-.39c-.27-.1-.5-.12-.56-.06a1.43,1.43,0,0,0-.35.57,14.44,14.44,0,0,0-.59,1.71,7.81,7.81,0,0,0,.25,3.5,21.15,21.15,0,0,0,1.22,3.48,16.27,16.27,0,0,0,1.81,3.2c.72,1,1.52,2,2.33,2.94S152,419.25,152.78,420.22Z" style="fill:#37474f"></path><path d="M180.3,419.7c.85-1.46,1.69-2.91,2.47-4.37a21,21,0,0,0,1-2.22,4.85,4.85,0,0,0,.29-1.1,4.8,4.8,0,0,0,0-.57v-.63a91.76,91.76,0,0,1,.5-10.07,87.06,87.06,0,0,1,.5,10.07v.62a6,6,0,0,1,0,.69,4.91,4.91,0,0,1-.38,1.33,14.54,14.54,0,0,1-1.23,2.27A26.31,26.31,0,0,1,180.3,419.7Z" style="fill:#37474f"></path><path d="M174.75,419.7c.59-.82,1.22-1.59,1.86-2.35s1.3-1.51,1.79-2.26a2.09,2.09,0,0,0,.25-.54l.26-.71c.19-.47.36-.94.57-1.4a21.86,21.86,0,0,1,1.34-2.7,23.55,23.55,0,0,1-.6,2.94c-.11.48-.26.95-.4,1.42l-.22.71a4,4,0,0,1-.35.81,12.29,12.29,0,0,1-2.08,2.27A16.4,16.4,0,0,1,174.75,419.7Z" style="fill:#37474f"></path><path d="M410.51,456.9c-1.13.15-57.08.27-59.46-.8-.19-.08-1.86-5-1.53-7.73.38-3.13,4-6.77,4.84-8.84L329.5,407.14l43.5-1,25.46,29.09s8.91,10.06,9.91,10.85C411,448.17,413,456.59,410.51,456.9Z" style="fill:#37474f"></path><path d="M339.14,419.7h45.73s2.26-14.37-4.23-24.15c-17.35-26.16-53.22-65.59-64.31-79.75-16.65-21.27-52.19-56.64-52.19-56.64H203.43l20.79,56.3s18,8.82,52.9,35c12.32,9.25,25.22,42.61,39,60.36C319.47,415.21,339.14,419.7,339.14,419.7Z" style="fill:#263238"></path><polygon points="390.9 425.87 343.54 425.87 338.91 419.7 385.6 419.7 390.9 425.87" style="fill:#FFA52E"></polygon><path d="M203,309.94a77.58,77.58,0,0,1,8,1.52c2.64.61,5.25,1.36,7.84,2.21a74.5,74.5,0,0,1,7.59,3,44.13,44.13,0,0,1,7.08,4c-1.23-.58-2.41-1.23-3.66-1.74s-2.48-1.07-3.72-1.58q-3.76-1.45-7.61-2.73c-2.55-.86-5.14-1.62-7.72-2.41-1.29-.4-2.59-.77-3.89-1.14Z" style="fill:#37474f"></path><path d="M209.35,314.21a26.41,26.41,0,0,1,6.4-.24A20.79,20.79,0,0,1,222,315.3c-2.15-.05-4.23-.19-6.34-.34A57.26,57.26,0,0,1,209.35,314.21Z" style="fill:#37474f"></path><path d="M254.18,324.13c2.79,2.14,5.48,4.38,8.15,6.66s5.29,4.63,7.85,7c1.27,1.22,2.54,2.43,3.77,3.7a31.75,31.75,0,0,1,3.43,4.06,52.59,52.59,0,0,1,5.23,9.16c-.89-1.51-1.81-3-2.8-4.45s-2-2.88-3.05-4.25a36.31,36.31,0,0,0-3.49-3.85c-1.23-1.24-2.5-2.44-3.77-3.64l-7.68-7.19L258,327.77Z" style="fill:#37474f"></path><path d="M347.89,419.7l-3.74-.87-3.72-1a58.88,58.88,0,0,1-7.32-2.47,13.1,13.1,0,0,1-1.78-.92,5.63,5.63,0,0,1-1.44-1.49,30.05,30.05,0,0,1-2-3.33,69.14,69.14,0,0,1-3.26-7l2,3.31c.64,1.11,1.29,2.21,2,3.29s1.35,2.16,2.11,3.14a5,5,0,0,0,1.22,1.24l.79.44.85.39c2.31,1,4.74,1.8,7.14,2.65S345.51,418.74,347.89,419.7Z" style="fill:#37474f"></path><path d="M362.11,419.7c.15-1,.34-1.94.47-2.91.08-.49.15-1,.2-1.45,0-.24,0-.48.05-.71a2.34,2.34,0,0,0-.09-.63,22.69,22.69,0,0,0-1-2.7q-.57-1.35-1.2-2.67c-.4-.89-.83-1.77-1.28-2.63-.11-.2-.22-.43-.34-.62s-.13-.21-.18-.27l-.07-.1a.19.19,0,0,0,.13.05c.1,0-.16.08-.27.24a3.62,3.62,0,0,0-.41.52,9,9,0,0,0-1.12,2.6,3.26,3.26,0,0,0,.26,2.76,2.22,2.22,0,0,1-.7-1.31,5.24,5.24,0,0,1,0-1.53,8.25,8.25,0,0,1,.93-2.92,5.51,5.51,0,0,1,.44-.67,2.45,2.45,0,0,1,.32-.33,1,1,0,0,1,.61-.24.76.76,0,0,1,.46.19l.16.18c.11.13.16.23.24.34s.27.44.41.65c.49.88.93,1.77,1.36,2.66a28.29,28.29,0,0,1,2.05,5.64,2.93,2.93,0,0,1,.05.84,6.35,6.35,0,0,1-.13.76c-.1.49-.22,1-.36,1.45C362.77,417.84,362.48,418.78,362.11,419.7Z" style="fill:#37474f"></path><path d="M364.9,419.7l1.85-4.38a13,13,0,0,0,.71-2.16,11.39,11.39,0,0,0,0-2.25c-.2-3.14-.49-6.3-.48-9.5a56.88,56.88,0,0,1,1.48,9.44,11.72,11.72,0,0,1,0,2.5,11,11,0,0,1-.93,2.3A27.92,27.92,0,0,1,364.9,419.7Z" style="fill:#37474f"></path><path d="M376.47,419.7c.66-1.86,1.31-3.73,1.89-5.59.28-.94.55-1.88.73-2.81a9.37,9.37,0,0,0,.07-2.8,26,26,0,0,0-1.42-5.6c-.66-1.83-1.39-3.66-2.2-5.47a27.52,27.52,0,0,1,2.95,5.17,19.84,19.84,0,0,1,1.65,5.79,8.93,8.93,0,0,1-.16,3.09,20.88,20.88,0,0,1-.92,2.87A41.86,41.86,0,0,1,376.47,419.7Z" style="fill:#37474f"></path><path d="M250.92,259.16a37.3,37.3,0,0,1,5.31,3.18q1.27.89,2.49,1.86c.41.32.8.65,1.19,1,.2.18.39.35.59.55a4.09,4.09,0,0,1,.52.7,21.41,21.41,0,0,1,2,6,55.36,55.36,0,0,1,.89,6.12q-.72-3-1.54-6c-.28-1-.57-2-.91-2.91a13.58,13.58,0,0,0-1.2-2.71,3.19,3.19,0,0,0-.4-.53l-.55-.49-1.16-1L255.71,263Z" style="fill:#37474f"></path><path d="M247.82,259.16c-.15,1-.34,1.95-.47,2.92-.08.49-.15,1-.2,1.45,0,.24,0,.48-.05.71a2.34,2.34,0,0,0,.09.63,22.69,22.69,0,0,0,1,2.7c.38.89.78,1.79,1.2,2.67s.83,1.77,1.28,2.63c.11.2.22.42.34.62s.13.21.18.27l.07.09a.25.25,0,0,0-.13,0c-.1,0,.16-.08.27-.24a3.23,3.23,0,0,0,.41-.53,8.81,8.81,0,0,0,1.12-2.59,3.28,3.28,0,0,0-.26-2.77,2.28,2.28,0,0,1,.7,1.32,5.24,5.24,0,0,1,0,1.53,8.13,8.13,0,0,1-.93,2.91,5.61,5.61,0,0,1-.44.68,1.94,1.94,0,0,1-.32.32.94.94,0,0,1-.61.25.76.76,0,0,1-.46-.19l-.16-.18c-.11-.13-.16-.23-.24-.34s-.27-.44-.41-.66c-.49-.87-.93-1.76-1.36-2.66a28.07,28.07,0,0,1-2-5.64,2.84,2.84,0,0,1-.05-.83,6.35,6.35,0,0,1,.13-.76c.1-.49.22-1,.36-1.45C247.16,261,247.45,260.08,247.82,259.16Z" style="fill:#37474f"></path><path d="M233.68,259.16l-1.85,4.38a13.27,13.27,0,0,0-.71,2.16,11.38,11.38,0,0,0,0,2.25c.2,3.15.49,6.31.48,9.5a56.6,56.6,0,0,1-1.48-9.43,11.71,11.71,0,0,1,0-2.5,10.74,10.74,0,0,1,.93-2.3A28.57,28.57,0,0,1,233.68,259.16Z" style="fill:#37474f"></path><path d="M203.43,259.16c0,1.49-.06,3-.15,4.44l-.16,2.21-.1,1.1,0,.55a3.08,3.08,0,0,1-.07.35,2.38,2.38,0,0,1-.12.32,8,8,0,0,1-1.37,1.91,21.53,21.53,0,0,1-1.6,1.57,25.13,25.13,0,0,1-3.59,2.64c1-1.12,2-2.19,3-3.26a19,19,0,0,0,2.69-3.26c0-.07.05-.14.08-.2a1.18,1.18,0,0,0,0-.19l.08-.55.15-1.09.33-2.18C202.84,262.06,203.11,260.61,203.43,259.16Z" style="fill:#37474f"></path><path d="M213.72,259.16a36.11,36.11,0,0,1-1.1,4.88,10,10,0,0,0-.27,1.15,4.29,4.29,0,0,0,0,1.14,16.4,16.4,0,0,1-.07,2.52,14.81,14.81,0,0,1-.71-2.44,4,4,0,0,1-.15-1.34,8.67,8.67,0,0,1,.24-1.29,17.88,17.88,0,0,1,.86-2.39A13.4,13.4,0,0,1,213.72,259.16Z" style="fill:#37474f"></path><path d="M200.92,259l.17-4.24A32.55,32.55,0,0,1,183,252.57c-10-4.06-11.53-17.26-21.92-25.45s-33.35.79-49.09-6.52l-4.83,13.45a53.64,53.64,0,0,0,18.58,2.18c10.69-.55,21.82-5.3,29.7-2.39s12.53,19.56,21.44,23.4C186.2,261.28,200.92,259,200.92,259Z" style="fill:#FFA52E"></path><path d="M201.08,254.71l-.17,4.24s-1.46.24-3.76.43l-2.61-4.26A25.91,25.91,0,0,0,201.08,254.71Z" style="opacity:0.1"></path><path d="M182.51,252.38l-1,6.32a25.09,25.09,0,0,1-4.71-1.46c-3-1.3-5.58-4.1-7.93-7.33l5.32-5.21C176.45,248,178.93,250.79,182.51,252.38Z" style="opacity:0.1"></path><path d="M115.42,292.15l-6.14-11.86s7.34,3.36,17.33-.7,11.22-14.17,21.92-22c12.85-9.36,34.8,9.54,52.42,1.08l1.62,3.39c-18.71,7.88-39.55-4.3-48.4-.07-7.59,3.62-12.31,19.51-21.44,25.09A34.23,34.23,0,0,1,115.42,292.15Z" style="fill:#FFA52E"></path><path d="M202.57,262.1c-.64.27-1.29.52-1.94.74l-2.45-3a21,21,0,0,0,2.77-1.1Z" style="opacity:0.1"></path><path d="M140.12,279.71a31.35,31.35,0,0,1-5.66,6.19l-9-5.88c.38-.13.75-.27,1.14-.43a21.13,21.13,0,0,0,9-7.32Z" style="opacity:0.1"></path><path d="M203.8,209.34c-8.67-.68-37.16-2.3-55.86-10-9.34-3.87-43.75-31.77-43.33-36.4.21-2.47,21-22.89,24.6-21.43,1.83.74,28.09,31.27,31.84,33.79,3.18,2.14,37.89,19.41,43.76,22.79C217.9,205.58,210,209.82,203.8,209.34Z" style="fill:#f7a9a0"></path><path d="M93.41,154.42c4.48,5.48,12.07,13.25,16,15,3.69,1.6,26.4-18.93,24.77-22.72-5.07-11.78-18.44-22.83-25.5-24.34S88.78,148.74,93.41,154.42Z" style="fill:#37474f"></path><path d="M97,156l6.79,4.83S175.34,75.89,222.77,43l-11.52,1.78a26.45,26.45,0,0,0-13.48,6.31C181,65.88,132.08,110.38,97,156Z" style="fill:#dbdbdb"></path><path d="M100.28,158.36c4-4.93,8-9.76,12.08-14.59q3.06-3.6,6.16-7.19c2.07-2.38,4.12-4.77,6.22-7.14q12.48-14.23,25.53-28c8.73-9.12,17.58-18.14,26.84-26.73s18.75-17,29-24.28l-7.43,5.87c-.63.47-1.21,1-1.81,1.51l-1.8,1.55-3.58,3.08L189.74,64,188,65.59l-3.49,3.19L181,72l-3.41,3.28-3.41,3.28-1.71,1.63c-.57.54-1.12,1.11-1.68,1.66l-6.71,6.67c-2.23,2.24-4.41,4.52-6.61,6.77l-3.29,3.4-3.25,3.44c-2.17,2.29-4.37,4.55-6.51,6.87L138,115.9l-6.38,7-6.34,7c-2.13,2.34-4.21,4.7-6.31,7.06s-4.18,4.73-6.26,7.1Q106.43,151.17,100.28,158.36Z" style="fill:#c7c7c7"></path><path d="M123.7,122.91l9.16,7s-43.62,53.24-45.25,53.48S77,176.47,76.72,175.08,122.33,123.74,123.7,122.91Z" style="fill:#FFA52E"></path><g style="opacity:0.2"><path d="M83.87,167.78A32.17,32.17,0,0,1,85.42,171c.46,1.08.88,2.17,1.29,3.27s.77,2.21,1.09,3.34a33,33,0,0,1,.84,3.43,32.09,32.09,0,0,1-1.54-3.18c-.47-1.07-.88-2.17-1.29-3.27s-.77-2.21-1.09-3.34S84.09,169,83.87,167.78Z"></path><path d="M93.18,175.59a31.68,31.68,0,0,1-3.52-.23c-1.17-.13-2.33-.31-3.48-.5s-2.31-.43-3.45-.7a34.49,34.49,0,0,1-3.4-1,31.86,31.86,0,0,1,3.53.23c1.17.13,2.32.31,3.48.5s2.3.43,3.44.71A33.67,33.67,0,0,1,93.18,175.59Z"></path></g><g style="opacity:0.2"><path d="M89.2,161.76a32,32,0,0,1,1.54,3.18c.47,1.08.89,2.18,1.3,3.28s.76,2.21,1.09,3.34A32.39,32.39,0,0,1,94,175a33.2,33.2,0,0,1-1.54-3.18c-.47-1.08-.88-2.17-1.29-3.27s-.77-2.22-1.09-3.34S89.42,162.93,89.2,161.76Z"></path><path d="M98.51,169.58a34.29,34.29,0,0,1-3.52-.24c-1.17-.12-2.33-.3-3.48-.49s-2.31-.43-3.45-.71a32,32,0,0,1-3.4-1,34.49,34.49,0,0,1,3.53.24c1.17.12,2.32.3,3.48.5s2.3.43,3.44.7A31.3,31.3,0,0,1,98.51,169.58Z"></path></g><g style="opacity:0.2"><path d="M94.53,155.75a31,31,0,0,1,1.54,3.18c.47,1.08.89,2.17,1.3,3.27s.76,2.21,1.09,3.34A33,33,0,0,1,99.3,169a32.09,32.09,0,0,1-1.54-3.18c-.47-1.07-.89-2.17-1.29-3.27s-.77-2.21-1.09-3.34A32.42,32.42,0,0,1,94.53,155.75Z"></path><path d="M103.84,163.56a31.52,31.52,0,0,1-3.52-.23c-1.17-.13-2.33-.31-3.48-.5s-2.31-.43-3.45-.7a32,32,0,0,1-3.4-1,31.86,31.86,0,0,1,3.53.23c1.17.13,2.32.31,3.48.5s2.3.43,3.44.71A33.67,33.67,0,0,1,103.84,163.56Z"></path></g><g style="opacity:0.2"><path d="M99.86,149.74a30,30,0,0,1,1.54,3.18c.47,1.07.89,2.17,1.29,3.27s.77,2.21,1.1,3.34a32.39,32.39,0,0,1,.84,3.43,32.09,32.09,0,0,1-1.54-3.18c-.47-1.08-.89-2.17-1.29-3.27s-.77-2.21-1.09-3.34A31.23,31.23,0,0,1,99.86,149.74Z"></path><path d="M109.17,157.55a31.52,31.52,0,0,1-3.52-.24c-1.17-.12-2.33-.3-3.49-.49s-2.3-.43-3.44-.71a34.43,34.43,0,0,1-3.4-1,31.86,31.86,0,0,1,3.53.23c1.16.13,2.32.31,3.48.5s2.3.43,3.44.7A34.49,34.49,0,0,1,109.17,157.55Z"></path></g><g style="opacity:0.2"><path d="M105.1,143.88a30.9,30.9,0,0,1,1.5,3.06c.45,1,.85,2.08,1.24,3.14s.74,2.13,1,3.22a30,30,0,0,1,.8,3.3,30.75,30.75,0,0,1-1.5-3c-.45-1-.86-2.09-1.25-3.15s-.73-2.13-1-3.21A30.69,30.69,0,0,1,105.1,143.88Z"></path><path d="M114.05,151.4a31.8,31.8,0,0,1-3.39-.21c-1.12-.12-2.24-.29-3.35-.48s-2.21-.41-3.31-.68a32,32,0,0,1-3.27-.94,27.47,27.47,0,0,1,3.4.21c1.12.12,2.23.29,3.34.47s2.22.42,3.32.69A29.44,29.44,0,0,1,114.05,151.4Z"></path></g><g style="opacity:0.2"><path d="M110.47,138a29.08,29.08,0,0,1,1.48,3c.45,1,.85,2.06,1.23,3.1s.73,2.11,1,3.18a29.38,29.38,0,0,1,.78,3.27,30.1,30.1,0,0,1-1.48-3c-.45-1-.85-2.06-1.23-3.1s-.73-2.11-1-3.18A29.38,29.38,0,0,1,110.47,138Z"></path><path d="M119.31,145.38a31.06,31.06,0,0,1-3.35-.21c-1.11-.11-2.21-.29-3.31-.47s-2.19-.41-3.27-.67a29.58,29.58,0,0,1-3.23-.94,28.86,28.86,0,0,1,3.36.21c1.11.11,2.21.28,3.31.46s2.18.41,3.27.68A28.79,28.79,0,0,1,119.31,145.38Z"></path></g><g style="opacity:0.2"><path d="M115.82,132.13a25.7,25.7,0,0,1,1.43,2.88c.44,1,.82,2,1.19,3s.69,2,1,3a27.56,27.56,0,0,1,.74,3.14,27.77,27.77,0,0,1-1.44-2.89c-.43-1-.81-2-1.18-3s-.69-2-1-3.05A26.9,26.9,0,0,1,115.82,132.13Z"></path><path d="M124.29,139.24a28.51,28.51,0,0,1-3.21-.18c-1.07-.11-2.12-.27-3.17-.44s-2.1-.4-3.14-.65a26.46,26.46,0,0,1-3.08-.92,28.51,28.51,0,0,1,3.21.18c1.06.11,2.12.27,3.17.45s2.1.39,3.13.65A28,28,0,0,1,124.29,139.24Z"></path></g><g style="opacity:0.2"><path d="M121.21,126.53a24.82,24.82,0,0,1,1.36,2.67c.4.91.77,1.83,1.1,2.76s.64,1.88.91,2.83a23.91,23.91,0,0,1,.66,2.93,26.83,26.83,0,0,1-1.36-2.67c-.4-.91-.77-1.83-1.1-2.77s-.64-1.87-.91-2.83A23.76,23.76,0,0,1,121.21,126.53Z"></path><path d="M129.08,133.14a24.74,24.74,0,0,1-3-.14c-1-.1-2-.24-3-.41s-1.94-.37-2.91-.61a23,23,0,0,1-2.86-.88,24.74,24.74,0,0,1,3,.15c1,.1,2,.23,3,.4s1.94.38,2.91.62A22.9,22.9,0,0,1,129.08,133.14Z"></path></g><path d="M119.07,126.82c.53,3.71-4.15,2.2-4.15,2.2s6.21,3.79,5.27,7.83-6.5,1.87-6.9,1.73c.33.21,5.94,3.84,4.58,7.8-1.41,4.11-6.67,1.12-7,.93.25.29,3.47,4.16,1.75,6.93-3,4.77-11.45-4.91-16-5,0,0-2.8,5.39-2.88,5.61,0,0-6.53-6.77-6-12.88A3.91,3.91,0,0,1,91,138.34s-3-2.62-2-5.77c.5-1.62,3.54-2.25,3.54-2.25s-2.31-2.2-1.27-4.95c.82-2.2,3.73-2.49,3.73-2.49s-1.23-3.14.34-5.11C98.47,113.79,117.94,118.87,119.07,126.82Z" style="fill:#37474f"></path><path d="M95,122.9c-.06,0-.06-.11,0-.1a34.86,34.86,0,0,1,19.74,6.42c.18.13,0,.48-.19.37A71.53,71.53,0,0,0,95,122.9Z" style="fill:#263238"></path><path d="M92.42,130.39c-.08,0-.06-.14,0-.14,7,.15,15.34,2.87,21.1,8.34.2.19.19.56-.06.36C109.37,135.6,98.82,131.49,92.42,130.39Z" style="fill:#263238"></path><path d="M110.91,147.93c-5.73-5-12.5-7.74-19.85-9.51-.09,0,0-.15,0-.15,3.83-.12,8.39,1.5,11.84,3.06a20.05,20.05,0,0,1,8.14,6.4C111.17,147.84,111,148,110.91,147.93Z" style="fill:#263238"></path><path d="M114.92,129a23.79,23.79,0,0,1,3.12,2.8,7.78,7.78,0,0,1,2,3.47,2.56,2.56,0,0,1-.29,1.79,3.76,3.76,0,0,1-1.33,1.3,4.46,4.46,0,0,1-3.65.07l-2.88-1.09,2.33,2a12.64,12.64,0,0,1,2.63,3.11,4.51,4.51,0,0,1,.64,3.62,2.57,2.57,0,0,1-2.61,1.92,7.79,7.79,0,0,1-3.7-1.23l-3.12-1.87,2.33,2.78a12,12,0,0,1,1.63,2.53,5,5,0,0,1,.53,2.76,2.33,2.33,0,0,1-1.57,1.87,5.15,5.15,0,0,1-2.85-.34,41.33,41.33,0,0,1-5.65-2.82c-.93-.52-1.86-1-2.82-1.52a7.72,7.72,0,0,0-3-1,8.28,8.28,0,0,1,2.91,1.22c.91.54,1.79,1.13,2.68,1.72a34.73,34.73,0,0,0,5.62,3.19,6.1,6.1,0,0,0,3.4.51,3.28,3.28,0,0,0,2.43-2.66,5.9,5.9,0,0,0-.57-3.45,13.16,13.16,0,0,0-1.77-2.85l-.79.91a8.85,8.85,0,0,0,4.35,1.49,3.73,3.73,0,0,0,2.41-.75,4.23,4.23,0,0,0,1.38-2.07,5.68,5.68,0,0,0-.81-4.59,13.58,13.58,0,0,0-3-3.37l-.55.93a5.32,5.32,0,0,0,4.51-.32,4.37,4.37,0,0,0,1.56-1.69,3.27,3.27,0,0,0,.28-2.29,8,8,0,0,0-2.4-3.6A19.86,19.86,0,0,0,114.92,129Z" style="fill:#263238"></path><path d="M132.77,143.77s-9.66-31.1-19.34-22.33c-2.88,2.61-11.59,16.75-8.78,18.55,3.62,2.33,8.36-2.89,10.81-6.65,0,0,1.44,10.22,8.85,11.33A17.35,17.35,0,0,0,132.77,143.77Z" style="fill:#37474f"></path><path d="M114.28,120.76a15.5,15.5,0,0,0-3.3,3.17,31.74,31.74,0,0,0-2.67,3.74,52.21,52.21,0,0,0-4.26,8.16,8.41,8.41,0,0,0-.6,2.37,3.17,3.17,0,0,0,.16,1.38,2.18,2.18,0,0,0,.37.68,2.38,2.38,0,0,0,.57.5,3.84,3.84,0,0,0,2.63.53,7.22,7.22,0,0,0,2.36-.84,14.12,14.12,0,0,0,3.6-3.08,31,31,0,0,0,2.76-3.73l-1-.23a19.09,19.09,0,0,0,.95,3.39,16.58,16.58,0,0,0,1.55,3.13,11.78,11.78,0,0,0,2.29,2.63,9,9,0,0,0,3,1.7,10.34,10.34,0,0,1-2.74-2,12.34,12.34,0,0,1-2-2.7,15.93,15.93,0,0,1-1.31-3.07,16.94,16.94,0,0,1-.71-3.24l-.16-1.36-.81,1.13a34,34,0,0,1-2.78,3.51,13.65,13.65,0,0,1-3.32,2.78c-1.2.66-2.69,1-3.67.36-.91-.49-.54-2.12-.07-3.46a44.81,44.81,0,0,1,1.77-4.12c.65-1.37,1.31-2.73,2-4.05A29.36,29.36,0,0,1,114.28,120.76Z" style="fill:#263238"></path><path d="M133,145l-23.5,24.68s3,3,5.15,4.91c0,0,2.21,5.52,3.62,6.77,7.65,6.78,23.4,16.7,29.52,19.07,9.47,3.67,35,8.28,51.89,9.74s16-7.33,2.58-14.55-39.38-20.88-41-22c-1-.65-11.56-14.58-18-20.95-1.45-1.44-6-3.14-6.34-3.4Z" style="fill:#263238"></path><path d="M199.71,210.19c-7.57-.65-16.83-1.93-25.62-3.48,8.91-2.61,22.76-6,32.5-8.4C215.68,204.84,214.61,211.48,199.71,210.19Z" style="fill:#37474f"></path><path d="M264.11,259.16s-60.68,0-60.68,0-7.36-6-9.1-8.93c-5.38-9.17-9-27.15,2.21-56.52,1-2.65,12.65-7,18.62-2.81,17.77,12.34,37.7,41.15,47.27,57.5C267,256.11,264.11,259.16,264.11,259.16Z" style="fill:#263238"></path><path d="M323.71,244.65l-7.32-4s-61.06,92.79-104.29,131l11.23-3.12A26.44,26.44,0,0,0,236,360.72C250.89,344.06,294.23,294.1,323.71,244.65Z" style="fill:#dbdbdb"></path><path d="M320.15,242.71c-3.34,5.36-6.81,10.63-10.27,15.91-1.75,2.62-3.5,5.25-5.28,7.86s-3.53,5.23-5.33,7.83q-10.72,15.6-22,30.79c-7.6,10.08-15.32,20.09-23.51,29.71s-16.62,19.05-26,27.53l6.69-6.7c.57-.55,1.08-1.14,1.62-1.72l1.6-1.74,3.2-3.49,1.6-1.74,1.55-1.79,3.09-3.57,3.09-3.58,3-3.66,3-3.66,1.51-1.82c.5-.61,1-1.23,1.47-1.85l5.88-7.41c2-2.48,3.84-5,5.76-7.51l2.87-3.76,2.82-3.79c1.89-2.54,3.81-5,5.66-7.59l5.58-7.64,5.51-7.7,5.47-7.72c1.83-2.57,3.63-5.16,5.43-7.75s3.59-5.19,5.38-7.79Q314.89,250.59,320.15,242.71Z" style="fill:#c7c7c7"></path><path d="M301.07,280.67l-9.91-5.83s37-58,38.63-58.44,11.36,5.58,11.78,6.93S302.33,279.68,301.07,280.67Z" style="fill:#FFA52E"></path><g style="opacity:0.2"><path d="M335.33,231.42a34.67,34.67,0,0,1-1.9-3c-.59-1-1.14-2.06-1.67-3.1s-1-2.11-1.48-3.19a33.59,33.59,0,0,1-1.24-3.31,33.44,33.44,0,0,1,1.91,3c.59,1,1.13,2,1.66,3.09s1,2.11,1.48,3.19A32.08,32.08,0,0,1,335.33,231.42Z"></path><path d="M325.17,224.76a29.81,29.81,0,0,1,3.53-.18c1.17,0,2.34,0,3.51.08s2.34.16,3.51.3a30.15,30.15,0,0,1,3.49.56,34.92,34.92,0,0,1-3.53.18c-1.18,0-2.35,0-3.52-.09s-2.34-.15-3.5-.29A32.07,32.07,0,0,1,325.17,224.76Z"></path></g><g style="opacity:0.2"><path d="M330.75,238a32.39,32.39,0,0,1-1.9-3c-.6-1-1.14-2.06-1.67-3.1s-1-2.11-1.48-3.19a31.24,31.24,0,0,1-1.24-3.31,31.23,31.23,0,0,1,1.9,3c.6,1,1.14,2,1.67,3.09s1,2.11,1.48,3.19A34.57,34.57,0,0,1,330.75,238Z"></path><path d="M320.58,231.36a35.07,35.07,0,0,1,3.53-.18c1.18,0,2.35,0,3.52.08s2.34.16,3.5.3a32.07,32.07,0,0,1,3.49.56,34.77,34.77,0,0,1-3.53.18c-1.17,0-2.34,0-3.51-.09s-2.34-.15-3.51-.29A32.47,32.47,0,0,1,320.58,231.36Z"></path></g><g style="opacity:0.2"><path d="M326.17,244.62a34.78,34.78,0,0,1-1.91-3c-.59-1-1.13-2.06-1.67-3.1s-1-2.11-1.48-3.19a33.59,33.59,0,0,1-1.24-3.31,31.33,31.33,0,0,1,1.91,3c.59,1,1.13,2.05,1.67,3.09s1,2.11,1.47,3.19A32.14,32.14,0,0,1,326.17,244.62Z"></path><path d="M316,238a34.92,34.92,0,0,1,3.53-.18c1.17,0,2.35,0,3.52.08s2.33.16,3.5.3a32.07,32.07,0,0,1,3.49.56,34.92,34.92,0,0,1-3.53.18c-1.17,0-2.35,0-3.52-.09s-2.33-.15-3.5-.29A32.07,32.07,0,0,1,316,238Z"></path></g><g style="opacity:0.2"><path d="M321.58,251.22a34.67,34.67,0,0,1-1.9-3c-.59-1-1.14-2.06-1.67-3.1s-1-2.11-1.48-3.19a33.59,33.59,0,0,1-1.24-3.31,33.44,33.44,0,0,1,1.91,3c.59,1,1.13,2.05,1.66,3.1s1,2.1,1.48,3.18A34.57,34.57,0,0,1,321.58,251.22Z"></path><path d="M311.42,244.56a34.77,34.77,0,0,1,3.53-.18c1.17,0,2.34,0,3.51.08s2.34.16,3.51.3a31.9,31.9,0,0,1,3.48.56,34.72,34.72,0,0,1-3.52.18c-1.18,0-2.35,0-3.52-.09s-2.34-.15-3.5-.29A32.07,32.07,0,0,1,311.42,244.56Z"></path></g><g style="opacity:0.2"><path d="M317.07,257.65a30,30,0,0,1-1.84-2.85c-.58-1-1.1-2-1.61-3s-1-2-1.42-3.07a31.12,31.12,0,0,1-1.18-3.19,28.93,28.93,0,0,1,1.84,2.86c.58,1,1.1,2,1.61,3s1,2,1.42,3.07A32,32,0,0,1,317.07,257.65Z"></path><path d="M307.29,251.24a29.91,29.91,0,0,1,3.4-.18c1.13,0,2.25,0,3.38.07s2.25.15,3.37.29a29.6,29.6,0,0,1,3.35.55,29.63,29.63,0,0,1-3.39.19c-1.13,0-2.26,0-3.38-.08s-2.25-.15-3.37-.28A32.7,32.7,0,0,1,307.29,251.24Z"></path></g><g style="opacity:0.2"><path d="M312.44,264.17a27.17,27.17,0,0,1-1.83-2.82c-.56-1-1.08-1.94-1.59-2.93s-1-2-1.4-3a29.5,29.5,0,0,1-1.16-3.15,31.55,31.55,0,0,1,1.83,2.82c.56,1,1.08,1.95,1.58,2.94s1,2,1.4,3A29,29,0,0,1,312.44,264.17Z"></path><path d="M302.78,257.84a31.49,31.49,0,0,1,3.35-.19c1.12,0,2.23,0,3.34.08s2.23.15,3.33.28a29.09,29.09,0,0,1,3.32.55,29.11,29.11,0,0,1-3.36.19c-1.11,0-2.23,0-3.34-.07s-2.22-.15-3.33-.29A29.29,29.29,0,0,1,302.78,257.84Z"></path></g><g style="opacity:0.2"><path d="M307.81,270.59a29,29,0,0,1-1.76-2.7c-.55-.92-1-1.86-1.53-2.81s-.93-1.92-1.34-2.91a27.23,27.23,0,0,1-1.1-3,27.21,27.21,0,0,1,1.77,2.7c.54.92,1,1.86,1.52,2.81s.93,1.92,1.34,2.91A28.78,28.78,0,0,1,307.81,270.59Z"></path><path d="M298.56,264.52a28.81,28.81,0,0,1,3.21-.2c1.07,0,2.14,0,3.2.07s2.13.14,3.19.28a25.15,25.15,0,0,1,3.18.54,26.89,26.89,0,0,1-3.22.2c-1.07,0-2.13,0-3.2-.07s-2.13-.14-3.19-.28A24.7,24.7,0,0,1,298.56,264.52Z"></path></g><g style="opacity:0.2"><path d="M303.12,276.78a21.55,21.55,0,0,1-1.66-2.49c-.51-.85-1-1.72-1.43-2.61s-.85-1.79-1.24-2.71a22.39,22.39,0,0,1-1-2.82,25.05,25.05,0,0,1,1.66,2.49c.5.86,1,1.73,1.42,2.61s.86,1.79,1.24,2.71A24.81,24.81,0,0,1,303.12,276.78Z"></path><path d="M294.52,271.15a21.47,21.47,0,0,1,3-.21c1,0,2,0,3,.05s2,.14,3,.27a23.43,23.43,0,0,1,2.95.53,25.19,25.19,0,0,1-3,.21c-1,0-2,0-3-.06s-2-.14-3-.26A25,25,0,0,1,294.52,271.15Z"></path></g><path d="M217.23,202.82c25.46,21.78,65.88,48.83,74.51,53.29,5.87,3,22.56-27.59,18.27-29.05-5.49-1.87-56.4-22.92-82-30.95C213.91,191.68,211.08,197.56,217.23,202.82Z" style="fill:#f7a9a0"></path><path d="M326.24,275.07c2.8-2.25,1.45-5.71,1.45-5.71a7.69,7.69,0,0,0,4.65-2.35c2.05-2.39-.8-6.65-.8-6.65a9.44,9.44,0,0,0,4.51-3.26c1.73-2.48-.53-7.2-.53-7.2a8.29,8.29,0,0,0,2.16-5.36c-.07-5.31-7-9.52-11.38-12.24S306.93,226,304.15,225l-17.71,28s16.18,17.79,21.78,20.26C313,275.3,323.1,277.59,326.24,275.07Z" style="fill:#37474f"></path><path d="M327.21,269.69c-5.55-1-10.5-3.6-15.59-5.91-.12,0,0-.23.08-.18,5,2.36,10.47,3.68,15.59,5.83A.14.14,0,0,1,327.21,269.69Z" style="fill:#263238"></path><path d="M331.22,260.66a14.32,14.32,0,0,1-3.53-1.52c-1.22-.62-2.42-1.27-3.61-1.93-2.38-1.33-4.74-2.71-7.05-4.16-.1-.07,0-.24.08-.18,2.38,1.32,4.78,2.61,7.21,3.82L328,258.5a17.32,17.32,0,0,1,3.39,1.83A.19.19,0,0,1,331.22,260.66Z" style="fill:#263238"></path><path d="M335.42,249.85a10.51,10.51,0,0,1-3.11-1.54c-1.07-.63-2.15-1.25-3.23-1.87-2.16-1.23-4.32-2.46-6.52-3.62-.11,0,0-.23.08-.17,2.24,1.16,4.5,2.29,6.73,3.48,1.1.58,2.2,1.16,3.29,1.76a9.55,9.55,0,0,1,2.83,1.85A.08.08,0,0,1,335.42,249.85Z" style="fill:#263238"></path><path d="M286.86,253.42,304.66,225l-5-2.07a4.9,4.9,0,0,0-3.33-4.42c-43.05-15.69-56.07-20.33-72.24-24.54-11.56-3-18.62,0-8.3,10.34,6.48,6.49,44.46,38.8,58.82,45.46,2,.92,7.91.8,7.91.8C285,252.15,286.86,253.42,286.86,253.42Z" style="fill:#263238"></path><path d="M254.24,236.32c-3.06-2.15-6-4.42-9-6.72s-5.87-4.67-8.78-7-5.77-4.81-8.6-7.29-5.64-5-8.38-7.56c3,2.3,5.87,4.67,8.79,7l8.7,7.13,8.66,7.18C248.5,231.47,251.39,233.88,254.24,236.32Z" style="fill:#37474f"></path><path d="M227.46,214.82a21.68,21.68,0,0,1-3.38-1.58,22.55,22.55,0,0,1-3.11-2.09,20.76,20.76,0,0,1,3.38,1.57A21.76,21.76,0,0,1,227.46,214.82Z" style="fill:#37474f"></path><path d="M202.7,205.64c3.76.35,10.74-5,12.61-10.55.13-.38-1.06-3.94-2.29-8.34-.74-2.68-1.5-5.67-2-8.45-.1-.57-16.7,7.34-16.7,7.34A44.88,44.88,0,0,1,197.92,196a5.91,5.91,0,0,1,.08,1.17c0,.05,0,.12,0,.19C198.05,199.61,198.68,205.26,202.7,205.64Z" style="fill:#f7a9a0"></path><path d="M202.7,205.64c3.76.35,10.74-5,12.61-10.55.13-.38-1.06-3.94-2.29-8.34-.74-2.68-1.5-5.67-2-8.45-.1-.57-16.7,7.34-16.7,7.34A44.88,44.88,0,0,1,197.92,196a5.91,5.91,0,0,1,.08,1.17c0,.05,0,.12,0,.19C198.05,199.61,198.68,205.26,202.7,205.64Z" style="fill:#f7a9a0"></path><path d="M214.66,192.38c-9.19,3-15.5-.61-19.09-4-.69-1.66-1.24-2.77-1.24-2.77s16.6-7.91,16.7-7.34c.49,2.78,1.25,5.78,2,8.44C213.63,188.92,214.23,190.89,214.66,192.38Z" style="fill:#263238"></path><path d="M188.69,157.15c-2.24,6.17.11,24.48,4.36,28.75,6.16,6.21,16.73,7.33,22.12-.19,5.22-7.28,1.73-31.08-3.06-35C205.05,144.89,192,148,188.69,157.15Z" style="fill:#f7a9a0"></path><path d="M215.88,158.63v0c-.81-1.51-3.08-4.07-5.38-4-1,0-2.61,1.34-4.75,1.66-2.88.44-4.74-1.58-8-.78-2.53.63-6.69,3.34-6.15,11.63.47,7.14-2.4,8.39-2.61,8.47-1.36-6.76-1.66-14.76-.32-18.44,3.33-9.12,16.36-12.26,23.42-6.45C213.55,151.88,214.87,154.86,215.88,158.63Z" style="fill:#263238"></path><path d="M201.36,170.84s-.08.07-.07.12c.2,1.2.24,2.61-.8,3.17,0,0,0,.07,0,.06C201.82,173.82,201.75,172,201.36,170.84Z" style="fill:#263238"></path><path d="M200.11,169.73c-2,.13-1.57,4,.25,3.93S201.75,169.63,200.11,169.73Z" style="fill:#263238"></path><path d="M208.86,169.49c0-.05.1,0,.1.09.08,1.22.39,2.6,1.52,2.89,0,0,0,.07,0,.07C209.12,172.49,208.74,170.65,208.86,169.49Z" style="fill:#263238"></path><path d="M209.81,168.11c1.94-.34,2.48,3.55.69,3.87S208.19,168.4,209.81,168.11Z" style="fill:#263238"></path><path d="M197.64,167.86c.53.14,1.05.19,1.59.28a2.61,2.61,0,0,0,1.68,0,.84.84,0,0,0,.38-.94,2.08,2.08,0,0,0-1.71-1.21,3,3,0,0,0-2.16.28A.89.89,0,0,0,197.64,167.86Z" style="fill:#263238"></path><path d="M211.54,166a13.8,13.8,0,0,1-1.55.46,2.66,2.66,0,0,1-1.67.16.85.85,0,0,1-.48-.9,2.1,2.1,0,0,1,1.57-1.39,3,3,0,0,1,2.18.05A.89.89,0,0,1,211.54,166Z" style="fill:#263238"></path><path d="M202.39,181.56c.32.25.65.62,1.09.61a3.25,3.25,0,0,0,1.28-.44s.08,0,.06.06a1.65,1.65,0,0,1-1.48.81,1.29,1.29,0,0,1-1.06-1A.07.07,0,0,1,202.39,181.56Z" style="fill:#263238"></path><path d="M203.44,180c2.38-.59,5.2-.84,5.21-1l-.5-2.78c.36.13,2.18.74,2.1.25a62.83,62.83,0,0,0-2.86-12.33c0-.13-.25-.08-.22,0,.47,3.88,1.62,7.66,2.16,11.55a7.48,7.48,0,0,0-2-.39,28,28,0,0,0,.49,3.18,17.78,17.78,0,0,0-4.41,1.15C203.25,179.82,203.33,180.05,203.44,180Z" style="fill:#263238"></path><path d="M188.85,177.05s15.72-4.53,19.88-4.73,9.92,2.13,9.92,2.13-.31,16.89-12.54,16.89S189.52,182.51,188.85,177.05Z" style="fill:#37474f"></path><path d="M217,164.28a22.38,22.38,0,0,0-13-2.71c-7,.81-14.44,6.64-16,7.32-.34-4.27-.38-9.06.66-11.74C192.2,148.1,205,145,212.11,150.7,214.92,152.93,216.38,159.12,217,164.28Z" style="fill:#263238"></path><path d="M187,168.5c1.1-.85,2.25-1.63,3.4-2.41s2.33-1.5,3.51-2.23a15.67,15.67,0,0,1,3.82-1.73,24.92,24.92,0,0,1,4.09-.83c-1.34.36-2.68.73-4,1.19-.64.25-1.29.48-1.9.78s-1.19.67-1.79,1C191.81,165.68,189.47,167.16,187,168.5Z" style="fill:#37474f"></path><path d="M187.37,167.23c.81-.68,1.65-1.3,2.48-1.94l2.51-1.89a11.2,11.2,0,0,1,2.88-1.37,17.14,17.14,0,0,1,3.07-.73,22.23,22.23,0,0,0-5.67,2.5c-.81.62-1.68,1.26-2.56,1.83S188.3,166.75,187.37,167.23Z" style="fill:#37474f"></path><path d="M209,161a25,25,0,0,1,2.6.34,22.42,22.42,0,0,1,2.55.59,9.59,9.59,0,0,1,2.41,1.11,13,13,0,0,1,2.08,1.61A21,21,0,0,0,214,162.4C212.37,161.9,210.68,161.51,209,161Z" style="fill:#37474f"></path><path d="M191.82,172.57s-3.58-6.21-6.36-5-.45,10,2.57,11.4a3.18,3.18,0,0,0,4.39-1.33Z" style="fill:#f7a9a0"></path><path d="M186.19,170.08a0,0,0,0,0,0,.08c2.11,1.08,3.09,3.2,3.71,5.37a1.76,1.76,0,0,0-2.58-.7c-.06,0,0,.13.05.12a2,2,0,0,1,2.09.86,9.59,9.59,0,0,1,.87,1.83c.09.2.45.13.4-.1l0,0C191,174.71,189.15,170.62,186.19,170.08Z" style="fill:#263238"></path><path d="M215.47,154.58c-3.72-6.62-9.64-8.73-16.32-7.19h0c-5.53.23-17.5,8.32-19.06,9.89s-4,12.36-3,12.08c.34-.1.79-1.93,1.71-1.93,1.33,0,3.95-.82,3.79-.35s-1.47,6.94-1,8a13.2,13.2,0,0,0,1.78,2.68,34.32,34.32,0,0,0,.88,6.28c1.07,4.23,9.91,7,11,7.92,3,2.59,1.93,12.94,5.56,15,3,1.71,9-2,9-2,1-1,4.57-4.53,6-9.25.36-1.2-1.12-5.82-.5-7.1.38-.79,4.71-3.12,5.29-7.27C221.32,176,219.29,161.39,215.47,154.58Zm-.15,28.16c-1.82,3.85-5.82,5.49-6.59,7.9s-2.14,2.23-2.14,2.23a30.79,30.79,0,0,0-3.6-2.29c-1.65-.91-7-3.93-8.86-7.13s-3.41-14.09.2-20.5c4.35-7.73,16.42-7.75,19.83,1.15C215.57,167.77,217.08,179,215.32,182.74Z" style="fill:#263238"></path><path d="M193.18,165.68a24.37,24.37,0,0,1,.52-2.81,17.83,17.83,0,0,1,.88-2.74,5.92,5.92,0,0,1,.73-1.29,7.19,7.19,0,0,1,1.06-1,11.86,11.86,0,0,1,2.44-1.52,25.66,25.66,0,0,0-2.19,1.81,10,10,0,0,0-.94,1,5.71,5.71,0,0,0-.64,1.2C194.32,162.05,193.8,163.88,193.18,165.68Z" style="fill:#37474f"></path><path d="M209,156.7a11.06,11.06,0,0,1,1.72,1,6.49,6.49,0,0,1,1.51,1.32,6.79,6.79,0,0,1,.84,1.82,11.6,11.6,0,0,1,.44,1.92l-.8-1.78a10,10,0,0,0-.88-1.66A9.8,9.8,0,0,0,210.5,158Z" style="fill:#37474f"></path><path d="M206.67,155a8.17,8.17,0,0,1,3.17,1.07,7.43,7.43,0,0,1,2.47,2.26c-.46-.33-.88-.67-1.34-1s-.91-.6-1.39-.86C208.65,156,207.68,155.52,206.67,155Z" style="fill:#37474f"></path><path d="M183.33,177.76c-.11-1.24-.16-2.48-.2-3.72l0-.93a4.45,4.45,0,0,1,0-1c.13-.63.3-1.22.47-1.82.36-1.19.74-2.37,1.17-3.53s.86-2.32,1.36-3.46c-.61,2.41-1.35,4.77-2,7.13-.17.59-.35,1.19-.48,1.77a17.89,17.89,0,0,0-.09,1.82C183.48,175.29,183.43,176.52,183.33,177.76Z" style="fill:#37474f"></path><path d="M182.6,167.08a14.22,14.22,0,0,1,.53-1.83,8.29,8.29,0,0,1,.36-.89,4.24,4.24,0,0,1,.57-.78,25.31,25.31,0,0,1,2.6-2.78,24.94,24.94,0,0,1-2.19,3.06,4.53,4.53,0,0,0-.56.72c-.16.26-.28.55-.43.82C183.2,166,182.92,166.53,182.6,167.08Z" style="fill:#37474f"></path><path d="M190.57,179.26a19.71,19.71,0,0,0,1.08,4.21,6.8,6.8,0,0,0,2.48,3.29c1.19.83,2.45,1.56,3.7,2.32l3.78,2.26a37.34,37.34,0,0,1-4.06-1.75,31.26,31.26,0,0,1-3.84-2.21,6.71,6.71,0,0,1-2.6-3.71A13,13,0,0,1,190.57,179.26Z" style="fill:#37474f"></path><path d="M216.69,171.69a34.74,34.74,0,0,1,.59,4.18,27.27,27.27,0,0,1,0,4.24,11.17,11.17,0,0,1-.39,2.11,4.92,4.92,0,0,1-1.1,1.86c-.89,1.08-1.77,2.17-2.63,3.27a35.49,35.49,0,0,1,2.32-3.51,5.09,5.09,0,0,0,1-1.75,12.46,12.46,0,0,0,.33-2,34.06,34.06,0,0,0,.09-4.17C216.86,174.49,216.78,173.1,216.69,171.69Z" style="fill:#37474f"></path><polygon points="201.78 262.47 197.53 254.39 264.91 254.39 267.44 262.47 201.78 262.47" style="fill:#FFA52E"></polygon></g></svg>