<svg xmlns="http://www.w3.org/2000/svg" viewBox="0 0 500 500"><g id="freepik--background-complete--inject-680"><polygon points="464.68 232.9 464.68 356.22 215.68 356.22 215.68 255.73 237.28 255.73 237.28 281.97 242.84 281.97 242.84 236.12 270.31 236.12 270.31 279.63 273.94 279.63 273.94 224.44 297.81 224.44 297.81 239.59 310.06 239.59 310.06 258.44 313.76 258.44 313.76 246.58 335.47 246.58 335.47 281.95 341.81 281.95 341.81 253.2 361.66 253.2 361.66 231.36 375.16 231.36 375.16 218.92 390.77 218.92 390.77 274.09 396.02 274.09 396.02 251.06 421.74 251.06 421.74 284.02 425.3 284.02 425.3 257.13 451.38 257.13 451.38 232.9 464.68 232.9" style="fill:#ebebeb"></polygon><rect x="218.32" y="259.03" width="3.65" height="5.02" style="fill:#fff"></rect><rect x="224.66" y="259.03" width="3.65" height="5.02" style="fill:#fff"></rect><rect x="230.99" y="259.03" width="3.65" height="5.02" style="fill:#fff"></rect><rect x="218.32" y="266.58" width="3.65" height="5.02" style="fill:#fff"></rect><rect x="224.66" y="266.58" width="3.65" height="5.02" style="fill:#fff"></rect><rect x="230.99" y="266.58" width="3.65" height="5.02" style="fill:#fff"></rect><rect x="218.32" y="274.12" width="3.65" height="5.02" style="fill:#fff"></rect><rect x="224.66" y="274.12" width="3.65" height="5.02" style="fill:#fff"></rect><rect x="230.99" y="274.12" width="3.65" height="5.02" style="fill:#fff"></rect><rect x="218.32" y="281.67" width="3.65" height="5.02" style="fill:#fff"></rect><rect x="224.66" y="281.67" width="3.65" height="5.02" style="fill:#fff"></rect><rect x="230.99" y="281.67" width="3.65" height="5.02" style="fill:#fff"></rect><rect x="344.86" y="256.78" width="3.65" height="4.18" style="fill:#fff"></rect><rect x="351.2" y="256.78" width="3.65" height="4.18" style="fill:#fff"></rect><rect x="357.53" y="256.78" width="3.65" height="4.18" style="fill:#fff"></rect><rect x="344.86" y="263.08" width="3.65" height="4.18" style="fill:#fff"></rect><rect x="351.2" y="263.08" width="3.65" height="4.18" style="fill:#fff"></rect><rect x="357.53" y="263.08" width="3.65" height="4.18" style="fill:#fff"></rect><rect x="344.86" y="269.38" width="3.65" height="4.18" style="fill:#fff"></rect><rect x="351.2" y="269.38" width="3.65" height="4.18" style="fill:#fff"></rect><rect x="357.53" y="269.38" width="3.65" height="4.18" style="fill:#fff"></rect><rect x="344.86" y="275.67" width="3.65" height="4.18" style="fill:#fff"></rect><rect x="351.2" y="275.67" width="3.65" height="4.18" style="fill:#fff"></rect><rect x="357.53" y="275.67" width="3.65" height="4.18" style="fill:#fff"></rect><rect x="344.86" y="282.12" width="3.65" height="4.18" style="fill:#fff"></rect><rect x="351.2" y="282.12" width="3.65" height="4.18" style="fill:#fff"></rect><rect x="357.53" y="282.12" width="3.65" height="4.18" style="fill:#fff"></rect><rect x="344.86" y="288.58" width="3.65" height="4.18" style="fill:#fff"></rect><rect x="351.2" y="288.58" width="3.65" height="4.18" style="fill:#fff"></rect><rect x="357.53" y="288.58" width="3.65" height="4.18" style="fill:#fff"></rect><rect x="344.86" y="295.03" width="3.65" height="4.18" style="fill:#fff"></rect><rect x="351.2" y="295.03" width="3.65" height="4.18" style="fill:#fff"></rect><rect x="357.53" y="295.03" width="3.65" height="4.18" style="fill:#fff"></rect><rect x="344.86" y="301.48" width="3.65" height="4.18" style="fill:#fff"></rect><rect x="351.2" y="301.48" width="3.65" height="4.18" style="fill:#fff"></rect><rect x="357.53" y="301.48" width="3.65" height="4.18" style="fill:#fff"></rect><rect x="245.96" y="239.33" width="21.04" height="3.14" style="fill:#fff"></rect><rect x="245.96" y="245.42" width="21.04" height="3.14" style="fill:#fff"></rect><rect x="245.96" y="251.5" width="21.04" height="3.14" style="fill:#fff"></rect><rect x="245.96" y="257.59" width="21.04" height="3.14" style="fill:#fff"></rect><rect x="245.96" y="263.68" width="21.04" height="3.14" style="fill:#fff"></rect><rect x="245.96" y="269.76" width="21.04" height="3.14" style="fill:#fff"></rect><rect x="245.96" y="275.85" width="21.04" height="3.14" style="fill:#fff"></rect><rect x="245.96" y="281.94" width="21.04" height="3.14" style="fill:#fff"></rect><rect x="399.13" y="253.99" width="19.34" height="3.14" style="fill:#fff"></rect><rect x="399.13" y="260.08" width="19.34" height="3.14" style="fill:#fff"></rect><rect x="399.13" y="266.17" width="19.34" height="3.14" style="fill:#fff"></rect><rect x="399.13" y="272.25" width="19.34" height="3.14" style="fill:#fff"></rect><rect x="399.13" y="278.34" width="19.34" height="3.14" style="fill:#fff"></rect><rect x="399.13" y="284.43" width="19.34" height="3.14" style="fill:#fff"></rect><rect x="399.13" y="290.51" width="19.34" height="3.14" style="fill:#fff"></rect><rect x="399.13" y="296.6" width="19.34" height="3.14" style="fill:#fff"></rect><rect x="399.13" y="302.38" width="19.34" height="3.14" style="fill:#fff"></rect><rect x="399.13" y="308.17" width="19.34" height="3.14" style="fill:#fff"></rect><rect x="399.13" y="313.95" width="19.34" height="3.14" style="fill:#fff"></rect><rect x="399.13" y="319.73" width="19.34" height="3.14" style="fill:#fff"></rect><rect x="399.13" y="325.52" width="19.34" height="3.14" style="fill:#fff"></rect><rect x="429.32" y="261.35" width="20.43" height="3.14" style="fill:#fff"></rect><rect x="429.32" y="267.43" width="20.43" height="3.14" style="fill:#fff"></rect><rect x="429.32" y="273.52" width="20.43" height="3.14" style="fill:#fff"></rect><rect x="429.32" y="279.6" width="20.43" height="3.14" style="fill:#fff"></rect><rect x="429.32" y="285.69" width="20.43" height="3.14" style="fill:#fff"></rect><rect x="429.32" y="291.78" width="20.43" height="3.14" style="fill:#fff"></rect><rect x="429.32" y="297.86" width="20.43" height="3.14" style="fill:#fff"></rect><rect x="429.32" y="303.95" width="20.43" height="3.14" style="fill:#fff"></rect><rect x="429.32" y="309.4" width="20.43" height="3.14" style="fill:#fff"></rect><rect x="429.32" y="314.85" width="20.43" height="3.14" style="fill:#fff"></rect><rect x="429.32" y="320.29" width="20.43" height="3.14" style="fill:#fff"></rect><rect x="320.11" y="249.42" width="6.5" height="3.03" style="fill:#fff"></rect><rect x="320.11" y="255.3" width="6.5" height="3.03" style="fill:#fff"></rect><rect x="320.11" y="261.18" width="6.5" height="3.03" style="fill:#fff"></rect><rect x="320.11" y="267.06" width="6.5" height="3.03" style="fill:#fff"></rect><rect x="320.11" y="272.94" width="6.5" height="3.03" style="fill:#fff"></rect><rect x="320.11" y="278.81" width="6.5" height="3.03" style="fill:#fff"></rect><rect x="320.11" y="284.69" width="6.5" height="3.03" style="fill:#fff"></rect><rect x="320.11" y="290.57" width="6.5" height="3.03" style="fill:#fff"></rect><rect x="328.95" y="249.42" width="6.5" height="3.03" style="fill:#fff"></rect><rect x="328.95" y="255.3" width="6.5" height="3.03" style="fill:#fff"></rect><rect x="328.95" y="261.18" width="6.5" height="3.03" style="fill:#fff"></rect><rect x="328.95" y="267.06" width="6.5" height="3.03" style="fill:#fff"></rect><rect x="328.95" y="272.94" width="6.5" height="3.03" style="fill:#fff"></rect><rect x="328.95" y="278.81" width="6.5" height="3.03" style="fill:#fff"></rect><rect x="328.95" y="284.69" width="6.5" height="3.03" style="fill:#fff"></rect><rect x="328.95" y="290.57" width="6.5" height="3.03" style="fill:#fff"></rect><rect x="277.56" y="227.62" width="6.77" height="4.78" style="fill:#fff"></rect><rect x="287.66" y="227.62" width="6.77" height="4.78" style="fill:#fff"></rect><rect x="277.56" y="234.64" width="6.77" height="4.78" style="fill:#fff"></rect><rect x="287.66" y="234.64" width="6.77" height="4.78" style="fill:#fff"></rect><rect x="277.56" y="241.65" width="6.77" height="4.78" style="fill:#fff"></rect><rect x="287.66" y="241.65" width="6.77" height="4.78" style="fill:#fff"></rect><rect x="277.56" y="248.67" width="6.77" height="4.78" style="fill:#fff"></rect><rect x="287.66" y="248.67" width="6.77" height="4.78" style="fill:#fff"></rect><rect x="277.56" y="255.69" width="6.77" height="4.78" style="fill:#fff"></rect><rect x="287.66" y="255.69" width="6.77" height="4.78" style="fill:#fff"></rect><rect x="277.56" y="262.71" width="6.77" height="4.78" style="fill:#fff"></rect><rect x="287.66" y="262.71" width="6.77" height="4.78" style="fill:#fff"></rect><rect x="277.56" y="269.72" width="6.77" height="4.78" style="fill:#fff"></rect><rect x="287.66" y="269.72" width="6.77" height="4.78" style="fill:#fff"></rect><rect x="277.56" y="276.74" width="6.77" height="4.78" style="fill:#fff"></rect><rect x="287.66" y="276.74" width="6.77" height="4.78" style="fill:#fff"></rect><rect x="300.16" y="241.65" width="6.77" height="4.78" style="fill:#fff"></rect><rect x="300.16" y="248.67" width="6.77" height="4.78" style="fill:#fff"></rect><rect x="300.16" y="255.69" width="6.77" height="4.78" style="fill:#fff"></rect><rect x="300.16" y="262.71" width="6.77" height="4.78" style="fill:#fff"></rect><rect x="300.16" y="269.72" width="6.77" height="4.78" style="fill:#fff"></rect><rect x="300.16" y="276.74" width="6.77" height="4.78" style="fill:#fff"></rect><rect x="277.56" y="283.68" width="6.77" height="4.78" style="fill:#fff"></rect><rect x="287.66" y="283.68" width="6.77" height="4.78" style="fill:#fff"></rect><rect x="300.16" y="283.68" width="6.77" height="4.78" style="fill:#fff"></rect><rect x="277.56" y="290.61" width="6.77" height="4.78" style="fill:#fff"></rect><rect x="287.66" y="290.61" width="6.77" height="4.78" style="fill:#fff"></rect><rect x="300.16" y="290.61" width="6.77" height="4.78" style="fill:#fff"></rect><rect x="277.56" y="297.55" width="6.77" height="4.78" style="fill:#fff"></rect><rect x="287.66" y="297.55" width="6.77" height="4.78" style="fill:#fff"></rect><rect x="300.16" y="297.55" width="6.77" height="4.78" style="fill:#fff"></rect><rect x="277.56" y="304.48" width="6.77" height="4.78" style="fill:#fff"></rect><rect x="287.66" y="304.48" width="6.77" height="4.78" style="fill:#fff"></rect><rect x="300.16" y="304.48" width="6.77" height="4.78" style="fill:#fff"></rect><rect x="277.56" y="311.41" width="6.77" height="4.78" style="fill:#fff"></rect><rect x="287.66" y="311.41" width="6.77" height="4.78" style="fill:#fff"></rect><rect x="300.16" y="311.41" width="6.77" height="4.78" style="fill:#fff"></rect><rect x="364.42" y="234.44" width="3.65" height="4.18" style="fill:#fff"></rect><rect x="370.76" y="234.44" width="3.65" height="4.18" style="fill:#fff"></rect><rect x="364.42" y="240.73" width="3.65" height="4.18" style="fill:#fff"></rect><rect x="370.76" y="240.73" width="3.65" height="4.18" style="fill:#fff"></rect><rect x="364.42" y="247.03" width="3.65" height="4.18" style="fill:#fff"></rect><rect x="370.76" y="247.03" width="3.65" height="4.18" style="fill:#fff"></rect><rect x="364.42" y="253.32" width="3.65" height="4.18" style="fill:#fff"></rect><rect x="370.76" y="253.32" width="3.65" height="4.18" style="fill:#fff"></rect><rect x="364.42" y="259.78" width="3.65" height="4.18" style="fill:#fff"></rect><rect x="370.76" y="259.78" width="3.65" height="4.18" style="fill:#fff"></rect><rect x="364.42" y="266.23" width="3.65" height="4.18" style="fill:#fff"></rect><rect x="370.76" y="266.23" width="3.65" height="4.18" style="fill:#fff"></rect><rect x="364.42" y="272.68" width="3.65" height="4.18" style="fill:#fff"></rect><rect x="370.76" y="272.68" width="3.65" height="4.18" style="fill:#fff"></rect><rect x="364.42" y="279.13" width="3.65" height="4.18" style="fill:#fff"></rect><rect x="370.76" y="279.13" width="3.65" height="4.18" style="fill:#fff"></rect><rect x="364.42" y="285.65" width="3.65" height="4.18" style="fill:#fff"></rect><rect x="370.76" y="285.65" width="3.65" height="4.18" style="fill:#fff"></rect><rect x="364.42" y="292.17" width="3.65" height="4.18" style="fill:#fff"></rect><rect x="370.76" y="292.17" width="3.65" height="4.18" style="fill:#fff"></rect><rect x="364.42" y="298.69" width="3.65" height="4.18" style="fill:#fff"></rect><rect x="370.76" y="298.69" width="3.65" height="4.18" style="fill:#fff"></rect><rect x="364.42" y="305.21" width="3.65" height="4.18" style="fill:#fff"></rect><rect x="370.76" y="305.21" width="3.65" height="4.18" style="fill:#fff"></rect><rect x="453.67" y="235.12" width="3.65" height="4.93" style="fill:#fff"></rect><rect x="460" y="235.12" width="3.65" height="4.93" style="fill:#fff"></rect><rect x="453.67" y="242.53" width="3.65" height="4.93" style="fill:#fff"></rect><rect x="460" y="242.53" width="3.65" height="4.93" style="fill:#fff"></rect><rect x="453.67" y="249.95" width="3.65" height="4.93" style="fill:#fff"></rect><rect x="460" y="249.95" width="3.65" height="4.93" style="fill:#fff"></rect><rect x="453.67" y="257.37" width="3.65" height="4.93" style="fill:#fff"></rect><rect x="460" y="257.37" width="3.65" height="4.93" style="fill:#fff"></rect><rect x="453.67" y="264.97" width="3.65" height="4.93" style="fill:#fff"></rect><rect x="460" y="264.97" width="3.65" height="4.93" style="fill:#fff"></rect><rect x="453.67" y="272.57" width="3.65" height="4.93" style="fill:#fff"></rect><rect x="460" y="272.57" width="3.65" height="4.93" style="fill:#fff"></rect><rect x="453.67" y="280.17" width="3.65" height="4.93" style="fill:#fff"></rect><rect x="460" y="280.17" width="3.65" height="4.93" style="fill:#fff"></rect><rect x="453.67" y="287.77" width="3.65" height="4.93" style="fill:#fff"></rect><rect x="460" y="287.77" width="3.65" height="4.93" style="fill:#fff"></rect><rect x="453.67" y="295.46" width="3.65" height="4.93" style="fill:#fff"></rect><rect x="460" y="295.46" width="3.65" height="4.93" style="fill:#fff"></rect><rect x="453.67" y="303.14" width="3.65" height="4.93" style="fill:#fff"></rect><rect x="460" y="303.14" width="3.65" height="4.93" style="fill:#fff"></rect><rect x="453.67" y="310.82" width="3.65" height="4.93" style="fill:#fff"></rect><rect x="460" y="310.82" width="3.65" height="4.93" style="fill:#fff"></rect><rect x="453.67" y="318.5" width="3.65" height="4.93" style="fill:#fff"></rect><rect x="460" y="318.5" width="3.65" height="4.93" style="fill:#fff"></rect><rect x="377.97" y="234.44" width="3.65" height="4.18" style="fill:#fff"></rect><rect x="384.3" y="234.44" width="3.65" height="4.18" style="fill:#fff"></rect><rect x="377.97" y="227.98" width="3.65" height="4.18" style="fill:#fff"></rect><rect x="384.3" y="227.98" width="3.65" height="4.18" style="fill:#fff"></rect><rect x="377.97" y="221.53" width="3.65" height="4.18" style="fill:#fff"></rect><rect x="384.3" y="221.53" width="3.65" height="4.18" style="fill:#fff"></rect><rect x="377.97" y="240.73" width="3.65" height="4.18" style="fill:#fff"></rect><rect x="384.3" y="240.73" width="3.65" height="4.18" style="fill:#fff"></rect><rect x="377.97" y="247.03" width="3.65" height="4.18" style="fill:#fff"></rect><rect x="384.3" y="247.03" width="3.65" height="4.18" style="fill:#fff"></rect><rect x="377.97" y="253.32" width="3.65" height="4.18" style="fill:#fff"></rect><rect x="384.3" y="253.32" width="3.65" height="4.18" style="fill:#fff"></rect><rect x="377.97" y="259.78" width="3.65" height="4.18" style="fill:#fff"></rect><rect x="384.3" y="259.78" width="3.65" height="4.18" style="fill:#fff"></rect><rect x="377.97" y="266.23" width="3.65" height="4.18" style="fill:#fff"></rect><rect x="384.3" y="266.23" width="3.65" height="4.18" style="fill:#fff"></rect><rect x="377.97" y="272.68" width="3.65" height="4.18" style="fill:#fff"></rect><rect x="384.3" y="272.68" width="3.65" height="4.18" style="fill:#fff"></rect><rect x="377.97" y="279.13" width="3.65" height="4.18" style="fill:#fff"></rect><rect x="384.3" y="279.13" width="3.65" height="4.18" style="fill:#fff"></rect><rect x="377.97" y="285.65" width="3.65" height="4.18" style="fill:#fff"></rect><rect x="384.3" y="285.65" width="3.65" height="4.18" style="fill:#fff"></rect><rect x="377.97" y="292.17" width="3.65" height="4.18" style="fill:#fff"></rect><rect x="384.3" y="292.17" width="3.65" height="4.18" style="fill:#fff"></rect><rect x="377.97" y="298.69" width="3.65" height="4.18" style="fill:#fff"></rect><rect x="384.3" y="298.69" width="3.65" height="4.18" style="fill:#fff"></rect><rect x="377.97" y="305.21" width="3.65" height="4.18" style="fill:#fff"></rect><rect x="384.3" y="305.21" width="3.65" height="4.18" style="fill:#fff"></rect><polygon points="215.68 356.22 35.32 356.22 35.32 244.73 56.92 244.73 56.92 270.97 62.48 270.97 62.48 256.12 89.95 256.12 89.95 279.63 93.59 279.63 93.59 224.44 117.46 224.44 117.46 239.59 129.7 239.59 129.7 258.44 133.41 258.44 133.41 246.58 155.11 246.58 155.11 281.95 161.46 281.95 161.46 253.2 181.31 253.2 181.31 231.36 194.8 231.36 210.41 231.43 210.41 274.09 215.67 274.09 215.68 356.22" style="fill:#ebebeb"></polygon><rect x="37.97" y="248.03" width="3.65" height="5.02" style="fill:#fff"></rect><rect x="44.3" y="248.03" width="3.65" height="5.02" style="fill:#fff"></rect><rect x="50.64" y="248.03" width="3.65" height="5.02" style="fill:#fff"></rect><rect x="37.97" y="255.58" width="3.65" height="5.02" style="fill:#fff"></rect><rect x="44.3" y="255.58" width="3.65" height="5.02" style="fill:#fff"></rect><rect x="50.64" y="255.58" width="3.65" height="5.02" style="fill:#fff"></rect><rect x="37.97" y="263.12" width="3.65" height="5.02" style="fill:#fff"></rect><rect x="44.3" y="263.12" width="3.65" height="5.02" style="fill:#fff"></rect><rect x="50.64" y="263.12" width="3.65" height="5.02" style="fill:#fff"></rect><rect x="37.97" y="270.67" width="3.65" height="5.02" style="fill:#fff"></rect><rect x="44.3" y="270.67" width="3.65" height="5.02" style="fill:#fff"></rect><rect x="50.64" y="270.67" width="3.65" height="5.02" style="fill:#fff"></rect><rect x="164.51" y="256.78" width="3.65" height="4.18" style="fill:#fff"></rect><rect x="170.84" y="256.78" width="3.65" height="4.18" style="fill:#fff"></rect><rect x="177.18" y="256.78" width="3.65" height="4.18" style="fill:#fff"></rect><rect x="164.51" y="263.08" width="3.65" height="4.18" style="fill:#fff"></rect><rect x="170.84" y="263.08" width="3.65" height="4.18" style="fill:#fff"></rect><rect x="177.18" y="263.08" width="3.65" height="4.18" style="fill:#fff"></rect><rect x="164.51" y="269.38" width="3.65" height="4.18" style="fill:#fff"></rect><rect x="170.84" y="269.38" width="3.65" height="4.18" style="fill:#fff"></rect><rect x="177.18" y="269.38" width="3.65" height="4.18" style="fill:#fff"></rect><rect x="164.51" y="275.67" width="3.65" height="4.18" style="fill:#fff"></rect><rect x="170.84" y="275.67" width="3.65" height="4.18" style="fill:#fff"></rect><rect x="177.18" y="275.67" width="3.65" height="4.18" style="fill:#fff"></rect><rect x="164.51" y="282.12" width="3.65" height="4.18" style="fill:#fff"></rect><rect x="170.84" y="282.12" width="3.65" height="4.18" style="fill:#fff"></rect><rect x="177.18" y="282.12" width="3.65" height="4.18" style="fill:#fff"></rect><rect x="164.51" y="288.58" width="3.65" height="4.18" style="fill:#fff"></rect><rect x="170.84" y="288.58" width="3.65" height="4.18" style="fill:#fff"></rect><rect x="177.18" y="288.58" width="3.65" height="4.18" style="fill:#fff"></rect><rect x="164.51" y="295.03" width="3.65" height="4.18" style="fill:#fff"></rect><rect x="170.84" y="295.03" width="3.65" height="4.18" style="fill:#fff"></rect><rect x="177.18" y="295.03" width="3.65" height="4.18" style="fill:#fff"></rect><rect x="164.51" y="301.48" width="3.65" height="4.18" style="fill:#fff"></rect><rect x="170.84" y="301.48" width="3.65" height="4.18" style="fill:#fff"></rect><rect x="177.18" y="301.48" width="3.65" height="4.18" style="fill:#fff"></rect><rect x="65.6" y="259.33" width="21.04" height="3.14" style="fill:#fff"></rect><rect x="65.6" y="265.42" width="21.04" height="3.14" style="fill:#fff"></rect><rect x="65.6" y="271.5" width="21.04" height="3.14" style="fill:#fff"></rect><rect x="65.6" y="277.59" width="21.04" height="3.14" style="fill:#fff"></rect><rect x="65.6" y="283.68" width="21.04" height="3.14" style="fill:#fff"></rect><rect x="65.6" y="289.76" width="21.04" height="3.14" style="fill:#fff"></rect><rect x="65.6" y="295.85" width="21.04" height="3.14" style="fill:#fff"></rect><rect x="65.6" y="301.94" width="21.04" height="3.14" style="fill:#fff"></rect><rect x="139.76" y="249.42" width="6.5" height="3.03" style="fill:#fff"></rect><rect x="139.76" y="255.3" width="6.5" height="3.03" style="fill:#fff"></rect><rect x="139.76" y="261.18" width="6.5" height="3.03" style="fill:#fff"></rect><rect x="139.76" y="267.06" width="6.5" height="3.03" style="fill:#fff"></rect><rect x="139.76" y="272.94" width="6.5" height="3.03" style="fill:#fff"></rect><rect x="139.76" y="278.81" width="6.5" height="3.03" style="fill:#fff"></rect><rect x="139.76" y="284.69" width="6.5" height="3.03" style="fill:#fff"></rect><rect x="139.76" y="290.57" width="6.5" height="3.03" style="fill:#fff"></rect><rect x="148.6" y="249.42" width="6.5" height="3.03" style="fill:#fff"></rect><rect x="148.6" y="255.3" width="6.5" height="3.03" style="fill:#fff"></rect><rect x="148.6" y="261.18" width="6.5" height="3.03" style="fill:#fff"></rect><rect x="148.6" y="267.06" width="6.5" height="3.03" style="fill:#fff"></rect><rect x="148.6" y="272.94" width="6.5" height="3.03" style="fill:#fff"></rect><rect x="148.6" y="278.81" width="6.5" height="3.03" style="fill:#fff"></rect><rect x="148.6" y="284.69" width="6.5" height="3.03" style="fill:#fff"></rect><rect x="148.6" y="290.57" width="6.5" height="3.03" style="fill:#fff"></rect><rect x="97.21" y="227.62" width="6.77" height="4.78" style="fill:#fff"></rect><rect x="107.3" y="227.62" width="6.77" height="4.78" style="fill:#fff"></rect><rect x="97.21" y="234.64" width="6.77" height="4.78" style="fill:#fff"></rect><rect x="107.3" y="234.64" width="6.77" height="4.78" style="fill:#fff"></rect><rect x="97.21" y="241.65" width="6.77" height="4.78" style="fill:#fff"></rect><rect x="107.3" y="241.65" width="6.77" height="4.78" style="fill:#fff"></rect><rect x="97.21" y="248.67" width="6.77" height="4.78" style="fill:#fff"></rect><rect x="107.3" y="248.67" width="6.77" height="4.78" style="fill:#fff"></rect><rect x="97.21" y="255.69" width="6.77" height="4.78" style="fill:#fff"></rect><rect x="107.3" y="255.69" width="6.77" height="4.78" style="fill:#fff"></rect><rect x="97.21" y="262.71" width="6.77" height="4.78" style="fill:#fff"></rect><rect x="107.3" y="262.71" width="6.77" height="4.78" style="fill:#fff"></rect><rect x="97.21" y="269.72" width="6.77" height="4.78" style="fill:#fff"></rect><rect x="107.3" y="269.72" width="6.77" height="4.78" style="fill:#fff"></rect><rect x="97.21" y="276.74" width="6.77" height="4.78" style="fill:#fff"></rect><rect x="107.3" y="276.74" width="6.77" height="4.78" style="fill:#fff"></rect><rect x="119.81" y="241.65" width="6.77" height="4.78" style="fill:#fff"></rect><rect x="119.81" y="248.67" width="6.77" height="4.78" style="fill:#fff"></rect><rect x="119.81" y="255.69" width="6.77" height="4.78" style="fill:#fff"></rect><rect x="119.81" y="262.71" width="6.77" height="4.78" style="fill:#fff"></rect><rect x="119.81" y="269.72" width="6.77" height="4.78" style="fill:#fff"></rect><rect x="119.81" y="276.74" width="6.77" height="4.78" style="fill:#fff"></rect><rect x="97.21" y="283.68" width="6.77" height="4.78" style="fill:#fff"></rect><rect x="107.3" y="283.68" width="6.77" height="4.78" style="fill:#fff"></rect><rect x="119.81" y="283.68" width="6.77" height="4.78" style="fill:#fff"></rect><rect x="97.21" y="290.61" width="6.77" height="4.78" style="fill:#fff"></rect><rect x="107.3" y="290.61" width="6.77" height="4.78" style="fill:#fff"></rect><rect x="119.81" y="290.61" width="6.77" height="4.78" style="fill:#fff"></rect><rect x="97.21" y="297.55" width="6.77" height="4.78" style="fill:#fff"></rect><rect x="107.3" y="297.55" width="6.77" height="4.78" style="fill:#fff"></rect><rect x="119.81" y="297.55" width="6.77" height="4.78" style="fill:#fff"></rect><rect x="97.21" y="304.48" width="6.77" height="4.78" style="fill:#fff"></rect><rect x="107.3" y="304.48" width="6.77" height="4.78" style="fill:#fff"></rect><rect x="119.81" y="304.48" width="6.77" height="4.78" style="fill:#fff"></rect><rect x="97.21" y="311.41" width="6.77" height="4.78" style="fill:#fff"></rect><rect x="107.3" y="311.41" width="6.77" height="4.78" style="fill:#fff"></rect><rect x="119.81" y="311.41" width="6.77" height="4.78" style="fill:#fff"></rect><rect x="184.06" y="234.44" width="3.65" height="4.18" style="fill:#fff"></rect><rect x="190.4" y="234.44" width="3.65" height="4.18" style="fill:#fff"></rect><rect x="184.06" y="240.73" width="3.65" height="4.18" style="fill:#fff"></rect><rect x="190.4" y="240.73" width="3.65" height="4.18" style="fill:#fff"></rect><rect x="184.06" y="247.03" width="3.65" height="4.18" style="fill:#fff"></rect><rect x="190.4" y="247.03" width="3.65" height="4.18" style="fill:#fff"></rect><rect x="184.06" y="253.32" width="3.65" height="4.18" style="fill:#fff"></rect><rect x="190.4" y="253.32" width="3.65" height="4.18" style="fill:#fff"></rect><rect x="184.06" y="259.78" width="3.65" height="4.18" style="fill:#fff"></rect><rect x="190.4" y="259.78" width="3.65" height="4.18" style="fill:#fff"></rect><rect x="184.06" y="266.23" width="3.65" height="4.18" style="fill:#fff"></rect><rect x="190.4" y="266.23" width="3.65" height="4.18" style="fill:#fff"></rect><rect x="184.06" y="272.68" width="3.65" height="4.18" style="fill:#fff"></rect><rect x="190.4" y="272.68" width="3.65" height="4.18" style="fill:#fff"></rect><rect x="184.06" y="279.13" width="3.65" height="4.18" style="fill:#fff"></rect><rect x="190.4" y="279.13" width="3.65" height="4.18" style="fill:#fff"></rect><rect x="184.06" y="285.65" width="3.65" height="4.18" style="fill:#fff"></rect><rect x="190.4" y="285.65" width="3.65" height="4.18" style="fill:#fff"></rect><rect x="184.06" y="292.17" width="3.65" height="4.18" style="fill:#fff"></rect><rect x="190.4" y="292.17" width="3.65" height="4.18" style="fill:#fff"></rect><rect x="184.06" y="298.69" width="3.65" height="4.18" style="fill:#fff"></rect><rect x="190.4" y="298.69" width="3.65" height="4.18" style="fill:#fff"></rect><rect x="184.06" y="305.21" width="3.65" height="4.18" style="fill:#fff"></rect><rect x="190.4" y="305.21" width="3.65" height="4.18" style="fill:#fff"></rect><rect x="197.61" y="234.44" width="3.65" height="4.18" style="fill:#fff"></rect><rect x="203.95" y="234.44" width="3.65" height="4.18" style="fill:#fff"></rect><rect x="197.61" y="240.73" width="3.65" height="4.18" style="fill:#fff"></rect><rect x="203.95" y="240.73" width="3.65" height="4.18" style="fill:#fff"></rect><rect x="197.61" y="247.03" width="3.65" height="4.18" style="fill:#fff"></rect><rect x="203.95" y="247.03" width="3.65" height="4.18" style="fill:#fff"></rect><rect x="197.61" y="253.32" width="3.65" height="4.18" style="fill:#fff"></rect><rect x="203.95" y="253.32" width="3.65" height="4.18" style="fill:#fff"></rect><rect x="197.61" y="259.78" width="3.65" height="4.18" style="fill:#fff"></rect><rect x="203.95" y="259.78" width="3.65" height="4.18" style="fill:#fff"></rect><rect x="197.61" y="266.23" width="3.65" height="4.18" style="fill:#fff"></rect><rect x="203.95" y="266.23" width="3.65" height="4.18" style="fill:#fff"></rect><rect x="197.61" y="272.68" width="3.65" height="4.18" style="fill:#fff"></rect><rect x="203.95" y="272.68" width="3.65" height="4.18" style="fill:#fff"></rect><rect x="197.61" y="279.13" width="3.65" height="4.18" style="fill:#fff"></rect><rect x="203.95" y="279.13" width="3.65" height="4.18" style="fill:#fff"></rect><rect x="197.61" y="285.65" width="3.65" height="4.18" style="fill:#fff"></rect><rect x="203.95" y="285.65" width="3.65" height="4.18" style="fill:#fff"></rect><rect x="197.61" y="292.17" width="3.65" height="4.18" style="fill:#fff"></rect><rect x="203.95" y="292.17" width="3.65" height="4.18" style="fill:#fff"></rect><rect x="197.61" y="298.69" width="3.65" height="4.18" style="fill:#fff"></rect><rect x="203.95" y="298.69" width="3.65" height="4.18" style="fill:#fff"></rect><rect x="197.61" y="305.21" width="3.65" height="4.18" style="fill:#fff"></rect><rect x="203.95" y="305.21" width="3.65" height="4.18" style="fill:#fff"></rect><path d="M441,118.36H269s3.87-14,15.92-10.48c0,0,2.47-8.5,9.17-12.92s15.27,0,15.27,0,1.83-6.64,6.58-9,10,0,10,0,5.33-18.66,22-18.66c17.7,0,20.7,16.5,20.7,16.5s6.92-12.54,20.63-9.28C400.75,77.24,403,92.22,403,92.22a8.41,8.41,0,0,1,7,0c3.81,1.72,4.1,6.88,4.1,6.88s4.79-2.88,9.39,0c5.25,3.29,4,11.25,4,11.25S435.65,110.11,441,118.36Z" style="fill:#ebebeb"></path><path d="M59,151.18H195.56s-3.07-11.13-12.64-8.32c0,0-2-6.75-7.28-10.26s-12.13,0-12.13,0-1.45-5.28-5.22-7.15-7.94,0-7.94,0-4.23-14.82-17.47-14.82c-14.06,0-16.44,13.11-16.44,13.11s-5.49-10-16.38-7.38c-9.1,2.17-10.92,14.06-10.92,14.06a6.67,6.67,0,0,0-5.58,0c-3,1.37-3.25,5.46-3.25,5.46s-3.8-2.28-7.46,0c-4.17,2.61-3.19,8.94-3.19,8.94A13.2,13.2,0,0,0,59,151.18Z" style="fill:#ebebeb"></path><path d="M248.42,218.12H145.61s2.31-7.21,9.52-5.39a13.29,13.29,0,0,1,5.48-6.64c4-2.27,9.13,0,9.13,0s1.09-3.41,3.93-4.63a8.87,8.87,0,0,1,6,0s3.18-9.59,13.15-9.59c10.58,0,12.37,8.49,12.37,8.49a12,12,0,0,1,12.33-4.78c6.85,1.4,8.22,9.1,8.22,9.1a5.74,5.74,0,0,1,4.2,0,4.28,4.28,0,0,1,2.45,3.54,6.49,6.49,0,0,1,5.61,0c3.14,1.68,2.41,5.78,2.41,5.78A10.52,10.52,0,0,1,248.42,218.12Z" style="fill:#dbdbdb"></path><path d="M258.51,84.68H155.71s2.31-7.2,9.51-5.38a13.4,13.4,0,0,1,5.48-6.65c4-2.27,9.13,0,9.13,0s1.09-3.41,3.93-4.62a8.82,8.82,0,0,1,6,0s3.18-9.59,13.14-9.59c10.58,0,12.38,8.48,12.38,8.48a12,12,0,0,1,12.33-4.77c6.85,1.4,8.22,9.1,8.22,9.1a5.74,5.74,0,0,1,4.2,0,4.28,4.28,0,0,1,2.45,3.53,6.47,6.47,0,0,1,5.6,0c3.15,1.69,2.41,5.79,2.41,5.79A10.48,10.48,0,0,1,258.51,84.68Z" style="fill:#dbdbdb"></path><path d="M326,173.35H406.4s-1.81-5.63-7.44-4.21a10.38,10.38,0,0,0-4.28-5.19c-3.13-1.78-7.14,0-7.14,0a6.4,6.4,0,0,0-3.07-3.62,6.91,6.91,0,0,0-4.67,0s-2.49-7.5-10.28-7.5c-8.27,0-9.67,6.63-9.67,6.63a9.38,9.38,0,0,0-9.64-3.73c-5.35,1.1-6.42,7.11-6.42,7.11a4.52,4.52,0,0,0-3.28,0,3.34,3.34,0,0,0-1.92,2.77,5,5,0,0,0-4.38,0c-2.46,1.32-1.89,4.52-1.89,4.52A8.18,8.18,0,0,0,326,173.35Z" style="fill:#dbdbdb"></path></g><g id="freepik--Shadow--inject-680"><ellipse cx="250" cy="446.86" rx="139.84" ry="20.87" style="fill:#ebebeb"></ellipse></g><g id="freepik--Calendar--inject-680"><path d="M424,213H317.21V126.14H424V202.8C424,211.46,424,213,424,213Z" style="fill:#fff"></path><path d="M424,213l-53.3.23-53.49.11h-.35V213l-.15-86.81v-.5h.5l106.8.16h.33v.33l-.08,43.41-.1,21.7-.05,10.85Zm0,0-.25-43.4-.07-43.41.33.34-106.8.16.49-.5L317.55,213l-.34-.35,53.3.11Z" style="fill:#ebebeb"></path><rect x="317.21" y="126.14" width="106.8" height="18.31" style="fill:#FFA52E"></rect><path d="M349.05,182.84v-8.9l-3.95,6.88h-.62l-4-6.88v8.9h-1.07V172h1.1l4.22,7.41L349,172h1.08v10.83Z" style="fill:#263238"></path><path d="M357.2,182.91a4.62,4.62,0,0,1-2.07-.46,5.15,5.15,0,0,1-1.61-1.24,5.63,5.63,0,0,1-1-1.76,5.69,5.69,0,0,1-.37-2,5.6,5.6,0,0,1,.39-2.07,5.93,5.93,0,0,1,1.07-1.76,5.21,5.21,0,0,1,1.62-1.21,4.57,4.57,0,0,1,2-.45,4.43,4.43,0,0,1,2.06.48,5.24,5.24,0,0,1,1.61,1.26,5.83,5.83,0,0,1,1,1.76,5.67,5.67,0,0,1,0,4.08,5.57,5.57,0,0,1-1.07,1.75,5.18,5.18,0,0,1-1.61,1.2A4.55,4.55,0,0,1,357.2,182.91Zm-4-5.49a5.1,5.1,0,0,0,.29,1.7,4.59,4.59,0,0,0,.82,1.45,4,4,0,0,0,1.27,1,3.75,3.75,0,0,0,3.29,0,4.15,4.15,0,0,0,1.27-1,4.77,4.77,0,0,0,.8-1.45,4.93,4.93,0,0,0,.28-1.65,5.15,5.15,0,0,0-.29-1.7,4.7,4.7,0,0,0-.84-1.44,4,4,0,0,0-1.26-1,3.73,3.73,0,0,0-3.28,0,4,4,0,0,0-1.27,1,4.92,4.92,0,0,0-1.08,3.09Z" style="fill:#263238"></path><path d="M365.36,174v8.85H364.3V172h.82l7.17,9v-9h1.07v10.82h-.93Z" style="fill:#263238"></path><path d="M376.07,182.84V172h3.68a5.63,5.63,0,0,1,2.26.42,4.6,4.6,0,0,1,1.62,1.16,5,5,0,0,1,1,1.72,6.88,6.88,0,0,1,0,4.33,4.62,4.62,0,0,1-2.68,2.81,5.59,5.59,0,0,1-2.14.39Zm7.8-5.43a5.48,5.48,0,0,0-.28-1.8,4.08,4.08,0,0,0-.8-1.41,3.66,3.66,0,0,0-1.29-.92,4.34,4.34,0,0,0-1.75-.33h-2.61v8.94h2.61a4.35,4.35,0,0,0,1.78-.34,3.61,3.61,0,0,0,1.29-1,4.16,4.16,0,0,0,.78-1.42A5.57,5.57,0,0,0,383.87,177.41Z" style="fill:#263238"></path><path d="M390,172h.9l4.5,10.83h-1.13l-1.41-3.39H388l-1.39,3.39h-1.14Zm2.62,6.6-2.18-5.35-2.21,5.35Z" style="fill:#263238"></path><path d="M395.71,172l3.54,5.82,3.57-5.82H404l-4.2,6.8v4h-1.07v-4.06L394.53,172Z" style="fill:#263238"></path><path d="M383.73,156.49a119.37,119.37,0,0,0-24.92,3.12,97.54,97.54,0,0,0-12,3.51,44,44,0,0,0-11,5.65,14.76,14.76,0,0,0-4,4.35,7,7,0,0,0-.71,5.44,9.71,9.71,0,0,0,3.34,4.62,23.77,23.77,0,0,0,5.19,3.12,54,54,0,0,0,11.84,3.56,93.27,93.27,0,0,0,12.37,1.51,97.91,97.91,0,0,0,12.47,0,79.69,79.69,0,0,0,12.32-1.78,59.34,59.34,0,0,0,11.77-3.91,29.63,29.63,0,0,0,5.25-3.11,12.61,12.61,0,0,0,2.16-2,5.2,5.2,0,0,0,1.22-2.42,5.44,5.44,0,0,0-.4-2.69A8.9,8.9,0,0,0,407,173a18.89,18.89,0,0,0-4.78-3.72,50.39,50.39,0,0,0-11.56-4.58,84.29,84.29,0,0,0-24.86-3,73.88,73.88,0,0,1,12.62.07,84,84,0,0,1,12.49,2,50.53,50.53,0,0,1,11.92,4.43,20.81,20.81,0,0,1,5.21,3.88,8.17,8.17,0,0,1,2.44,6.28,6.91,6.91,0,0,1-1.48,3.2,14.61,14.61,0,0,1-2.38,2.34,29.94,29.94,0,0,1-5.54,3.35A61,61,0,0,1,389,191.4a85.66,85.66,0,0,1-25.33,1.95A94.3,94.3,0,0,1,351,191.72a56.55,56.55,0,0,1-12.23-3.78,25.42,25.42,0,0,1-5.56-3.41,11.26,11.26,0,0,1-3.85-5.5,8.47,8.47,0,0,1,.94-6.71,16,16,0,0,1,4.56-4.75A44.88,44.88,0,0,1,346.37,162a92.81,92.81,0,0,1,12.24-3.27,126,126,0,0,1,12.51-1.8A93.24,93.24,0,0,1,383.73,156.49Z" style="fill:#FFA52E"></path><circle cx="417.52" cy="130.16" r="2.22" style="fill:#fff"></circle><path d="M413,130.16a2.22,2.22,0,1,1-2.22-2.22A2.23,2.23,0,0,1,413,130.16Z" style="fill:#fff"></path><path d="M406.33,130.16a2.22,2.22,0,1,1-2.21-2.22A2.22,2.22,0,0,1,406.33,130.16Z" style="fill:#fff"></path><path d="M399.63,130.16a2.22,2.22,0,1,1-2.21-2.22A2.22,2.22,0,0,1,399.63,130.16Z" style="fill:#fff"></path><path d="M392.93,130.16a2.22,2.22,0,1,1-2.22-2.22A2.22,2.22,0,0,1,392.93,130.16Z" style="fill:#fff"></path><path d="M386.23,130.16a2.22,2.22,0,1,1-2.22-2.22A2.22,2.22,0,0,1,386.23,130.16Z" style="fill:#fff"></path><path d="M379.53,130.16a2.22,2.22,0,1,1-2.22-2.22A2.23,2.23,0,0,1,379.53,130.16Z" style="fill:#fff"></path><path d="M372.82,130.16a2.22,2.22,0,1,1-2.21-2.22A2.22,2.22,0,0,1,372.82,130.16Z" style="fill:#fff"></path><circle cx="363.91" cy="130.16" r="2.22" style="fill:#fff"></circle><circle cx="357.2" cy="130.16" r="2.22" style="fill:#fff"></circle><path d="M352.72,130.16a2.22,2.22,0,1,1-2.22-2.22A2.22,2.22,0,0,1,352.72,130.16Z" style="fill:#fff"></path><path d="M346,130.16a2.22,2.22,0,1,1-2.22-2.22A2.23,2.23,0,0,1,346,130.16Z" style="fill:#fff"></path><path d="M339.31,130.16a2.22,2.22,0,1,1-2.21-2.22A2.22,2.22,0,0,1,339.31,130.16Z" style="fill:#fff"></path><path d="M332.61,130.16a2.22,2.22,0,1,1-2.21-2.22A2.22,2.22,0,0,1,332.61,130.16Z" style="fill:#fff"></path><path d="M325.91,130.16a2.22,2.22,0,1,1-2.22-2.22A2.22,2.22,0,0,1,325.91,130.16Z" style="fill:#fff"></path><rect x="322.55" y="121.9" width="2.29" height="9.11" style="fill:#c7c7c7"></rect><rect x="329.25" y="121.9" width="2.29" height="9.11" style="fill:#c7c7c7"></rect><rect x="335.95" y="121.9" width="2.29" height="9.11" style="fill:#c7c7c7"></rect><rect x="342.66" y="121.9" width="2.29" height="9.11" style="fill:#c7c7c7"></rect><rect x="349.36" y="121.9" width="2.29" height="9.11" style="fill:#c7c7c7"></rect><rect x="356.06" y="121.9" width="2.29" height="9.11" style="fill:#c7c7c7"></rect><rect x="362.76" y="121.9" width="2.29" height="9.11" style="fill:#c7c7c7"></rect><rect x="369.46" y="121.9" width="2.29" height="9.11" style="fill:#c7c7c7"></rect><rect x="376.17" y="121.9" width="2.29" height="9.11" style="fill:#c7c7c7"></rect><rect x="382.87" y="121.9" width="2.29" height="9.11" style="fill:#c7c7c7"></rect><rect x="389.57" y="121.9" width="2.29" height="9.11" style="fill:#c7c7c7"></rect><rect x="396.27" y="121.9" width="2.29" height="9.11" style="fill:#c7c7c7"></rect><rect x="402.97" y="121.9" width="2.29" height="9.11" style="fill:#c7c7c7"></rect><rect x="409.68" y="121.9" width="2.29" height="9.11" style="fill:#c7c7c7"></rect><rect x="416.38" y="121.9" width="2.29" height="9.11" style="fill:#c7c7c7"></rect></g><g id="freepik--Trees--inject-680"><path d="M69.42,265.33S92,315.52,55.13,315.56s-13-51.91-13-51.91-8.54-3.75,1.34-31.77,14.3-28,18.41-28c5.2,0,10,12.12,6.53,30.74C68.37,234.59,81.37,257.8,69.42,265.33Z" style="fill:#37474f"></path><polygon points="51.9 348.87 55.37 273.22 59.01 348.86 51.9 348.87" style="fill:#263238"></polygon><polygon points="53.96 304.94 67.35 289.26 56.85 307 53.96 304.94" style="fill:#263238"></polygon><path d="M73.44,270.73s-10.52-4.17-18.86,10.37C46,296,56.78,305.82,65.29,300c0,0,6.7,14,20,10.67s15.52-14.05,15.52-14.05,11.86.82,12.18-8-8.37-16.69-8.37-16.69-.52-22-14.89-21.86S73.44,270.73,73.44,270.73Z" style="fill:#455a64"></path><polygon points="83.3 348.83 86.23 283.24 89.31 348.83 83.3 348.83" style="fill:#263238"></polygon><polygon points="85.36 307.89 76.13 289.5 86.88 305.02 85.36 307.89" style="fill:#263238"></polygon><path d="M458.64,265s22.6,50.19-14.29,50.23-13-51.91-13-51.91-8.54-3.75,1.33-31.77,14.3-28,18.42-28c5.2,0,10.05,12.12,6.52,30.74C457.58,234.25,470.59,257.47,458.64,265Z" style="fill:#37474f"></path><polygon points="441.11 348.53 444.58 272.88 448.22 348.53 441.11 348.53" style="fill:#263238"></polygon><polygon points="443.17 304.6 456.56 288.92 446.07 306.67 443.17 304.6" style="fill:#263238"></polygon><path d="M152.81,275.66s-19.7,44,12.61,44,11.32-45.5,11.32-45.5,7.48-3.3-1.22-27.82-12.59-24.53-16.19-24.52c-4.55,0-8.78,10.63-5.66,26.93C153.67,248.72,142.33,269.08,152.81,275.66Z" style="fill:#37474f"></path><polygon points="168.32 348.8 165.13 282.54 162.09 348.8 168.32 348.8" style="fill:#263238"></polygon><polygon points="166.43 310.32 154.67 296.61 163.9 312.13 166.43 310.32" style="fill:#263238"></polygon><path d="M392.2,270.46s-10.52-4.16-18.86,10.37c-8.54,14.91,2.2,24.72,10.71,18.86,0,0,6.7,14,20.05,10.67s15.52-14.05,15.52-14.05,11.86.83,12.18-8-8.37-16.7-8.37-16.7-.52-22-14.88-21.86S392.2,270.46,392.2,270.46Z" style="fill:#455a64"></path><polygon points="402.06 348.57 404.99 282.97 408.07 348.56 402.06 348.57" style="fill:#263238"></polygon><polygon points="404.09 307.55 394.89 289.23 405.9 304.72 404.09 307.55" style="fill:#263238"></polygon></g><g id="freepik--Floor--inject-680"><rect x="29.57" y="347.96" width="440.87" height="8.57" style="fill:#c7c7c7"></rect><path d="M60.47,348a17.63,17.63,0,0,1,0,8.58,18,18,0,0,1,0-8.58Z" style="fill:#263238"></path><path d="M94.93,348a17.63,17.63,0,0,1,0,8.58,15.75,15.75,0,0,1-.52-4.29A16.15,16.15,0,0,1,94.93,348Z" style="fill:#263238"></path><path d="M129.39,348a17.63,17.63,0,0,1,0,8.58,15.75,15.75,0,0,1-.52-4.29A16.15,16.15,0,0,1,129.39,348Z" style="fill:#263238"></path><path d="M163.85,348a17.63,17.63,0,0,1,0,8.58,15.75,15.75,0,0,1-.52-4.29A16.15,16.15,0,0,1,163.85,348Z" style="fill:#263238"></path><path d="M198.31,348a16.16,16.16,0,0,1,.53,4.29,15.76,15.76,0,0,1-.53,4.29,18,18,0,0,1,0-8.58Z" style="fill:#263238"></path><path d="M232.77,348a15.75,15.75,0,0,1,.52,4.29,15.37,15.37,0,0,1-.52,4.29,15.37,15.37,0,0,1-.52-4.29A15.75,15.75,0,0,1,232.77,348Z" style="fill:#263238"></path><path d="M267.23,348a15.75,15.75,0,0,1,.52,4.29,15.37,15.37,0,0,1-.52,4.29,15.37,15.37,0,0,1-.52-4.29A15.75,15.75,0,0,1,267.23,348Z" style="fill:#263238"></path><path d="M301.69,348a18,18,0,0,1,0,8.58,15.37,15.37,0,0,1-.52-4.29A15.75,15.75,0,0,1,301.69,348Z" style="fill:#263238"></path><path d="M336.15,348a16.15,16.15,0,0,1,.52,4.29,15.75,15.75,0,0,1-.52,4.29,17.63,17.63,0,0,1,0-8.58Z" style="fill:#263238"></path><path d="M370.61,348a16.15,16.15,0,0,1,.52,4.29,15.75,15.75,0,0,1-.52,4.29,17.63,17.63,0,0,1,0-8.58Z" style="fill:#263238"></path><path d="M405.07,348a16.15,16.15,0,0,1,.52,4.29,15.75,15.75,0,0,1-.52,4.29,17.63,17.63,0,0,1,0-8.58Z" style="fill:#263238"></path><path d="M439.53,348a18,18,0,0,1,0,8.58,17.63,17.63,0,0,1,0-8.58Z" style="fill:#263238"></path><polygon points="29.57 356.54 84.67 356.29 139.78 356.2 250 356.04 360.22 356.2 415.33 356.29 470.43 356.54 415.33 356.78 360.22 356.87 250 357.04 139.78 356.87 84.67 356.78 29.57 356.54" style="fill:#263238"></polygon></g><g id="freepik--Puddles--inject-680"><path d="M180.37,447.33c0,3.56-17.25,6.44-38.53,6.44s-38.54-2.88-38.54-6.44,17.26-6.45,38.54-6.45S180.37,443.77,180.37,447.33Z" style="fill:#c7c7c7"></path><path d="M125.76,450.05a78.78,78.78,0,0,1-8.53-.89,14.43,14.43,0,0,1-4.14-1.15,1.31,1.31,0,0,1-.44-.38.6.6,0,0,1-.11-.3c0-.11,0-.24.11-.31a2.12,2.12,0,0,1,.93-.63,12.66,12.66,0,0,1,2.07-.63,69.86,69.86,0,0,1,8.5-1.11c2.85-.19,5.71-.3,8.56-.42l-8.54.59A66.91,66.91,0,0,0,115.7,446a12.78,12.78,0,0,0-2,.59,1.88,1.88,0,0,0-.83.54c-.22.24.07.53.35.69a14.34,14.34,0,0,0,4.07,1.17C120.07,449.48,122.91,449.78,125.76,450.05Z" style="fill:#fff"></path><path d="M141.84,450.59c-2,.05-4.07,0-6.11,0s-4.07-.12-6.1-.27c2-.06,4.07,0,6.11,0S139.8,450.43,141.84,450.59Z" style="fill:#fff"></path><path d="M164,449.45c-1.35.22-2.71.35-4.07.49s-2.73.23-4.1.25c1.35-.23,2.71-.36,4.07-.5S162.63,449.47,164,449.45Z" style="fill:#fff"></path><path d="M141.84,444.07q3.71,0,7.43.1c2.48.06,5,0,7.44.29s4.94.41,7.4.68c1.23.17,2.46.36,3.67.63a18.48,18.48,0,0,1,1.8.51,5.38,5.38,0,0,1,.85.38c.25.15.56.34.59.67,0-.32-.35-.5-.61-.65a6.28,6.28,0,0,0-.85-.34,16.33,16.33,0,0,0-1.8-.45c-1.21-.25-2.44-.43-3.67-.59-2.46-.24-4.94-.39-7.4-.59s-4.95-.28-7.42-.37S144.31,444.18,141.84,444.07Z" style="fill:#fff"></path><path d="M130.26,448.92c-2-.08-4.07-.21-6.1-.48a13.22,13.22,0,0,1-3-.66,1.1,1.1,0,0,1-.35-.24.37.37,0,0,1-.09-.25.34.34,0,0,1,.13-.22,2.15,2.15,0,0,1,.72-.37,13.61,13.61,0,0,1,1.5-.36,92.37,92.37,0,0,1,12.2-.82c-2,.15-4.07.26-6.1.37a60.86,60.86,0,0,0-6,.7,12.19,12.19,0,0,0-1.48.33,1.84,1.84,0,0,0-.63.3c-.19.12,0,.26.24.38a13.54,13.54,0,0,0,2.94.68C126.2,448.56,128.23,448.74,130.26,448.92Z" style="fill:#fff"></path><path d="M141.84,449.23c-1.47.07-2.93,0-4.4,0s-2.93-.08-4.39-.21c1.47-.08,2.93-.06,4.4,0S140.37,449.1,141.84,449.23Z" style="fill:#fff"></path><path d="M157.8,448.56c-1,.18-2,.26-2.94.35s-2,.12-3,.09c1-.18,2-.26,2.93-.34S156.81,448.53,157.8,448.56Z" style="fill:#fff"></path><path d="M141.84,445.42c1.77,0,3.55,0,5.32,0s3.55,0,5.33.14l5.31.42c.88.1,1.76.21,2.64.37.43.09.87.18,1.3.3a5.33,5.33,0,0,1,.63.23c.19.09.44.19.48.42,0-.23-.3-.31-.49-.4s-.42-.13-.64-.19c-.43-.1-.86-.17-1.3-.24-.88-.14-1.76-.24-2.64-.33l-5.31-.33c-1.76-.17-3.54-.16-5.31-.23S143.61,445.51,141.84,445.42Z" style="fill:#fff"></path><ellipse cx="364.96" cy="408.85" rx="30.82" ry="5.15" style="fill:#c7c7c7"></ellipse><path d="M351.13,411.61a50.29,50.29,0,0,1-6.91-.92c-.56-.13-1.13-.26-1.69-.44a5.56,5.56,0,0,1-1.6-.75.78.78,0,0,1-.35-.86,1.48,1.48,0,0,1,.65-.66,7.75,7.75,0,0,1,1.64-.67,42.13,42.13,0,0,1,6.87-1.16c2.31-.21,4.63-.32,6.95-.45l-6.93.61a42.21,42.21,0,0,0-6.82,1.24,7.29,7.29,0,0,0-1.59.62,1.39,1.39,0,0,0-.56.54.56.56,0,0,0,.28.63,5.1,5.1,0,0,0,1.52.73c.55.19,1.11.32,1.67.46C346.52,411,348.82,411.33,351.13,411.61Z" style="fill:#fff"></path><path d="M364,412.15c-1.62.06-3.25,0-4.88,0s-3.26-.12-4.88-.28c1.64-.05,3.26,0,4.89,0S362.36,412,364,412.15Z" style="fill:#fff"></path><path d="M381.71,411c-1.07.23-2.16.36-3.25.5s-2.19.23-3.29.25c1.08-.23,2.17-.36,3.26-.5S380.6,411,381.71,411Z" style="fill:#fff"></path><path d="M364,405.54c2,0,4,0,6,.11a59.91,59.91,0,0,1,6,.3c2,.23,4,.41,6,.7a29.51,29.51,0,0,1,2.93.66,10,10,0,0,1,1.41.53c.42.22,1,.48,1,1-.08-.53-.63-.75-1.05-1a10.27,10.27,0,0,0-1.42-.47,28.72,28.72,0,0,0-2.93-.61c-2-.27-4-.41-6-.62a59.63,59.63,0,0,0-6-.39Q367,405.71,364,405.54Z" style="fill:#fff"></path><path d="M354.73,410.46a40.38,40.38,0,0,1-4.92-.49,8,8,0,0,1-2.41-.69.92.92,0,0,1-.26-.23.59.59,0,0,1-.07-.2.52.52,0,0,1,.07-.2,1.27,1.27,0,0,1,.54-.4,7.93,7.93,0,0,1,1.2-.38,38.8,38.8,0,0,1,4.91-.64c1.65-.11,3.3-.17,4.94-.22-1.64.15-3.28.26-4.92.38a37.62,37.62,0,0,0-4.87.73,6.22,6.22,0,0,0-1.16.34,1.12,1.12,0,0,0-.46.3c-.1.11,0,.25.19.35a8.56,8.56,0,0,0,2.32.7C351.45,410.1,353.09,410.28,354.73,410.46Z" style="fill:#fff"></path><path d="M364,410.78c-1.17.07-2.34.05-3.51,0s-2.35-.08-3.51-.22c1.17-.07,2.34-.05,3.51,0S362.81,410.65,364,410.78Z" style="fill:#fff"></path><path d="M376.75,410.1a20.64,20.64,0,0,1-2.34.35,20.87,20.87,0,0,1-2.37.09,23.2,23.2,0,0,1,4.71-.44Z" style="fill:#fff"></path><path d="M364,406.92c1.43,0,2.86,0,4.29,0s2.86,0,4.29.16,2.85.25,4.27.42c.71.1,1.41.22,2.11.38a9.43,9.43,0,0,1,1,.32c.31.14.73.26.82.63-.1-.36-.53-.45-.84-.57a9.3,9.3,0,0,0-1-.26c-.69-.14-1.4-.25-2.1-.34-1.42-.13-2.85-.22-4.27-.34s-2.85-.17-4.27-.23S365.41,407,364,406.92Z" style="fill:#fff"></path><ellipse cx="385.48" cy="414" rx="11.22" ry="1.95" style="fill:#c7c7c7"></ellipse><path d="M389.36,413.2a12.47,12.47,0,0,1,2.11.21,2.61,2.61,0,0,1,1,.39.31.31,0,0,1,.13.34.53.53,0,0,1-.22.26,2.62,2.62,0,0,1-.52.22,16.15,16.15,0,0,1-4.21.42,31.33,31.33,0,0,0,4.14-.66c.29-.08.77-.29.53-.41a2.82,2.82,0,0,0-.92-.37C390.75,413.43,390.06,413.31,389.36,413.2Z" style="fill:#fff"></path><path d="M385.48,413a8.77,8.77,0,0,1,2.95.09,8.21,8.21,0,0,1-1.48.08A9.2,9.2,0,0,1,385.48,413Z" style="fill:#fff"></path><path d="M380.12,413.39a3.63,3.63,0,0,1,1-.24,3.72,3.72,0,0,1,1,0,4.13,4.13,0,0,1-2,.24Z" style="fill:#fff"></path><path d="M385.48,415.09c-.61,0-1.22,0-1.82,0s-1.22,0-1.82-.08-1.21-.13-1.81-.24a8.93,8.93,0,0,1-.89-.23c-.14-.06-.29-.12-.42-.19s-.29-.17-.3-.33c.12.29.49.32.75.4s.59.12.89.16l1.8.18c.6.09,1.2.09,1.8.13S384.87,415,385.48,415.09Z" style="fill:#fff"></path><path d="M388.28,413.55a10.79,10.79,0,0,1,1.5.09,2.29,2.29,0,0,1,.76.21.23.23,0,0,1,.1.31.47.47,0,0,1-.2.16,1.77,1.77,0,0,1-.37.12,11.71,11.71,0,0,1-3,.19c1-.17,2-.2,2.95-.43.21,0,.55-.2.4-.16a2.93,2.93,0,0,0-.67-.21C389.26,413.72,388.77,413.64,388.28,413.55Z" style="fill:#fff"></path><path d="M385.48,413.45a4.75,4.75,0,0,1,2.12.06,4.81,4.81,0,0,1-1.06.1A4.25,4.25,0,0,1,385.48,413.45Z" style="fill:#fff"></path><path d="M381.62,413.67a1.94,1.94,0,0,1,.7-.2,2,2,0,0,1,.72.06,2.17,2.17,0,0,1-1.42.14Z" style="fill:#fff"></path><path d="M385.48,414.66a17.38,17.38,0,0,1-2.6,0c-.44-.05-.87-.08-1.3-.15-.21,0-.43-.09-.64-.15s-.46-.12-.54-.33c.11.18.37.17.57.21s.42.06.64.08l1.28.09c.43.06.86.06,1.29.09S385,414.6,385.48,414.66Z" style="fill:#fff"></path><ellipse cx="341.38" cy="440.09" rx="41.73" ry="7.5" style="fill:#c7c7c7"></ellipse><path d="M359,443.75a82.25,82.25,0,0,0,9.38-1.55c.77-.21,1.54-.41,2.27-.68a6.45,6.45,0,0,0,2.06-1.09.9.9,0,0,0,.39-.93,1.67,1.67,0,0,0-.73-.81,9.53,9.53,0,0,0-2.14-.94,53.24,53.24,0,0,0-9.31-1.83c-1.58-.19-3.16-.28-4.74-.42l-4.75-.44c3.17.22,6.35.39,9.51.7a53.52,53.52,0,0,1,9.37,1.75,9.2,9.2,0,0,1,2.19,1,1.85,1.85,0,0,1,.81.93,1.12,1.12,0,0,1-.46,1.15,6.55,6.55,0,0,1-2.13,1.1,23.23,23.23,0,0,1-2.3.67A66.66,66.66,0,0,1,359,443.75Z" style="fill:#fff"></path><path d="M341.49,444.56l13.28-.45c-2.21.26-4.42.38-6.63.47S343.71,444.66,341.49,444.56Z" style="fill:#fff"></path><path d="M317.39,442.86l4.45.53c1.48.19,3,.34,4.44.57a44.57,44.57,0,0,1-4.47-.33A39.29,39.29,0,0,1,317.39,442.86Z" style="fill:#fff"></path><path d="M341.49,434.82c-5.46.11-10.92.28-16.35.82-2.72.24-5.43.55-8.11,1a36.05,36.05,0,0,0-4,.92,12.21,12.21,0,0,0-1.91.71,4.73,4.73,0,0,0-.86.53,1.23,1.23,0,0,0-.51.85,1.2,1.2,0,0,1,.49-.87,4.14,4.14,0,0,1,.86-.57,12.59,12.59,0,0,1,1.9-.77,36.63,36.63,0,0,1,4-1c2.69-.51,5.41-.85,8.13-1.12A162.71,162.71,0,0,1,341.49,434.82Z" style="fill:#fff"></path><path d="M354.08,442.06c2.24-.24,4.48-.5,6.68-.93.55-.11,1.1-.23,1.63-.39a5.31,5.31,0,0,0,1.53-.63c.22-.14.39-.37.27-.56a1.5,1.5,0,0,0-.6-.46,8.6,8.6,0,0,0-1.58-.52,46.26,46.26,0,0,0-6.65-1.05l-6.72-.53c2.24.1,4.49.19,6.74.36a47.32,47.32,0,0,1,6.69,1,8.59,8.59,0,0,1,1.62.55,1.66,1.66,0,0,1,.7.57,1.1,1.1,0,0,1,.06.26,1,1,0,0,1-.08.25,1.11,1.11,0,0,1-.33.32,5.7,5.7,0,0,1-1.59.64c-.55.15-1.1.27-1.66.38A53.82,53.82,0,0,1,354.08,442.06Z" style="fill:#fff"></path><path d="M341.49,442.53c1.6-.14,3.19-.19,4.78-.25s3.18-.07,4.78,0c-1.59.15-3.18.2-4.77.26S343.09,442.59,341.49,442.53Z" style="fill:#fff"></path><path d="M324.14,441.54c1.08,0,2.15.11,3.21.2s2.13.23,3.19.45c-1.07,0-2.14-.11-3.21-.2S325.19,441.75,324.14,441.54Z" style="fill:#fff"></path><path d="M341.49,436.85c-1.94.1-3.89.18-5.83.24s-3.9.08-5.83.33-3.88.31-5.81.52c-1,.14-1.93.3-2.87.52a13.16,13.16,0,0,0-1.4.39,3.93,3.93,0,0,0-.66.3c-.2.13-.42.29-.44.54a.8.8,0,0,1,.42-.56,4.12,4.12,0,0,1,.66-.34,13.25,13.25,0,0,1,1.39-.45c.95-.24,1.91-.41,2.87-.56,1.94-.24,3.88-.4,5.82-.61s3.89-.19,5.84-.24S339.55,436.85,341.49,436.85Z" style="fill:#fff"></path><ellipse cx="236.8" cy="392.15" rx="24.65" ry="3.93" style="fill:#c7c7c7"></ellipse><path d="M226.38,393.19a53.24,53.24,0,0,1-5.49-.46,10.6,10.6,0,0,1-2.7-.63,1.12,1.12,0,0,1-.32-.23.42.42,0,0,1-.08-.23.38.38,0,0,1,.11-.21,1.82,1.82,0,0,1,.65-.36,10.52,10.52,0,0,1,1.34-.34,53.56,53.56,0,0,1,5.49-.6c1.84-.1,3.67-.15,5.51-.19-1.83.14-3.67.25-5.5.36a52.65,52.65,0,0,0-5.45.67,9.77,9.77,0,0,0-1.32.32,1.63,1.63,0,0,0-.56.28c-.14.11,0,.24.22.35a11,11,0,0,0,2.63.65C222.73,392.84,224.55,393,226.38,393.19Z" style="fill:#fff"></path><path d="M236.8,393.49c-1.32.07-2.64.05-4,0s-2.64-.08-4-.21c1.32-.07,2.64-.05,4,0S235.48,393.36,236.8,393.49Z" style="fill:#fff"></path><path d="M251.15,392.85a29.39,29.39,0,0,1-5.29.42,25.91,25.91,0,0,1,2.63-.34C249.37,392.88,250.26,392.82,251.15,392.85Z" style="fill:#fff"></path><path d="M236.8,389.85c1.59,0,3.19,0,4.79,0s3.2,0,4.8.14l4.78.39c.79.1,1.59.21,2.38.36.39.09.78.18,1.16.29a5.42,5.42,0,0,1,.56.22c.17.09.39.19.42.4,0-.21-.26-.29-.43-.37a5.27,5.27,0,0,0-.56-.19,11.71,11.71,0,0,0-1.18-.23c-.78-.13-1.57-.23-2.37-.31l-4.78-.32c-1.59-.16-3.19-.16-4.78-.22S238.39,389.93,236.8,389.85Z" style="fill:#fff"></path><path d="M229.3,392.55c-1.31,0-2.63-.07-3.93-.22a9.51,9.51,0,0,1-2-.36.67.67,0,0,1-.25-.15.2.2,0,0,1-.07-.2.35.35,0,0,1,.12-.16,1.58,1.58,0,0,1,.49-.2,8.35,8.35,0,0,1,1-.2,62.87,62.87,0,0,1,7.87-.4c-1.31.1-2.62.17-3.93.24s-2.61.2-3.9.4c-.32.05-.64.1-1,.18a1.6,1.6,0,0,0-.42.16c-.06.05,0,0,0,0a.72.72,0,0,0,.18.1,9.69,9.69,0,0,0,1.9.38C226.68,392.32,228,392.44,229.3,392.55Z" style="fill:#fff"></path><path d="M236.8,392.73c-1,.09-1.9.08-2.85.08s-1.9-.06-2.85-.18c1-.08,1.9-.08,2.85-.07S235.85,392.61,236.8,392.73Z" style="fill:#fff"></path><path d="M247.13,392.36a15.23,15.23,0,0,1-3.81.24,14.07,14.07,0,0,1,3.81-.24Z" style="fill:#fff"></path><path d="M236.8,390.6c1.14,0,2.29,0,3.43,0s2.3,0,3.44.07,2.29.14,3.44.24c.57.06,1.14.13,1.7.23.29.05.57.11.85.18l.41.13c.12.05.29.1.33.25,0-.14-.21-.18-.34-.22a2.13,2.13,0,0,0-.42-.1q-.42-.08-.84-.12c-.57-.07-1.14-.12-1.71-.16l-3.43-.18c-1.14-.1-2.29-.08-3.43-.13S237.94,390.67,236.8,390.6Z" style="fill:#fff"></path><ellipse cx="195.77" cy="456.71" rx="52.19" ry="9.38" style="fill:#c7c7c7"></ellipse><path d="M219.13,450.57a87.93,87.93,0,0,1,12.69,2,28.12,28.12,0,0,1,3.09.93,9,9,0,0,1,2.84,1.53,1.54,1.54,0,0,1,.59,1.52,2.35,2.35,0,0,1-1,1.28,12.07,12.07,0,0,1-2.92,1.4,68.72,68.72,0,0,1-12.62,2.48c-4.26.44-8.54.69-12.82,1l6.4-.58c2.14-.21,4.28-.32,6.4-.59A68.59,68.59,0,0,0,234.31,459a11.69,11.69,0,0,0,2.86-1.34,2.23,2.23,0,0,0,1-1.15,1.36,1.36,0,0,0-.52-1.32,8.77,8.77,0,0,0-2.77-1.51,31.84,31.84,0,0,0-3.06-.94c-2.07-.54-4.18-.93-6.29-1.27S221.25,450.82,219.13,450.57Z" style="fill:#fff"></path><path d="M195.62,449.45c3-.11,5.95,0,8.93,0s5.95.27,8.91.6c-3-.11-5.94-.29-8.92-.35S198.59,449.55,195.62,449.45Z" style="fill:#fff"></path><path d="M163.21,451.83a57.21,57.21,0,0,1,5.94-1c2-.24,4-.44,6-.51l-6,.76C167.19,451.27,165.21,451.56,163.21,451.83Z" style="fill:#fff"></path><path d="M195.62,463.06a213.74,213.74,0,0,1-22.06-.86c-3.67-.37-7.32-.84-10.94-1.55a47.76,47.76,0,0,1-5.36-1.35,15.71,15.71,0,0,1-2.54-1.07,5.28,5.28,0,0,1-1.14-.79,1.7,1.7,0,0,1-.63-1.19,1.68,1.68,0,0,0,.65,1.17,5.83,5.83,0,0,0,1.15.75,15.55,15.55,0,0,0,2.55,1,46.89,46.89,0,0,0,5.35,1.31c3.62.68,7.27,1.12,10.93,1.47C180.9,462.7,188.26,462.94,195.62,463.06Z" style="fill:#fff"></path><path d="M212.54,452.94a74.36,74.36,0,0,1,9,1.1c.74.16,1.49.32,2.22.53a7.27,7.27,0,0,1,2.11.9l.24.19a1.64,1.64,0,0,1,.19.25,1,1,0,0,1,.1.31,1.91,1.91,0,0,1-.06.33,2.17,2.17,0,0,1-.91.77,10.75,10.75,0,0,1-2.16.78,61.2,61.2,0,0,1-9,1.39c-3,.24-6.06.38-9.09.54l9.07-.71a59.86,59.86,0,0,0,9-1.46,10.85,10.85,0,0,0,2.12-.74,2,2,0,0,0,.82-.67c.15-.29-.09-.62-.39-.81a7.12,7.12,0,0,0-2-.89c-.72-.22-1.46-.38-2.2-.55C218.58,453.61,215.56,453.25,212.54,452.94Z" style="fill:#fff"></path><path d="M195.62,452.28c2.14,0,4.28,0,6.42.05s4.29.15,6.42.31c-2.14,0-4.28,0-6.42-.06S197.76,452.44,195.62,452.28Z" style="fill:#fff"></path><path d="M172.28,453.67c1.42-.26,2.86-.41,4.29-.58s2.88-.28,4.32-.33c-1.43.26-2.86.41-4.29.58S173.73,453.62,172.28,453.67Z" style="fill:#fff"></path><path d="M195.62,460.23q-3.94,0-7.87-.15c-2.62-.07-5.25-.07-7.87-.29s-5.23-.49-7.82-.9c-1.3-.21-2.59-.45-3.86-.78a14.67,14.67,0,0,1-1.87-.63,4.87,4.87,0,0,1-.88-.45,1.1,1.1,0,0,1-.55-.78,1.08,1.08,0,0,0,.57.75,5.52,5.52,0,0,0,.88.43,15.06,15.06,0,0,0,1.88.56c1.27.31,2.56.54,3.85.73,2.6.39,5.21.63,7.82.82s5.23.27,7.85.38S193,460.1,195.62,460.23Z" style="fill:#fff"></path><path d="M133.9,413.21c0,1.08-5,2-11.22,2s-11.22-.87-11.22-2,5-1.95,11.22-1.95S133.9,412.13,133.9,413.21Z" style="fill:#c7c7c7"></path><path d="M118.18,414.19a15.43,15.43,0,0,1-2.43-.26,3.19,3.19,0,0,1-1.18-.43.36.36,0,0,1-.15-.39.59.59,0,0,1,.26-.28,3.63,3.63,0,0,1,.58-.25,19.57,19.57,0,0,1,4.87-.5,35.92,35.92,0,0,0-4.79.74,2.35,2.35,0,0,0-.54.22c-.16.11-.23.17-.09.28a3.43,3.43,0,0,0,1.08.42C116.58,413.94,117.38,414.07,118.18,414.19Z" style="fill:#fff"></path><path d="M122.68,414.39a12.23,12.23,0,0,1-1.71.07,10.77,10.77,0,0,1-1.7-.18,12.23,12.23,0,0,1,1.71-.07A10.9,10.9,0,0,1,122.68,414.39Z" style="fill:#fff"></path><path d="M128.88,414a5.36,5.36,0,0,1-1.12.26,5.62,5.62,0,0,1-1.16,0,5,5,0,0,1,1.13-.26A4.91,4.91,0,0,1,128.88,414Z" style="fill:#fff"></path><path d="M122.68,412c.7,0,1.4,0,2.11,0a16.4,16.4,0,0,1,2.1.09c.7.09,1.4.15,2.09.27a9.13,9.13,0,0,1,1,.26,4.25,4.25,0,0,1,.49.21c.14.09.34.19.35.38,0-.18-.23-.26-.38-.32a3.06,3.06,0,0,0-.49-.15c-.34-.08-.68-.14-1-.19l-2.08-.21c-.69-.11-1.39-.1-2.09-.15S123.38,412.09,122.68,412Z" style="fill:#fff"></path><path d="M119.44,413.78a11.17,11.17,0,0,1-1.73-.11,2.42,2.42,0,0,1-.87-.24.6.6,0,0,1-.12-.11.22.22,0,0,1,0-.22.52.52,0,0,1,.22-.17,2.54,2.54,0,0,1,.44-.15,15,15,0,0,1,3.47-.23c-1.15.18-2.31.21-3.42.48a2.5,2.5,0,0,0-.39.11c-.05,0-.12.06-.12.08s0,0,0,0a3,3,0,0,0,.78.24C118.3,413.6,118.87,413.69,119.44,413.78Z" style="fill:#fff"></path><path d="M122.68,413.9a5.67,5.67,0,0,1-1.23.09,5.19,5.19,0,0,1-1.23-.16,6.53,6.53,0,0,1,1.24-.09A5.67,5.67,0,0,1,122.68,413.9Z" style="fill:#fff"></path><path d="M127.15,413.66a2.6,2.6,0,0,1-.81.2,2.64,2.64,0,0,1-.84-.05,2.79,2.79,0,0,1,1.65-.15Z" style="fill:#fff"></path><path d="M122.68,412.52a21.6,21.6,0,0,1,3,0c.5.06,1,.09,1.5.17a6.52,6.52,0,0,1,.74.16c.22.09.53.13.63.38-.13-.21-.43-.21-.66-.26s-.49-.07-.74-.09l-1.49-.11c-.49-.07-1-.06-1.49-.1S123.18,412.58,122.68,412.52Z" style="fill:#fff"></path></g><g id="freepik--Character--inject-680"><path d="M278.4,149.29c4.37,11.35,13.63,29.93,16.82,39.49,2.09,6.27,13,26.93,14,30.86,1.24,4.79-25.76,12.38-26.11,9-.23-2.26-6.58-23.54-8.42-32.75-2.55-12.71-7-36.23-6.42-46.46C268.86,138.37,275.28,141.19,278.4,149.29Z" style="fill:#eb9481"></path><path d="M306.3,212.84c11.75,24.21,5.13,38.31,3.84,41.21-1.09,2.49-1.68,3.75-1.68,3.75-1.87,4.49-4.6,5.43-4.6,5.43s-.64,5.83-4.23,6c-4,.24-2.33-8-4.17-13.08-4.22-11.67-11.95-32.4-13.5-35.64Z" style="fill:#eb9481"></path><path d="M299.63,240.83a79.07,79.07,0,0,1,3.11,10.43,80,80,0,0,1,1,11.87.1.1,0,0,0,.19,0,42.29,42.29,0,0,0-4-22.42C299.85,240.56,299.57,240.66,299.63,240.83Z" style="fill:#263238"></path><path d="M306.3,237.27c1,3.42,2.6,9.46,2,20.53,0,0,.06.05.07,0a38,38,0,0,0-1.76-20.63C306.57,237,306.24,237,306.3,237.27Z" style="fill:#263238"></path><path d="M290.67,243.12c-1.15-1.31-3-1.4-2.85,1.69s5.19,13.64.88,14.44-9.52-15.32-9.42-20.47S282,220.53,282,220.53C283.49,223.68,287.92,235.55,290.67,243.12Z" style="fill:#eb9481"></path><path d="M309.28,215.05l-31.52,7.24s-4.7-27.77-5.93-35.9-5-28.26-3.6-39,7.13-6.14,12.07,4,12.18,28.36,13,30.25S309.28,215.05,309.28,215.05Z" style="fill:#FFA52E"></path><path d="M279.57,172.62a9,9,0,0,0-.77,2.48,8.77,8.77,0,0,0,1.37-2.2,9.06,9.06,0,0,0,.77-2.48A8.6,8.6,0,0,0,279.57,172.62Zm10.16,25a9.56,9.56,0,0,0-.78,2.48,9,9,0,0,0,1.39-2.2,9.22,9.22,0,0,0,.76-2.47A9.33,9.33,0,0,0,289.73,197.63Zm-19.91-38a9.77,9.77,0,0,0-1.67-.6l0,.47a11.8,11.8,0,0,0,1.35.74A9.54,9.54,0,0,0,272,161,8.87,8.87,0,0,0,269.82,159.6Zm32.39,45.61a9.42,9.42,0,0,0-2.48-.77,9.06,9.06,0,0,0,2.19,1.38,9.17,9.17,0,0,0,2.48.77A8.87,8.87,0,0,0,302.21,205.21Zm-27-17.89a8.94,8.94,0,0,0-2.48-.76,9.07,9.07,0,0,0,2.2,1.37,9.44,9.44,0,0,0,2.48.78A9,9,0,0,0,275.25,187.32Zm2.17,32.9c0,.27.08.51.12.73a7,7,0,0,0,1.61.41A8.09,8.09,0,0,0,277.42,220.22ZM276,147.68a8.88,8.88,0,0,0-1.22-2.29,9.26,9.26,0,0,0,.59,2.52,8.6,8.6,0,0,0,1.21,2.3A9.62,9.62,0,0,0,276,147.68Zm13.68,64.14a9.22,9.22,0,0,0-1.21-2.3,9.32,9.32,0,0,0,.58,2.53,9,9,0,0,0,1.21,2.29A8.9,8.9,0,0,0,289.71,211.82Zm-6.85-53.1a8.94,8.94,0,0,0-1.22-2.3,9.71,9.71,0,0,0,.58,2.53,8.88,8.88,0,0,0,1.22,2.29A9.64,9.64,0,0,0,282.86,158.72Zm-6.48,44.69a11.74,11.74,0,0,0-1.65.77l.06.36a10.2,10.2,0,0,0,1.82-.5,8.9,8.9,0,0,0,2.3-1.21A9.24,9.24,0,0,0,276.38,203.41ZM289.5,183a9.56,9.56,0,0,0-2.3,1.21,8.89,8.89,0,0,0,2.53-.58,9.06,9.06,0,0,0,2.3-1.21A9.15,9.15,0,0,0,289.5,183Zm-5-23.35-.1.07h.11S284.49,159.68,284.49,159.66Z" style="fill:#fff"></path><path d="M278.4,214.89c3.44-.93,6.93-1.68,10.42-2.41s7-1.48,10.49-2.13c2-.37,4-.75,5.95-1,.05,0,.08.08,0,.09-3.44.93-6.93,1.7-10.41,2.45s-7,1.49-10.48,2.18c-2,.39-4,.74-6,1A.09.09,0,0,1,278.4,214.89Z" style="fill:#263238"></path><path d="M295.72,218.17l-18,4.12s-4.69-27.77-5.93-35.9-5-28.26-3.6-39c.86-6.46,3.27-7.37,6.13-4.86C279.37,160.06,291.15,201.33,295.72,218.17Z" style="opacity:0.1"></path><path d="M247.84,395.15s-3,41.5-3,41.53c0,8.13.07,15.25.47,18.93a.13.13,0,0,0,0,.06,5.67,5.67,0,0,0,.59,2.52l0,.05c2.41,1.65,67.36,3.87,69.65,3.19s.52-7.27-1.93-9.37S286.72,438,286.72,438l2.59-41.48Z" style="fill:#eb9481"></path><path d="M244.84,428s0,8.7,0,8.73c0,8.13.07,15.25.47,18.93a.13.13,0,0,0,0,.06,11,11,0,0,0,.59,2.52l0,.05c2.41,1.65,67.36,3.87,69.65,3.19s.52-7.27-1.93-9.37S286.72,438,286.72,438l.12-8.85Z" style="fill:#fff"></path><path d="M315.6,461.43c-2.29.69-67.23-1.54-69.65-3.19-.93-.62-1.16-10.1-1.1-21.56v-.36l41.92,1,0,.71s24.48,12,26.95,14.07S317.9,460.75,315.6,461.43Z" style="fill:#FFA52E"></path><path d="M315,458.89c-10.93-.65-55.11-2.21-66-2-.09,0-.09.07,0,.07,10.82.88,55,2.08,66,2.13C315.18,459.07,315.18,458.9,315,458.89Z" style="fill:#263238"></path><path d="M290.24,438.24c-4.28-.95-9.57-.47-13,2.49-.13.11,0,.3.18.26a60.46,60.46,0,0,1,12.75-2.2A.28.28,0,0,0,290.24,438.24Z" style="fill:#263238"></path><path d="M293.29,440.22c-4.28-1-9.58-.47-13,2.49-.13.11,0,.3.17.26a60.66,60.66,0,0,1,12.76-2.2A.28.28,0,0,0,293.29,440.22Z" style="fill:#263238"></path><path d="M296.33,442.2c-4.28-.95-9.57-.47-13,2.49-.13.11,0,.3.18.26a60.44,60.44,0,0,1,12.76-2.2A.28.28,0,0,0,296.33,442.2Z" style="fill:#263238"></path><path d="M242.34,438.47l45.46-.91s5.55-81.8,4.51-109.07c-1.12-29.63-13.84-117.77-13.84-117.77h-38.4s9.82,88.49,10,118.12C250.29,356.32,242.34,438.47,242.34,438.47Z" style="fill:#37474f"></path><path d="M270.92,210.72l-23.06,79.79c-2.73-37.76-7.79-79.79-7.79-79.79Z" style="fill:#263238"></path><path d="M247.36,215.06l2.44,26.32,2.26,26.32c1.44,17.56,2.82,35.12,3.86,52.72.26,4.39.41,8.81.35,13.23s-.27,8.82-.49,13.22q-.69,13.2-1.7,26.38T252,399.59l-2.46,26.31,2-26.35q1-13.17,1.85-26.36c.56-8.78,1.15-17.57,1.56-26.36.2-4.4.37-8.8.45-13.19s-.13-8.77-.4-13.17c-1-17.58-2.34-35.14-3.62-52.71Z" style="fill:#263238"></path><path d="M285.9,430c-7.09-.06-5.06-.15-12.15-.13-3.48,0-26.3.09-29.54.67a.07.07,0,0,0,0,.14c3.25.5,26.07,0,29.55-.05,7.09-.16,5.05-.19,12.15-.42A.11.11,0,0,0,285.9,430Z" style="fill:#263238"></path><path d="M173.94,372.89,152,408.55c-3.56,7.31-6.56,13.78-7.79,17.27a.11.11,0,0,0,0,.06,5.61,5.61,0,0,0-.56,2.52s0,0,0,.06c1.46,2.54,59,32.7,61.37,33.08s3.62-6.33,2.32-9.28-18.18-24.36-18.18-24.36l21.56-35.8Z" style="fill:#eb9481"></path><path d="M143.63,428.4a.13.13,0,0,0,0,.06c1.46,2.54,59,32.7,61.39,33.08s3.61-6.33,2.32-9.28-18.19-24.36-18.19-24.36l3.85-6.39c-9.41-5-26.51-13.83-37.12-19.28L152,408.56c-3.56,7.3-6.56,13.77-7.79,17.26a.14.14,0,0,0,0,.06A5.61,5.61,0,0,0,143.63,428.4Z" style="fill:#fff"></path><path d="M205,461.54c-2.36-.38-59.91-30.54-61.37-33.08-.57-1,3.33-9.6,8.35-19.9.06-.11.11-.22.16-.33l37.35,19-.35.62s16.87,21.4,18.18,24.36S207.39,461.92,205,461.54Z" style="fill:#FFA52E"></path><path d="M205.54,459c-9.57-5.33-48.7-25.89-58.57-30.42-.08,0-.11,0,0,.06,9.38,5.48,48.67,25.73,58.53,30.52C205.67,459.23,205.74,459.08,205.54,459Z" style="fill:#263238"></path><path d="M192.23,429.65c-3.45-2.71-8.42-4.58-12.77-3.38-.17,0-.1.28,0,.31A60.14,60.14,0,0,1,192,430.12.27.27,0,0,0,192.23,429.65Z" style="fill:#263238"></path><path d="M194.11,432.75c-3.44-2.71-8.42-4.57-12.76-3.38-.17.05-.1.29,0,.31a60.61,60.61,0,0,1,12.45,3.55A.28.28,0,0,0,194.11,432.75Z" style="fill:#263238"></path><path d="M196,435.86c-3.45-2.71-8.42-4.58-12.77-3.38-.17,0-.1.28.05.31a60.14,60.14,0,0,1,12.45,3.54A.27.27,0,0,0,196,435.86Z" style="fill:#263238"></path><path d="M274.54,210.68v0c-.17.79-2.85,13.25-5.64,23.95-2,7.81-4.1,14.68-5.3,15.39s-7.94,3.72-10.15,4.64c0,0-14.83,74-22.66,97-7.22,21.18-37.11,77.79-37.11,77.79l-43.36-21.91s33.86-57.45,37.42-67.76c5.52-16,26.2-94,26.2-94s-.15-24.43,8.07-35.1Z" style="fill:#37474f"></path><path d="M193,421c-6.19-3.47-4.37-2.56-10.6-5.95-3.05-1.66-23.11-12.55-26.23-13.6-.07,0-.12.08-.07.13,2.62,2,22.86,12.53,25.94,14.13,6.3,3.28,4.53,2.27,10.87,5.47A.1.1,0,0,0,193,421Z" style="fill:#263238"></path><path d="M225.06,239c1.19-.3,2.46-.4,3.67-.59,1-.16,2-.33,2.92-.54a12.72,12.72,0,0,0,5.15-2.17c1.68-1.31,2.53-3.29,3.34-5.19.49-1.13,1-2.25,1.49-3.38.24-.54.49-1.08.74-1.62a18.14,18.14,0,0,0,.91-2c0-.1.19,0,.15,0A12.76,12.76,0,0,0,243,225c-.17.54-.32,1.09-.49,1.63-.3,1-.59,1.95-.92,2.91a22.88,22.88,0,0,1-2.06,5.11c-1.79,2.85-5,4-8.19,4.4-.92.12-1.84.18-2.77.24a20.34,20.34,0,0,1-3.49,0A.16.16,0,0,1,225.06,239Z" style="fill:#263238"></path><path d="M267.1,248.32a85.52,85.52,0,0,0-13.59,6.32.15.15,0,0,0,.13.28c4.58-2,9.25-3.84,13.71-6.06A.3.3,0,0,0,267.1,248.32Z" style="fill:#263238"></path><path d="M268.48,217c0-.16-.29-.2-.29,0a151.23,151.23,0,0,1-.77,15.3c-.21,2.36-2.11,15.39-6.19,14.44-.69-.16-1-.83-1.15-1.86a16.13,16.13,0,0,1,.55-4c.45-2.73.82-5.47,1.05-8.22a74.27,74.27,0,0,0-.17-15.42.13.13,0,0,0-.26,0A140.16,140.16,0,0,1,260,238.47c-.51,3.39-2.21,8.49,1.33,9s5.95-8,6.39-10.35A77.87,77.87,0,0,0,268.48,217Z" style="fill:#263238"></path><path d="M261.33,247a23.85,23.85,0,0,0-.92,2.7,6.29,6.29,0,0,0-.38,2.22.16.16,0,0,0,.29.06,8.06,8.06,0,0,0,.95-2.16c.31-.83.64-1.66.92-2.5A.46.46,0,0,0,261.33,247Z" style="fill:#263238"></path><path d="M162,400.36c6.18-11.62,12.54-23.14,18.93-34.64,3.14-5.67,6.43-11.28,9.43-17a103.28,103.28,0,0,0,6.87-17.75q5.72-18.62,10.84-37.41t9.62-37.75c.76-3.16,1.58-6.32,2.19-9.51a29.16,29.16,0,0,0,0-9.73,31.62,31.62,0,0,1-.07-9.06,61.09,61.09,0,0,1,2.12-8.86c.48-1.53,1-3,1.53-4.55.05-.17.32-.09.26.08-1.87,6.12-3.78,12.3-3.38,18.78.2,3.12,1,6.17,1,9.31a44.87,44.87,0,0,1-1.58,9.19q-4.41,19.06-9.5,38T199.49,327c-1.84,6.07-3.56,12.23-6.17,18s-5.93,11.29-9,16.83q-9.66,17.19-19.58,34.24-1.26,2.16-2.54,4.3A.08.08,0,0,1,162,400.36Z" style="fill:#263238"></path><path d="M215.64,214.22c.12.2,64.9,11.85,65.62,11.27,1-.81,1.91-65.84-6.43-82-2.08-4-11-6.34-15.81-3.84C235,152.08,215.2,213.5,215.64,214.22Z" style="fill:#FFA52E"></path><path d="M246.31,150.8c-.26.31-.52.63-.77,1,.25-.07.49-.15.73-.24a9.06,9.06,0,0,0,2.3-1.21A8.74,8.74,0,0,0,246.31,150.8Zm19.83,22.78a9.65,9.65,0,0,0-2.29,1.2,9,9,0,0,0,2.53-.58,9.36,9.36,0,0,0,2.3-1.2A9,9,0,0,0,266.14,173.58ZM253.21,204.3a8.88,8.88,0,0,0-2.29,1.22,9.71,9.71,0,0,0,2.53-.58,9,9,0,0,0,2.29-1.22A9.71,9.71,0,0,0,253.21,204.3Zm-18.08-22.83a9.22,9.22,0,0,0-2.3,1.21,9.24,9.24,0,0,0,2.53-.58,9.06,9.06,0,0,0,2.3-1.21A8.81,8.81,0,0,0,235.13,181.47Zm41.25,21.94a9.06,9.06,0,0,0-2.3,1.21,10.06,10.06,0,0,0,4.83-1.79A9.24,9.24,0,0,0,276.38,203.41Zm-43.06,1.71a9,9,0,0,0-1.22-2.29,9.71,9.71,0,0,0,.58,2.53,8.72,8.72,0,0,0,1.22,2.29A9.71,9.71,0,0,0,233.32,205.12ZM263.39,192a9.16,9.16,0,0,0-1.21-2.29,9.32,9.32,0,0,0,.58,2.53,9.06,9.06,0,0,0,1.21,2.3A9,9,0,0,0,263.39,192ZM252.75,163.8a9.39,9.39,0,0,0-1.21-2.3,10.06,10.06,0,0,0,1.79,4.83A9,9,0,0,0,252.75,163.8ZM276,147.68a8.88,8.88,0,0,0-1.22-2.29,9.26,9.26,0,0,0,.59,2.52,8.6,8.6,0,0,0,1.21,2.3A9.62,9.62,0,0,0,276,147.68ZM244,194.26a9,9,0,0,0-2.48-.77,8.92,8.92,0,0,0,2.2,1.38,9.42,9.42,0,0,0,2.48.77A8.92,8.92,0,0,0,244,194.26Zm-20.44,20.59a9,9,0,0,0-2.48-.76,9.19,9.19,0,0,0,2.2,1.37,10.09,10.09,0,0,0,1,.38h0l1.31.23A9.27,9.27,0,0,0,223.51,214.85ZM277,220a9,9,0,0,0-2.48-.77,9.9,9.9,0,0,0,4.68,2.14A9.19,9.19,0,0,0,277,220Zm-1.7-32.67a8.94,8.94,0,0,0-2.48-.76,9.07,9.07,0,0,0,2.2,1.37,9.44,9.44,0,0,0,2.48.78A9,9,0,0,0,275.25,187.32Zm-5.43-27.72a9.06,9.06,0,0,0-2.48-.77,9.06,9.06,0,0,0,2.19,1.38A9.54,9.54,0,0,0,272,161,8.87,8.87,0,0,0,269.82,159.6Zm-32.58,7.68a9.3,9.3,0,0,0-.77,2.48,8.92,8.92,0,0,0,1.38-2.2,9.06,9.06,0,0,0,.77-2.48A8.92,8.92,0,0,0,237.24,167.28Zm26.25,45.51a9.17,9.17,0,0,0-.77,2.48,10.07,10.07,0,0,0,2.15-4.67A9.06,9.06,0,0,0,263.49,212.79Zm16.89-41.63a10,10,0,0,0-.81,1.46,9,9,0,0,0-.77,2.48,8.77,8.77,0,0,0,1.37-2.2c.11-.24.21-.48.3-.73Zm-36.74,44a8.89,8.89,0,0,0-.77,2.47,8.92,8.92,0,0,0,1.38-2.2,9.3,9.3,0,0,0,.77-2.48A9.17,9.17,0,0,0,243.64,215.14Zm-20.58-22a9,9,0,0,0-.76,2.48,9.39,9.39,0,0,0,1.37-2.2,9,9,0,0,0,.77-2.48A9.64,9.64,0,0,0,223.06,193.13Zm28-12.29a8.8,8.8,0,0,0-.77,2.49,9.64,9.64,0,0,0,1.38-2.2,9.4,9.4,0,0,0,.76-2.48A9.33,9.33,0,0,0,251.06,180.84Zm10.29-32.11a9.35,9.35,0,0,0-.77,2.47A8.91,8.91,0,0,0,262,149a9.4,9.4,0,0,0,.76-2.48A9.56,9.56,0,0,0,261.35,148.73Z" style="fill:#fff"></path><path d="M250.7,143.71c-21.81,14.51-52.45,48.19-49.85,56.86,2.9,9.65,33.31-10.73,33.52-12.24.16-1.15,13.84-22.64,24.06-38.21S256.09,140.12,250.7,143.71Z" style="fill:#eb9481"></path><path d="M234.53,188.39c1.29-2.33,19.69-30.6,25.15-39.61s2.9-12.68-8.76-5.81-39.32,32.16-47.51,46.94c-7.89,14.23-.06,15.86,11.74,11C224.81,196.92,234.53,188.39,234.53,188.39Z" style="fill:#FFA52E"></path><path d="M223.06,193.13a9,9,0,0,0-.76,2.48,9.39,9.39,0,0,0,1.37-2.2,9,9,0,0,0,.77-2.48A9.64,9.64,0,0,0,223.06,193.13Zm14.18-25.85a9.3,9.3,0,0,0-.77,2.48,8.92,8.92,0,0,0,1.38-2.2,9.06,9.06,0,0,0,.77-2.48A8.92,8.92,0,0,0,237.24,167.28Zm-34.75,31.3a9.3,9.3,0,0,0-.77,2.48,9.17,9.17,0,0,0,1.38-2.21,8.89,8.89,0,0,0,.77-2.47A8.92,8.92,0,0,0,202.49,198.58ZM225.84,166a10.13,10.13,0,0,0-1.92-.67c-.06.06-.12.13-.19.19a10.15,10.15,0,0,0,4.32,1.86A9.17,9.17,0,0,0,225.84,166Zm25.7-4.53a1.23,1.23,0,0,0,0,.19l.05-.08Zm-28.93,17a9,9,0,0,0-1.21-2.29,8.9,8.9,0,0,0,.58,2.52,9.22,9.22,0,0,0,1.21,2.3A8.89,8.89,0,0,0,222.61,178.53Zm32.12-37.59-.13.05.16.23A2.4,2.4,0,0,0,254.73,140.94Zm-19.6,40.53a9.22,9.22,0,0,0-2.3,1.21,9.24,9.24,0,0,0,2.53-.58,9.06,9.06,0,0,0,2.3-1.21A8.81,8.81,0,0,0,235.13,181.47Zm-24,8.26a9.36,9.36,0,0,0-2.3,1.2,8.89,8.89,0,0,0,2.53-.58,9.18,9.18,0,0,0,2.3-1.2A8.89,8.89,0,0,0,211.09,189.73ZM246,150.89a9,9,0,0,0-2.3,1.21,9,9,0,0,0,2.53-.58,9.06,9.06,0,0,0,2.3-1.21A9.53,9.53,0,0,0,246,150.89Z" style="fill:#fff"></path><path d="M249.49,165.1a11.56,11.56,0,0,1,1.62-1.86,10.66,10.66,0,0,1,2-1.49,11.09,11.09,0,0,1-1.62,1.86A10.66,10.66,0,0,1,249.49,165.1Z" style="fill:#263238"></path><path d="M236.8,184.22c1.26-2.2,2.58-4.37,3.92-6.52s2.73-4.28,4.09-6.42S247.6,167,249,165s2.88-4.18,4.4-6.21c-1.26,2.2-2.58,4.37-3.92,6.53s-2.72,4.27-4.09,6.42-2.79,4.23-4.23,6.32S238.32,182.19,236.8,184.22Z" style="fill:#263238"></path><path d="M270.55,152.49c-3,.06-7.92-7-8.18-12,0-.34,6.34-10.67,7.39-12.85.21-.45,12.07,9.89,12.07,9.89a38.7,38.7,0,0,0-5.35,7.73,6.21,6.21,0,0,0-.33.94,1.56,1.56,0,0,0,0,.16C275.56,148.16,273.83,152.43,270.55,152.49Z" style="fill:#eb9481"></path><path d="M270.61,128.1c-1.08,3.55-3.42,13.82,4.05,17.63a10.55,10.55,0,0,0,1.44.6c0-.06,0-.12,0-.16a6.37,6.37,0,0,1,.35-.94,38.41,38.41,0,0,1,5.34-7.73S273.37,130.12,270.61,128.1Z" style="fill:#263238"></path><path d="M278.61,109.56c-4.39,3.57-10.76,18.16-9.51,23.21,1.81,7.32,9.13,12.82,16.45,9.65,7.09-3.08,15.05-22.23,13.25-27.27C296.15,107.74,285.11,104.28,278.61,109.56Z" style="fill:#eb9481"></path><path d="M284.82,122.19a13.37,13.37,0,0,1,1.42.08,2.31,2.31,0,0,1,1.43.36.73.73,0,0,1,.13.88,1.79,1.79,0,0,1-1.7.69,2.7,2.7,0,0,1-1.8-.68A.78.78,0,0,1,284.82,122.19Z" style="fill:#263238"></path><path d="M295.2,128.61c-.19-.44-.45-.82-.68-1.24a2.35,2.35,0,0,0-.94-1.14.74.74,0,0,0-.86.26,1.82,1.82,0,0,0,.11,1.83,2.65,2.65,0,0,0,1.39,1.33A.78.78,0,0,0,295.2,128.61Z" style="fill:#263238"></path><path d="M279.3,134.44c.12.34.2.76.54,1a2.84,2.84,0,0,0,1.15.26s.05.05,0,.07a1.46,1.46,0,0,1-1.48-.07,1.13,1.13,0,0,1-.34-1.22C279.2,134.37,279.29,134.39,279.3,134.44Z" style="fill:#263238"></path><path d="M281.9,134a9.13,9.13,0,0,1,3.93,1.64c.12,0,.33-.13.4-.23h0s.93-2.09.93-2.09c.2.26,1.28,1.55,1.45,1.15A55.67,55.67,0,0,0,292.14,124a.1.1,0,0,0-.19-.06c-1.43,3.12-2.3,6.46-3.69,9.62a6.46,6.46,0,0,0-1.32-1.22c-.12,0-.87,2.26-1.07,2.58a5.29,5.29,0,0,0-3.78-1.29C281.55,133.66,281.2,134,281.9,134Z" style="fill:#263238"></path><path d="M291.52,129.12s0,.08,0,.11c-.52.86-1,1.93-.34,2.66,0,0,0,.07,0,.05C290.28,131.26,290.89,129.85,291.52,129.12Z" style="fill:#263238"></path><path d="M290.84,130.26a1.6,1.6,0,0,0,0,.82,1.11,1.11,0,0,0,.55.72,1,1,0,0,0,.91,0,1.82,1.82,0,0,0,.63-.53,3,3,0,0,0,.26-.42,2.26,2.26,0,0,0,.28-1,3.42,3.42,0,0,1-.39.64,4.25,4.25,0,0,1-.44.5c-.33.32-.73.52-1,.34a.88.88,0,0,1-.35-1,7.4,7.4,0,0,1,.42-1.37A3.31,3.31,0,0,0,290.84,130.26Z" style="fill:#263238"></path><path d="M286,126.27s-.09,0-.1,0c-.39.93-1,1.92-1.95,1.85,0,0-.05,0,0,.05C285,128.54,285.82,127.21,286,126.27Z" style="fill:#263238"></path><path d="M285.51,127.49a1.45,1.45,0,0,1-.63.53,1.13,1.13,0,0,1-.9,0,1,1,0,0,1-.55-.73,1.72,1.72,0,0,1,.06-.82,2.58,2.58,0,0,1,.18-.46,2.24,2.24,0,0,1,.63-.8,3.48,3.48,0,0,0-.29.69,5.08,5.08,0,0,0-.15.65c-.06.46,0,.89.34,1a.87.87,0,0,0,1-.31,8,8,0,0,0,.85-1.15A3.14,3.14,0,0,1,285.51,127.49Z" style="fill:#263238"></path><path d="M277.34,116.74c-1.46,1.11-4.71,3.82-5.54,3.65,2.23-5.15,4.81-9.49,7.59-11.43a11.37,11.37,0,0,1,3.79-1.72C282.51,108.57,278.88,115.59,277.34,116.74Z" style="fill:#263238;opacity:0.2"></path><path d="M294.17,117.6a5.52,5.52,0,0,1-5.37,0,5.61,5.61,0,0,1-2.84-4.67,0,0,0,1,0-.09,0,5.56,5.56,0,0,0,2.71,5.06,5.7,5.7,0,0,0,5.66-.22A.07.07,0,0,0,294.17,117.6Z" style="fill:#263238"></path><path d="M293.69,102.86a8.7,8.7,0,0,0-8.24,1.15,6.23,6.23,0,0,0-2,3.55s.1.08.12,0a6.8,6.8,0,0,1,5.18-4.59,8.73,8.73,0,0,1,7.55,1.89,5.54,5.54,0,0,1,1.93,3.29c0,.13.27.15.26,0C298.39,106,296.42,103.83,293.69,102.86Z" style="fill:#263238"></path><path d="M308.55,115.94a7,7,0,0,0-1.45-4.6c-1.4-1.84-3.53-2.46-5.67-3-.05,0-.08.07,0,.09a9.68,9.68,0,0,1,4.92,2.54,7,7,0,0,1,1.79,4.28,6.77,6.77,0,0,1-5.6,6.84,6.88,6.88,0,0,1-5.25-1.42s-.14,0-.08.08a6.89,6.89,0,0,0,11.36-4.78Z" style="fill:#263238"></path><path d="M275.88,112.74s-.77-6.42,2.79-8.59c2-1.23,6.37.72,6.37.72a8.6,8.6,0,0,1,6.43-1.42c4,.59,7.63,4.47,7.63,4.47s4.31-.65,6.89,2.52c3.59,4.42.3,11.23-5.22,11.69-3.88.32-7.19-4.28-7.19-4.28-.45-.1-5.82.84-7.61-4.33,0,0-3.61,1.35-5.36-1.25A4.17,4.17,0,0,1,275.88,112.74Z" style="fill:#263238"></path><path d="M274.27,122s-.24-6.17-2.85-6.35-4.35,7.43-2.63,9.73a2.74,2.74,0,0,0,3.89.75Z" style="fill:#eb9481"></path><path d="M271,117.83s-.07,0-.05.06c1.18,1.66,1.06,3.68.67,5.58-.1-.89-.53-1.63-1.69-1.57-.06,0-.06.09,0,.11a1.71,1.71,0,0,1,1.25,1.5,8.55,8.55,0,0,1-.07,1.75c0,.19.29.27.34.08v0C272.77,123.29,273,119.44,271,117.83Z" style="fill:#263238"></path><path d="M256.06,101.55c-2.28.57-2.8-2.07-2.4-4.93.13-.92.17-1.68.43-2.93.81,1,1.21,1.63,1.76,2.38C257.55,98.41,258.32,101,256.06,101.55Z" style="fill:#c7c7c7"></path><path d="M231.88,125.34c-2.27.57-2.8-2.06-2.4-4.93.13-.92.18-1.68.43-2.93.81,1,1.21,1.63,1.76,2.39C233.37,122.2,234.15,124.78,231.88,125.34Z" style="fill:#dbdbdb"></path><path d="M322.66,153c-2.27.56-2.79-2.07-2.39-4.93.12-.93.17-1.69.43-2.93.81,1,1.21,1.63,1.76,2.38C324.15,149.85,324.93,152.42,322.66,153Z" style="fill:#dbdbdb"></path><path d="M251.28,169.61c-2.27.56-2.79-2.07-2.4-4.93.13-.93.18-1.69.44-2.93.81,1,1.21,1.63,1.76,2.38C252.77,166.47,253.55,169,251.28,169.61Z" style="fill:#dbdbdb"></path><path d="M284.06,104.46c-2.27.57-2.8-2.07-2.4-4.93.13-.92.18-1.69.43-2.93.81,1,1.21,1.63,1.76,2.38C285.55,101.32,286.33,103.89,284.06,104.46Z" style="fill:#dbdbdb"></path><path d="M300.28,139.65c-2.27.57-2.79-2.07-2.4-4.93.13-.92.18-1.68.44-2.93.81,1,1.21,1.63,1.75,2.38C301.77,136.51,302.55,139.08,300.28,139.65Z" style="fill:#c7c7c7"></path><path d="M219.26,156.36c-2.27.57-2.79-2.07-2.39-4.93.13-.92.17-1.68.43-2.93.81,1,1.21,1.63,1.76,2.38C220.75,153.22,221.53,155.79,219.26,156.36Z" style="fill:#c7c7c7"></path><path d="M308.68,89.25c-2.27.57-2.79-2.07-2.4-4.93.13-.92.18-1.68.44-2.93.81,1,1.21,1.63,1.75,2.38C310.17,86.11,311,88.68,308.68,89.25Z" style="fill:#c7c7c7"></path><path d="M322.66,115.94c-2.27.57-2.79-2.06-2.39-4.93.12-.92.17-1.68.43-2.93.81,1,1.21,1.63,1.76,2.39C324.15,112.8,324.93,115.38,322.66,115.94Z" style="fill:#dbdbdb"></path><path d="M197.18,111.3c-2.27.57-2.79-2.07-2.39-4.93.13-.92.17-1.69.43-2.93.81,1,1.21,1.63,1.76,2.38C198.67,108.16,199.45,110.73,197.18,111.3Z" style="fill:#dbdbdb"></path><path d="M185.74,143.62c-2.27.57-2.79-2.07-2.39-4.93.13-.92.17-1.68.43-2.93.81,1,1.21,1.63,1.76,2.38C187.23,140.48,188,143.05,185.74,143.62Z" style="fill:#dbdbdb"></path><rect x="254.54" y="59.06" width="3.88" height="151.41" transform="translate(-25.02 66.21) rotate(-14.03)" style="fill:#a6a6a6"></rect><polygon points="238.9 52.81 233.44 54.17 230.88 39.26 234.14 38.44 238.9 52.81" style="fill:#dbdbdb"></polygon><path d="M292.66,225.85c-10.09,2.53-17.33-4-19.27-11.76l-2.48-9.94,5.48-1.37,2.49,9.94c.94,3.76,4.61,9.6,12.41,7.65,6.92-1.73,7.43-9.17,6.6-12.5l-2.35-9.39,5.49-1.37,2.35,9.39a18.36,18.36,0,0,1-.78,10.63A13.91,13.91,0,0,1,292.66,225.85Z" style="fill:#263238"></path><path d="M329.6,80.16s-13.73-2.49-21.33-.37-20.19,10.75-20.19,10.75-13.87-1.78-21.74,0-18.41,10.06-18.41,10.06-13.2-2.4-21-.22-19.15,10.25-19.15,10.25-15.19-1.67-22.89,0S166.27,121,166.27,121c6.37-28.5,30-61.51,69-71.24S310.59,58,329.6,80.16Z" style="fill:#FFA52E"></path><g style="opacity:0.1"><path d="M329.6,80.16c-3.47-2.49-7-4.92-10.54-7.26s-7.14-4.67-10.79-6.86a153.87,153.87,0,0,0-22.64-11.68,50,50,0,0,0-12.16-3.43c-4.21-.64-8.45-1-12.69-1.29s-8.51-.41-12.77-.38-8.52.15-12.78.48a149.84,149.84,0,0,1,25.59-1c4.28.17,8.55.56,12.79,1.14a51,51,0,0,1,12.44,3.41,115.14,115.14,0,0,1,11.61,5.51c3.77,2,7.47,4.17,11.07,6.48A236.92,236.92,0,0,1,329.6,80.16Z"></path><path d="M288.06,90.54c-1.42-2.53-2.9-5-4.5-7.43s-3.22-4.8-5-7.1c-3.51-4.54-7.27-9-11.8-12.49a68.21,68.21,0,0,0-15.14-8.17c-2.66-1.11-5.38-2.11-8.12-3s-5.51-1.79-8.3-2.58A107.34,107.34,0,0,1,252,54.55a65,65,0,0,1,15.5,8.07,29.61,29.61,0,0,1,3.33,2.89c1.06,1,2.05,2.08,3,3.16a77.66,77.66,0,0,1,5.45,6.83A93.1,93.1,0,0,1,288.06,90.54Z"></path><path d="M247.93,100.57c-1.28-4.18-2.45-8.39-3.59-12.6s-2.2-8.45-3.3-12.68-2.08-8.48-3-12.73l-1.44-6.4c-.44-2.14-.91-4.27-1.32-6.42.66,2.09,1.24,4.2,1.86,6.29l1.74,6.31c1.15,4.22,2.2,8.45,3.3,12.68s2.08,8.48,3.05,12.74S247.1,96.28,247.93,100.57Z"></path><path d="M166.27,121A234.28,234.28,0,0,1,177.7,98.05c2.08-3.73,4.35-7.37,6.71-10.93a118.37,118.37,0,0,1,7.66-10.33,50.74,50.74,0,0,1,9.37-8.85c3.47-2.51,7.05-4.86,10.75-7a150.19,150.19,0,0,1,23-11.18q-5.86,2.57-11.5,5.59c-3.77,2-7.48,4.09-11.09,6.34s-7.18,4.57-10.59,7.1a50.7,50.7,0,0,0-9.12,8.75,154.69,154.69,0,0,0-14.49,21c-2.19,3.66-4.27,7.38-6.29,11.13S168.16,117.15,166.27,121Z"></path><path d="M207.81,110.6a93.75,93.75,0,0,1,.66-17.4,76.53,76.53,0,0,1,1.6-8.6c.36-1.41.74-2.82,1.2-4.21a29.34,29.34,0,0,1,1.57-4.12,65.07,65.07,0,0,1,9.88-14.41,106.85,106.85,0,0,1,12.51-12.12c-2.09,2-4.14,4.06-6.11,6.18s-3.91,4.26-5.74,6.5a67.77,67.77,0,0,0-9.52,14.33c-2.36,5.18-3.57,10.91-4.53,16.57-.47,2.85-.8,5.72-1,8.6S207.87,107.7,207.81,110.6Z"></path></g><path d="M257.36,71.68a4.86,4.86,0,1,0,3.54-5.9A4.86,4.86,0,0,0,257.36,71.68Z" style="fill:#263238"></path><path d="M220.08,81a4.86,4.86,0,1,0,3.54-5.89A4.86,4.86,0,0,0,220.08,81Z" style="fill:#263238"></path><path d="M238,82.32l.14-.56c0-.05,1.32-5.16,6.22-6.39a6,6,0,0,1,6.71,3l.27.51,1-.53-.26-.51s-2.65-4.94-8-3.6c-5.58,1.39-7,7-7.06,7.23l-.14.56Z" style="fill:#263238"></path><path d="M201.91,202.19c5.91,4.15,19,1.95,47.34-2.48,3.92-.62,4.88-30,.66-29.56-5.31.56-25.79,3.85-27.26,4.28C210.27,178.06,197.9,199.38,201.91,202.19Z" style="fill:#eb9481"></path><path d="M284.94,166.86a4.58,4.58,0,0,1-.85,5.15,6.76,6.76,0,0,1,2.94,3.55c.82,2.67-3,5.12-3,5.12a8.36,8.36,0,0,1,2.51,4.24c.53,2.63-3,5.66-3,5.66a7.36,7.36,0,0,1-.14,5.12c-1.94,4.29-9.07,5.25-13.59,5.91s-18-1.71-20.58-1.9l-4.47-29S264.22,162,269.65,162C274.22,162,283.28,163.7,284.94,166.86Z" style="fill:#eb9481"></path><path d="M283.82,171.57c-4.87-1.15-9.81-.8-14.76-.72-.11,0-.1.17,0,.17,4.92-.13,9.8.72,14.72.79A.12.12,0,0,0,283.82,171.57Z" style="fill:#263238"></path><path d="M283.88,180.32a13,13,0,0,0-3.41,0c-1.21.08-2.41.18-3.61.3q-3.62.35-7.2.88c-.11,0-.11.18,0,.17,2.4-.23,4.8-.42,7.21-.55,1.21-.07,2.41-.12,3.62-.16a16,16,0,0,0,3.39-.29A.17.17,0,0,0,283.88,180.32Z" style="fill:#263238"></path><path d="M283.46,190.59a9.07,9.07,0,0,0-3.07.15l-3.29.37c-2.19.24-4.38.47-6.58.63a.09.09,0,0,0,0,.17c2.23-.15,4.47-.27,6.7-.44,1.1-.08,2.19-.17,3.29-.27a8.39,8.39,0,0,0,3-.5S283.5,190.6,283.46,190.59Z" style="fill:#263238"></path><path d="M246.53,169.43l-13.78,34.78s-25.36,3.14-31-1.61c-3.71-3.13,8.13-25.49,22.12-28.46Z" style="fill:#FFA52E"></path><path d="M211.09,189.73a9.36,9.36,0,0,0-2.3,1.2,8.89,8.89,0,0,0,2.53-.58,9.18,9.18,0,0,0,2.3-1.2A8.89,8.89,0,0,0,211.09,189.73Zm24-8.26a9.22,9.22,0,0,0-2.3,1.21,9.24,9.24,0,0,0,2.53-.58,9.06,9.06,0,0,0,2.3-1.21A8.81,8.81,0,0,0,235.13,181.47Zm-21.51,21.91a8.19,8.19,0,0,0,.34,1.8l.68,0A8.62,8.62,0,0,0,213.62,203.38Zm9-24.85a9,9,0,0,0-1.21-2.29,8.9,8.9,0,0,0,.58,2.52,9.22,9.22,0,0,0,1.21,2.3A8.89,8.89,0,0,0,222.61,178.53Zm9.49,24.3a6.7,6.7,0,0,0,.25,1.42l.4,0,.08-.2A7,7,0,0,0,232.1,202.83Zm-29.61-4.25a9.3,9.3,0,0,0-.77,2.48,9.17,9.17,0,0,0,1.38-2.21,8.89,8.89,0,0,0,.77-2.47A8.92,8.92,0,0,0,202.49,198.58Zm20.57-5.45a9,9,0,0,0-.76,2.48,9.39,9.39,0,0,0,1.37-2.2,9,9,0,0,0,.77-2.48A9.64,9.64,0,0,0,223.06,193.13Z" style="fill:#fff"></path><path d="M218.43,205.21c1.19-.22,2.38-.38,3.56-.51s2.38-.27,3.57-.36,2.38-.17,3.58-.22,2.39-.06,3.59-.09l-.15.11c.31-.6.59-1.22.92-1.82-.17.66-.39,1.3-.58,2l0,.1h-.12c-1.19.14-2.38.31-3.57.41s-2.38.21-3.58.27-2.39.13-3.59.15S219.63,205.26,218.43,205.21Z" style="fill:#263238"></path><path d="M209.52,184.13a32.61,32.61,0,0,1,10.13-8.72c5.21-2.82,23.36-5.57,26.84-6,.07,0,.11.1,0,.12-2.81.68-22.11,4.17-26.63,6.53a47.86,47.86,0,0,0-10.3,8.18C209.56,184.26,209.48,184.19,209.52,184.13Z" style="fill:#263238"></path><path d="M224.85,202.2c1.31-3.84,2.83-7.61,4.36-11.37s3-7.54,4.67-11.27c.92-2.1,1.82-4.21,2.81-6.29,0-.05.13,0,.11,0-1.31,3.83-2.82,7.61-4.32,11.38s-3,7.54-4.63,11.28c-.89,2.12-1.82,4.22-2.81,6.29C225,202.36,224.81,202.31,224.85,202.2Z" style="fill:#263238"></path></g></svg>