<svg xmlns="http://www.w3.org/2000/svg" viewBox="0 0 500 500"><g id="freepik--background-complete--inject-598"><path d="M65.27,83.74a2.94,2.94,0,0,1,0,3.09l-.45.8c-.14.27-.28.54-.41.82a3,3,0,0,1-2.56,1.72l-3.8.12.38,12.39,3.81-.12a2.94,2.94,0,0,1,2.67,1.55,15.77,15.77,0,0,0,1,1.57,3,3,0,0,1,.19,3.08l-1.79,3.34L75.19,118,77,114.62a3,3,0,0,1,2.67-1.54c.62,0,1.23,0,1.84-.06a2.94,2.94,0,0,1,2.78,1.37l2,3.23,10.54-6.54-2-3.24a2.94,2.94,0,0,1,0-3.08l.45-.79c.14-.27.28-.54.41-.82a3,3,0,0,1,2.56-1.73l3.81-.11-.39-12.39L97.87,89a2.93,2.93,0,0,1-2.67-1.55,15.85,15.85,0,0,0-1-1.57,3,3,0,0,1-.2-3.08l1.8-3.35L84.89,73.64,83.1,77a3,3,0,0,1-2.68,1.54,16.39,16.39,0,0,0-1.85,0,2.93,2.93,0,0,1-2.77-1.36L73.8,74,63.27,80.51Zm19.56,3.11A10.15,10.15,0,1,1,71.09,91,10.16,10.16,0,0,1,84.83,86.85Z" style="fill:#ebebeb"></path><path d="M109.76,127.43a2.07,2.07,0,0,1,1,1.92c0,.21,0,.43,0,.64s0,.43,0,.64a2.06,2.06,0,0,1-1,1.91l-2.31,1.33,4.34,7.52,2.31-1.33a2.05,2.05,0,0,1,2.16.08c.36.23.73.45,1.12.65a2.06,2.06,0,0,1,1.14,1.83v2.66h8.68v-2.66a2.06,2.06,0,0,1,1.14-1.83c.39-.2.76-.42,1.12-.65a2.07,2.07,0,0,1,2.17-.08l2.3,1.33,4.34-7.52L136,132.54a2.05,2.05,0,0,1-1-1.91c0-.21,0-.43,0-.64s0-.43,0-.64a2.07,2.07,0,0,1,1-1.92l2.31-1.33-4.34-7.52-2.3,1.33a2,2,0,0,1-2.16-.07,11.42,11.42,0,0,0-1.13-.65,2.06,2.06,0,0,1-1.14-1.83V114.7h-8.68v2.66a2.06,2.06,0,0,1-1.14,1.83,11.42,11.42,0,0,0-1.13.65,2,2,0,0,1-2.16.07l-2.3-1.33-4.34,7.52Zm13.11-4.56a7.12,7.12,0,1,1-7.11,7.12A7.12,7.12,0,0,1,122.87,122.87Z" style="fill:#dbdbdb"></path><path d="M413.45,316.23a2.05,2.05,0,0,1,1,1.91c0,.21,0,.43,0,.64s0,.43,0,.64a2.05,2.05,0,0,1-1,1.91l-2.3,1.34,4.33,7.52,2.31-1.34a2.07,2.07,0,0,1,2.17.08,11.27,11.27,0,0,0,1.12.65,2.06,2.06,0,0,1,1.14,1.83v2.66h8.68v-2.66a2.06,2.06,0,0,1,1.14-1.83,11.27,11.27,0,0,0,1.12-.65,2.05,2.05,0,0,1,2.16-.08l2.31,1.34,4.34-7.52-2.32-1.34a2.06,2.06,0,0,1-1-1.91c0-.21,0-.43,0-.64s0-.43,0-.64a2.05,2.05,0,0,1,1-1.91L442,314.9l-4.34-7.52-2.3,1.33a2.05,2.05,0,0,1-2.16-.08c-.37-.23-.74-.45-1.13-.65a2.06,2.06,0,0,1-1.14-1.83v-2.66h-8.68v2.66a2,2,0,0,1-1.15,1.83c-.38.2-.76.42-1.12.65a2.05,2.05,0,0,1-2.16.08l-2.31-1.33-4.33,7.52Zm13.1-4.56a7.11,7.11,0,1,1-7.1,7.11A7.11,7.11,0,0,1,426.55,311.67Z" style="fill:#ebebeb"></path><polygon points="121.98 389.77 120.98 389.77 120.98 312.78 91.03 271.92 91.03 235.81 92.03 235.81 92.03 271.59 121.98 312.45 121.98 389.77" style="fill:#ebebeb"></polygon><path d="M91.54,236.36a3.16,3.16,0,1,1,3.16-3.16A3.16,3.16,0,0,1,91.54,236.36Zm0-5.32a2.16,2.16,0,1,0,2.16,2.16A2.16,2.16,0,0,0,91.54,231Z" style="fill:#ebebeb"></path><polygon points="114.27 389.77 113.27 389.77 113.27 317.72 83.32 276.86 83.32 256.81 84.32 256.81 84.32 276.53 114.27 317.39 114.27 389.77" style="fill:#ebebeb"></polygon><path d="M83.82,257.36A3.16,3.16,0,1,1,87,254.2,3.17,3.17,0,0,1,83.82,257.36Zm0-5.32A2.16,2.16,0,1,0,86,254.2,2.16,2.16,0,0,0,83.82,252Z" style="fill:#ebebeb"></path><rect x="128.41" y="266.98" width="1" height="122.8" style="fill:#ebebeb"></rect><path d="M128.91,267.48a3.16,3.16,0,1,1,3.16-3.16A3.16,3.16,0,0,1,128.91,267.48Zm0-5.32a2.16,2.16,0,1,0,2.16,2.16A2.16,2.16,0,0,0,128.91,262.16Z" style="fill:#ebebeb"></path><polygon points="136.56 389.1 135.56 389.1 135.56 324.92 135.62 324.81 155.89 286.57 155.89 207.96 156.89 207.96 156.89 286.82 156.83 286.93 136.56 325.16 136.56 389.1" style="fill:#ebebeb"></polygon><path d="M156.39,208.46a3.16,3.16,0,1,1,3.16-3.16A3.15,3.15,0,0,1,156.39,208.46Zm0-5.32a2.16,2.16,0,1,0,2.16,2.16A2.16,2.16,0,0,0,156.39,203.14Z" style="fill:#ebebeb"></path><polygon points="143.67 389.23 142.67 389.23 142.67 329 142.74 328.89 166.63 286.62 166.63 241.48 167.63 241.48 167.63 286.88 167.57 287 143.67 329.27 143.67 389.23" style="fill:#ebebeb"></polygon><path d="M167.14,242a3.16,3.16,0,1,1,3.16-3.16A3.17,3.17,0,0,1,167.14,242Zm0-5.32a2.16,2.16,0,1,0,2.16,2.16A2.17,2.17,0,0,0,167.14,236.66Z" style="fill:#ebebeb"></path><path d="M416.77,139.72a11.73,11.73,0,1,0,5.42,15.68A11.74,11.74,0,0,0,416.77,139.72Zm4.14,15.05A10.3,10.3,0,1,1,416.15,141,10.31,10.31,0,0,1,420.91,154.77Zm-4.14-15.05a11.73,11.73,0,1,0,5.42,15.68A11.74,11.74,0,0,0,416.77,139.72Zm4.14,15.05A10.3,10.3,0,1,1,416.15,141,10.31,10.31,0,0,1,420.91,154.77Zm-4.14-15.05a11.73,11.73,0,1,0,5.42,15.68A11.74,11.74,0,0,0,416.77,139.72Zm4.14,15.05A10.3,10.3,0,1,1,416.15,141,10.31,10.31,0,0,1,420.91,154.77ZM422.45,128a24.73,24.73,0,1,0,11.43,33A24.74,24.74,0,0,0,422.45,128Zm1.39,28.16a13.55,13.55,0,1,1-6.27-18.1A13.58,13.58,0,0,1,423.84,156.19Zm-1.65-.79a11.73,11.73,0,1,0-15.67,5.43A11.74,11.74,0,0,0,422.19,155.4Zm-1.28-.63A10.3,10.3,0,1,1,416.15,141,10.31,10.31,0,0,1,420.91,154.77Zm-4.14-15.05a11.73,11.73,0,1,0,5.42,15.68A11.74,11.74,0,0,0,416.77,139.72Zm4.14,15.05A10.3,10.3,0,1,1,416.15,141,10.31,10.31,0,0,1,420.91,154.77Zm-4.14-15.05a11.73,11.73,0,1,0,5.42,15.68A11.74,11.74,0,0,0,416.77,139.72Zm4.14,15.05A10.3,10.3,0,1,1,416.15,141,10.31,10.31,0,0,1,420.91,154.77Z" style="fill:#dbdbdb"></path><polygon points="405.57 173.67 397.01 169.52 394.55 175.81 402.15 179.5 405.57 173.67" style="fill:#dbdbdb"></polygon><polygon points="390.69 162.89 387.57 153.91 381.39 156.6 384.15 164.59 390.69 162.89" style="fill:#dbdbdb"></polygon><polygon points="387.79 144.74 391.94 136.19 385.66 133.72 381.96 141.33 387.79 144.74" style="fill:#dbdbdb"></polygon><polygon points="398.58 129.86 407.56 126.75 404.86 120.56 396.87 123.33 398.58 129.86" style="fill:#dbdbdb"></polygon><polygon points="416.73 126.96 425.28 131.12 427.74 124.83 420.14 121.14 416.73 126.96" style="fill:#dbdbdb"></polygon><polygon points="431.61 137.75 434.72 146.73 440.9 144.03 438.14 136.04 431.61 137.75" style="fill:#dbdbdb"></polygon><polygon points="434.5 155.9 430.35 164.45 436.63 166.92 440.33 159.31 434.5 155.9" style="fill:#dbdbdb"></polygon><polygon points="423.72 170.78 414.73 173.89 417.43 180.08 425.42 177.31 423.72 170.78" style="fill:#dbdbdb"></polygon><path d="M301.56,66.47a9.25,9.25,0,1,0,4.27,12.36A9.26,9.26,0,0,0,301.56,66.47Zm3.26,11.87a8.12,8.12,0,1,1-3.75-10.85A8.12,8.12,0,0,1,304.82,78.34Zm-3.26-11.87a9.25,9.25,0,1,0,4.27,12.36A9.26,9.26,0,0,0,301.56,66.47Zm3.26,11.87a8.12,8.12,0,1,1-3.75-10.85A8.12,8.12,0,0,1,304.82,78.34Zm-3.26-11.87a9.25,9.25,0,1,0,4.27,12.36A9.26,9.26,0,0,0,301.56,66.47Zm3.26,11.87a8.12,8.12,0,1,1-3.75-10.85A8.12,8.12,0,0,1,304.82,78.34ZM306,57.25a19.5,19.5,0,1,0,9,26.06A19.51,19.51,0,0,0,306,57.25Zm1.09,22.21a10.69,10.69,0,1,1-4.94-14.28A10.7,10.7,0,0,1,307.13,79.46Zm-1.3-.63a9.25,9.25,0,1,0-12.35,4.29A9.24,9.24,0,0,0,305.83,78.83Zm-1-.49a8.12,8.12,0,1,1-3.75-10.85A8.12,8.12,0,0,1,304.82,78.34Zm-3.26-11.87a9.25,9.25,0,1,0,4.27,12.36A9.26,9.26,0,0,0,301.56,66.47Zm3.26,11.87a8.12,8.12,0,1,1-3.75-10.85A8.12,8.12,0,0,1,304.82,78.34Zm-3.26-11.87a9.25,9.25,0,1,0,4.27,12.36A9.26,9.26,0,0,0,301.56,66.47Zm3.26,11.87a8.12,8.12,0,1,1-3.75-10.85A8.12,8.12,0,0,1,304.82,78.34Z" style="fill:#ebebeb"></path><polygon points="292.72 93.24 285.98 89.97 284.03 94.92 290.03 97.84 292.72 93.24" style="fill:#ebebeb"></polygon><polygon points="280.99 84.74 278.53 77.65 273.65 79.78 275.84 86.08 280.99 84.74" style="fill:#ebebeb"></polygon><polygon points="278.7 70.43 281.98 63.68 277.02 61.73 274.11 67.73 278.7 70.43" style="fill:#ebebeb"></polygon><polygon points="287.21 58.69 294.3 56.24 292.17 51.36 285.86 53.54 287.21 58.69" style="fill:#ebebeb"></polygon><polygon points="301.52 56.41 308.27 59.68 310.21 54.73 304.21 51.81 301.52 56.41" style="fill:#ebebeb"></polygon><polygon points="313.26 64.91 315.71 72 320.59 69.87 318.41 63.57 313.26 64.91" style="fill:#ebebeb"></polygon><polygon points="315.54 79.22 312.27 85.97 317.22 87.92 320.14 81.92 315.54 79.22" style="fill:#ebebeb"></polygon><polygon points="307.04 90.96 299.95 93.41 302.08 98.29 308.38 96.11 307.04 90.96" style="fill:#ebebeb"></polygon><path d="M403.25,102a38.1,38.1,0,1,0-49.64,21A38.1,38.1,0,0,0,403.25,102Zm-18.82-7.64a17.79,17.79,0,1,1-9.79-23.18A17.78,17.78,0,0,1,384.43,94.33Z" style="fill:#a6a6a6"></path><polygon points="360.99 124.23 347.42 118.72 344.27 128.63 356.34 133.53 360.99 124.23" style="fill:#a6a6a6"></polygon><polygon points="337.01 109.16 331.31 95.67 322.07 100.45 327.14 112.45 337.01 109.16" style="fill:#a6a6a6"></polygon><polygon points="330.71 81.55 336.22 67.98 326.3 64.83 321.4 76.9 330.71 81.55" style="fill:#a6a6a6"></polygon><polygon points="345.77 57.57 359.27 51.87 354.49 42.63 342.48 47.7 345.77 57.57" style="fill:#a6a6a6"></polygon><polygon points="373.38 51.27 386.96 56.78 390.11 46.87 378.03 41.96 373.38 51.27" style="fill:#a6a6a6"></polygon><polygon points="397.36 66.33 403.06 79.83 412.3 75.05 407.23 63.04 397.36 66.33" style="fill:#a6a6a6"></polygon><polygon points="403.67 93.94 398.15 107.52 408.07 110.67 412.97 98.59 403.67 93.94" style="fill:#a6a6a6"></polygon><polygon points="388.6 117.92 375.11 123.62 379.89 132.86 391.89 127.79 388.6 117.92" style="fill:#a6a6a6"></polygon><path d="M355.19,92.82l10.39,7.86,12-5.08,1.6-12.92L368.8,74.82l-12,5.07Zm13.55-8.9a4.13,4.13,0,1,1-5.38,2.27A4.12,4.12,0,0,1,368.74,83.92Z" style="fill:#a6a6a6"></path></g><g id="freepik--Shadow--inject-598"><ellipse cx="250" cy="438.84" rx="191.97" ry="22.45" style="fill:#ebebeb"></ellipse></g><g id="freepik--Plants--inject-598"><path d="M342.16,356.63c-3.33.11-7.06.3-9.82-1.86-2.55-2-4.82-5-4.49-8.39.1-1,.33-1.57,1.37-1.16,1.59.64,2.82,2.39,3.92,3.62a33.74,33.74,0,0,0,4.63,4.39c1.18.91,2.46,1.7,3.67,2.58l.46.34.17.12h.09a.16.16,0,0,1,.14.07l0,.06A.18.18,0,0,1,342.16,356.63Z" style="fill:#FFA52E"></path><path d="M342.33,356.41c-2.94-.05-6.1.08-8.45-1.91a13.78,13.78,0,0,1-2.72-3.31c-.34-.55-1.35-2.2-.93-2.85.76-1.19,4.25,3.64,4.74,4.11a14.28,14.28,0,0,0,6.47,3.36l.46.34a16.28,16.28,0,0,1-4.87-1.87c-2.08-1.24-3.24-3.08-4.86-4.79-.36-.37-1.42-1.62-1.82-.84-.26.51.72,2.12.93,2.46a13.48,13.48,0,0,0,2.58,3.15c2.33,2,5.49,2,8.44,2.09Z" style="fill:#fff"></path><path d="M344,358.66c0,.13-.05.26-.08.39h0a.11.11,0,0,1-.06.07.16.16,0,0,1-.18-.07.11.11,0,0,1,0-.08s0,0,0-.05l0-.12h0a0,0,0,0,1,0,0c-.6-2.21-.83-4.51-1.45-6.71s-1.33-4.18-1.76-6.33c-.27-1.36-1.21-8.16,1.79-7.31,1.33.37,2.24,2.3,2.74,3.45a13.71,13.71,0,0,1,1.1,4.89C346.36,350.91,344.84,354.68,344,358.66Z" style="fill:#FFA52E"></path><path d="M345,350.19a16.32,16.32,0,0,0-.48-4.62c-.13-.52-.79-3-1.63-3-.55,0-.64,1.11-.69,1.47a14.55,14.55,0,0,0,.59,4.53,63.38,63.38,0,0,1,1.11,9.09c0,.2-.06.39-.08.58s0,.32-.06.48l0,.17s0,.08,0,.13a.16.16,0,0,0,.18.07c0-.13,0-.25.05-.38,0,.11,0,.21,0,.31h0l.06-.32a.64.64,0,0,0,0-.07c0-.17,0-.34,0-.51A69.17,69.17,0,0,0,345,350.19Zm-1,6.87c-.08-1.79-.26-3.56-.51-5.33-.21-1.43-.47-2.84-.77-4.25a15,15,0,0,1-.39-2.41c0-.62.07-2.91,1.25-1.49.85,1,1.06,3.23,1.16,4.5a22.91,22.91,0,0,1-.08,4.22C344.45,353.89,344.19,355.48,344,357.06Z" style="fill:#fff"></path><path d="M345.8,367.81h0a.43.43,0,0,1-.13,0c-3.05-.15-7.11.13-9.65-1.89-1.87-1.49-3.71-4.43-3.12-6.93.67-2.82,4.48.56,5.49,1.38a93.6,93.6,0,0,1,7.47,7.27l0,0h0S345.87,367.8,345.8,367.81Z" style="fill:#FFA52E"></path><path d="M345.9,367.73l-.52-.33c-2-1.27-4-2.62-5.84-4.06-.48-.36-3.91-3.42-4.43-2.33-.31.67.82,2,1.19,2.47a9.26,9.26,0,0,0,2.31,2.06c2,1.27,4.5,1.54,6.8,2.15l.33.09.05,0h0C345.87,367.8,345.93,367.77,345.9,367.73Zm-6-1.74a9.61,9.61,0,0,1-2.63-1.78c-.52-.49-2.32-2.31-1.84-3.06.25-.4.47-.19,1,.05.22.11.44.24.65.37.51.34,1,.73,1.46,1.11q1.25,1,2.55,1.95c1.42,1,2.88,2,4.37,2.93A45.83,45.83,0,0,1,339.87,366Z" style="fill:#fff"></path><path d="M351.37,361.53a18.07,18.07,0,0,1-5.23,9.13l-.06,0a.12.12,0,0,1-.15-.05.14.14,0,0,1,0-.18l.16-.15c.5-4.15,1.06-8.27,1.49-12.43.1-1,.86-7.22,2.78-6.2,1.18.62,1.26,3.18,1.36,4.33A18,18,0,0,1,351.37,361.53Z" style="fill:#FFA52E"></path><path d="M350.26,356c-.1-.34-.28-.7-.67-.46-.75.47-1,3.4-1.16,4.21-.52,3.35-1.31,6.56-2.11,9.84l-.21.83-.18.25a.13.13,0,0,0,.15.05l0-.08.25-.33h0a21.42,21.42,0,0,0,3-5.88,20.7,20.7,0,0,0,.89-4.1A11.84,11.84,0,0,0,350.26,356Zm-3.91,14.08-.12.16c0-.11.08-.22.11-.33a60.73,60.73,0,0,0,1.86-7.61c.23-1.31.37-2.63.63-3.93.12-.55.39-2.11.84-2.37s.45.36.49.71,0,.71,0,.95A21.05,21.05,0,0,1,346.35,370.05Z" style="fill:#fff"></path><path d="M346.65,379.6H346c0-.53,0-1.07,0-1.6-.07-2.17-.16-4.34-.29-6.5-.07-1.24-.16-2.47-.29-3.68,0,0,0-.08,0-.13l0-.29c0-.11,0-.22-.05-.33a26.33,26.33,0,0,0-2.09-8c-.39-.84-.81-1.66-1.26-2.48a1.71,1.71,0,0,0-.13-.23l0-.07c0-.08-.09-.16-.14-.24a1.62,1.62,0,0,0-.1-.18c-1.41-2.48-3-4.85-4.56-7.24l-1.3-2.06a.57.57,0,0,1-.08-.13.56.56,0,0,1-.1-.15c-1.92-3-3.82-6.09-5.81-9.07-.08-.11.1-.21.17-.1,1.35,2,2.75,3.92,4.14,5.88l.55.78c.37.51.73,1,1.09,1.54.72,1,1.44,2.07,2.14,3.12a88,88,0,0,1,5.61,9.09c.12.23.23.47.35.71s.14.3.2.45.16.35.24.53a28,28,0,0,1,2.06,9.6c0,.23,0,.46,0,.7s0,.21,0,.32a1,1,0,0,0,0,.17,1.7,1.7,0,0,0,0,.22h0v.16c0,.2,0,.39,0,.6.09,2.16.14,4.33.19,6.49C346.6,378.22,346.62,378.91,346.65,379.6Z" style="fill:#FFA52E"></path><path d="M328.44,340.35c-1.67-2.24-3.81-6.87-1.35-9.28a2.62,2.62,0,0,1,3.49-.26c1.3.94,1.88,2.72,2.31,4.19,1.12,3.93,1.87,7.93,3.28,11.78,0,0,.12.33.15.41s-.1.12-.13,0-.09-.25-.14-.38C333.4,344.92,330.42,343,328.44,340.35Z" style="fill:#FFA52E"></path><path d="M336.19,346.79a.25.25,0,0,0,0-.07,28,28,0,0,1-1.56-2.9,55.88,55.88,0,0,1-2.4-6.44c-.27-.84-1.47-5-2.94-3.32a3.75,3.75,0,0,0-.44,2.77,10.25,10.25,0,0,0,1.29,3.86,18.78,18.78,0,0,0,5.54,5.79l.29.23.07.1a.25.25,0,0,0,0,.07l0,0a.1.1,0,0,0,.13-.06A0,0,0,0,0,336.19,346.79Zm-.65-.46a22.1,22.1,0,0,1-4.7-4.71,11.75,11.75,0,0,1-1.53-3.12A10.06,10.06,0,0,1,329,337a7.53,7.53,0,0,1-.07-1.16c0-.85.38-1.77.88-1.86s.83.25,1.24,1a6.47,6.47,0,0,1,.36.75,18.84,18.84,0,0,1,.7,1.95c.34,1.09.69,2.18,1.09,3.25.26.73.55,1.46.86,2.17a28.35,28.35,0,0,0,1.83,3.55Z" style="fill:#fff"></path><path d="M159.25,346.63c-.28,2.23-.7,4.43-1.15,6.63-.26,1.24-.53,2.48-.78,3.73a9.21,9.21,0,0,0-.31,4.16h0a1.28,1.28,0,0,1,0,.19v0a.17.17,0,0,1-.29-.05l0-.09,0,0a6,6,0,0,1-.48-1.15,30.54,30.54,0,0,1-1.1-3.22A27.59,27.59,0,0,1,154,350a23.79,23.79,0,0,1,.65-6.18c.4-1.62,1-4,2.17-5.27s2,.68,2.31,1.58C159.85,342.15,159.51,344.52,159.25,346.63Z" style="fill:#FFA52E"></path><path d="M157.26,341.91c-.82,0-1.41,2.62-1.69,3.75a22.4,22.4,0,0,0-.7,5.46,29.36,29.36,0,0,0,1.68,9.7c0,.13.09.26.13.38l0,0,0,.09a.17.17,0,0,0,.29.05c-.05-.27-.09-.54-.13-.82s0-.49-.07-.73a38.62,38.62,0,0,1,.5-8C157.71,348.69,158.33,341.91,157.26,341.91Zm-.59,18.43c0,.36.1.72.17,1.07-.09-.26-.17-.51-.25-.77a32.83,32.83,0,0,1-1.53-8.56,23.55,23.55,0,0,1,.36-4.89,22.24,22.24,0,0,1,.63-2.56c.11-.35.7-2.55,1.21-2.44.35.08.43,2.06.44,2.1,0,.39,0,.79,0,1.19,0,.81-.07,1.63-.13,2.44-.16,1.76-.41,3.52-.62,5.28A30.48,30.48,0,0,0,156.67,360.34Z" style="fill:#fff"></path><path d="M172,352.78a21.13,21.13,0,0,1-6.59,7c-1.39,1-2.83,2-4.24,3a23.68,23.68,0,0,0-3.66,2.82l-.14.15a6.36,6.36,0,0,0-.76,1.05.08.08,0,0,1-.07,0,.5.5,0,0,1,0,.13s-.06,0-.05,0,0-.1,0-.14v0a.09.09,0,0,1,0-.11l0,0s0-.1,0-.15c.43-3.4,2.8-6.83,4.81-9.45a18.13,18.13,0,0,1,7.59-6.12c.78-.3,2.56-1.13,3.35-.49S172.35,352.16,172,352.78Z" style="fill:#FFA52E"></path><path d="M169.73,352.79c-.71-.71-2.79,1-3.32,1.45a36.3,36.3,0,0,0-4.31,4.19,31.21,31.21,0,0,0-5.51,8h0l-.07.09c0,.05,0,.1,0,.15l0,0a.09.09,0,0,0,0,.12.4.4,0,0,1,.1-.12c.26-.32.53-.63.81-.94l.14-.15a66.08,66.08,0,0,1,6.45-5.69,32,32,0,0,0,4.29-4.18C168.61,355.34,170.32,353.39,169.73,352.79Zm-.65,1.56c-1.76,2.92-4.81,5-7.39,7.17a35,35,0,0,0-4.91,4.66,33.19,33.19,0,0,1,5.09-7.17,47.6,47.6,0,0,1,3.5-3.6,17.45,17.45,0,0,1,2.13-1.7,7.12,7.12,0,0,1,1.44-.78C169.92,352.64,169.38,353.85,169.08,354.35Z" style="fill:#fff"></path><path d="M156.17,373.72a.21.21,0,0,1-.15.09l0,.05a0,0,0,0,1,0,.07.06.06,0,0,1-.08,0,29.57,29.57,0,0,1-6.78-9.92,15.76,15.76,0,0,1-1-4.89c0-1.14-.09-3.44.89-4.28,2-1.67,3.76,5.43,4,6.5.49,2,.81,4,1.26,5.91.49,2.15,1.14,4.25,1.78,6.36A.11.11,0,0,1,156.17,373.72Z" style="fill:#FFA52E"></path><path d="M156.17,373.72c-.11-.18-.21-.36-.31-.55a33,33,0,0,1-3.55-9.54,29.33,29.33,0,0,0-1.31-5c-.16-.4-.65-1.91-1.3-1.15-.33.4-.06,3.27.08,4a20.83,20.83,0,0,0,1.6,4.88,34.33,34.33,0,0,0,4.51,7.33,1.56,1.56,0,0,0,.16.2,0,0,0,0,0,0-.07l0-.05A.21.21,0,0,0,156.17,373.72Zm-4-6.11a25.1,25.1,0,0,1-1.89-4.73,16.88,16.88,0,0,1-.41-2,10.54,10.54,0,0,1-.14-1.58c0-1.3.12-1.64.33-1.68s.32.11.71.89a8.86,8.86,0,0,1,.55,1.57q.3,1.16.54,2.31c.34,1.55.65,3.11,1.1,4.62a25.7,25.7,0,0,0,2.74,6.21A39.53,39.53,0,0,1,152.17,367.61Z" style="fill:#fff"></path><path d="M165,366.91a9.66,9.66,0,0,1-1.8,3.75c-1.64,2.26-3.73,4.14-5.51,6.27-.27.32-.53.65-.78,1,0,0-.23.51-.23.47s0-.19.09-.49h0a40.22,40.22,0,0,1,2.4-8.32,20.06,20.06,0,0,1,2.61-4.08c.5-.57,1.69-1.81,2.59-1.54S165.14,366.19,165,366.91Z" style="fill:#FFA52E"></path><path d="M163.55,366c-1-.59-3.42,3.81-3.76,4.38a28.29,28.29,0,0,0-2.81,6.72c-.08.26-.14.53-.21.8s-.09.48-.09.49.2-.43.23-.47l.13-.17c.21-.28.43-.55.65-.8,1.07-1.61,2.17-3.2,3.21-4.82a26.51,26.51,0,0,0,2-3.67C163,368.17,164,366.25,163.55,366Zm-.28,1.24c-1.36,3.84-4.13,6.86-6.25,10.26l-.11.16a2.63,2.63,0,0,0,.09-.3,32.18,32.18,0,0,1,2.25-5.59,32.56,32.56,0,0,1,1.89-3.16,15.71,15.71,0,0,1,1.18-1.63c.2-.22.76-.8,1-.7S163.36,367,163.27,367.23Z" style="fill:#fff"></path><path d="M174.61,335.28c-2.84,6.53-10.3,9.57-13.54,15.87v0c-.1.19-.19.39-.28.59a.14.14,0,0,1-.22,0,.1.1,0,0,1,0-.11.91.91,0,0,1,.07-.14,33.79,33.79,0,0,1,4-11.43,17.24,17.24,0,0,1,7-7.41c.77-.39,2.26-1.22,3.11-.57S175,334.48,174.61,335.28Z" style="fill:#FFA52E"></path><path d="M172.05,335.56c-.36-.27-.91.06-1.22.22a11,11,0,0,0-2.16,1.47,18.5,18.5,0,0,0-3.44,4.09,37.4,37.4,0,0,0-4,8.22,20.34,20.34,0,0,0-.56,2l-.06.25a.14.14,0,0,0,.22,0,5.94,5.94,0,0,1,.27-.57s0,0,0-.05a22,22,0,0,1,2-3.72,51.36,51.36,0,0,1,4.25-5.05C167.93,341.74,173.3,336.48,172.05,335.56Zm-.46,1.51a24,24,0,0,1-3.37,4.09c-1.18,1.32-2.37,2.62-3.53,4a24.74,24.74,0,0,0-2.49,3.4,19.08,19.08,0,0,0-1.55,3.14,27.36,27.36,0,0,1,1.11-3.27l0,0a47.88,47.88,0,0,1,2.76-5.5l0-.06a22.71,22.71,0,0,1,3.15-4.39A12.43,12.43,0,0,1,170,336.5c.93-.6,1.75-1,2-.69S171.85,336.62,171.59,337.07Z" style="fill:#fff"></path><path d="M164.68,342.94c-.85,1.84-1.67,3.7-2.48,5.58-.38.88-.76,1.75-1.13,2.63,0,0,0,0,0,.05l-.41.95A58.86,58.86,0,0,0,157.3,361a26.76,26.76,0,0,0-.68,4.91l0,.51h0v.28a.76.76,0,0,0,0,.15c-.05,1.43,0,2.87,0,4.27,0,1.95.2,3.88.39,5.81a1,1,0,0,0,0,.17,2.46,2.46,0,0,1,0,.26s0,.09,0,.14a2.29,2.29,0,0,0,0,.25c.06.62.12,1.24.17,1.86h-.6a38,38,0,0,1-.71-5.75.45.45,0,0,1,0-.12c0-.18,0-.37,0-.56s0-.46,0-.69c0-.56,0-1.11-.05-1.66a41.39,41.39,0,0,1,.68-9.63,2.5,2.5,0,0,0,.07-.26.52.52,0,0,1,0-.11c0-.06,0-.12,0-.18l.08-.3.15-.52.05-.16a63.76,63.76,0,0,1,3.28-7.92l.66-1.4.37-.78.58-1.17,0,0c.91-1.84,1.86-3.65,2.76-5.5C164.58,342.78,164.72,342.85,164.68,342.94Z" style="fill:#FFA52E"></path></g><g id="freepik--Floor--inject-598"><polygon points="47.15 379.67 97.86 379.42 148.57 379.33 250 379.17 351.43 379.33 402.14 379.42 452.86 379.67 402.14 379.91 351.43 380 250 380.17 148.57 380 97.86 379.91 47.15 379.67" style="fill:#263238"></polygon></g><g id="freepik--screen-1--inject-598"><g style="opacity:0.4"><path d="M74.34,86.53c0-5.66,25.38-14.15,65.72-21.15,50.66-8.8,96.69-10.82,113.93-5.88l.21,112.92c-17.23-4.94-63.27-2.92-113.93,5.88-40.34,7-65.73,15.49-65.71,21.15C74.49,182,74.41,104,74.34,86.53Z" style="fill:#FFA52E"></path></g><path d="M110.75,173.56q-3.82,1-7.65,2.1V168q3.83-1.09,7.65-2.1Z" style="fill:#FFA52E"></path><path d="M200.39,155.13a395.05,395.05,0,0,0-84.32,11.66v-2.27a395.71,395.71,0,0,1,84.32-11.67Z" style="fill:#455a64"></path><path d="M170.55,162.55a399.12,399.12,0,0,0-54.48,9.65v-2.27a399.12,399.12,0,0,1,54.48-9.65Z" style="fill:#455a64"></path><path d="M98.05,92.27a394.84,394.84,0,0,1,66.22-14A376,376,0,0,1,230.49,76a393.4,393.4,0,0,0-66.22,2.55A411.45,411.45,0,0,0,98.05,92.27Z" style="fill:#455a64"></path><path d="M98.05,105.36a395.87,395.87,0,0,1,66.22-14,376,376,0,0,1,66.22-2.23,392.35,392.35,0,0,0-66.22,2.55A410.37,410.37,0,0,0,98.05,105.36Z" style="fill:#455a64"></path><path d="M98.05,118.44a394.84,394.84,0,0,1,66.22-14,376,376,0,0,1,66.22-2.24,393.41,393.41,0,0,0-66.22,2.56A411.42,411.42,0,0,0,98.05,118.44Z" style="fill:#455a64"></path><path d="M98.05,131.53a395.87,395.87,0,0,1,66.22-14,376,376,0,0,1,66.22-2.23,392.35,392.35,0,0,0-66.22,2.55A410.37,410.37,0,0,0,98.05,131.53Z" style="fill:#455a64"></path><path d="M98.05,144.61a394.84,394.84,0,0,1,66.22-14,376,376,0,0,1,66.22-2.24,393.41,393.41,0,0,0-66.22,2.56A411.42,411.42,0,0,0,98.05,144.61Z" style="fill:#455a64"></path><path d="M124.62,76.8c.2,12.18.15,24.42.23,36.63-.08,12.24,0,24.46-.23,36.73-.19-12.18-.14-24.42-.22-36.63C124.48,101.29,124.43,89.07,124.62,76.8Z" style="fill:#455a64"></path><path d="M147.56,72.3c.2,12.2.15,24.43.23,36.65-.08,12.24,0,24.46-.23,36.71-.19-12.19-.15-24.42-.23-36.64C147.42,96.78,147.37,84.56,147.56,72.3Z" style="fill:#455a64"></path><path d="M170.55,69.18c.19,12.21.14,24.44.22,36.66-.08,12.23,0,24.45-.22,36.7-.2-12.2-.15-24.44-.23-36.65C170.4,93.65,170.35,81.43,170.55,69.18Z" style="fill:#455a64"></path><path d="M193.51,67.43c.2,12.22.15,24.45.23,36.67-.08,12.23,0,24.45-.23,36.69-.19-12.22-.14-24.45-.22-36.67C193.37,91.89,193.32,79.67,193.51,67.43Z" style="fill:#455a64"></path><path d="M216.4,67.05c.2,12.23.15,24.46.23,36.68-.08,12.23,0,24.46-.23,36.68-.19-12.23-.14-24.46-.22-36.68C216.26,91.5,216.21,79.27,216.4,67.05Z" style="fill:#455a64"></path><path d="M101.37,134.15c4-1.15,6.41-15.12,12.12-16.6s6.31,8.13,11.13,7,4.67-18.08,11.16-19.39,5,5.94,11.78,4.78,4.23-16.75,11.34-17.76,4.24,21.53,11.65,20.69c4.68-.48,6.5-7.68,12.09-8.11,3.7-.27,5.88,3.1,10.72,2.86s5.89-13.76,11.91-13.88,6.71,7.94,11.13,8,6-13,14.09-12.63v51.76a393.34,393.34,0,0,0-129.12,15.29Z" style="fill:#FFA52E;opacity:0.5"></path><path d="M101.37,134.79v-1.28c1.21-.35,2.89-3.93,4.11-6.54,2.11-4.48,4.29-9.1,8-10.06s5.35,1.62,6.92,3.84c1.23,1.75,2.5,3.56,4.21,3.18,1.51-.35,2.82-4.72,3.77-7.92,1.56-5.23,3.18-10.65,7.39-11.48,3.76-.74,5.24,1,6.54,2.51s2.35,2.75,5.24,2.27c2.61-.43,3.64-4.34,4.63-8.12,1.16-4.44,2.37-9,6.71-9.64s5.41,4.85,6.58,10.59c.94,4.64,2.11,10.42,5.07,10.1,1.76-.18,3.2-1.78,4.73-3.47,1.86-2.06,4-4.39,7.36-4.64a9.72,9.72,0,0,1,5.17,1.36,10.75,10.75,0,0,0,5.55,1.5c1.67-.08,3.2-3.35,4.43-6,1.8-3.85,3.66-7.83,7.48-7.9s5.66,2.5,7.31,4.76c1.2,1.64,2.33,3.2,3.82,3.22,1.27,0,2.71-2.44,4-4.6,2.16-3.69,4.86-8.29,10.11-8v1.27c-4-.2-6.38,3.78-8.44,7.28-1.77,3-3.17,5.39-5.65,5.36s-4-1.92-5.43-3.92-3-4.1-5.7-4.06c-2.51,0-4.24,3.72-5.76,7-1.7,3.64-3.17,6.77-6.15,6.91a12.81,12.81,0,0,1-6.67-1.7,7.89,7.89,0,0,0-4.05-1.16c-2.44.18-4.19,2.09-5.87,4s-3.51,3.88-6.22,4.16c-4.54.49-5.67-5.07-6.88-11-.91-4.48-2-10.07-4.77-9.71s-4,4.62-4.93,8.34c-1.18,4.51-2.29,8.75-6.41,9.43s-5.51-1.1-6.85-2.66-2.27-2.64-4.93-2.12-4.35,5.85-5.62,10.11c-1.44,4.82-2.58,8.62-5.54,9.28s-4.35-1.38-5.87-3.55c-1.42-2-2.88-4.07-5.26-3.46s-4.61,5.14-6.32,8.77C105.3,130.94,103.82,134.08,101.37,134.79Z" style="fill:#FFA52E"></path><path d="M101.37,83.59c.14,12,.27,24.11.28,36.2s.09,24.16.14,36.24l-.42-.18a403.41,403.41,0,0,1,64.58-13q16.19-1.87,32.36-2.4t32.18.43q-16-.74-32.18-.1T166,143.28a401.71,401.71,0,0,0-64.58,13.17l-.43.12v-.3q.06-18.17.13-36.32C101.09,107.85,101.22,95.72,101.37,83.59Z" style="fill:#455a64"></path></g><g id="freepik--robotic-arm-2--inject-598"><path d="M356.07,282.76l-7.92-10.23,24.73-20.61a7.63,7.63,0,0,1,11,1.12h0A7.63,7.63,0,0,1,382.2,264Z" style="fill:#FFA52E"></path><path d="M418.93,293v35.44a7.77,7.77,0,0,1-7.78,7.77h0a7.77,7.77,0,0,1-7.77-7.77V293a7.77,7.77,0,0,1,7.77-7.77h0A7.78,7.78,0,0,1,418.93,293Z" style="fill:#37474f"></path><rect x="320.98" y="409.37" width="131.87" height="22.81" rx="11.09" style="fill:#455a64"></rect><polygon points="423.09 368.42 350.74 368.42 336.98 409.37 436.86 409.37 423.09 368.42" style="fill:#455a64"></polygon><polygon points="436.85 409.37 433.22 398.56 340.62 398.56 336.99 409.37 436.85 409.37" style="fill:#263238"></polygon><path d="M416.51,321.21h0a10.26,10.26,0,0,0-13.71,2.71l-27.56,36.46a14.46,14.46,0,0,0,4.1,20.76h0a14.46,14.46,0,0,0,20.41-5.55l20.43-40.88A10.26,10.26,0,0,0,416.51,321.21Z" style="fill:#FFA52E"></path><path d="M370.75,372.05a16.52,16.52,0,0,0,30.83,4.5l.4-.8,14.72-29.48L422,335.63a12.32,12.32,0,0,0-20.91-12.92l-27,35.75-.52.68A16.57,16.57,0,0,0,370.75,372.05ZM409.3,322a3.88,3.88,0,0,1,.77-.14,4.23,4.23,0,0,1,.7-.06,7.38,7.38,0,0,1,1.69.09,6,6,0,0,1,.71.15h0a7.32,7.32,0,0,1,.76.23l.15.06a6.65,6.65,0,0,1,.61.27,6.3,6.3,0,0,1,.72.4,5.33,5.33,0,0,1,.6.42,1.24,1.24,0,0,1,.28.22,3.28,3.28,0,0,1,.39.34,1,1,0,0,1,.18.18,2.63,2.63,0,0,1,.4.42,4.52,4.52,0,0,1,.4.49s0,0,0,0,.12.16.17.23a2.4,2.4,0,0,1,.22.37,3.24,3.24,0,0,1,.21.35h0a4,4,0,0,1,.25.51,5.26,5.26,0,0,1,.28.73,3.61,3.61,0,0,1,.21.75,4.85,4.85,0,0,1,.14.76,8.08,8.08,0,0,1-.82,5L414,342.52l-15.51,31-.55,1.1-.1.17c-.11.2-.23.41-.36.62a14,14,0,0,1-1,1.37l-.33.36c-.21.23-.42.45-.64.66l-.06.06a12.45,12.45,0,0,1-15,1.48,12.36,12.36,0,0,1-4.25-16.62.36.36,0,0,1,.05-.09l0-.05a10.63,10.63,0,0,1,.67-1,5.82,5.82,0,0,1,.36-.47l.36-.48,26.8-35.48a8,8,0,0,1,4.11-3A5,5,0,0,1,409.3,322Z" style="fill:#FFA52E"></path><path d="M370.75,372.05a16.52,16.52,0,0,0,30.83,4.5l.4-.8,14.72-29.48L422,335.63a12.32,12.32,0,0,0-20.91-12.92l-27,35.75-.52.68A16.57,16.57,0,0,0,370.75,372.05ZM409.3,322a3.88,3.88,0,0,1,.77-.14,4.23,4.23,0,0,1,.7-.06,7.38,7.38,0,0,1,1.69.09,6,6,0,0,1,.71.15h0a7.32,7.32,0,0,1,.76.23l.15.06a6.65,6.65,0,0,1,.61.27,6.3,6.3,0,0,1,.72.4,5.33,5.33,0,0,1,.6.42,1.24,1.24,0,0,1,.28.22,3.28,3.28,0,0,1,.39.34,1,1,0,0,1,.18.18,2.63,2.63,0,0,1,.4.42,4.52,4.52,0,0,1,.4.49s0,0,0,0,.12.16.17.23a2.4,2.4,0,0,1,.22.37,3.24,3.24,0,0,1,.21.35h0a4,4,0,0,1,.25.51,5.26,5.26,0,0,1,.28.73,3.61,3.61,0,0,1,.21.75,4.85,4.85,0,0,1,.14.76,8.08,8.08,0,0,1-.82,5L414,342.52l-15.51,31-.55,1.1-.1.17c-.11.2-.23.41-.36.62a14,14,0,0,1-1,1.37l-.33.36c-.21.23-.42.45-.64.66l-.06.06a12.45,12.45,0,0,1-15,1.48,12.36,12.36,0,0,1-4.25-16.62.36.36,0,0,1,.05-.09l0-.05a10.63,10.63,0,0,1,.67-1,5.82,5.82,0,0,1,.36-.47l.36-.48,26.8-35.48a8,8,0,0,1,4.11-3A5,5,0,0,1,409.3,322Z" style="opacity:0.1"></path><path d="M397.45,375.45a12.4,12.4,0,1,0-17.07,4A12.38,12.38,0,0,0,397.45,375.45Z" style="fill:#37474f"></path><circle cx="386.92" cy="368.92" r="8.69" transform="translate(-119.67 539.74) rotate(-62.27)" style="fill:#455a64"></circle><path d="M418,334.14a8.11,8.11,0,1,0-11.17,2.61A8.12,8.12,0,0,0,418,334.14Z" style="fill:#37474f"></path><path d="M416,332.86a5.69,5.69,0,1,0-7.83,1.83A5.68,5.68,0,0,0,416,332.86Z" style="fill:#455a64"></path><path d="M372.4,262.84l32.84,35.89a7.78,7.78,0,0,0,11,.48h0a7.78,7.78,0,0,0,.49-11l-32.85-35.89a7.79,7.79,0,0,0-11-.48h0A7.77,7.77,0,0,0,372.4,262.84Z" style="fill:#455a64"></path><path d="M411,290.34a2.9,2.9,0,1,0,2.66,3.13A2.9,2.9,0,0,0,411,290.34Z" style="fill:#37474f"></path><path d="M378.2,254.52a2.9,2.9,0,1,0,2.66,3.12A2.9,2.9,0,0,0,378.2,254.52Z" style="fill:#37474f"></path><rect x="341.53" y="276.77" width="17.58" height="4.52" transform="translate(356.37 -168.8) rotate(52.24)" style="fill:#455a64"></rect><rect x="335.29" y="277.03" width="12.7" height="17.46" transform="translate(358.33 -159.32) rotate(52.24)" style="fill:#37474f"></rect><rect x="318.47" y="289.38" width="25.49" height="8.9" transform="translate(360.67 -147.96) rotate(52.24)" style="fill:#455a64"></rect><path d="M327.78,289.39a2.2,2.2,0,1,1,.39-3.08A2.2,2.2,0,0,1,327.78,289.39Z" style="fill:#37474f"></path><path d="M337.35,301.74a2.2,2.2,0,1,1,.39-3.08A2.2,2.2,0,0,1,337.35,301.74Z" style="fill:#37474f"></path><polygon points="300.57 294.25 296.37 288.83 321.35 288.35 327.57 296.39 300.57 294.25" style="fill:#37474f"></polygon><polygon points="291.84 307.3 289.67 304.5 296.37 288.83 300.57 294.25 291.84 307.3" style="fill:#37474f"></polygon><polygon points="323.14 323.4 327.34 328.82 334.05 304.75 327.83 296.71 323.14 323.4" style="fill:#37474f"></polygon><polygon points="308.33 328.59 310.5 331.39 327.34 328.82 323.14 323.4 308.33 328.59" style="fill:#37474f"></polygon></g><g id="freepik--robotic-arm-1--inject-598"><path d="M93.75,221.86,86.67,211,59.12,227.67a7.63,7.63,0,0,0-2.54,10.76h0a7.63,7.63,0,0,0,10.88,2Z" style="fill:#FFA52E"></path><path d="M76.76,279.06c8.54,8.14,32,28,41.43,39.1a8.6,8.6,0,0,1-.88,11.58c-4.39,3.89-9.15,2.31-12.34-.56-9.62-8.65-32-30.37-41.22-41.6C61,284.27,62.4,279.17,66,276.82h0C69.58,274.46,73.65,276.09,76.76,279.06Z" style="fill:#37474f"></path><rect x="47.15" y="409.37" width="131.87" height="22.81" rx="11.09" style="fill:#455a64"></rect><polygon points="149.26 368.42 76.91 368.42 63.15 409.37 163.02 409.37 149.26 368.42" style="fill:#455a64"></polygon><polygon points="163.02 409.37 159.38 398.56 66.78 398.56 63.15 409.37 163.02 409.37" style="fill:#263238"></polygon><path d="M113.08,315.1h0a10.26,10.26,0,0,0-10.23,9.53l-4.19,45.51a14.46,14.46,0,0,0,14.42,15.48h0a14.45,14.45,0,0,0,14.42-15.48l-4.19-45.51A10.25,10.25,0,0,0,113.08,315.1Z" style="fill:#FFA52E"></path><path d="M101,382.42A16.52,16.52,0,0,0,129.56,370l-.08-.9-3-32.81-1.08-11.84a12.32,12.32,0,0,0-24.58,0l-4.1,44.61-.08.85A16.59,16.59,0,0,0,101,382.42Zm6.35-62.87a4.14,4.14,0,0,1,.58-.53,3.8,3.8,0,0,1,.57-.42,7.32,7.32,0,0,1,1.48-.81,5,5,0,0,1,.68-.25h0c.25-.08.51-.15.77-.21l.15,0,.66-.09a7.69,7.69,0,0,1,.83,0,5.85,5.85,0,0,1,.73,0,1.42,1.42,0,0,1,.36,0,2.74,2.74,0,0,1,.5.08,1.83,1.83,0,0,1,.25.06,3.68,3.68,0,0,1,.57.15,4.1,4.1,0,0,1,.59.2,0,0,0,0,1,0,0l.26.11a2.81,2.81,0,0,1,.39.19,3.9,3.9,0,0,1,.35.19h0c.16.09.31.2.48.31a4.52,4.52,0,0,1,.62.46,3.65,3.65,0,0,1,.58.53,7,7,0,0,1,.52.57,8.11,8.11,0,0,1,1.91,4.66l.9,9.77,3.19,34.55.11,1.23v.19c0,.23,0,.47,0,.71a13.17,13.17,0,0,1-.11,1.68c0,.15-.06.32-.09.49s-.12.6-.19.9l0,.07a12.39,12.39,0,0,1-24.35-2.7.38.38,0,0,1,0-.1.43.43,0,0,0,0-.05c0-.41,0-.82,0-1.24a5.9,5.9,0,0,1,.06-.59l0-.59,4.07-44.28a8.1,8.1,0,0,1,1.93-4.7A7,7,0,0,1,107.35,319.55Z" style="fill:#FFA52E"></path><path d="M101,382.42A16.52,16.52,0,0,0,129.56,370l-.08-.9-3-32.81-1.08-11.84a12.32,12.32,0,0,0-24.58,0l-4.1,44.61-.08.85A16.59,16.59,0,0,0,101,382.42Zm6.35-62.87a4.14,4.14,0,0,1,.58-.53,3.8,3.8,0,0,1,.57-.42,7.32,7.32,0,0,1,1.48-.81,5,5,0,0,1,.68-.25h0c.25-.08.51-.15.77-.21l.15,0,.66-.09a7.69,7.69,0,0,1,.83,0,5.85,5.85,0,0,1,.73,0,1.42,1.42,0,0,1,.36,0,2.74,2.74,0,0,1,.5.08,1.83,1.83,0,0,1,.25.06,3.68,3.68,0,0,1,.57.15,4.1,4.1,0,0,1,.59.2,0,0,0,0,1,0,0l.26.11a2.81,2.81,0,0,1,.39.19,3.9,3.9,0,0,1,.35.19h0c.16.09.31.2.48.31a4.52,4.52,0,0,1,.62.46,3.65,3.65,0,0,1,.58.53,7,7,0,0,1,.52.57,8.11,8.11,0,0,1,1.91,4.66l.9,9.77,3.19,34.55.11,1.23v.19c0,.23,0,.47,0,.71a13.17,13.17,0,0,1-.11,1.68c0,.15-.06.32-.09.49s-.12.6-.19.9l0,.07a12.39,12.39,0,0,1-24.35-2.7.38.38,0,0,1,0-.1.43.43,0,0,0,0-.05c0-.41,0-.82,0-1.24a5.9,5.9,0,0,1,.06-.59l0-.59,4.07-44.28a8.1,8.1,0,0,1,1.93-4.7A7,7,0,0,1,107.35,319.55Z" style="opacity:0.1"></path><circle cx="113.08" cy="371.24" r="12.4" transform="translate(-269.17 438.26) rotate(-83)" style="fill:#37474f"></circle><path d="M121.77,371.24a8.69,8.69,0,1,0-8.69,8.69A8.69,8.69,0,0,0,121.77,371.24Z" style="fill:#455a64"></path><circle cx="113.08" cy="325.28" r="8.11" transform="translate(-196.88 175.23) rotate(-45)" style="fill:#37474f"></circle><path d="M118.77,325.28a5.69,5.69,0,1,0-5.69,5.68A5.69,5.69,0,0,0,118.77,325.28Z" style="fill:#455a64"></path><path d="M70.35,233l6.84,48.17a7.78,7.78,0,0,1-6.61,8.79h0a7.77,7.77,0,0,1-8.79-6.61L55,235.14a7.77,7.77,0,0,1,6.6-8.79h0A7.76,7.76,0,0,1,70.35,233Z" style="fill:#455a64"></path><path d="M67.06,280.22a2.9,2.9,0,1,1,.72,4A2.91,2.91,0,0,1,67.06,280.22Z" style="fill:#37474f"></path><path d="M60.24,232.14a2.9,2.9,0,1,1,.72,4A2.9,2.9,0,0,1,60.24,232.14Z" style="fill:#37474f"></path><rect x="83.32" y="212.95" width="17.58" height="4.52" transform="translate(221.83 20.35) rotate(56.82)" style="fill:#455a64"></rect><rect x="94.96" y="200.47" width="12.7" height="17.46" transform="translate(220.96 9.93) rotate(56.82)" style="fill:#37474f"></rect><rect x="99.59" y="197.53" width="25.49" height="8.9" transform="translate(219.92 -2.57) rotate(56.82)" style="fill:#455a64"></rect><path d="M109.26,197.28a2.19,2.19,0,1,0-3-.63A2.19,2.19,0,0,0,109.26,197.28Z" style="fill:#37474f"></path><path d="M117.81,210.36a2.2,2.2,0,1,0-3-.64A2.21,2.21,0,0,0,117.81,210.36Z" style="fill:#37474f"></path><polygon points="122.75 173.15 119 167.42 110.38 190.87 115.95 199.38 122.75 173.15" style="fill:#37474f"></polygon><polygon points="137.93 169.16 136 166.2 119 167.42 122.75 173.15 137.93 169.16" style="fill:#37474f"></polygon><polygon points="142.92 204.01 146.67 209.75 121.74 208.23 116.17 199.72 142.92 204.01" style="fill:#37474f"></polygon><polygon points="152.66 191.7 154.6 194.66 146.67 209.75 142.92 204.01 152.66 191.7" style="fill:#37474f"></polygon></g><g id="freepik--Robot--inject-598"><path d="M234.63,423.53c3.75-.36,49.66-2.28,50.3-2.28s2.47,7.27,2,8.24-36.73,11.1-44,11.66c-11,.86-32.86-4.6-33.82-5.13s-.17-6.33.64-7.4C210.19,428.09,230.89,423.89,234.63,423.53Z" style="fill:#37474f"></path><path d="M211.05,430s6.42-13,14.38-17.78c3.13-1.85,19.58-5.55,19.58-5.55l28.54-6.85s7.57,9.56,8.28,12.27,1.86,12.28,1.86,12.28S251.05,435.51,241,435.52C223.18,435.53,211.05,430,211.05,430Z" style="fill:#FFA52E"></path><path d="M237.9,267.2c-4.24,6-11.74,56.38-9.83,61.19s23,10.3,28.26,6,10-63.43,6.28-67.73-8.94-6.78-13.13-6.3S241.54,262.08,237.9,267.2Z" style="fill:#FFA52E"></path><g style="opacity:0.2"><path d="M255.2,269.62a.79.79,0,0,1-1,.37.79.79,0,1,1,.74-1.39A.79.79,0,0,1,255.2,269.62Zm0,0a.58.58,0,0,0-.32-.84.6.6,0,0,0-.72.28.6.6,0,0,0,.16.76A.59.59,0,0,0,255.2,269.62Z"></path><path d="M255.41,276.93a.78.78,0,0,1-1,.37.8.8,0,0,1-.41-1.11.78.78,0,0,1,1.15-.27A.77.77,0,0,1,255.41,276.93Zm0,0a.58.58,0,0,0-.32-.84.6.6,0,0,0-.72.28.6.6,0,0,0,.16.76A.59.59,0,0,0,255.41,276.93Z"></path><path d="M255.6,284.37a.79.79,0,0,1-1,.37.79.79,0,1,1,.74-1.39A.79.79,0,0,1,255.6,284.37Zm0,0a.59.59,0,0,0-.32-.85.61.61,0,0,0-.72.29.6.6,0,0,0,.16.76A.59.59,0,0,0,255.6,284.37Z"></path><path d="M255.05,291.9a.79.79,0,1,1-1.39-.74.79.79,0,1,1,1.39.74Zm0,0a.6.6,0,0,0-.33-.85.61.61,0,0,0-.72.29.6.6,0,1,0,1.05.56Z"></path><path d="M254.75,299.14a.78.78,0,1,1-.23-1A.77.77,0,0,1,254.75,299.14Zm0,0a.59.59,0,1,0-1-.56.61.61,0,0,0,.15.76A.6.6,0,0,0,254.75,299.14Z"></path><path d="M254.19,305.75a.78.78,0,1,1-1.38-.74.78.78,0,0,1,1.15-.27A.77.77,0,0,1,254.19,305.75Zm0,0a.59.59,0,1,0-1-.56.61.61,0,0,0,.15.76A.6.6,0,0,0,254.19,305.75Z"></path><path d="M253.32,312.41a.79.79,0,1,1-.23-1A.79.79,0,0,1,253.32,312.41Zm0,0a.6.6,0,0,0-.33-.85.59.59,0,0,0-.71.28.61.61,0,0,0,.15.76A.6.6,0,0,0,253.32,312.41Z"></path><path d="M252.49,318.87a.78.78,0,1,1-.23-1A.78.78,0,0,1,252.49,318.87Zm0,0a.59.59,0,0,0-.33-.84.58.58,0,0,0-.71.28.59.59,0,1,0,1,.56Z"></path><path d="M251.73,324.86a.79.79,0,1,1-1.38-.75.8.8,0,0,1,1.15-.27A.79.79,0,0,1,251.73,324.86Zm0,0a.61.61,0,0,0-.32-.85.61.61,0,0,0-.72.29.59.59,0,1,0,1,.56Z"></path><path d="M250.53,331a.79.79,0,1,1-1.39-.74.79.79,0,0,1,1.39.74Zm0,0a.59.59,0,0,0-.33-.84.58.58,0,0,0-.71.28.59.59,0,0,0,.15.76A.6.6,0,0,0,250.53,331Z"></path><path d="M257.3,265.31a136.84,136.84,0,0,1,.5,16.94c-.13,5.65-.49,11.3-1,16.93-.29,2.81-.58,5.62-1,8.43s-.76,5.6-1.17,8.39-.92,5.58-1.38,8.37l-1.65,8.31,1.46-8.35c.43-2.79.93-5.57,1.32-8.36s.8-5.6,1.1-8.4.62-5.62.89-8.43c.54-5.62.94-11.25,1.11-16.9.08-2.82.13-5.64.09-8.46S257.54,268.13,257.3,265.31Z"></path></g><path d="M228.15,340.09c-.66,3.91,15.65,61.28,18.47,63.59s23.29-2,26.5-6.79.07-35.22-.91-41.05-15.47-23-17-22.17C242.12,340.66,228.73,336.66,228.15,340.09Z" style="fill:#FFA52E"></path><g style="opacity:0.2"><path d="M253.1,342.48a.79.79,0,1,1-.54-.89A.78.78,0,0,1,253.1,342.48Zm0,0a.59.59,0,1,0-.78.47A.6.6,0,0,0,253.1,342.48Z"></path><path d="M257.1,347.55a.78.78,0,0,1-.81.65.79.79,0,0,1-.73-.92.78.78,0,1,1,1.54.27Zm0,0a.59.59,0,1,0-.78.46A.59.59,0,0,0,257.1,347.55Z"></path><path d="M260.91,352.5a.8.8,0,0,1-.81.66.79.79,0,1,1,.27-1.55A.79.79,0,0,1,260.91,352.5Zm0,0a.59.59,0,1,0-.78.47A.6.6,0,0,0,260.91,352.5Z"></path><path d="M263.84,357.57a.79.79,0,1,1-.54-.9A.8.8,0,0,1,263.84,357.57Zm0,0a.59.59,0,1,0-.78.46A.6.6,0,0,0,263.84,357.57Z"></path><path d="M265.2,364.12a.78.78,0,1,1-1.54-.27.78.78,0,1,1,1.54.27Zm0,0a.59.59,0,1,0-1.16-.2.59.59,0,1,0,1.16.2Z"></path><path d="M266.73,377.88a.78.78,0,1,1-1.54-.27.78.78,0,1,1,1.54.27Zm0,0a.59.59,0,1,0-1.16-.2.59.59,0,1,0,1.16.2Z"></path><path d="M268.51,392.18a.78.78,0,1,1-.54-.89A.79.79,0,0,1,268.51,392.18Zm0,0a.59.59,0,1,0-.78.47A.6.6,0,0,0,268.51,392.18Z"></path><path d="M266,370.89a.79.79,0,1,1-.55-.89A.8.8,0,0,1,266,370.89Zm0,0a.59.59,0,1,0-1.17-.2.6.6,0,0,0,.38.67A.61.61,0,0,0,266,370.89Z"></path><path d="M267.37,384.9a.8.8,0,0,1-.81.66.79.79,0,1,1,.27-1.55A.79.79,0,0,1,267.37,384.9Zm0,0a.59.59,0,1,0-1.16-.2.59.59,0,0,0,.38.67A.6.6,0,0,0,267.37,384.9Z"></path><path d="M253.15,338.23c3.15,3.87,6.23,7.81,9.13,11.88.73,1,1.44,2,2.11,3.11.34.52.66,1.07,1,1.62.16.28.28.59.42.88s.2.6.29.91a53.71,53.71,0,0,1,1.39,7.39c.64,5,1.08,9.94,1.5,14.92l.58,7.47c.19,2.48.37,5,.62,7.46-.34-2.47-.62-5-.9-7.44L268.5,379c-.5-5-.94-9.94-1.62-14.88a55.79,55.79,0,0,0-1.32-7.32c-.1-.29-.17-.59-.28-.88s-.23-.55-.38-.82c-.29-.54-.6-1.07-.94-1.6-.65-1.05-1.35-2.08-2-3.12-1.41-2.06-2.87-4.08-4.34-6.1S254.65,340.22,253.15,338.23Z"></path></g><path d="M227.7,334.59c.34-3.25,1.63-16.5,2.4-16.87s4-1.05,4.63.35,2,14.94,3.39,15.54,13.3,2.27,19.17-1.22c1.1-.65,1.48,4.32.42,5.16s-10.29,4.39-18.76,3.2c-.9-.13-3,16.21-4.15,16.89s-4.14.6-4.87-.18S227,340.88,227.7,334.59Z" style="fill:#37474f"></path><ellipse cx="232.59" cy="337.18" rx="11.79" ry="8.48" transform="translate(-110.99 560.2) rotate(-88.39)" style="fill:#455a64"></ellipse><path d="M246.62,403.68c-3.11-.55-1.88,4.34,4.23,5.2,9.27,1.3,23.21-5.18,24.26-8.22s-1-5.83-1.51-4.8S257.74,405.65,246.62,403.68Z" style="fill:#37474f"></path><path d="M239.83,261.25c-2.17,5.17,4,11,8.9,13,8.37,3.5,13.22,2.43,15.48-1.44,2-3.48.54-12.94-7.51-16.16C248.21,253.3,240.84,258.85,239.83,261.25Z" style="fill:#263238"></path><path d="M289.44,421.46l3.66-19.11,27.31-3.84s13.54,21,13.48,20.93S289.44,421.46,289.44,421.46Z" style="fill:#FFA52E"></path><path d="M289.44,421.46l3.66-19.11,27.31-3.84s13.54,21,13.48,20.93S289.44,421.46,289.44,421.46Z" style="opacity:0.1"></path><path d="M282,433.39s24.59-2,28.66-2.51,32.59,2.51,32.59,2.51,1.33,6.58,1.17,7.2-25.91,9.58-37,9.11-27.68-7.23-27.66-7.7S282,433.39,282,433.39Z" style="fill:#37474f"></path><path d="M282.53,437.38s14.93,5.89,23.21,6,36.29-8,36.29-8-5.29-15.55-14-22.26-25.52-5.08-31.94-.68S282.53,437.38,282.53,437.38Z" style="fill:#FFA52E"></path><path d="M292.16,265.15c4.95,5.38,18.72,54.45,17.42,59.47s-21.53,13.1-27.27,9.54-17.91-61.67-14.73-66.41,8-7.85,12.23-7.9S287.9,260.52,292.16,265.15Z" style="fill:#FFA52E"></path><g style="opacity:0.2"><path d="M272.61,270.23a.8.8,0,0,1,1.18.13.79.79,0,0,1-.26,1.15.78.78,0,0,1-1-.24A.8.8,0,0,1,272.61,270.23Zm.8,1.13a.6.6,0,0,0,.06-.77.59.59,0,0,0-.74-.2.6.6,0,1,0,.68,1Z"></path><path d="M273.32,277.52a.79.79,0,1,1,.91,1.27.78.78,0,0,1-1-.23A.8.8,0,0,1,273.32,277.52Zm.8,1.12a.61.61,0,0,0-.69-1,.61.61,0,0,0-.21.89A.6.6,0,0,0,274.12,278.64Z"></path><path d="M274.07,284.92a.79.79,0,1,1,.91,1.28.81.81,0,0,1-1-.24A.79.79,0,0,1,274.07,284.92Zm.8,1.12A.6.6,0,1,0,274,286,.61.61,0,0,0,274.87,286Z"></path><path d="M275.57,292.32a.79.79,0,1,1,.91,1.28.81.81,0,0,1-1-.24A.79.79,0,0,1,275.57,292.32Zm.8,1.12a.6.6,0,0,0,.05-.77.58.58,0,0,0-.74-.19.6.6,0,0,0-.22.88A.6.6,0,0,0,276.37,293.44Z"></path><path d="M276.77,299.47a.79.79,0,1,1,.91,1.27.79.79,0,0,1-.91-1.27Zm.8,1.12a.6.6,0,0,0,.06-.77.61.61,0,0,0-.75-.2.6.6,0,1,0,.69,1Z"></path><path d="M278.15,306a.8.8,0,0,1,1.18.13.79.79,0,0,1-.26,1.15.78.78,0,0,1-1-.24A.8.8,0,0,1,278.15,306Zm.8,1.12a.58.58,0,0,0,.06-.76.59.59,0,1,0-1,.68A.59.59,0,0,0,279,307.07Z"></path><path d="M279.85,312.44a.8.8,0,0,1,1.18.13.79.79,0,0,1-.26,1.15.78.78,0,0,1-1-.24A.8.8,0,0,1,279.85,312.44Zm.8,1.12a.6.6,0,1,0-.9-.08A.6.6,0,0,0,280.65,313.56Z"></path><path d="M281.49,318.76a.79.79,0,1,1,.91,1.27.79.79,0,0,1-.91-1.27Zm.8,1.12a.6.6,0,1,0-.9-.08A.6.6,0,0,0,282.29,319.88Z"></path><path d="M283,324.6a.8.8,0,1,1-.1,1A.8.8,0,0,1,283,324.6Zm.8,1.12a.6.6,0,1,0-.9-.08A.6.6,0,0,0,283.79,325.72Z"></path><path d="M285,330.56a.79.79,0,1,1,.91,1.28.77.77,0,0,1-1-.24A.79.79,0,0,1,285,330.56Zm.8,1.13a.6.6,0,1,0-.9-.09A.6.6,0,0,0,285.76,331.69Z"></path><path d="M269.89,267.26a136.43,136.43,0,0,0,1.63,16.87c.84,5.59,1.9,11.15,3.1,16.67.64,2.76,1.28,5.51,2,8.24s1.46,5.46,2.22,8.18,1.62,5.42,2.42,8.13l2.68,8-2.5-8.1c-.77-2.71-1.62-5.41-2.35-8.14s-1.5-5.44-2.15-8.19-1.32-5.49-1.94-8.24c-1.24-5.51-2.35-11.05-3.23-16.63-.43-2.79-.83-5.58-1.14-8.39S270,270.08,269.89,267.26Z"></path></g><path d="M312.3,330.3c.94,1.47,5.62,13.17,7.43,26.73,2.3,17.26,1.61,37.18.67,39-1.68,3.23-22.17,7.39-27,4.22s-10-31.23-11.1-38.09c-.95-5.84-.45-27,1.27-26.85C298.32,336.57,310.42,327.38,312.3,330.3Z" style="fill:#FFA52E"></path><g style="opacity:0.2"><path d="M287.06,337.43a.8.8,0,0,1,1.17.2.79.79,0,0,1-1.33.84A.81.81,0,0,1,287.06,337.43Zm.74,1.17a.59.59,0,0,0,.1-.76.58.58,0,0,0-.73-.24.61.61,0,0,0-.27.87A.6.6,0,0,0,287.8,338.6Z"></path><path d="M287.34,344.75a.79.79,0,1,1-.16,1A.78.78,0,0,1,287.34,344.75Zm.74,1.16a.6.6,0,0,0-.63-1,.61.61,0,0,0-.27.87A.6.6,0,0,0,288.08,345.91Z"></path><path d="M287.65,352.18a.79.79,0,0,1,1.17.19.79.79,0,1,1-1.33.84A.78.78,0,0,1,287.65,352.18Zm.74,1.16a.59.59,0,0,0,.1-.76.61.61,0,0,0-.73-.24.6.6,0,1,0,.63,1Z"></path><path d="M288.71,359.65a.8.8,0,0,1,1.17.2.79.79,0,1,1-1.17-.2Zm.74,1.17a.59.59,0,0,0,.1-.76.58.58,0,0,0-.73-.24.6.6,0,1,0,.63,1Z"></path><path d="M289.49,366.86a.8.8,0,0,1,1.17.2.78.78,0,1,1-1.17-.2Zm.74,1.17a.61.61,0,0,0-.63-1,.59.59,0,0,0-.27.87A.61.61,0,0,0,290.23,368Z"></path><path d="M290.49,373.42a.79.79,0,0,1,1.17.19.79.79,0,1,1-1.33.84A.78.78,0,0,1,290.49,373.42Zm.74,1.16a.6.6,0,0,0-.63-1,.6.6,0,1,0,.63,1Z"></path><path d="M291.81,380a.78.78,0,0,1,1.16.19.79.79,0,0,1-.33,1.14.79.79,0,0,1-.83-1.33Zm.73,1.16a.6.6,0,1,0-.9-.13A.6.6,0,0,0,292.54,381.16Z"></path><path d="M293.07,386.39a.8.8,0,0,1,1.17.2.79.79,0,0,1-.33,1.13.78.78,0,0,1-1-.29A.8.8,0,0,1,293.07,386.39Zm.73,1.17a.6.6,0,1,0-.89-.13A.59.59,0,0,0,293.8,387.56Z"></path><path d="M294.23,392.32a.78.78,0,0,1,1.16.19.79.79,0,1,1-1.16-.19Zm.73,1.16a.6.6,0,0,0-.63-1,.61.61,0,0,0-.27.87A.6.6,0,0,0,295,393.48Z"></path><path d="M295.84,398.39a.79.79,0,0,1,1.17.19.79.79,0,1,1-1.33.84A.78.78,0,0,1,295.84,398.39Zm.74,1.16a.59.59,0,0,0,.1-.76.59.59,0,1,0-.1.76Z"></path><path d="M284.64,336.1a129.74,129.74,0,0,0,.6,16.49c.5,5.48,1.23,10.93,2.09,16.37.47,2.71.94,5.42,1.5,8.12s1.12,5.39,1.72,8.07,1.28,5.36,1.92,8l2.19,8-2-8c-.62-2.68-1.3-5.35-1.86-8s-1.16-5.38-1.65-8.08-1-5.41-1.44-8.12c-.9-5.42-1.67-10.87-2.21-16.34-.26-2.73-.49-5.47-.63-8.22S284.59,338.85,284.64,336.1Z"></path></g><path d="M305.77,327.84c-1.39-3-7-15.06-7.81-15.15s-4.14.33-4.26,1.85,3,14.76,1.9,15.79a16.62,16.62,0,0,1-13.27,3.33c-1.25-.26,0,4.57,1.29,5s5.93,2.59,13.54-1.33c.81-.41,7.17,15.56,8.5,15.82s4.11-.8,4.54-1.78S308.46,333.56,305.77,327.84Z" style="fill:#37474f"></path><path d="M290,336.45a11.79,11.79,0,1,0,6.84-15.21A11.81,11.81,0,0,0,290,336.45Z" style="fill:#455a64"></path><path d="M320.31,395.36c2.61-1.78,3.49,3.2-1.73,6.48-7.93,5-23.29,4.79-25.49,2.45s-1.45-5.74-.59-5S311,401.72,320.31,395.36Z" style="fill:#37474f"></path><path d="M290.38,261.24c1.95,5-4.13,10.42-8.8,12.25-8.08,3.14-12.69,2-14.75-1.74-1.86-3.37-.22-12.38,7.55-15.26C282.57,253.45,289.48,258.92,290.38,261.24Z" style="fill:#263238"></path><path d="M209.68,208.8c-2.6,3.85-1,22.88,3.66,25.28s34.43-17.18,35.81-20.28,5.52-21.93,2.2-21.79S215,200.87,209.68,208.8Z" style="fill:#FFA52E"></path><g style="opacity:0.2"><path d="M245.48,209.68a.84.84,0,0,1-.92-.64.85.85,0,1,1,1.67-.19A.85.85,0,0,1,245.48,209.68Zm0,0a.64.64,0,0,0,.54-.81.63.63,0,0,0-.69-.45.64.64,0,0,0-.57.6A.65.65,0,0,0,245.48,209.68Z"></path><path d="M238.52,213.81a.84.84,0,1,1,.75-.83A.84.84,0,0,1,238.52,213.81Zm0,0a.63.63,0,0,0,.54-.8.64.64,0,0,0-.69-.46.63.63,0,1,0,.15,1.26Z"></path><path d="M232,218a.84.84,0,1,1,.76-.83A.85.85,0,0,1,232,218Zm0,0a.63.63,0,1,0-.71-.66A.65.65,0,0,0,232,218Z"></path><path d="M225.82,221.57a.84.84,0,1,1-.19-1.67.84.84,0,1,1,.19,1.67Zm0,0a.63.63,0,1,0-.14-1.26.63.63,0,1,0,.14,1.26Z"></path><path d="M219.44,224.89a.85.85,0,0,1-.92-.64.85.85,0,1,1,1.67-.19A.85.85,0,0,1,219.44,224.89Zm0,0a.65.65,0,0,0,.55-.81.64.64,0,0,0-.69-.45.63.63,0,0,0-.57.6A.64.64,0,0,0,219.44,224.89Z"></path><path d="M213.25,228.13a.84.84,0,1,1-.2-1.67.84.84,0,1,1,.2,1.67Zm0,0a.63.63,0,1,0-.72-.66A.65.65,0,0,0,213.25,228.13Z"></path><path d="M248.63,210.6c-2.69,1.9-5.42,3.73-8.17,5.52s-5.55,3.53-8.36,5.23-5.67,3.35-8.56,4.92-5.83,3-8.84,4.38c3-1.47,5.82-3.05,8.68-4.66s5.69-3.29,8.5-5,5.61-3.42,8.4-5.15S245.86,212.37,248.63,210.6Z"></path></g><path d="M202.22,233.58c-7.53,0-38.36-24.65-37.94-30.32s13.84-17.78,19-17.06,21.89,17.62,24,21.36S210.25,233.58,202.22,233.58Z" style="fill:#FFA52E"></path><g style="opacity:0.2"><path d="M189.72,219.39a.84.84,0,1,1,1.06.37A.87.87,0,0,1,189.72,219.39Zm0,0a.64.64,0,1,0,1.11-.63.64.64,0,1,0-1.11.63Z"></path><path d="M184.16,214.83a.85.85,0,1,1,1.06.36A.86.86,0,0,1,184.16,214.83Zm0,0a.64.64,0,1,0,.33-.92A.65.65,0,0,0,184.16,214.83Z"></path><path d="M178.75,210.41a.84.84,0,1,1,1.46-.84.84.84,0,1,1-1.46.84Zm0,0a.64.64,0,0,0,.95.18.64.64,0,0,0-.63-1.1A.64.64,0,0,0,178.75,210.41Z"></path><path d="M173.73,206.33a.84.84,0,1,1,1.46-.84.84.84,0,1,1-1.46.84Zm0,0a.63.63,0,1,0,.32-.92A.64.64,0,0,0,173.73,206.33Z"></path><path d="M188.11,220a31,31,0,0,1-5-3.14c-1.58-1.17-3.08-2.44-4.55-3.74s-2.87-2.68-4.25-4.07l-2-2.13-1.95-2.2,4.2,4.1c1.43,1.34,2.83,2.7,4.31,4s2.94,2.58,4.46,3.8q1.15.91,2.34,1.77A24.57,24.57,0,0,0,188.11,220Z"></path></g><path d="M207.11,235.84c-9.07-1.43-17-8.59-17.25-9.32s1.71-2.8,3-3.23,10.95,3.84,11.63,2.63,4.26-13.87,1.64-19.87c-.47-1.08,5-.69,5.67.35s1.35,12.31-.53,19.93c-.2.81,13.55-1.73,14.07-.6s1.82,2.82,1,3.41S216.48,237.31,207.11,235.84Z" style="fill:#37474f"></path><path d="M209,222c5.93.78,10.29,4.86,9.73,9.13s-5.82,7.09-11.75,6.31-10.28-4.86-9.72-9.12S203.05,221.24,209,222Z" style="fill:#455a64"></path><path d="M162.75,202c2.3,2.32,8.71-.08,13-3.68s8.76-9.5,7.53-12.13c-.86-1.83-5.35-2.92-13.84,3.35S161.63,200.87,162.75,202Z" style="fill:#37474f"></path><path d="M163.77,199.89c3.83,1,15.72-8.8,16.24-13,.17-1.4-10.61-19.84-14.21-19.84s-17.63,16.15-15.5,20S161.75,199.35,163.77,199.89Z" style="fill:#FFA52E"></path><path d="M150.14,186.7c1.28.75,3.87-.58,5.25-2.71,1.93-3,1.77-5.1.87-6-.64-.64-3.48-.58-5.74,2.91C148.69,183.7,149.13,186.1,150.14,186.7Z" style="fill:#37474f"></path><path d="M158.81,173.69c1,1.06,3.89.45,5.78-1.25,2.64-2.38,3-4.45,2.4-5.57-.44-.79-3.2-1.47-6.3,1.3C158.19,170.41,158,172.85,158.81,173.69Z" style="fill:#37474f"></path><path d="M166.11,166.53c-1.8-2.29-7.72-8.16-8.94-8.16-3.53,0-5.21,3.71-4.57,5.23.37.9,4.77,9,7,9.18C162.93,173,167.23,168,166.11,166.53Z" style="fill:#FFA52E"></path><path d="M149.16,185c-1.29-2.65-4.23-9.76-3.53-11.89s2.38-3.5,3.53-3.23,6.86,6.83,7,9S150.23,187.25,149.16,185Z" style="fill:#FFA52E"></path><path d="M152.31,163.62c1.16.74,3.11-.31,4.39-1.73,1.68-1.87,1.38-3.71.35-4.3-.67-.39-2.76-.2-4.12,1.95C151.93,161.11,151.39,163,152.31,163.62Z" style="fill:#37474f"></path><path d="M145.44,173.83c.36,1.11,2.57,1.07,4,.12s2.16-2.54,1.46-3.37a2.89,2.89,0,0,0-4,.2C145.68,171.87,145.12,172.88,145.44,173.83Z" style="fill:#37474f"></path><path d="M152,163.23c-2.69-.36-8.5-1.75-10.85-4.1-1.57-1.57-.58-2.93,1-3.2s12.51.34,14.11,2S154.16,163.53,152,163.23Z" style="fill:#FFA52E"></path><path d="M145.83,173.38c-.92-.83-.2-7.4.6-8.91s2.55-2.07,3.2-1,1.22,7.06.92,7.95C150.2,172.43,147.13,174.54,145.83,173.38Z" style="fill:#FFA52E"></path><path d="M239.18,241.37c0,2.15,1,19.22,3,21.13s10,5.4,16.07,6.55c8.11,1.54,19.21-.54,23.56-3.19s10.64-26,9.44-27S264.85,233,255.28,234,239.14,239.43,239.18,241.37Z" style="fill:#37474f"></path><path d="M242.33,261.54a83.49,83.49,0,0,0,9.34,4.08,33.83,33.83,0,0,0,10,2.21,51.1,51.1,0,0,0,10.13-.65,94.91,94.91,0,0,0,9.84-2.07,76.5,76.5,0,0,1-9.8,2.23,51.38,51.38,0,0,1-10.17.73,34,34,0,0,1-10-2.31A68.83,68.83,0,0,1,242.33,261.54Z" style="fill:#263238"></path><path d="M241.92,259.17a86.14,86.14,0,0,0,9.74,4.25A34.78,34.78,0,0,0,262,265.73a54,54,0,0,0,10.56-.67,97.65,97.65,0,0,0,10.25-2.17,80.86,80.86,0,0,1-10.21,2.33A53.55,53.55,0,0,1,262,266a35.19,35.19,0,0,1-10.43-2.4A71.7,71.7,0,0,1,241.92,259.17Z" style="fill:#263238"></path><path d="M241.59,257a90.58,90.58,0,0,0,10.09,4.41,36.5,36.5,0,0,0,10.75,2.39,55.39,55.39,0,0,0,10.93-.7A101.62,101.62,0,0,0,284,260.81a82.84,82.84,0,0,1-10.58,2.41,55.77,55.77,0,0,1-11,.78,36.37,36.37,0,0,1-10.8-2.49A74.36,74.36,0,0,1,241.59,257Z" style="fill:#263238"></path><path d="M242,255a88.77,88.77,0,0,0,10.09,4.41,36.58,36.58,0,0,0,10.75,2.4,56.16,56.16,0,0,0,10.93-.7,104.25,104.25,0,0,0,10.62-2.25,82.43,82.43,0,0,1-10.58,2.4,55.77,55.77,0,0,1-11,.79,36.68,36.68,0,0,1-10.8-2.49A75.67,75.67,0,0,1,242,255Z" style="fill:#263238"></path><path d="M241.64,252.62a92.4,92.4,0,0,0,10.44,4.57,37.81,37.81,0,0,0,11.13,2.48,57.77,57.77,0,0,0,11.32-.72,106.36,106.36,0,0,0,11-2.34,85,85,0,0,1-11,2.49,57.28,57.28,0,0,1-11.36.81A37.66,37.66,0,0,1,252,257.34,77.8,77.8,0,0,1,241.64,252.62Z" style="fill:#263238"></path><path d="M241.09,250.05a95.54,95.54,0,0,0,10.72,4.69,38.58,38.58,0,0,0,11.43,2.55,58.62,58.62,0,0,0,11.63-.75,107,107,0,0,0,11.3-2.4,88,88,0,0,1-11.26,2.56,59.6,59.6,0,0,1-11.67.83,39.05,39.05,0,0,1-11.49-2.64A82,82,0,0,1,241.09,250.05Z" style="fill:#263238"></path><path d="M240.67,247.6a97.62,97.62,0,0,0,11.13,4.87,40.21,40.21,0,0,0,11.87,2.65,60.89,60.89,0,0,0,12.08-.78,109.55,109.55,0,0,0,11.73-2.49,91.29,91.29,0,0,1-11.69,2.65,61.17,61.17,0,0,1-12.12.86,40.37,40.37,0,0,1-11.93-2.74A84.4,84.4,0,0,1,240.67,247.6Z" style="fill:#263238"></path><path d="M240.46,245.25a99.4,99.4,0,0,0,11.43,5,41.43,41.43,0,0,0,12.2,2.73,63.47,63.47,0,0,0,12.41-.8,112.94,112.94,0,0,0,12-2.57,94,94,0,0,1-12,2.72,63,63,0,0,1-12.45.89,41.59,41.59,0,0,1-12.26-2.82A85.09,85.09,0,0,1,240.46,245.25Z" style="fill:#263238"></path><path d="M240.91,242.82a99.55,99.55,0,0,0,11.44,5,41.37,41.37,0,0,0,12.19,2.73,64.2,64.2,0,0,0,12.41-.8A113.12,113.12,0,0,0,289,247.19a94.59,94.59,0,0,1-12,2.72,62.94,62.94,0,0,1-12.45.89A41.84,41.84,0,0,1,252.29,248,86.5,86.5,0,0,1,240.91,242.82Z" style="fill:#263238"></path><path d="M241.37,240.39a99.4,99.4,0,0,0,11.43,5,41.36,41.36,0,0,0,12.2,2.73,63.48,63.48,0,0,0,12.41-.81,112.91,112.91,0,0,0,12-2.56,94,94,0,0,1-12,2.72,63,63,0,0,1-12.45.89,41.84,41.84,0,0,1-12.26-2.82A86.37,86.37,0,0,1,241.37,240.39Z" style="fill:#263238"></path><path d="M241.82,238a99.55,99.55,0,0,0,11.44,5,41,41,0,0,0,12.19,2.72,62.71,62.71,0,0,0,12.41-.8,112.91,112.91,0,0,0,12-2.56,94,94,0,0,1-12,2.72,62.19,62.19,0,0,1-12.45.88,41.51,41.51,0,0,1-12.25-2.81A86.5,86.5,0,0,1,241.82,238Z" style="fill:#263238"></path><path d="M242.28,235.53a99.4,99.4,0,0,0,11.43,5,41,41,0,0,0,12.2,2.72,62.56,62.56,0,0,0,12.4-.8,112.57,112.57,0,0,0,12.05-2.56,94.59,94.59,0,0,1-12,2.72,62.89,62.89,0,0,1-12.44.88,41.51,41.51,0,0,1-12.26-2.81A86.37,86.37,0,0,1,242.28,235.53Z" style="fill:#263238"></path><path d="M255,192c-4-1.75-9.19,1.54-11.95,5.16-4.25,5.56-7,21.2-2.8,22.53S259.86,194.14,255,192Z" style="fill:#37474f"></path><path d="M270.58,186.87c-9.28,0-21.84,5.45-25.91,15.58-3.29,8.17-8.49,35.47-6.51,46.77a6.58,6.58,0,0,0,3.23,4.14c3.71,0,7.42-13,14.07-14,7.83-1.16,10.09,22.49,23.88,20.53,2.78-.39,8.88-4.52,10.86-8.77,1.67-3.59,9.42-38,6.11-48.78C293.76,194,280.58,186.91,270.58,186.87Z" style="fill:#FFA52E"></path><g style="opacity:0.2"><path d="M286.43,223.07a1,1,0,1,1-.2-1.34A1,1,0,0,1,286.43,223.07Zm0,0a.77.77,0,0,0-.34-1.12.76.76,0,0,0-.95.3.77.77,0,0,0,.12,1A.78.78,0,0,0,286.43,223.07Z"></path><path d="M284.67,231.59a1,1,0,1,1-.2-1.34A1,1,0,0,1,284.67,231.59Zm0,0a.77.77,0,1,0-1.16.17A.78.78,0,0,0,284.67,231.59Z"></path><path d="M283,239.87a1,1,0,1,1-.21-1.34A1,1,0,0,1,283,239.87Zm0,0a.77.77,0,1,0-1.3-.82.77.77,0,1,0,1.3.82Z"></path><path d="M281.44,247.54a1,1,0,0,1-1.3.38,1,1,0,1,1,1.1-1.72A1,1,0,0,1,281.44,247.54Zm0,0a.77.77,0,1,0-1.16.17A.78.78,0,0,0,281.44,247.54Z"></path><path d="M279.3,255.4a1,1,0,0,1-1.72-1.1,1,1,0,1,1,1.72,1.1Zm0,0a.78.78,0,0,0-.34-1.13.77.77,0,1,0,.34,1.13Z"></path><path d="M289,220.91a74.54,74.54,0,0,1-1.32,9.53c-.6,3.15-1.32,6.28-2.08,9.39s-1.63,6.21-2.53,9.28l-1.4,4.61-1.5,4.56,2.53-9.27c.82-3.1,1.66-6.19,2.41-9.3s1.51-6.22,2.2-9.34c.34-1.57.65-3.14.94-4.71S288.8,222.51,289,220.91Z"></path></g><path d="M289.25,195.63c4.33-.19,8,4.76,9.28,9.13,2,6.72-1.14,22.3-5.53,22S283.94,195.86,289.25,195.63Z" style="fill:#37474f"></path><path d="M252.75,210.36c-1.48,5.47.79,10.83,5.07,12s8.94-2.33,10.42-7.8-.79-10.83-5.07-12S254.23,204.9,252.75,210.36Z" style="fill:#37474f"></path><path d="M253.34,210.48c-1.25,4.61.67,9.14,4.27,10.11s7.55-2,8.79-6.57-.66-9.13-4.27-10.11S254.59,205.88,253.34,210.48Z" style="fill:#FFA52E"></path><path d="M338.2,240.2c4.87,5.74,4.95,38.48.35,41.83s-22.5,1-25.27-3.42-.74-28.08.77-32.08S333,234.08,338.2,240.2Z" style="fill:#FFA52E"></path><g style="opacity:0.2"><path d="M334.92,252.13a.84.84,0,1,1-.39-1A.85.85,0,0,1,334.92,252.13Zm0,0a.64.64,0,0,0-.47-.85.63.63,0,0,0-.72.41.64.64,0,0,0,.27.78A.65.65,0,0,0,334.92,252.13Z"></path><path d="M335,259.33a.85.85,0,1,1-.4-1.05A.85.85,0,0,1,335,259.33Zm0,0a.64.64,0,1,0-1.19-.45.64.64,0,0,0,.27.78A.65.65,0,0,0,335,259.33Z"></path><path d="M335,266.32a.84.84,0,1,1-.39-1.05A.85.85,0,0,1,335,266.32Zm0,0a.63.63,0,1,0-.91.33A.64.64,0,0,0,335,266.32Z"></path><path d="M335.05,272.79a.85.85,0,1,1-.4-1.05A.85.85,0,0,1,335.05,272.79Zm0,0a.64.64,0,1,0-1.19-.45.64.64,0,0,0,.27.78A.65.65,0,0,0,335.05,272.79Z"></path><path d="M336.4,253a31.86,31.86,0,0,1,.75,5.84c.1,2,.08,3.92,0,5.88s-.24,3.92-.43,5.88l-.35,2.92-.45,2.9.48-5.85c.13-2,.28-3.91.33-5.86s.11-3.91.08-5.86c0-1-.05-2-.12-2.93A23.69,23.69,0,0,0,336.4,253Z"></path></g><path d="M316.09,243.07c4.49,1.18,21.92-6.63,22.67-11.78s-39.3-33.84-45.64-34.13c-3.39-.15-1.3,13,.72,19.71C294.81,220.05,306.83,240.62,316.09,243.07Z" style="fill:#FFA52E"></path><g style="opacity:0.2"><path d="M294.07,202.77a.85.85,0,1,1-1.46.86.85.85,0,1,1,1.46-.86Zm0,0a.64.64,0,1,0-1.1.65.64.64,0,0,0,1.1-.65Z"></path><path d="M300.66,207.47a.85.85,0,1,1-1.46.86.85.85,0,1,1,1.46-.86Zm0,0a.64.64,0,1,0-.32.92A.64.64,0,0,0,300.66,207.47Z"></path><path d="M307.13,211.77a.84.84,0,1,1-1.06-.35A.85.85,0,0,1,307.13,211.77Zm0,0a.65.65,0,0,0-1-.17.64.64,0,0,0-.13.81.63.63,0,0,0,.78.28A.64.64,0,0,0,307.13,211.77Z"></path><path d="M312.88,216a.84.84,0,1,1-1.07-.35A.86.86,0,0,1,312.88,216Zm0,0a.65.65,0,0,0-1-.17.64.64,0,0,0,.64,1.09A.64.64,0,0,0,312.88,216Z"></path><path d="M318.49,220.46a.84.84,0,1,1-1.45.85.84.84,0,1,1,1.45-.85Zm0,0a.63.63,0,1,0-1.09.64.62.62,0,0,0,.77.28A.64.64,0,0,0,318.49,220.46Z"></path><path d="M324,224.82a.84.84,0,1,1-1.07-.35A.85.85,0,0,1,324,224.82Zm0,0a.64.64,0,0,0-1-.17.64.64,0,0,0,.64,1.09A.64.64,0,0,0,324,224.82Z"></path><path d="M293.64,199.52c2.82,1.69,5.6,3.45,8.35,5.25s5.46,3.66,8.16,5.54,5.35,3.83,8,5.85,5.15,4.1,7.58,6.31c-2.54-2.1-5.15-4.09-7.78-6.06s-5.3-3.88-8-5.76-5.39-3.76-8.1-5.61S296.38,201.34,293.64,199.52Z"></path></g><path d="M342.46,236.6c1.64,9-.25,18.84-.86,19.33s-3.85-.57-4.7-1.68-1.58-11.71-3-11.95-13.56.47-20.19,5c-1,.66-1.41-4.49-.64-5.46s11.18-5.32,19-6.05c.84-.08-5.12-11.85-5.19-13.09-.1-1.78,2.29-3.26,3.11-2.72S340.77,227.27,342.46,236.6Z" style="fill:#37474f"></path><path d="M328.79,239.38c-1.22-5.86,1.21-11.31,5.42-12.19s8.61,3.16,9.83,9-1.21,11.31-5.42,12.19S330,245.23,328.79,239.38Z" style="fill:#455a64"></path><path d="M339.06,280.4c-.37-3.24-6.9-5.32-12.46-5.11s-12.76,2.06-13.41,4.89c-.45,2,2.4,5.6,12.95,5.91S339.24,282,339.06,280.4Z" style="fill:#37474f"></path><path d="M336,280c-2.81-2.81-18-.31-20.58,3.08-.86,1.12-1.92,23,1.19,24.78s26.81-4.84,26.92-9.26S337.43,281.42,336,280Z" style="fill:#FFA52E"></path><path d="M325.37,305.68c-.27-1.46-3-2.56-5.48-2.21-3.53.49-5,2-5.13,3.26-.07.9,1.83,3,5.95,2.46C324,308.74,325.58,306.84,325.37,305.68Z" style="fill:#37474f"></path><path d="M315.31,307.51c.2,2.9,1.8,11.08,2.82,11.77,2.91,2,6.39-.15,6.72-1.76.19-.95,1.12-10.16-.63-11.51C321.56,304,315.18,305.7,315.31,307.51Z" style="fill:#FFA52E"></path><path d="M325.09,317.66c-.54-1.25-2.74-1.49-4.6-1-2.44.6-3.23,2.3-2.7,3.37.34.69,2.17,1.71,4.5.69C324,320,325.53,318.66,325.09,317.66Z" style="fill:#37474f"></path><path d="M324.68,318.94c1.76,2.07,5.17,7,5.36,10.3.12,2.21-1.52,2.57-2.89,1.71s-9.1-8.6-9.18-10.9S323.24,317.26,324.68,318.94Z" style="fill:#FFA52E"></path><path d="M333.3,303.57c-.31-1.45-3.05-2.46-5.55-2-3.51.61-4.95,2.14-5,3.43,0,.9,1.93,2.95,6,2.26C332.08,306.67,333.55,304.72,333.3,303.57Z" style="fill:#37474f"></path><path d="M323.31,305.74c.3,2.89,2.18,11,3.21,11.67,3,1.89,6.39-.36,6.66-2,.16-1,.78-10.19-1-11.49C329.44,302,323.12,303.93,323.31,305.74Z" style="fill:#FFA52E"></path><path d="M333.43,315.55c-.58-1.23-2.79-1.39-4.64-.87-2.41.68-3.14,2.4-2.58,3.46.36.68,2.23,1.63,4.53.54C332.41,317.88,333.9,316.54,333.43,315.55Z" style="fill:#37474f"></path><path d="M333.06,316.85c1.83,2,5.41,6.79,5.7,10.11.2,2.2-1.43,2.61-2.83,1.81s-9.38-8.29-9.54-10.58S331.57,315.21,333.06,316.85Z" style="fill:#FFA52E"></path><path d="M339.7,299.77c-.59-1.3-3.36-1.7-5.63-.79-3.19,1.28-4.24,3-4,4.24.14.86,2.4,2.39,6.13.91C339.17,302.94,340.17,300.8,339.7,299.77Z" style="fill:#37474f"></path><path d="M330.72,303.82c.87,2.67,4.27,9.94,5.38,10.35,3.19,1.18,5.94-1.63,5.87-3.21,0-.94-1.31-9.76-3.27-10.62C335.74,299,330.18,302.15,330.72,303.82Z" style="fill:#FFA52E"></path><path d="M342.23,311c-.8-1.05-2.91-.76-4.54.1-2.14,1.13-2.48,2.9-1.74,3.78.47.57,2.42,1.09,4.37-.4C341.74,313.44,342.87,311.87,342.23,311Z" style="fill:#37474f"></path><path d="M342.15,312.33c2.12,1.52,6.45,5.31,7.4,8.38.63,2-.83,2.75-2.31,2.27s-10.5-5.92-11.11-8.05S340.41,311.09,342.15,312.33Z" style="fill:#FFA52E"></path><path d="M344.61,295.38c-.84-1-3.41-.68-5.2.7-2.52,1.93-3,3.73-2.53,4.77.34.73,2.73,1.53,5.68-.71C344.93,298.33,345.29,296.18,344.61,295.38Z" style="fill:#37474f"></path><path d="M337.64,301.21c1.43,2.16,6.27,7.78,7.35,7.87,3.13.26,4.88-2.93,4.42-4.32-.26-.82-3.59-8.35-5.54-8.63C340.91,295.71,336.75,299.86,337.64,301.21Z" style="fill:#FFA52E"></path><path d="M348.78,303.22c-1.11-.51-2.7.66-3.65,2.08-1.24,1.85-.74,3.44.25,3.83.64.25,2.45-.18,3.38-2.25C349.43,305.38,349.66,303.61,348.78,303.22Z" style="fill:#37474f"></path><path d="M349.28,304.3c2.39.31,7.57,1.49,9.69,3.56,1.4,1.38.54,2.6-.88,2.86s-11.13-.2-12.56-1.66S347.32,304.06,349.28,304.3Z" style="fill:#FFA52E"></path><path d="M263.08,198.46c4.09.69,11.46-6.5,13.87-11.68.16-.35-.6-3.93-1.32-8.32-.43-2.66-.84-5.64-1-8.38,0-.56-1.89.6-1.89.6l-3.49,1.09-11.56,3.62A44,44,0,0,1,260,185.82a7,7,0,0,1,0,1.13,1,1,0,0,0,0,.19C259.77,189.3,259.12,197.79,263.08,198.46Z" style="fill:#FFA52E"></path><path d="M260,187a1,1,0,0,0,0,.19,11.87,11.87,0,0,0,1.78,0c11.57-1,12.05-15.85,12.05-15.85l-4.57.5-11.56,3.62A44,44,0,0,1,260,185.82,7,7,0,0,1,260,187Z" style="fill:#263238"></path><path d="M260,187.14c-1.42,2-3.35,11.49,2.7,13,7.2,1.78,14.3-8,15.06-12,.54-2.85-1-3.54-1-3.54-2.49,6.13-7.35,14-13.49,12.89C259.34,196.77,260,187.14,260,187.14Z" style="fill:#37474f"></path><path d="M230.42,154.51c-1,.18-7,6.73-6.93,7.51s2.89,11,3.1,11.61,8.43,2.2,8.73,1.91S231.5,154.31,230.42,154.51Z" style="fill:#37474f"></path><path d="M225.66,131.56c-.6,1.72,7.32,42.27,7.89,43.76s8.75,5.65,10.6,5.17,41.24-4.53,43.2-5.17,14.37-7,15.26-8.44-2.87-45-3-46.23-16.37-6.75-17.57-6.92-48.3,6.83-49.76,7.89S226.35,129.61,225.66,131.56Z" style="fill:#FFA52E"></path><path d="M269.59,149.84c5.63-1.13,7.48,10.22,2.26,11.26S264.87,150.78,269.59,149.84Z" style="fill:#263238"></path><path d="M241.58,153.4c-5.73.49-4.33,11.9,1,11.45S246.37,153,241.58,153.4Z" style="fill:#263238"></path><path d="M252.58,163.69a11.12,11.12,0,0,1,7.63-.94,11.28,11.28,0,0,1-7.63.94Z" style="fill:#263238"></path><path d="M232.78,175.42c.43.47,4.88-.28,5.1-.48s-6.32-35.82-6.19-36.86,41.25-6,42.42-5.85,6.2,38.39,7.11,38.68,24.49-3.79,24.59-4.48-4.57-45.69-5.06-46.27-17.81-7.27-19-7.37-48.3,7.46-49.67,8.15-6.64,9.41-7,10.49S232.22,174.83,232.78,175.42Z" style="fill:#FFA52E"></path><path d="M232.78,175.42c.43.47,4.88-.28,5.1-.48s-6.32-35.82-6.19-36.86,41.25-6,42.42-5.85,6.2,38.39,7.11,38.68,24.49-3.79,24.59-4.48-4.57-45.69-5.06-46.27-17.81-7.27-19-7.37-48.3,7.46-49.67,8.15-6.64,9.41-7,10.49S232.22,174.83,232.78,175.42Z" style="opacity:0.2"></path><path d="M290.5,168c-1-.61-3.07-16.47-2.56-17,.35-.39,10-3,15-2.81a24.28,24.28,0,0,1,5.86,1.65c.68.31,2.35,12.83,1.84,13.6a49.1,49.1,0,0,1-12,4.41A37.65,37.65,0,0,1,290.5,168Z" style="fill:#37474f"></path><path d="M295.53,152.69c.11-.51,12.18-3.18,13.27-2.91s3.11,12.62,1.84,13.6-11.71,5.09-12.36,4.31S294.92,155.44,295.53,152.69Z" style="fill:#455a64"></path></g><g id="freepik--screen-2--inject-598"><g style="opacity:0.5;isolation:isolate"><path d="M420,368.64c0-1.61-1.73-3-5.36-4.18l-.22-121.08c3.63,1.15,5.36,2.57,5.36,4.17C419.85,266.89,419.94,349.31,420,368.64Z" style="fill:#a6a6a6"></path><path d="M199.53,396.4l-.22-121.09c0,1.61,1.74,3,5.37,4.18,17.82,5.64,94.75.22,147.14-9.07,41.72-7.4,68-16.58,68-22.87L420,368.64c0,6.28-26.24,15.47-68,22.87-52.39,9.29-129.32,14.7-147.14,9.06C201.27,399.42,199.54,398,199.53,396.4Z" style="fill:#c7c7c7"></path><path d="M393.36,277.78a619.08,619.08,0,0,1-83.7,16.2,613.65,613.65,0,0,1-83.7,4.73,582.69,582.69,0,0,0,83.7-4.35A620.53,620.53,0,0,0,393.36,277.78Z" style="fill:#455a64"></path><path d="M393.36,283.61a620.64,620.64,0,0,1-83.7,16.2,612,612,0,0,1-83.7,4.72,581.24,581.24,0,0,0,83.7-4.34A622.08,622.08,0,0,0,393.36,283.61Z" style="fill:#455a64"></path><path d="M393.36,289.43a617.54,617.54,0,0,1-83.7,16.2,610.47,610.47,0,0,1-83.7,4.73,581.25,581.25,0,0,0,83.7-4.35A620.53,620.53,0,0,0,393.36,289.43Z" style="fill:#455a64"></path><path d="M393.36,295.26a620.64,620.64,0,0,1-83.7,16.2,613.65,613.65,0,0,1-83.7,4.73,582.69,582.69,0,0,0,83.7-4.35A620.53,620.53,0,0,0,393.36,295.26Z" style="fill:#455a64"></path><path d="M393.36,301.09a620.64,620.64,0,0,1-83.7,16.2A612,612,0,0,1,226,322a579.82,579.82,0,0,0,83.7-4.35A620.49,620.49,0,0,0,393.36,301.09Z" style="fill:#455a64"></path><path d="M393.36,306.91a617.54,617.54,0,0,1-83.7,16.2,610.47,610.47,0,0,1-83.7,4.73,581.25,581.25,0,0,0,83.7-4.35A620.53,620.53,0,0,0,393.36,306.91Z" style="fill:#455a64"></path><path d="M393.36,312.74a620.64,620.64,0,0,1-83.7,16.2,612,612,0,0,1-83.7,4.72,581.24,581.24,0,0,0,83.7-4.34A620.53,620.53,0,0,0,393.36,312.74Z" style="fill:#455a64"></path><path d="M393.36,318.57a620.64,620.64,0,0,1-83.7,16.2,612,612,0,0,1-83.7,4.72,581.25,581.25,0,0,0,83.7-4.35A620.49,620.49,0,0,0,393.36,318.57Z" style="fill:#455a64"></path><path d="M393.36,324.39a617.54,617.54,0,0,1-83.7,16.2,610.47,610.47,0,0,1-83.7,4.73,581.25,581.25,0,0,0,83.7-4.35A620.53,620.53,0,0,0,393.36,324.39Z" style="fill:#455a64"></path><path d="M393.36,330.22a620.64,620.64,0,0,1-83.7,16.2,612,612,0,0,1-83.7,4.72,581.24,581.24,0,0,0,83.7-4.34A620.53,620.53,0,0,0,393.36,330.22Z" style="fill:#455a64"></path><path d="M393.36,336.05a620.64,620.64,0,0,1-83.7,16.2A612,612,0,0,1,226,357a581.25,581.25,0,0,0,83.7-4.35A620.49,620.49,0,0,0,393.36,336.05Z" style="fill:#455a64"></path><path d="M393.36,341.87a617.54,617.54,0,0,1-83.7,16.2A610.47,610.47,0,0,1,226,362.8a581.25,581.25,0,0,0,83.7-4.35A620.53,620.53,0,0,0,393.36,341.87Z" style="fill:#455a64"></path><path d="M393.36,347.7a620.64,620.64,0,0,1-83.7,16.2,612,612,0,0,1-83.7,4.72,581.24,581.24,0,0,0,83.7-4.34A620.53,620.53,0,0,0,393.36,347.7Z" style="fill:#455a64"></path><path d="M393.36,353.53a619,619,0,0,1-83.7,16.19,610.47,610.47,0,0,1-83.7,4.73,581.25,581.25,0,0,0,83.7-4.35A620.49,620.49,0,0,0,393.36,353.53Z" style="fill:#455a64"></path><path d="M393.36,359.35a617.54,617.54,0,0,1-83.7,16.2,610.47,610.47,0,0,1-83.7,4.73,582.69,582.69,0,0,0,83.7-4.35A620.53,620.53,0,0,0,393.36,359.35Z" style="fill:#455a64"></path><path d="M363,325.89q6.34-1.36,12.68-2.87V370.6q-6.35,1.5-12.68,2.87Z" style="fill:#37474f"></path><path d="M339.48,310.36q6.34-1.11,12.7-2.36v67.7c-4.23.84-8.47,1.62-12.7,2.37Z" style="fill:#fff"></path><path d="M315.88,328.52q6.36-.86,12.72-1.85v53.2q-6.36,1-12.72,1.86Z" style="fill:#a6a6a6"></path><path d="M292.27,313.56q6.36-.6,12.73-1.35V383.1q-6.36.73-12.73,1.35Z" style="fill:#37474f"></path><path d="M268.69,324.85c4.23-.23,8.47-.52,12.71-.84v61.38q-6.36.48-12.71.84Z" style="fill:#fff"></path><path d="M245.15,360.47c4.23-.06,8.45-.18,12.68-.33v26.6q-6.34.24-12.68.34Z" style="fill:#a6a6a6"></path><path d="M388.83,274.89q-.16,11.6-.34,23.2l-.24,23.17c-.16,15.45-.21,30.87-.24,46.29.28-.3.55-.61.82-.92q-20.26,5.26-40.65,9.11t-40.8,6.42q-20.4,2.58-40.79,3.77T226,387.07q20.25.54,40.63-.31t40.79-3.3q20.42-2.41,40.8-6.25T388.83,368l.83-.21c0-.24,0-.47,0-.71,0-15.4-.07-30.79-.24-46.16q-.11-11.52-.23-23T388.83,274.89Z" style="fill:#455a64"></path><path d="M363,379.33q6.34-1.36,12.68-2.87v-1Q369.38,377,363,378.35Z" style="fill:#455a64"></path><path d="M339.48,383.93q6.34-1.11,12.7-2.36v-1q-6.35,1.25-12.7,2.36Z" style="fill:#455a64"></path><path d="M315.88,387.59q6.36-.85,12.72-1.86v-1q-6.36,1-12.72,1.86Z" style="fill:#455a64"></path><path d="M292.27,390.31q6.36-.6,12.73-1.35v-1q-6.36.75-12.73,1.35Z" style="fill:#455a64"></path><path d="M268.69,392.1q6.35-.36,12.71-.85v-1q-6.36.5-12.71.85Z" style="fill:#455a64"></path><path d="M245.15,392.94q6.34-.1,12.68-.34v-1q-6.34.24-12.68.34Z" style="fill:#455a64"></path></g></g></svg>