<svg xmlns="http://www.w3.org/2000/svg" viewBox="0 0 500 500"><g id="freepik--background-complete--inject-1159"><path d="M447.87,209.37H336.28s11.06-27.53,28.09-27.53,22.36,19,22.36,19,11.49-10.32,20.93-10.32,17.64,13.64,17.64,13.64S438.64,196.82,447.87,209.37Z" style="fill:#ebebeb"></path><path d="M108.63,138.59h-53s11.84-15.38,21.17-15.38,12.09,10.25,12.09,10.25,6.59-4.78,12.69-3.93S108.63,138.59,108.63,138.59Z" style="fill:#ebebeb;opacity:0.5"></path><path d="M185.38,96.3H82.12S96.26,68,111.39,66.23s22.36,21,22.36,21,9.76-8.06,17.43-8.06,13.59,10.61,13.59,10.61S180.12,82.54,185.38,96.3Z" style="fill:#ebebeb"></path><path d="M219.29,192.24H149.53s12-20.5,25-20.8S194.35,187,194.35,187,214.57,172.41,219.29,192.24Z" style="fill:#ebebeb;opacity:0.5"></path><path d="M373.72,248.5H305.1s11.79-20.5,24.58-20.8,19.51,15.52,19.51,15.52S369.08,228.67,373.72,248.5Z" style="fill:#ebebeb;opacity:0.5"></path><g style="opacity:0.5"><rect x="314.29" y="322.16" width="34.68" height="131.54" transform="translate(663.26 775.87) rotate(180)" style="fill:#ebebeb"></rect><rect x="314.29" y="313.44" width="29.75" height="8.72" transform="translate(658.32 635.61) rotate(180)" style="fill:#c7c7c7"></rect><rect x="318.09" y="326.72" width="27.08" height="98.33" transform="translate(663.26 751.77) rotate(180)" style="fill:#dbdbdb"></rect><rect x="318.09" y="336.1" width="27.08" height="2.32" transform="translate(663.26 674.53) rotate(180)" style="fill:#fff"></rect><rect x="318.09" y="345.73" width="27.08" height="2.32" transform="translate(663.26 693.78) rotate(180)" style="fill:#fff"></rect><rect x="318.09" y="355.35" width="27.08" height="2.32" transform="translate(663.26 713.03) rotate(180)" style="fill:#fff"></rect><rect x="318.09" y="364.98" width="27.08" height="2.32" transform="translate(663.26 732.28) rotate(180)" style="fill:#fff"></rect><rect x="318.09" y="374.6" width="27.08" height="2.32" transform="translate(663.26 751.53) rotate(180)" style="fill:#fff"></rect><rect x="318.09" y="384.23" width="27.08" height="2.32" transform="translate(663.26 770.78) rotate(180)" style="fill:#fff"></rect><rect x="318.09" y="393.85" width="27.08" height="2.32" transform="translate(663.26 790.03) rotate(180)" style="fill:#fff"></rect><rect x="318.09" y="403.48" width="27.08" height="2.32" transform="translate(663.26 809.28) rotate(180)" style="fill:#fff"></rect><rect x="318.09" y="413.1" width="27.08" height="2.32" transform="translate(663.26 828.53) rotate(180)" style="fill:#fff"></rect><rect x="318.09" y="422.73" width="27.08" height="2.32" transform="translate(663.26 847.78) rotate(180)" style="fill:#fff"></rect><rect x="292.56" y="322.16" width="21.72" height="131.54" transform="translate(606.85 775.87) rotate(180)" style="fill:#dbdbdb"></rect><rect x="295.82" y="313.44" width="18.46" height="8.72" transform="translate(610.11 635.61) rotate(180)" style="fill:#a6a6a6"></rect><rect x="294.59" y="326.72" width="16.7" height="98.33" transform="translate(605.88 751.77) rotate(180)" style="fill:#c7c7c7"></rect><rect x="294.59" y="336.1" width="16.7" height="2.32" transform="translate(605.88 674.53) rotate(180)" style="fill:#fff"></rect><rect x="294.59" y="345.73" width="16.7" height="2.32" transform="translate(605.88 693.78) rotate(180)" style="fill:#fff"></rect><rect x="294.59" y="355.35" width="16.7" height="2.32" transform="translate(605.88 713.03) rotate(180)" style="fill:#fff"></rect><rect x="294.59" y="364.98" width="16.7" height="2.32" transform="translate(605.88 732.28) rotate(180)" style="fill:#fff"></rect><rect x="294.59" y="374.6" width="16.7" height="2.32" transform="translate(605.88 751.53) rotate(180)" style="fill:#fff"></rect><rect x="294.59" y="384.23" width="16.7" height="2.32" transform="translate(605.88 770.78) rotate(180)" style="fill:#fff"></rect><rect x="294.59" y="393.85" width="16.7" height="2.32" transform="translate(605.88 790.03) rotate(180)" style="fill:#fff"></rect><rect x="294.59" y="403.48" width="16.7" height="2.32" transform="translate(605.88 809.28) rotate(180)" style="fill:#fff"></rect><rect x="294.59" y="413.1" width="16.7" height="2.32" transform="translate(605.88 828.53) rotate(180)" style="fill:#fff"></rect><rect x="294.59" y="422.73" width="16.7" height="2.32" transform="translate(605.88 847.78) rotate(180)" style="fill:#fff"></rect><rect x="133.88" y="269.94" width="35.06" height="183.77" transform="translate(302.81 723.64) rotate(180)" style="fill:#dbdbdb"></rect><rect x="156.68" y="275.9" width="6.81" height="7.02" transform="translate(320.17 558.83) rotate(180)" style="fill:#ebebeb"></rect><rect x="147.96" y="275.9" width="6.81" height="7.02" transform="translate(302.73 558.83) rotate(180)" style="fill:#ebebeb"></rect><rect x="156.68" y="287.82" width="6.81" height="7.02" transform="translate(320.17 582.65) rotate(180)" style="fill:#ebebeb"></rect><rect x="147.96" y="287.82" width="6.81" height="7.02" transform="translate(302.73 582.65) rotate(180)" style="fill:#ebebeb"></rect><rect x="156.68" y="299.73" width="6.81" height="7.02" transform="translate(320.17 606.48) rotate(180)" style="fill:#ebebeb"></rect><rect x="147.96" y="299.73" width="6.81" height="7.02" transform="translate(302.73 606.48) rotate(180)" style="fill:#ebebeb"></rect><rect x="156.68" y="311.64" width="6.81" height="7.02" transform="translate(320.17 630.3) rotate(180)" style="fill:#ebebeb"></rect><rect x="147.96" y="311.64" width="6.81" height="7.02" transform="translate(302.73 630.3) rotate(180)" style="fill:#ebebeb"></rect><rect x="156.68" y="323.56" width="6.81" height="7.02" transform="translate(320.17 654.13) rotate(180)" style="fill:#ebebeb"></rect><rect x="147.96" y="323.56" width="6.81" height="7.02" transform="translate(302.73 654.13) rotate(180)" style="fill:#ebebeb"></rect><rect x="156.68" y="335.47" width="6.81" height="7.02" transform="translate(320.17 677.95) rotate(180)" style="fill:#ebebeb"></rect><rect x="147.96" y="335.47" width="6.81" height="7.02" transform="translate(302.73 677.95) rotate(180)" style="fill:#ebebeb"></rect><rect x="156.68" y="347.38" width="6.81" height="7.02" transform="translate(320.17 701.78) rotate(180)" style="fill:#ebebeb"></rect><rect x="147.96" y="347.38" width="6.81" height="7.02" transform="translate(302.73 701.78) rotate(180)" style="fill:#ebebeb"></rect><rect x="156.68" y="359.3" width="6.81" height="7.02" transform="translate(320.17 725.61) rotate(180)" style="fill:#ebebeb"></rect><rect x="147.96" y="359.3" width="6.81" height="7.02" transform="translate(302.73 725.61) rotate(180)" style="fill:#ebebeb"></rect><rect x="156.68" y="371.21" width="6.81" height="7.02" transform="translate(320.17 749.43) rotate(180)" style="fill:#ebebeb"></rect><rect x="147.96" y="371.21" width="6.81" height="7.02" transform="translate(302.73 749.43) rotate(180)" style="fill:#ebebeb"></rect><rect x="156.68" y="383.12" width="6.81" height="7.02" transform="translate(320.17 773.26) rotate(180)" style="fill:#ebebeb"></rect><rect x="147.96" y="383.12" width="6.81" height="7.02" transform="translate(302.73 773.26) rotate(180)" style="fill:#ebebeb"></rect><rect x="156.68" y="395.03" width="6.81" height="7.02" transform="translate(320.17 797.08) rotate(180)" style="fill:#ebebeb"></rect><rect x="147.96" y="395.03" width="6.81" height="7.02" transform="translate(302.73 797.08) rotate(180)" style="fill:#ebebeb"></rect><rect x="156.68" y="406.95" width="6.81" height="7.02" transform="translate(320.17 820.91) rotate(180)" style="fill:#ebebeb"></rect><rect x="147.96" y="406.95" width="6.81" height="7.02" transform="translate(302.73 820.91) rotate(180)" style="fill:#ebebeb"></rect><rect x="156.68" y="418.86" width="6.81" height="7.02" transform="translate(320.17 844.74) rotate(180)" style="fill:#ebebeb"></rect><rect x="147.96" y="418.86" width="6.81" height="7.02" transform="translate(302.73 844.74) rotate(180)" style="fill:#ebebeb"></rect><rect x="156.68" y="430.77" width="6.81" height="7.02" transform="translate(320.17 868.56) rotate(180)" style="fill:#ebebeb"></rect><rect x="139.32" y="430.77" width="6.81" height="7.02" style="fill:#ebebeb"></rect><rect x="139.32" y="418.86" width="6.81" height="7.02" style="fill:#ebebeb"></rect><rect x="139.32" y="406.95" width="6.81" height="7.02" style="fill:#ebebeb"></rect><rect x="139.32" y="395.03" width="6.81" height="7.02" style="fill:#ebebeb"></rect><rect x="139.32" y="383.12" width="6.81" height="7.02" style="fill:#ebebeb"></rect><rect x="139.32" y="371.21" width="6.81" height="7.02" style="fill:#ebebeb"></rect><rect x="139.32" y="359.3" width="6.81" height="7.02" style="fill:#ebebeb"></rect><rect x="139.32" y="347.38" width="6.81" height="7.02" style="fill:#ebebeb"></rect><rect x="139.32" y="335.47" width="6.81" height="7.02" style="fill:#ebebeb"></rect><rect x="139.32" y="323.56" width="6.81" height="7.02" style="fill:#ebebeb"></rect><rect x="139.32" y="311.64" width="6.81" height="7.02" style="fill:#ebebeb"></rect><rect x="139.32" y="299.73" width="6.81" height="7.02" style="fill:#ebebeb"></rect><rect x="139.32" y="287.82" width="6.81" height="7.02" style="fill:#ebebeb"></rect><rect x="139.32" y="275.9" width="6.81" height="7.02" style="fill:#ebebeb"></rect><rect x="147.96" y="430.77" width="6.81" height="7.02" transform="translate(302.73 868.56) rotate(180)" style="fill:#ebebeb"></rect><rect x="106.24" y="269.94" width="27.64" height="183.77" transform="translate(240.11 723.64) rotate(180)" style="fill:#a6a6a6"></rect><rect x="109.09" y="430.77" width="5.63" height="7.02" style="fill:#c7c7c7"></rect><rect x="116.28" y="430.77" width="5.63" height="7.02" style="fill:#c7c7c7"></rect><rect x="109.09" y="418.86" width="5.63" height="7.02" style="fill:#c7c7c7"></rect><rect x="116.28" y="418.86" width="5.63" height="7.02" style="fill:#c7c7c7"></rect><rect x="109.09" y="406.95" width="5.63" height="7.02" style="fill:#c7c7c7"></rect><rect x="116.28" y="406.95" width="5.63" height="7.02" style="fill:#c7c7c7"></rect><rect x="109.09" y="395.03" width="5.63" height="7.02" style="fill:#c7c7c7"></rect><rect x="116.28" y="395.03" width="5.63" height="7.02" style="fill:#c7c7c7"></rect><rect x="109.09" y="383.12" width="5.63" height="7.02" style="fill:#c7c7c7"></rect><rect x="116.28" y="383.12" width="5.63" height="7.02" style="fill:#c7c7c7"></rect><rect x="109.09" y="371.21" width="5.63" height="7.02" style="fill:#c7c7c7"></rect><rect x="116.28" y="371.21" width="5.63" height="7.02" style="fill:#c7c7c7"></rect><rect x="109.09" y="359.3" width="5.63" height="7.02" style="fill:#c7c7c7"></rect><rect x="116.28" y="359.3" width="5.63" height="7.02" style="fill:#c7c7c7"></rect><rect x="109.09" y="347.38" width="5.63" height="7.02" style="fill:#c7c7c7"></rect><rect x="116.28" y="347.38" width="5.63" height="7.02" style="fill:#c7c7c7"></rect><rect x="109.09" y="335.47" width="5.63" height="7.02" style="fill:#c7c7c7"></rect><rect x="116.28" y="335.47" width="5.63" height="7.02" style="fill:#c7c7c7"></rect><rect x="109.09" y="323.56" width="5.63" height="7.02" style="fill:#c7c7c7"></rect><rect x="116.28" y="323.56" width="5.63" height="7.02" style="fill:#c7c7c7"></rect><rect x="109.09" y="311.64" width="5.63" height="7.02" style="fill:#c7c7c7"></rect><rect x="116.28" y="311.64" width="5.63" height="7.02" style="fill:#c7c7c7"></rect><rect x="109.09" y="299.73" width="5.63" height="7.02" style="fill:#c7c7c7"></rect><rect x="116.28" y="299.73" width="5.63" height="7.02" style="fill:#c7c7c7"></rect><rect x="109.09" y="287.82" width="5.63" height="7.02" style="fill:#c7c7c7"></rect><rect x="116.28" y="287.82" width="5.63" height="7.02" style="fill:#c7c7c7"></rect><rect x="109.09" y="275.9" width="5.63" height="7.02" style="fill:#c7c7c7"></rect><rect x="123.42" y="275.9" width="5.63" height="7.02" transform="translate(252.47 558.83) rotate(180)" style="fill:#c7c7c7"></rect><rect x="123.42" y="287.82" width="5.63" height="7.02" transform="translate(252.47 582.65) rotate(180)" style="fill:#c7c7c7"></rect><rect x="123.42" y="299.73" width="5.63" height="7.02" transform="translate(252.47 606.48) rotate(180)" style="fill:#c7c7c7"></rect><rect x="123.42" y="311.64" width="5.63" height="7.02" transform="translate(252.47 630.3) rotate(180)" style="fill:#c7c7c7"></rect><rect x="123.42" y="323.56" width="5.63" height="7.02" transform="translate(252.47 654.13) rotate(180)" style="fill:#c7c7c7"></rect><rect x="123.42" y="335.47" width="5.63" height="7.02" transform="translate(252.47 677.95) rotate(180)" style="fill:#c7c7c7"></rect><rect x="123.42" y="347.38" width="5.63" height="7.02" transform="translate(252.47 701.78) rotate(180)" style="fill:#c7c7c7"></rect><rect x="123.42" y="359.3" width="5.63" height="7.02" transform="translate(252.47 725.61) rotate(180)" style="fill:#c7c7c7"></rect><rect x="123.42" y="371.21" width="5.63" height="7.02" transform="translate(252.47 749.43) rotate(180)" style="fill:#c7c7c7"></rect><rect x="123.42" y="383.12" width="5.63" height="7.02" transform="translate(252.47 773.26) rotate(180)" style="fill:#c7c7c7"></rect><rect x="123.42" y="395.03" width="5.63" height="7.02" transform="translate(252.47 797.08) rotate(180)" style="fill:#c7c7c7"></rect><rect x="123.42" y="406.95" width="5.63" height="7.02" transform="translate(252.47 820.91) rotate(180)" style="fill:#c7c7c7"></rect><rect x="123.42" y="418.86" width="5.63" height="7.02" transform="translate(252.47 844.74) rotate(180)" style="fill:#c7c7c7"></rect><rect x="123.42" y="430.77" width="5.63" height="7.02" transform="translate(252.47 868.56) rotate(180)" style="fill:#c7c7c7"></rect><rect x="116.28" y="275.9" width="5.63" height="7.02" style="fill:#c7c7c7"></rect><rect x="405.45" y="265.92" width="36.57" height="187.78" style="fill:#ebebeb"></rect><rect x="405.45" y="262.19" width="37.45" height="3.74" transform="translate(848.35 528.11) rotate(180)" style="fill:#c7c7c7"></rect><rect x="435.01" y="271.44" width="3.71" height="182.27" style="fill:#fff"></rect><rect x="428.45" y="271.44" width="3.71" height="182.27" style="fill:#fff"></rect><rect x="421.89" y="271.44" width="3.71" height="182.27" style="fill:#fff"></rect><rect x="415.32" y="271.44" width="3.71" height="182.27" style="fill:#fff"></rect><rect x="408.76" y="271.44" width="3.71" height="182.27" style="fill:#fff"></rect><rect x="435.01" y="276.16" width="3.71" height="7.38" transform="translate(873.73 559.7) rotate(180)" style="fill:#ebebeb"></rect><rect x="428.45" y="276.16" width="3.71" height="7.38" transform="translate(860.6 559.7) rotate(180)" style="fill:#ebebeb"></rect><rect x="421.89" y="276.16" width="3.71" height="7.38" transform="translate(847.48 559.7) rotate(180)" style="fill:#ebebeb"></rect><rect x="415.32" y="276.16" width="3.71" height="7.38" transform="translate(834.35 559.7) rotate(180)" style="fill:#ebebeb"></rect><rect x="408.76" y="276.16" width="3.71" height="7.38" transform="translate(821.22 559.7) rotate(180)" style="fill:#ebebeb"></rect><rect x="435.01" y="288.16" width="3.71" height="7.38" transform="translate(873.73 583.7) rotate(180)" style="fill:#ebebeb"></rect><rect x="428.45" y="288.16" width="3.71" height="7.38" transform="translate(860.6 583.7) rotate(180)" style="fill:#ebebeb"></rect><rect x="421.89" y="288.16" width="3.71" height="7.38" transform="translate(847.48 583.7) rotate(180)" style="fill:#ebebeb"></rect><rect x="415.32" y="288.16" width="3.71" height="7.38" transform="translate(834.35 583.7) rotate(180)" style="fill:#ebebeb"></rect><rect x="408.76" y="288.16" width="3.71" height="7.38" transform="translate(821.22 583.7) rotate(180)" style="fill:#ebebeb"></rect><rect x="435.01" y="300.15" width="3.71" height="7.38" transform="translate(873.73 607.69) rotate(180)" style="fill:#ebebeb"></rect><rect x="428.45" y="300.15" width="3.71" height="7.38" transform="translate(860.6 607.69) rotate(180)" style="fill:#ebebeb"></rect><rect x="421.89" y="300.15" width="3.71" height="7.38" transform="translate(847.48 607.69) rotate(180)" style="fill:#ebebeb"></rect><rect x="415.32" y="300.15" width="3.71" height="7.38" transform="translate(834.35 607.69) rotate(180)" style="fill:#ebebeb"></rect><rect x="408.76" y="300.15" width="3.71" height="7.38" transform="translate(821.22 607.69) rotate(180)" style="fill:#ebebeb"></rect><rect x="435.01" y="312.15" width="3.71" height="7.38" transform="translate(873.73 631.68) rotate(180)" style="fill:#ebebeb"></rect><rect x="428.45" y="312.15" width="3.71" height="7.38" transform="translate(860.6 631.68) rotate(180)" style="fill:#ebebeb"></rect><rect x="421.89" y="312.15" width="3.71" height="7.38" transform="translate(847.48 631.68) rotate(180)" style="fill:#ebebeb"></rect><rect x="415.32" y="312.15" width="3.71" height="7.38" transform="translate(834.35 631.68) rotate(180)" style="fill:#ebebeb"></rect><rect x="408.76" y="312.15" width="3.71" height="7.38" transform="translate(821.22 631.68) rotate(180)" style="fill:#ebebeb"></rect><rect x="435.01" y="324.15" width="3.71" height="7.38" transform="translate(873.73 655.67) rotate(180)" style="fill:#ebebeb"></rect><rect x="428.45" y="324.15" width="3.71" height="7.38" transform="translate(860.6 655.67) rotate(180)" style="fill:#ebebeb"></rect><rect x="421.89" y="324.15" width="3.71" height="7.38" transform="translate(847.48 655.67) rotate(180)" style="fill:#ebebeb"></rect><rect x="415.32" y="324.15" width="3.71" height="7.38" transform="translate(834.35 655.67) rotate(180)" style="fill:#ebebeb"></rect><rect x="408.76" y="324.15" width="3.71" height="7.38" transform="translate(821.22 655.67) rotate(180)" style="fill:#ebebeb"></rect><rect x="435.01" y="336.14" width="3.71" height="7.38" transform="translate(873.73 679.67) rotate(180)" style="fill:#ebebeb"></rect><rect x="428.45" y="336.14" width="3.71" height="7.38" transform="translate(860.6 679.67) rotate(180)" style="fill:#ebebeb"></rect><rect x="421.89" y="336.14" width="3.71" height="7.38" transform="translate(847.48 679.67) rotate(180)" style="fill:#ebebeb"></rect><rect x="415.32" y="336.14" width="3.71" height="7.38" transform="translate(834.35 679.67) rotate(180)" style="fill:#ebebeb"></rect><rect x="408.76" y="336.14" width="3.71" height="7.38" transform="translate(821.22 679.67) rotate(180)" style="fill:#ebebeb"></rect><rect x="435.01" y="348.14" width="3.71" height="7.38" transform="translate(873.73 703.66) rotate(180)" style="fill:#ebebeb"></rect><rect x="428.45" y="348.14" width="3.71" height="7.38" transform="translate(860.6 703.66) rotate(180)" style="fill:#ebebeb"></rect><rect x="421.89" y="348.14" width="3.71" height="7.38" transform="translate(847.48 703.66) rotate(180)" style="fill:#ebebeb"></rect><rect x="415.32" y="348.14" width="3.71" height="7.38" transform="translate(834.35 703.66) rotate(180)" style="fill:#ebebeb"></rect><rect x="408.76" y="348.14" width="3.71" height="7.38" transform="translate(821.22 703.66) rotate(180)" style="fill:#ebebeb"></rect><rect x="435.01" y="360.14" width="3.71" height="7.38" transform="translate(873.73 727.65) rotate(180)" style="fill:#ebebeb"></rect><rect x="428.45" y="360.14" width="3.71" height="7.38" transform="translate(860.6 727.65) rotate(180)" style="fill:#ebebeb"></rect><rect x="421.89" y="360.14" width="3.71" height="7.38" transform="translate(847.48 727.65) rotate(180)" style="fill:#ebebeb"></rect><rect x="415.32" y="360.14" width="3.71" height="7.38" transform="translate(834.35 727.65) rotate(180)" style="fill:#ebebeb"></rect><rect x="408.76" y="360.14" width="3.71" height="7.38" transform="translate(821.22 727.65) rotate(180)" style="fill:#ebebeb"></rect><rect x="435.01" y="372.13" width="3.71" height="7.38" transform="translate(873.73 751.64) rotate(180)" style="fill:#ebebeb"></rect><rect x="428.45" y="372.13" width="3.71" height="7.38" transform="translate(860.6 751.64) rotate(180)" style="fill:#ebebeb"></rect><rect x="421.89" y="372.13" width="3.71" height="7.38" transform="translate(847.48 751.64) rotate(180)" style="fill:#ebebeb"></rect><rect x="415.32" y="372.13" width="3.71" height="7.38" transform="translate(834.35 751.64) rotate(180)" style="fill:#ebebeb"></rect><rect x="408.76" y="372.13" width="3.71" height="7.38" transform="translate(821.22 751.64) rotate(180)" style="fill:#ebebeb"></rect><rect x="435.01" y="384.13" width="3.71" height="7.38" transform="translate(873.73 775.64) rotate(180)" style="fill:#ebebeb"></rect><rect x="428.45" y="384.13" width="3.71" height="7.38" transform="translate(860.6 775.64) rotate(180)" style="fill:#ebebeb"></rect><rect x="421.89" y="384.13" width="3.71" height="7.38" transform="translate(847.48 775.64) rotate(180)" style="fill:#ebebeb"></rect><rect x="415.32" y="384.13" width="3.71" height="7.38" transform="translate(834.35 775.64) rotate(180)" style="fill:#ebebeb"></rect><rect x="408.76" y="384.13" width="3.71" height="7.38" transform="translate(821.22 775.64) rotate(180)" style="fill:#ebebeb"></rect><rect x="435.01" y="396.12" width="3.71" height="7.38" transform="translate(873.73 799.63) rotate(180)" style="fill:#ebebeb"></rect><rect x="428.45" y="396.12" width="3.71" height="7.38" transform="translate(860.6 799.63) rotate(180)" style="fill:#ebebeb"></rect><rect x="421.89" y="396.12" width="3.71" height="7.38" transform="translate(847.48 799.63) rotate(180)" style="fill:#ebebeb"></rect><rect x="415.32" y="396.12" width="3.71" height="7.38" transform="translate(834.35 799.63) rotate(180)" style="fill:#ebebeb"></rect><rect x="408.76" y="396.12" width="3.71" height="7.38" transform="translate(821.22 799.63) rotate(180)" style="fill:#ebebeb"></rect><rect x="435.01" y="408.12" width="3.71" height="7.38" transform="translate(873.73 823.62) rotate(180)" style="fill:#ebebeb"></rect><rect x="428.45" y="408.12" width="3.71" height="7.38" transform="translate(860.6 823.62) rotate(180)" style="fill:#ebebeb"></rect><rect x="421.89" y="408.12" width="3.71" height="7.38" transform="translate(847.48 823.62) rotate(180)" style="fill:#ebebeb"></rect><rect x="415.32" y="408.12" width="3.71" height="7.38" transform="translate(834.35 823.62) rotate(180)" style="fill:#ebebeb"></rect><rect x="408.76" y="408.12" width="3.71" height="7.38" transform="translate(821.22 823.62) rotate(180)" style="fill:#ebebeb"></rect><rect x="435.01" y="420.12" width="3.71" height="7.38" transform="translate(873.73 847.61) rotate(180)" style="fill:#ebebeb"></rect><rect x="428.45" y="420.12" width="3.71" height="7.38" transform="translate(860.6 847.61) rotate(180)" style="fill:#ebebeb"></rect><rect x="421.89" y="420.12" width="3.71" height="7.38" transform="translate(847.48 847.61) rotate(180)" style="fill:#ebebeb"></rect><rect x="415.32" y="420.12" width="3.71" height="7.38" transform="translate(834.35 847.61) rotate(180)" style="fill:#ebebeb"></rect><rect x="408.76" y="420.12" width="3.71" height="7.38" transform="translate(821.22 847.61) rotate(180)" style="fill:#ebebeb"></rect><rect x="435.01" y="432.11" width="3.71" height="21.59" style="fill:#ebebeb"></rect><rect x="428.45" y="432.11" width="3.71" height="21.59" style="fill:#ebebeb"></rect><rect x="421.89" y="432.11" width="3.71" height="21.59" style="fill:#ebebeb"></rect><rect x="415.32" y="432.11" width="3.71" height="21.59" style="fill:#ebebeb"></rect><rect x="408.76" y="432.11" width="3.71" height="21.59" style="fill:#ebebeb"></rect><rect x="381.97" y="265.92" width="23.48" height="187.78" style="fill:#dbdbdb"></rect><rect x="380.96" y="262.19" width="24.5" height="3.74" transform="translate(786.41 528.11) rotate(180)" style="fill:#c7c7c7"></rect><rect x="398.44" y="271.44" width="3.71" height="182.27" style="fill:#c7c7c7"></rect><rect x="391.88" y="271.44" width="3.71" height="182.27" style="fill:#c7c7c7"></rect><rect x="385.31" y="271.44" width="3.71" height="182.27" style="fill:#c7c7c7"></rect><rect x="398.44" y="276.16" width="3.71" height="7.38" transform="translate(800.59 559.7) rotate(180)" style="fill:#dbdbdb"></rect><rect x="391.88" y="276.16" width="3.71" height="7.38" transform="translate(787.46 559.7) rotate(180)" style="fill:#dbdbdb"></rect><rect x="385.31" y="276.16" width="3.71" height="7.38" transform="translate(774.33 559.7) rotate(180)" style="fill:#dbdbdb"></rect><rect x="398.44" y="288.16" width="3.71" height="7.38" transform="translate(800.59 583.7) rotate(180)" style="fill:#dbdbdb"></rect><rect x="391.88" y="288.16" width="3.71" height="7.38" transform="translate(787.46 583.7) rotate(180)" style="fill:#dbdbdb"></rect><rect x="385.31" y="288.16" width="3.71" height="7.38" transform="translate(774.33 583.7) rotate(180)" style="fill:#dbdbdb"></rect><rect x="398.44" y="300.15" width="3.71" height="7.38" transform="translate(800.59 607.69) rotate(180)" style="fill:#dbdbdb"></rect><rect x="391.88" y="300.15" width="3.71" height="7.38" transform="translate(787.46 607.69) rotate(180)" style="fill:#dbdbdb"></rect><rect x="385.31" y="300.15" width="3.71" height="7.38" transform="translate(774.33 607.69) rotate(180)" style="fill:#dbdbdb"></rect><rect x="398.44" y="312.15" width="3.71" height="7.38" transform="translate(800.59 631.68) rotate(180)" style="fill:#dbdbdb"></rect><rect x="391.88" y="312.15" width="3.71" height="7.38" transform="translate(787.46 631.68) rotate(180)" style="fill:#dbdbdb"></rect><rect x="385.31" y="312.15" width="3.71" height="7.38" transform="translate(774.33 631.68) rotate(180)" style="fill:#dbdbdb"></rect><rect x="398.44" y="324.15" width="3.71" height="7.38" transform="translate(800.59 655.67) rotate(180)" style="fill:#dbdbdb"></rect><rect x="391.88" y="324.15" width="3.71" height="7.38" transform="translate(787.46 655.67) rotate(180)" style="fill:#dbdbdb"></rect><rect x="385.31" y="324.15" width="3.71" height="7.38" transform="translate(774.33 655.67) rotate(180)" style="fill:#dbdbdb"></rect><rect x="398.44" y="336.14" width="3.71" height="7.38" transform="translate(800.59 679.67) rotate(180)" style="fill:#dbdbdb"></rect><rect x="391.88" y="336.14" width="3.71" height="7.38" transform="translate(787.46 679.67) rotate(180)" style="fill:#dbdbdb"></rect><rect x="385.31" y="336.14" width="3.71" height="7.38" transform="translate(774.33 679.67) rotate(180)" style="fill:#dbdbdb"></rect><rect x="398.44" y="348.14" width="3.71" height="7.38" transform="translate(800.59 703.66) rotate(180)" style="fill:#dbdbdb"></rect><rect x="391.88" y="348.14" width="3.71" height="7.38" transform="translate(787.46 703.66) rotate(180)" style="fill:#dbdbdb"></rect><rect x="385.31" y="348.14" width="3.71" height="7.38" transform="translate(774.33 703.66) rotate(180)" style="fill:#dbdbdb"></rect><rect x="398.44" y="360.14" width="3.71" height="7.38" transform="translate(800.59 727.65) rotate(180)" style="fill:#dbdbdb"></rect><rect x="391.88" y="360.14" width="3.71" height="7.38" transform="translate(787.46 727.65) rotate(180)" style="fill:#dbdbdb"></rect><rect x="385.31" y="360.14" width="3.71" height="7.38" transform="translate(774.33 727.65) rotate(180)" style="fill:#dbdbdb"></rect><rect x="398.44" y="372.13" width="3.71" height="7.38" transform="translate(800.59 751.64) rotate(180)" style="fill:#dbdbdb"></rect><rect x="391.88" y="372.13" width="3.71" height="7.38" transform="translate(787.46 751.64) rotate(180)" style="fill:#dbdbdb"></rect><rect x="385.31" y="372.13" width="3.71" height="7.38" transform="translate(774.33 751.64) rotate(180)" style="fill:#dbdbdb"></rect><rect x="398.44" y="384.13" width="3.71" height="7.38" transform="translate(800.59 775.64) rotate(180)" style="fill:#dbdbdb"></rect><rect x="391.88" y="384.13" width="3.71" height="7.38" transform="translate(787.46 775.64) rotate(180)" style="fill:#dbdbdb"></rect><rect x="385.31" y="384.13" width="3.71" height="7.38" transform="translate(774.33 775.64) rotate(180)" style="fill:#dbdbdb"></rect><rect x="398.44" y="396.12" width="3.71" height="7.38" transform="translate(800.59 799.63) rotate(180)" style="fill:#dbdbdb"></rect><rect x="391.88" y="396.12" width="3.71" height="7.38" transform="translate(787.46 799.63) rotate(180)" style="fill:#dbdbdb"></rect><rect x="385.31" y="396.12" width="3.71" height="7.38" transform="translate(774.33 799.63) rotate(180)" style="fill:#dbdbdb"></rect><rect x="398.44" y="408.12" width="3.71" height="7.38" transform="translate(800.59 823.62) rotate(180)" style="fill:#dbdbdb"></rect><rect x="391.88" y="408.12" width="3.71" height="7.38" transform="translate(787.46 823.62) rotate(180)" style="fill:#dbdbdb"></rect><rect x="385.31" y="408.12" width="3.71" height="7.38" transform="translate(774.33 823.62) rotate(180)" style="fill:#dbdbdb"></rect><rect x="398.44" y="420.12" width="3.71" height="7.38" transform="translate(800.59 847.61) rotate(180)" style="fill:#dbdbdb"></rect><rect x="391.88" y="420.12" width="3.71" height="7.38" transform="translate(787.46 847.61) rotate(180)" style="fill:#dbdbdb"></rect><rect x="385.31" y="420.12" width="3.71" height="7.38" transform="translate(774.33 847.61) rotate(180)" style="fill:#dbdbdb"></rect><rect x="398.44" y="432.11" width="3.71" height="21.59" style="fill:#dbdbdb"></rect><rect x="391.88" y="432.11" width="3.71" height="21.59" style="fill:#dbdbdb"></rect><rect x="385.31" y="432.11" width="3.71" height="21.59" style="fill:#dbdbdb"></rect><rect x="245.74" y="342.78" width="43.95" height="111" style="fill:#ebebeb"></rect><rect x="245.74" y="339.04" width="45.01" height="3.74" transform="translate(536.49 681.82) rotate(180)" style="fill:#c7c7c7"></rect><rect x="281.27" y="348.29" width="4.45" height="105.48" style="fill:#fff"></rect><rect x="273.38" y="348.29" width="4.46" height="105.48" style="fill:#fff"></rect><rect x="265.49" y="348.29" width="4.45" height="105.48" style="fill:#fff"></rect><rect x="257.6" y="348.29" width="4.46" height="105.48" style="fill:#fff"></rect><rect x="249.72" y="348.29" width="4.45" height="105.48" style="fill:#fff"></rect><rect x="281.27" y="353.01" width="4.45" height="7.38" transform="translate(566.99 713.41) rotate(180)" style="fill:#ebebeb"></rect><rect x="273.38" y="353.01" width="4.45" height="7.38" transform="translate(551.21 713.41) rotate(180)" style="fill:#ebebeb"></rect><rect x="265.49" y="353.01" width="4.45" height="7.38" transform="translate(535.44 713.41) rotate(180)" style="fill:#ebebeb"></rect><rect x="257.6" y="353.01" width="4.45" height="7.38" transform="translate(519.66 713.41) rotate(180)" style="fill:#ebebeb"></rect><rect x="249.72" y="353.01" width="4.45" height="7.38" transform="translate(503.89 713.41) rotate(180)" style="fill:#ebebeb"></rect><rect x="281.27" y="365.01" width="4.45" height="7.38" transform="translate(566.99 737.4) rotate(180)" style="fill:#ebebeb"></rect><rect x="273.38" y="365.01" width="4.45" height="7.38" transform="translate(551.21 737.4) rotate(180)" style="fill:#ebebeb"></rect><rect x="265.49" y="365.01" width="4.45" height="7.38" transform="translate(535.44 737.4) rotate(180)" style="fill:#ebebeb"></rect><rect x="257.6" y="365.01" width="4.45" height="7.38" transform="translate(519.66 737.4) rotate(180)" style="fill:#ebebeb"></rect><rect x="249.72" y="365.01" width="4.45" height="7.38" transform="translate(503.89 737.4) rotate(180)" style="fill:#ebebeb"></rect><rect x="281.27" y="377.01" width="4.45" height="7.38" transform="translate(566.99 761.39) rotate(180)" style="fill:#ebebeb"></rect><rect x="273.38" y="377.01" width="4.45" height="7.38" transform="translate(551.21 761.39) rotate(180)" style="fill:#ebebeb"></rect><rect x="265.49" y="377.01" width="4.45" height="7.38" transform="translate(535.44 761.39) rotate(180)" style="fill:#ebebeb"></rect><rect x="257.6" y="377.01" width="4.45" height="7.38" transform="translate(519.66 761.39) rotate(180)" style="fill:#ebebeb"></rect><rect x="249.72" y="377.01" width="4.45" height="7.38" transform="translate(503.89 761.39) rotate(180)" style="fill:#ebebeb"></rect><rect x="281.27" y="389" width="4.45" height="7.38" transform="translate(566.99 785.39) rotate(180)" style="fill:#ebebeb"></rect><rect x="273.38" y="389" width="4.45" height="7.38" transform="translate(551.21 785.39) rotate(180)" style="fill:#ebebeb"></rect><rect x="265.49" y="389" width="4.45" height="7.38" transform="translate(535.44 785.39) rotate(180)" style="fill:#ebebeb"></rect><rect x="257.6" y="389" width="4.45" height="7.38" transform="translate(519.66 785.39) rotate(180)" style="fill:#ebebeb"></rect><rect x="249.72" y="389" width="4.45" height="7.38" transform="translate(503.89 785.39) rotate(180)" style="fill:#ebebeb"></rect><rect x="281.27" y="401" width="4.45" height="7.38" transform="translate(566.99 809.38) rotate(180)" style="fill:#ebebeb"></rect><rect x="273.38" y="401" width="4.45" height="7.38" transform="translate(551.21 809.38) rotate(180)" style="fill:#ebebeb"></rect><rect x="265.49" y="401" width="4.45" height="7.38" transform="translate(535.44 809.38) rotate(180)" style="fill:#ebebeb"></rect><rect x="257.6" y="401" width="4.45" height="7.38" transform="translate(519.66 809.38) rotate(180)" style="fill:#ebebeb"></rect><rect x="249.72" y="401" width="4.45" height="7.38" transform="translate(503.89 809.38) rotate(180)" style="fill:#ebebeb"></rect><rect x="281.27" y="412.99" width="4.45" height="7.38" transform="translate(566.99 833.37) rotate(180)" style="fill:#ebebeb"></rect><rect x="273.38" y="412.99" width="4.45" height="7.38" transform="translate(551.21 833.37) rotate(180)" style="fill:#ebebeb"></rect><rect x="265.49" y="412.99" width="4.45" height="7.38" transform="translate(535.44 833.37) rotate(180)" style="fill:#ebebeb"></rect><rect x="257.6" y="412.99" width="4.45" height="7.38" transform="translate(519.66 833.37) rotate(180)" style="fill:#ebebeb"></rect><rect x="249.72" y="412.99" width="4.45" height="7.38" transform="translate(503.89 833.37) rotate(180)" style="fill:#ebebeb"></rect><rect x="281.27" y="424.99" width="4.45" height="7.38" transform="translate(566.99 857.36) rotate(180)" style="fill:#ebebeb"></rect><rect x="273.38" y="424.99" width="4.45" height="7.38" transform="translate(551.21 857.36) rotate(180)" style="fill:#ebebeb"></rect><rect x="265.49" y="424.99" width="4.45" height="7.38" transform="translate(535.44 857.36) rotate(180)" style="fill:#ebebeb"></rect><rect x="257.6" y="424.99" width="4.45" height="7.38" transform="translate(519.66 857.36) rotate(180)" style="fill:#ebebeb"></rect><rect x="249.72" y="424.99" width="4.45" height="7.38" transform="translate(503.89 857.36) rotate(180)" style="fill:#ebebeb"></rect><rect x="281.27" y="436.99" width="4.45" height="7.38" transform="translate(566.99 881.36) rotate(180)" style="fill:#ebebeb"></rect><rect x="273.38" y="436.99" width="4.45" height="7.38" transform="translate(551.21 881.36) rotate(180)" style="fill:#ebebeb"></rect><rect x="265.49" y="436.99" width="4.45" height="7.38" transform="translate(535.44 881.36) rotate(180)" style="fill:#ebebeb"></rect><rect x="257.6" y="436.99" width="4.45" height="7.38" transform="translate(519.66 881.36) rotate(180)" style="fill:#ebebeb"></rect><rect x="249.72" y="436.99" width="4.45" height="7.38" transform="translate(503.89 881.36) rotate(180)" style="fill:#ebebeb"></rect><rect x="281.27" y="448.98" width="4.45" height="4.79" style="fill:#ebebeb"></rect><rect x="273.38" y="448.98" width="4.46" height="4.79" style="fill:#ebebeb"></rect><rect x="265.49" y="448.98" width="4.45" height="4.79" style="fill:#ebebeb"></rect><rect x="257.6" y="448.98" width="4.46" height="4.79" style="fill:#ebebeb"></rect><rect x="249.72" y="448.98" width="4.45" height="4.79" style="fill:#ebebeb"></rect><rect x="217.52" y="342.78" width="28.22" height="111" style="fill:#dbdbdb"></rect><rect x="216.3" y="339.04" width="29.44" height="3.74" transform="translate(462.05 681.82) rotate(180)" style="fill:#c7c7c7"></rect><rect x="237.31" y="348.29" width="4.46" height="105.48" style="fill:#c7c7c7"></rect><rect x="229.43" y="348.29" width="4.45" height="105.48" style="fill:#c7c7c7"></rect><rect x="221.54" y="348.29" width="4.46" height="105.48" style="fill:#c7c7c7"></rect><rect x="237.32" y="353.01" width="4.45" height="7.38" transform="translate(479.08 713.41) rotate(180)" style="fill:#dbdbdb"></rect><rect x="229.43" y="353.01" width="4.45" height="7.38" transform="translate(463.31 713.41) rotate(180)" style="fill:#dbdbdb"></rect><rect x="221.54" y="353.01" width="4.45" height="7.38" transform="translate(447.53 713.41) rotate(180)" style="fill:#dbdbdb"></rect><rect x="237.32" y="365.01" width="4.45" height="7.38" transform="translate(479.08 737.4) rotate(180)" style="fill:#dbdbdb"></rect><rect x="229.43" y="365.01" width="4.45" height="7.38" transform="translate(463.31 737.4) rotate(180)" style="fill:#dbdbdb"></rect><rect x="221.54" y="365.01" width="4.45" height="7.38" transform="translate(447.53 737.4) rotate(180)" style="fill:#dbdbdb"></rect><rect x="237.32" y="377.01" width="4.45" height="7.38" transform="translate(479.08 761.39) rotate(180)" style="fill:#dbdbdb"></rect><rect x="229.43" y="377.01" width="4.45" height="7.38" transform="translate(463.31 761.39) rotate(180)" style="fill:#dbdbdb"></rect><rect x="221.54" y="377.01" width="4.45" height="7.38" transform="translate(447.53 761.39) rotate(180)" style="fill:#dbdbdb"></rect><rect x="237.32" y="389" width="4.45" height="7.38" transform="translate(479.08 785.39) rotate(180)" style="fill:#dbdbdb"></rect><rect x="229.43" y="389" width="4.45" height="7.38" transform="translate(463.31 785.39) rotate(180)" style="fill:#dbdbdb"></rect><rect x="221.54" y="389" width="4.45" height="7.38" transform="translate(447.53 785.39) rotate(180)" style="fill:#dbdbdb"></rect><rect x="237.32" y="401" width="4.45" height="7.38" transform="translate(479.08 809.38) rotate(180)" style="fill:#dbdbdb"></rect><rect x="229.43" y="401" width="4.45" height="7.38" transform="translate(463.31 809.38) rotate(180)" style="fill:#dbdbdb"></rect><rect x="221.54" y="401" width="4.45" height="7.38" transform="translate(447.53 809.38) rotate(180)" style="fill:#dbdbdb"></rect><rect x="237.32" y="412.99" width="4.45" height="7.38" transform="translate(479.08 833.37) rotate(180)" style="fill:#dbdbdb"></rect><rect x="229.43" y="412.99" width="4.45" height="7.38" transform="translate(463.31 833.37) rotate(180)" style="fill:#dbdbdb"></rect><rect x="221.54" y="412.99" width="4.45" height="7.38" transform="translate(447.53 833.37) rotate(180)" style="fill:#dbdbdb"></rect><rect x="237.32" y="424.99" width="4.45" height="7.38" transform="translate(479.08 857.36) rotate(180)" style="fill:#dbdbdb"></rect><rect x="229.43" y="424.99" width="4.45" height="7.38" transform="translate(463.31 857.36) rotate(180)" style="fill:#dbdbdb"></rect><rect x="221.54" y="424.99" width="4.45" height="7.38" transform="translate(447.53 857.36) rotate(180)" style="fill:#dbdbdb"></rect><rect x="237.32" y="436.99" width="4.45" height="7.38" transform="translate(479.08 881.36) rotate(180)" style="fill:#dbdbdb"></rect><rect x="229.43" y="436.99" width="4.45" height="7.38" transform="translate(463.31 881.36) rotate(180)" style="fill:#dbdbdb"></rect><rect x="221.54" y="436.99" width="4.45" height="7.38" transform="translate(447.53 881.36) rotate(180)" style="fill:#dbdbdb"></rect><rect x="237.31" y="448.98" width="4.46" height="4.79" style="fill:#dbdbdb"></rect><rect x="229.43" y="448.98" width="4.45" height="4.79" style="fill:#dbdbdb"></rect><rect x="221.54" y="448.98" width="4.46" height="4.79" style="fill:#dbdbdb"></rect><rect x="85.69" y="324.38" width="18.52" height="21.88" transform="translate(189.91 670.65) rotate(180)" style="fill:#dbdbdb"></rect><rect x="73.95" y="324.38" width="11.75" height="22.68" transform="translate(159.64 671.45) rotate(180)" style="fill:#c7c7c7"></rect><rect x="73.17" y="334.05" width="11.66" height="13.02" transform="translate(157.99 681.11) rotate(180)" style="fill:#dbdbdb"></rect><rect x="65.9" y="334.05" width="7.27" height="13.02" transform="translate(139.06 681.11) rotate(180)" style="fill:#c7c7c7"></rect><rect x="81.37" y="344.84" width="29.95" height="108.86" transform="translate(192.69 798.54) rotate(180)" style="fill:#ebebeb"></rect><rect x="98.48" y="349.52" width="9.42" height="3.85" transform="translate(206.38 702.89) rotate(180)" style="fill:#fff"></rect><rect x="86.43" y="349.52" width="9.42" height="3.85" transform="translate(182.28 702.89) rotate(180)" style="fill:#fff"></rect><rect x="98.48" y="356.06" width="9.42" height="3.85" transform="translate(206.38 715.96) rotate(180)" style="fill:#fff"></rect><rect x="86.43" y="356.06" width="9.42" height="3.85" transform="translate(182.28 715.96) rotate(180)" style="fill:#fff"></rect><rect x="98.48" y="362.59" width="9.42" height="3.85" transform="translate(206.38 729.03) rotate(180)" style="fill:#fff"></rect><rect x="86.43" y="362.59" width="9.42" height="3.85" transform="translate(182.28 729.03) rotate(180)" style="fill:#fff"></rect><rect x="98.48" y="369.12" width="9.42" height="3.85" transform="translate(206.38 742.1) rotate(180)" style="fill:#fff"></rect><rect x="86.43" y="369.12" width="9.42" height="3.85" transform="translate(182.28 742.1) rotate(180)" style="fill:#fff"></rect><rect x="98.48" y="375.66" width="9.42" height="3.85" transform="translate(206.38 755.16) rotate(180)" style="fill:#fff"></rect><rect x="86.43" y="375.66" width="9.42" height="3.85" transform="translate(182.28 755.16) rotate(180)" style="fill:#fff"></rect><rect x="98.48" y="382.19" width="9.42" height="3.85" transform="translate(206.38 768.23) rotate(180)" style="fill:#fff"></rect><rect x="86.43" y="382.19" width="9.42" height="3.85" transform="translate(182.28 768.23) rotate(180)" style="fill:#fff"></rect><rect x="98.48" y="388.73" width="9.42" height="3.85" transform="translate(206.38 781.3) rotate(180)" style="fill:#fff"></rect><rect x="86.43" y="388.73" width="9.42" height="3.85" transform="translate(182.28 781.3) rotate(180)" style="fill:#fff"></rect><rect x="98.48" y="395.26" width="9.42" height="3.85" transform="translate(206.38 794.37) rotate(180)" style="fill:#fff"></rect><rect x="86.43" y="395.26" width="9.42" height="3.85" transform="translate(182.28 794.37) rotate(180)" style="fill:#fff"></rect><rect x="98.48" y="401.79" width="9.42" height="3.85" transform="translate(206.38 807.44) rotate(180)" style="fill:#fff"></rect><rect x="86.43" y="401.79" width="9.42" height="3.85" transform="translate(182.28 807.44) rotate(180)" style="fill:#fff"></rect><rect x="98.48" y="408.33" width="9.42" height="3.85" transform="translate(206.38 820.51) rotate(180)" style="fill:#fff"></rect><rect x="86.43" y="408.33" width="9.42" height="3.85" transform="translate(182.28 820.51) rotate(180)" style="fill:#fff"></rect><rect x="98.48" y="414.86" width="9.42" height="3.85" transform="translate(206.38 833.57) rotate(180)" style="fill:#fff"></rect><rect x="86.43" y="414.86" width="9.42" height="3.85" transform="translate(182.28 833.57) rotate(180)" style="fill:#fff"></rect><rect x="98.48" y="421.4" width="9.42" height="3.85" transform="translate(206.38 846.64) rotate(180)" style="fill:#fff"></rect><rect x="86.43" y="421.4" width="9.42" height="3.85" transform="translate(182.28 846.64) rotate(180)" style="fill:#fff"></rect><rect x="98.48" y="427.93" width="9.42" height="3.85" transform="translate(206.38 859.71) rotate(180)" style="fill:#fff"></rect><rect x="86.43" y="427.93" width="9.42" height="3.85" transform="translate(182.28 859.71) rotate(180)" style="fill:#fff"></rect><rect x="98.48" y="434.47" width="9.42" height="3.85" transform="translate(206.38 872.78) rotate(180)" style="fill:#fff"></rect><rect x="86.43" y="434.47" width="9.42" height="3.85" transform="translate(182.28 872.78) rotate(180)" style="fill:#fff"></rect><rect x="57.1" y="344.84" width="24.27" height="108.86" transform="translate(138.47 798.54) rotate(180)" style="fill:#c7c7c7"></rect><rect x="59.53" y="434.47" width="7.73" height="3.85" style="fill:#ebebeb"></rect><rect x="69.42" y="434.47" width="7.73" height="3.85" style="fill:#ebebeb"></rect><rect x="59.53" y="427.93" width="7.73" height="3.85" style="fill:#ebebeb"></rect><rect x="69.42" y="427.93" width="7.73" height="3.85" style="fill:#ebebeb"></rect><rect x="59.53" y="421.4" width="7.73" height="3.85" style="fill:#ebebeb"></rect><rect x="69.42" y="421.4" width="7.73" height="3.85" style="fill:#ebebeb"></rect><rect x="59.53" y="414.86" width="7.73" height="3.85" style="fill:#ebebeb"></rect><rect x="69.42" y="414.86" width="7.73" height="3.85" style="fill:#ebebeb"></rect><rect x="59.53" y="408.33" width="7.73" height="3.85" style="fill:#ebebeb"></rect><rect x="69.42" y="408.33" width="7.73" height="3.85" style="fill:#ebebeb"></rect><rect x="59.53" y="401.79" width="7.73" height="3.85" style="fill:#ebebeb"></rect><rect x="69.42" y="401.79" width="7.73" height="3.85" style="fill:#ebebeb"></rect><rect x="59.53" y="395.26" width="7.73" height="3.85" style="fill:#ebebeb"></rect><rect x="69.42" y="395.26" width="7.73" height="3.85" style="fill:#ebebeb"></rect><rect x="59.53" y="388.73" width="7.73" height="3.85" style="fill:#ebebeb"></rect><rect x="69.42" y="388.73" width="7.73" height="3.85" style="fill:#ebebeb"></rect><rect x="59.53" y="382.19" width="7.73" height="3.85" style="fill:#ebebeb"></rect><rect x="69.42" y="382.19" width="7.73" height="3.85" style="fill:#ebebeb"></rect><rect x="59.53" y="375.66" width="7.73" height="3.85" style="fill:#ebebeb"></rect><rect x="69.42" y="375.66" width="7.73" height="3.85" style="fill:#ebebeb"></rect><rect x="59.53" y="369.12" width="7.73" height="3.85" style="fill:#ebebeb"></rect><rect x="69.42" y="369.12" width="7.73" height="3.85" style="fill:#ebebeb"></rect><rect x="59.53" y="362.59" width="7.73" height="3.85" style="fill:#ebebeb"></rect><rect x="69.42" y="362.59" width="7.73" height="3.85" style="fill:#ebebeb"></rect><rect x="59.53" y="356.06" width="7.73" height="3.85" style="fill:#ebebeb"></rect><rect x="69.42" y="356.06" width="7.73" height="3.85" style="fill:#ebebeb"></rect><rect x="59.53" y="349.52" width="7.73" height="3.85" style="fill:#ebebeb"></rect><rect x="69.42" y="349.52" width="7.73" height="3.85" style="fill:#ebebeb"></rect><rect x="369.43" y="324.38" width="18.52" height="21.88" transform="translate(757.38 670.65) rotate(180)" style="fill:#dbdbdb"></rect><rect x="357.68" y="324.38" width="11.74" height="22.68" transform="translate(727.11 671.45) rotate(180)" style="fill:#c7c7c7"></rect><rect x="356.9" y="334.05" width="11.66" height="13.02" transform="translate(725.46 681.11) rotate(180)" style="fill:#dbdbdb"></rect><rect x="349.63" y="334.05" width="7.27" height="13.02" transform="translate(706.53 681.11) rotate(180)" style="fill:#c7c7c7"></rect><rect x="365.1" y="344.84" width="29.95" height="108.86" transform="translate(760.16 798.54) rotate(180)" style="fill:#ebebeb"></rect><rect x="382.21" y="349.52" width="9.42" height="3.85" transform="translate(773.85 702.89) rotate(180)" style="fill:#fff"></rect><rect x="370.17" y="349.52" width="9.42" height="3.85" transform="translate(749.75 702.89) rotate(180)" style="fill:#fff"></rect><rect x="382.21" y="356.06" width="9.42" height="3.85" transform="translate(773.85 715.96) rotate(180)" style="fill:#fff"></rect><rect x="370.17" y="356.06" width="9.42" height="3.85" transform="translate(749.75 715.96) rotate(180)" style="fill:#fff"></rect><rect x="382.21" y="362.59" width="9.42" height="3.85" transform="translate(773.85 729.03) rotate(180)" style="fill:#fff"></rect><rect x="370.17" y="362.59" width="9.42" height="3.85" transform="translate(749.75 729.03) rotate(180)" style="fill:#fff"></rect><rect x="382.21" y="369.12" width="9.42" height="3.85" transform="translate(773.85 742.1) rotate(180)" style="fill:#fff"></rect><rect x="370.17" y="369.12" width="9.42" height="3.85" transform="translate(749.75 742.1) rotate(180)" style="fill:#fff"></rect><rect x="382.21" y="375.66" width="9.42" height="3.85" transform="translate(773.85 755.16) rotate(180)" style="fill:#fff"></rect><rect x="370.17" y="375.66" width="9.42" height="3.85" transform="translate(749.75 755.16) rotate(180)" style="fill:#fff"></rect><rect x="382.21" y="382.19" width="9.42" height="3.85" transform="translate(773.85 768.23) rotate(180)" style="fill:#fff"></rect><rect x="370.17" y="382.19" width="9.42" height="3.85" transform="translate(749.75 768.23) rotate(180)" style="fill:#fff"></rect><rect x="382.21" y="388.73" width="9.42" height="3.85" transform="translate(773.85 781.3) rotate(180)" style="fill:#fff"></rect><rect x="370.17" y="388.73" width="9.42" height="3.85" transform="translate(749.75 781.3) rotate(180)" style="fill:#fff"></rect><rect x="382.21" y="395.26" width="9.42" height="3.85" transform="translate(773.85 794.37) rotate(180)" style="fill:#fff"></rect><rect x="370.17" y="395.26" width="9.42" height="3.85" transform="translate(749.75 794.37) rotate(180)" style="fill:#fff"></rect><rect x="382.21" y="401.79" width="9.42" height="3.85" transform="translate(773.85 807.44) rotate(180)" style="fill:#fff"></rect><rect x="370.17" y="401.79" width="9.42" height="3.85" transform="translate(749.75 807.44) rotate(180)" style="fill:#fff"></rect><rect x="382.21" y="408.33" width="9.42" height="3.85" transform="translate(773.85 820.51) rotate(180)" style="fill:#fff"></rect><rect x="370.17" y="408.33" width="9.42" height="3.85" transform="translate(749.75 820.51) rotate(180)" style="fill:#fff"></rect><rect x="382.21" y="414.86" width="9.42" height="3.85" transform="translate(773.85 833.57) rotate(180)" style="fill:#fff"></rect><rect x="370.17" y="414.86" width="9.42" height="3.85" transform="translate(749.75 833.57) rotate(180)" style="fill:#fff"></rect><rect x="382.21" y="421.4" width="9.42" height="3.85" transform="translate(773.85 846.64) rotate(180)" style="fill:#fff"></rect><rect x="370.17" y="421.4" width="9.42" height="3.85" transform="translate(749.75 846.64) rotate(180)" style="fill:#fff"></rect><rect x="382.21" y="427.93" width="9.42" height="3.85" transform="translate(773.85 859.71) rotate(180)" style="fill:#fff"></rect><rect x="370.17" y="427.93" width="9.42" height="3.85" transform="translate(749.75 859.71) rotate(180)" style="fill:#fff"></rect><rect x="382.21" y="434.47" width="9.42" height="3.85" transform="translate(773.85 872.78) rotate(180)" style="fill:#fff"></rect><rect x="370.17" y="434.47" width="9.42" height="3.85" transform="translate(749.75 872.78) rotate(180)" style="fill:#fff"></rect><rect x="340.83" y="344.84" width="24.27" height="108.86" transform="translate(705.94 798.54) rotate(180)" style="fill:#c7c7c7"></rect><rect x="343.27" y="434.47" width="7.73" height="3.85" style="fill:#ebebeb"></rect><rect x="353.16" y="434.47" width="7.73" height="3.85" style="fill:#ebebeb"></rect><rect x="343.27" y="427.93" width="7.73" height="3.85" style="fill:#ebebeb"></rect><rect x="353.16" y="427.93" width="7.73" height="3.85" style="fill:#ebebeb"></rect><rect x="343.27" y="421.4" width="7.73" height="3.85" style="fill:#ebebeb"></rect><rect x="353.16" y="421.4" width="7.73" height="3.85" style="fill:#ebebeb"></rect><rect x="343.27" y="414.86" width="7.73" height="3.85" style="fill:#ebebeb"></rect><rect x="353.16" y="414.86" width="7.73" height="3.85" style="fill:#ebebeb"></rect><rect x="343.27" y="408.33" width="7.73" height="3.85" style="fill:#ebebeb"></rect><rect x="353.16" y="408.33" width="7.73" height="3.85" style="fill:#ebebeb"></rect><rect x="343.27" y="401.79" width="7.73" height="3.85" style="fill:#ebebeb"></rect><rect x="353.16" y="401.79" width="7.73" height="3.85" style="fill:#ebebeb"></rect><rect x="343.27" y="395.26" width="7.73" height="3.85" style="fill:#ebebeb"></rect><rect x="353.16" y="395.26" width="7.73" height="3.85" style="fill:#ebebeb"></rect><rect x="343.27" y="388.73" width="7.73" height="3.85" style="fill:#ebebeb"></rect><rect x="353.16" y="388.73" width="7.73" height="3.85" style="fill:#ebebeb"></rect><rect x="343.27" y="382.19" width="7.73" height="3.85" style="fill:#ebebeb"></rect><rect x="353.16" y="382.19" width="7.73" height="3.85" style="fill:#ebebeb"></rect><rect x="343.27" y="375.66" width="7.73" height="3.85" style="fill:#ebebeb"></rect><rect x="353.16" y="375.66" width="7.73" height="3.85" style="fill:#ebebeb"></rect><rect x="343.27" y="369.12" width="7.73" height="3.85" style="fill:#ebebeb"></rect><rect x="353.16" y="369.12" width="7.73" height="3.85" style="fill:#ebebeb"></rect><rect x="343.27" y="362.59" width="7.73" height="3.85" style="fill:#ebebeb"></rect><rect x="353.16" y="362.59" width="7.73" height="3.85" style="fill:#ebebeb"></rect><rect x="343.27" y="356.06" width="7.73" height="3.85" style="fill:#ebebeb"></rect><rect x="353.16" y="356.06" width="7.73" height="3.85" style="fill:#ebebeb"></rect><rect x="343.27" y="349.52" width="7.73" height="3.85" style="fill:#ebebeb"></rect><rect x="353.16" y="349.52" width="7.73" height="3.85" style="fill:#ebebeb"></rect><rect x="189.56" y="382.77" width="35.33" height="70.93" transform="translate(414.45 836.47) rotate(180)" style="fill:#c7c7c7"></rect><rect x="213.08" y="388.91" width="6.25" height="4.35" transform="translate(432.42 782.16) rotate(180)" style="fill:#dbdbdb"></rect><rect x="213.08" y="398.19" width="6.25" height="4.35" transform="translate(432.42 800.73) rotate(180)" style="fill:#dbdbdb"></rect><rect x="213.08" y="407.47" width="6.25" height="4.35" transform="translate(432.42 819.29) rotate(180)" style="fill:#dbdbdb"></rect><rect x="213.08" y="416.75" width="6.25" height="4.35" transform="translate(432.42 837.86) rotate(180)" style="fill:#dbdbdb"></rect><rect x="213.08" y="426.04" width="6.25" height="4.35" transform="translate(432.42 856.42) rotate(180)" style="fill:#dbdbdb"></rect><rect x="213.08" y="435.32" width="6.25" height="4.35" transform="translate(432.42 874.99) rotate(180)" style="fill:#dbdbdb"></rect><rect x="213.08" y="444.6" width="6.25" height="4.35" transform="translate(432.42 893.55) rotate(180)" style="fill:#dbdbdb"></rect><rect x="204.09" y="388.91" width="6.25" height="4.35" transform="translate(414.43 782.16) rotate(180)" style="fill:#dbdbdb"></rect><rect x="204.09" y="398.19" width="6.25" height="4.35" transform="translate(414.43 800.73) rotate(180)" style="fill:#dbdbdb"></rect><rect x="204.09" y="407.47" width="6.25" height="4.35" transform="translate(414.43 819.29) rotate(180)" style="fill:#dbdbdb"></rect><rect x="204.09" y="416.75" width="6.25" height="4.35" transform="translate(414.43 837.86) rotate(180)" style="fill:#dbdbdb"></rect><rect x="204.09" y="426.04" width="6.25" height="4.35" transform="translate(414.43 856.42) rotate(180)" style="fill:#dbdbdb"></rect><rect x="204.09" y="435.32" width="6.25" height="4.35" transform="translate(414.43 874.99) rotate(180)" style="fill:#dbdbdb"></rect><rect x="204.09" y="444.6" width="6.25" height="4.35" transform="translate(414.43 893.55) rotate(180)" style="fill:#dbdbdb"></rect><rect x="195.12" y="388.91" width="6.25" height="4.35" transform="translate(396.49 782.16) rotate(180)" style="fill:#dbdbdb"></rect><rect x="195.12" y="398.19" width="6.25" height="4.35" transform="translate(396.49 800.73) rotate(180)" style="fill:#dbdbdb"></rect><rect x="195.12" y="407.47" width="6.25" height="4.35" transform="translate(396.49 819.29) rotate(180)" style="fill:#dbdbdb"></rect><rect x="195.12" y="416.75" width="6.25" height="4.35" transform="translate(396.49 837.86) rotate(180)" style="fill:#dbdbdb"></rect><rect x="195.12" y="426.04" width="6.25" height="4.35" transform="translate(396.49 856.42) rotate(180)" style="fill:#dbdbdb"></rect><rect x="195.12" y="435.32" width="6.25" height="4.35" transform="translate(396.49 874.99) rotate(180)" style="fill:#dbdbdb"></rect><rect x="195.12" y="444.6" width="6.25" height="4.35" transform="translate(396.49 893.55) rotate(180)" style="fill:#dbdbdb"></rect><rect x="189.56" y="375.38" width="23.52" height="7.39" transform="translate(402.65 758.14) rotate(180)" style="fill:#dbdbdb"></rect><rect x="189.56" y="370.8" width="14.91" height="4.58" transform="translate(394.04 746.18) rotate(180)" style="fill:#ebebeb"></rect><rect x="164.77" y="382.77" width="24.79" height="70.93" transform="translate(354.34 836.47) rotate(180)" style="fill:#a6a6a6"></rect><rect x="167.31" y="443.91" width="5.09" height="4.35" style="fill:#c7c7c7"></rect><rect x="167.31" y="434.63" width="5.09" height="4.35" style="fill:#c7c7c7"></rect><rect x="167.31" y="425.34" width="5.09" height="4.35" style="fill:#c7c7c7"></rect><rect x="167.31" y="416.06" width="5.09" height="4.35" style="fill:#c7c7c7"></rect><rect x="167.31" y="406.78" width="5.09" height="4.35" style="fill:#c7c7c7"></rect><rect x="167.31" y="397.5" width="5.09" height="4.35" style="fill:#c7c7c7"></rect><rect x="167.31" y="388.21" width="5.09" height="4.35" style="fill:#c7c7c7"></rect><rect x="174.63" y="443.91" width="5.09" height="4.35" style="fill:#c7c7c7"></rect><rect x="174.63" y="434.63" width="5.09" height="4.35" style="fill:#c7c7c7"></rect><rect x="174.63" y="425.34" width="5.09" height="4.35" style="fill:#c7c7c7"></rect><rect x="174.63" y="416.06" width="5.09" height="4.35" style="fill:#c7c7c7"></rect><rect x="174.63" y="406.78" width="5.09" height="4.35" style="fill:#c7c7c7"></rect><rect x="174.63" y="397.5" width="5.09" height="4.35" style="fill:#c7c7c7"></rect><rect x="174.63" y="388.21" width="5.09" height="4.35" style="fill:#c7c7c7"></rect><rect x="181.94" y="443.91" width="5.09" height="4.35" style="fill:#c7c7c7"></rect><rect x="181.94" y="434.63" width="5.09" height="4.35" style="fill:#c7c7c7"></rect><rect x="181.94" y="425.34" width="5.09" height="4.35" style="fill:#c7c7c7"></rect><rect x="181.94" y="416.06" width="5.09" height="4.35" style="fill:#c7c7c7"></rect><rect x="181.94" y="406.78" width="5.09" height="4.35" style="fill:#c7c7c7"></rect><rect x="181.94" y="397.5" width="5.09" height="4.35" style="fill:#c7c7c7"></rect><rect x="181.94" y="388.21" width="5.09" height="4.35" style="fill:#c7c7c7"></rect><rect x="168.53" y="375.38" width="21.03" height="7.39" transform="translate(358.09 758.14) rotate(180)" style="fill:#c7c7c7"></rect><rect x="178.16" y="370.8" width="11.4" height="4.58" transform="translate(367.73 746.18) rotate(180)" style="fill:#dbdbdb"></rect></g></g><g id="freepik--Lines--inject-1159"><path d="M131.34,153.55c1.61-1.89,3.29-3.71,5-5.52s3.43-3.58,5.17-5.34,3.52-3.48,5.34-5.17l2.73-2.53c.93-.82,1.84-1.66,2.8-2.45-.8,1-1.64,1.86-2.46,2.8l-2.53,2.72c-1.68,1.82-3.43,3.58-5.17,5.34s-3.52,3.48-5.34,5.17S133.24,152,131.34,153.55Z" style="fill:#263238"></path><path d="M144,161.69c1.61-1.9,3.29-3.72,5-5.52s3.43-3.58,5.17-5.34,3.52-3.49,5.34-5.17l2.73-2.53c.93-.82,1.84-1.66,2.8-2.46-.8,1-1.64,1.87-2.46,2.8L160,146.2c-1.68,1.82-3.43,3.58-5.17,5.34s-3.52,3.48-5.34,5.17S145.87,160.08,144,161.69Z" style="fill:#263238"></path><path d="M129.42,168.31c3-3.29,6.07-6.5,9.15-9.69s6.23-6.34,9.34-9.51,6.31-6.26,9.51-9.34l4.81-4.61c1.63-1.51,3.23-3,4.88-4.54-1.49,1.65-3,3.25-4.54,4.88L158,140.31c-3.08,3.2-6.23,6.34-9.34,9.51s-6.31,6.26-9.5,9.34S132.71,165.31,129.42,168.31Z" style="fill:#263238"></path></g><g id="freepik--Fence--inject-1159"><rect x="446.39" y="290.08" width="5.9" height="163.83" style="fill:#455a64"></rect><rect x="120.77" y="290.08" width="5.9" height="163.83" style="fill:#455a64"></rect><path d="M144.66,290.08c-2.87,2.63-5.86,5.11-8.84,7.61l-4.53,3.67c-1.53,1.2-3,2.41-4.62,3.56q2.16-2,4.38-3.86l4.45-3.75C138.52,294.86,141.53,292.39,144.66,290.08Z" style="fill:#455a64"></path><path d="M161.11,290.08q-4.22,3.66-8.48,7.25l-8.58,7.15-8.65,7.06q-4.34,3.51-8.73,6.95c2.82-2.43,5.64-4.86,8.49-7.25l8.58-7.14,8.64-7.06C155.27,294.7,158.19,292.38,161.11,290.08Z" style="fill:#455a64"></path><path d="M177.58,290.08c-4.17,3.58-8.39,7.12-12.6,10.65l-12.69,10.54-12.77,10.45q-6.41,5.2-12.85,10.35c4.19-3.56,8.38-7.12,12.6-10.64L152,310.89l12.76-10.46C169,297,173.29,293.52,177.58,290.08Z" style="fill:#455a64"></path><polygon points="194.04 290.08 185.7 297.12 177.31 304.1 160.51 318.06 143.62 331.88 135.17 338.79 126.67 345.64 135.01 338.61 143.41 331.63 160.2 317.67 177.1 303.85 185.54 296.93 194.04 290.08" style="fill:#455a64"></polygon><path d="M210.5,290.08l-10.4,8.74-10.45,8.68-20.9,17.35-21,17.22q-10.5,8.63-21.07,17.15l10.4-8.74,10.45-8.67,20.91-17.35,21-17.22L200,298.63Z" style="fill:#455a64"></path><polygon points="226.97 290.08 214.51 300.51 202 310.89 176.98 331.64 151.85 352.25 139.28 362.56 126.67 372.8 139.13 362.37 151.64 352 176.66 331.25 201.79 310.64 214.35 300.33 226.97 290.08" style="fill:#455a64"></polygon><polygon points="243.43 290.08 228.91 302.21 214.34 314.28 185.21 338.42 155.96 362.44 141.34 374.44 126.67 386.38 141.18 374.25 155.75 362.18 184.89 338.04 214.13 314.03 228.76 302.03 243.43 290.08" style="fill:#455a64"></polygon><path d="M259.89,290.08l-16.57,13.83-16.63,13.77-33.25,27.53-33.36,27.41-16.68,13.7L126.67,400l16.57-13.83,16.63-13.77,33.25-27.53,33.36-27.4Q243.13,303.69,259.89,290.08Z" style="fill:#455a64"></path><path d="M276.36,290.08q-18.63,15.54-37.32,31L201.68,352,164.2,382.8l-18.74,15.4-18.79,15.33L145.3,398,164,382.54l37.38-30.92,37.47-30.8,18.74-15.4Z" style="fill:#455a64"></path><path d="M292.82,290.08l-20.69,17.23-20.74,17.16L209.9,358.79,168.31,393l-20.8,17.09-20.84,17q20.67-17.24,41.43-34.38l41.48-34.33,41.6-34.19L272,307.12Z" style="fill:#455a64"></path><polygon points="309.29 290.08 286.54 309 263.74 327.86 218.13 365.58 172.43 403.17 149.57 421.96 126.67 440.69 149.42 421.77 172.22 402.91 217.82 365.19 263.53 327.61 309.29 290.08" style="fill:#455a64"></polygon><polygon points="125.35 455.35 175.34 413.9 225.39 372.52 275.54 331.27 325.74 290.08 275.75 331.53 225.71 372.91 175.56 414.16 125.35 455.35" style="fill:#455a64"></polygon><polygon points="141.81 455.35 191.81 413.9 241.85 372.52 292 331.27 342.2 290.08 292.21 331.53 242.17 372.91 192.02 414.16 141.81 455.35" style="fill:#455a64"></polygon><polygon points="158.28 455.35 208.27 413.9 258.31 372.52 308.46 331.27 358.67 290.08 308.68 331.53 258.63 372.91 208.48 414.16 158.28 455.35" style="fill:#455a64"></polygon><polygon points="174.74 455.35 224.73 413.9 274.78 372.52 324.93 331.27 375.13 290.08 325.14 331.53 275.09 372.91 224.94 414.16 174.74 455.35" style="fill:#455a64"></polygon><polygon points="191.2 455.35 241.19 413.9 291.24 372.52 341.39 331.27 391.59 290.08 341.6 331.53 291.56 372.91 241.41 414.16 191.2 455.35" style="fill:#455a64"></polygon><polygon points="207.66 455.35 257.66 413.9 307.7 372.52 357.85 331.27 408.06 290.08 358.06 331.53 308.02 372.91 257.87 414.16 207.66 455.35" style="fill:#455a64"></polygon><polygon points="224.13 455.35 274.12 413.9 324.16 372.52 374.31 331.27 424.52 290.08 374.53 331.53 324.48 372.91 274.33 414.16 224.13 455.35" style="fill:#455a64"></polygon><polygon points="240.59 455.35 290.58 413.9 340.63 372.52 390.78 331.27 440.98 290.08 390.99 331.53 340.94 372.91 290.79 414.16 240.59 455.35" style="fill:#455a64"></polygon><polygon points="447.79 298.04 400.21 337.5 352.58 376.89 304.84 416.15 280.97 435.79 257.05 455.35 304.63 415.9 352.26 376.5 400 337.24 447.79 298.04" style="fill:#455a64"></polygon><path d="M447.79,311.62l-21.7,18.06-21.76,18-43.51,36-43.63,35.86q-21.78,18-43.67,35.81l21.7-18.06,21.76-18,43.52-36,43.62-35.87,21.81-17.93Z" style="fill:#455a64"></path><path d="M447.79,325.2l-19.65,16.36-19.7,16.3L369,390.47l-39.51,32.47Q309.81,439.2,290,455.35L309.62,439l19.7-16.3,39.41-32.6,39.5-32.47Q428,341.35,447.79,325.2Z" style="fill:#455a64"></path><path d="M447.79,338.77,430.2,353.44l-17.64,14.61-35.28,29.21-35.4,29.07q-17.67,14.58-35.44,29L324,440.68l17.64-14.6L377,396.87l35.39-29.08Z" style="fill:#455a64"></path><path d="M447.79,352.35l-15.53,13-15.58,12.9L385.51,404l-31.27,25.69q-15.63,12.86-31.33,25.62l15.53-13L354,429.47l31.17-25.81L416.47,378l15.64-12.84Z" style="fill:#455a64"></path><polygon points="447.79 365.93 434.32 377.2 420.79 388.41 393.74 410.83 366.58 433.12 352.99 444.26 339.37 455.35 352.84 444.07 366.37 432.87 393.42 410.45 420.58 388.16 434.16 377.01 447.79 365.93" style="fill:#455a64"></polygon><polygon points="447.79 379.5 436.38 389.08 424.91 398.59 401.97 417.62 378.92 436.52 367.4 445.96 355.82 455.35 367.24 445.77 378.71 436.26 401.65 417.24 424.7 398.34 436.22 388.89 447.79 379.5" style="fill:#455a64"></polygon><path d="M447.79,393.08Q438.45,401,429,408.78L410.2,424.41l-18.93,15.5-9.46,7.75-9.52,7.69,9.36-7.88,9.41-7.82L409.88,424l18.93-15.5,9.46-7.75Z" style="fill:#455a64"></path><polygon points="447.79 406.66 440.49 412.84 433.14 418.96 418.43 431.2 403.62 443.3 396.21 449.36 388.75 455.35 396.05 449.17 403.4 443.05 418.11 430.81 432.93 418.7 440.33 412.65 447.79 406.66" style="fill:#455a64"></polygon><path d="M447.79,420.23q-5.24,4.5-10.52,8.93L426.66,438,416,446.72c-3.57,2.9-7.15,5.79-10.77,8.63,3.5-3,7-6,10.52-8.93l10.61-8.82L437,428.87C440.59,426,444.19,423.09,447.79,420.23Z" style="fill:#455a64"></path><path d="M447.79,433.81c-2.12,1.87-4.25,3.71-6.41,5.53l-6.49,5.43-6.56,5.34c-2.2,1.77-4.41,3.52-6.65,5.24,2.12-1.87,4.25-3.71,6.41-5.53l6.49-5.43,6.56-5.34C443.34,437.28,445.56,435.54,447.79,433.81Z" style="fill:#455a64"></path><path d="M447.79,447.39c-1.48,1.48-3.06,2.84-4.67,4.17s-3.25,2.61-5,3.79c1.48-1.48,3.06-2.84,4.67-4.17S446.06,448.57,447.79,447.39Z" style="fill:#455a64"></path><path d="M438.14,290.08c1.73,1.18,3.37,2.47,5,3.79s3.19,2.69,4.67,4.17c-1.73-1.17-3.37-2.47-5-3.79S439.62,291.56,438.14,290.08Z" style="fill:#455a64"></path><path d="M421.68,290.08q3.35,2.58,6.65,5.24l6.56,5.34,6.49,5.43q3.24,2.73,6.41,5.53c-2.23-1.73-4.45-3.47-6.65-5.24L434.58,301l-6.49-5.43C425.93,293.79,423.8,292,421.68,290.08Z" style="fill:#455a64"></path><path d="M405.21,290.08q5.42,4.29,10.77,8.63l10.68,8.74,10.61,8.82q5.3,4.43,10.52,8.93-5.42-4.29-10.77-8.63l-10.68-8.74L415.73,299Q410.45,294.59,405.21,290.08Z" style="fill:#455a64"></path><polygon points="388.75 290.08 396.21 296.07 403.62 302.13 418.43 314.23 433.14 326.47 440.49 332.59 447.79 338.77 440.33 332.78 432.93 326.73 418.11 314.62 403.4 302.38 396.06 296.26 388.75 290.08" style="fill:#455a64"></polygon><path d="M372.29,290.08l9.52,7.69,9.46,7.75L410.2,321,429,336.65q9.44,7.8,18.77,15.7l-9.52-7.69-9.46-7.75-18.93-15.5-18.82-15.63L381.65,298Z" style="fill:#455a64"></path><polygon points="355.82 290.08 367.4 299.47 378.92 308.91 401.97 327.81 424.91 346.84 436.37 356.35 447.79 365.93 436.22 356.54 424.69 347.09 401.65 328.2 378.71 309.17 367.24 299.65 355.82 290.08" style="fill:#455a64"></polygon><polygon points="339.37 290.08 352.99 301.17 366.58 312.31 393.74 334.6 420.79 357.02 434.31 368.23 447.79 379.5 434.16 368.42 420.58 357.27 393.42 334.98 366.37 312.56 352.84 301.35 339.37 290.08" style="fill:#455a64"></polygon><path d="M322.91,290.08q15.7,12.76,31.32,25.62l31.28,25.69,31.17,25.82,15.58,12.9,15.53,13q-15.71-12.76-31.33-25.62l-31.27-25.69L354,316l-15.58-12.91Z" style="fill:#455a64"></path><polygon points="306.44 290.08 324.18 304.56 341.88 319.1 377.27 348.18 412.56 377.39 430.2 391.99 447.79 406.66 430.05 392.18 412.35 377.64 376.96 348.56 341.67 319.35 324.03 304.75 306.44 290.08" style="fill:#455a64"></polygon><path d="M290,290.08l39.55,32.41L369,355l39.4,32.61,19.7,16.3,19.65,16.36Q428,404.09,408.23,387.82l-39.5-32.47-39.41-32.6-19.7-16.3Z" style="fill:#455a64"></path><path d="M273.52,290.08q21.87,17.87,43.67,35.81l43.63,35.86,43.51,36,21.76,18,21.7,18.06-21.86-17.87L404.12,398,360.5,362.14l-43.52-36-21.76-18Z" style="fill:#455a64"></path><polygon points="257.05 290.08 304.84 329.28 352.58 368.54 400.21 407.93 447.79 447.39 400 408.19 352.26 368.93 304.63 329.54 257.05 290.08" style="fill:#455a64"></polygon><polygon points="440.98 455.35 390.78 414.16 340.63 372.91 290.58 331.53 240.59 290.08 290.79 331.27 340.94 372.52 390.99 413.9 440.98 455.35" style="fill:#455a64"></polygon><polygon points="424.52 455.35 374.31 414.16 324.16 372.91 274.12 331.53 224.13 290.08 274.33 331.27 324.48 372.52 374.52 413.9 424.52 455.35" style="fill:#455a64"></polygon><polygon points="408.06 455.35 357.85 414.16 307.7 372.91 257.66 331.53 207.66 290.08 257.87 331.27 308.02 372.52 358.06 413.9 408.06 455.35" style="fill:#455a64"></polygon><polygon points="391.59 455.35 341.39 414.16 291.24 372.91 241.19 331.53 191.2 290.08 241.41 331.27 291.56 372.52 341.6 413.9 391.59 455.35" style="fill:#455a64"></polygon><polygon points="375.13 455.35 324.93 414.16 274.78 372.91 224.73 331.53 174.74 290.08 224.94 331.27 275.09 372.52 325.14 413.9 375.13 455.35" style="fill:#455a64"></polygon><polygon points="358.67 455.35 308.46 414.16 258.31 372.91 208.27 331.53 158.28 290.08 208.48 331.27 258.63 372.52 308.68 413.9 358.67 455.35" style="fill:#455a64"></polygon><polygon points="342.2 455.35 292 414.16 241.85 372.91 191.81 331.53 141.81 290.08 192.02 331.27 242.17 372.52 292.21 413.9 342.2 455.35" style="fill:#455a64"></polygon><polygon points="126.67 291.17 176.54 332.08 226.36 373.07 276.08 414.18 325.74 455.35 275.87 414.43 226.05 373.45 176.33 332.34 126.67 291.17" style="fill:#455a64"></polygon><polygon points="126.67 304.74 149.57 323.47 172.43 342.27 218.13 379.85 263.74 417.57 286.54 436.43 309.29 455.35 286.38 436.62 263.52 417.83 217.82 380.24 172.22 342.52 149.42 323.66 126.67 304.74" style="fill:#455a64"></polygon><path d="M126.67,318.32l20.84,17,20.8,17.09,41.59,34.2L251.39,421l20.74,17.16,20.69,17.23-20.85-17-20.79-17.09L209.58,387,168.1,352.7Q147.34,335.57,126.67,318.32Z" style="fill:#455a64"></path><polygon points="126.67 331.9 145.46 347.24 164.19 362.63 201.67 393.43 239.04 424.36 257.72 439.82 276.36 455.35 257.57 440.01 238.83 424.62 201.35 393.82 163.98 362.89 145.3 347.42 126.67 331.9" style="fill:#455a64"></polygon><path d="M126.67,345.47l16.73,13.64,16.67,13.71,33.37,27.4,33.25,27.53,16.63,13.77,16.57,13.83Q243.17,441.7,226.48,428L193.12,400.6l-33.26-27.53L143.24,359.3Z" style="fill:#455a64"></path><polygon points="126.67 359.05 141.34 370.99 155.96 383 185.21 407.01 214.34 431.15 228.91 443.21 243.43 455.35 228.76 443.4 214.13 431.4 184.89 407.39 155.75 383.25 141.18 371.18 126.67 359.05" style="fill:#455a64"></polygon><polygon points="126.67 372.63 139.28 382.88 151.85 393.18 176.98 413.8 202 434.54 214.51 444.92 226.97 455.35 214.35 445.1 201.79 434.8 176.66 414.18 151.64 393.44 139.13 383.06 126.67 372.63" style="fill:#455a64"></polygon><path d="M126.67,386.21q10.58,8.54,21.07,17.15l21,17.22,20.9,17.35,10.45,8.68,10.4,8.74L200,446.8l-10.51-8.61-21-17.22-20.91-17.35L137.07,395Z" style="fill:#455a64"></path><path d="M126.67,399.78q8.52,6.83,17,13.77l16.89,13.82,16.8,14,8.39,7,8.34,7-8.5-6.85-8.44-6.92-16.9-13.82-16.79-14-8.4-7Z" style="fill:#455a64"></path><path d="M126.67,413.36q6.45,5.14,12.85,10.35l12.76,10.45L165,444.7q6.33,5.3,12.6,10.65-6.45-5.14-12.85-10.35L152,434.55,139.27,424Q132.94,418.72,126.67,413.36Z" style="fill:#455a64"></path><path d="M126.67,426.94q4.39,3.44,8.73,7l8.65,7.05,8.58,7.14q4.27,3.6,8.48,7.26-4.4-3.45-8.73-7l-8.64-7.06-8.58-7.14C132.31,431.8,129.49,429.37,126.67,426.94Z" style="fill:#455a64"></path><path d="M126.67,440.51c1.57,1.15,3.09,2.36,4.62,3.56l4.53,3.67c3,2.49,6,5,8.84,7.61-3.14-2.31-6.14-4.77-9.16-7.23l-4.45-3.75C129.57,443.1,128.11,441.82,126.67,440.51Z" style="fill:#455a64"></path></g><g id="freepik--Plant--inject-1159"><rect x="42.95" y="436.04" width="105.43" height="17.73" transform="translate(191.33 889.82) rotate(180)" style="fill:#FFA52E"></rect><rect x="129.09" y="436.04" width="19.29" height="17.73" transform="translate(277.47 889.82) rotate(180)" style="opacity:0.1"></rect><path d="M48.69,436s1.34-6.27,4-7.23S57,430.66,57,430.66s.63-6,4.44-7.79,6.66,1.88,6.66,1.88,2.92-7.6,8.14-7.6,7.84,11.12,7.84,11.12,3.08-3.31,6.24-1.44S93.5,436,93.5,436Z" style="fill:#37474f"></path><path d="M102.14,436h40.42s-1.33-5.69-4-6.1-3.93,2.24-3.93,2.24.12-7.95-4.89-9.3-9.2,5.67-9.2,5.67-3.14-4-7.41-3.75-5.37,6.87-5.37,6.87S103.86,429.38,102.14,436Z" style="fill:#37474f"></path><path d="M90.61,436h24.83s-.06-3.69-2.5-4.67a3.32,3.32,0,0,0-3.89.93s-1-6.8-5.55-6.8-6.72,5.87-6.72,5.87a3.49,3.49,0,0,0-3.55-1.44C90.71,430.26,90.61,436,90.61,436Z" style="fill:#455a64"></path></g><g id="freepik--Floor--inject-1159"><rect x="42.95" y="453.77" width="414.1" height="6.99" style="fill:#c7c7c7"></rect><path d="M53.06,453.77a18.73,18.73,0,0,1,0,7,18.18,18.18,0,0,1,0-7Z" style="fill:#263238"></path><path d="M74.94,453.77a18.73,18.73,0,0,1,0,7,16,16,0,0,1-.33-3.5A16.6,16.6,0,0,1,74.94,453.77Z" style="fill:#263238"></path><path d="M96.82,453.77a16.6,16.6,0,0,1,.33,3.5,16,16,0,0,1-.33,3.5,18.73,18.73,0,0,1,0-7Z" style="fill:#263238"></path><path d="M118.7,453.77a18.18,18.18,0,0,1,0,7,18.73,18.73,0,0,1,0-7Z" style="fill:#263238"></path><path d="M140.59,453.77a18.73,18.73,0,0,1,0,7,16,16,0,0,1-.34-3.5A16.61,16.61,0,0,1,140.59,453.77Z" style="fill:#263238"></path><path d="M162.47,453.77a18.73,18.73,0,0,1,0,7,18.73,18.73,0,0,1,0-7Z" style="fill:#263238"></path><path d="M184.35,453.77a16.6,16.6,0,0,1,.33,3.5,16,16,0,0,1-.33,3.5,18.73,18.73,0,0,1,0-7Z" style="fill:#263238"></path><path d="M206.23,453.77a18.18,18.18,0,0,1,0,7,18.73,18.73,0,0,1,0-7Z" style="fill:#263238"></path><path d="M228.12,453.77a18.73,18.73,0,0,1,0,7,16,16,0,0,1-.34-3.5A16.61,16.61,0,0,1,228.12,453.77Z" style="fill:#263238"></path><path d="M250,453.77a18.73,18.73,0,0,1,0,7,18.73,18.73,0,0,1,0-7Z" style="fill:#263238"></path><path d="M271.88,453.77a16.61,16.61,0,0,1,.34,3.5,16,16,0,0,1-.34,3.5,18.73,18.73,0,0,1,0-7Z" style="fill:#263238"></path><path d="M293.77,453.77a18.73,18.73,0,0,1,0,7,18.18,18.18,0,0,1,0-7Z" style="fill:#263238"></path><path d="M315.65,453.77a18.73,18.73,0,0,1,0,7,16,16,0,0,1-.33-3.5A16.6,16.6,0,0,1,315.65,453.77Z" style="fill:#263238"></path><path d="M337.53,453.77a18.73,18.73,0,0,1,0,7,18.73,18.73,0,0,1,0-7Z" style="fill:#263238"></path><path d="M359.41,453.77a18.18,18.18,0,0,1,0,7,18.73,18.73,0,0,1,0-7Z" style="fill:#263238"></path><path d="M381.3,453.77a18.73,18.73,0,0,1,0,7,18.18,18.18,0,0,1,0-7Z" style="fill:#263238"></path><path d="M403.18,453.77a18.73,18.73,0,0,1,0,7,18.73,18.73,0,0,1,0-7Z" style="fill:#263238"></path><path d="M425.06,453.77a16.6,16.6,0,0,1,.33,3.5,16,16,0,0,1-.33,3.5,18.73,18.73,0,0,1,0-7Z" style="fill:#263238"></path><path d="M446.94,453.77a18.18,18.18,0,0,1,0,7,18.73,18.73,0,0,1,0-7Z" style="fill:#263238"></path><polygon points="41.47 460.77 93.6 460.52 145.74 460.44 250 460.27 354.26 460.43 406.4 460.52 458.53 460.77 406.4 461.01 354.26 461.1 250 461.26 145.74 461.1 93.6 461.01 41.47 460.77" style="fill:#263238"></polygon></g><g id="freepik--Basket--inject-1159"><rect x="373.39" y="141.08" width="8.45" height="195.27" style="fill:#c7c7c7"></rect><rect x="306.76" y="42.2" width="141.72" height="98.88" style="fill:#ebebeb"></rect><rect x="448.48" y="42.2" width="6.46" height="98.88" transform="translate(903.43 183.28) rotate(180)" style="fill:#dbdbdb"></rect><path d="M411.33,116.49H343.91V70.14h67.42Zm-65.42-2h63.42V72.14H345.91Z" style="fill:#FFA52E"></path><rect x="336.69" y="113.26" width="58.81" height="5.89" style="fill:#455a64"></rect><path d="M339.41,119.16c.86,4.16,1.62,8.34,2.35,12.52s1.39,8.38,2.09,12.57,1.28,8.4,1.86,12.6l.85,6.32c.24,2.11.52,4.21.74,6.33-.44-2.08-.82-4.17-1.23-6.26L345,157c-.74-4.18-1.39-8.38-2.09-12.57S341.58,136,341,131.8,339.87,123.38,339.41,119.16Z" style="fill:#263238"></path><path d="M339.42,119.16q1.08,5.34,2,10.72c.66,3.57,1.23,7.16,1.82,10.75s1.12,7.18,1.66,10.78,1,7.19,1.5,10.8l-.26-.23h.24l0,.23c.17,1.21.3,2.43.45,3.64s.29,2.43.42,3.65l-.72-3.6c-.22-1.21-.47-2.41-.68-3.61l.27.23h-.24l0-.23c-.61-3.58-1.3-7.15-1.86-10.75s-1.19-7.17-1.7-10.77-1.11-7.18-1.57-10.79S339.81,122.77,339.42,119.16Z" style="fill:#263238"></path><path d="M392.82,119.16c-.45,4.22-1,8.43-1.59,12.64s-1.24,8.4-1.86,12.6S388,152.79,387.29,157l-1.13,6.27c-.41,2.09-.78,4.18-1.22,6.26.21-2.12.49-4.22.74-6.33l.85-6.32c.58-4.2,1.24-8.4,1.86-12.6s1.34-8.39,2.08-12.57S392,123.32,392.82,119.16Z" style="fill:#263238"></path><path d="M384.94,169.5c.31-2.82.64-5.64,1-8.45s.73-5.63,1.17-8.43l1.25-8.41,1.37-8.4.07-.37h.38l-.44.37c.44-2.79,1-5.56,1.46-8.34s1-5.55,1.6-8.31c-.32,2.8-.64,5.61-1,8.4s-.73,5.6-1.16,8.39l-.05.37h-.39l.43-.37-1.25,8.41-1.37,8.4c-.44,2.8-1,5.58-1.47,8.38S385.5,166.72,384.94,169.5Z" style="fill:#263238"></path><path d="M376.31,119.16c2.63,1.29,5.16,2.75,7.69,4.19s5,3,7.44,4.62c-2.62-1.29-5.15-2.75-7.69-4.19S378.73,120.81,376.31,119.16Z" style="fill:#263238"></path><path d="M361.5,119.16c1.64.9,3.29,1.77,4.92,2.7s3.27,1.82,4.89,2.76c3.25,1.85,6.48,3.75,9.7,5.66l-.11,0H381l0,0c1.55.9,3.07,1.85,4.61,2.77s3,1.88,4.57,2.83h0c-1.57-.87-3.16-1.7-4.72-2.58s-3.13-1.74-4.68-2.64l.11,0h-.07l0,0q-4.87-2.79-9.7-5.66c-1.62-.94-3.21-1.92-4.82-2.89S363.09,120.14,361.5,119.16Z" style="fill:#263238"></path><path d="M389,143.79h0l-.64-.36h0c-7-3.91-14-7.91-20.94-11.93L357,125.41c-3.46-2-7-4-10.3-6.25,3.6,1.8,7.05,3.85,10.53,5.86l10.41,6.06c6.94,4.06,13.85,8.14,20.71,12.32h0l.63.38h0Z" style="fill:#263238"></path><path d="M340.17,124l8.41,4.73,8.37,4.79q8.35,4.8,16.66,9.72l-.11,0h.07l.05,0,7.07,4.2,7.05,4.25h0l.56.34-.58-.32h0l-7.18-4-7.14-4.08.11,0h-.07l-.05,0c-5.57-3.22-11.13-6.44-16.67-9.71L348.43,129C345.66,127.34,342.92,125.65,340.17,124Z" style="fill:#263238"></path><path d="M341.66,133.49c3.78,2.1,7.55,4.21,11.3,6.36l11.23,6.48,11.18,6.58c3.72,2.2,7.42,4.44,11.11,6.69-3.78-2.1-7.55-4.21-11.3-6.36l-11.24-6.48-11.17-6.58Q347.19,136.88,341.66,133.49Z" style="fill:#263238"></path><path d="M385.25,167.51c-3.58-1.92-7.1-3.94-10.63-5.95l-10.54-6.09-10.5-6.19q-5.24-3.1-10.43-6.29c3.55,2,7.1,4,10.62,6L364.32,155l10.51,6.16C378.32,163.28,381.81,165.35,385.25,167.51Z" style="fill:#263238"></path><path d="M344.65,152.61q5.4,3,10.76,6l10.69,6.17-.13,0h.08l.06,0c1.43.84,2.87,1.69,4.29,2.55s2.83,1.77,4.22,2.69q-2.24-1.14-4.42-2.35t-4.34-2.46l.12,0h-.07l-.06,0L355.22,159Q349.91,155.83,344.65,152.61Z" style="fill:#263238"></path><path d="M346.16,162.25h0c2.32,1.17,4.59,2.42,6.83,3.71a69.18,69.18,0,0,1,6.6,4.11,72.56,72.56,0,0,1-6.83-3.71c-2.23-1.31-4.44-2.67-6.6-4.11Z" style="fill:#263238"></path><path d="M372.43,170.07c1.07-.74,2.17-1.44,3.28-2.12s2.22-1.34,3.34-2,2.25-1.29,3.39-1.93,2.33-1.16,3.53-1.67c-1.08.72-2.2,1.39-3.32,2s-2.23,1.34-3.36,2-2.25,1.3-3.4,1.91S373.6,169.49,372.43,170.07Z" style="fill:#263238"></path><path d="M355.87,119.16c-2.41,1.64-4.92,3.12-7.42,4.6s-5,2.89-7.66,4.18c2.41-1.65,4.91-3.12,7.41-4.61S353.25,120.44,355.87,119.16Z" style="fill:#263238"></path><path d="M370.68,119.16q-3.51,2.2-7.06,4.34l-7.14,4.22c-2.39,1.37-4.77,2.77-7.18,4.13s-4.83,2.68-7.27,4c2.34-1.48,4.7-2.92,7.07-4.34l7.13-4.22,7.19-4.13Q367,121.12,370.68,119.16Z" style="fill:#263238"></path><path d="M343.27,143.76q10.44-6.36,21-12.5l10.56-6.15c3.53-2,7-4.12,10.68-6-3.4,2.26-6.94,4.28-10.45,6.34l-10.55,6.16Q353.93,137.8,343.27,143.76Z" style="fill:#263238"></path><path d="M344.5,151.67q9-5.47,18.08-10.8l9.1-5.31,9.12-5.25.05,0h.06l-.1,0q5.61-3.21,11.26-6.35c-3.68,2.24-7.36,4.47-11.07,6.67l0,0h-.06l.09,0L371.92,136l-9.11,5.3C356.75,144.8,350.63,148.25,344.5,151.67Z" style="fill:#263238"></path><path d="M345.75,159.58q6.84-4.2,13.76-8.28l6.93-4.06,6.94-4,.06,0h.07l-.12,0q4.28-2.49,8.57-4.93l8.63-4.84c-2.82,1.72-5.63,3.44-8.46,5.12s-5.66,3.37-8.51,5l-.05,0h-.07l.11,0-6.93,4-6.95,4Q352.76,155.67,345.75,159.58Z" style="fill:#263238"></path><path d="M389.1,143l-.77.48h0q-5.08,3.12-10.24,6.17l-10.31,6.06-10.36,6q-5.19,3-10.43,5.86,5.1-3.12,10.24-6.19l10.3-6.06,10.36-6c3.46-2,6.93-3.93,10.43-5.85h0Z" style="fill:#263238"></path><polygon points="357.35 170.07 365.84 164.83 365.85 164.83 365.91 164.79 365.98 164.79 365.99 164.79 365.86 164.83 373.4 160.51 373.44 160.49 373.49 160.49 373.5 160.49 373.42 160.51 387.61 152.44 387.61 152.44 387.61 152.43 387.61 152.43 387.61 152.43 388.31 152.03 387.62 152.44 387.62 152.43 387.62 152.44 387.62 152.45 387.62 152.45 373.58 160.8 373.54 160.82 373.5 160.82 373.49 160.82 373.57 160.8 366.11 165.26 366.06 165.29 365.99 165.29 365.98 165.29 366.1 165.26 366.09 165.26 357.35 170.07" style="fill:#263238"></polygon><rect x="367.51" y="336.35" width="20.21" height="117.43" style="fill:#263238"></rect></g><g id="freepik--Character--inject-1159"><path d="M247.31,183.63c5.34,4.86,30,18.39,35.1,19.21,6,1,33.53-15.94,39-21.16,4-3.77-9.4-19.8-13.58-17.3-7,4.17-26.12,17.41-27.49,17.28-5.25-.49-21.18-5.07-30.41-8.29C242.55,170.8,237.8,175,247.31,183.63Z" style="fill:#eb9481"></path><path d="M265.38,195c-7.61-4.15-15.35-8.87-18.07-11.35-9.13-8.34-5.11-12.5,1.75-10.53Z" style="opacity:0.1"></path><path d="M316.8,185.13c4.39-1.91,17.52-12,19.67-14.55s7.78-10.38,6-12.22-3.63.31-3.63.31,2.09-4-.12-5.36c-1.76-1.1-4.5,1.8-4.5,1.8s2.06-4.5-.3-5.58c-2.16-1-4.32,2.89-4.32,2.89s1.34-3.94-.92-4.48c-2.71-.66-5,6.16-7.62,8.81-.58.6-17.28,11.64-17.28,11.64Z" style="fill:#eb9481"></path><path d="M329.47,152.23c-2.26,4.93-3.34,6.9-7.41,10.17-.08.06,0,.2.09.14,4.27-2.84,5.72-5.09,7.57-10.24C329.81,152.05,329.58,152,329.47,152.23Z" style="fill:#263238"></path><path d="M334.15,155.11c-2.24,5-4,7-8,10.73-.06.06,0,.16.09.11,4.24-3.33,6.56-5.47,8.14-10.81C334.4,154.9,334.25,154.88,334.15,155.11Z" style="fill:#263238"></path><path d="M338.62,158.86c-2.52,4.73-4.33,7.08-8.69,10.21a.1.1,0,0,0,.11.16A17.77,17.77,0,0,0,338.76,159C338.87,158.64,338.78,158.56,338.62,158.86Z" style="fill:#263238"></path><path d="M302.82,167.64s4.18-5.35,6.06-7.67,6.29-9.61,8.85-9.55c2.88.07,1.13,7.62-2.19,11.78,0,0,5,7.21,2,11.36-.65.9-5.54,3.86-6.79,3.66Z" style="fill:#eb9481"></path><path d="M315.35,162.75c2,2.74,3.54,7,2.31,10.13a.08.08,0,0,0,.14.07c1.78-3.22.08-8.13-1.88-10.46C315.54,162,314.83,162,315.35,162.75Z" style="fill:#263238"></path><rect x="293.46" y="175.13" width="25.83" height="7.35" transform="matrix(0.58, 0.81, -0.81, 0.58, 274.18, -174.46)" style="fill:#FFA52E"></rect><rect x="293.46" y="178.12" width="25.83" height="1.36" transform="translate(274.18 -174.46) rotate(54.52)" style="fill:#fff"></rect><path d="M223.92,237.23l51.72.86s-16.44-55-26.91-65.13c-2.62-2.52-9.95-2-13,1.16C220.78,189.71,223.4,236.8,223.92,237.23Z" style="fill:#FFA52E"></path><path d="M247.64,181c-2.24.44-7.52-3.07-9.87-6.34a58.86,58.86,0,0,1-.17-5.94c-.06-1.9-.16-4-.4-5.94l12.43,1.46a31.33,31.33,0,0,0-.27,7.53,4.46,4.46,0,0,0,.18.78s0,.08,0,.13C250,174.11,251.13,180.29,247.64,181Z" style="fill:#eb9481"></path><path d="M249.54,172.51s0,.08,0,.13a8.36,8.36,0,0,1-1.24.22c-6.88.68-9.57-7.48-10.24-10l11.53,1.35a31.33,31.33,0,0,0-.27,7.53A5.59,5.59,0,0,0,249.54,172.51Z" style="fill:#263238"></path><path d="M231.75,148.87c-.14,4.51,5.32,15.93,9,17.8,5.35,2.72,12.47,1.19,14.37-4.87,1.84-5.86-5.54-20.62-9.51-22.16C239.78,137.38,232,142.22,231.75,148.87Z" style="fill:#eb9481"></path><path d="M244.62,152.57s-.05.07,0,.1c.4.75.73,1.69.16,2.28,0,0,0,.05,0,0C245.56,154.46,245.11,153.22,244.62,152.57Z" style="fill:#263238"></path><path d="M243.54,152.11c-1.28.5-.17,3,1,2.55S244.61,151.68,243.54,152.11Z" style="fill:#263238"></path><path d="M249.16,150.38s.08,0,.09.05c.32.79.82,1.64,1.64,1.59,0,0,0,0,0,0C250,152.32,249.34,151.18,249.16,150.38Z" style="fill:#263238"></path><path d="M249.5,149.26c1.21-.65,2.42,1.83,1.29,2.43S248.48,149.8,249.5,149.26Z" style="fill:#263238"></path><path d="M242.36,152.17a10.45,10.45,0,0,0,1.09-.32,1.84,1.84,0,0,0,1-.54.59.59,0,0,0-.06-.71,1.47,1.47,0,0,0-1.45-.22,2.14,2.14,0,0,0-1.26.86A.62.62,0,0,0,242.36,152.17Z" style="fill:#263238"></path><path d="M249.94,147.89a8.28,8.28,0,0,1-1.11.18,1.77,1.77,0,0,1-1.18,0,.59.59,0,0,1-.25-.66,1.45,1.45,0,0,1,1.21-.83,2.1,2.1,0,0,1,1.51.22A.62.62,0,0,1,249.94,147.89Z" style="fill:#263238"></path><path d="M247.08,160.13a1.26,1.26,0,0,0,.86.17,2.17,2.17,0,0,0,.75-.56s.06,0,.05,0a1.13,1.13,0,0,1-.8.86.9.9,0,0,1-.92-.42S247,160.12,247.08,160.13Z" style="fill:#263238"></path><path d="M246.87,157.44a2.94,2.94,0,0,0,2.3.4,3.84,3.84,0,0,0,1-.38l.18-.1.16-.1a.22.22,0,0,0,.08-.24h0l0-.08h0l0-.07c-.25-.61-.71-1.5-.71-1.5.27,0,1.61,0,1.45-.28a43.83,43.83,0,0,0-4.57-7.59.08.08,0,0,0-.13.09c1.15,2.48,2.73,4.74,3.93,7.21A5.29,5.29,0,0,0,249,155c-.07.07.92,1.71,1,2a0,0,0,0,1,0,0,4.06,4.06,0,0,1-3.12.36C246.84,157.32,246.8,157.4,246.87,157.44Z" style="fill:#263238"></path><path d="M249.65,157.31a3.39,3.39,0,0,1-.83,1.54,1.54,1.54,0,0,1-.84.43c-.69.11-1-.45-1.06-1a4.07,4.07,0,0,1,0-.88A4.38,4.38,0,0,0,249.65,157.31Z" style="fill:#263238"></path><path d="M248.82,158.85a1.54,1.54,0,0,1-.84.43c-.69.11-1-.45-1.06-1A1.58,1.58,0,0,1,248.82,158.85Z" style="fill:#ff9bbc"></path><path d="M237.24,153.92c.09-2.6-2.43-6.14-1.57-7.55,1.87-3.05,8.4-.21,12-1.25s4-3.59,2.51-6.23-4.42-3.81-8.49-3.24a15.3,15.3,0,0,0-9,5.2s.46-1.67,0-2-1.75,1.52-2.1,2.25a5.36,5.36,0,0,0-.36,1.92,5.75,5.75,0,0,0-1.63.31,3.49,3.49,0,0,0-1.79,1.54c0,.22,1.32,0,2.22-.21,0,0-1,2.69-.41,4.55s6.17,9.92,6.9,9.81C236.42,158.87,237.19,155,237.24,153.92Z" style="fill:#263238"></path><path d="M229.26,144.32a0,0,0,0,1,.06,0,6.18,6.18,0,0,0-1.09,3.21,7.69,7.69,0,0,0,1.11,3.88,37.16,37.16,0,0,0,4.88,6.15c.05.06,0,.15-.1.09a27.12,27.12,0,0,1-5.26-6.62C227.78,148.94,227.54,146.2,229.26,144.32Z" style="fill:#263238"></path><path d="M235.26,145.5a8.9,8.9,0,0,1,3.22-.74,12.6,12.6,0,0,1,3.09.54,12.63,12.63,0,0,0,7-.15s0,0,0,0a10.92,10.92,0,0,1-6.35.49,27.69,27.69,0,0,0-3.24-.64,11.37,11.37,0,0,0-3.61.63A.1.1,0,0,1,235.26,145.5Z" style="fill:#263238"></path><path d="M234.5,139.22a17.25,17.25,0,0,1,4-2.8,13.68,13.68,0,0,1,4.45-1.49,6.77,6.77,0,0,1,6.94,3.06,5.87,5.87,0,0,1,.67,4.16c0,.1-.17.07-.15,0a6.06,6.06,0,0,0-3.35-6.44c-2.66-1.2-5.66-.46-8.17.74a25.06,25.06,0,0,0-4.4,2.81S234.49,139.23,234.5,139.22Z" style="fill:#263238"></path><path d="M237,158s-3.83-3.07-5.3-1.6,2.2,6.49,4.48,6.65a2.18,2.18,0,0,0,2.48-2Z" style="fill:#eb9481"></path><path d="M232.76,157.78a0,0,0,0,0,0,.06,5.54,5.54,0,0,1,3.71,2.51,1.21,1.21,0,0,0-1.83.19s0,.09.07.07a1.34,1.34,0,0,1,1.55,0,6.47,6.47,0,0,1,1,1c.11.11.32,0,.23-.16l0,0C237,159.54,234.79,157.39,232.76,157.78Z" style="fill:#263238"></path><g style="opacity:0.1"><polygon points="230.89 208.78 230.44 237.34 229.48 237.33 229.94 208.76 230.89 208.78"></polygon><polygon points="234.59 204.3 234.07 237.4 233.11 237.39 233.64 204.29 234.59 204.3"></polygon><polygon points="238.29 199.83 237.68 237.47 236.73 237.45 237.32 199.81 238.29 199.83"></polygon></g><path d="M235.81,174.07c.94,1.65,7.76,12.41,7.84,17.72s-11.19,22.89-13.13,22.65-3.13-14.68-3.13-17.29C227.41,189.93,235.81,174.07,235.81,174.07Z" style="fill:#eb9481"></path><circle cx="182.35" cy="96.86" r="23.08" transform="translate(58.58 262.13) rotate(-81.15)" style="fill:#FFA52E"></circle><path d="M171,93.25a21.33,21.33,0,0,0-4.68-13c-.18.17-.37.36-.54.55a20.46,20.46,0,0,1,4.45,12.4c0,.12,0,.25,0,.38s0,.26,0,.38a20.55,20.55,0,0,1-7.26,15.31c.13.22.28.43.42.64A21.26,21.26,0,0,0,171,94v-.76Z" style="opacity:0.1"></path><path d="M194.62,94c0-.12,0-.25,0-.38s0-.26,0-.38A20.39,20.39,0,0,1,199,80.9l-.55-.55a21.32,21.32,0,0,0-4.63,12.9c0,.12,0,.25,0,.38s0,.25,0,.38a21.33,21.33,0,0,0,7.53,15.89,5.5,5.5,0,0,0,.43-.64A20.51,20.51,0,0,1,194.62,94Z" style="opacity:0.1"></path><path d="M182.74,73.78v46.15H182V73.78h.77Z" style="opacity:0.1"></path><path d="M205.25,94H159.46a6.31,6.31,0,0,1,.1-.76h45.59A6.31,6.31,0,0,1,205.25,94Z" style="opacity:0.1"></path><path d="M237.27,176.62c-5.85-10.1-31.37-55.51-37.75-60.54-2.79-2.19-19.49,15.54-16.89,18.3,5.56,5.91,38.71,47.34,47,54.22C237.46,195.1,243.4,187.19,237.27,176.62Z" style="fill:#eb9481"></path><path d="M184.53,134.78s-9.47-2.34-14.06-5.11a34.51,34.51,0,0,1-11.38-11.95c-3-5.21-6.67-19.9-2.62-21.7,3.66-1.62,6.65,13.59,6.65,13.59s-5.6-15-.83-16.15,7.23,16.71,7.23,16.71-5.41-15.55-.3-16c3.85-.3,7,15.74,7,15.74s-4.56-13.39-.61-13.87c4.37-.54,8.2,14.09,8.2,14.09,10.26.46,16.27,5.44,18,8.81C202.3,120,184.53,134.78,184.53,134.78Z" style="fill:#eb9481"></path><path d="M164.73,114.92c-.73-1.74-1.47-3.49-2-5.29s-1.07-3.62-1.47-5.46a31.34,31.34,0,0,1-.85-7.31c.33,4.37,2.25,10.83,2.81,12.63s1,3.62,1.6,5.41C164.81,114.94,164.74,115,164.73,114.92Z" style="fill:#263238"></path><path d="M171.25,113c-.83-2.26-1.73-4.48-2.45-6.77s-1.21-4.52-1.78-6.85c0-.18.07-.14.12,0,.66,2.3,1.44,4.38,2.12,6.68s1.28,4.62,2,6.88C171.32,113,171.26,113,171.25,113Z" style="fill:#263238"></path><path d="M177.15,112.35a54.09,54.09,0,0,1-3-10.63c0-.18.11-.12.15.06.92,3.55,1.62,6.35,2.93,10.52C177.28,112.37,177.18,112.42,177.15,112.35Z" style="fill:#263238"></path><polygon points="229.41 188.42 237.33 194.67 228.25 191.92 229.41 188.42" style="opacity:0.1"></polygon><rect x="183.29" y="128.67" width="26.39" height="7.35" transform="translate(432.54 112.33) rotate(141.19)" style="fill:#FFA52E"></rect><rect x="183.29" y="131.66" width="26.39" height="1.36" transform="translate(432.54 112.33) rotate(141.19)" style="fill:#fff"></rect><path d="M192.7,389.29l29.5,11.15,24.13-77.54L272.76,238l-47.48-.71s-6.17,17.71,1.49,28.44l-13.06,47.39s-8.15,15.77-9.59,21.47C200.52,348.72,192.7,389.29,192.7,389.29Z" style="fill:#eb9481"></path><path d="M194.87,378.2s-5.65,24-5.66,24.05c-3.59,5.31-6.65,10-8,12.63a.05.05,0,0,0,0,0,4.46,4.46,0,0,0-.72,1.9.11.11,0,0,0,0,.06c.85,2.14,42.49,32.1,44.3,32.65s3.53-4.54,2.84-7-11.51-21.06-11.51-21.06L225.45,390Z" style="fill:#FFA52E"></path><path d="M224.53,393.09l-.28.93L194,382c.09-.33.15-.65.22-.93Z" style="fill:#fff"></path><path d="M223.5,396.6l-.28.91-30.07-12c.07-.32.14-.63.22-.94Z" style="fill:#fff"></path><path d="M225.35,450.37c-1.84-.57-44.5-31.13-45.38-33.32-.35-.83,3.74-7.3,8.91-15l.16-.24,27.74,19.41-.35.45s11.1,19,11.82,21.52S227.2,450.94,225.35,450.37Z" style="fill:#37474f"></path><path d="M226.06,448.37C219,443,190,422.22,182.62,417.49c-.06,0-.09,0,0,0,6.89,5.44,36,26,43.39,31C226.13,448.59,226.21,448.48,226.06,448.37Z" style="fill:#fff"></path><path d="M218.69,423.43c-2.45-2.55-6.23-4.6-9.83-4.13-.14,0-.11.22,0,.25a49.42,49.42,0,0,1,9.56,4.23A.22.22,0,0,0,218.69,423.43Z" style="fill:#fff"></path><path d="M219.85,426.13c-2.45-2.56-6.22-4.6-9.83-4.14-.14,0-.11.22,0,.26a48.82,48.82,0,0,1,9.56,4.23A.22.22,0,0,0,219.85,426.13Z" style="fill:#fff"></path><path d="M221,428.82c-2.45-2.55-6.22-4.6-9.83-4.13-.14,0-.11.21,0,.25a48.82,48.82,0,0,1,9.56,4.23A.22.22,0,0,0,221,428.82Z" style="fill:#fff"></path><path d="M227.1,449.31c.55.84-1.45,3.28-2.15,3.09s-47-33.71-47.72-34.45,1.66-3.38,2.69-2.86S227.1,449.31,227.1,449.31Z" style="fill:#FFA52E"></path><path d="M192.66,411.65c-2-3.76-7.83-.68-5.84,3.08S194.65,415.42,192.66,411.65Z" style="fill:#fff"></path><path d="M215.73,300.37l35.85,15.93L272.76,238l-48.84-.74c-5.48,19.35-.13,28.32-.13,28.32Z" style="fill:#37474f"></path><path d="M272.76,238l-12.4,45.89-37.91-12.54,1.34-5.76s-5.36-9,.13-28.31Z" style="fill:#263238"></path><polygon points="233.75 266.4 224.99 304.49 224.1 304.08 232.81 266.19 233.75 266.4" style="fill:#FFA52E"></polygon><polygon points="236.26 271.63 228.37 305.98 227.48 305.59 235.33 271.42 236.26 271.63" style="fill:#FFA52E"></polygon><polygon points="238.77 276.86 231.73 307.48 230.84 307.08 237.85 276.65 238.77 276.86" style="fill:#FFA52E"></polygon><path d="M272,239.86s40.64-7.37,53.67-6.66c5.51.29,16.59,12.3,14.42,20.77-5.73,22.45-30.1,80.39-30.1,80.39L279.8,321.14s8.34-27.47,13.81-38.72c1.44-3,6.84-11.25,6.84-11.25-5.56,1.45-54.74,14.82-72-5.69-6.1-7.27-5.1-15.69-4.57-28.25Z" style="fill:#eb9481"></path><path d="M283.43,309.7s-15.23,39.72-16.05,42.53a9.81,9.81,0,0,0-.34,2.06l0,0c1.26,1.93,48,23.16,49.83,23.35s2.58-5.15,1.42-7.42-15.4-18.39-15.4-18.39L314.54,323Z" style="fill:#FFA52E"></path><path d="M313.09,326.59l-.35.88-31.11-13.06c.12-.31.24-.6.34-.89Z" style="fill:#fff"></path><path d="M311.74,330l-.37.88-31-13q.18-.45.33-.87Z" style="fill:#fff"></path><path d="M317,377.57c-1.92-.25-49-23.35-50.26-25.37-.48-.76,2.49-7.82,6.32-16.25l.12-.26,30.56,14.56-.27.51s14.08,16.91,15.2,19.28S319,377.83,317,377.57Z" style="fill:#37474f"></path><path d="M317.39,375.49c-7.84-4.09-39.87-19.85-47.94-23.3-.06,0-.08,0,0,.05,7.69,4.23,39.84,19.72,47.9,23.38C317.5,375.69,317.56,375.57,317.39,375.49Z" style="fill:#fff"></path><path d="M306,352.11c-2.84-2.12-6.89-3.51-10.37-2.46-.14,0-.08.23,0,.25a48.79,48.79,0,0,1,10.13,2.6A.22.22,0,0,0,306,352.11Z" style="fill:#fff"></path><path d="M307.6,354.57c-2.84-2.11-6.9-3.51-10.38-2.45-.13,0-.07.23,0,.25A49.15,49.15,0,0,1,307.39,355,.22.22,0,0,0,307.6,354.57Z" style="fill:#fff"></path><path d="M309.19,357c-2.84-2.12-6.9-3.51-10.38-2.46-.13,0-.07.23.05.25a48.54,48.54,0,0,1,10.12,2.6A.22.22,0,0,0,309.19,357Z" style="fill:#fff"></path><path d="M318.58,376.24c.68.74-.89,3.48-1.61,3.41s-52-25.49-52.75-26.12,1.08-3.6,2.17-3.26S318.58,376.24,318.58,376.24Z" style="fill:#FFA52E"></path><path d="M278.4,344.78c-2.58-3.39-7.84.61-5.26,4S281,348.16,278.4,344.78Z" style="fill:#fff"></path><path d="M295.86,274.31l15.82-41.82L272.76,238l-48.84-.74s-9.56,25.53,6.7,34.88C249.73,283.1,295.86,274.31,295.86,274.31Z" style="fill:#37474f"></path><polygon points="308.67 240.43 308.29 241.44 262.97 247.94 262.83 247 308.67 240.43" style="fill:#FFA52E"></polygon><polygon points="307.21 244.3 306.83 245.32 259 252.18 258.87 251.23 307.21 244.3" style="fill:#FFA52E"></polygon><polygon points="305.75 248.17 305.36 249.18 255.03 256.4 254.89 255.46 305.75 248.17" style="fill:#FFA52E"></polygon></g></svg>