<svg xmlns="http://www.w3.org/2000/svg" viewBox="0 0 500 500"><g id="freepik--background-complete--inject-1178"><path d="M172.17,85.45H64.49S75.17,56.29,91.6,56.29s21.58,20.13,21.58,20.13,11.08-10.93,20.19-10.93,17,14.45,17,14.45S163.26,72.17,172.17,85.45Z" style="fill:#ebebeb"></path><path d="M168.65,202.76H118.33s11.24-16.29,20.1-16.29,11.48,10.86,11.48,10.86,6.25-5.07,12-4.16S168.65,202.76,168.65,202.76Z" style="fill:#ebebeb;opacity:0.5"></path><path d="M443.1,112.65h-98s13.42-30,27.78-31.84,21.22,22.27,21.22,22.27,9.26-8.53,16.54-8.53,12.91,11.23,12.91,11.23S438.1,98.08,443.1,112.65Z" style="fill:#ebebeb"></path><path d="M218.39,118.71H152.18s11.37-21.71,23.71-22,18.82,16.43,18.82,16.43S213.9,97.71,218.39,118.71Z" style="fill:#ebebeb;opacity:0.5"></path><path d="M369.58,160.48h-66.2s11.37-21.71,23.71-22,18.82,16.43,18.82,16.43S365.1,139.48,369.58,160.48Z" style="fill:#ebebeb;opacity:0.5"></path><polygon points="246.26 450.08 253.74 450.08 251.74 334.62 248.26 334.62 246.26 450.08" style="fill:#ebebeb"></polygon><polygon points="464.45 450.08 471.93 450.08 391.23 334.62 387.76 334.62 464.45 450.08" style="fill:#ebebeb"></polygon><polygon points="35.55 450.08 28.07 450.08 108.77 334.62 112.24 334.62 35.55 450.08" style="fill:#ebebeb"></polygon><rect x="76.08" y="381.29" width="347.84" height="5.06" style="fill:#ebebeb"></rect></g><g id="freepik--Shadow--inject-1178"><ellipse cx="237.47" cy="437.46" rx="191.55" ry="12.62" style="fill:#ebebeb"></ellipse></g><g id="freepik--Floor--inject-1178"><polygon points="38.35 334.14 91.27 333.9 144.18 333.81 250 333.64 355.82 333.81 408.74 333.9 461.65 334.14 408.74 334.39 355.82 334.48 250 334.64 144.18 334.48 91.27 334.39 38.35 334.14" style="fill:#263238"></polygon></g><g id="freepik--Net--inject-1178"><rect x="42.14" y="270.91" width="7.18" height="63.24" style="fill:#263238"></rect><rect x="450.68" y="270.91" width="7.18" height="63.24" style="fill:#263238"></rect><rect x="53.9" y="284.4" width="392.2" height="0.5" style="fill:#263238"></rect><rect x="53.9" y="291.97" width="392.2" height="0.5" style="fill:#263238"></rect><rect x="53.9" y="299.54" width="392.2" height="0.5" style="fill:#263238"></rect><rect x="53.9" y="307.11" width="392.2" height="0.5" style="fill:#263238"></rect><rect x="53.9" y="314.68" width="392.2" height="0.5" style="fill:#263238"></rect><rect x="53.9" y="322.25" width="392.2" height="0.5" style="fill:#263238"></rect><rect x="49.32" y="329.82" width="401.36" height="0.5" style="fill:#263238"></rect><rect x="49.32" y="332.5" width="401.36" height="0.5" style="fill:#263238"></rect><rect x="53.52" y="270.91" width="392.96" height="6.17" style="fill:#dbdbdb"></rect><polygon points="446.35 333 53.65 333 53.65 277.08 54.15 277.08 54.15 332.5 445.85 332.5 445.85 277.08 446.35 277.08 446.35 333" style="fill:#263238"></polygon><rect x="68.08" y="277.08" width="0.5" height="55.67" style="fill:#263238"></rect><rect x="82.05" y="277.08" width="0.5" height="55.67" style="fill:#263238"></rect><rect x="96.03" y="277.08" width="0.5" height="55.67" style="fill:#263238"></rect><rect x="110" y="277.08" width="0.5" height="55.67" style="fill:#263238"></rect><rect x="123.98" y="277.08" width="0.5" height="55.67" style="fill:#263238"></rect><rect x="137.95" y="277.08" width="0.5" height="55.67" style="fill:#263238"></rect><rect x="151.93" y="277.08" width="0.5" height="55.67" style="fill:#263238"></rect><rect x="165.9" y="277.08" width="0.5" height="55.67" style="fill:#263238"></rect><rect x="179.88" y="277.08" width="0.5" height="55.67" style="fill:#263238"></rect><rect x="193.85" y="277.08" width="0.5" height="55.67" style="fill:#263238"></rect><rect x="207.83" y="277.08" width="0.5" height="55.67" style="fill:#263238"></rect><rect x="221.8" y="277.08" width="0.5" height="55.67" style="fill:#263238"></rect><rect x="235.78" y="277.08" width="0.5" height="55.67" style="fill:#263238"></rect><rect x="249.75" y="277.08" width="0.5" height="55.67" style="fill:#263238"></rect><rect x="263.72" y="277.08" width="0.5" height="55.67" style="fill:#263238"></rect><rect x="277.7" y="277.08" width="0.5" height="55.67" style="fill:#263238"></rect><rect x="291.67" y="277.08" width="0.5" height="55.67" style="fill:#263238"></rect><rect x="305.65" y="277.08" width="0.5" height="55.67" style="fill:#263238"></rect><rect x="319.62" y="277.08" width="0.5" height="55.67" style="fill:#263238"></rect><rect x="333.6" y="277.08" width="0.5" height="55.67" style="fill:#263238"></rect><rect x="347.57" y="277.08" width="0.5" height="55.67" style="fill:#263238"></rect><rect x="361.55" y="277.08" width="0.5" height="55.67" style="fill:#263238"></rect><rect x="375.52" y="277.08" width="0.5" height="55.67" style="fill:#263238"></rect><rect x="389.5" y="277.08" width="0.5" height="55.67" style="fill:#263238"></rect><rect x="403.47" y="277.08" width="0.5" height="55.67" style="fill:#263238"></rect><rect x="417.45" y="277.08" width="0.5" height="55.67" style="fill:#263238"></rect><rect x="431.42" y="277.08" width="0.5" height="55.67" style="fill:#263238"></rect><rect x="49.32" y="270.91" width="4.2" height="3.23" style="fill:#263238"></rect><rect x="446.48" y="270.91" width="4.2" height="3.23" style="fill:#263238"></rect></g><g id="freepik--Ball--inject-1178"><path d="M386.4,199.41a107.46,107.46,0,0,0-21.42,6.4,100.31,100.31,0,0,0-10.06,4.89c-1.66.88-3.23,1.9-4.85,2.85l-2.35,1.55c-.79.51-1.57,1-2.33,1.6-12.32,8.7-22.95,20.1-31.73,33a195,195,0,0,0-12,20.23c-3.64,7-6.8,14.3-9.8,21.68a352,352,0,0,0-14.22,45.89l-2.63,11-5.05-9.82c-.48-.94-1.11-2.05-1.71-3.08s-1.25-2.08-1.9-3.11q-1.95-3.1-4.07-6.11c-2.82-4-5.85-7.9-9.05-11.65a145,145,0,0,0-21.37-20.44A120.75,120.75,0,0,0,206.33,279a108.61,108.61,0,0,0-28.79-8.12,109.43,109.43,0,0,1,29.55,6.19,123.91,123.91,0,0,1,27.15,13.79,149.9,149.9,0,0,1,23.53,19.6Q263.16,316,268,322c1.62,2,3.2,4,4.72,6.12q1.14,1.57,2.25,3.18c.74,1.1,1.43,2.13,2.18,3.37l-7.68,1.17a359.7,359.7,0,0,1,11.79-48c2.64-7.86,5.49-15.69,8.9-23.34A208.29,208.29,0,0,1,301.75,242a144.91,144.91,0,0,1,33.35-38.95A120.53,120.53,0,0,1,357.26,189,127.35,127.35,0,0,1,382,179.9Z" style="fill:#FFA52E;opacity:0.30000000000000004"></path><circle cx="387.76" cy="188.96" r="10.86" style="fill:#FFA52E"></circle><circle cx="387.76" cy="188.96" r="10.86" style="fill:#fff;opacity:0.4"></circle><path d="M377.89,184.43a10.4,10.4,0,0,1,7.79-4.78,4.42,4.42,0,0,1,2.45.55,1.49,1.49,0,0,1,.54.49,1.64,1.64,0,0,1,.32.68,3.18,3.18,0,0,1,0,1.34,16.92,16.92,0,0,1-1.92,4.35,40,40,0,0,0-2.16,4,6.3,6.3,0,0,0-.48,2.1,6.76,6.76,0,0,0,.17,2.15,5.13,5.13,0,0,0,.93,1.94,4.91,4.91,0,0,0,1.7,1.32,8.36,8.36,0,0,0,4.45.52A8.06,8.06,0,0,1,387,199a5.26,5.26,0,0,1-2-1.38,5.72,5.72,0,0,1-1.19-2.12,6.83,6.83,0,0,1-.31-2.42,7.3,7.3,0,0,1,.47-2.39,38.68,38.68,0,0,1,2.18-4.15,16.45,16.45,0,0,0,1.86-4,1.36,1.36,0,0,0-.4-1.59,3.89,3.89,0,0,0-2-.51,8.76,8.76,0,0,0-4.24,1.17A11.84,11.84,0,0,0,377.89,184.43Z" style="fill:#FFA52E"></path></g><g id="freepik--Character--inject-1178"><path d="M36.57,428.61l9.35-1.69s-10-10.2-3.85-16.48,15.32-.73,15.32-.73S56,394.78,67.52,391.65s21.69,19.2,21.69,19.2,1.7-5.24,10.32-3.18S115,421.47,115,421.47l49.06,7" style="fill:#fff"></path><path d="M36.57,428.61l9.34-1.73,0,.07A25.75,25.75,0,0,1,41,419.67a11.5,11.5,0,0,1-1-4.3,6.81,6.81,0,0,1,1.31-4.2,9,9,0,0,1,1.54-1.61,9.94,9.94,0,0,1,1.86-1.22,10.24,10.24,0,0,1,4.31-1,17.14,17.14,0,0,1,8.49,2.27l-.26.16a25.6,25.6,0,0,1,.45-6.71,17.86,17.86,0,0,1,2.45-6.25,12.16,12.16,0,0,1,5-4.45,12.57,12.57,0,0,1,3.22-1.07,9,9,0,0,1,3.4.11,14.52,14.52,0,0,1,6,3.12,32,32,0,0,1,4.68,4.84,60.83,60.83,0,0,1,7,11.44l-.41,0a5.8,5.8,0,0,1,2.93-3A9.14,9.14,0,0,1,96,407a15.49,15.49,0,0,1,7.89,2.36,29.12,29.12,0,0,1,6.26,5.4,45,45,0,0,1,4.91,6.64l-.11-.08,49,7.21-49.08-6.9h-.07l0-.06a44.88,44.88,0,0,0-4.9-6.57,28.77,28.77,0,0,0-6.19-5.31A15.16,15.16,0,0,0,96,407.4a8.68,8.68,0,0,0-3.91.76,5.46,5.46,0,0,0-2.7,2.76l-.19.48-.22-.46a61.15,61.15,0,0,0-7-11.31,32,32,0,0,0-4.59-4.79,14.14,14.14,0,0,0-5.76-3,8.62,8.62,0,0,0-3.24-.11,12.3,12.3,0,0,0-3.11,1A11.9,11.9,0,0,0,60.45,397,17.64,17.64,0,0,0,58,403.09a25.31,25.31,0,0,0-.46,6.61l0,.31-.27-.15A16.92,16.92,0,0,0,49,407.6a9.92,9.92,0,0,0-4.18,1,9.24,9.24,0,0,0-3.31,2.73,6.64,6.64,0,0,0-1.29,4,11.49,11.49,0,0,0,.93,4.23A25.44,25.44,0,0,0,46,426.89l0,.06h-.08Z" style="fill:#263238"></path><path d="M269.23,428.61l9.35-1.69s-10-10.2-3.85-16.48,15.33-.73,15.33-.73-1.43-14.93,10.12-18.06,21.7,19.2,21.7,19.2,1.7-5.24,10.31-3.18,15.44,13.8,15.44,13.8l47.42,15" style="fill:#fff"></path><path d="M269.23,428.61l9.34-1.73,0,.07a25.75,25.75,0,0,1-4.92-7.28,11.51,11.51,0,0,1-1-4.3,6.87,6.87,0,0,1,1.31-4.2,9,9,0,0,1,1.54-1.61,9.7,9.7,0,0,1,1.87-1.22,10.2,10.2,0,0,1,4.3-1,17.11,17.11,0,0,1,8.49,2.27l-.25.16a25.18,25.18,0,0,1,.44-6.71,17.86,17.86,0,0,1,2.45-6.25,12.29,12.29,0,0,1,5-4.45,12.57,12.57,0,0,1,3.22-1.07,9.1,9.1,0,0,1,3.41.11,14.52,14.52,0,0,1,6,3.12,32.38,32.38,0,0,1,4.67,4.84,60.88,60.88,0,0,1,7,11.44l-.42,0a5.82,5.82,0,0,1,2.94-3,9.07,9.07,0,0,1,4.1-.79,15.55,15.55,0,0,1,7.9,2.36,29.06,29.06,0,0,1,6.25,5.4,45,45,0,0,1,4.91,6.64l-.09-.07,47.38,15.17-47.47-14.87-.06,0,0-.05a44.17,44.17,0,0,0-4.9-6.57,28.54,28.54,0,0,0-6.19-5.31,15.13,15.13,0,0,0-7.71-2.27,8.7,8.7,0,0,0-3.91.76,5.4,5.4,0,0,0-2.69,2.76l-.2.48-.22-.46a60.62,60.62,0,0,0-7-11.31,32,32,0,0,0-4.58-4.79,14.25,14.25,0,0,0-5.77-3,8.61,8.61,0,0,0-3.24-.11,12.3,12.3,0,0,0-3.11,1,11.9,11.9,0,0,0-4.88,4.29,17.62,17.62,0,0,0-2.42,6.11,25.32,25.32,0,0,0-.47,6.61l0,.31-.27-.15a16.88,16.88,0,0,0-8.31-2.26,9.93,9.93,0,0,0-4.19,1,9.41,9.41,0,0,0-3.31,2.73,6.57,6.57,0,0,0-1.28,4,11.29,11.29,0,0,0,.92,4.23,25.65,25.65,0,0,0,4.81,7.29l.06.06h-.08Z" style="fill:#263238"></path><path d="M395.05,386.88l-37.53,10.49s-31.55-28.61-43.3-55.22c-4.15-9.39-64.75-66.67-79.09-82.29-18.87-20.54,2.29-46.07,2.29-46.07l51.68,10.1-1.25,15.16c2.1,3.37,30.71,39.53,58.32,78.72C372.46,355.1,395.05,386.88,395.05,386.88Z" style="fill:#d3766a"></path><path d="M447.36,436.71c-2.38.8-70.59.87-73.19-.77-.41-.26-.42-10.12-.28-21.55l-27.72-28.83,47.38-.5,23.36,28.45S442.32,424.84,445,427,449.74,435.91,447.36,436.71Z" style="fill:#d3766a"></path><path d="M447.36,436.71c-2.38.8-70.59.87-73.19-.77-.41-.26-.42-10.12-.28-21.55l-6.1-6.35-1-1-1.25-1.3-.95-1-2.28-2.37,42.54-3.51,2,2.48.82,1,1.08,1.31.81,1,7.26,8.84S442.32,424.84,445,427,449.74,435.91,447.36,436.71Z" style="fill:#ebebeb"></path><polygon points="409.65 404.67 367.79 408.04 366.84 407.06 408.84 403.68 409.65 404.67" style="fill:#FFA52E"></polygon><polygon points="407.76 402.37 365.59 405.76 364.64 404.77 406.94 401.37 407.76 402.37" style="fill:#FFA52E"></polygon><path d="M447.65,436.67c-2.37.8-71.11,1.39-73.7-.24-1-.62-1-11-.06-22.54l43.56-.63s25.17,11.6,27.82,13.7S450,435.87,447.65,436.67Z" style="fill:#FFA52E"></path><path d="M446.67,434c-11.38-.26-57.32-.25-68.6.36-.09,0-.09.07,0,.07,11.28.51,57.22.12,68.6-.24C446.91,434.13,446.91,434,446.67,434Z" style="fill:#263238"></path><path d="M440.9,424.52a9.12,9.12,0,0,0-6.8,2.79,8.89,8.89,0,0,0-2.54,6.08c0,.07.13.07.14,0a10.57,10.57,0,0,1,9.2-8.73C441,424.65,441,424.52,440.9,424.52Z" style="fill:#263238"></path><path d="M421,414.39c-4.55-.05-9.83,1.56-12.66,5.29-.11.15.1.3.23.23a63.06,63.06,0,0,1,12.51-5A.29.29,0,0,0,421,414.39Z" style="fill:#263238"></path><path d="M424.54,415.76c-4.55-.06-9.83,1.56-12.66,5.29-.11.14.1.3.23.23a63.06,63.06,0,0,1,12.51-5A.29.29,0,0,0,424.54,415.76Z" style="fill:#263238"></path><path d="M428.06,417.13c-4.55-.06-9.83,1.55-12.66,5.29-.11.14.1.29.23.22a63,63,0,0,1,12.51-4.95A.29.29,0,0,0,428.06,417.13Z" style="fill:#263238"></path><path d="M431.58,418.49c-4.55-.06-9.83,1.56-12.66,5.29-.11.15.1.3.23.23a63.06,63.06,0,0,1,12.51-5A.29.29,0,0,0,431.58,418.49Z" style="fill:#263238"></path><path d="M381,423.49c-5.11,0-5.09,8,0,7.95S386.08,423.47,381,423.49Z" style="fill:#263238"></path><path d="M425.94,402.23c-2.32-1.91-5.22,0-6.64,1.94a24.32,24.32,0,0,0-3.79,9.09c-.1.46-.17.92-.23,1.36a5.11,5.11,0,0,1-.07.58s0,0,0,0v.16c0,.16,0,.32,0,.47a.12.12,0,0,0,.15.12.59.59,0,0,0,.46.44.42.42,0,0,0,.35-.07l2.77-1.85c.17-.09.32-.2.49-.31a24.56,24.56,0,0,0,6.19-5.27C427,407.05,428.11,404,425.94,402.23Zm-5.58,9.68c-.76.56-1.53,1.1-2.29,1.64s-1.28.92-1.92,1.4a2.73,2.73,0,0,0-.25.2l-.25.18.09-.27s0,0,0,0l.61-1.77a44.69,44.69,0,0,1,1.84-4.69,27.59,27.59,0,0,1,1.65-3.08c1-1.5,5.47-5.31,5.92-.35C426,407.86,422.22,410.56,420.36,411.91Z" style="fill:#263238"></path><path d="M416.16,415.57c.06,0,.07-.12,0-.2a1.74,1.74,0,0,0-.27-.22.37.37,0,0,0-.11-.11s0,0,0,0a3,3,0,0,0-.48-.41,15.07,15.07,0,0,0-1.85-1.35,23.84,23.84,0,0,0-8.3-3.48c-2.39-.47-5.78.19-6.13,3.16a1.72,1.72,0,0,0,0,.32c-.1,2.6,2.65,3.93,4.88,4.28a23.12,23.12,0,0,0,7.08-.29c1.62-.27,3.25-.61,4.84-.86h0A.55.55,0,0,0,416.16,415.57Zm-6.44.54c-2.29.31-6.91,1-8.62-1.16a3.62,3.62,0,0,1-.85-1.68c-.37-2.31,3.92-2.47,5.38-2.13a25.82,25.82,0,0,1,3.33,1.07c.82.31,1.62.67,2.41,1.06,1.3.61,2.56,1.29,3.84,1.93h0a1.79,1.79,0,0,0,.24.12l-.26,0c-.23,0-.44,0-.67.06C412.93,415.63,411.34,415.9,409.72,416.11Z" style="fill:#263238"></path><path d="M289.1,223.89S276.21,253,269.62,260.28c0,0-52.12,82.37-72.94,94s-70.56,37.57-70.56,37.57l-19.44-28s32.72-34.14,60.11-41.16c5.21-1.34,48.46-68.65,48.51-70.52.51-19.51,22.12-38.37,22.12-38.37Z" style="fill:#d3766a"></path><path d="M48.91,434.36c0-2.51,22.23-67,24.64-68.92.39-.32,14.26,5.32,20.92,6.94l19.38-13.54,12.27,33L80.78,413.16s-19,20.32-21.88,22.14S48.88,436.88,48.91,434.36Z" style="fill:#d3766a"></path><path d="M107.32,400.66l-26.54,12.5s-19,20.32-21.88,22.14-10,1.58-10-.94,22.23-67,24.64-68.92c.39-.32,14.26,5.32,20.92,6.94l5.59-3.91Z" style="fill:#ebebeb"></path><polygon points="105.42 401.56 104.48 402 97.56 370.22 98.45 369.59 105.42 401.56" style="fill:#FFA52E"></polygon><polygon points="103.26 402.57 102.33 403.01 95.51 371.65 96.39 371.04 103.26 402.57" style="fill:#FFA52E"></polygon><path d="M48.85,434.65c0-2.5,21.92-67.66,24.31-69.58.9-.73,10.66,2.67,21.31,7.31L80.84,413.76s-19.19,20-22,21.82S48.83,437.15,48.85,434.65Z" style="fill:#FFA52E"></path><path d="M51.74,434.62c4-10.68,19-54.1,22.07-64.95,0-.09,0-.11-.07,0-4.16,10.5-18.8,54-22.18,64.92C51.49,434.78,51.65,434.84,51.74,434.62Z" style="fill:#263238"></path><path d="M62.54,432.25a9.17,9.17,0,0,0-.41-7.35,8.9,8.9,0,0,0-4.92-4.38c-.07,0-.11.1-.05.13A10.57,10.57,0,0,1,62.4,432.2C62.38,432.29,62.51,432.33,62.54,432.25Z" style="fill:#263238"></path><path d="M78.6,416.77c1.54-4.29,1.74-9.81-.86-13.7-.1-.15-.31,0-.29.14a63,63,0,0,1,.6,13.45A.28.28,0,0,0,78.6,416.77Z" style="fill:#263238"></path><path d="M76.16,419.65c1.54-4.29,1.74-9.81-.86-13.7-.1-.15-.31,0-.29.14a63,63,0,0,1,.6,13.45A.28.28,0,0,0,76.16,419.65Z" style="fill:#263238"></path><path d="M73.72,422.53c1.54-4.29,1.74-9.81-.86-13.7-.1-.15-.32,0-.29.14a63,63,0,0,1,.59,13.45A.29.29,0,0,0,73.72,422.53Z" style="fill:#263238"></path><path d="M71.28,425.41c1.54-4.29,1.74-9.81-.86-13.7-.1-.15-.32,0-.29.14a63,63,0,0,1,.59,13.45A.29.29,0,0,0,71.28,425.41Z" style="fill:#263238"></path><path d="M83.09,375.92c1.65-4.83-5.87-7.4-7.52-2.56S81.44,380.77,83.09,375.92Z" style="fill:#263238"></path><path d="M88.49,425.38c2.57-1.56,1.74-4.92.33-6.9a23.93,23.93,0,0,0-7.35-6.55c-.4-.25-.81-.47-1.21-.67-.18-.07-.36-.17-.52-.25s0,0,0,0l-.15-.05-.43-.19a.13.13,0,0,0-.17.11.55.55,0,0,0-.56.29.41.41,0,0,0,0,.35c.29,1,.56,2.13.84,3.22,0,.19.09.37.13.56a24.89,24.89,0,0,0,3,7.58C83.59,424.83,86.07,426.85,88.49,425.38ZM81.16,417c-.27-.9-.53-1.81-.79-2.7s-.46-1.51-.7-2.27a2.24,2.24,0,0,0-.11-.31l-.09-.29.23.18,0,0c.5.39,1,.78,1.48,1.15A45.73,45.73,0,0,1,85,416a25.93,25.93,0,0,1,2.36,2.56c1.1,1.43,3.24,6.9-1.59,5.71C83.14,423.63,81.84,419.15,81.16,417Z" style="fill:#263238"></path><path d="M79.08,411.78a.13.13,0,0,0,.18.08,1.41,1.41,0,0,0,.3-.19.2.2,0,0,0,.14-.07s0,0,0,0a2.85,2.85,0,0,0,.54-.32A14.46,14.46,0,0,0,82.15,410a23.75,23.75,0,0,0,6-6.7c1.23-2.11,1.72-5.53-1-6.83a1.48,1.48,0,0,0-.29-.12c-2.43-.94-4.59,1.22-5.64,3.21a22.85,22.85,0,0,0-2,6.78c-.28,1.63-.49,3.28-.77,4.87v0A.55.55,0,0,0,79.08,411.78Zm1.59-6.26c.46-2.27,1.32-6.86,3.91-7.77a3.68,3.68,0,0,1,1.87-.26c2.3.41,1,4.52.25,5.79a26.79,26.79,0,0,1-2.09,2.8c-.57.67-1.16,1.31-1.79,1.93-1,1-2,2-3.08,3h0a1.7,1.7,0,0,0-.19.19,1.09,1.09,0,0,0,0-.26c.06-.22.11-.42.16-.65C80.08,408.71,80.34,407.11,80.67,405.52Z" style="fill:#263238"></path><path d="M289.1,223.89l-51.68-10.1-11.77,9.81s-16.07,3.07-23.63,8.52c-11.11,8-8.81,17.86-5.72,22.06,9.15,12.41,42.79,38.79,60.44,37.87,17-.89,29.78-17.22,37.62-21.71s21,1.63,21.11.87c.41-2.16-.83-6.11-3.56-11.07-1.7-3.09-22.2-22.17-22.2-22.17Z" style="fill:#FFA52E"></path><path d="M289.44,237.78c-.81.11-1.6.32-2.41.46s-1.73.28-2.59.44q-2.61.47-5.24.77A79.19,79.19,0,0,1,269,240a83.4,83.4,0,0,1-20.49-2.78,72.23,72.23,0,0,1-11.27-3.82.08.08,0,0,0-.07.14,80.11,80.11,0,0,0,9.64,4.21,67.59,67.59,0,0,0,10.11,2.61,69.9,69.9,0,0,0,21,.5c1.93-.25,3.84-.56,5.73-1,1-.21,2-.46,2.95-.76a25.09,25.09,0,0,0,2.89-1C289.67,238.07,289.67,237.75,289.44,237.78Z" style="fill:#263238"></path><path d="M289.55,233.19q-12.12-1.33-24.26-2.14c-2.31-.15-4.62-.26-6.93-.41-.1,0-.09.16,0,.17,8.07,1.08,16.14,1.95,24.25,2.35,2.31.11,4.63.16,6.94.21C289.65,233.37,289.64,233.2,289.55,233.19Z" style="fill:#263238"></path><path d="M286.61,229.88c-3.19-.52-6.45-.77-9.67-1s-6.59-.43-9.88-.69c-.1,0-.09.15,0,.16,3.26.32,6.5.74,9.76,1.07s6.51.65,9.76.71A.11.11,0,0,0,286.61,229.88Z" style="fill:#263238"></path><path d="M276.77,251.92a55.64,55.64,0,0,0-10.44,11.59c-3.22,4.63-6.24,9.39-9.22,14.18-1.76,2.84-3.53,5.67-5.19,8.57,0,.09.09.2.16.11,3.51-4.62,6.83-9.41,10.08-14.22,3-4.47,5.9-9,9.12-13.36A55.86,55.86,0,0,1,277,252.1C277.09,252,276.9,251.81,276.77,251.92Z" style="fill:#263238"></path><path d="M286.07,253.57a77,77,0,0,0-9.46,5.9c-1.46,1.06-2.87,2.19-4.25,3.35-.7.59-1.4,1.19-2.06,1.82s-1.32,1.38-2,2c-.06.06,0,.18.1.12,1.43-1.12,3-2.11,4.46-3.19s3-2.15,4.47-3.22q4.5-3.21,9.08-6.29A.3.3,0,0,0,286.07,253.57Z" style="fill:#263238"></path><path d="M228,221.58c-3.23,2.38-6.38,4.85-9.53,7.32-1.59,1.25-3.16,2.51-4.73,3.77l-2.26,1.81a13.73,13.73,0,0,0-2.22,1.93c-.05.07,0,.19.09.15a12.66,12.66,0,0,0,2.46-1.54c.79-.55,1.57-1.11,2.35-1.67,1.66-1.2,3.31-2.42,4.92-3.68,3.15-2.48,6.24-5,9.17-7.78C228.39,221.74,228.17,221.45,228,221.58Z" style="fill:#263238"></path><path d="M295.09,169.77c9.08,7.19,51,46.51,59.44,54.08,5,4.54-12.4,24.93-16.7,23.18-2.66-1.08-49.1-60.14-53.49-72.18C279.62,161.88,289.53,165.36,295.09,169.77Z" style="fill:#d3766a"></path><path d="M332.45,239.45c-.88-3.39,17.38-17.43,20.86-16.52a14.53,14.53,0,0,1,3.19,1.67h0a51,51,0,0,0,14.85.71c5.89-.78,14.55-2.61,15.08.54.8,4.59-9.87,8.23-16.12,9.94,2.48,2.51,4.38,4.89,5,6.69,2,6-23.54,18.19-28.9,14.72C341.22,253.83,333.33,242.83,332.45,239.45Z" style="fill:#d3766a"></path><path d="M446.89,186.27C440,175,421.7,165.12,402.26,176.94c-13.89,8.44-17.75,16.77-21.46,26.05-2.36,5.95-2.34,12.87-3.44,14.49-4.53,6.68-16.15,16.59-16.15,16.59l3.79,6.24s14.15-5.75,22.16-6.7c1.95-.23,8.09,3,14.45,3.62,9.95,1,19.12,1.39,33-7C454.07,218.36,453.75,197.56,446.89,186.27Zm-66.3,45.94c-4.44,1.16-14.45,5.09-14.45,5.09l-1.74-2.86s8.1-7.07,11.18-10.49c1.36-1.5,4.19-4.55,4.19-4.55a17.54,17.54,0,0,0,6.8,11.18S382.55,231.69,380.59,232.21Zm4.71-8.5c-6.6-10.86-1.62-31.69,17.71-43.43s35.8-.64,40.92,7.79S451.33,216.24,432,228,391.9,234.56,385.3,223.71Z" style="fill:#263238"></path><path d="M419.11,175.11l-.16.09h.21ZM444,216a1.09,1.09,0,0,1-.08.15l.13-.08Z" style="fill:#263238"></path><rect x="358.04" y="236.47" width="7.58" height="3" transform="translate(377.24 -194.82) rotate(58.71)" style="fill:#FFA52E"></rect><rect x="358.04" y="236.47" width="7.58" height="3" transform="translate(377.24 -194.82) rotate(58.71)" style="fill:#fff;opacity:0.5"></rect><rect x="340.64" y="230.15" width="9.23" height="35.77" transform="translate(377.88 -175.83) rotate(58.71)" style="fill:#FFA52E"></rect><polygon points="362.94 242.68 362.45 242.98 354.03 237.3 354.83 236.82 362.52 242 362.94 242.68" style="fill:#fff;opacity:0.30000000000000004"></polygon><polygon points="357.1 246.24 348.68 240.56 349.48 240.07 357.9 245.75 357.1 246.24" style="fill:#fff;opacity:0.30000000000000004"></polygon><polygon points="351.74 249.49 343.32 243.81 344.12 243.33 352.54 249 351.74 249.49" style="fill:#fff;opacity:0.30000000000000004"></polygon><polygon points="346.39 252.74 337.97 247.07 338.77 246.58 347.19 252.26 346.39 252.74" style="fill:#fff;opacity:0.30000000000000004"></polygon><polygon points="341.04 256 332.61 250.32 333.41 249.84 341.83 255.51 341.04 256" style="fill:#fff;opacity:0.30000000000000004"></polygon><polygon points="336.48 258.76 335.68 259.25 327.99 254.07 327.57 253.39 328.07 253.09 336.48 258.76" style="fill:#fff;opacity:0.30000000000000004"></polygon><path d="M420.34,175.19,388.07,194.8c.3-.47.59-.92.9-1.38l30.14-18.31.05.08Z" style="fill:#263238"></path><path d="M430.18,177.1l-46.69,28.38c.07-.33.17-.67.27-1l45.56-27.7Z" style="fill:#263238"></path><path d="M437,180.84l-54.47,33.1c0-.27,0-.54,0-.82l53.85-32.73Z" style="fill:#263238"></path><path d="M442.16,185.61,384,221c-.09-.22-.18-.45-.25-.68l58-35.24C441.86,185.24,442,185.42,442.16,185.61Z" style="fill:#263238"></path><path d="M445.58,191.42l-58,35.25c-.16-.17-.33-.35-.48-.53l58.2-35.38C445.39,191,445.48,191.2,445.58,191.42Z" style="fill:#263238"></path><path d="M447.28,198.28,393.41,231l-.71-.39,54.48-33.12C447.22,197.76,447.26,198,447.28,198.28Z" style="fill:#263238"></path><path d="M447.23,206.21l-45.59,27.71c-.34-.06-.68-.13-1-.21l46.73-28.41C447.32,205.6,447.28,205.9,447.23,206.21Z" style="fill:#263238"></path><path d="M444,216.06,413.84,234.4c-.54.06-1.08.12-1.62.16l32.31-19.65q-.25.54-.57,1.08Z" style="fill:#263238"></path><path d="M447,196.33l-9-14.75c.61.48,1.19,1,1.73,1.48l6.72,11.06C446.66,194.83,446.83,195.56,447,196.33Z" style="fill:#263238"></path><path d="M446.73,208.91l-20-32.89,1,.27L447,207.9C446.88,208.24,446.81,208.57,446.73,208.91Z" style="fill:#263238"></path><path d="M443.56,216.7l-25.21-41.48.6,0,.16-.09L444,216.06l-.13.08Z" style="fill:#263238"></path><path d="M439.14,222.4l-27.89-45.88.7-.21,27.69,45.56C439.48,222.05,439.31,222.23,439.14,222.4Z" style="fill:#263238"></path><path d="M433.9,226.77,405,179.17c.2-.12.41-.23.62-.34l28.89,47.53Z" style="fill:#263238"></path><path d="M428.69,229.83c-.21.11-.42.22-.64.31l-28.78-47.35.57-.42Z" style="fill:#263238"></path><path d="M422.4,232.46l-.7.23-27.61-45.43.52-.52Z" style="fill:#263238"></path><path d="M415.53,234.15l-.75.12-25.29-41.59c.15-.22.3-.42.46-.62Z" style="fill:#263238"></path><path d="M408,234.67c-.28,0-.56,0-.85,0l-21.45-35.29c.11-.27.23-.52.35-.78Z" style="fill:#263238"></path><path d="M399.25,233.35l-1-.3L383,207.93c.06-.35.12-.69.19-1.05Z" style="fill:#263238"></path><path d="M386.7,225.68a17.64,17.64,0,0,1-1.4-2,17.38,17.38,0,0,1-1.1-2.15Z" style="fill:#263238"></path><path d="M370.41,233.89c-3.27-.1-1.52,3.81-1.52,3.81s-3.87-5-7.28-3.83-1,5.81-.85,6.14c-.2-.26-3.88-4.78-7.18-3.23s-.34,5.89-.14,6.17c-.28-.19-3.94-2.61-6.18-.86-3.85,3,5.34,9.45,5.86,13.38,0,0-6.54,1.63-6.72,1.72,0,0,8.62,6.31,13.87,5.32a3.42,3.42,0,0,0,2.82-3.21s2.55,2.34,5.19,1.2c1.35-.59,1.61-3.27,1.61-3.27a4.27,4.27,0,0,0,4.41.62c1.82-.92,1.8-3.47,1.8-3.47s2.84.77,4.4-.77C383.65,250.5,377.4,234.12,370.41,233.89Z" style="fill:#d3766a"></path><path d="M376.6,253.45a.05.05,0,0,0,.1,0A30.46,30.46,0,0,0,369.26,237c-.13-.15-.42,0-.31.19A62,62,0,0,1,376.6,253.45Z" style="fill:#263238"></path><path d="M370.4,256.77c0,.06.13,0,.12,0a28.5,28.5,0,0,0-9.23-17.48c-.18-.16-.5-.11-.3.08C364.28,242.57,368.84,251.32,370.4,256.77Z" style="fill:#263238"></path><path d="M353.4,242.23c4.91,4.49,7.89,10.09,10.12,16.29,0,.08.14,0,.13,0-.26-3.33-2.1-7.13-3.77-10a17.54,17.54,0,0,0-6.32-6.45C353.45,242,353.3,242.14,353.4,242.23Z" style="fill:#263238"></path><path d="M369.35,237.06c-.16-.17-.23.25-.4.08-.69-.7-5.26-4.55-7.05-3.4-1.44.93-1.2,3.5-.72,4.45l1.21,2.39-2-1.83a11.07,11.07,0,0,0-2.95-2,3.87,3.87,0,0,0-3.19-.21,2.23,2.23,0,0,0-1.42,2.43,6.75,6.75,0,0,0,1.42,3.09l1.92,2.53-2.63-1.75a10.35,10.35,0,0,0-2.35-1.18,4.25,4.25,0,0,0-2.45-.19,2,2,0,0,0-1.46,1.54,4.52,4.52,0,0,0,.56,2.43,34.85,34.85,0,0,0,3,4.62c.54.76,1.08,1.52,1.58,2.31a6.57,6.57,0,0,1,1.13,2.55,7.33,7.33,0,0,0-1.34-2.41c-.55-.73-1.15-1.45-1.74-2.16a29.19,29.19,0,0,1-3.29-4.57,5.23,5.23,0,0,1-.77-2.89,2.87,2.87,0,0,1,2.08-2.36,5.18,5.18,0,0,1,3,.17,11,11,0,0,1,2.64,1.26l-.71.78a7.89,7.89,0,0,1-1.71-3.63,3.27,3.27,0,0,1,.43-2.16,3.75,3.75,0,0,1,1.66-1.4,5,5,0,0,1,4,.27,11.87,11.87,0,0,1,3.2,2.23l-.76.57c-.57-1.23-1.15-4.07.89-5.78C364.24,231,368.62,236.08,369.35,237.06Z" style="fill:#263238"></path><path d="M369.33,237.17a6.62,6.62,0,0,1-.14-2,1.49,1.49,0,0,1,.85-1.28,3.1,3.1,0,0,1,1.75,0c.64.14,1.31.32,2,.53a5.25,5.25,0,0,0-1.79-1.21,3.08,3.08,0,0,0-2.34-.11,2.27,2.27,0,0,0-1,.89,2.19,2.19,0,0,0-.23,1.21A3.49,3.49,0,0,0,369.33,237.17Z" style="fill:#263238"></path><path d="M289.55,120.76a5.83,5.83,0,0,0-1.82-1.36c-3.14-1.47-6.71-.45-9.62,1-3.11,1.61-6.07,4-9.61,4.54a5.72,5.72,0,0,1-4.05-.71,5.29,5.29,0,0,1-2.07-3.91c-.24-1.59-.17-3.54-1.4-4.77a4.53,4.53,0,0,0-4-1c-3.53.6-5.79,4-8.66,5.86A18.22,18.22,0,0,1,238,123.33a17.57,17.57,0,0,1-9.53-3.24,17.28,17.28,0,0,1-3.64-3.4c-1.14-1.46-2-3.14-3-4.65a6.45,6.45,0,0,0-4.21-3c-1.39-.15-6,2.08-8.92,7.69-.21.4-.92,0-.85-.48a21.08,21.08,0,0,1,.48-2.75,24.28,24.28,0,0,1,14.39-16.81,25.22,25.22,0,0,1,12.12-1.66,41.67,41.67,0,0,0,6.87.53,12.77,12.77,0,0,0,5.69-1.89c3.33-2,6.14-4.76,9.81-6.17a21.44,21.44,0,0,1,10.35-1.12,25.21,25.21,0,0,1,17.63,11.35C289.07,103.78,289.84,121.07,289.55,120.76Z" style="fill:#263238"></path><path d="M289.39,120.59a9.89,9.89,0,0,0-3.87-2.25,8.13,8.13,0,0,0-4,0c-3,.75-5.36,2.63-7.78,4.4s-4.77,3.32-7.69,3.39a6.63,6.63,0,0,1-3.6-.86,5.19,5.19,0,0,1-2.24-3.28c-.64-2.45-.66-5.74-3.31-7s-5.42.67-7.51,2c-5.08,3.29-11.18,8.3-17.66,5.87-3.28-1.23-6.16-3.86-8.42-6.46-1.64-1.88-3.69-4.27-6.41-4.18-.1,0-.08.15,0,.15,2.88-.05,4.53,2.71,6.12,4.69a23.73,23.73,0,0,0,6.78,6,11.58,11.58,0,0,0,8.69,1,27.13,27.13,0,0,0,8.25-4.15c1.31-.89,2.6-1.81,3.94-2.67a9.94,9.94,0,0,1,4-1.7,3.38,3.38,0,0,1,3.52,1.93,18,18,0,0,1,1.14,4.27A6.87,6.87,0,0,0,261,125.2a6.21,6.21,0,0,0,2.78,1.51,9.77,9.77,0,0,0,7-1c3-1.61,5.43-4.17,8.49-5.72a9.78,9.78,0,0,1,5.09-1.24,9.91,9.91,0,0,1,4.8,2.17A.19.19,0,0,0,289.39,120.59Z" style="fill:#263238"></path><path d="M285.59,94.59c-3.9-6.23-11.29-9.43-18.48-9.08A25.41,25.41,0,0,0,255.72,89c-3.25,1.87-6.31,4.23-9.93,5.37-4,1.27-8,.11-12-.43a22.77,22.77,0,0,0-9.67.79,24.15,24.15,0,0,0-14.18,11.73c-.37.71-.71,1.44-1,2.18a.08.08,0,0,0,.15.06,23.23,23.23,0,0,1,13.45-12.52,22.72,22.72,0,0,1,9.09-1.41c3.82.21,7.53,1.55,11.39,1.25,3.61-.28,6.81-2.17,9.8-4.07,3.26-2.07,6.49-4.1,10.31-5,7.08-1.65,14.87.28,19.87,5.71,5.57,6,6.35,14.58,6.12,22.43,0,1-.07,2.1-.12,3.14,0,.12.18.15.19,0C289.81,110.31,290,101.62,285.59,94.59Z" style="fill:#263238"></path><path d="M293.79,119.75c-.1-1.23-1.17-2.72-2-2.85s-6.45,3.1-6.78,4.67,2.45,2.62,2.45,2.62Z" style="fill:#FFA52E"></path><path d="M292.72,208.25l-3.62,15.64-51.68-10.1s14.43-40.22,34.56-50.1c10.06-4.93,18.15-1.13,21.36,6.3.82,1.88,5.9,21.85,4.45,30.58C296.49,208.27,292.72,208.25,292.72,208.25Z" style="fill:#d3766a"></path><path d="M298.24,199.78c-1.3,7.69-5.71,9.26-5.71,9.26L289.1,223.9,234,210.26c2.22-8.76,22.64-39.16,38-46.57a23.43,23.43,0,0,1,5.2-1.84c-.66,7.34,4.13,15,8.11,15.76,3.36.67,8.27-4.62,7.36-9a11.56,11.56,0,0,1,.7,1.41C294.16,171.88,299.69,191,298.24,199.78Z" style="fill:#455a64"></path><path d="M273.7,201a47.64,47.64,0,0,1,7.86,3.2c1.25.66,2.46,1.4,3.66,2.17.6.38,1.21.74,1.83,1.09a7.35,7.35,0,0,0,2,.89c.06,0,0,.13,0,.12a12.41,12.41,0,0,1-2-.44,12.65,12.65,0,0,1-1.85-.81c-1.27-.67-2.52-1.4-3.79-2.08-2.56-1.37-5.11-2.74-7.76-3.88C273.5,201.16,273.58,200.9,273.7,201Z" style="fill:#263238"></path><path d="M266.35,202.56a51.39,51.39,0,0,1,6.89.93,32.68,32.68,0,0,1,3.36.91c.53.16,1.06.34,1.58.53s1.13.51,1.7.7c.06,0,0,.14,0,.12-.55-.16-1.13-.22-1.7-.34l-1.69-.39c-1.13-.25-2.26-.49-3.38-.75-2.26-.54-4.51-1-6.79-1.48C266.18,202.77,266.23,202.56,266.35,202.56Z" style="fill:#263238"></path><path d="M280.89,163c0,1.15,3.88,9.3,8.94,10,1.65.25,3.37-8.7,3.37-8.7l.28-.63,3.87-8.84-9.49-9.09-1.39-1.23s-.9,2.49-2,5.6l-.16.44c-.06.17-.13.34-.18.5-.17.46-.34.94-.5,1.41s-.25.71-.36,1.1-.24.75-.37,1.13A62,62,0,0,0,280.89,163Z" style="fill:#d3766a"></path><path d="M284.48,150.12a19.35,19.35,0,0,0,9,13.56l3.87-8.84-9.49-9.09-1.39-1.23S285.57,147,284.48,150.12Z" style="fill:#263238"></path><path d="M313.16,142.83c-2.78,16.71-13.1,16.93-16.71,16.33-3.27-.55-14.33-2.83-13.29-19.74s9.69-20.9,17.24-20S316,126.12,313.16,142.83Z" style="fill:#d3766a"></path><path d="M310.65,141.31c-.41,0-.78-.1-1.18-.15a2,2,0,0,1-1.18-.38.62.62,0,0,1-.06-.75,1.53,1.53,0,0,1,1.47-.48,2.27,2.27,0,0,1,1.46.68A.65.65,0,0,1,310.65,141.31Z" style="fill:#263238"></path><path d="M300,137a11.74,11.74,0,0,0,1.18.1,1.91,1.91,0,0,0,1.23-.13.61.61,0,0,0,.22-.72,1.52,1.52,0,0,0-1.34-.77,2.29,2.29,0,0,0-1.57.36A.65.65,0,0,0,300,137Z" style="fill:#263238"></path><path d="M301.4,141.42s-.1,0-.11.08c-.28,1.14-.78,2.4-1.91,2.5,0,0-.05.06,0,.06C300.67,144.23,301.33,142.55,301.4,141.42Z" style="fill:#263238"></path><path d="M300.71,140c-1.78-.63-2.92,3-1.27,3.57S302.21,140.49,300.71,140Z" style="fill:#263238"></path><path d="M299.94,139.93c-.38.1-.8.37-1.19.28s-.67-.57-.84-1c0-.05-.06,0-.08,0a1.38,1.38,0,0,0,.53,1.82c.64.31,1.32-.15,1.72-.79C300.15,140.11,300.1,139.89,299.94,139.93Z" style="fill:#263238"></path><path d="M307.75,143s.07.08.05.13c-.37,1.11-.62,2.45.29,3.13,0,0,0,.08,0,.06C306.87,145.76,307.21,144,307.75,143Z" style="fill:#263238"></path><path d="M309.11,142.12c1.84.41.89,4.08-.82,3.7S307.55,141.78,309.11,142.12Z" style="fill:#263238"></path><path d="M309.81,142.56c.24.27.43.7.77.81s.8-.19,1.15-.5c0,0,.06,0,0,0-.16.71-.59,1.38-1.3,1.34s-.94-.76-.92-1.5C309.56,142.62,309.71,142.45,309.81,142.56Z" style="fill:#263238"></path><path d="M298.42,150.36c.17.35.3.8.69,1a3,3,0,0,0,1.29.16s.06.05,0,.07a1.57,1.57,0,0,1-1.62.09,1.24,1.24,0,0,1-.51-1.29C298.3,150.3,298.4,150.3,298.42,150.36Z" style="fill:#263238"></path><path d="M300.14,147.63a3.89,3.89,0,0,0,2.17,2.27,4.8,4.8,0,0,0,1.36.37l.27,0h.25a.29.29,0,0,0,.28-.2h0a.6.6,0,0,0,0-.12h0l0-.1c.21-.86.42-2.19.42-2.19.28.23,1.73,1.31,1.81.85a59.69,59.69,0,0,0,1.09-11.88c0-.13-.2-.14-.21,0-.73,3.62-.82,7.33-1.5,11a7,7,0,0,0-1.68-.94c-.13,0-.35,2.58-.48,3a.06.06,0,0,1,0,0,5.44,5.44,0,0,1-3.68-2.1C300.19,147.47,300.09,147.53,300.14,147.63Z" style="fill:#263238"></path><path d="M302.87,149.74a3.93,3.93,0,0,1-1.86.67,1.76,1.76,0,0,1-1-.26c-.67-.43-.47-1.11-.15-1.64a4.22,4.22,0,0,1,.61-.78A5.06,5.06,0,0,0,302.87,149.74Z" style="fill:#263238"></path><path d="M301,150.41a1.76,1.76,0,0,1-1-.26c-.67-.43-.47-1.11-.15-1.64A1.8,1.8,0,0,1,301,150.41Z" style="fill:#ff9cbd"></path><path d="M284.66,140c3.42.76,5.4-7.08,5.4-7.08s6,.27,9.31-3.12c0,0-2.39,3-5,3.92-.43.15,11.53,1.71,14.74-7.08,0,0-.36,9.34,4.55,12.43.23.15,1.11-8.32-.16-10.64a17.32,17.32,0,0,0-2.67-3.7,17.11,17.11,0,0,0-11.51-6.1c-7.43-.64-13.9,5.88-15.17,8.88C281.67,133.41,283,139.64,284.66,140Z" style="fill:#263238"></path><path d="M294.73,134c6.44,1.22,12.47-1.7,14.53-8.16a.14.14,0,0,1,.28.06c-.69,6.89-9,10.1-14.9,8.2C294.5,134.06,294.58,134,294.73,134Z" style="fill:#263238"></path><path d="M284.76,139.64c3.87-1,5.24-4.36,6.32-7.86,0-.1.21-.07.19,0-.76,3.51-2.38,7.64-6.45,8.14A.16.16,0,0,1,284.76,139.64Z" style="fill:#263238"></path><path d="M309.51,125.29a0,0,0,0,1,.07,0c-.08,3.87-1.37,10.14,3.09,12.17a.1.1,0,0,1-.08.19C308.14,136.1,308.13,129,309.51,125.29Z" style="fill:#263238"></path><path d="M288.31,132.54a43.24,43.24,0,0,0-5.84,3.77s-.37-3.36.63-5.23a43,43,0,0,1,13.59-6Z" style="fill:#FFA52E"></path><path d="M284.81,134.65s11.87-10.92,17.28-12.45,16.12-.09,21.52,5.08c4.22,4-9.5,8.19-9.5,8.19a6.47,6.47,0,0,0-1.6-3.72c-2.68-2.35-8.85-3-12.57-2.7C295.27,129.44,284.81,134.65,284.81,134.65Z" style="fill:#FFA52E"></path><path d="M284.81,134.65s11.87-10.92,17.28-12.45,16.12-.09,21.52,5.08c4.22,4-9.5,8.19-9.5,8.19a6.47,6.47,0,0,0-1.6-3.72c-2.68-2.35-8.85-3-12.57-2.7C295.27,129.44,284.81,134.65,284.81,134.65Z" style="opacity:0.2"></path><path d="M286.19,141.06s-2-6.14-4.65-5.59-2.29,8.7.09,10.53a2.87,2.87,0,0,0,4.12-.34Z" style="fill:#d3766a"></path><path d="M281.71,137.8s-.07,0,0,.07c1.65,1.35,2.11,3.41,2.24,5.44a1.58,1.58,0,0,0-2.13-1.12.06.06,0,0,0,0,.12,1.76,1.76,0,0,1,1.67,1.16,8.29,8.29,0,0,1,.42,1.77c0,.2.37.2.37,0v0C285.05,142.79,284.22,138.84,281.71,137.8Z" style="fill:#263238"></path><path d="M268.21,160.43c-23.3-2.24-44.11-.54-49.82,1.14-5.17,1.53-27.7,12.28-36.3,18.9-2.81,2.16,12.25,26.5,15.38,24.35,6.33-4.36,29.25-20,32.56-21.57,3.06-1.48,24.21-6.59,36.28-9.4C277.92,171.16,279.34,161.5,268.21,160.43Z" style="fill:#d3766a"></path><path d="M270.65,178.16c-2.86,3.05-8.14,4.69-11.15,3.64-2.46-.86-3-3.88-1.18-7.15,3.12-5.55,12.53-12.63,15.83-11.64C277.94,164.15,275.4,173.07,270.65,178.16Z" style="fill:#d3766a"></path><path d="M262.34,175.66l-1,.06a34.17,34.17,0,0,0,3.35-1.18s0-.07,0-.06c-1.78.38-2.3.47-4.06,1-.84.23-1.53.48-2.36.74s-.76.39.14.2,1.22-.17,2-.38h.72c.4,0,.8-.06,1.2-.11C263.12,175.77,263.13,175.63,262.34,175.66Z" style="fill:#263238"></path><path d="M198.23,203.18s-5.89,9.46-10,15.47c-2.31,3.35-6.79,8.74-9.61,10.43-4.22,2.52-23.5,10.36-25.5,5.73-1.81-4.19,15.6-8.83,15.6-8.83s-17.16,6.24-18.41.79,19.11-8.08,19.11-8.08-17.77,6-18.17.19c-.31-4.41,18-7.82,18-7.82s-15.31,5.06-15.82.54c-.57-5,16.14-9.2,16.14-9.2.64-11.69,5.69-19.63,13.21-22.53C184,179.41,198.23,203.18,198.23,203.18Z" style="fill:#d3766a"></path><path d="M174.76,224.2c-2,.81-4,1.64-6,2.26s-4.13,1.19-6.23,1.62a36.81,36.81,0,0,1-8.34.9c5-.33,12.37-2.46,14.42-3.08s4.13-1.15,6.18-1.77C174.79,224.11,174.81,224.19,174.76,224.2Z" style="fill:#263238"></path><path d="M172.64,216.75c-2.59.92-5.12,1.92-7.74,2.73s-5.16,1.33-7.83,2c-.2,0-.16-.08.05-.14,2.63-.72,5-1.59,7.63-2.35s5.29-1.41,7.87-2.25C172.66,216.67,172.68,216.73,172.64,216.75Z" style="fill:#263238"></path><path d="M172,210a61.53,61.53,0,0,1-12.16,3.27c-.21,0-.13-.12.07-.17,4.06-1,7.26-1.77,12-3.23C172,209.86,172.05,210,172,210Z" style="fill:#263238"></path></g></svg>