<svg xmlns="http://www.w3.org/2000/svg" viewBox="0 0 750 500"><g id="freepik--background-complete--inject-459"><path d="M452.53,276.23c0,.76,0,1.53,0,2.28H297.35c0-.75,0-1.52,0-2.28a77.61,77.61,0,1,1,155.22,0Z" style="fill:#ebebeb"></path><path d="M237.33,272.08c4.52-.21,9-.3,13.56-.38s9-.08,13.55-.12,9,0,13.56.12l6.78.14c2.26.08,4.52.13,6.78.24-2.26.11-4.52.16-6.78.25l-6.78.14c-4.52.07-9,.07-13.56.11s-9,0-13.55-.12S241.85,272.29,237.33,272.08Z" style="fill:#ebebeb"></path><path d="M374.93,188.43c-.21-7-.3-14-.38-21.06l-.12-21.06.12-21,.13-10.53c.09-3.51.14-7,.25-10.53.11,3.51.16,7,.25,10.53l.13,10.53.12,21-.12,21.06C375.23,174.39,375.14,181.41,374.93,188.43Z" style="fill:#ebebeb"></path><path d="M333.19,199.69c-2.46-3.86-4.83-7.77-7.19-11.69s-4.63-7.87-6.95-11.81-4.54-7.93-6.76-11.93l-3.3-6c-1.07-2-2.17-4-3.22-6.06,1.24,1.92,2.43,3.88,3.64,5.82l3.55,5.86c2.35,3.92,4.64,7.88,7,11.82s4.54,7.93,6.76,11.93S331.09,195.62,333.19,199.69Z" style="fill:#ebebeb"></path><path d="M302.67,230.3c-6.18-3.33-12.3-6.75-18.42-10.19L266,209.68l-18.17-10.63-9.05-5.38c-3-1.83-6-3.62-9-5.48,3.1,1.66,6.16,3.37,9.24,5.05l9.19,5.15,18.29,10.43,18.18,10.63C290.67,223,296.7,226.62,302.67,230.3Z" style="fill:#ebebeb"></path><path d="M458.58,271.8c4.52-.21,9-.3,13.56-.38s9-.08,13.56-.12,9,0,13.55.12l6.78.14c2.26.08,4.52.13,6.78.24-2.26.11-4.52.16-6.78.25l-6.78.14c-4.52.08-9,.07-13.55.11s-9,0-13.56-.12S463.1,272,458.58,271.8Z" style="fill:#ebebeb"></path><path d="M447.33,230.06c6-3.69,12-7.28,18-10.86l18.18-10.63,18.29-10.42L511,193c3.08-1.68,6.14-3.39,9.24-5.05-3,1.85-6,3.65-9,5.48l-9,5.38-18.17,10.63-18.3,10.43C459.63,223.31,453.51,226.73,447.33,230.06Z" style="fill:#ebebeb"></path><path d="M416.71,199.55c2.1-4.05,4.29-8.05,6.5-12s4.49-7.93,6.73-11.9,4.59-7.88,6.94-11.78l3.54-5.85c1.21-1.93,2.39-3.88,3.63-5.8-1.05,2-2.14,4-3.21,6l-3.3,6c-2.21,4-4.49,7.93-6.73,11.9s-4.59,7.87-6.94,11.78S419.16,195.7,416.71,199.55Z" style="fill:#ebebeb"></path><path d="M672.39,386.07a32.07,32.07,0,0,1-4.34.77c-1.46.19-2.92.34-4.38.5l-8.78.86-17.58,1.43-35.16,2.57c-11.72.81-23.45,1.65-35.14,2.72-2.92.28-5.85.56-8.74,1a27,27,0,0,0-4.26.94,16.1,16.1,0,0,0-4,1.69,3.24,3.24,0,0,0-1.36,1.49,2,2,0,0,0,.48,1.86,11.86,11.86,0,0,0,3.41,2.64,64.79,64.79,0,0,0,8,3.6,57.79,57.79,0,0,1-8.15-3.37,12,12,0,0,1-3.58-2.64,2.4,2.4,0,0,1-.59-2.22,3.64,3.64,0,0,1,1.49-1.76,16.37,16.37,0,0,1,4.08-1.83,27.8,27.8,0,0,1,4.33-1c2.91-.47,5.84-.8,8.76-1.13,11.7-1.22,23.43-2.06,35.15-2.95l35.18-2.33,17.59-1.16,8.79-.63,4.39-.39A30.51,30.51,0,0,0,672.39,386.07Z" style="fill:#ebebeb"></path><path d="M107.81,384.87a49.36,49.36,0,0,0,6.86,1c2.3.24,4.61.44,6.91.64q6.93.57,13.85,1l27.72,1.9,55.44,3.75c18.48,1.38,37,2.69,55.39,4.58,4.61.5,9.22,1,13.81,1.74a41.58,41.58,0,0,1,6.79,1.59A25.4,25.4,0,0,1,301,404a5.56,5.56,0,0,1,2.31,2.7,3.09,3.09,0,0,1,0,1.83,4.85,4.85,0,0,1-.88,1.57,12.82,12.82,0,0,1-2.61,2.33,30.43,30.43,0,0,1-3,1.82A95.08,95.08,0,0,1,284,419.61a95.11,95.11,0,0,0,12.69-5.6,28.72,28.72,0,0,0,2.92-1.85,11.94,11.94,0,0,0,2.5-2.31,4.52,4.52,0,0,0,.79-1.46,2.58,2.58,0,0,0,0-1.58,5.14,5.14,0,0,0-2.17-2.43,25.48,25.48,0,0,0-6.29-2.7,43,43,0,0,0-6.73-1.5c-4.57-.68-9.18-1.14-13.78-1.59-18.44-1.73-36.91-3-55.39-4.35l-55.42-4c-9.24-.7-18.47-1.4-27.7-2.18q-6.93-.6-13.84-1.28c-2.3-.25-4.61-.49-6.9-.77A49.21,49.21,0,0,1,107.81,384.87Z" style="fill:#ebebeb"></path><path d="M688.58,334.8a62.1,62.1,0,0,1-8.68,1.43c-2.92.33-5.85.58-8.78.8-5.85.45-11.72.78-17.59,1.08-11.73.56-23.47,1-35.21,1.38s-23.47.84-35.19,1.49c-5.85.35-11.73.68-17.52,1.44a27.55,27.55,0,0,0-4.23.85,6,6,0,0,0-1.82.85.69.69,0,0,0-.19.24.17.17,0,0,0,0,.15,2,2,0,0,0,.63.56,19.54,19.54,0,0,0,3.94,1.64c1.38.46,2.79.88,4.19,1.29,2.81.84,5.64,1.66,8.43,2.62,1.4.49,2.79,1,4.15,1.62a14.34,14.34,0,0,1,3.87,2.38,3.31,3.31,0,0,1,1.14,2.21,2.2,2.2,0,0,1-.08.67,1.54,1.54,0,0,1-.33.65,3.42,3.42,0,0,1-1,.8,18.07,18.07,0,0,1-4.26,1.51c-2.89.69-5.8,1.14-8.71,1.55-11.68,1.53-23.4,2.29-35.12,3.12s-23.45,1.49-35.14,2.5c-2.92.25-5.85.51-8.76.85a66.31,66.31,0,0,0-8.66,1.45,6.83,6.83,0,0,0-2,.81,8.21,8.21,0,0,0-1.55,1.51,6.2,6.2,0,0,0-1.26,4.06,10.49,10.49,0,0,0,1.18,4.19,17.44,17.44,0,0,0,2.43,3.65,18,18,0,0,1-2.5-3.62,10.74,10.74,0,0,1-1.24-4.21,6.34,6.34,0,0,1,1.23-4.2,8.39,8.39,0,0,1,1.57-1.58,7,7,0,0,1,2.06-.87,65.85,65.85,0,0,1,8.68-1.58c2.92-.37,5.84-.68,8.76-1,11.71-1.07,23.43-1.81,35.14-2.67s23.44-1.7,35-3.28a85.46,85.46,0,0,0,8.62-1.57,16.88,16.88,0,0,0,4-1.43,2.75,2.75,0,0,0,.73-.58.8.8,0,0,0,.16-.32,1.51,1.51,0,0,0,.05-.42,2.45,2.45,0,0,0-.88-1.58,13.55,13.55,0,0,0-3.62-2.19c-1.32-.59-2.69-1.09-4.07-1.56-2.76-.94-5.58-1.74-8.4-2.57-1.41-.42-2.82-.84-4.22-1.31a21.39,21.39,0,0,1-4.16-1.77,2.73,2.73,0,0,1-1-.94,1.14,1.14,0,0,1-.06-.91,1.49,1.49,0,0,1,.47-.63,6.34,6.34,0,0,1,2.14-1,28.52,28.52,0,0,1,4.4-.87c5.86-.74,11.73-1,17.59-1.36,11.74-.59,23.48-.95,35.22-1.32s23.48-.72,35.21-1.21c5.87-.22,11.74-.47,17.6-.83,2.93-.19,5.85-.4,8.78-.68A62.21,62.21,0,0,0,688.58,334.8Z" style="fill:#ebebeb"></path><path d="M61.42,318a23.75,23.75,0,0,0,5.36,2.73c1.88.73,3.79,1.36,5.72,1.93,3.87,1.14,7.78,2.11,11.71,3,7.86,1.75,15.78,3.21,23.72,4.57,15.87,2.75,31.82,5.06,47.79,7.24s31.95,4.2,47.93,6.27c8,1.06,16,2,24,3.4a27.39,27.39,0,0,1,3,.69,5.94,5.94,0,0,1,1.51.65,2.05,2.05,0,0,1,.39.35,1,1,0,0,1,.22.69,1.44,1.44,0,0,1-.65.93,11.52,11.52,0,0,1-2.92,1.21c-1,.29-2,.54-3,.78-3.94.93-7.9,1.68-11.85,2.48s-7.88,1.61-11.75,2.65a41.33,41.33,0,0,0-5.66,1.9,8.68,8.68,0,0,0-2.43,1.48c-.66.62-.77,1.4,0,1.81a11.42,11.42,0,0,0,2.7,1c1,.25,1.94.46,2.92.64,2,.37,4,.66,6,.92,4,.51,8,.9,12,1.25,16,1.35,32.15,2.14,48.24,2.95S298.54,371,314.63,372c8,.52,16.09,1,24.09,2.07a39.4,39.4,0,0,1,6,1.14,5.3,5.3,0,0,1,1.39.64,9.59,9.59,0,0,1,1.26.85,6.2,6.2,0,0,1,1.94,2.34,4.73,4.73,0,0,1,.3,3,8,8,0,0,1-1.2,2.78,18.29,18.29,0,0,1-4.15,4.36,18.21,18.21,0,0,0,4.08-4.41,8,8,0,0,0,1.15-2.75,4.59,4.59,0,0,0-.34-2.9,6,6,0,0,0-1.91-2.25,10.27,10.27,0,0,0-1.25-.81,4.94,4.94,0,0,0-1.35-.6,39.06,39.06,0,0,0-5.92-1.08c-8-.95-16-1.38-24.08-1.86-16.08-.92-32.19-1.57-48.28-2.32s-32.2-1.5-48.28-2.8c-4-.34-8-.72-12-1.22-2-.25-4-.54-6-.9-1-.19-2-.39-3-.65a11.94,11.94,0,0,1-3-1.11,2.6,2.6,0,0,1-.7-.61,1.71,1.71,0,0,1-.29-1,2.34,2.34,0,0,1,.79-1.64,9.38,9.38,0,0,1,2.7-1.67,41.85,41.85,0,0,1,5.78-2c3.91-1.07,7.86-1.9,11.81-2.71s7.91-1.56,11.81-2.47c1-.23,1.95-.48,2.9-.76a11.11,11.11,0,0,0,2.65-1.06,1.25,1.25,0,0,0,.25-.24c0,.08,0-.05-.19-.16a5.43,5.43,0,0,0-1.26-.54,29.68,29.68,0,0,0-2.89-.68c-7.9-1.39-15.91-2.38-23.89-3.47-16-2.12-32-4.2-47.92-6.44s-31.9-4.61-47.78-7.41c-7.93-1.44-15.84-3-23.69-4.83-3.92-.92-7.83-1.93-11.68-3.1-1.93-.6-3.84-1.25-5.71-2A23.82,23.82,0,0,1,61.42,318Z" style="fill:#ebebeb"></path><path d="M605.65,328.79c-5.87.29-11.73.59-17.59,1s-11.72.73-17.57,1.19-11.7.95-17.53,1.61a148,148,0,0,0-17.32,2.76,26,26,0,0,0-4.12,1.29,6.21,6.21,0,0,0-1.74,1,1.88,1.88,0,0,0-.28.34,3.5,3.5,0,0,0-.24.42,2.73,2.73,0,0,0-.29.89c-.19,1.24.81,2.38,1.91,3.21a21.64,21.64,0,0,0,3.71,2.18c1.31.64,2.65,1.22,4,1.84.67.31,1.34.63,2,1a8,8,0,0,1,1,.62,2.42,2.42,0,0,1,.85,1.05,1.12,1.12,0,0,1-.08.86,1.59,1.59,0,0,1-.48.54,3.47,3.47,0,0,1-1.1.56,16.05,16.05,0,0,1-2.19.57c-1.46.28-2.92.46-4.39.62-11.72,1.15-23.48,1.3-35.22,1.31,5.87-.19,11.73-.39,17.6-.71s11.72-.65,17.53-1.35c1.45-.19,2.9-.39,4.32-.69a14.81,14.81,0,0,0,2.06-.55,2.66,2.66,0,0,0,.86-.43c.25-.2.32-.35.27-.47a1.72,1.72,0,0,0-.56-.62,6.79,6.79,0,0,0-.87-.55c-.63-.35-1.28-.66-1.95-1-1.33-.6-2.68-1.18-4-1.82a23.33,23.33,0,0,1-3.88-2.26,7.22,7.22,0,0,1-1.65-1.66,3.48,3.48,0,0,1-.63-2.41,3.67,3.67,0,0,1,.37-1.19,4.54,4.54,0,0,1,.3-.53,2.28,2.28,0,0,1,.42-.51,7,7,0,0,1,2-1.23,28.2,28.2,0,0,1,4.27-1.36,146,146,0,0,1,17.47-2.69c5.84-.61,11.7-1.12,17.57-1.47Q588,329.06,605.65,328.79Z" style="fill:#ebebeb"></path><path d="M88.06,246.52c-.61,0-.66-1.21,0-1.3,2.86-.36,5.73-2.92,8.59-3.3s5.67-.69,8.21-2c4.26-2.14,6.91-6.42,11.31-8.47,7.73-3.6,15.7-2.05,23.22,1.12a26.52,26.52,0,0,0,14.22,2.09c4.39-.56,8.67-1.77,13-2.4a25.93,25.93,0,0,1,11.72.57c3.93,1.27,7.3,3.73,11,5.51,4.87,2.35,9.68,2,14.92,2.1,3.78.11,11.68,2.5,11.68,5.05C216,247.24,95.55,246.52,88.06,246.52Z" style="fill:#ebebeb"></path><path d="M695,232.9c-5.27,0-136.95-.92-174.15-.92-2.6,0,.69-4.5,2.12-4.81,4.58-1,9.34-1.06,14-1.54a45.56,45.56,0,0,0,13.33-3.34c3.66-1.54,7.31-3.33,11.27-3.95,7.66-1.2,14.39,2.95,21.57,4.79a16.27,16.27,0,0,0,13.07-1.79c3.32-2,6.34-4.38,9.81-6.14a53.86,53.86,0,0,1,43-2,49.82,49.82,0,0,1,9.42,4.82c3.51,2.3,6.53,5.24,10,7.52,7.8,5.05,17.45,3.4,26,6.3C695,232,695.49,232.9,695,232.9Z" style="fill:#ebebeb"></path><path d="M420.6,153.2c-10.15,0-180.84,1.13-191.57.79-.77,0-1.18-1.16-.41-1.54,6.76-3.35,14.43-2.68,21.46-5,4.13-1.39,6.67-4.09,9.54-7.19a19.79,19.79,0,0,1,8.88-5.8,18.66,18.66,0,0,1,9.67-.3c3.47.82,6.47,2.8,9.78,4,8.2,3.1,16.16.16,22-5.91,4.83-5,9.57-9.72,16.14-12.41,5.49-2.26,11.6-2.73,17.1-.24,6.26,2.84,10.55,8.54,16.44,12,7,4.08,15.3,3.11,23,4.34s13.62,7.72,20.37,11.45a14.35,14.35,0,0,0,7.36,2.28c1.51,0,3-.45,4.48-.63,2.33-.29,4.53-.22,6.1,1.72C421.34,151.2,421.26,153.2,420.6,153.2Z" style="fill:#ebebeb"></path><path d="M377.35,227c-5.1,0-90.81.56-96.2.39-.38,0-.59-.58-.21-.77,3.4-1.68,7.25-1.35,10.78-2.54,2.08-.7,3.35-2,4.79-3.61a9.92,9.92,0,0,1,4.46-2.91,9.43,9.43,0,0,1,4.86-.15c1.74.41,3.25,1.41,4.91,2,4.11,1.56,8.11.08,11.05-3,2.43-2.51,4.81-4.88,8.11-6.23a10.78,10.78,0,0,1,8.59-.12c3.14,1.43,5.3,4.29,8.25,6,3.5,2,7.69,1.57,11.55,2.18s6.84,3.88,10.23,5.75a7.29,7.29,0,0,0,3.7,1.15c.75,0,1.5-.23,2.25-.32a3.1,3.1,0,0,1,3.06.86C377.72,226,377.68,227,377.35,227Z" style="fill:#fff"></path><path d="M576.3,87.09H430.77c-.59,0-.81-.63-.22-.91,5.21-2.44,11.05-1.81,16.45-3.5,3.18-1,5.16-3,7.39-5.34a15.07,15.07,0,0,1,6.87-4.28,14.21,14.21,0,0,1,7.38-.08c2.63.68,4.89,2.24,7.39,3.25,6.21,2.49,12.33.37,16.89-4.16,3.77-3.74,7.46-7.27,12.51-9.22a16.4,16.4,0,0,1,13.05.09c4.73,2.27,7.91,6.69,12.35,9.4,5.25,3.21,11.62,2.61,17.48,3.67S559,79.6,564.13,82.55a11,11,0,0,0,5.58,1.86c1.15,0,2.29-.29,3.43-.41,1.77-.19,3.46-.1,4.62,1.4C578,85.77,579.73,87.09,576.3,87.09Z" style="fill:#ebebeb"></path><path d="M188.78,183.3c-.1.29-135.09,0-133.39,0,.78,0-1.18-1.16-.42-1.54,4.4-2.18,9.2-2.24,14-2.68a21.51,21.51,0,0,0,8.17-2c2.55-1.33,4.13-3.65,5.94-5.78a25.36,25.36,0,0,1,23.05-8.74c9.6,1.51,17.16,8.82,26.78,10.16,5.78.81,11.24-1.42,16.88-2.21a20.7,20.7,0,0,1,12.68,2.32c3,1.51,5.86,2.78,9.3,3,2.64.18,5.3-.12,8-.15a17.83,17.83,0,0,1,11.69,4.68C191.83,180.78,193.19,183.3,188.78,183.3Z" style="fill:#ebebeb"></path><path d="M472.55,260.8c-.05.15-67.63,0-66.78,0,.39,0-.59-.58-.21-.77,2.2-1.09,4.61-1.12,7-1.34a7.92,7.92,0,0,0,7.07-3.89,12.71,12.71,0,0,1,11.54-4.37c4.8.75,8.59,4.42,13.4,5.09,2.9.4,5.63-.72,8.46-1.11a10.36,10.36,0,0,1,6.34,1.16,12.11,12.11,0,0,0,4.66,1.51c1.32.1,2.65-.06,4-.07a8.89,8.89,0,0,1,5.85,2.34C474.08,259.54,474.76,260.8,472.55,260.8Z" style="fill:#fff"></path></g><g id="freepik--Shadow--inject-459"><ellipse cx="375" cy="449.41" rx="145.47" ry="9.6" style="fill:#ebebeb"></ellipse></g><g id="freepik--Ocean--inject-459"><path d="M65.73,278.51H677.08c25.38,0,.18,5.89-20.83,6.52s-84.59,3.77-84.38,7.85,33.62,8.82,33.62,14.93-97.28,11-101.6,14.52,10.47,4.65,4,8.37c-4.86,2.78-73.6,5.48-102.26,9.35-9.55,1.29,5.82,7.78-9.48,13.16-6.88,2.42-111.87,4-151.79-4-33-6.59-19.61-12.8-29.75-15.79-14.43-4.26-43.24-4.38-43.24-9.58,0-4.51,27.58-8.67,20.7-11.17-19.41-7.05-73.22-3-77.59-8.9-3.7-5,32.36-7.78,20.71-11.39-6.44-2-34.58-4.1-47.33-5.71C82,285.89,52.25,281.25,65.73,278.51Z" style="fill:#ebebeb"></path><path d="M104.52,278.51H639.18c22.2,0,.17,5.49-18.21,6.08s-74,3.52-73.79,7.33,29.4,8.22,29.4,13.93-85.08,10.24-88.86,13.55,9.15,4.34,3.49,7.8c-4.25,2.6-64.37,5.11-89.43,8.73-8.36,1.2,5.08,7.26-8.29,12.28-6,2.25-97.65,2.74-132.75-3.77-36.5-6.76-24.19-12.39-28.68-13.78-12.71-3.91-41.9-5-41.9-9.89,0-4.21,30.87-8.09,24.84-10.43-17-6.57-64-2.75-67.85-8.3-3.23-4.69,28.3-7.25,18.11-10.62-5.63-1.86-30.24-3.83-41.39-5.33C118.72,285.39,92.74,281.07,104.52,278.51Z" style="fill:#c7c7c7"></path><path d="M632,279.9l-1.57.34-1.6.23c-1.07.16-2.14.27-3.2.39-2.14.24-4.28.44-6.42.65l-12.85,1.09-25.72,1.92c-8.57.58-17.15,1.19-25.7,2q-3.21.27-6.39.7a21,21,0,0,0-3.11.67,11.55,11.55,0,0,0-2.89,1.21,2.34,2.34,0,0,0-1,1.06,1.42,1.42,0,0,0,.33,1.31,8.8,8.8,0,0,0,2.48,1.93,46.78,46.78,0,0,0,5.85,2.66,40.72,40.72,0,0,1-6-2.43,8.56,8.56,0,0,1-2.64-1.93,1.79,1.79,0,0,1-.45-1.67,2.67,2.67,0,0,1,1.11-1.33,11.87,11.87,0,0,1,3-1.35,22.49,22.49,0,0,1,3.17-.75c2.14-.34,4.27-.62,6.41-.85,8.56-.92,17.14-1.53,25.71-2.19l25.73-1.68,12.87-.81c2.14-.14,4.29-.26,6.43-.44,1.07-.08,2.14-.15,3.21-.27l1.61-.15Z" style="fill:#fff"></path><path d="M337.68,344.69c-8,0-16.09-.32-24.13-.63s-16.07-.78-24.1-1.23-16.06-1-24.08-1.83c-1-.1-2-.2-3-.33s-2-.22-3-.4a28.38,28.38,0,0,1-5.87-1.55,19.14,19.14,0,0,1-5.29-3,7.44,7.44,0,0,1-3-5.09,7.47,7.47,0,0,0,3.17,4.89,18.71,18.71,0,0,0,5.29,2.73,29.8,29.8,0,0,0,5.81,1.39c1,.15,2,.23,3,.33s2,.18,3,.25q12,.9,24.07,1.58l24.08,1.46,12.05.72C329.65,344.27,333.67,344.51,337.68,344.69Z" style="fill:#fff"></path><path d="M539.31,304.08a44.06,44.06,0,0,1-6.35,1.06q-3.21.36-6.42.6c-4.29.34-8.58.6-12.87.83-8.58.43-17.16.75-25.75,1.09s-17.17.62-25.74,1.09c-4.27.26-8.57.49-12.8,1.05a21.66,21.66,0,0,0-3.07.61A4.36,4.36,0,0,0,445,311a.43.43,0,0,0-.1.12s0,0,0,0a1.17,1.17,0,0,0,.41.36,14.68,14.68,0,0,0,2.85,1.19c1,.33,2,.64,3.06.94,2.06.61,4.13,1.21,6.17,1.92,1,.35,2.05.73,3.05,1.18a10.47,10.47,0,0,1,2.87,1.77,2.59,2.59,0,0,1,.88,1.71,1.88,1.88,0,0,1-.06.53,1.27,1.27,0,0,1-.27.53,2.63,2.63,0,0,1-.75.62A13,13,0,0,1,460,323c-2.11.51-4.25.84-6.38,1.14-8.55,1.12-17.12,1.71-25.7,2.28s-17.15,1-25.7,1.75c-2.14.18-4.28.37-6.41.61a46.16,46.16,0,0,0-6.33,1,5.3,5.3,0,0,0-1.45.58,6.14,6.14,0,0,0-1.12,1.1,4.47,4.47,0,0,0-.93,2.95,10.09,10.09,0,0,0,2.62,5.74,12.39,12.39,0,0,1-1.83-2.65,7.56,7.56,0,0,1-.93-3.08,4.7,4.7,0,0,1,.9-3.09,6.32,6.32,0,0,1,1.15-1.16,5.21,5.21,0,0,1,1.52-.65,49.23,49.23,0,0,1,6.35-1.17c2.13-.28,4.27-.51,6.41-.72,8.56-.8,17.13-1.37,25.7-2s17.13-1.25,25.62-2.41c2.12-.3,4.23-.64,6.29-1.14a12.91,12.91,0,0,0,2.9-1,1.86,1.86,0,0,0,.49-.39.43.43,0,0,0,.09-.18.63.63,0,0,0,0-.27,1.64,1.64,0,0,0-.59-1.06,10,10,0,0,0-2.61-1.57c-1-.43-2-.8-3-1.14-2-.69-4.08-1.27-6.14-1.88-1-.31-2.06-.62-3.09-1a15.4,15.4,0,0,1-3.08-1.31,2.08,2.08,0,0,1-.74-.74,1,1,0,0,1-.06-.78,1.25,1.25,0,0,1,.39-.51,5,5,0,0,1,1.61-.78,22.3,22.3,0,0,1,3.24-.63c4.3-.56,8.59-.77,12.89-1,8.58-.42,17.17-.72,25.76-.95s17.17-.48,25.75-.81c4.29-.15,8.58-.33,12.87-.58,2.14-.13,4.29-.28,6.42-.48A44.08,44.08,0,0,0,539.31,304.08Z" style="fill:#fff"></path><path d="M478.65,299.69c-4.29.24-8.58.47-12.86.77s-8.57.55-12.85.9-8.55.71-12.81,1.2a106.79,106.79,0,0,0-12.65,2,20.94,20.94,0,0,0-3,.94,4.69,4.69,0,0,0-1.23.72,2.23,2.23,0,0,0-.36.53,2,2,0,0,0-.2.61c-.13.82.55,1.63,1.34,2.23a15.66,15.66,0,0,0,2.7,1.58c.95.47,1.93.89,2.91,1.35.49.22,1,.46,1.48.73a7.36,7.36,0,0,1,.72.47,1.88,1.88,0,0,1,.66.82,1,1,0,0,1-.06.72,1.53,1.53,0,0,1-.38.44,3,3,0,0,1-.84.42,10.73,10.73,0,0,1-1.62.42c-1.07.2-2.15.33-3.22.45a255.12,255.12,0,0,1-25.78.85c4.3-.16,8.59-.33,12.87-.58s8.58-.5,12.82-1c1.06-.13,2.12-.29,3.15-.5a13.54,13.54,0,0,0,1.49-.41,2,2,0,0,0,.59-.29.77.77,0,0,0,.16-.16.09.09,0,0,0,0-.07,2.7,2.7,0,0,0-1-.79c-.45-.24-.93-.47-1.42-.69-1-.44-2-.86-2.94-1.33a16.48,16.48,0,0,1-2.86-1.66,5.45,5.45,0,0,1-1.24-1.25,2.62,2.62,0,0,1-.48-1.84,2.82,2.82,0,0,1,.28-.92,3,3,0,0,1,.55-.79,5.42,5.42,0,0,1,1.51-.93,21.74,21.74,0,0,1,3.15-1A107.07,107.07,0,0,1,440,301.66c4.28-.45,8.56-.82,12.86-1.06C461.47,300.07,470.06,299.75,478.65,299.69Z" style="fill:#fff"></path><path d="M140.51,281.51c8.59.07,17.18.39,25.76.91,4.29.25,8.58.62,12.86,1.06a107.72,107.72,0,0,1,12.79,2,20.82,20.82,0,0,1,3.14,1,5.38,5.38,0,0,1,1.51.92,2.71,2.71,0,0,1,.56.8,2.93,2.93,0,0,1,.28.91,2.69,2.69,0,0,1-.49,1.85,5.57,5.57,0,0,1-1.23,1.24,16.29,16.29,0,0,1-2.87,1.66c-1,.47-2,.89-2.94,1.33-.48.22-1,.45-1.41.7a2.48,2.48,0,0,0-1,.79s0,0,0,.06a.52.52,0,0,0,.15.16,2.49,2.49,0,0,0,.59.3,11.35,11.35,0,0,0,1.5.4c1,.22,2.08.37,3.14.51,4.25.52,8.54.78,12.82,1s8.58.42,12.87.59c-8.59,0-17.19,0-25.78-.86-1.07-.12-2.14-.25-3.22-.45a11,11,0,0,1-1.62-.41,2.87,2.87,0,0,1-.83-.43,1.19,1.19,0,0,1-.38-.44.88.88,0,0,1-.07-.71,1.77,1.77,0,0,1,.66-.82,6,6,0,0,1,.73-.47c.49-.28,1-.51,1.47-.74,1-.45,2-.88,2.92-1.34a16.28,16.28,0,0,0,2.69-1.59c.8-.6,1.48-1.41,1.34-2.23a2,2,0,0,0-.56-1.13,4.31,4.31,0,0,0-1.23-.73,20.79,20.79,0,0,0-3-.93,108.91,108.91,0,0,0-12.65-2c-4.26-.48-8.54-.82-12.82-1.19s-8.56-.65-12.84-.91S144.79,281.76,140.51,281.51Z" style="fill:#fff"></path></g><g id="freepik--Line--inject-459"><polygon points="698.18 278.51 617.48 278.75 536.78 278.84 375.38 279.01 213.99 278.84 133.29 278.76 52.59 278.51 133.29 278.27 213.99 278.18 375.38 278.01 536.78 278.18 617.48 278.27 698.18 278.51" style="fill:#263238"></polygon></g><g id="freepik--Birds--inject-459"><path d="M459,175.8a24,24,0,0,0-2-2.36,11.85,11.85,0,0,0-2.49-2,2.62,2.62,0,0,0-.91-.33,1.22,1.22,0,0,0-.33,0l-.24,0c-.15,0-.28.06-.42.09a14.34,14.34,0,0,0-1.52.54c-1,.4-1.9.86-2.83,1.35l.82.09a23.6,23.6,0,0,0-2.57-2,14.26,14.26,0,0,0-1.44-.83,6.1,6.1,0,0,0-.82-.33,2.4,2.4,0,0,0-.48-.11,3.13,3.13,0,0,0-.53,0,5.42,5.42,0,0,0-1.65.53,14,14,0,0,0-1.43.78,20.17,20.17,0,0,0-2.58,1.9c1-.44,1.93-.89,2.9-1.27.48-.2,1-.39,1.45-.54a5.48,5.48,0,0,1,1.39-.29,2.9,2.9,0,0,1,1.17.44,13.53,13.53,0,0,1,1.25.83c.81.6,1.62,1.27,2.39,1.94l.38.34.43-.24c.87-.49,1.79-.94,2.69-1.37a11.69,11.69,0,0,1,1.34-.57,2.44,2.44,0,0,1,.33-.1l.14,0h.06a1.74,1.74,0,0,1,.53.14,16.16,16.16,0,0,1,2.52,1.55C457.37,174.55,458.18,175.18,459,175.8Z" style="fill:#263238"></path><path d="M435.35,184.86a18.47,18.47,0,0,0-1.68-2,10.37,10.37,0,0,0-2.06-1.67,2.19,2.19,0,0,0-.76-.27,1.26,1.26,0,0,0-.28,0l-.19,0-.35.08a12.47,12.47,0,0,0-1.26.44c-.81.33-1.58.72-2.35,1.12l.68.08a21.34,21.34,0,0,0-2.13-1.66,12.55,12.55,0,0,0-1.2-.69,5.35,5.35,0,0,0-.68-.28,2.36,2.36,0,0,0-.4-.08,3.09,3.09,0,0,0-.43,0,4.66,4.66,0,0,0-1.38.44c-.41.2-.8.42-1.18.65a16,16,0,0,0-2.14,1.58c.8-.36,1.6-.74,2.4-1.06.4-.16.8-.32,1.21-.44a4.3,4.3,0,0,1,1.15-.24,2.38,2.38,0,0,1,1,.36,9.74,9.74,0,0,1,1,.69c.68.5,1.35,1.06,2,1.61l.32.28.35-.2c.73-.4,1.49-.78,2.23-1.13a11.78,11.78,0,0,1,1.12-.48l.27-.08.12,0h0a1.44,1.44,0,0,1,.45.12,12.91,12.91,0,0,1,2.09,1.28C434,183.82,434.66,184.34,435.35,184.86Z" style="fill:#263238"></path><path d="M470.93,128.78a19.85,19.85,0,0,0-2.37-1,10.21,10.21,0,0,0-2.59-.6,2.36,2.36,0,0,0-.8.09,1,1,0,0,0-.25.12l-.16.11-.27.23c-.35.31-.65.63-.95.95-.58.65-1.1,1.34-1.62,2l.65-.23a20,20,0,0,0-2.64-.55,10.42,10.42,0,0,0-1.38-.1,4.76,4.76,0,0,0-.74,0,2,2,0,0,0-.39.1,2.76,2.76,0,0,0-.39.18,4.8,4.8,0,0,0-1,1q-.42.54-.78,1.11a17.51,17.51,0,0,0-1.23,2.35c.57-.68,1.12-1.36,1.7-2,.29-.32.58-.64.89-.93a4.25,4.25,0,0,1,.93-.72,2.31,2.31,0,0,1,1-.1,8.86,8.86,0,0,1,1.23.17c.83.15,1.68.35,2.49.57l.41.11.23-.33c.48-.68,1-1.36,1.51-2a9.1,9.1,0,0,1,.8-.92,1.19,1.19,0,0,1,.2-.19l.09-.08a.07.07,0,0,1,0,0,1.22,1.22,0,0,1,.45-.09,12.39,12.39,0,0,1,2.45.24C469.25,128.45,470.08,128.63,470.93,128.78Z" style="fill:#263238"></path><path d="M440.28,167.12a29,29,0,0,0-3.19-2.19,15,15,0,0,0-3.63-1.63,3.23,3.23,0,0,0-1.2-.1,1.24,1.24,0,0,0-.4.1l-.27.12c-.17.08-.32.17-.47.25a18.5,18.5,0,0,0-1.66,1.12c-1,.8-2,1.65-3,2.52l1-.14a30.44,30.44,0,0,0-3.71-1.59,15.86,15.86,0,0,0-2-.54,7.54,7.54,0,0,0-1.09-.14,3.16,3.16,0,0,0-.61,0,3.75,3.75,0,0,0-.64.16,6.85,6.85,0,0,0-1.82,1.16,19.42,19.42,0,0,0-1.47,1.39,26.5,26.5,0,0,0-2.49,3.11c1-.83,2-1.68,3.08-2.45a16.45,16.45,0,0,1,1.57-1.1,6,6,0,0,1,1.58-.79,3.38,3.38,0,0,1,1.55.15,15.91,15.91,0,0,1,1.76.6c1.17.47,2.36,1,3.49,1.58l.56.28.45-.43c.89-.86,1.84-1.7,2.79-2.5a14.59,14.59,0,0,1,1.44-1.11,2.84,2.84,0,0,1,.35-.22l.16-.1s0,0,.07,0a1.75,1.75,0,0,1,.69,0,19,19,0,0,1,3.52,1.06C437.9,166.14,439.08,166.64,440.28,167.12Z" style="fill:#263238"></path><path d="M275.93,214.75a18.29,18.29,0,0,0-2.18-1.39,9.93,9.93,0,0,0-2.45-1,2.31,2.31,0,0,0-.81,0,1.08,1.08,0,0,0-.26.08l-.17.08-.31.18a13.27,13.27,0,0,0-1.09.79c-.68.55-1.3,1.14-1.93,1.74l.67-.11a18.65,18.65,0,0,0-2.51-1,9.84,9.84,0,0,0-1.35-.32,4.21,4.21,0,0,0-.73-.07,1.84,1.84,0,0,0-.4,0,2,2,0,0,0-.42.12,4.67,4.67,0,0,0-1.2.81c-.34.31-.65.63-1,1a18.14,18.14,0,0,0-1.59,2.13c.67-.58,1.32-1.16,2-1.7a11,11,0,0,1,1-.77,3.89,3.89,0,0,1,1-.56,2.26,2.26,0,0,1,1,.07,11.47,11.47,0,0,1,1.19.36c.79.29,1.59.63,2.36,1l.38.18.29-.3c.58-.59,1.19-1.17,1.81-1.73.3-.27.62-.54.93-.77.08-.05.16-.12.24-.16l.1-.06s0,0,0,0a1.66,1.66,0,0,1,.47,0,13,13,0,0,1,2.36.64C274.33,214.15,275.12,214.46,275.93,214.75Z" style="fill:#263238"></path><path d="M297.06,211.33a28.12,28.12,0,0,0-2.4-3,15.14,15.14,0,0,0-3-2.63,3.37,3.37,0,0,0-1.13-.46,2.49,2.49,0,0,0-.4,0l-.29,0a3.85,3.85,0,0,0-.53.1,15.91,15.91,0,0,0-1.92.58c-1.24.44-2.41,1-3.59,1.52l1,.16a30.87,30.87,0,0,0-3.08-2.62,18,18,0,0,0-1.75-1.11,6.58,6.58,0,0,0-1-.46,3.36,3.36,0,0,0-1.24-.19,7.19,7.19,0,0,0-2.09.57c-.63.27-1.23.58-1.81.9a26.55,26.55,0,0,0-3.31,2.22c1.24-.49,2.45-1,3.67-1.42.61-.22,1.22-.43,1.83-.59a6.8,6.8,0,0,1,1.74-.29,3.61,3.61,0,0,1,1.43.61,14.15,14.15,0,0,1,1.51,1.1c1,.79,1.95,1.67,2.86,2.54l.46.44.55-.28c1.11-.56,2.27-1.07,3.41-1.56.57-.24,1.15-.47,1.7-.64.14,0,.28-.08.41-.1l.18,0h.07a1.88,1.88,0,0,1,.66.21,18.74,18.74,0,0,1,3,2.06C295.08,209.69,296.06,210.51,297.06,211.33Z" style="fill:#263238"></path><path d="M491.75,147.8a29,29,0,0,0-2.39-3,15.21,15.21,0,0,0-3-2.63,3.53,3.53,0,0,0-1.12-.46,2.62,2.62,0,0,0-.41,0l-.29,0a4.51,4.51,0,0,0-.53.1,18.66,18.66,0,0,0-1.92.58c-1.23.44-2.4,1-3.59,1.52l1,.17a28.42,28.42,0,0,0-3.08-2.62,16.17,16.17,0,0,0-1.74-1.12,8.54,8.54,0,0,0-1-.45,3.28,3.28,0,0,0-.58-.16,3.61,3.61,0,0,0-.66,0,7.06,7.06,0,0,0-2.09.57,19,19,0,0,0-1.81.89,25.72,25.72,0,0,0-3.3,2.22c1.23-.48,2.44-1,3.67-1.42.6-.22,1.21-.43,1.83-.59a6.23,6.23,0,0,1,1.73-.28,3.6,3.6,0,0,1,1.44.6,15.24,15.24,0,0,1,1.5,1.11c1,.78,1.95,1.66,2.86,2.53l.46.44.55-.28c1.11-.55,2.27-1.07,3.41-1.55a13.77,13.77,0,0,1,1.71-.64,3.45,3.45,0,0,1,.4-.11l.18,0h.07a1.77,1.77,0,0,1,.66.2,19,19,0,0,1,3,2.06C489.78,146.16,490.75,147,491.75,147.8Z" style="fill:#263238"></path></g><g id="freepik--Sandals--inject-459"><path d="M240.21,441.28s63.39-.34,68.44-.43c0,0,1.72,2.29.09,4,0,0-46.86,2.87-68.27.86A4.71,4.71,0,0,1,240.21,441.28Z" style="fill:#37474f"></path><path d="M265.52,442.69s3.46-9.8,9.36-14.39,10-4.6,10-4.6l7,3.78S284.38,430,280.6,433s-5.92,9.64-5.92,9.64Z" style="fill:#37474f"></path><path d="M277.49,442.38s2-5.82,5.94-8.71,10.6-5,10.6-5l4.79,3.23s-7.41,2.91-10,4.76-3.33,5.94-3.33,5.94Z" style="fill:#37474f"></path><path d="M377.29,445.65S314,449.69,309,450c0,0-1.56,2.4.18,4,0,0,46.95-.38,68.17-3.86A4.73,4.73,0,0,0,377.29,445.65Z" style="fill:#37474f"></path><path d="M352.13,448.8s-4.13-9.53-10.33-13.7-10.32-3.9-10.32-3.9l-6.68,4.25s7.64,1.95,11.61,4.68,6.57,9.21,6.57,9.21Z" style="fill:#37474f"></path><path d="M340.17,449.33s-2.41-5.67-6.53-8.28-10.92-4.26-10.92-4.26l-4.55,3.56s7.58,2.39,10.29,4.06,3.73,5.69,3.73,5.69Z" style="fill:#37474f"></path></g><g id="freepik--Character--inject-459"><path d="M584.25,175.23s4.18,61.76,29,141.81c14.31,46.16,44.37,94.08,69.48,130.43H641s-36-89.27-44-129.4C579.17,228.61,581.1,174,581.1,174Z" style="fill:#FFA52E"></path><path d="M584.25,175.23s4.18,61.76,29,141.81c14.31,46.16,44.37,94.08,69.48,130.43H641s-36-89.27-44-129.4C579.17,228.61,581.1,174,581.1,174Z" style="opacity:0.5"></path><g style="opacity:0.2"><path d="M640.6,391.33c-3.42.21-6.84.31-10.26.39s-6.85.1-10.27.11h-.31l-.36-1h.67c3.42,0,6.84,0,10.27.12S637.18,391.13,640.6,391.33Z"></path><path d="M656,406.47c-3.27,0-6.52,0-9.78-.12l-5.13-.13c-1.72-.09-3.43-.14-5.14-.25,1.71-.11,3.42-.16,5.14-.25l5.13-.13c3.06-.09,6.11-.11,9.18-.12Z"></path><path d="M672.3,432.08H672c-3.42.09-6.84.1-10.26.11s-6.85,0-10.27-.11l-5.13-.14c-1.72-.08-3.43-.13-5.14-.24,1.71-.12,3.42-.17,5.14-.25l5.13-.14c3.42-.09,6.84-.1,10.27-.11s6.69,0,10,.11C672,431.57,672.12,431.83,672.3,432.08Z"></path><path d="M651.89,399.71h-.4l-5.13-.14c-1.72-.08-3.43-.13-5.14-.24,1.71-.11,3.42-.16,5.14-.25l5.07-.14C651.58,399.19,651.73,399.45,651.89,399.71Z"></path><path d="M629.64,358.31c-1.54-.07-3.07-.12-4.61-.23,1.47-.09,2.93-.14,4.4-.21Z"></path><path d="M621.77,352.26c-3.42.21-6.85.31-10.27.39-1.7,0-3.41.07-5.11.09l-.3-.95c1.8,0,3.61,0,5.41.09C614.92,352,618.35,352.06,621.77,352.26Z"></path><path d="M604,310.86c-2.79.17-5.59.27-8.38.34,0-.23-.09-.46-.13-.68C598.3,310.6,601.15,310.69,604,310.86Z"></path><path d="M603.05,281c-1.52-.07-3-.11-4.56-.22,1.48-.1,3-.15,4.45-.21C603,280.7,603,280.85,603.05,281Z"></path><path d="M609.28,316.6c-3.42.21-6.85.3-10.27.38l-2.27,0c-.06-.29-.12-.58-.17-.87l2.44.06C602.43,316.3,605.86,316.4,609.28,316.6Z"></path><path d="M590.26,234.21c-2,.12-4,.21-6,.27,0-.18,0-.35,0-.53C586.22,234,588.24,234.09,590.26,234.21Z"></path><path d="M588.74,238.49c-1.35.08-2.7.14-4,.19,0-.13,0-.26,0-.39C586,238.34,587.38,238.41,588.74,238.49Z"></path></g><path d="M578.78,173.38s41.74-21.45,60.78-23,60.16,31.51,60.16,31.51L666.36,164l25.83,18.19-37.42-18.85,30,26-42.08-28.08,29.56,27.93L637.1,163.92l21.75,24.85L632,166.51,649.46,187,622.9,168.1,645,186.93,614.3,171.08,630.93,184l-23.6-8.27,15.14,9.12-20.94-9.2,10,6.86Z" style="fill:#37474f"></path><path d="M578.78,173.38s-6.25,29.07,6.78,45.94,50.84,39.25,50.84,39.25l-24.87-23.19,22.5,9L606.37,225.7,630,236l-26.31-19.39,17.91,5.85-24-14.73,15.22,2.62L592,199.45l15.69,2.6-21.09-12.5,12.87,2.72-15.79-9.9,9,1-11.09-5.17Z" style="fill:#37474f"></path><path d="M583.05,174.58s-11.4-33.91.13-60.85,42.35-39.42,42.35-39.42L602.24,96.83,623,86.46l-23.36,21.1,25.54-9.17-28.64,19s29.43-1.56,27.77-1.72-29.87,7.47-29.87,7.47l26.16,4.49-28.5,4.21,25.57,4.86-26.21,4,25.51.74-25.5,10.11,18.37-.83-18,8.36,11.06-.73-16.23,6.39Z" style="fill:#455a64"></path><path d="M578.78,173.38s-39.69-32.66-49.54-57.46,8.07-62.18,8.07-62.18l-2.5,33.85,10.37-26.66-8.39,33.39s13.42-21.11,13.85-22.07-11.42,29.3-11.42,29.3L559,79,543.2,106.09l19.4-19.75L548,112.24l20.31-20.73L549.51,122.9,567.9,99.32,554.43,127.4l16.23-19.24-12,27.42L572.94,117,562,140.4l9.38-11.75-6.71,18.71,9.71-9.64L567.2,152l7.65-5.9-4.54,12.36,9.22-10.08-4,14.81Z" style="fill:#37474f"></path><path d="M581.73,176.08s-28.12,9.52-40.07,27-13.2,53-13.2,53l5.3-18.64,5,15.82-2.17-21.4,12.38,17.64-8.47-20.38,13.74,11.65-8-20.41L560,233l-8.38-18.5,15.55,15.11-9-22.25,12.22,9.36-9.91-15.83,11,6.73-5.3-11,9.85,4-7.55-10.51,9,5.06-3.59-9.55Z" style="fill:#455a64"></path><path d="M577.37,172.45s-32.24-33.89-53.75-40-59.07,3.36-59.07,3.36l28.64.28-18.43,11.77,27.24-10-16.27,17.8,22.4-16.1s-5.36,17.22-7,18.47,12.4-18,12.4-18l-2.49,20.51L521,141.77l-5.11,20.17,10.83-16.3-5,15.56L533,147.83s-3.91,12.92-4.24,13.29,9.73-11.88,9.73-11.88l-2.85,15.46,8.61-10.65-3.92,12.68,8-9.2-3.3,8.05,8.36-5.68-5.67,7.68,8.48-5.57-4.61,7.76,7.17-5.87L556,170.16l6.84-5.26-1.15,5.71,6-3.33-1.25,3.59Z" style="fill:#455a64"></path><path d="M581.73,176.08s-44.49-14.81-68.42-7.89-52.64,45.36-52.64,45.36l31.12-24.05L480.7,218.31l20.95-30-8,26.2,16.48-29.88-5.16,25.65,14.89-30.75-5.54,30.16L527,178v27.78l5.8-28.57.3,26.35,5.1-26.33,4.4,21.13,2.44-21.2L548.83,195l2-17.88,3.59,15,3-14,2.85,13.05,3.27-14.57,1,12.41s3.66-11.91,4.16-12.46.55,7.31.55,7.31l4-6.87Z" style="fill:#37474f"></path><circle cx="581.44" cy="189.32" r="13.52" style="fill:#FFA52E"></circle><circle cx="581.44" cy="189.32" r="13.52" style="opacity:0.4"></circle><path d="M585.73,178a13.52,13.52,0,1,1-10.43-16A13.51,13.51,0,0,1,585.73,178Z" style="fill:#FFA52E"></path><path d="M585.73,178a13.52,13.52,0,1,1-10.43-16A13.51,13.51,0,0,1,585.73,178Z" style="opacity:0.30000000000000004"></path><path d="M599.46,178.37a13.52,13.52,0,1,1-10.43-16A13.53,13.53,0,0,1,599.46,178.37Z" style="fill:#FFA52E"></path><path d="M599.46,178.37a13.52,13.52,0,1,1-10.43-16A13.53,13.53,0,0,1,599.46,178.37Z" style="opacity:0.2"></path><path d="M158.1,143.11s.93,80.06-27.28,165.78c-16.27,49.43-50.43,100.74-79,139.66H99.33s41-95.59,50-138.56c20.2-95.8,12.33-168.25,12.33-168.25Z" style="fill:#FFA52E"></path><path d="M158.1,143.11s.93,80.06-27.28,165.78c-16.27,49.43-50.43,100.74-79,139.66H99.33s41-95.59,50-138.56c20.2-95.8,12.33-168.25,12.33-168.25Z" style="opacity:0.5"></path><g style="opacity:0.2"><path d="M111.69,418.72c-.14.34-.29.69-.41,1-2.3,0-4.61-.05-6.91-.11-3.94-.09-7.9-.18-11.85-.41,4-.23,7.91-.33,11.85-.42C106.81,418.76,109.26,418.74,111.69,418.72Z"></path><path d="M107.51,402.24c-2,.12-3.94.17-5.92.27l-5.92.14c-4,.11-7.91.12-11.85.13h-.34l.71-1.09c3.82,0,7.65,0,11.48.14l5.92.14C103.57,402.06,105.54,402.12,107.51,402.24Z"></path><path d="M101.37,395c-2,.12-3.94.17-5.92.26l-5.92.15-1.39,0,.56-.88h.83l5.92.15C97.43,394.83,99.4,394.89,101.37,395Z"></path><path d="M136.52,353.26c-.08.22-.15.43-.23.64-2.62-.06-5.23-.16-7.85-.31C131.13,353.44,133.82,353.34,136.52,353.26Z"></path><path d="M139.88,343.33c-.1.33-.22.66-.33,1-1.3,0-2.58,0-3.87-.06-4-.09-7.9-.2-11.84-.43,3.94-.22,7.89-.32,11.84-.41Z"></path><path d="M151.67,298.49c0,.2-.07.4-.12.6-2.39-.07-4.79-.15-7.18-.29C146.81,298.66,149.23,298.57,151.67,298.49Z"></path><path d="M156.65,254.63c-2,.12-3.94.17-5.92.27l-5.43.14c0-.27.11-.54.17-.8l5.26.13C152.71,254.45,154.68,254.51,156.65,254.63Z"></path><path d="M162.13,214.72c0,.11,0,.23,0,.34-1.17,0-2.35-.11-3.53-.18Z"></path><path d="M152.14,249.25c-1.89.12-3.8.18-5.69.25,0-.17.07-.34.1-.51C148.41,249.08,150.28,249.13,152.14,249.25Z"></path></g><path d="M157.79,135.6s-58.5-3.41-73.57,10.24-18.36,75.09-17.37,76.33,12.27-41,12.27-41l.52,33.68,6-39.71,6.81,23.78L90,168.37l11.31,21.8L99.55,162l4.69,19,1.1-19.35,4.3,13,1.55-15.85,3.35,18.43L116.69,156l3.6,14.16s1-10.94,1.2-12.72,3.56,8.52,3.56,8.52l1.75-17.63,4.89,10.7.8-9.15,3.17,6,.8-9.16,2.67,5.58,3.57-11,1,3.27Z" style="fill:#455a64"></path><path d="M157.29,135.57S107.35,185,102.13,205.38s2.59,69.32,2.59,69.32l5.07-50.06,8.81,39L114.24,218,130.06,246l-8-39.47,14.13,28.88-11.94-36.31,18,29.49-10.76-39.28L144.8,213.1l-8.13-32,12.64,24-7.38-38.72L155.07,194l-9.41-33.46,8.3,13.26-3.82-21.3,5.06,12.19L154,144.31l5.19,9Z" style="fill:#37474f"></path><path d="M157.3,136s-33-35.29-49.88-36.05-57.14,15.19-57.14,15.19l26.78-6L56.41,122.81,87,107.34l-20.08,18L91.77,110,74.85,132.83l22.41-20.72-9.08,14.55,17-11.17L88.87,132.6l23.93-14.23L97.68,130.43l25.4-11.38s-14.43,10.26-14.72,11.74,20.43-8.15,20.43-8.15l-8,8.44,11.64-6.45-5.31,9.1,10.11-7.66-6.1,8.11,10.21-4.49L139,133.94l8.91-2.05Z" style="fill:#37474f"></path><path d="M156.42,135.92s40.07,14.88,51.92,37.87S226.18,250,226.18,250l-6.85-31.45-4.14,26.83-.53-36.49L205.3,233l3-28.36-10,16.52,3.19-22.43-10,16.92L196.93,193l-10.31,13.51,8.15-24.35-12,17.55,6.26-17.06-10,10.83,7.52-19.8-11.37,9.89,7-20.64-10.61,14.15,7-18.16-10.31,9.44s3.58-13.81,4.08-14.2-7.24,8.21-7.24,8.21l1-14.21-4.68,2.52Z" style="fill:#455a64"></path><path d="M157.3,136s-13.39-49.89-4.19-70.21S190.59,24,190.59,24L174.36,44l19.19-12.88-27,26.14,29.9-19.8L165,68.74l32.71-22.32L175.32,71.58l16.48-7.47L170.62,79.59l19.82-10.07L170.28,89.67l18.56-8.6-26.76,21.36,19.08-7.93-16.78,12.85,12.35-5.53s-12,14.74-13.19,15.66,9.12-6.19,9.12-6.19l-13.39,16.09,5.85-3.85Z" style="fill:#37474f"></path><path d="M157.13,135.35S120,90,117.38,72.86s9-33.43,9-33.43L122,57.92,132.46,47l-6.29,17.19L138.6,52.68l-10.32,19.6L140,60.51l-7.52,14.93,8.17-6L134.7,84.73l7.7-9.66-4.64,15.87,7.64-10.42-5.3,17.75,6.51-9.8L141.7,105.7l6.42-9.24L144,108.94l4.33-5.08-2.29,11,3.67-7.26L148.49,120l2.94-4.79Z" style="fill:#455a64"></path><path d="M157.47,137.23S196.34,79.53,226,68.92s62.75,8.15,62.75,8.15l-30.1-3.83,19.92,14.12-32.4-10.11,20.48,17.19L240.26,81.7l20.47,18.54L231.4,86.87l21.07,21.32L221.59,92.54,238.81,108,211.26,96.53l25.33,19.2-32.11-13.8,20.35,18c-1-.86-25.07-12.44-25.07-12.44l12.59,12.4L195,112.71l9.25,8.84-17.74-5.24,11.74,9L181,120.66l6.69,5.67s-13.49-.64-14.59-.14S157.47,137.23,157.47,137.23Z" style="fill:#455a64"></path><path d="M156.8,136.39s36-16.11,55.69-10.44S263,187.57,263,187.57L240.51,159l4.54,18.56-11.49-24.91,1.36,22.72-9.21-30.51,2.68,25.71L218,141.3l3.11,24.56-11.39-27.14,5.28,23.9-13.6-23.48,4,17.6-10.25-18.6L197.59,152,188,136.58l3,10.33-9.57-8.85,4,5.73-11.94-8.14,4.4,5.51-9.6-4.24Z" style="fill:#37474f"></path><path d="M146.67,150.13a11.12,11.12,0,1,0,8-13.53A11.12,11.12,0,0,0,146.67,150.13Z" style="fill:#FFA52E"></path><path d="M146.67,150.13a11.12,11.12,0,1,0,8-13.53A11.12,11.12,0,0,0,146.67,150.13Z" style="opacity:0.4"></path><path d="M153.51,138.18a11.11,11.11,0,1,0,8-13.53A11.1,11.1,0,0,0,153.51,138.18Z" style="fill:#FFA52E"></path><path d="M153.51,138.18a11.11,11.11,0,1,0,8-13.53A11.1,11.1,0,0,0,153.51,138.18Z" style="opacity:0.30000000000000004"></path><path d="M142.24,139a11.12,11.12,0,1,0,8-13.54A11.12,11.12,0,0,0,142.24,139Z" style="fill:#FFA52E"></path><path d="M142.24,139a11.12,11.12,0,1,0,8-13.54A11.12,11.12,0,0,0,142.24,139Z" style="opacity:0.2"></path><path d="M95.8,449.63c.16.59,1.55.77,1.78,0s.62-24.81,1.25-30.16a27.15,27.15,0,0,1,3.69,2.3c1.73,1.33,6.54,5.77,8.69,6.72s6.87,2.21,8.16,2.75c0,0-7.13-6.16-8.09-6.79s-5-3.52-6.7-4.05-5.66-1.7-5.66-1.7l.26-1.63a6.17,6.17,0,0,1,3.74.62,36.63,36.63,0,0,0,11,3.14c3.1.17,10.77,1.42,14.75.57a31.12,31.12,0,0,0-8-3.17A99.85,99.85,0,0,0,107,416a56.94,56.94,0,0,0-7.42,0c-.21.16.25-2,.25-2a74.71,74.71,0,0,0,8.06-.14c3.7-.32,12.38-1.66,13.46-1.71s10.64-1.06,11.93-.89a18.8,18.8,0,0,0-7.81-2.16c-3.92,0-10.51,0-12.83.62S100.14,413,100.14,413l1.08-4.76s8.17.05,10.21-.38,10.51-2.59,13-3.08,9-2.32,9-2.32-10.06-.91-12.26-.7a102.93,102.93,0,0,0-12.22,3c-1.67.6-7.6,2.63-7.6,2.63l1-4.6a6,6,0,0,0,4.1-.48c2.32-1.07,8.1-3.6,9-3.64s8.31-1.58,9.14-1.81,6.16-1.85,6.35-1.92-10.7-.26-13.08.33-10.14,1.93-15.26,6.44l.8-4.36a37,37,0,0,1,10.28-5.43c5.43-1.66,15.1-5.25,16.91-6.93,0,0-6.28-.13-9.61.8a54.06,54.06,0,0,0-12,5.89c-1.79,1.4-5.64,4.3-5.64,4.3l.32-1.26L116.32,383c1.88-1.74,10.08-9,10.67-9a32.28,32.28,0,0,0-8.89,4.4c-4.07,3-12.71,12.55-13.28,13.63a7.86,7.86,0,0,1,1.29-2.75c.9-1.11,4.15-6,5-7.23s4.53-7.32,5.88-9.52,4.78-7.13,4.78-7.13A37.61,37.61,0,0,0,114,372.8c-3.83,4.8-9.25,16.45-9.64,17.65,0,0,3.59-11.87,3.54-12.88s2.71-8.74,3.11-9.59,3.73-11.09,3.73-11.09-6.08,7.92-7.87,11.93-3.63,16.77-3.73,22a94.62,94.62,0,0,0-1.89-9.6c-1.23-3.69-2.75-8.55-3.35-9.8a34.45,34.45,0,0,0-8.22-12.06s5.23,11.26,5.64,14.44,5.14,17.8,7.68,20l-.33,2.06s-6.75-11.82-8.36-15.51-4-8.89-5.38-10.38-5.18-5.23-5.18-5.23,1.67,3.69,2.74,5.88,4.93,13.63,6.6,15.2,7.69,9.74,9.39,11.1l-.73,4.1a58.84,58.84,0,0,0-4.88-7.16c-2.33-2.76-10.88-14.6-12.18-15.87s-6-6.72-6-6.72,3.71,7.67,5.56,10.44,5.32,11.54,17.33,20.2l-.83,3.63s-7.07-7.69-10.05-10.28-15.36-15.58-17.12-16.63c0,0,3.5,5.9,4.25,6.87s5.07,7.9,9.12,10.75,13.58,10.14,13.58,10.14l-.61,2.67s-10.22-8.8-12-9.94a50.41,50.41,0,0,1-6-4.42,142.15,142.15,0,0,0-12.51-8.39S80.75,399,84.76,401.67c1.79,1.21,10.14,7,14.9,8.55L98.88,414s-9.48-7.81-12.49-9.56S71.75,395.26,66.63,394c0,0,11.11,9.64,15.88,12.2s16.21,8.59,16.21,8.59l-.36,1.77s-12.4-6.64-17.81-8.73-14.72-5.09-14.72-5.09,6.69,5.12,10.8,7.72c7.16,4.52,19.71,6.68,21.51,7L98,418.72a89.06,89.06,0,0,1-15-2.2c-9.26-2-14.93-.21-14.93-.21a50.45,50.45,0,0,0,29.73,3.74l-.08.65s-8.39,1.81-10.58,2.94-9.45,4.49-9.45,4.49A63.37,63.37,0,0,0,89,426.44a29.25,29.25,0,0,0,8.71-4.8S95,446.47,95.8,449.63Z" style="fill:#455a64"></path><path d="M635.29,444.93c.5.21,1.37-.68,1-1.24S619,430.2,615.53,426.93a24.43,24.43,0,0,1,3.57-1.4c1.85-.53,7.53-1.6,9.34-2.63s5.18-3.7,6.24-4.34c0,0-8.12,1.82-9.07,2.16s-5.15,1.73-6.4,2.63-4.18,3.11-4.18,3.11l-1-1a5.41,5.41,0,0,1,2.41-2.33,32.1,32.1,0,0,0,8-6.14c1.76-2.1,6.68-6.89,8.17-10.15a27.28,27.28,0,0,0-6.48,4,89.89,89.89,0,0,0-8.79,8.43,49.45,49.45,0,0,0-3.92,5.25c0,.23-1.29-1.23-1.29-1.23a64.71,64.71,0,0,0,4.15-5.78c1.72-2.8,5.34-9.66,5.87-10.45s4.85-8.1,5.65-8.93a16.6,16.6,0,0,0-5.65,4.4c-2.07,2.77-5.49,7.47-6.3,9.43s-4.26,10.6-4.26,10.6l-2.81-3.27a84.38,84.38,0,0,0,5.11-7.45c.78-1.67,3.7-8.81,4.65-10.82s3.11-7.63,3.11-7.63-5.94,6.65-7,8.33A92.39,92.39,0,0,0,610.4,412c-.45,1.5-2.13,6.77-2.13,6.77l-2.71-3.16a5.31,5.31,0,0,0,1.82-3.16c.45-2.21,1.71-7.64,2.15-8.29s3.25-6.73,3.53-7.43,1.92-5.35,2-5.52-5.82,7.45-6.66,9.45-4,8.21-3.46,14.21L602.25,412a32.71,32.71,0,0,1,1.56-10.15c1.68-4.73,4.22-13.47,4-15.64,0,0-3.4,4.39-4.49,7.24a48.11,48.11,0,0,0-2.16,11.62c.05,2,.08,6.27.08,6.27l-.72-.89s-1.42-12.87-1.67-15.12-1.11-11.91-.78-12.32a28.65,28.65,0,0,0-1.56,8.63c0,4.46,2.21,15.61,2.68,16.58a6.9,6.9,0,0,1-1.27-2.35c-.32-1.23-2.07-6.1-2.47-7.4s-2.81-7.06-3.66-9.17-2.54-7.15-2.54-7.15a33.27,33.27,0,0,0,1.14,9.47c1.38,5.24,6.79,15.22,7.44,16.12,0,0-6.53-8.79-7.27-9.29s-4.77-6.52-5.16-7.25-5.91-8.48-5.91-8.48,2.42,8.48,4.32,11.86,10,11.4,13.66,14.23a85.17,85.17,0,0,0-7.81-3.71c-3.26-1.06-7.51-2.54-8.71-2.78a30.47,30.47,0,0,0-12.87-.52s10.73,2.23,13.2,3.61,15.33,5.71,18.25,5.09l1.29,1.32s-11.94-1.43-15.4-2.23-8.4-1.86-10.19-1.65-6.44.92-6.44.92,3.49.75,5.61,1.15,12.26,3.68,14.26,3.32,11-.32,12.81-.81l2.52,2.67a52,52,0,0,0-7.64-.31c-3.19.2-16.08,0-17.67.29s-7.91.69-7.91.69,7.4,1.41,10.33,1.55,11,2.3,23.45-1.66l2.13,2.51s-9.17,1-12.57,1.71-19.14,2.7-20.81,3.39c0,0,6,.62,7.11.6s8.27.56,12.43-.8,14.33-4.3,14.33-4.3l1.58,1.84s-11.62,2.62-13.37,3.29a45.86,45.86,0,0,1-6.32,1.95,124.25,124.25,0,0,0-12.53,4.46s14.94-1.44,19-2.87c1.8-.63,10.3-3.5,13.9-6.06l2.27,2.54s-10.52,2.61-13.35,3.83-14.22,5.54-17.81,8.51c0,0,12.69-2.8,17-4.84s14.63-7,14.63-7l1.06,1.18s-11.23,5.3-15.56,8-11.36,7.76-11.36,7.76,7.15-2.05,11.16-3.6c7-2.7,15.11-10.46,16.27-11.58l.83.8a79,79,0,0,1-9.46,9.49c-6.32,5.49-8,10.47-8,10.47A44.5,44.5,0,0,0,615.35,428l.41.4s-3.13,6.9-3.48,9.05-1.79,9.06-1.79,9.06a56.16,56.16,0,0,0,4.78-8.93,26,26,0,0,0,1.18-8.71S632.62,443.85,635.29,444.93Z" style="fill:#455a64"></path><path d="M113.16,447.57c-.27.3.14,1.14.64,1s13.93-8.88,17.11-10.52a17.13,17.13,0,0,1,.1,2.89c-.09,1.45-.75,5.75-.48,7.3s1.34,4.61,1.52,5.52c0,0,.75-6.22.74-7a29.81,29.81,0,0,0-.25-5.2c-.33-1.11-1.16-3.76-1.16-3.76l1-.46a4.14,4.14,0,0,1,1,2.3,24.28,24.28,0,0,0,2.35,7.23c1,1.77,3.21,6.47,5.16,8.35a20.86,20.86,0,0,0-1.24-5.62,66.23,66.23,0,0,0-3.78-8.36,39.57,39.57,0,0,0-2.74-4.11c-.17-.06,1.19-.6,1.19-.6a50.71,50.71,0,0,0,3.07,4.4c1.56,1.92,5.52,6.22,5.95,6.79s4.54,5.49,4.92,6.26a12.46,12.46,0,0,0-1.7-5.12,55.5,55.5,0,0,0-5.12-6.85c-1.18-1.06-6.47-5.68-6.47-5.68l3-1.18a66.1,66.1,0,0,0,4,5.5c1,1,5.34,4.84,6.53,6s4.64,4.13,4.64,4.13-3.24-5.89-4.17-7a68.78,68.78,0,0,0-6.22-5.61c-1-.7-4.28-3.22-4.28-3.22l2.93-1.13a4,4,0,0,0,1.79,2.08,49.58,49.58,0,0,1,5.35,3.61c.35.48,4,4,4.39,4.38s3.32,2.71,3.42,2.79-3.83-6-5-7.1-4.83-4.88-9.23-6l2.71-1.18a24.76,24.76,0,0,1,6.82,3.66c2.94,2.38,8.51,6.38,10.11,6.76a29.44,29.44,0,0,0-4-5,36.29,36.29,0,0,0-7.72-4.45c-1.44-.47-4.47-1.52-4.47-1.52l.81-.29,11.16,2.62c1.66.39,8.74,2.2,9,2.53a21.41,21.41,0,0,0-5.74-3.27,67.12,67.12,0,0,0-12.45-2.26,5.25,5.25,0,0,1,2-.32c1,.09,4.85.07,5.87.1s5.73-.21,7.44-.28,5.72,0,5.72,0a25.08,25.08,0,0,0-7-1.57c-4.07-.33-12.52,1-13.32,1.24,0,0,7.89-2.43,8.43-2.83a48.7,48.7,0,0,1,6.44-1.85c.62-.09,7.51-2.06,7.51-2.06s-6.63-.42-9.51.09-10.61,4.22-13.55,6.13a61.36,61.36,0,0,0,4.6-4.62c1.58-2,3.7-4.7,4.17-5.49a23,23,0,0,0,3.6-9s-4.28,7.07-5.88,8.48-7.91,9.46-8.2,11.69l-1.26.58s4-8.12,5.45-10.38,3.44-5.5,3.74-6.83,1-4.8,1-4.8-1.42,2.29-2.23,3.7-5.69,7.78-5.94,9.29-2.52,7.86-2.64,9.31l-2.54,1.12a40.27,40.27,0,0,0,2.15-5.35c.65-2.32,4-11.44,4.23-12.63S150,409,150,409s-2.85,4.9-3.69,6.94-4.4,7.24-4.71,17.08l-2.32.89s1.62-6.76,1.95-9.36,2.88-14.28,2.81-15.64c0,0-1.95,4.13-2.21,4.9s-2.48,5.73-2.55,9-.55,11.27-.55,11.27l-1.7.65s1.06-8.91,1-10.32a34.11,34.11,0,0,1,.2-5,93.21,93.21,0,0,0,0-10s-2.73,11-2.73,14.19c0,1.44-.09,8.2.82,11.4L134,436s.78-8.14.63-10.45-.37-11.5-1.57-14.79c0,0-1.2,9.71-.84,13.3s1.28,12.14,1.28,12.14l-1.11.46s-.94-9.32-1.8-13.08-2.66-10-2.66-10-.34,5.6-.24,8.84c.16,5.63,3.63,13.36,4.14,14.46l-.78.39a58.65,58.65,0,0,1-4.36-9.1c-2.32-5.87-5.44-8.33-5.44-8.33a33.61,33.61,0,0,0,9,17.81l-.39.19a52,52,0,0,0-5.56-4.74c-1.43-.79-6-3.55-6-3.55a42.82,42.82,0,0,0,5.15,5.64,19.38,19.38,0,0,0,5.89,3S114.6,445.94,113.16,447.57Z" style="fill:#37474f"></path><path d="M640.72,444c.11.55,1.39.79,1.64.12s1.78-23,2.63-27.9a24.51,24.51,0,0,1,3.3,2.31c1.55,1.32,5.79,5.67,7.74,6.66s6.26,2.38,7.43,2.94c0,0-6.31-6.06-7.17-6.69s-4.5-3.51-6-4.08-5.17-1.86-5.17-1.86l.32-1.49a5.66,5.66,0,0,1,3.44.76,33.86,33.86,0,0,0,10,3.44c2.86.31,9.92,1.84,13.64,1.25a29,29,0,0,0-7.3-3.34,94,94,0,0,0-12.5-2.79,54.56,54.56,0,0,0-6.87-.39c-.21.14.32-1.83.32-1.83a68.66,68.66,0,0,0,7.48.26c3.45-.12,11.57-.94,12.56-.93s9.93-.46,11.12-.24a17.47,17.47,0,0,0-7.14-2.39c-3.64-.2-9.75-.47-11.93,0s-11.77,2.44-11.77,2.44l1.24-4.36a92.24,92.24,0,0,0,9.49.14c1.92-.3,9.87-1.89,12.19-2.23s8.49-1.71,8.49-1.71-9.28-1.33-11.34-1.25A98.38,98.38,0,0,0,655.11,403c-1.59.48-7.18,2.07-7.18,2.07l1.2-4.21a5.56,5.56,0,0,0,3.82-.25c2.2-.88,7.69-2.94,8.52-2.94s7.78-1.06,8.56-1.23,5.8-1.42,6-1.47-9.91-.76-12.15-.34-9.49,1.31-14.46,5.24l1-4a34.38,34.38,0,0,1,9.79-4.53c5.12-1.28,14.26-4.14,16-5.61,0,0-5.82-.43-8.95.28a50.32,50.32,0,0,0-11.43,4.87c-1.73,1.21-5.45,3.72-5.45,3.72l.36-1.16L663,383.18c1.82-1.52,9.79-7.9,10.33-7.85a30.17,30.17,0,0,0-8.46,3.66c-3.92,2.57-12.39,11-13,12a7.31,7.31,0,0,1,1.32-2.48c.9-1,4.14-5.36,5-6.46s4.56-6.57,5.92-8.54,4.77-6.39,4.77-6.39a35.14,35.14,0,0,0-7.63,6.51c-3.78,4.26-9.37,14.8-9.79,15.9,0,0,3.9-10.84,3.91-11.78s2.93-8,3.35-8.73,4-10.11,4-10.11-6,7.05-7.88,10.68-4.19,15.37-4.53,20.25a87.28,87.28,0,0,0-1.29-9c-1-3.47-2.14-8.06-2.63-9.25a32.2,32.2,0,0,0-7-11.58s4.29,10.7,4.52,13.67,3.91,16.75,6.15,18.94l-.4,1.9s-5.69-11.3-7-14.79-3.25-8.44-4.48-9.89-4.55-5.1-4.55-5.1,1.37,3.5,2.26,5.58,3.9,12.88,5.38,14.42,6.65,9.41,8.16,10.75l-.87,3.77a55.43,55.43,0,0,0-4.17-6.88c-2-2.67-9.39-14.06-10.53-15.3s-5.21-6.53-5.21-6.53,3.07,7.3,4.65,10,4.38,11,15.09,19.57l-.95,3.33s-6.18-7.47-8.81-10-13.5-15.2-15.08-16.25c0,0,3,5.64,3.61,6.57s4.32,7.57,7.93,10.42,12.1,10.06,12.1,10.06l-.69,2.45s-9-8.66-10.66-9.8a48.36,48.36,0,0,1-5.38-4.4,129.49,129.49,0,0,0-11.2-8.38s10,12.25,13.54,14.93c1.6,1.2,9.06,7,13.39,8.65l-.9,3.47s-8.41-7.7-11.12-9.47-13.13-9.23-17.81-10.65c0,0,9.83,9.48,14.13,12.08s14.61,8.76,14.61,8.76l-.42,1.62s-11.18-6.76-16.09-9S615.2,399,615.2,399s5.95,5.07,9.64,7.69c6.42,4.54,18,7.15,19.61,7.51l-.22,1.19a82.06,82.06,0,0,1-13.81-2.76c-8.49-2.34-13.84-.93-13.84-.93A46.84,46.84,0,0,0,644,416.64l-.11.59s-7.86,1.27-10,2.22-9,3.7-9,3.7a59.62,59.62,0,0,0,10.61-1,27.27,27.27,0,0,0,8.32-4S640.11,441,640.72,444Z" style="fill:#37474f"></path><path d="M53.48,451.5h74.59s.28-6.43-2.35-8.75-5.18-2.9-6-3.41a46.58,46.58,0,0,1-5.64-4.51c-1.92-1.82-4.7-4.54-6.13-4.79s-8-1.27-9.33-.86-8.67,5.1-9.46,5.3-14.91,5.26-16.19,5.45-8.61,1.72-11.82,3.12C56.69,445,53.48,451.5,53.48,451.5Z" style="fill:#FFA52E"></path><path d="M53.48,451.5h74.59s.28-6.43-2.35-8.75-5.18-2.9-6-3.41a46.58,46.58,0,0,1-5.64-4.51c-1.92-1.82-4.7-4.54-6.13-4.79s-8-1.27-9.33-.86-8.67,5.1-9.46,5.3-14.91,5.26-16.19,5.45-8.61,1.72-11.82,3.12C56.69,445,53.48,451.5,53.48,451.5Z" style="opacity:0.1"></path><path d="M75.45,439.17c3.28.13,8.13,2.7,9.09,3.09,1.41.59,9.9-1.51,13.25-1.76A4.8,4.8,0,0,0,102,436c-.2-.59,3.66-1.66,3.18-3.08-.28-.83-9-2.48-9-2.48-2.67,1.53-6.5,3.93-7.06,4.07S79.9,437.71,75.45,439.17Z" style="fill:#FFA52E"></path><path d="M110.79,439.35c-.06-1-3.74-2.67-4.7-2.51a6.68,6.68,0,0,0-3.1,2.1c-.27.55-1.5,3.2-.32,3.22s3.42-1.5,4.65-1.56S110.84,440.16,110.79,439.35Z" style="fill:#FFA52E"></path><path d="M83.15,443.13c.23-.61-3.18-1.8-4.07-1.69s-1.74,1.4-1,1.74,1.93-.13,2.53,0S83,443.6,83.15,443.13Z" style="fill:#FFA52E"></path><path d="M620.23,448.23h76.29s-3.58-5-7.52-6.08-12.88-4.3-14.49-6.09-15.21-8.41-20.4-8.23-13.78,6.08-15,7.52-5.63,6.8-7.07,7.24S623.76,444.11,620.23,448.23Z" style="fill:#FFA52E"></path><path d="M620.23,448.23h76.29s-3.58-5-7.52-6.08-12.88-4.3-14.49-6.09-15.21-8.41-20.4-8.23-13.78,6.08-15,7.52-5.63,6.8-7.07,7.24S623.76,444.11,620.23,448.23Z" style="opacity:0.1"></path><path d="M681.52,439.84a18,18,0,0,1-4.4.39c-.62-.07-6.6-3-8.8-3.3s-14.12-.81-15-2.12c-.65-1,3.9-4.1,6.89-5.71,5.93,2,13.14,5.69,14.29,7,.82.92,3.59,2.22,6.62,3.41Z" style="fill:#FFA52E"></path><path d="M661.55,439.49c0-.66,4-1.16,4.87-1s4.83,1.84,4.06,2.16a10.35,10.35,0,0,1-3.84.5C665.36,441,661.55,440.23,661.55,439.49Z" style="fill:#FFA52E"></path><path d="M129.24,454.94H112.36c-1.81,0,2.08-5.62,3.67-6.44s5.75-.35,6.77.55,5.35,3.78,5.89,4.25A1.84,1.84,0,0,1,129.24,454.94Z" style="fill:#FFA52E"></path><path d="M681,461.89c1.1,0,.23-1.28-.23-1.63a8.94,8.94,0,0,0-3.5-1.25c-.83.07-1.61,1.15-2.58,1.44s-2.52,1.11-2.29,1.44Z" style="fill:#FFA52E"></path><path d="M633.48,454.5H600.34s-.12-4,1-5.49a9.11,9.11,0,0,1,2.68-2.14,24.13,24.13,0,0,0,2.5-2.83c.86-1.14,2.09-2.85,2.73-3s3.54-.79,4.14-.54,3.85,3.21,4.2,3.33,6.63,3.3,7.2,3.42a25,25,0,0,1,5.25,2C632.05,450.4,633.48,454.5,633.48,454.5Z" style="fill:#FFA52E"></path><path d="M597.57,292.54v0c0,.1-.35.66-.88,1.62-.1.2-.22.42-.35.65l-.23.42c-.15.27-.3.56-.47.86-1.07,1.95-2.57,4.64-4.43,7.88-.15.25-.29.51-.44.77-2.43,4.22-5.43,9.32-8.87,14.95l-1.06,1.72c-.51.84-1,1.68-1.57,2.54l-1.1,1.75c-2.62,4.18-5.45,8.56-8.43,13-.26.4-.52.79-.79,1.18-2,2.93-4,5.89-6.08,8.84l-.83,1.17c-.71,1-1.44,2-2.17,3-.41.56-.81,1.12-1.22,1.67s-.91,1.25-1.38,1.87l-.87,1.17c-.69.93-1.39,1.85-2.09,2.77l-1.45,1.88c-3,3.83-6,7.56-9.07,11.1-.26.31-.53.62-.8.92-2.8,3.21-5.62,6.25-8.45,9.07l-.93.92-1.1,1.07c-.3.29-.61.59-.92.87-.68.65-1.36,1.28-2,1.88-.5.46-1,.9-1.5,1.33l-.45.39-.6.51c-.27.23-.53.46-.8.67l-.92.75a71.35,71.35,0,0,1-6.39,4.65c-.6.39-1.2.76-1.8,1.12-.36.22-.71.42-1.07.62-.54.3-1.07.59-1.61.86s-1.32.66-2,.95-1,.45-1.53.65L510,401c-17.82,6.35-69.06,6.41-97.84,9.68-48.58,5.52-98.69,2.86-121.32,0a117,117,0,0,1-41.17-16C234.45,383,224.57,371,211.77,355.05c-8.44-10.48-22.23-18.46-28.69-29.05-.07-.1-.13-.21-.19-.31-.43-.72-.86-1.45-1.27-2.17l-1.92-3.33-.93-1.65c-.61-1.1-1.22-2.19-1.81-3.27-.3-.54-.59-1.08-.88-1.62s-.69-1.27-1-1.9c-.49-.92-1-1.84-1.44-2.75-.31-.58-.6-1.15-.9-1.73l-1.48-2.92a1.3,1.3,0,0,1-.08-.17c-.51-1-1-2-1.51-3-.4-.83-.8-1.66-1.2-2.47-2-4.17-3.8-8.12-5.4-11.78q-.41-.92-.78-1.8c-1.11-2.57-2.11-5-3-7.2-.14-.35-.28-.68-.41-1-1.35-3.36-2.46-6.26-3.31-8.59l-.69-1.88c-.61-1.72-1-3-1.3-3.77,0-.09-.06-.18-.09-.25-.11-.33-.17-.53-.19-.6v0s113.26,74.55,168.25,78.59c54.37,4,182.9-7.35,210.18-14.24S597.57,292.54,597.57,292.54Z" style="fill:#FFA52E"></path><path d="M597.57,292.54v0c0,.1-.35.66-.88,1.62-.1.2-.22.42-.35.65l-.23.42c-.15.27-.3.56-.47.86-1.07,1.95-2.57,4.64-4.43,7.88-.15.25-.29.51-.44.77-2.43,4.22-5.43,9.32-8.87,14.95l-1.06,1.72c-.51.84-1,1.68-1.57,2.54l-1.1,1.75c-2.62,4.18-5.45,8.56-8.43,13-.26.4-.52.79-.79,1.18-2,2.93-4,5.89-6.08,8.84l-.83,1.17c-.71,1-1.44,2-2.17,3-.41.56-.81,1.12-1.22,1.67s-.91,1.25-1.38,1.87l-.87,1.17c-.69.93-1.39,1.85-2.09,2.77l-1.45,1.88c-3,3.83-6,7.56-9.07,11.1-.26.31-.53.62-.8.92-2.8,3.21-5.62,6.25-8.45,9.07l-.93.92-1.1,1.07c-.3.29-.61.59-.92.87-.68.65-1.36,1.28-2,1.88-.5.46-1,.9-1.5,1.33l-.45.39-.6.51c-.27.23-.53.46-.8.67l-.92.75a71.35,71.35,0,0,1-6.39,4.65c-.6.39-1.2.76-1.8,1.12-.36.22-.71.42-1.07.62-.54.3-1.07.59-1.61.86s-1.32.66-2,.95-1,.45-1.53.65L510,401c-17.82,6.35-69.06,6.41-97.84,9.68-48.58,5.52-98.69,2.86-121.32,0a117,117,0,0,1-41.17-16C234.45,383,224.57,371,211.77,355.05c-8.44-10.48-22.23-18.46-28.69-29.05-.07-.1-.13-.21-.19-.31-.43-.72-.86-1.45-1.27-2.17l-1.92-3.33-.93-1.65c-.61-1.1-1.22-2.19-1.81-3.27-.3-.54-.59-1.08-.88-1.62s-.69-1.27-1-1.9c-.49-.92-1-1.84-1.44-2.75-.31-.58-.6-1.15-.9-1.73l-1.48-2.92a1.3,1.3,0,0,1-.08-.17c-.51-1-1-2-1.51-3-.4-.83-.8-1.66-1.2-2.47-2-4.17-3.8-8.12-5.4-11.78q-.41-.92-.78-1.8c-1.11-2.57-2.11-5-3-7.2-.14-.35-.28-.68-.41-1-1.35-3.36-2.46-6.26-3.31-8.59l-.69-1.88c-.61-1.72-1-3-1.3-3.77,0-.09-.06-.18-.09-.25-.11-.33-.17-.53-.19-.6v0s113.26,74.55,168.25,78.59c54.37,4,182.9-7.35,210.18-14.24S597.57,292.54,597.57,292.54Z" style="opacity:0.4"></path><path d="M153.26,261.76s-6.16-3.17-7.33-4.45-2.58-6.11-2.58-6.11L145,248s1.16,5.79,2.23,7.52S153.26,261.76,153.26,261.76Z" style="fill:#FFA52E"></path><path d="M153.26,261.76s-4.9-.7-6.11-1.9a27.22,27.22,0,0,1-3-4.28l-.71,2.23s2.21,4,3.6,4.47S153.26,261.76,153.26,261.76Z" style="fill:#FFA52E"></path><path d="M597.57,292.54s6.75-3.65,7.7-4.91,3.63-6.58,3.63-6.58l1.19,2.61s-2.23,5.09-3.75,5.87S597.57,292.54,597.57,292.54Z" style="fill:#FFA52E"></path><path d="M607.4,275.73l1.05,3.12s-3.92,7.59-4.85,8.35-6,5.34-6,5.34,4.71-5.73,5.42-7.47S607.4,275.73,607.4,275.73Z" style="fill:#FFA52E"></path><g style="opacity:0.2"><path d="M155.58,263.27l13.92,14.52,14,14.49c9.36,9.6,18.67,19.26,28.39,28.48,2.43,2.29,4.88,4.59,7.44,6.72a44.44,44.44,0,0,0,8.4,5.3c5.95,3,12.14,5.62,18.33,8.18s12.46,4.93,18.75,7.25,12.58,4.65,18.92,6.84q-9.58-3.06-19.09-6.37t-18.87-7c-6.25-2.45-12.44-5.07-18.46-8.09a44.6,44.6,0,0,1-8.59-5.37c-2.61-2.15-5.08-4.43-7.52-6.74-9.68-9.31-19-19-28.25-28.68q-6.9-7.31-13.76-14.68Z"></path><path d="M187.07,290l10,7.17c3.31,2.4,6.63,4.79,10,7.14,6.66,4.73,13.34,9.47,20.31,13.66a63.64,63.64,0,0,0,11.12,4.93c3.84,1.4,7.7,2.72,11.57,4,7.75,2.6,15.53,5.1,23.32,7.6q-11.83-3.22-23.54-6.93c-3.9-1.23-7.8-2.49-11.65-3.88a65.74,65.74,0,0,1-11.3-4.92c-3.57-2.06-7-4.37-10.32-6.7s-6.7-4.71-10-7.13C199.93,300.12,193.43,295.16,187.07,290Z"></path><path d="M206.94,298.62c3.8,2.37,7.55,4.8,11.32,7.2q2.81,1.83,5.64,3.6c1.91,1.14,3.77,2.42,5.71,3.43A85.43,85.43,0,0,0,242,317.66c4.26,1.33,8.56,2.53,12.9,3.63q-6.61-1.17-13.09-3a71.57,71.57,0,0,1-12.65-4.62c-4-2.13-7.67-4.66-11.4-7.14S210.46,301.38,206.94,298.62Z"></path><path d="M596.91,293c-4.73,5.58-9.58,11.06-14.49,16.5s-9.89,10.79-15.08,16a34,34,0,0,1-4.23,3.61c-1.5,1.06-3,2.08-4.56,3.08-3.07,2-6.15,4-9.27,5.89-6.23,3.84-12.5,7.62-18.85,11.28l18.43-11.93c3.06-2,6.15-4,9.19-6,1.52-1,3-2,4.51-3.1a34.16,34.16,0,0,0,4.08-3.54c5.22-5.1,10.19-10.48,15.22-15.79Z"></path><path d="M572.26,314.51c-5.16,4.24-10.45,8.32-16,12.12-1.39.95-2.78,1.88-4.26,2.7a32.15,32.15,0,0,1-4.66,2c-1.58.57-3.18,1.07-4.77,1.59s-3.21,1-4.83,1.38c-6.48,1.67-13,3-19.62,4.18s-13.2,2.07-19.85,2.73c3.3-.54,6.59-1.07,9.87-1.67s6.57-1.17,9.84-1.81c6.55-1.29,13.07-2.66,19.5-4.39,1.62-.4,3.21-.89,4.81-1.33s3.18-1,4.74-1.54a29.6,29.6,0,0,0,4.55-1.89c1.45-.79,2.85-1.68,4.26-2.57,2.79-1.81,5.52-3.72,8.24-5.65S569.55,316.47,572.26,314.51Z"></path><path d="M578.29,307.28c-3.71,2.54-7.49,5-11.29,7.36s-7.65,4.7-11.58,6.92a28.1,28.1,0,0,1-3.07,1.49c-1.07.42-2.14.77-3.21,1.12-2.15.69-4.3,1.35-6.47,1.94-4.33,1.2-8.67,2.33-13.06,3.31l12.84-4.05c2.14-.7,4.29-1.34,6.4-2.06,1.06-.36,2.12-.73,3.14-1.14a28.12,28.12,0,0,0,3-1.49c3.93-2.13,7.78-4.45,11.66-6.7l5.83-3.38Z"></path></g><path d="M523.11,390.66c-2,1.17-63.85,12.45-66.5,11.46-.29-.11-.66-2.86-2.74-9.79-.1-.34-33.59-22.83-33.59-22.83l24.58-29.1L479.69,365l9.05,6.39s27.58,9.54,30.39,10.93S525.11,389.49,523.11,390.66Z" style="fill:#c95f50"></path><path d="M456,348.84l-24.13,28.67s-42.68-30.39-49.85-30c-3.6.19-57.92,37.52-84.76,42.84-19,3.78-32.38-26.68-32.38-26.68l38.58-22.73s6.08,3.62,7,3.08C338,327.1,365,303.65,384.84,304.2,407,304.82,456,348.84,456,348.84Z" style="fill:#c95f50"></path><path d="M264.84,363.68s13.35,30.45,32.38,26.67c18.35-3.63,49.54-22.23,68.59-33.7l-93.61,2.68Z" style="fill:#263238"></path><path d="M327.81,378.22c-11.29,5.75-22.26,10.48-30.59,12.14-19,3.77-32.38-26.69-32.38-26.69l38.58-22.73s6.08,3.62,7,3.08A187.14,187.14,0,0,0,327.81,378.22Z" style="fill:#FFA52E"></path><path d="M264.84,363.67s-3.79,23.47,9.53,34.11,111.53,10.14,126.47,5.44,15.59-28.74-.66-34.44c-15.44-5.42-81.33-8.51-82.95-9.17-.41-.17-10.17-15.63-13.81-18.67Z" style="fill:#c95f50"></path><path d="M317.23,359.61s-27.8,7.9-37.81,40.62a16.93,16.93,0,0,1-5.05-2.45c-13.32-10.64-9.53-34.11-9.53-34.11l38.58-22.73C307.06,344,316.82,359.44,317.23,359.61Z" style="fill:#FFA52E"></path><path d="M304.94,347.25a1.51,1.51,0,1,1-1.51-1.51A1.52,1.52,0,0,1,304.94,347.25ZM275.83,367a1.51,1.51,0,1,0,1.51,1.51A1.51,1.51,0,0,0,275.83,367Zm13.8,0a1.51,1.51,0,1,0,1.51,1.51A1.5,1.5,0,0,0,289.63,367Zm-6.9-10.55a1.51,1.51,0,1,0,1.51,1.51A1.51,1.51,0,0,0,282.73,356.47Zm13.8,0A1.51,1.51,0,1,0,298,358,1.51,1.51,0,0,0,296.53,356.47Zm13.8,0a1.51,1.51,0,1,0,1.51,1.51A1.51,1.51,0,0,0,310.33,356.47Zm-34.5,31.83a1.51,1.51,0,1,0,1.51,1.51A1.51,1.51,0,0,0,275.83,388.3Zm-6.9-10.55a1.51,1.51,0,1,0,1.51,1.51A1.52,1.52,0,0,0,268.93,377.75Zm13.8,0a1.51,1.51,0,1,0,1.51,1.51A1.51,1.51,0,0,0,282.73,377.75Z" style="fill:#fff"></path><path d="M206.09,283.45c1.71-2.59,9.19-10.24,16-14.86,3.28-2.24,13.39-7.68,15.3-5.29s-.9,4.24-.9,4.24,4.61-1.66,6.32.92-2.77,5.31-2.77,5.31,4.86-1.35,6.38,1.34-3.44,4.69-3.44,4.69,4.39-1.44,4.71,1.3c.38,3.3-8,5.06-11.52,7.72-.79.6-15.26,13.38-15.26,13.38Z" style="fill:#c95f50"></path><path d="M242.9,279.88c-6.17,1.31-8.64,2.94-13.09,7.27-.09.08-.23,0-.15-.12,4-4.64,6.78-7.14,13.19-7.45C243.16,279.56,243.19,279.82,242.9,279.88Z" style="fill:#263238"></path><path d="M240.23,273.64c-6.29,1.92-9,3.67-14,7.86-.07.06-.17-.06-.11-.12,4.56-4.52,7.41-6.95,13.94-8C240.38,273.29,240.52,273.55,240.23,273.64Z" style="fill:#263238"></path><path d="M235.94,267.72c-5.95,2.3-9,4.09-13.32,8.78a.12.12,0,0,1-.18-.15c3.94-5.21,7.72-7.48,13.41-8.8C236.24,267.46,236.31,267.58,235.94,267.72Z" style="fill:#263238"></path><path d="M218.72,306.15s7.59-2.19,10.71-3.88,12.43-12.31,10.25-14.45c-2.81-2.76-9.39,2.3-12.28,5.21,0,0-6.5-6.4-12-3.79S218.72,306.15,218.72,306.15Z" style="fill:#c95f50"></path><path d="M238.66,287.31c-4.38-.67-7.94,3.39-11,6a.36.36,0,0,1-.59-.12c-2.9-2.5-7.72-5.18-11.64-4.17a.1.1,0,0,1-.06-.18c4.06-1.65,9,.6,12,3.54,3.06-2.72,6.8-6.63,11.25-5.1C238.69,287.28,238.69,287.32,238.66,287.31Z" style="fill:#263238"></path><path d="M226,275.47c-14.4,11.11-16.28,38.59-4.68,58.72,10.55,18.31,35.24,23.6,45.81,16.48,11.22-7.56,12.12-24.15,4.95-32.58-6.93-8.14-16.16-9.17-20-17.09-1.84-3.79-1.52-11.05-4.35-17.85C244.82,276.19,236.22,267.58,226,275.47Z" style="fill:#263238"></path><path d="M246,325.56a200.71,200.71,0,0,1-26.77,4.58,58.06,58.06,0,0,1-4.93-16.89c3.15.34,15.25.47,28.48,2C258.64,317,251.92,324.09,246,325.56Z" style="fill:#263238"></path><path d="M247.47,354.84a34.24,34.24,0,0,1-17.34-8,47.64,47.64,0,0,1-12.3-16.74,48.15,48.15,0,0,1-4.45-21.44,46.19,46.19,0,0,1,5.72-20.79A48.82,48.82,0,0,0,214,308.64a47.86,47.86,0,0,0,1.1,10.83,49.22,49.22,0,0,0,3.44,10.16,54.84,54.84,0,0,0,5.21,9.09,43.87,43.87,0,0,0,6.78,7.5,38.82,38.82,0,0,0,8.06,5.49A32.1,32.1,0,0,0,247.47,354.84Z" style="fill:#263238"></path><path d="M274.32,319.86a21.75,21.75,0,0,0-4-5.07,25.52,25.52,0,0,0-4.93-3.7q-2.65-1.51-5.25-3.22a27.17,27.17,0,0,1-4.91-4.06,19.21,19.21,0,0,1-2.07-2.6,14.8,14.8,0,0,1-1.46-3.15A66.17,66.17,0,0,1,250,291.4a31.57,31.57,0,0,0-2.09-6.38,19.87,19.87,0,0,0-4-5.22,18.55,18.55,0,0,1,4.31,5,30.38,30.38,0,0,1,2.33,6.42c.59,2.21,1,4.45,1.76,6.55a13.85,13.85,0,0,0,1.39,2.93,17.18,17.18,0,0,0,2,2.44c2.87,3.11,6.46,5.11,9.91,7.32a26.15,26.15,0,0,1,4.92,4A21.25,21.25,0,0,1,274.32,319.86Z" style="fill:#263238"></path><path d="M255.69,316.6c14.63,11.79,39.39,24.29,46.79,24.52s37.64-10.31,38.75-11.21c2.72-2.26-5.62-25.26-9.39-25.61-.87-.08-23.6,9-33,12.76-1.72.69-23.51-6.31-36.37-9.27C252.09,305.41,252.33,313.89,255.69,316.6Z" style="fill:#c95f50"></path><path d="M341.23,329.9c-.66.53-11.38,4.41-21.62,7.47-7.14,2.13-14.05,3.86-17.13,3.76-7.4-.25-32.16-12.74-46.79-24.53a5.89,5.89,0,0,1-2-3.77c-.45-3.23,1.67-6.67,8.76-5,12.85,2.95,34.64,9.95,36.37,9.26,9.42-3.8,32.16-12.84,33-12.76C335.61,304.65,344,327.65,341.23,329.9Z" style="fill:#c95f50"></path><path d="M335,332.36c.54-.09,11.7-1.24,15.84-2.72,3.09-1.1,11.88-4.53,11-8-.59-2.41-6-1-9.85-.1-2,.48-5.13.24-5.39-1.09-.47-2.34,4.81-3.48,8.56-3.85,7.24-.73,17.9-.31,19.14-5.15.47-1.83-2.19-2.62-5.45-2.92,4.72-.31,9.39-1.15,10-3.16a2.11,2.11,0,0,0-1.3-2.59,2.8,2.8,0,0,0,2.22-2.21c.26-1.86-1.43-3.12-3.8-4a1.56,1.56,0,0,0,.51-1.32c-.23-5-18.49-6.72-23-4.83-13.34,5.52-24.73,15.26-24.73,15.26C326.81,312.49,335,332.36,335,332.36Z" style="fill:#c95f50"></path><path d="M351.86,310c5.41-2,10.33-2.49,17.51-1.44.14,0,.2-.19.06-.22-6.94-1.66-10.72-1.59-17.73,1.34C351.36,309.83,351.53,310.12,351.86,310Z" style="fill:#263238"></path><path d="M352.08,302.49c9.89-3.08,17.66-.54,25.36.28a.08.08,0,1,0,0-.15c-7.41-1.37-14.05-4.36-25.44-.52C351.68,302.21,351.75,302.59,352.08,302.49Z" style="fill:#263238"></path><path d="M353.33,295.46c7.88-2.4,14.78-.37,22.09,1.1a.13.13,0,0,0,.07-.26c-7.31-2.23-14.53-4.2-22.19-1.07C352.87,295.41,352.89,295.59,353.33,295.46Z" style="fill:#263238"></path><path d="M319.61,337.37c-7.14,2.13-14.05,3.86-17.13,3.76-7.4-.25-32.16-12.74-46.79-24.53a5.89,5.89,0,0,1-2-3.77Z" style="fill:#263238"></path><path d="M319.61,337.37l7.67-2.55,3.83-1.29c1.26-.44,2.56-.87,3.78-1.36H335c3.49-.4,7-.85,10.44-1.46a26.67,26.67,0,0,0,5.05-1.34c1.65-.58,3.29-1.21,4.87-1.94a20.69,20.69,0,0,0,4.46-2.63,5.29,5.29,0,0,0,1.55-1.9c.3-.7.25-1.61-.34-1.93a4.22,4.22,0,0,0-2.36-.27,25.82,25.82,0,0,0-2.57.4c-1.71.34-3.43.75-5.21,1a8.75,8.75,0,0,1-2.75,0,2.72,2.72,0,0,1-1.35-.66,2.17,2.17,0,0,1-.6-1.44,2,2,0,0,1,.62-1.43,4.6,4.6,0,0,1,1.18-.81,12.17,12.17,0,0,1,2.57-.87,55.3,55.3,0,0,1,10.55-1,50.5,50.5,0,0,0,5.23-.42,19.88,19.88,0,0,0,5-1.28,5.85,5.85,0,0,0,2.09-1.41,2.11,2.11,0,0,0,.52-2.2,3.32,3.32,0,0,0-2-1.33,12.2,12.2,0,0,0-2.55-.47v-.29a27.36,27.36,0,0,0,5.41-.7,10.48,10.48,0,0,0,2.56-.94,2.69,2.69,0,0,0,1.57-2.08,2.73,2.73,0,0,1-1.54,2.14,10.23,10.23,0,0,1-2.55,1,27.76,27.76,0,0,1-5.44.85v-.29a12.52,12.52,0,0,1,2.64.42,5.46,5.46,0,0,1,1.26.51,2.44,2.44,0,0,1,1,1,1.92,1.92,0,0,1,.12,1.43,3.33,3.33,0,0,1-.66,1.23,6.38,6.38,0,0,1-2.23,1.57,20.15,20.15,0,0,1-5.15,1.39,46.73,46.73,0,0,1-5.27.5,54.74,54.74,0,0,0-10.43,1.06,12.09,12.09,0,0,0-2.42.82c-.72.37-1.43.92-1.39,1.61a1.48,1.48,0,0,0,1.38,1.4,8.13,8.13,0,0,0,2.51,0c1.72-.22,3.43-.63,5.16-.95a25.63,25.63,0,0,1,2.65-.4,9,9,0,0,1,1.38,0,3.18,3.18,0,0,1,1.42.4,1.78,1.78,0,0,1,.82,1.34,2.83,2.83,0,0,1-.22,1.47,6,6,0,0,1-1.75,2.16,21.72,21.72,0,0,1-4.62,2.7c-1.62.74-3.28,1.36-4.94,1.94a23.7,23.7,0,0,1-2.56.77c-.86.21-1.73.36-2.6.51-3.49.57-7,1-10.5,1.32l.07,0c-1.29.5-2.57.88-3.86,1.29L327.34,335Z" style="fill:#263238"></path><path d="M303.42,340.94S266.86,363,264.84,363.67c0,0-11.2-7.86-19.64-29.22-9.26-23.43,1.75-26.05,7.54-26.19,6.87-.16,25.69,5.43,28.41,7.35,4.49,3.16,5.17,10.67,5.17,10.67Z" style="fill:#c95f50"></path><path d="M246.42,339l7.27-5.71s1-15.24,17-11.78c0,0-1.35-7.72,4.92-8.6,12,2.52,11,13.36,11,13.36l5,3.95L254.76,353.5Z" style="fill:#FFA52E"></path><path d="M263.54,326a1.52,1.52,0,1,1-1.52-1.51A1.52,1.52,0,0,1,263.54,326Zm12.29-1.51a1.51,1.51,0,1,0,1.51,1.51A1.51,1.51,0,0,0,275.83,324.46Zm5.41-9.28a1.94,1.94,0,0,0,0,.24,1.5,1.5,0,0,0,1.51,1.51,1.28,1.28,0,0,0,.48-.09A11.67,11.67,0,0,0,281.24,315.18ZM262,345.74a1.51,1.51,0,0,0,0,3l.25,0h0l1-.63s0,0,0,0a1.5,1.5,0,0,0-1.26-2.35Zm-6.9-10.55a1.51,1.51,0,1,0,1.52,1.51A1.52,1.52,0,0,0,255.12,335.19Zm13.81,0a1.51,1.51,0,1,0,1.51,1.51A1.52,1.52,0,0,0,268.93,335.19Zm13.8,0a1.51,1.51,0,0,0-1.51,1.51h0l2.16-1.37A1.44,1.44,0,0,0,282.73,335.19Z" style="fill:#fff"></path><path d="M278.1,329.47a51.69,51.69,0,0,0-5.94,4.92c-.91.91-1.77,1.84-2.61,2.8-.43.48-.86.94-1.3,1.4a7.85,7.85,0,0,1-1.51,1.31,0,0,0,0,0,.05.08,13.82,13.82,0,0,0,1.61-1,13.24,13.24,0,0,0,1.39-1.21c.93-.9,1.82-1.85,2.74-2.76,1.86-1.85,3.72-3.69,5.71-5.4C278.33,329.55,278.2,329.39,278.1,329.47Z" style="fill:#263238"></path><path d="M284.72,328.22a57,57,0,0,0-5.64,2.95c-.91.55-1.79,1.15-2.65,1.77l-1.22.91c-.44.35-.84.75-1.28,1.08-.05,0,0,.11,0,.08.44-.3.92-.54,1.37-.81l1.35-.84,2.7-1.67c1.79-1.14,3.59-2.25,5.42-3.32C284.91,328.32,284.82,328.18,284.72,328.22Z" style="fill:#263238"></path><path d="M287.44,340.94a2.22,2.22,0,0,0,.43,1.4,3.47,3.47,0,0,0,1,1c.19.12.36.14.45.07s.1-.21,0-.43a2,2,0,0,0-1.14-.89,1.7,1.7,0,0,1,1.45.69.86.86,0,0,1,.2.44.67.67,0,0,1-.21.54.67.67,0,0,1-.55.17,1.2,1.2,0,0,1-.45-.16,3.06,3.06,0,0,1-1.13-1.24A1.84,1.84,0,0,1,287.44,340.94Z" style="fill:#263238"></path><path d="M247.51,322.85A199,199,0,0,1,221.3,330c-17.05,3.38-32.3,3.73-34-2.76-2.45-9.53,13.5-38.18,19.38-44.46,1.5-1.61,3.44,2.33,7.68,7.84a51.82,51.82,0,0,0,.2,22.26c-.43.38-.66.63-.62.69a2.22,2.22,0,0,0,.81.09c3.18,0,15.23-1,28.54-.76C259.31,313.15,253.31,320.82,247.51,322.85Z" style="fill:#c95f50"></path><path d="M249.57,323.66c-1.06,0-2.88,0-3.07.07a32.56,32.56,0,0,0,3.61-1.42c.07,0,0-.14-.05-.12a73,73,0,0,0-7.3,2.34c-.23.08-.72.48.2.26a19.45,19.45,0,0,0,2.06-.55c.19,0,3.51-.33,4.56-.52A0,0,0,0,0,249.57,323.66Z" style="fill:#263238"></path><path d="M249,317.71c.9.58,9.19,2,12.45-1.52,1.06-1.14-4.89-7.2-4.89-7.2l-.33-.55-4.72-7.67-12,2.45-1.68.41s1.43,2,3.23,4.5l.26.36c.1.14.19.28.29.41.26.37.53.76.81,1.13s.42.57.65.86.45.58.68.88A56.93,56.93,0,0,0,249,317.71Z" style="fill:#c95f50"></path><path d="M241.08,308.13a18.06,18.06,0,0,0,15.18.31l-4.72-7.67-12,2.45-1.68.41S239.28,305.65,241.08,308.13Z" style="fill:#263238"></path><path d="M254.6,285.22c8,13.59.81,19.95-2.12,21.68-2.66,1.57-11.93,6.59-21.34-6.1s-5.63-20.72.27-24.64S246.55,271.63,254.6,285.22Z" style="fill:#c95f50"></path><path d="M250.86,284.63a9.56,9.56,0,0,1-1.05.28,1.76,1.76,0,0,1-1.13.08.56.56,0,0,1-.31-.61,1.38,1.38,0,0,1,1.08-.91,2,2,0,0,1,1.48.07A.6.6,0,0,1,250.86,284.63Z" style="fill:#263238"></path><path d="M241.71,289.58c.31-.21.57-.45.86-.68s.61-.45.73-.86a.56.56,0,0,0-.3-.62,1.42,1.42,0,0,0-1.38.33,2,2,0,0,0-.82,1.22A.6.6,0,0,0,241.71,289.58Z" style="fill:#263238"></path><path d="M249,299.66a1.59,1.59,0,0,0,1.08.22,3,3,0,0,0,1-.7,0,0,0,0,1,.06,0,1.45,1.45,0,0,1-1,1.08,1.15,1.15,0,0,1-1.15-.55C248.85,299.69,248.92,299.64,249,299.66Z" style="fill:#263238"></path><path d="M251.27,294.18s.91,1.34,1.25,2c0,.07-.12.18-.34.31h0a3.6,3.6,0,0,1-3.73.35c-.08,0,0-.15.05-.14a5.46,5.46,0,0,0,3.37-.62c-.05-.21-1.64-2.24-1.54-2.3a6.49,6.49,0,0,1,1.71-.42c-1.82-2.85-4.08-5.38-5.85-8.24a.1.1,0,0,1,.16-.13,55.23,55.23,0,0,1,6.68,8.6C253.25,294,251.6,294.16,251.27,294.18Z" style="fill:#263238"></path><path d="M243.62,293.6a.9.9,0,0,1-.17.32.66.66,0,0,1-.49.29c-.61.06-1-.51-1.17-1.11,0,0,0-.07,0-.05.32.26.68.52,1,.39s.37-.33.51-.55A4,4,0,0,0,243.62,293.6Z" style="fill:#263238"></path><path d="M245.93,293.28a1.58,1.58,0,0,1,0,.84,1.17,1.17,0,0,1-.58.71,1,1,0,0,1-.93,0,1.77,1.77,0,0,1-.62-.56,2.3,2.3,0,0,1-.25-.43,2.18,2.18,0,0,1-.25-1,3.51,3.51,0,0,0,.37.66,5.66,5.66,0,0,0,.43.52c.32.34.72.55,1,.37a.89.89,0,0,0,.38-1,7.92,7.92,0,0,0-.38-1.4A3.34,3.34,0,0,1,245.93,293.28Z" style="fill:#263238"></path><path d="M252.62,288.37a1.2,1.2,0,0,0,.37,0,.67.67,0,0,0,.51-.26c.39-.47.13-1.11-.28-1.58,0,0-.07,0-.07,0,0,.4.07.84-.22,1.05a1.24,1.24,0,0,1-.75.13A3.13,3.13,0,0,1,252.62,288.37Z" style="fill:#263238"></path><path d="M251.09,290.13a1.66,1.66,0,0,0,.68.49,1.16,1.16,0,0,0,.91-.1,1,1,0,0,0,.5-.78,1.82,1.82,0,0,0-.13-.82,3.13,3.13,0,0,0-.22-.45,2.22,2.22,0,0,0-.7-.76,3.56,3.56,0,0,1,.35.67,5.38,5.38,0,0,1,.2.65c.1.45.06.9-.25,1.06a.9.9,0,0,1-1.06-.24,7.33,7.33,0,0,1-1-1.09A3.4,3.4,0,0,0,251.09,290.13Z" style="fill:#263238"></path><path d="M231.89,300.93c2.43-.91.68-6.08.68-6.08s4.77-2.21,3.15-9.8a11.68,11.68,0,0,1,.53,6.65s8-4.81,8.25-13.49c0,0,.26,4.24-.47,6.13a10.85,10.85,0,0,0,3.45-6.29s3.37,3.37,5,4c0,0-7.21-14.55-20.11-6.63,0,0-8.27,4.55-8.19,12.74S231.89,300.93,231.89,300.93Z" style="fill:#263238"></path><path d="M233.11,279.06c.45,1.39-1.48,3.24-4.3,4.14s-5.46.5-5.91-.89,1.49-3.24,4.31-4.14S232.67,277.67,233.11,279.06Z" style="fill:#FFA52E"></path><path d="M231.9,279.13c.34,1.06-1.13,2.46-3.27,3.15s-4.15.38-4.49-.68,1.13-2.46,3.27-3.14S231.56,278.08,231.9,279.13Z" style="fill:#263238"></path><path d="M231.54,278.07l-.92-.09c.24-2.32,2.56-3.2,3.76-3.34l.11.91C234.38,275.57,231.75,275.91,231.54,278.07Z" style="fill:#FFA52E"></path><path d="M228.86,300.15c-.07-.13-1.71-3.27-2-3.9s-.79-13.15-.78-13.23l.45.1H227c0,.71.48,12,.72,12.77.26.59,1.93,3.79,1.95,3.82Z" style="fill:#FFA52E"></path><path d="M242.9,271.49c.45,1.39-1.48,3.24-4.3,4.14s-5.46.5-5.9-.89,1.48-3.24,4.3-4.14S242.46,270.1,242.9,271.49Z" style="fill:#FFA52E"></path><path d="M241.69,271.65c.34,1.05-1.12,2.46-3.27,3.14s-4.15.39-4.48-.67,1.12-2.46,3.27-3.15S241.36,270.59,241.69,271.65Z" style="fill:#263238"></path><path d="M233.92,300.57s-5.24-2.95-6.73-.88,3.95,7.4,6.74,7.14a2.67,2.67,0,0,0,2.61-2.84Z" style="fill:#c95f50"></path><path d="M228.79,301.18s0,.07,0,.07c2-.13,3.59,1,5,2.29a1.47,1.47,0,0,0-2.16.6c0,.05,0,.1.09.06a1.64,1.64,0,0,1,1.88-.26,8.24,8.24,0,0,1,1.41.94c.15.11.38-.1.24-.24l0,0C234.23,302.47,231.16,300.3,228.79,301.18Z" style="fill:#263238"></path><path d="M597.56,292.56c-.76,1.43-49.84,93.56-86.66,108.09-16.94,6.68-69.46,6.68-98.73,10-48.58,5.52-98.69,2.86-121.32,0-44.29-5.68-57.57-28.85-79.08-55.57-8.51-10.58-22.5-18.62-28.88-29.36a344.47,344.47,0,0,1-29.63-63.93s87.21,96.81,134.13,109.16c22.88,6,215.34,7.34,220.43,5.14C528.05,367.3,596.34,294.1,597.56,292.56Z" style="fill:#FFA52E"></path><path d="M597.56,292.56c-.76,1.43-49.84,93.56-86.66,108.09-16.94,6.68-69.46,6.68-98.73,10-48.58,5.52-98.69,2.86-121.32,0-44.29-5.68-57.57-28.85-79.08-55.57-8.51-10.58-22.5-18.62-28.88-29.36a344.47,344.47,0,0,1-29.63-63.93s87.21,96.81,134.13,109.16c22.88,6,215.34,7.34,220.43,5.14C528.05,367.3,596.34,294.1,597.56,292.56Z" style="opacity:0.2"></path><g style="opacity:0.2"><path d="M153.93,263.78l4.53,8.69,4.48,8.71,9,17.39c1.5,2.9,3,5.8,4.55,8.67.78,1.43,1.53,2.88,2.43,4.24s1.87,2.66,2.88,3.94c2,2.56,4.14,5,6.3,7.49s4.31,4.9,6.53,7.3c-4.55-4.69-9-9.49-13.09-14.59-1-1.27-2-2.57-2.94-3.94s-1.68-2.81-2.48-4.24c-1.57-2.87-3.1-5.75-4.62-8.64l-8.89-17.47-4.4-8.75Z"></path><path d="M164.27,276.74c1.83,2.77,3.66,5.55,5.46,8.34l5.41,8.37c.89,1.4,1.79,2.8,2.72,4.16a24.34,24.34,0,0,0,3.33,3.64c1.21,1.13,2.47,2.2,3.75,3.26s2.58,2.09,3.9,3.1a81.42,81.42,0,0,1-7.91-6.08,22.13,22.13,0,0,1-3.44-3.66c-1-1.37-1.87-2.76-2.77-4.15-1.79-2.8-3.57-5.61-5.31-8.44S166,279.61,164.27,276.74Z"></path><path d="M597.56,292.56q-4.71,7.54-9.52,15c-3.2,5-6.45,9.95-9.7,14.9l-5,7.39c-.83,1.22-1.67,2.45-2.53,3.66s-1.83,2.34-2.73,3.51c-1.82,2.34-3.6,4.71-5.37,7.08l-5.33,7.12c3.4-4.85,6.83-9.69,10.39-14.43.88-1.19,1.84-2.34,2.69-3.54s1.68-2.43,2.51-3.66l4.91-7.4,9.8-14.84Z"></path><path d="M578.76,318.85q-2,3-4.13,6c-1.41,2-2.85,3.93-4.29,5.89s-2.93,3.87-4.45,5.76a66,66,0,0,1-4.79,5.5c.81-.91,1.55-1.87,2.28-2.84s1.48-1.92,2.2-2.89l4.36-5.83,4.38-5.81C575.78,322.68,577.27,320.76,578.76,318.85Z"></path></g></g></svg>