<svg xmlns="http://www.w3.org/2000/svg" viewBox="0 0 500 500"><g id="freepik--background-complete--inject-418"><path d="M130.87,259.88l-87.61-.13s4.36-5.67,9.17-6.37c0,0,9.38-27.79,25-28,14.53-.16,20.33,17.14,20.33,17.14s6.75-7.75,13.18-4.19S121,252.07,121,252.07,128.25,256,130.87,259.88Z" style="fill:#ebebeb"></path><path d="M346,123.4l110.79.17s0-7.08-15.25-8.49c0,0-13.89-31-35.17-26.84C393.07,90.81,386.27,109,386.27,109s-10-14.33-18-11.57-12.79,18-12.79,18S347.21,119.4,346,123.4Z" style="fill:#ebebeb"></path><path d="M102.48,357.83l110.79.17s0-7.08-15.25-8.49c0,0-13.89-31-35.17-26.84-13.25,2.57-20,20.75-20,20.75s-10-14.33-18-11.57-12.79,18-12.79,18S103.74,353.83,102.48,357.83Z" style="fill:#ebebeb"></path><path d="M157.88,90.63l75.33.12s-7.1-6.63-10.26-6.64-12.34-22.23-24.13-21.3-18.06,17.46-18.06,17.46S166.44,75.76,157.88,90.63Z" style="fill:#ebebeb"></path><path d="M312.87,393.91l75.33.11s-7.09-6.62-10.25-6.63-12.35-22.23-24.14-21.31-18.06,17.46-18.06,17.46S321.44,379,312.87,393.91Z" style="fill:#ebebeb"></path><path d="M332.66,256.62l64.42.1s-3.2-4.18-6.73-4.7c0,0-6.83-20.46-18.33-20.63-10.69-.15-15,12.56-15,12.56s-4.94-5.71-9.68-3.11-7.42,10.06-7.42,10.06S334.59,253.75,332.66,256.62Z" style="fill:#ebebeb"></path></g><g id="freepik--Lines--inject-418"><path d="M166.13,298.37c-6.63,5.09-13.32,10.1-20,15.09l-20.17,14.88L105.63,343l-10.2,7.28-10.27,7.19,10-7.59,10-7.5,20.17-14.88,20.31-14.69C152.46,308,159.26,303.13,166.13,298.37Z" style="fill:#263238"></path><path d="M132.77,401.4c-4.88,3.81-9.82,7.54-14.77,11.26s-10,7.36-14.93,11S93.05,431,88,434.57l-7.59,5.37c-2.54,1.75-5.07,3.54-7.64,5.28,2.43-1.92,4.91-3.79,7.36-5.68L87.55,434c5-3.72,10-7.36,14.93-11.05s10-7.27,15.07-10.86S127.65,404.88,132.77,401.4Z" style="fill:#263238"></path><path d="M334.51,316.86c-4.88,3.82-9.82,7.55-14.77,11.27s-9.95,7.36-14.93,11.05-10,7.27-15.06,10.86l-7.58,5.36c-2.55,1.76-5.08,3.55-7.65,5.28,2.44-1.91,4.91-3.78,7.36-5.67l7.41-5.59c5-3.72,10-7.37,14.93-11.05s10-7.27,15.07-10.86S329.39,320.35,334.51,316.86Z" style="fill:#263238"></path><path d="M419.1,189.34c-4.88,3.82-9.82,7.55-14.77,11.26s-10,7.37-14.93,11.05-10,7.28-15.07,10.86l-7.58,5.37c-2.55,1.76-5.07,3.54-7.64,5.28,2.43-1.92,4.9-3.78,7.35-5.68l7.42-5.59c4.95-3.71,9.95-7.36,14.93-11s10-7.28,15.06-10.87S414,192.82,419.1,189.34Z" style="fill:#263238"></path><path d="M123.13,184.86c-4.88,3.82-9.82,7.55-14.77,11.26s-10,7.37-14.93,11-10,7.28-15.06,10.86l-7.58,5.37c-2.55,1.76-5.08,3.54-7.65,5.28,2.44-1.92,4.91-3.78,7.36-5.68l7.41-5.59c5-3.71,10-7.36,14.93-11s10-7.28,15.07-10.86S118,188.34,123.13,184.86Z" style="fill:#263238"></path><path d="M407.4,184.52c-2.93,2.39-5.92,4.7-8.92,7s-6.06,4.51-9.08,6.78-6.12,4.42-9.22,6.59l-4.66,3.23c-1.57,1-3.12,2.12-4.71,3.14,1.45-1.21,2.95-2.36,4.43-3.54l4.49-3.46c3-2.29,6-4.51,9.08-6.77s6.12-4.43,9.22-6.59S404.23,186.58,407.4,184.52Z" style="fill:#263238"></path><path d="M118.67,175.92c-2.92,2.39-5.92,4.7-8.92,7s-6,4.52-9.08,6.78-6.12,4.43-9.22,6.59l-4.65,3.23c-1.58,1.05-3.13,2.12-4.72,3.14,1.46-1.2,3-2.36,4.43-3.54L91,195.66c3-2.29,6-4.52,9.08-6.78s6.12-4.43,9.22-6.59S115.5,178,118.67,175.92Z" style="fill:#263238"></path><path d="M165.63,280.81c-4.88,3.81-9.82,7.54-14.77,11.26s-10,7.36-14.93,11.05-10,7.27-15.06,10.86l-7.58,5.37c-2.55,1.76-5.08,3.54-7.65,5.28,2.44-1.92,4.91-3.79,7.36-5.68l7.41-5.59c5-3.72,10-7.36,14.93-11.05s10-7.27,15.07-10.86S160.51,284.29,165.63,280.81Z" style="fill:#263238"></path><polygon points="288.7 332.38 272.75 344.36 256.73 356.26 224.6 379.92 192.34 403.4 176.16 415.07 159.91 426.66 175.87 414.68 191.88 402.78 224.01 379.12 256.28 355.64 272.46 343.97 288.7 332.38" style="fill:#263238"></polygon></g><g id="freepik--Character--inject-418"><path d="M342.56,143.77c-7.75,7.33-15.82,17.43-26.41,20.61-8.31,2.47-17.2.31-24.83-3.29-16.76-7.93-33-25.27-28-45.27,2-8,12.07-17.75,21.09-15.15,4.63,1.35,8.23,4.59,12.15,7.24a19.49,19.49,0,0,0,16.63,3c11.83-3,17.17-9.07,26.8-16a8.43,8.43,0,0,1,6.58-1.87,15,15,0,0,1,7.53,2.77,14.85,14.85,0,0,1,5.59,4.66c3,4.32,2.64,11.28,3,16.31s-.81,8.6-4.5,12.2C353,134,347.76,138.84,342.56,143.77Z" style="fill:#263238"></path><path d="M339.62,148.05c6.67-7.18,13.2-14.47,19.77-21.73,0,0,0-.11-.06-.07-5.58,5.82-11.24,11.55-16.75,17.44S332,155.77,326.13,161.05c-13.21,11.85-30.61,2.75-39.81-9.24-.42-.54-1.24.19-.8.72,8.41,10.28,22.2,19.31,35.73,12.91C328.66,162,334.16,153.91,339.62,148.05Z" style="fill:#263238"></path><path d="M341.22,95c.14-.12-.05-.33-.2-.21-7.68,6-16.07,13.8-26.13,15.15a24.76,24.76,0,0,1-14.46-2.46c-3.53-1.79-6.17-4.65-9.24-7.06-12-9.42-27.43,3.69-26.29,17.09,0,.28.51.25.5,0-.39-9.79,6.37-19,16.62-19.56,8.23-.47,13,8.17,20.09,11C316.91,114.88,330.68,104.46,341.22,95Z" style="fill:#263238"></path><path d="M130.24,113.87c2.79-4.84,71.23.51,129.27,6.44h.05c26.19,2.68,51.59,3.17,67.32,5.82,10,1.68,15,6,16,7.51,3.34,5.12,8.74,20.9-20.23,36.72-21.9,12-46.64,22.07-66.43,42s-32.67,46.34-33.6,65.26,10.64,38.44,9.51,36.33c-.35-.64-5.45-.92-12.06-5.85-8.11-6-17-17.87-23.46-21.78-13.23-8-32.24-9.11-45.26-25.75C137.61,243,137,214.83,132.12,192,126.19,164.28,106.18,155.66,130.24,113.87Z" style="fill:#37474f"></path><path d="M134.05,202.3c-.59-3.51-1.21-7-1.93-10.3a95.31,95.31,0,0,0-6.47-18.69s62.85-8.17,79.81,1.29C214.74,179.77,185.86,179,134.05,202.3Z" style="fill:#263238"></path><path d="M206.54,295.2c-3.61-3.74-7-7.12-9.94-8.89a69.27,69.27,0,0,0-10.67-5c6.84-24.93,13.3-41.95,25.6-52.31C219.41,222.35,196.8,263.11,206.54,295.2Z" style="fill:#263238"></path><path d="M137.21,221.87c-.56-3.17-1.07-6.36-1.57-9.55,20.62-5.69,38.62-15.26,38.51-12.55C174,202.72,151.1,214.84,137.21,221.87Z" style="fill:#263238"></path><path d="M105.71,167.4S103,141.72,123.6,113.54c2-2.74,32.51-11.81,52.13-11.2s33.74,8.06,56.44,14.09,85,5.65,99.43,10.53c9.95,3.35,11.24,6.7,11.24,6.7s-11.49-5.14-18.68-5.85c-28.41-2.8-80.47,6.42-93.66,4.71-16.09-2.1-33.87-5.62-47.31-4C168.13,130.36,115.33,159.22,105.71,167.4Z" style="fill:#455a64"></path><path d="M331.82,187.86A57.92,57.92,0,0,1,324.1,208c-16.61,26.75-51.05,70.49-58.9,82.69C250.92,312.94,183.6,358,183.6,358l-21-32.63s64.41-57.32,65.23-58.81c4.67-8.46,41.76-62.73,41.86-64.47C270.59,184.29,286,169,286,169Z" style="fill:#263238"></path><path d="M331.81,187.86a57.37,57.37,0,0,1-6.68,18.44c-21.78,1.43-47.08-4.39-55.29-6.47C271.88,183,286,169,286,169Z" style="fill:#455a64"></path><path d="M152.43,405.78c-1.65-1.65-22.17-60.41-21.88-63.25,0-.49,7.34-3.56,19.32-8.28.83-.33,60.16-52.78,60.16-52.78l28.27,39.41L164.07,371.7s-3.86,25-4.52,28.07S154.08,407.43,152.43,405.78Z" style="fill:#FFA52E"></path><path d="M238.3,320.88l-10.21,7L200.42,290l9.61-8.49Z" style="fill:#fff;opacity:0.30000000000000004"></path><path d="M238.31,320.88l-34.83,23.83.21-57.63c3.9-3.45,6.35-5.6,6.35-5.6Z" style="opacity:0.1"></path><path d="M271.18,206.77q-4.06,7.42-8.47,14.63c-2.91,4.82-5.92,9.58-8.95,14.33s-6.15,9.43-9.34,14.07-6.42,9.26-9.91,13.71l4.25-7.31c1.44-2.43,2.88-4.85,4.35-7.25,2.92-4.81,5.94-9.56,9-14.3s6.15-9.44,9.32-14.09S267.82,211.3,271.18,206.77Z" style="fill:#fff;opacity:0.1"></path><path d="M250.69,311.39,245.54,273s60.85-18.05,62.41-21.51c.62-1.35-38.83-27.28-38.44-56.32.2-14.5,16.26-26.16,16.26-26.16l36.6,15.3s-5.23,12.76-3.62,14.91c3.49,4.68,49.4,41,46.82,63.81C362.89,286.67,250.69,311.39,250.69,311.39Z" style="fill:#263238"></path><path d="M318.75,199.2c-16.74-5.72-35.53,1-47.57,7a35.74,35.74,0,0,1-1.67-11c.2-14.5,16.26-26.16,16.26-26.16l36.61,15.3S317.15,197,318.75,199.2Z" style="fill:#455a64"></path><path d="M305.89,188.69a23.67,23.67,0,0,1,7.19,4.33,34.83,34.83,0,0,1,3.05,2.9,27.49,27.49,0,0,1,2.62,3.28c-2.15-1.79-4.19-3.65-6.31-5.42-1.05-.89-2.12-1.75-3.21-2.6S307.05,189.48,305.89,188.69Z" style="fill:#263238"></path><path d="M312.55,190.72a7,7,0,0,1,2.22,1.34,11.06,11.06,0,0,1,1.76,1.92,10.66,10.66,0,0,1,1.89,4.79c-.49-.72-.9-1.45-1.35-2.15s-.89-1.39-1.36-2.06A34.23,34.23,0,0,0,312.55,190.72Z" style="fill:#263238"></path><path d="M308,251.47a18.09,18.09,0,0,1,3.85,1.95,31.45,31.45,0,0,1,3.45,2.6,35.25,35.25,0,0,1,3.08,3,29.25,29.25,0,0,1,2.64,3.41c-2.18-1.89-4.23-3.83-6.37-5.68-1.06-.93-2.15-1.83-3.25-2.72S309.14,252.29,308,251.47Z" style="fill:#37474f"></path><path d="M271.18,206.18a30.24,30.24,0,0,0,2.22,5.48c.43.89.9,1.76,1.37,2.63s1,1.71,1.51,2.54,1.05,1.67,1.6,2.49l1.67,2.44c1.19,1.58,2.34,3.18,3.61,4.7,2.43,3.12,5.12,6,7.8,8.92l4.15,4.24c1.41,1.39,2.85,2.75,4.25,4.15-1.52-1.27-3-2.59-4.51-3.88l-4.31-4.11a117.46,117.46,0,0,1-8-8.86,79.52,79.52,0,0,1-6.8-9.79A39.31,39.31,0,0,1,271.18,206.18Z" style="fill:#37474f"></path><path d="M283.87,173a39.09,39.09,0,0,0-6.06,9.79,32.15,32.15,0,0,0-2.68,11,27.58,27.58,0,0,0,1.73,11.06,36.55,36.55,0,0,0,2.43,5.1c.93,1.67,1.94,3.3,3,4.89a100.81,100.81,0,0,0,6.92,9.19c2.46,3,5.08,5.79,7.76,8.57s5.48,5.45,8.33,8.05,5.78,5.16,8.77,7.63a135.29,135.29,0,0,1-18.19-14.58A107,107,0,0,1,280.64,216q-1.63-2.44-3.06-5a36.43,36.43,0,0,1-2.5-5.41,27.77,27.77,0,0,1-1.51-11.81A33.68,33.68,0,0,1,283.87,173Z" style="fill:#fff;opacity:0.1"></path><path d="M209.93,343.67c-.92-2.15,1.91-64.32,3.25-66.85.22-.44,8.13-.57,21-.49.9,0,59.38-19.38,59.38-19.38L314,297.49l-80.56,18.89s-12.88,21.75-14.64,24.37S210.85,345.81,209.93,343.67Z" style="fill:#FFA52E"></path><path d="M314,297.49l-12.79,3-18.68-39.88L293.56,257Z" style="fill:#fff;opacity:0.30000000000000004"></path><path d="M335,144.57c10.69,22.89,25.09,44.4,32.75,45.43,10.31,1.38,33.51-6.74,45.16-12.06,3.42-1.57-9.3-28-13-26.3-4.43,2-27.15,12.82-27.64,12.88-1,.13-23-18.88-28.16-23.55C335.55,133.17,330.24,134.41,335,144.57Z" style="fill:#ad6359"></path><path d="M430,169.05c-4.5,4.35-17.19,9.63-20.74,9.73S396,157.6,397.67,154.37s18-16.69,24.36-17.27S434.64,164.54,430,169.05Z" style="fill:#ad6359"></path><path d="M412.43,140c-.85,3.2,3.41,2.37,3.41,2.37s-5.85,2.68-5.45,6.32,5.51,2.33,5.88,2.25c-.31.14-5.62,2.74-4.84,6.36s5.75,1.69,6.07,1.56c-.25.22-3.48,3.29-2.27,5.91,2.1,4.49,10.58-3.12,14.58-2.74,0,0,.12,6.85.16,7.05,0,0,8.22-7.08,8.44-12.5a3.47,3.47,0,0,0-2.53-3.53s2.9-2,2.38-4.86c-.27-1.47-2.87-2.34-2.87-2.34A4.36,4.36,0,0,0,437,141.6c-.49-2-3-2.57-3-2.57s1.41-2.63.24-4.53C431.88,130.67,414.25,133.1,412.43,140Z" style="fill:#ad6359"></path><path d="M433.61,138.88a.05.05,0,0,0,0-.1,30.91,30.91,0,0,0-18,3.58c-.18.1-.09.42.12.35A63.26,63.26,0,0,1,433.61,138.88Z" style="fill:#263238"></path><path d="M435.47,145.77c.07,0,.06-.12,0-.13a28.9,28.9,0,0,0-19.4,5.13c-.2.14-.22.47,0,.32C420,148.57,429.73,146.07,435.47,145.77Z" style="fill:#263238"></path><path d="M417.2,159.26c5.56-3.83,11.79-5.49,18.43-6.28.08,0,.06-.13,0-.14-3.36-.5-7.54.44-10.73,1.45a17.83,17.83,0,0,0-7.82,4.77C417,159.15,417.09,159.34,417.2,159.26Z" style="fill:#263238"></path><path d="M415.84,142.34a20.86,20.86,0,0,0-3,2.13,6.78,6.78,0,0,0-2.13,2.84,2.26,2.26,0,0,0,.07,1.6,3.32,3.32,0,0,0,1,1.28,3.94,3.94,0,0,0,3.2.44l2.64-.65-2.25,1.53a11,11,0,0,0-2.64,2.46,4,4,0,0,0-.94,3.11,2.28,2.28,0,0,0,2.09,2,6.82,6.82,0,0,0,3.38-.7L420.2,157l-2.34,2.19a10.84,10.84,0,0,0-1.7,2.06,4.22,4.22,0,0,0-.75,2.37,2.05,2.05,0,0,0,1.19,1.8,4.52,4.52,0,0,0,2.53,0,36.46,36.46,0,0,0,5.26-1.9c.87-.35,1.74-.71,2.64-1a6.65,6.65,0,0,1,2.78-.53,7.35,7.35,0,0,0-2.69.77c-.85.38-1.69.81-2.54,1.23a30.26,30.26,0,0,1-5.26,2.21,5.3,5.3,0,0,1-3,.09,2.89,2.89,0,0,1-1.86-2.59,5.25,5.25,0,0,1,.86-3,11.79,11.79,0,0,1,1.85-2.32l.61.88a7.93,7.93,0,0,1-4,.86,3.27,3.27,0,0,1-2-.92,3.73,3.73,0,0,1-1-2,5,5,0,0,1,1.19-3.94,12,12,0,0,1,2.94-2.66l.39.88a4.78,4.78,0,0,1-3.93-.75,4,4,0,0,1-1.19-1.65,2.84,2.84,0,0,1,0-2,7,7,0,0,1,2.48-2.9A16.18,16.18,0,0,1,415.84,142.34Z" style="fill:#263238"></path><path d="M400,151.59s10.31-24.48,17.9-15.76c2.26,2.59,8.43,15.92,5.78,17.22-3.43,1.66-7-3.42-8.8-7,0,0-2.34,8.82-9,9A6.58,6.58,0,0,1,400,151.59Z" style="fill:#ad6359"></path><path d="M417.27,135.15a13.8,13.8,0,0,1,2.57,3.12,30.08,30.08,0,0,1,2,3.57,46.55,46.55,0,0,1,2.89,7.62,7.69,7.69,0,0,1,.28,2.14,2.82,2.82,0,0,1-.29,1.2,2.24,2.24,0,0,1-.39.55,1.79,1.79,0,0,1-.56.38,3.41,3.41,0,0,1-2.36.2,6.45,6.45,0,0,1-2-1,12.45,12.45,0,0,1-2.85-3.09,26.74,26.74,0,0,1-2-3.56l.87-.1a16.26,16.26,0,0,1-1.18,2.88,15.37,15.37,0,0,1-1.69,2.59,10.48,10.48,0,0,1-2.29,2.07,8.17,8.17,0,0,1-2.81,1.18,9,9,0,0,0,2.61-1.45,10.89,10.89,0,0,0,2-2.16,15.44,15.44,0,0,0,1.47-2.56,16.25,16.25,0,0,0,1-2.77l.28-1.18.59,1.08a32,32,0,0,0,2.07,3.37A12.08,12.08,0,0,0,420,152c1,.7,2.26,1.17,3.19.7s.7-1.81.42-3a37.59,37.59,0,0,0-1.12-3.81c-.43-1.27-.87-2.53-1.37-3.77A25.76,25.76,0,0,0,417.27,135.15Z" style="fill:#263238"></path><path d="M383.62,158.74l9.18,29.19s-20.87,4.75-27.15,1.69-22.5-24.69-29.54-40.81-1.64-17.5,11.7-5.61,24,20.38,24.48,20.24S383.62,158.74,383.62,158.74Z" style="fill:#FFA52E"></path><path d="M379.08,162.37c0-.09-.18-.05-.16,0a238.2,238.2,0,0,0,6.39,25.26c0,.09.18.05.16,0A238.2,238.2,0,0,0,379.08,162.37Z" style="fill:#263238"></path><path d="M355.56,179.79c-6.94-8.5-15-20.83-19.45-31-5.71-13-3.25-16.44,5-10.95Z" style="opacity:0.1"></path><path d="M335.21,176.59l-3.39,11.27-12.35,4.69L286,169s18.29-32,38.25-37.86c10-2.94,16.78,1.81,18.56,9.11.44,1.85,4.15,19.57,1.45,27.33A15.47,15.47,0,0,1,335.21,176.59Z" style="fill:#FFA52E"></path><path d="M322.31,168.55a33.6,33.6,0,0,1,5.62,3.25c.88.65,1.72,1.35,2.55,2.09.42.36.84.7,1.27,1.05a5.47,5.47,0,0,0,1.43.88c.05,0,0,.11,0,.1a8.63,8.63,0,0,1-1.48-.51,8.27,8.27,0,0,1-1.32-.82c-.9-.64-1.76-1.35-2.66-2-1.79-1.33-3.59-2.66-5.48-3.81C322.12,168.72,322.21,168.51,322.31,168.55Z" style="fill:#263238"></path><path d="M316.52,169.38a34.89,34.89,0,0,1,5.15,1.27,24.85,24.85,0,0,1,2.46,1l1.14.57c.42.21.8.5,1.22.71.05,0,0,.11,0,.09-.4-.17-.84-.26-1.25-.41l-1.25-.44c-.83-.29-1.67-.58-2.49-.88-1.66-.61-3.32-1.19-5-1.73C316.37,169.54,316.43,169.36,316.52,169.38Z" style="fill:#263238"></path><polygon points="334.09 165.02 324.22 150.47 325.07 145.48 343.95 153.63 343.95 156.82 334.09 165.02" style="opacity:0.1"></polygon><polygon points="334.09 163.44 325.82 151.25 326.52 147.06 342.36 153.89 342.36 156.56 334.09 163.44" style="opacity:0.1"></polygon><path d="M321.63,127.85c-24.76-2.75-44.77.28-49.91,5.38-4.25,4.23-18.11,23.24-24.41,35.08-1.76,3.33,24.57,19,26,15.2,2.22-5.82,18.21-33.4,18.4-33.86.39-1,26.43-8.34,33-10C336.92,136.73,334.76,129.31,321.63,127.85Z" style="fill:#ad6359"></path><path d="M251.5,214a4.49,4.49,0,0,1-3.34-3.88,6.67,6.67,0,0,1-4.52,0c-2.52-1.07-1.95-5.49-1.95-5.49a8.26,8.26,0,0,1-4.77-.8c-2.31-1.26-2.37-5.81-2.37-5.81a7.2,7.2,0,0,1-3.75-3.33c-2-4.17,1.77-10.12,4.13-13.94s12.63-12.41,14.42-14.25L274,181.36s-5.72,20.11-9.14,24.2C261.94,209,254.91,214.7,251.5,214Z" style="fill:#ad6359"></path><path d="M248.66,210.14c3.94-2.93,6.79-6.86,9.86-10.63.07-.08-.06-.19-.13-.1-3,3.78-6.73,6.91-9.89,10.56C248.41,210.07,248.56,210.22,248.66,210.14Z" style="fill:#263238"></path><path d="M242.06,204.66a12.58,12.58,0,0,0,2.16-2.55c.7-1,1.39-1.92,2.06-2.89,1.34-2,2.64-3.95,3.88-6,.05-.09-.07-.2-.13-.1-1.34,1.94-2.71,3.87-4.14,5.76q-1.06,1.41-2.16,2.82a15,15,0,0,0-1.93,2.73A.17.17,0,0,0,242.06,204.66Z" style="fill:#263238"></path><path d="M234.61,197.86a8.8,8.8,0,0,0,1.82-2.4c.6-.9,1.19-1.8,1.8-2.7,1.2-1.79,2.41-3.59,3.68-5.34.06-.08-.07-.19-.13-.1-1.3,1.77-2.62,3.53-3.9,5.31-.63.88-1.26,1.75-1.88,2.64a8.33,8.33,0,0,0-1.48,2.54C234.5,197.86,234.57,197.89,234.61,197.86Z" style="fill:#263238"></path><path d="M281.37,170.62,255,153.6s11.69-19.85,17.78-23.25,30.58-4.92,48-2.74c17.74,2.22,17.65,9.31.27,13.47s-28.74,8.43-28.89,8.9S281.37,170.62,281.37,170.62Z" style="fill:#FFA52E"></path><path d="M283.29,167.57c1.55-2.78,9-17.44,9.21-17.54.43-.21,7.17-2.58,9.17-3.28,1.7-.6,3.41-1.17,5.12-1.73,1.41-.13,2.82-.26,4.21-.52a.08.08,0,0,0,0-.16,22,22,0,0,0-2.91.25c1.88-.61,3.76-1.21,5.63-1.83,0,0,0-.07,0-.06-4.19.94-21.55,6.37-21.61,6.61s-8.89,17.61-9,18C283.08,167.42,283.24,167.65,283.29,167.57Z" style="fill:#263238"></path><path d="M282.24,163c.08.05.16-.09.08-.14a239.92,239.92,0,0,0-22.13-13.74.09.09,0,0,0-.09.15A237.84,237.84,0,0,0,282.24,163Z" style="fill:#263238"></path><path d="M324.65,128.22s4.52,16.37,11.26,18.15,9.57-5.18,9.57-5.18S337.7,129.72,324.65,128.22Z" style="fill:#ad6359"></path><path d="M332.53,131.89c-.14,1.05,2.1,9.11,6.61,10.59,1.47.48,4.44-7.43,4.44-7.43l.36-.54,4.93-7.47-7.25-9.81-1.08-1.34s-1.22,2.13-2.7,4.8l-.21.38a4.91,4.91,0,0,0-.25.44c-.23.39-.46.8-.68,1.21s-.34.61-.5.94l-.52,1A59.51,59.51,0,0,0,332.53,131.89Z" style="fill:#ad6359"></path><path d="M337.84,120.69a17.92,17.92,0,0,0,6.1,13.82l4.93-7.47-7.25-9.81-1.08-1.34S339.32,118,337.84,120.69Z" style="fill:#263238"></path><path d="M364.85,113.08c1.36,15.66-7.86,18.24-11.24,18.53-3.07.27-13.54.78-16.52-14.66s3.87-21,10.85-22S363.48,97.41,364.85,113.08Z" style="fill:#ad6359"></path><path d="M357.33,121a4.62,4.62,0,0,1-1.59,1.67,2.11,2.11,0,0,1-1.22.26c-.92-.1-1.07-.91-1-1.64a4.44,4.44,0,0,1,.24-1.12A5.94,5.94,0,0,0,357.33,121Z" style="fill:#263238"></path><path d="M355.74,122.68a2.11,2.11,0,0,1-1.22.26c-.92-.1-1.07-.91-1-1.64A2.12,2.12,0,0,1,355.74,122.68Z" style="fill:#ff9bbc"></path><path d="M360.31,110.89c-.35.12-.7.18-1.05.27a1.83,1.83,0,0,1-1.13.08.56.56,0,0,1-.3-.62,1.38,1.38,0,0,1,1.07-.9,2.07,2.07,0,0,1,1.47.08A.6.6,0,0,1,360.31,110.89Z" style="fill:#263238"></path><path d="M349.47,111.56a10,10,0,0,0,1-.42,1.72,1.72,0,0,0,.94-.63.55.55,0,0,0-.13-.67,1.37,1.37,0,0,0-1.4-.06,2.06,2.06,0,0,0-1.12,1A.6.6,0,0,0,349.47,111.56Z" style="fill:#263238"></path><path d="M351.73,114.56s-.08.06-.07.1c.15,1.06.15,2.3-.78,2.76,0,0,0,.07,0,.06C352.06,117.19,352,115.54,351.73,114.56Z" style="fill:#263238"></path><path d="M350.66,113.56c-1.73.06-1.48,3.5.12,3.45S352.1,113.5,350.66,113.56Z" style="fill:#263238"></path><path d="M350,113.79c-.28.21-.55.58-.92.64s-.76-.27-1.05-.59c0,0-.06,0-.06,0,0,.66.34,1.32,1.06,1.37s1.07-.58,1.19-1.25C350.23,113.87,350.11,113.7,350,113.79Z" style="fill:#263238"></path><path d="M358.3,113.61s.08,0,.08.08c0,1.08.26,2.3,1.25,2.59a0,0,0,0,1,0,.06C358.43,116.25,358.16,114.63,358.3,113.61Z" style="fill:#263238"></path><path d="M359.18,112.43c1.71-.24,2.06,3.19.48,3.42S357.74,112.63,359.18,112.43Z" style="fill:#263238"></path><path d="M359.92,112.58c.29.15.59.46.92.45s.62-.42.82-.8c0,0,0,0,.06,0,.08.66-.06,1.36-.68,1.55s-1.05-.34-1.27-1C359.73,112.71,359.8,112.52,359.92,112.58Z" style="fill:#263238"></path><path d="M352.92,123.21c.26.24.52.58.91.6a2.89,2.89,0,0,0,1.15-.3,0,0,0,0,1,0,0,1.43,1.43,0,0,1-1.34.62,1.13,1.13,0,0,1-.87-.92A.06.06,0,0,1,352.92,123.21Z" style="fill:#263238"></path><path d="M357.37,118.76s.36,1.58.42,2.33c0,.07-.17.12-.43.15h0a3.57,3.57,0,0,1-3.58-1c-.06-.06,0-.15.11-.11a5.42,5.42,0,0,0,3.34.66c0-.21-.7-2.68-.58-2.69a6.6,6.6,0,0,1,1.74.24c-.65-3.3-1.81-6.47-2.4-9.77,0-.12.15-.17.19-.07a54.17,54.17,0,0,1,3,10.42C359.28,119.3,357.68,118.86,357.37,118.76Z" style="fill:#263238"></path><path d="M338.43,117.68c2.55,0,2.72-5.36,2.72-5.36s5.15-.37,6.29-7.91a11.43,11.43,0,0,1-1.82,6.3s9-1.66,12.25-9.54c0,0-1.23,4-2.55,5.47a10.68,10.68,0,0,0,5.35-4.59s1.92,4.27,3.23,5.38c0,0-1.58-15.85-16.17-13,0,0-9.16,1.31-11.92,8.86S338.43,117.68,338.43,117.68Z" style="fill:#263238"></path><path d="M340.2,117.73s-3.2-5.07-5.48-4,0,8.34,2.52,9.44a2.66,2.66,0,0,0,3.63-1.26Z" style="fill:#ad6359"></path><path d="M335.41,115.84s-.05,0,0,.07c1.79.82,2.68,2.57,3.27,4.36a1.48,1.48,0,0,0-2.18-.51c-.05,0,0,.11.05.1a1.65,1.65,0,0,1,1.77.66,7.4,7.4,0,0,1,.79,1.5c.08.16.38.09.32-.1v0C339.57,119.54,337.91,116.19,335.41,115.84Z" style="fill:#263238"></path><path d="M333.91,129.58c-.54-1.85-3,1.64-1.64,4,2,3.48,6.06,7.81,7,7.94s4.65-3.46,5.13-4.28-.17-2.87-.5-2.72-3.57,4.06-4,4.21S335.08,133.57,333.91,129.58Z" style="fill:#455a64"></path></g><g id="freepik--Sparkles--inject-418"><polygon points="195.21 358.02 200.95 359.09 202.23 365.14 203.51 359.09 209.25 358.02 203.54 356.63 202.23 350.91 200.92 356.63 195.21 358.02" style="fill:#FFA52E"></polygon><polygon points="238.56 108.68 244.3 109.74 245.59 115.79 246.87 109.74 252.61 108.67 246.89 107.28 245.59 101.56 244.28 107.28 238.56 108.68" style="fill:#FFA52E"></polygon><polygon points="403.54 301.44 409.28 302.5 410.56 308.55 411.84 302.5 417.58 301.44 411.87 300.04 410.56 294.33 409.25 300.04 403.54 301.44" style="fill:#FFA52E"></polygon><polygon points="350.22 236.28 355.96 237.34 357.24 243.4 358.52 237.34 364.26 236.28 358.55 234.88 357.24 229.17 355.93 234.88 350.22 236.28" style="fill:#FFA52E"></polygon><polygon points="111.09 236.28 114.3 236.88 115.01 240.26 115.73 236.88 118.94 236.28 115.74 235.5 115.01 232.31 114.28 235.5 111.09 236.28" style="fill:#FFA52E"></polygon><polygon points="417.44 217.49 420.65 218.09 421.37 221.47 422.08 218.09 425.29 217.49 422.1 216.71 421.37 213.52 420.63 216.71 417.44 217.49" style="fill:#FFA52E"></polygon><polygon points="196.62 125.07 199.83 125.67 200.55 129.05 201.26 125.67 204.47 125.07 201.28 124.29 200.55 121.1 199.82 124.29 196.62 125.07" style="fill:#FFA52E"></polygon><polygon points="129.6 297.12 132.81 297.71 133.53 301.09 134.24 297.71 137.45 297.12 134.25 296.33 133.53 293.14 132.79 296.33 129.6 297.12" style="fill:#FFA52E"></polygon><polygon points="74.71 164.94 77.92 165.53 78.63 168.91 79.35 165.53 82.56 164.94 79.36 164.16 78.63 160.96 77.9 164.16 74.71 164.94" style="fill:#FFA52E"></polygon><polygon points="168.05 168.92 171.26 169.51 171.98 172.89 172.7 169.51 175.91 168.91 172.71 168.13 171.98 164.94 171.25 168.13 168.05 168.92" style="fill:#FFA52E"></polygon><polygon points="333.85 100.49 337.05 101.09 337.77 104.47 338.49 101.09 341.7 100.49 338.5 99.71 337.77 96.52 337.04 99.71 333.85 100.49" style="fill:#FFA52E"></polygon><polygon points="377.11 152.84 380.31 153.44 381.03 156.82 381.75 153.44 384.95 152.84 381.76 152.06 381.03 148.87 380.3 152.06 377.11 152.84" style="fill:#FFA52E"></polygon><polygon points="327.92 322.58 331.13 323.17 331.85 326.56 332.56 323.17 335.77 322.58 332.58 321.8 331.85 318.6 331.11 321.8 327.92 322.58" style="fill:#FFA52E"></polygon><path d="M172.27,301.79a.93.93,0,0,1,0,1.86A.93.93,0,0,1,172.27,301.79Z" style="fill:#FFA52E"></path><path d="M174.6,186a.93.93,0,0,1,0,1.86A.93.93,0,0,1,174.6,186Z" style="fill:#FFA52E"></path><path d="M303.44,117.76a.93.93,0,0,1,0,1.85A.93.93,0,0,1,303.44,117.76Z" style="fill:#FFA52E"></path><path d="M351.8,216.56a.93.93,0,0,1,0,1.86A.93.93,0,0,1,351.8,216.56Z" style="fill:#FFA52E"></path><path d="M385.52,270a.93.93,0,0,1,0,1.86A.93.93,0,0,1,385.52,270Z" style="fill:#FFA52E"></path><path d="M418.77,259.73a.66.66,0,0,1,0,1.32A.66.66,0,0,1,418.77,259.73Z" style="fill:#FFA52E"></path><path d="M368.76,140.86a.66.66,0,0,1,0,1.32A.66.66,0,0,1,368.76,140.86Z" style="fill:#FFA52E"></path><path d="M268.93,212.3a.66.66,0,0,1,0,1.31A.66.66,0,0,1,268.93,212.3Z" style="fill:#FFA52E"></path><path d="M352.35,342.8a.66.66,0,0,1,0,1.32A.66.66,0,0,1,352.35,342.8Z" style="fill:#FFA52E"></path><path d="M248.38,330.56a1.79,1.79,0,0,1,0,3.57A1.79,1.79,0,0,1,248.38,330.56Z" style="fill:#FFA52E"></path><path d="M133.52,244.06a1.78,1.78,0,0,1,0,3.56A1.78,1.78,0,0,1,133.52,244.06Z" style="fill:#FFA52E"></path><path d="M226.73,96.1a1.78,1.78,0,0,1,0,3.56A1.78,1.78,0,0,1,226.73,96.1Z" style="fill:#FFA52E"></path><path d="M323.72,91.29a1.79,1.79,0,0,1,0,3.57A1.79,1.79,0,0,1,323.72,91.29Z" style="fill:#FFA52E"></path><path d="M294.89,343.91a1.79,1.79,0,0,1,0,3.57A1.79,1.79,0,0,1,294.89,343.91Z" style="fill:#FFA52E"></path></g></svg>