<svg xmlns="http://www.w3.org/2000/svg" viewBox="0 0 500 500"><g id="freepik--background-complete--inject-61"><path d="M452.89,107.86H345.22s10.67-26,27.1-26,21.58,18,21.58,18S405,90,414.09,90s17,12.91,17,12.91S444,96,452.89,107.86Z" style="fill:#ebebeb"></path><path d="M345,231.91H237.31s10.68-26,27.11-26,21.57,18,21.57,18,11.09-9.77,20.19-9.77,17,12.91,17,12.91S336.08,220,345,231.91Z" style="fill:#ebebeb"></path><path d="M316.31,130.11H266s11.24-14.55,20.1-14.55,11.48,9.7,11.48,9.7,6.25-4.53,12-3.72S316.31,130.11,316.31,130.11Z" style="fill:#ebebeb;opacity:0.5"></path><path d="M125.29,213.14H75s11.24-14.56,20.1-14.56,11.48,9.71,11.48,9.71,6.25-4.53,12-3.72S125.29,213.14,125.29,213.14Z" style="fill:#ebebeb;opacity:0.5"></path><path d="M113.32,71.9H47.11S58.48,52.5,70.82,52.22,89.64,66.9,89.64,66.9,108.84,53.14,113.32,71.9Z" style="fill:#ebebeb;opacity:0.5"></path><path d="M403.44,208.7h-66.2S348.61,189.3,361,189s18.82,14.68,18.82,14.68S399,189.94,403.44,208.7Z" style="fill:#ebebeb;opacity:0.5"></path></g><g id="freepik--Beach--inject-61"><path d="M299.38,275.17s-6.33-10.26-6.6-17.47c-.29-7.85,4.51-16.25,4.51-16.25l-.37-.29s-6.78,8.63-6.13,17.72c.62,8.8,5.74,16.29,5.74,16.29Z" style="fill:#263238"></path><path d="M297.22,241.16s-4-3.62-5.9-3.5-5.66,4.37-5.66,4.51,3.25-2.26,3.25-2.26l-1.9,2.47,2.72-2.52-.88,2.11,1.59-2.35-.44,2.23,1.49-2.14-.75,1.64,1.19-1.33-.44,1.19,1-1.06-.82,1.52,1.37-1.4-.55,1.23.82-.85c.12-.12-.24.82-.24.82l1.15-1.17-.27,1,.59-.61-.12.61.59-.61-.13.55.89-.58-.12.29Z" style="fill:#263238"></path><path d="M297.19,241.13s-6.46.69-8,1.86-3.81,5.16-3.81,5.16l3.25-3.32L287,248.15l2.31-3.55-.47,2.94,1.7-3.32-.64,2.9,1.23-3.31-.4,3.17,1.48-3.46-.41,2.49,1.26-2.78-.46,2.46,1.7-3.22-.65,2.75,1.25-3-.16,1.44.95-1.76-.34,1.17,1.08-1.54-.14,1Z" style="fill:#263238"></path><path d="M297.16,241.16s-.35-4.45-1.52-5.48-5-2.2-5-2.2l2.28,1.12-2.28-.21,3.1.65-2.49.14,2.69.33-2.54.67,2.81-.21-1.49.53,1.87.18-2.16.29,2.54.35h-1.78l2.49.64a11.21,11.21,0,0,0-1.74,0,10.75,10.75,0,0,0,1.94.59l-1.06.15,1.21.2-.91.36,1.17,0-.9.23,1,.26L296,240l.76.36Z" style="fill:#263238"></path><path d="M297.1,241.11s2,3.38,1.57,5.72-3.1,6.54-3.1,6.54l1.31-2.67L295,252.4l2.06-2.66-2.06,1.2,1.85-1.88-1.68.62,1.53-1.44-1.7.65,1.7-1.32-1.53.38,2-1.29-1.88.58,1.44-.87-1.35.2,1.68-1-1.39.06,1.7-1.08-1.58.41,1.55-.91-1.29.09s1.06-.79,1.12-.79-1,.17-1,.17l.89-1-.48-.09Z" style="fill:#263238"></path><path d="M297.16,241.16s1.91-4.37,3.75-5.31A13.41,13.41,0,0,1,306,235l-2.33.51,2.13.17-3.46.33,3.31.3-4.08.45,3.65.27-3.07.53,1.62.41-2.42-.11,2,.42-2.62.29,1.84.45h-3.17l1.84.53-1.95,0,1.21.31s-1.72.37-1.86.37,1,.08,1,.08l-1.9.39.65.06Z" style="fill:#263238"></path><path d="M297.19,241.11s-.07-5.42.73-6.81a4.83,4.83,0,0,1,2.58-1.9l-1.39,1.08,1.39-.18-1.45.88,1.57-.12-1.88.83,1.52-.18-1.4.64.94,0-1.31.77,1.11-.26-1.25.88,1.15-.31-1.4,1,1-.33-1.35,1,1-.29-1,.66.61-.12-.8.67.68-.31-.8.82.49-.18Z" style="fill:#263238"></path><path d="M297.1,241.26s6.14-1.93,8.89-1,4.07,4.2,4.07,4.2l-2-2,.63,2.17L307,242l.49,2.42L306.29,242l.41,2.52-1.35-2.65.29,2.75-1.33-2.91.36,2.11-1.33-2.42.72,2.85-1.52-2.85.43,2.48c0-.12-1.1-2.35-1.1-2.35l.2,1.63-.84-1.53.16,1.17-1-1.4.33,1.33-1-1.33.16.8a11.31,11.31,0,0,0-1.05-.85C298.77,241.34,297.1,241.26,297.1,241.26Z" style="fill:#263238"></path><path d="M297.1,241.16s3.54.91,4.63,2.46.1,7.36.1,7.36l0-3.36-.75,1.61.61-2.47-1.21,1.72,1.09-2.73-1.29,2,.94-2.72-1.19,2,.74-2.62-1,2,.37-2.48-.73,1.51.34-1.94-.63,1.14.2-1.67-.38.92-.19-1.19,0,.64-.39-1.27v.65l-.45-.86Z" style="fill:#263238"></path><path d="M300,275.17h-7.15s.46-2.54-2.82-3.75a4.39,4.39,0,0,1,3.37,2.15s-1.61-4.3-5.08-5.08a8.88,8.88,0,0,1,6,4.73s.71-3.77-4.45-5.85c0,0,4.66.36,6.43,6.16,0,0-.94-5,2.93-7.15,0,0-2.42,2.38-2.07,5.39a5.31,5.31,0,0,1,5.55-3.52s-4.38,1.41-4.73,4.38a5.57,5.57,0,0,1,4-2.42s-2.23,1.05-2.58,2.11c0,0,1.41-1.29,2.62-.63C302.08,271.69,299.5,272,300,275.17Z" style="fill:#263238"></path><path d="M398.08,275.17s-4.57-7.41-4.77-12.62c-.21-5.68,3.26-11.74,3.26-11.74l-.27-.21s-4.89,6.23-4.43,12.8A26.94,26.94,0,0,0,396,275.17Z" style="fill:#263238"></path><path d="M396.52,250.6s-2.91-2.62-4.27-2.53-4.08,3.15-4.08,3.26,2.35-1.63,2.35-1.63l-1.38,1.78,2-1.83-.64,1.53,1.15-1.69-.32,1.6,1.08-1.54-.55,1.18.87-1-.32.86.74-.76-.59,1.1,1-1-.4.89.59-.61c.09-.09-.17.59-.17.59l.83-.85-.19.76.42-.44-.08.44.42-.44-.09.4.64-.42-.08.21Z" style="fill:#263238"></path><path d="M396.49,250.57s-4.66.5-5.78,1.35a17,17,0,0,0-2.76,3.73l2.35-2.4-1.16,2.4,1.67-2.57-.34,2.12,1.23-2.39-.46,2.1.89-2.4-.3,2.29,1.08-2.5-.3,1.8.91-2-.34,1.78,1.23-2.33-.46,2,.9-2.14-.12,1,.69-1.27-.25.84.79-1.11-.11.69Z" style="fill:#263238"></path><path d="M396.48,250.6s-.26-3.22-1.1-4a14.94,14.94,0,0,0-3.62-1.59l1.65.8-1.65-.14,2.24.46-1.8.11,1.94.23-1.83.49,2-.15-1.08.38,1.35.13-1.56.21,1.84.25H393.6l1.8.47a7.56,7.56,0,0,0-1.26,0,9,9,0,0,0,1.41.42l-.77.11.87.15-.66.25.85,0-.65.17.72.19-.3.13.55.26Z" style="fill:#263238"></path><path d="M396.43,250.56s1.48,2.44,1.14,4.14a20.53,20.53,0,0,1-2.25,4.72l1-1.93-1.34,1.23,1.49-1.93-1.49.87,1.34-1.35-1.21.44,1.1-1-1.23.47,1.23-1-1.1.27,1.44-.93-1.36.42,1-.63-1,.15,1.21-.72-1,0,1.23-.79-1.15.3,1.13-.66-.94.07s.77-.57.81-.57l-.72.12.64-.7-.34-.06Z" style="fill:#263238"></path><path d="M396.48,250.6s1.38-3.17,2.7-3.84a9.66,9.66,0,0,1,3.7-.62l-1.68.36,1.54.13-2.5.24,2.39.21-2.95.33,2.64.19-2.22.39,1.17.29-1.75-.07,1.46.3-1.9.21,1.33.32h-2.28l1.32.39-1.41,0,.88.22s-1.25.27-1.35.27l.74.06-1.37.28.47,0Z" style="fill:#263238"></path><path d="M396.5,250.56s-.05-3.92.52-4.92a3.52,3.52,0,0,1,1.87-1.37l-1,.78,1-.13-1.05.63,1.13-.08-1.35.59,1.1-.13-1,.47.68,0-.95.55.81-.18-.91.63.84-.22-1,.7.75-.24-1,.7.72-.22-.74.48.44-.08-.58.48.49-.23-.57.59.35-.12Z" style="fill:#263238"></path><path d="M396.44,250.67s4.43-1.39,6.42-.71a5.72,5.72,0,0,1,2.93,3l-1.41-1.46.45,1.57-1.27-1.88.36,1.75-.85-1.76.3,1.82-1-1.92.21,2-1-2.1.26,1.52-1-1.75.52,2.06-1.1-2.06s.32,1.88.31,1.79-.79-1.69-.79-1.69l.14,1.17-.61-1.1.12.85-.71-1,.24,1-.71-1,.12.58a9.12,9.12,0,0,0-.76-.62C397.64,250.72,396.44,250.67,396.44,250.67Z" style="fill:#263238"></path><path d="M396.44,250.6s2.55.66,3.34,1.77.07,5.32.07,5.32v-2.42l-.53,1.15.43-1.78-.87,1.25.79-2-.93,1.45.67-2-.86,1.41.54-1.89-.72,1.47.27-1.79-.52,1.08.24-1.39-.46.82.15-1.2-.28.66-.13-.86,0,.46-.28-.92v.47l-.33-.62Z" style="fill:#263238"></path><path d="M398.53,275.17h-5.16s.33-1.84-2-2.71a3.17,3.17,0,0,1,2.43,1.55s-1.15-3.1-3.67-3.67a6.43,6.43,0,0,1,4.36,3.42s.51-2.72-3.21-4.22c0,0,3.36.25,4.64,4.44,0,0-.68-3.64,2.12-5.16a5.26,5.26,0,0,0-1.5,3.89,3.84,3.84,0,0,1,4-2.54s-3.16,1-3.42,3.16a4.06,4.06,0,0,1,2.91-1.75s-1.61.77-1.86,1.53c0,0,1-.93,1.89-.45C400,272.66,398.17,272.91,398.53,275.17Z" style="fill:#263238"></path><path d="M367.7,275.25h-4.87s8.29-7,9.6-14-1.06-9.95-1.06-9.95l.5-.3a15.79,15.79,0,0,1,1.41,10.4C372,267.21,367.7,275.25,367.7,275.25Z" style="fill:#263238"></path><path d="M371.86,251.56s4.42,1.64,5.83,2.94,1.74,6.61,1.74,6.61l-.94-3.69.4,3.15-1.14-4.05.11,4-.78-5-.06,4.08-.5-4.32-.37,3.3L376,255l-.34,2.68-.4-3.25.1,2.92-.9-3.35.17,2.11-1-2.32.35,1.75-.74-2.18.17,1.21Z" style="fill:#263238"></path><path d="M371.86,251.56s-2.58,1.5-2.95,3.62.53,6.43.53,6.43l0-3.42.86,2.28-.49-3.32.83,2.45-.34-3.27.78,1.73-.54-2.78.84,1.3-.6-2.28.87,1.34-.5-2.41.67,1.14-.34-1.84.54.74-.37-1.18Z" style="fill:#263238"></path><path d="M372.06,252s1.74-3.14,4.52-4.11a8.55,8.55,0,0,1,5.8.47l-3.25-.21,2.18.84-3.15-.3,2.41,1.27-3.35-.83s2.11,2.07,2,1.94-2.58-1.71-2.58-1.71l1.44,2.25-2.25-1.83,1.38,2.22-2.08-1.67,1.68,1.95L374.34,251l1.3,1.31-1.84-.77.81.77-1.58-.77Z" style="fill:#263238"></path><path d="M371.86,251.56s-.27-5.16.9-7.58,5.16-3.62,5.16-3.62l-2.68,2.12,2.68-1-3,1.64s2.47-.44,2.57-.47l-2.95,1.14,3-.07-3.08.67,2.78.1-2.92.67,2.92.1-3.6.74,3-.23-3,.9,2.53-.1-2.85,1,2.34-.2-2.48.77,1.51-.1-1.84.77,1.37.07-1.54.43,1,.17-1.23.5h1.38l-1.38.71Z" style="fill:#263238"></path><path d="M371.86,252s-2.62-1.44-4.73-1.14-4.82,2.61-4.82,2.61l1.74-.87-.84,1.44,1.44-1.61-.47,2.11.94-2,.07,1.81,1-2v1.87l.8-1.87-.06,2.17,1-2.17.13,1.54.5-1.81.25,1.27.46-1.14.37,1,.26-1.28.24,1,.47-.91Z" style="fill:#263238"></path><path d="M371.83,251.39s.33-4.69-.68-6.7-4.25-4.16-4.25-4.16l1.92,2.15-2.12-.57,2.59,1.34h-2.43l2.72.57a11.75,11.75,0,0,1-1.84.73c-.21,0,2.17-.3,2.17-.3l-1.69,1.21,2.06-.54-1.84,1,1.94-.3-1.49.69,1.76-.07s-1.22.59-1.27.59l1.54-.09-1.34.84,1.37-.08-1.2.57,1.22,0-.82.3,1,.24-1,.1,1,.25-.89.18.92.14-.65.22.85.15-.5.3.66.22-.36.15Z" style="fill:#263238"></path><path d="M371.86,252s-1.92-4.31-4.06-5.61-6.93-.83-6.93-.83l3.89.67-2.89,1.14,3.65-.48L363,248l3.33-.8-2.25,1.35,3.29-1-2.61,1.64L368,248l-2.06,1.88,2.52-1.5-1.94,1.81,2.3-1.41-1.27,1.76,1.74-1.26-1.07,1.49,1.47-1.06-.87,1.28,1.24-.73-.77,1.1,1.3-.75-.85.92s1.13-.54,1.2-.54-.5.54-.5.54l.78-.17Z" style="fill:#263238"></path><path d="M370.66,275.25s-.31-1.91,2.36-4a5,5,0,0,0-2.64,2.43,4.48,4.48,0,0,1,3.32-4,4.74,4.74,0,0,0-4.08,3.22s.21-3.54,3-5.1c0,0-2.7,1-4,4.91a8.19,8.19,0,0,0-5.14-3.22s3.11,1.25,3.15,3.65c0,0-2.28-3.05-5.09-2.8,0,0,3.21.86,3.21,3.14a3.64,3.64,0,0,0-3.41-1.84s3.54,1.41,2,3.55Z" style="fill:#263238"></path><path d="M273.11,275.25H269s7.07-6,8.18-11.91-.9-8.48-.9-8.48l.43-.26a13.51,13.51,0,0,1,1.2,8.87C276.8,268.39,273.11,275.25,273.11,275.25Z" style="fill:#263238"></path><path d="M276.66,255.06s3.77,1.39,5,2.51,1.48,5.62,1.48,5.62l-.8-3.14.34,2.69-1-3.46.09,3.4-.66-4.28-.06,3.48-.42-3.68-.32,2.81-.14-3-.29,2.28-.34-2.77.09,2.48-.78-2.85L279,259l-.84-2,.3,1.48-.63-1.85.14,1Z" style="fill:#263238"></path><path d="M276.66,255.06s-2.2,1.28-2.52,3.08a20.76,20.76,0,0,0,.46,5.48l0-2.91.73,1.94-.42-2.83.72,2.09-.3-2.78.67,1.47-.46-2.37.71,1.11-.51-1.94.74,1.14-.43-2.06.58,1-.29-1.57.46.63-.32-1Z" style="fill:#263238"></path><path d="M276.83,255.39a8.36,8.36,0,0,1,3.85-3.5,7.34,7.34,0,0,1,4.94.39l-2.77-.17,1.86.72-2.68-.26,2.05,1.09-2.85-.72s1.79,1.77,1.71,1.66-2.2-1.46-2.2-1.46l1.23,1.92-1.92-1.56,1.18,1.89L279.45,254l1.43,1.66-2.11-1,1.11,1.11-1.57-.65.69.65-1.34-.65Z" style="fill:#263238"></path><path d="M276.66,255.06s-.23-4.4.77-6.46,4.4-3.08,4.4-3.08l-2.29,1.8,2.29-.89-2.6,1.4s2.11-.37,2.2-.4l-2.52,1,2.57-.06-2.63.57,2.38.09-2.49.57,2.49.09-3.07.63,2.55-.2-2.55.77,2.15-.09-2.43.83,2-.17-2.11.65,1.28-.08-1.57.66,1.18.05-1.32.37.82.15-1.05.43h1.17l-1.17.6Z" style="fill:#263238"></path><path d="M276.66,255.4a7.86,7.86,0,0,0-4-1c-1.8.25-4.11,2.22-4.11,2.22l1.48-.74-.71,1.23,1.23-1.37-.4,1.8.8-1.72.05,1.55.83-1.69v1.6l.69-1.6-.06,1.86.88-1.86.12,1.32.43-1.55.21,1.09.39-1,.31.85.23-1.08.2.86.4-.77Z" style="fill:#263238"></path><path d="M276.63,254.91s.28-4-.57-5.71-3.63-3.54-3.63-3.54l1.64,1.83-1.81-.49,2.21,1.14H272.4l2.31.49a10.44,10.44,0,0,1-1.57.63c-.17,0,1.86-.26,1.86-.26l-1.44,1,1.75-.46-1.57.84,1.66-.25-1.27.58,1.5-.05s-1,.5-1.09.5l1.32-.08-1.15.72,1.17-.07-1,.48,1,0-.7.26.84.2-.81.09.84.21-.76.16.79.11-.56.19.73.13-.43.25.56.19-.3.13Z" style="fill:#263238"></path><path d="M276.66,255.4s-1.64-3.67-3.46-4.79-5.91-.7-5.91-.7l3.32.58-2.47,1,3.11-.41-2.12,1,2.84-.69-1.92,1.16,2.81-.83-2.23,1.39,2.74-1-1.76,1.61,2.15-1.29-1.65,1.54,2-1.2-1.08,1.5,1.48-1.07-.91,1.27,1.25-.9-.74,1.09,1.06-.62-.66.93,1.11-.63-.73.78s1-.46,1-.46-.43.46-.43.46l.66-.15Z" style="fill:#263238"></path><path d="M275.63,275.25s-.26-1.63,2-3.39a4.24,4.24,0,0,0-2.24,2.08,3.81,3.81,0,0,1,2.82-3.38,4,4,0,0,0-3.47,2.74A5.72,5.72,0,0,1,277.3,269a6.69,6.69,0,0,0-3.43,4.19,7,7,0,0,0-4.38-2.75s2.65,1.06,2.69,3.12c0,0-1.95-2.6-4.35-2.4,0,0,2.75.74,2.75,2.68a3.12,3.12,0,0,0-2.92-1.56s3,1.2,1.74,3Z" style="fill:#263238"></path><path d="M440.33,275.25h-4.49s7.63-6.48,8.83-12.86-1-9.16-1-9.16l.47-.28a14.58,14.58,0,0,1,1.29,9.58C444.31,267.85,440.33,275.25,440.33,275.25Z" style="fill:#263238"></path><path d="M444.15,253.45s4.07,1.51,5.37,2.71,1.6,6.07,1.6,6.07l-.86-3.39.37,2.9L449.58,258l.09,3.67-.71-4.63-.06,3.77-.46-4-.34,3-.16-3.22-.3,2.47-.37-3,.09,2.68-.83-3.08.15,1.94-.91-2.13.32,1.61-.67-2,.15,1.11Z" style="fill:#263238"></path><path d="M444.15,253.45s-2.37,1.38-2.71,3.33.49,5.92.49,5.92l0-3.15.79,2.1-.45-3,.77,2.25-.32-3,.72,1.59-.49-2.56.77,1.2-.56-2.1.81,1.24-.47-2.22.62,1.05-.31-1.7.5.68-.34-1.08Z" style="fill:#263238"></path><path d="M444.34,253.81A9.11,9.11,0,0,1,448.5,250a7.9,7.9,0,0,1,5.33.44l-3-.19,2,.77-2.9-.28,2.22,1.18-3.09-.78s1.95,1.92,1.85,1.79-2.37-1.57-2.37-1.57l1.33,2.07-2.07-1.69,1.26,2.05-1.91-1.54,1.54,1.79L446.43,253l1.21,1.21-1.7-.71.74.71-1.45-.71Z" style="fill:#263238"></path><path d="M444.15,253.45s-.25-4.75.83-7,4.75-3.33,4.75-3.33l-2.46,1.94,2.46-1-2.8,1.51s2.28-.4,2.37-.43l-2.71,1,2.77-.06-2.83.62,2.55.09-2.68.62,2.68.09-3.31.68,2.76-.22-2.76.83,2.33-.09-2.62.89,2.16-.18-2.29.71,1.39-.09-1.69.71,1.26.06-1.42.4.88.15-1.13.46h1.27l-1.27.65Z" style="fill:#263238"></path><path d="M444.15,253.82a8.45,8.45,0,0,0-4.35-1c-1.94.28-4.44,2.4-4.44,2.4l1.61-.8-.77,1.33,1.32-1.49-.43,2,.86-1.85L438,256l.9-1.81v1.72l.74-1.72-.06,2,1-2,.13,1.41.46-1.66.23,1.17.42-1.05.34.93.24-1.17.22.93.43-.84Z" style="fill:#263238"></path><path d="M444.13,253.29s.3-4.31-.63-6.17-3.91-3.82-3.91-3.82l1.77,2-2-.52,2.39,1.23h-2.23l2.49.53a11.61,11.61,0,0,1-1.69.68c-.19,0,2-.28,2-.28L440.81,248l1.89-.49-1.69.91,1.78-.28-1.37.63,1.62-.06s-1.12.54-1.17.54l1.42-.08-1.24.77,1.27-.08-1.11.53,1.12,0-.75.28.91.21-.88.09.91.24-.82.16.85.13-.6.2.78.14-.46.27.6.21-.32.13Z" style="fill:#263238"></path><path d="M444.15,253.82s-1.76-4-3.73-5.17-6.38-.76-6.38-.76l3.58.62-2.66,1,3.36-.44L436,250.2l3.06-.74L437,250.71l3-.9-2.41,1.5,3-1.11-1.89,1.73,2.31-1.38-1.78,1.66,2.12-1.29-1.17,1.62,1.6-1.16-1,1.37,1.34-1-.79,1.18,1.14-.67-.71,1,1.2-.68-.79.84s1-.5,1.11-.5-.46.5-.46.5l.72-.16Z" style="fill:#263238"></path><path d="M443,275.25s-.27-1.76,2.18-3.66a4.56,4.56,0,0,0-2.43,2.25,4.14,4.14,0,0,1,3-3.66,4.34,4.34,0,0,0-3.74,3s.18-3.26,2.75-4.69a7.19,7.19,0,0,0-3.7,4.52,7.52,7.52,0,0,0-4.74-3s2.86,1.14,2.9,3.36c0,0-2.09-2.81-4.68-2.59,0,0,3,.8,3,2.89a3.35,3.35,0,0,0-3.15-1.68s3.26,1.29,1.87,3.26Z" style="fill:#263238"></path><path d="M462,275.29s-29.38-4.2-43.57-5-71.55,2.6-73.42,2.93-56.67-1.44-70.26-2-237,4.14-237,4.14Z" style="fill:#263238"></path></g><g id="freepik--Water--inject-61"><path d="M40.28,307.87c27.48,0,80.24-8.64,96.65-8.64s59.27,8.64,99.47,8.64" style="fill:#fff"></path><path d="M40.28,307.87c8.21-.13,16.39-.82,24.56-1.61s16.32-1.73,24.47-2.7l24.45-2.89c4.08-.46,8.16-.91,12.25-1.27a112.87,112.87,0,0,1,12.35-.63c4.13.11,8.22.54,12.31,1s8.15,1,12.23,1.48q12.21,1.58,24.42,3c8.15,1,16.31,1.8,24.49,2.41s16.38,1.07,24.59,1.18c-8.21.05-16.42-.21-24.62-.69s-16.37-1.28-24.54-2.14-16.31-1.9-24.46-2.9c-4.07-.49-8.14-1-12.22-1.43s-8.15-.84-12.23-.94a109.06,109.06,0,0,0-12.23.58c-4.08.35-8.16.78-12.24,1.22l-24.47,2.75C73.08,306.05,56.71,307.87,40.28,307.87Z" style="fill:#ebebeb"></path><path d="M251.9,296.7c18.09,0,52.84-8.64,63.65-8.64s39,8.64,65.51,8.64" style="fill:#fff"></path><path d="M251.9,296.7a137.56,137.56,0,0,0,16.2-1.61c5.38-.79,10.73-1.73,16.08-2.7s10.69-1.95,16.05-2.88c2.68-.46,5.37-.91,8.07-1.27a48.59,48.59,0,0,1,8.2-.63,64.78,64.78,0,0,1,8.15,1c2.69.44,5.36,1,8,1.48q8,1.56,16,3c5.35.95,10.71,1.81,16.11,2.41s10.81,1.05,16.25,1.19a155.68,155.68,0,0,1-16.3-.7c-5.42-.51-10.82-1.28-16.19-2.14S337.86,292,332.51,291c-2.67-.49-5.34-1-8-1.43a66.54,66.54,0,0,0-8-.94,49.52,49.52,0,0,0-8,.58c-2.69.35-5.37.79-8.05,1.22l-16.07,2.74C273.58,294.86,262.79,296.72,251.9,296.7Z" style="fill:#ebebeb"></path><path d="M222,341.83c18.09,0,52.84-8.64,63.65-8.64s39,8.64,65.51,8.64" style="fill:#fff"></path><path d="M222,341.83a137.73,137.73,0,0,0,16.21-1.61c5.37-.79,10.72-1.73,16.07-2.7s10.69-1.95,16.05-2.88c2.69-.45,5.37-.9,8.07-1.27a48.68,48.68,0,0,1,8.2-.63,64.94,64.94,0,0,1,8.16,1c2.69.44,5.36,1,8,1.48,5.33,1,10.67,2.06,16,3s10.72,1.81,16.11,2.42,10.81,1,16.25,1.18a153,153,0,0,1-16.3-.7c-5.42-.51-10.81-1.28-16.18-2.14s-10.72-1.9-16.06-2.89c-2.67-.49-5.34-1-8-1.43a66.54,66.54,0,0,0-8-.94,49.68,49.68,0,0,0-8,.58c-2.68.35-5.37.79-8.05,1.23l-16.07,2.74C243.71,340,232.92,341.85,222,341.83Z" style="fill:#ebebeb"></path><path d="M299.89,378.74c18.09,0,52.84-8.64,63.65-8.64s39,8.64,65.51,8.64" style="fill:#fff"></path><path d="M299.89,378.74a137.73,137.73,0,0,0,16.21-1.61c5.37-.79,10.72-1.73,16.07-2.7s10.69-1.95,16.05-2.88c2.69-.46,5.37-.91,8.07-1.27a49.74,49.74,0,0,1,8.2-.64,66.86,66.86,0,0,1,8.16,1c2.69.44,5.36,1,8,1.48q8,1.56,16,3c5.35.95,10.72,1.81,16.11,2.41s10.81,1.05,16.25,1.19a155.68,155.68,0,0,1-16.3-.7c-5.42-.51-10.81-1.28-16.18-2.14S385.85,374,380.51,373c-2.67-.5-5.34-1-8-1.43a66.54,66.54,0,0,0-8-.94,49.68,49.68,0,0,0-8,.58c-2.69.35-5.37.79-8.05,1.22l-16.07,2.74C321.58,376.9,310.79,378.76,299.89,378.74Z" style="fill:#ebebeb"></path><path d="M336.6,455.23c18.09,0,52.84-8.64,63.65-8.64s39,8.64,65.51,8.64" style="fill:#fff"></path><path d="M336.6,455.23a137.74,137.74,0,0,0,16.21-1.62c5.37-.79,10.72-1.73,16.07-2.7s10.69-2,16.05-2.88c2.69-.45,5.37-.9,8.07-1.27a49.74,49.74,0,0,1,8.2-.63,64.94,64.94,0,0,1,8.16,1c2.69.45,5.35,1,8,1.48q8,1.56,16,3c5.35.95,10.71,1.8,16.11,2.41s10.81,1,16.25,1.19a158.45,158.45,0,0,1-16.3-.7c-5.42-.51-10.81-1.28-16.19-2.15s-10.71-1.89-16-2.89c-2.67-.49-5.34-1-8-1.42a62.74,62.74,0,0,0-8-.94,47.52,47.52,0,0,0-8,.58c-2.69.35-5.37.78-8.05,1.22L369,451.67C358.29,453.38,347.5,455.24,336.6,455.23Z" style="fill:#ebebeb"></path><path d="M448.77,319.63c-32.7,0-67.58-8.64-80.92-8.64s-56.28,8.64-78.63,8.64c-32,0-64.62-6-85.79-6s-54,7.88-82.35,7.88" style="fill:#fff"></path><path d="M448.77,319.63a306.47,306.47,0,0,1-41-3.12c-6.81-.92-13.59-2-20.37-3-3.4-.51-6.79-1-10.19-1.44a74.56,74.56,0,0,0-10.21-.71c-3.41.08-6.82.5-10.22.89s-6.8.88-10.2,1.36l-20.38,2.93c-6.8,1-13.61,1.85-20.45,2.55a164.76,164.76,0,0,1-20.6,1c-13.75-.23-27.46-1.45-41.11-2.85-6.83-.7-13.65-1.44-20.48-2.07S209.85,314,203,314a187.61,187.61,0,0,0-20.48,1.56c-6.81.81-13.61,1.78-20.41,2.67-13.61,1.74-27.29,3.36-41,3.31,13.74-.12,27.38-1.9,41-3.79,6.8-.94,13.59-1.92,20.41-2.77A190.56,190.56,0,0,1,203,313.32c6.88,0,13.74.51,20.58,1.1s13.67,1.31,20.5,2c13.66,1.35,27.34,2.5,41,2.68a163.28,163.28,0,0,0,20.5-.91c6.82-.67,13.63-1.54,20.43-2.46l20.39-2.85c3.4-.47,6.8-.92,10.22-1.32s6.83-.78,10.29-.85a73.8,73.8,0,0,1,10.3.76c3.41.44,6.8.95,10.19,1.48,6.79,1.05,13.56,2.13,20.36,3.1A305.63,305.63,0,0,0,448.77,319.63Z" style="fill:#ebebeb"></path><path d="M34.24,361.89c30.37,0,62.76-8,75.15-8s52.26,8,73,8c29.73,0,60-5.54,79.66-5.54s50.12,7.31,76.48,7.31" style="fill:#fff"></path><path d="M34.24,361.89a283.64,283.64,0,0,0,38.05-3.35c6.31-.9,12.6-1.9,18.9-2.88,3.15-.49,6.3-1,9.47-1.38a70.92,70.92,0,0,1,9.57-.7c3.21.07,6.38.44,9.56.79s6.33.79,9.48,1.22l18.94,2.64c6.31.85,12.63,1.66,19,2.27a151.32,151.32,0,0,0,19,.85c12.73-.17,25.43-1.24,38.11-2.48,6.34-.62,12.68-1.28,19-1.84s12.73-1,19.12-1a176.45,176.45,0,0,1,19.09,1.53c6.33.79,12.64,1.7,18.95,2.57,12.61,1.77,25.28,3.42,38,3.54-12.76,0-25.47-1.45-38.11-3.05-6.32-.83-12.63-1.73-18.95-2.48a173.32,173.32,0,0,0-19-1.44c-6.35,0-12.71.52-19.05,1.09s-12.68,1.27-19,1.92c-12.68,1.3-25.4,2.43-38.17,2.65a152.88,152.88,0,0,1-19.14-.94c-6.35-.64-12.68-1.48-19-2.36l-18.93-2.72c-3.15-.45-6.31-.88-9.47-1.26s-6.32-.75-9.48-.83a68.55,68.55,0,0,0-9.48.66c-3.16.4-6.31.86-9.46,1.33-6.3.95-12.6,1.94-18.92,2.79A284.62,284.62,0,0,1,34.24,361.89Z" style="fill:#ebebeb"></path><path d="M34.24,436.38c30.37,0,62.76-8,75.15-8s52.26,8,73,8c29.73,0,60-5.54,79.66-5.54s50.12,7.31,76.48,7.31" style="fill:#fff"></path><path d="M34.24,436.38A283.64,283.64,0,0,0,72.29,433c6.31-.9,12.6-1.9,18.9-2.88,3.15-.49,6.3-1,9.47-1.38a69.33,69.33,0,0,1,9.57-.7c3.21.06,6.38.44,9.56.79s6.33.79,9.48,1.22l18.94,2.64c6.31.85,12.63,1.65,19,2.27a151.32,151.32,0,0,0,19,.85c12.73-.17,25.43-1.24,38.11-2.48,6.34-.62,12.68-1.28,19-1.84s12.73-1,19.12-1A176.45,176.45,0,0,1,281.56,432c6.33.79,12.64,1.7,18.95,2.57,12.61,1.76,25.28,3.42,38,3.54-12.76,0-25.47-1.45-38.11-3-6.32-.83-12.63-1.73-18.95-2.48a173.32,173.32,0,0,0-19-1.44c-6.35,0-12.71.52-19.05,1.09s-12.68,1.27-19,1.92c-12.68,1.3-25.4,2.43-38.17,2.64a151,151,0,0,1-19.14-.93c-6.35-.65-12.68-1.48-19-2.36l-18.93-2.72c-3.15-.45-6.31-.88-9.47-1.26s-6.32-.75-9.48-.83a68.55,68.55,0,0,0-9.48.66c-3.16.4-6.31.86-9.46,1.33-6.3.95-12.6,1.94-18.92,2.79A284.62,284.62,0,0,1,34.24,436.38Z" style="fill:#ebebeb"></path><path d="M375.64,325.85c11.13,0,32.5-10.52,39.14-10.52s24,10.52,40.28,10.52" style="fill:#fff"></path><path d="M375.64,325.85a44.38,44.38,0,0,0,10.08-2c3.3-.95,6.54-2.08,9.78-3.23s6.46-2.33,9.72-3.45c1.64-.55,3.28-1.09,4.95-1.55l1.26-.33,1.29-.27a9.67,9.67,0,0,1,1.33-.18l.67-.05c.23,0,.46,0,.68,0a22.66,22.66,0,0,1,5.12,1.23c1.65.54,3.26,1.17,4.87,1.77,3.21,1.24,6.42,2.46,9.65,3.61a84.17,84.17,0,0,0,9.84,2.92,53.71,53.71,0,0,0,10.18,1.44c-6.9.13-13.74-1.48-20.27-3.63-3.29-1.05-6.5-2.29-9.72-3.48-1.61-.6-3.22-1.2-4.85-1.72a21.56,21.56,0,0,0-4.88-1.14c-.21,0-.41-.05-.61-.05l-.61.05a6.58,6.58,0,0,0-1.23.16l-1.24.24-1.23.31c-1.65.43-3.28,1-4.91,1.49-3.26,1.07-6.49,2.25-9.76,3.31s-6.56,2.13-9.9,3A41.49,41.49,0,0,1,375.64,325.85Z" style="fill:#ebebeb"></path><path d="M228,293.33c11.12,0,32.49-10.53,39.13-10.53s24,10.53,40.28,10.53" style="fill:#fff"></path><path d="M228,293.33a44.21,44.21,0,0,0,10.07-2c3.3-.94,6.54-2.08,9.78-3.23s6.46-2.33,9.72-3.45c1.64-.55,3.28-1.09,5-1.55l1.26-.33c.43-.1.87-.17,1.3-.26a8.07,8.07,0,0,1,1.32-.18l.68-.06c.22,0,.45,0,.67,0a22,22,0,0,1,5.12,1.24c1.65.54,3.26,1.16,4.87,1.77,3.21,1.23,6.42,2.45,9.65,3.6a84.37,84.37,0,0,0,9.85,2.93,55.14,55.14,0,0,0,10.17,1.44c-6.9.12-13.74-1.49-20.27-3.64-3.29-1-6.5-2.29-9.72-3.48-1.61-.59-3.22-1.2-4.84-1.72a21.64,21.64,0,0,0-4.89-1.14c-.2,0-.41-.05-.61-.05l-.61.05a7.68,7.68,0,0,0-1.23.16l-1.23.24-1.24.32c-1.65.43-3.28.95-4.91,1.48-3.26,1.07-6.49,2.25-9.76,3.31s-6.56,2.13-9.9,3A41.49,41.49,0,0,1,228,293.33Z" style="fill:#ebebeb"></path></g><g id="freepik--Wave--inject-61"><path d="M465.76,355.42c-4.15,10.58-39.56,22.77-50.41,29.74S411.61,416.66,395,424s-40.51-1.28-45.2,4.81,21.92,18.28,5,27.48c-25,13.59-107.89-13.69-120.06-8.87-10.14,4,19.39,19.85,12.25,25.17-11.89,8.86-71,7-114.22-27.33C5.61,334.9,24.52,164.8,79.81,93.35c7.94-10.25,11.72,3.29,11.72,3.29s5.79-11,20.92-24.59,51.23-11.12,51.23-11.12S184,41.78,201.62,37.77s27,4.94,27,4.94,51.18-6.49,48.66,0-53.7,17-81.55,57.06S157.23,224,222.22,285.4s191.2,59,225,59C455.07,344.39,469.91,344.84,465.76,355.42Z" style="fill:#455a64"></path><path d="M210.37,69.89a175.76,175.76,0,0,0-28.24,34.88,161,161,0,0,0-18.31,40.9,137.44,137.44,0,0,0-5.19,44.41,140.61,140.61,0,0,0,9.43,43.69,191.88,191.88,0,0,0,20.87,39.67c2.23,3,4.32,6.12,6.71,9,1.18,1.46,2.3,3,3.53,4.37l3.68,4.25a193.58,193.58,0,0,0,15.94,15.83,209.61,209.61,0,0,0,57.06,35.44,158,158,0,0,0,21.29,7.27,157.74,157.74,0,0,1-21.38-7,201.34,201.34,0,0,1-57.41-35.17,194.92,194.92,0,0,1-16-15.83l-3.72-4.25c-1.24-1.42-2.37-2.92-3.56-4.38-2.41-2.88-4.52-6-6.77-9a192.51,192.51,0,0,1-21.13-39.78,142,142,0,0,1-9.32-44,138.2,138.2,0,0,1,5.38-44.63,160.53,160.53,0,0,1,18.54-41A175.73,175.73,0,0,1,210.37,69.89Z" style="fill:#37474f"></path><path d="M143.18,146.85a158.47,158.47,0,0,0-8.09,21.8,200.18,200.18,0,0,0-5.25,22.64,197.41,197.41,0,0,0-2.57,46.31,180.11,180.11,0,0,0,2.93,23A177.28,177.28,0,0,0,136,283.11l.89,2.77,1,2.73c.68,1.81,1.3,3.64,2,5.44,1.48,3.57,2.91,7.17,4.61,10.65s3.42,6.94,5.19,10.38c.9,1.72,1.91,3.37,2.86,5.05s1.9,3.38,3,5a136.41,136.41,0,0,0,13.55,18.79l3.88,4.31,4.1,4.11c1.34,1.4,2.82,2.64,4.25,3.95l2.15,2c.72.64,1.49,1.24,2.23,1.86a177.23,177.23,0,0,0,18.73,13.7,223.34,223.34,0,0,0,20.16,11.55q10.35,5.28,21.11,9.72t21.8,8.1a338.49,338.49,0,0,0,44.95,11.92,337.44,337.44,0,0,1-45.1-11.46q-11.07-3.63-21.87-8t-21.19-9.67A220.9,220.9,0,0,1,204,374.42a178.1,178.1,0,0,1-18.87-13.69c-.74-.62-1.52-1.22-2.24-1.86l-2.17-1.95c-1.44-1.31-2.94-2.56-4.29-4l-4.14-4.12-3.92-4.32a136.15,136.15,0,0,1-13.71-18.87c-1.07-1.63-2-3.34-3-5s-2-3.36-2.86-5.08c-1.76-3.47-3.62-6.89-5.18-10.46s-3.12-7.12-4.59-10.72c-.73-1.8-1.34-3.65-2-5.47l-1-2.74-.88-2.78a175.91,175.91,0,0,1-5.71-22.6,180,180,0,0,1-2.87-23.13,197.33,197.33,0,0,1,2.76-46.43,199.44,199.44,0,0,1,5.49-22.63A160.88,160.88,0,0,1,143.18,146.85Z" style="fill:#37474f"></path><path d="M143.67,106.88a204.59,204.59,0,0,0-16,28.34c-1.16,2.45-2.35,4.89-3.4,7.4l-1.62,3.73c-.55,1.24-1.09,2.49-1.57,3.76l-3,7.57-2.71,7.68c-.94,2.54-1.68,5.15-2.49,7.74s-1.65,5.17-2.3,7.81l-2.07,7.86c-.61,2.65-1.16,5.3-1.75,7.95-.28,1.33-.59,2.65-.85,4l-.67,4c-.43,2.67-.93,5.34-1.31,8l-.93,8.08c-.13,1.35-.36,2.69-.41,4l-.24,4.06a197.91,197.91,0,0,0,.36,32.48,308.93,308.93,0,0,0,5,32.15A216.59,216.59,0,0,0,117,324.71c.45,1.28,1,2.52,1.52,3.78s1,2.51,1.58,3.75c1.14,2.46,2.24,4.94,3.52,7.33l.93,1.81,1,1.78c.66,1.18,1.33,2.36,2.06,3.51a60.41,60.41,0,0,0,4.64,6.69,60.41,60.41,0,0,1-4.74-6.62c-.75-1.14-1.44-2.31-2.12-3.49l-1-1.76-1-1.8c-1.31-2.38-2.46-4.85-3.64-7.3-.58-1.23-1.09-2.49-1.64-3.74s-1.11-2.48-1.57-3.76a215,215,0,0,1-9.45-31.21,309.75,309.75,0,0,1-5.15-32.21,198.53,198.53,0,0,1-.53-32.62l.27-4.08c0-1.36.29-2.7.43-4.06l1-8.1c.39-2.7.9-5.37,1.35-8.05l.7-4c.27-1.33.58-2.65.87-4,.6-2.66,1.17-5.32,1.79-8l2.12-7.88c.67-2.64,1.54-5.22,2.34-7.82s1.59-5.2,2.55-7.75l2.75-7.68,3-7.57c.49-1.27,1-2.52,1.59-3.76l1.64-3.73c1.07-2.5,2.26-5,3.45-7.39A205.77,205.77,0,0,1,143.67,106.88Z" style="fill:#37474f"></path><path d="M91.73,225.87a202,202,0,0,0-.58,29.21,279.78,279.78,0,0,0,8.61,57.67c1.12,4.74,2.67,9.35,4.06,14,.76,2.31,1.62,4.58,2.43,6.88l1.23,3.43c.41,1.15.92,2.25,1.37,3.38l2.79,6.74c1,2.22,2.09,4.39,3.13,6.59l1.58,3.29c.51,1.1,1.16,2.13,1.74,3.2l3.55,6.37a281.65,281.65,0,0,0,16.23,24.27,197.4,197.4,0,0,0,19.14,22c1.69,1.75,3.54,3.33,5.31,5,.91.81,1.85,1.59,2.77,2.38s1.87,1.56,2.84,2.3c1.9,1.52,3.87,3,5.89,4.32a50.93,50.93,0,0,0,6.3,3.7,72.82,72.82,0,0,1-12.34-7.82c-1-.73-1.95-1.48-2.88-2.27s-1.89-1.53-2.82-2.33c-1.8-1.64-3.69-3.2-5.41-4.93a196.1,196.1,0,0,1-19.42-21.91l-4.38-5.87-4.14-6c-1.41-2-2.71-4.06-4-6.13s-2.64-4.11-3.87-6.22l-3.59-6.39c-.58-1.08-1.24-2.11-1.76-3.22l-1.6-3.3c-1-2.2-2.16-4.38-3.16-6.61l-2.82-6.77c-.46-1.13-1-2.24-1.37-3.4L105.33,334c-.8-2.31-1.66-4.59-2.41-6.92-1.38-4.68-2.93-9.32-4-14.08a246.33,246.33,0,0,1-5.69-28.72,263.87,263.87,0,0,1-2.52-29.17A202.2,202.2,0,0,1,91.73,225.87Z" style="fill:#37474f"></path><path d="M246.09,342.17a40.14,40.14,0,0,0,8.09,4.78c2.84,1.35,5.74,2.55,8.67,3.68,5.86,2.28,11.8,4.32,17.8,6.18q18,5.61,36.41,9.74c12.24,2.85,24.6,5.18,37,7.14s24.91,3.44,37.45,4.36c-6.28-.29-12.56-.74-18.83-1.31s-12.51-1.41-18.74-2.29c-12.46-1.8-24.84-4.15-37.12-6.93s-24.45-6.07-36.42-10c-6-2-11.92-4.07-17.75-6.46-2.91-1.2-5.79-2.48-8.6-3.91A40.67,40.67,0,0,1,246.09,342.17Z" style="fill:#37474f"></path><path d="M220.78,396.79a47.49,47.49,0,0,0,5.9,3.81c1,.55,2,1.13,3.08,1.67l3.15,1.56c2.09,1.05,4.23,2,6.35,3s4.29,1.87,6.46,2.76c8.66,3.55,17.46,6.77,26.42,9.48s18,5.15,27.15,7.15c4.6.89,9.18,1.88,13.82,2.54,4.61.84,9.28,1.27,13.93,1.89-4.67-.4-9.36-.72-14-1.41s-9.27-1.46-13.9-2.26c-9.21-1.85-18.31-4.22-27.29-7a269.83,269.83,0,0,1-26.43-9.74c-2.15-.93-4.28-1.93-6.42-2.89s-4.24-2-6.31-3.12l-3.1-1.67c-1-.57-2-1.19-3.05-1.78A42.49,42.49,0,0,1,220.78,396.79Z" style="fill:#37474f"></path><path d="M78.14,198.44a38.64,38.64,0,0,0-2,5.16l-.81,2.66-.7,2.68c-.51,1.78-.86,3.6-1.3,5.39s-.73,3.63-1.09,5.44a224.92,224.92,0,0,0-3.62,44.16c0,1.84.16,3.69.23,5.54.05.92.06,1.85.15,2.77l.25,2.76c.22,3.7.82,7.36,1.27,11A146.27,146.27,0,0,1,67.82,264a185.89,185.89,0,0,1,3.64-44.32c.41-1.82.79-3.63,1.23-5.44s.88-3.61,1.44-5.38l.81-2.66.92-2.64A34.92,34.92,0,0,1,78.14,198.44Z" style="fill:#37474f"></path><path d="M101.34,121.06c-2.46,4-4.75,8.11-6.94,12.26-1.08,2.08-2.17,4.16-3.22,6.26s-2.07,4.21-3.05,6.34l-2.92,6.4-2.77,6.47c-1.74,4.35-3.51,8.7-5,13.14-1.68,4.38-3,8.87-4.5,13.33-1.24,4.52-2.65,9-3.7,13.57-.54,2.28-1.15,4.55-1.65,6.84l-1.37,6.9c-.23,1.15-.5,2.3-.69,3.45L65,219.5l-1.09,7a211.2,211.2,0,0,1,4.58-27.82l.78-3.45c.26-1.14.62-2.27.92-3.4L72,185c1.45-4.47,2.77-9,4.43-13.4a257.71,257.71,0,0,1,11-26A208.46,208.46,0,0,1,101.34,121.06Z" style="fill:#37474f"></path><path d="M284.22,52.12c-5.41,1.65-12.61-.14-19.3-2.29-7.15-2.3-13.67-4.3-16.92-4.34-8.59-.1-15.95,3.85-21.2,7.85s-18.56.91-29.82.07A25.49,25.49,0,0,0,178.28,60s11.46,3.2,4.87,8.12-42.89,7.48-42.89,7.48,13.33,1.49,12.65,5.76-29.29,4.5-39.28,9.53-18.5,16.55-18.72,17.2,21.48-6,13.39,2.39-29.09,21.75-29.74,22.18c.64-.32,14.87-7.54,15.08-1.28.21,6.43-12.76,18.18-22.33,28.65s-28.06,42.75-26.79,101.5C45.64,313,59.4,346,62.67,352.89,16.77,255.23,38.93,146.17,79.81,93.35c7.94-10.25,11.72,3.29,11.72,3.29s5.79-11,20.92-24.6,51.23-11.11,51.23-11.11S184,41.78,201.62,37.77s27,4.93,27,4.93,26.34-3.33,40.29-2.83l1,.05.53,0C290.59,40.89,295.31,48.73,284.22,52.12Z" style="fill:#ebebeb"></path><path d="M55.18,205c-2.21,3,4.79,7.67,7.92,5.25S59.07,199.78,55.18,205Z" style="fill:#ebebeb"></path><path d="M189.37,70.08c-1.45,4.07,7.79,6.57,10.42,2.72S191.92,62.89,189.37,70.08Z" style="fill:#ebebeb"></path><path d="M85.65,75.06c-1.22,3.09,1.31,7.14,2.87,4.48S87.8,69.6,85.65,75.06Z" style="fill:#ebebeb"></path><path d="M112.56,132c-2.64-1-7.24,4.46-5.12,6.18S117.22,133.79,112.56,132Z" style="fill:#ebebeb"></path><path d="M60.33,231.75c2.4-.83.89-7.34-1.94-4.63S57.93,232.59,60.33,231.75Z" style="fill:#ebebeb"></path><path d="M232.09,36.67c2.4-.84.89-7.34-1.94-4.63S229.69,37.5,232.09,36.67Z" style="fill:#ebebeb"></path><path d="M97.18,75.59c2.4-.84.89-7.34-1.93-4.63S94.78,76.42,97.18,75.59Z" style="fill:#ebebeb"></path><path d="M46.89,143.83c1.28-.44.47-3.9-1-2.46S45.61,144.28,46.89,143.83Z" style="fill:#ebebeb"></path><path d="M91.46,69.8c1.27-.44.47-3.9-1-2.46S90.18,70.25,91.46,69.8Z" style="fill:#ebebeb"></path><path d="M102.11,133.47c1,1.24,4-1.2,1.93-2.24S101.11,132.24,102.11,133.47Z" style="fill:#ebebeb"></path><path d="M294.06,61.1c-1.56-5.1-13.79-6.13-13.72-1S296.81,70.13,294.06,61.1Z" style="fill:#ebebeb"></path><path d="M266.68,59.33c.34,2.9,7,2.48,4.94-1.27S266.34,56.44,266.68,59.33Z" style="fill:#ebebeb"></path><path d="M54,224.88c1.44-.5.53-4.41-1.17-2.78S52.59,225.38,54,224.88Z" style="fill:#ebebeb"></path></g><g id="freepik--Character--inject-61"><path d="M118.85,366.46l21.28-13.22L153,339.9s116.64,13.33,170.1,24.37S433,406.23,429.73,416c-3.69,11-76.5,15.89-124.69,8.48S118.85,366.46,118.85,366.46Z" style="fill:#FFA52E"></path><path d="M429.73,416,140.12,353.24,153,339.9s116.64,13.33,170.1,24.37S433,406.24,429.73,416Z" style="fill:#fff;opacity:0.2"></path><path d="M190.93,384.27c2.32.16,63.26-15.59,65.21-17.66.74-.78-1-9.79-3.49-20.62-.53-2.34-8.44-39-8.44-39l-37.59,8.48,6.7,40.6s-20.63,16.47-22.52,19S188.62,384.1,190.93,384.27Z" style="fill:#f7a9a0"></path><path d="M306.23,169.93S240.81,257.46,240,263.39C238.8,272.5,250.9,338,250.9,338l-39,9.66s-17-62.23-11-88.58c4.35-19,58.1-83.21,58.1-83.21Z" style="fill:#f7a9a0"></path><path d="M283.65,361.38l39.5-9.29s-32.28-81.86-32.44-87.81c-.15-5.28,24.05-61.27,25.8-74.9,1.84-14.33-4.59-22.77-15.58-29.55l-41.89,16s8.47,9.68,15.81,14.22c0,0-26.73,58.54-26.81,74.87C248,285.75,283.65,361.38,283.65,361.38Z" style="fill:#f7a9a0"></path><path d="M275.45,189.44a153.26,153.26,0,0,0-9.85,19.74c-3,6.86-5.59,13.84-8.08,20.87q-1.06,3-2.1,6a63,63,0,0,0-1.95,6.07c0,.09.12.15.16.06a56.27,56.27,0,0,0,2.2-5.18c.71-1.74,1.39-3.49,2.08-5.24,1.38-3.5,2.69-7,4-10.53q4-10.27,8.53-20.31c1.73-3.8,3.47-7.59,5.1-11.43C275.62,189.43,275.5,189.35,275.45,189.44Z" style="fill:#263238"></path><path d="M268.79,408.37c2.32.18,64.6-17.45,66.77-21.14,1.09-1.85-21-56.81-21-56.81l-38.54,12.19,14.3,35.29s-19.69,18.72-21.6,21.19S266.49,408.18,268.79,408.37Z" style="fill:#f7a9a0"></path><path d="M312.53,169.74s-19.73-2.92-37.68,20.31c0,0-11.29-5.49-15.81-14.22l41.89-16A28.65,28.65,0,0,1,312.53,169.74Z" style="fill:#FFA52E"></path><path d="M305.64,162.63a46.67,46.67,0,0,1-5.37,1.5,8.19,8.19,0,0,0-3.75,2.1,16.83,16.83,0,0,0-2.42,3.64,10.36,10.36,0,0,1-2.92,3.67,3.59,3.59,0,0,1-4.41.12,4.73,4.73,0,0,1-1.09-1.22,2.43,2.43,0,0,0,.35-.2,8.17,8.17,0,0,0,3.22-4.46,11.15,11.15,0,0,0,.48-3.34c0-.11,0-.22,0-.33l-.55.21a11.74,11.74,0,0,1-.24,2.36,8.28,8.28,0,0,1-2,4.08,5.74,5.74,0,0,1-1.51,1.13,5.66,5.66,0,0,1-.55-2.68,6.67,6.67,0,0,1,1.41-3.59c.06-.09.13-.17.2-.26l-1.27.49a6.59,6.59,0,0,0-.47,6.34c-2.19.84-4.78.4-6-1.92a4.08,4.08,0,0,1-.48-1.76l-.67.26a4.81,4.81,0,0,0,.19.9,5.36,5.36,0,0,0,7.3,3.09,4.65,4.65,0,0,0,3.5,2.31,5.3,5.3,0,0,0,4-1.77c2.41-2.38,3-6.27,6.2-7.89,2.38-1.2,5.19-1.17,7.57-2.32C306,162.93,305.84,162.77,305.64,162.63ZM279.4,181.49a4.09,4.09,0,0,1-2.32-2,9.11,9.11,0,0,0-1.8-2.29,4.71,4.71,0,0,0-2.55-1,5.9,5.9,0,0,0-5.16,2.52,8.92,8.92,0,0,0-1.66,5.32l.67.56a9.43,9.43,0,0,1,.84-4.05,5.62,5.62,0,0,1,4.16-3.46,4.24,4.24,0,0,1,2.6.4,5.27,5.27,0,0,1,1.8,1.92c1,1.48,1.89,2.76,3.74,3,.58.09,1.17.11,1.76.17l.8-.76C281.33,181.71,280.34,181.75,279.4,181.49ZM263.87,174a26.78,26.78,0,0,1-4.13,3.09c.1.17.2.33.31.49l1.51-1a13,13,0,0,0,3.59-3.1Z" style="fill:#fff"></path><path d="M232.83,132.39c-8.3,6-17.27,14.55-27.74,16.22-8.21,1.29-16.39-1.9-23.18-6.3C167,132.62,153.75,114.06,161,95.69,164,88.35,174.78,80.35,183,84c4.22,1.87,7.23,5.41,10.62,8.43a18.66,18.66,0,0,0,15.42,5c11.63-1.35,14.15-3.12,23.53-9.56a14.54,14.54,0,0,1,17.29.43,14.2,14.2,0,0,1,4.72,5.14c2.31,4.49,1.07,11.06.78,15.89s-1.87,8.07-5.83,11C244,124.44,238.41,128.38,232.83,132.39Z" style="fill:#263238"></path><path d="M229.49,136.09c7.26-6,14.4-12.07,21.58-18.13,0,0,0-.11,0-.07-6.06,4.81-12.17,9.54-18.16,14.43s-11.58,10.13-17.85,14.4c-14.08,9.57-29.45-1.29-36.67-13.87-.33-.57-1.2,0-.85.58,6.68,10.85,18.63,21.19,32.32,16.84C217.29,147.9,223.56,141,229.49,136.09Z" style="fill:#263238"></path><path d="M237.8,85.83c.15-.1,0-.32-.16-.23-8.08,4.76-17,11.07-26.78,11.07a23.82,23.82,0,0,1-13.44-4.19c-3.12-2.16-5.26-5.21-7.87-7.89-10.23-10.49-26.55,0-27.18,12.88,0,.27.45.31.48,0,.88-9.36,8.47-17.21,18.3-16.47,7.88.6,11.26,9.42,17.69,13.07C212.14,101.65,226.57,93.51,237.8,85.83Z" style="fill:#263238"></path><path d="M244.78,128.37c-10.72,5.21-22.83,12.09-25.35,12.7s-25.62-4.64-32.12-5.34c-5.41-.58-4.82,21.17-1.71,23.24,2.94,1.95,29.36,6.11,38.59,4.18,7.35-1.53,18.72-17.8,24.64-25C255.93,129.54,253.09,124.33,244.78,128.37Z" style="fill:#f7a9a0"></path><path d="M191.91,137.41c-8.38-3.8-17.92-6.7-27.33-4.78a4.76,4.76,0,0,0-2.72,1.52c-4.23.79-5.13,3-5.13,3-3.73,1.94-4.33,4.36-4.33,4.36s-5,1-4.87,4.07c.09,3.47,7,1.42,11.56,2.63,10.33,2.77,24.25,9.6,27.16,10.69Z" style="fill:#f7a9a0"></path><path d="M172,143.52a66.93,66.93,0,0,0-9.19-1.91,69.17,69.17,0,0,0-10.28,0,.08.08,0,1,1,0-.16A36.39,36.39,0,0,1,172,143.38C172.14,143.44,172.11,143.56,172,143.52Z" style="fill:#263238"></path><path d="M174.54,137.52c-3-.57-8.33-1.53-17.8-.25,0,0-.05,0,0-.05a32.58,32.58,0,0,1,17.84.16C174.75,137.43,174.74,137.56,174.54,137.52Z" style="fill:#263238"></path><path d="M175.86,134.27a51.44,51.44,0,0,0-14-.1,0,0,0,0,1,0-.06c6.14-1.22,8.51-1,14,0C176.1,134.13,176.06,134.3,175.86,134.27Z" style="fill:#263238"></path><path d="M172.05,150.3c1.27.79-.28,3-3.12,3.95-2.56.84-13.22.21-13.27,4s15.11,5.06,19.48,4.23a70.92,70.92,0,0,0,11.15-3.72C185.3,158.33,177.72,152,172.05,150.3Z" style="fill:#f7a9a0"></path><path d="M252.31,166.63l6.73,9.2,41.89-16s-19.32-31.5-38.13-39c-9.41-3.75-14.08-.7-16.46,6.21-.6,1.75-6.33,21.92-4.42,29.68C243.63,163.58,252.31,166.63,252.31,166.63Z" style="fill:#f7a9a0"></path><path d="M264.17,118.88c11.9.55,36,6.1,38.56,5.79,5.11-.63,24.79-4.15,30.48-5.56,5.28-1.31,7.32,20.25,4,21.89-2.08,1-25.69,5.43-35.05,4.31-10.58-1.27-27.29-9.16-34.89-14.54C257.27,123.72,258.46,118.62,264.17,118.88Z" style="fill:#f7a9a0"></path><path d="M333.21,119.11c8.76-2.8,18.56-4.59,27.7-1.59a4.75,4.75,0,0,1,2.52,1.82c4.12,1.27,4.75,3.59,4.75,3.59,3.48,2.36,3.8,4.83,3.8,4.83s4.82,1.54,4.37,4.61c-.5,3.44-7.16.6-11.78,1.28-10.59,1.56-25.21,6.73-28.22,7.49Z" style="fill:#f7a9a0"></path><path d="M352.32,127.48a69.86,69.86,0,0,1,9.35-.84,70,70,0,0,1,10.21,1.18.08.08,0,0,0,0-.16,36.42,36.42,0,0,0-19.62-.32C352.15,127.38,352.16,127.5,352.32,127.48Z" style="fill:#263238"></path><path d="M350.45,121.23c3.06-.22,8.45-.57,17.71,1.8,0,0,0,0,0,0a32.71,32.71,0,0,0-17.74-1.9C350.25,121.11,350.25,121.24,350.45,121.23Z" style="fill:#263238"></path><path d="M349.51,117.85a51.29,51.29,0,0,1,13.9,1.51s0,0,0-.06c-6-1.92-8.34-1.94-13.94-1.63C349.29,117.68,349.31,117.86,349.51,117.85Z" style="fill:#263238"></path><path d="M351.93,136.33c-1.3.75-.92,1.44,1.72,1.82s13.4-.36,13.34,3.42-15.26,4.59-19.6,3.63a70.86,70.86,0,0,1-11-4.06C339.28,140.38,346.2,137.88,351.93,136.33Z" style="fill:#f7a9a0"></path><path d="M294.06,143.5a53.2,53.2,0,0,1-9.08-2.78,39.73,39.73,0,0,1-8.4-4.44l8.78,3.51C288.27,141,291.19,142.14,294.06,143.5Z" style="fill:#263238"></path><path d="M277.58,138a18.33,18.33,0,0,0,2.45.79c.41.11.83.19,1.25.26s.85.11,1.29.18a5,5,0,0,1-2.66,0,5.6,5.6,0,0,1-1.25-.49A3.86,3.86,0,0,1,277.58,138Z" style="fill:#263238"></path><path d="M246.07,125.94s-1.17,20.47-.9,21.34,7.4,1.92,9.27.87,6.38-4.52,7-6-5-22.08-4.8-23,2.76.07,2.76.07,11.47,22.62,12.86,23.87c8.54,7.71,20.6,5,20.6,5,3,1.94,8.08,11.66,8.08,11.66l-41.89,16-7.25-8.93s-9.12-3.82-10.34-11,3.58-28.2,3.58-28.2Z" style="fill:#FFA52E"></path><path d="M293.6,148.78a5.4,5.4,0,0,0-2.14,3.7c-.21,1.78.2,3.62-.32,5.37a8.84,8.84,0,0,1-1.85,3.14,8.44,8.44,0,0,0-.2-4.7,5.23,5.23,0,0,0-3.37-3c-3.26-1-6.2,1.54-6.94,4.62a9.78,9.78,0,0,0-.16,2.81,10.83,10.83,0,0,1-.31,3.31,13.34,13.34,0,0,0-.78,4.73l.67-.26a10.18,10.18,0,0,1,.54-3.44,16.27,16.27,0,0,0,.51-2.38,18.58,18.58,0,0,0,0-2.69,6.59,6.59,0,0,1,1.29-4.36,4.8,4.8,0,0,1,3.68-1.93,4.72,4.72,0,0,1,4.05,2.31c.91,1.57.82,3.59.69,5.38-.94,1.06-2,2-2.86,3.12a9.79,9.79,0,0,0-.91,1.33l1.27-.49a38.63,38.63,0,0,1,2.64-3c0,.45.08.89.09,1.34,0,.19,0,.38,0,.57l.55-.21a11.29,11.29,0,0,0-.21-2.16,14.07,14.07,0,0,0,1.51-2,7.76,7.76,0,0,0,1.1-4.21c0-1.92-.39-4,.92-5.61a6.7,6.7,0,0,1,1-1C293.86,149,293.73,148.9,293.6,148.78Zm-16.76,1.08a6.5,6.5,0,0,1-1.1-3.78c0-.12,0-.24.07-.36l-.49-.29a4.79,4.79,0,0,0,0,2.52c.32,1.07.95,2,1.35,3.05,1,2.41-.18,4.84-2,6.48-2.89,2.57-9.53,5.38-11.46.23a6.71,6.71,0,0,1-.39-2.31,4.14,4.14,0,0,0,3.58-4.13,3.94,3.94,0,0,0-1.14-2.76,9,9,0,0,0,.81-2.63,22.83,22.83,0,0,0-.32-3.88,5.81,5.81,0,0,1,1.17-3.54,8.83,8.83,0,0,1,1.56-1.67l-.24-.44a8.8,8.8,0,0,0-1.2,1,7.35,7.35,0,0,0-1.78,2.89,7.72,7.72,0,0,0,0,3.64,7.27,7.27,0,0,1-.59,4,32.8,32.8,0,0,1-3.32-2.73,3.91,3.91,0,0,1-.85-1.78l-.36.37a3.63,3.63,0,0,0,.53,1.28c1,1.4,2.6,2.13,3.82,3.27-.47,1-1,2.06-1.5,3.13a10.1,10.1,0,0,0-.84,3.42,3.55,3.55,0,0,1-.72-.09c-1.48-.35-2.31-1.6-3-2.85a16.51,16.51,0,0,0-2.28-3.27c-.31-.34-.6-.68-.87-1a4.11,4.11,0,0,1-.41.27c.38.5.79.95,1.2,1.42a12.29,12.29,0,0,1,1.54,2.23c.73,1.32,1.45,2.79,2.88,3.48a4.22,4.22,0,0,0,1.66.41,7.45,7.45,0,0,0,.31,2.09,5.15,5.15,0,0,0,4.4,3.72c2.4.26,4.81-.85,6.76-2.15s3.84-3.3,4.05-5.84A6.44,6.44,0,0,0,276.84,149.86ZM263.55,152c.45-1,1-2,1.52-3a5.62,5.62,0,0,1,.43.65,3.74,3.74,0,0,1-.37,4,3.5,3.5,0,0,1-2.28,1.28A9,9,0,0,1,263.55,152Zm-.12,14a8.54,8.54,0,0,0-3.73-.18,4.8,4.8,0,0,1-3.72-1.11c-.85-.74-1.54-1.64-2.36-2.41a7.23,7.23,0,0,0-2.81-1.66,8.48,8.48,0,0,0-1.94-.34,10.37,10.37,0,0,0-3.59-4,4.06,4.06,0,0,0-3.33-.69,3.81,3.81,0,0,0-.51.17s0,0,0,.07a2,2,0,0,0,.05.24,3.69,3.69,0,0,1,3,.29,9.9,9.9,0,0,1,3.69,3.85,12.33,12.33,0,0,0-4.26.84l.35.4.21-.08a11.33,11.33,0,0,1,4-.65,3.68,3.68,0,0,1,.28,3.13,2.11,2.11,0,0,1-.72.84l.46.3.17-.16a3.13,3.13,0,0,0,.77-2.88,7.09,7.09,0,0,0-.36-1.19,6.9,6.9,0,0,1,2.23.56c2,.88,3,2.83,4.68,4.1a4.9,4.9,0,0,0,2.83,1,19.26,19.26,0,0,1,3.87,0,3.92,3.92,0,0,1,2.58,5.49,6.72,6.72,0,0,1-1.41,2l1.28-.48a6,6,0,0,0,1.06-2.32A4.52,4.52,0,0,0,263.43,166ZM245.6,134.67a6.76,6.76,0,0,0-2.21,1.11c0,.19-.08.39-.11.59a6.38,6.38,0,0,1,2.31-1.38C245.59,134.89,245.59,134.78,245.6,134.67Zm-.42,12.62a3.84,3.84,0,0,1-2.57,2.07,2.16,2.16,0,0,1-1.18-.16c0,.2,0,.39,0,.58a1.89,1.89,0,0,0,.36.11,3.48,3.48,0,0,0,3.36-1.52,6.39,6.39,0,0,0,.5-.74A.8.8,0,0,1,245.18,147.29Zm20.55-15.71a1.43,1.43,0,0,1-.15.22,2.44,2.44,0,0,1-3.28.47c-1-.72-1-1.9-1.39-3-.49-1.33-1.74-2-2.71-2.92l.21.85a8.39,8.39,0,0,1,1.67,1.64c.71,1.07.49,2.46,1.38,3.45a2.9,2.9,0,0,0,2.92.87,2.81,2.81,0,0,0,1.62-1.1ZM260,120.51a5.34,5.34,0,0,0-2.71,2.1c.05.22.11.44.16.67a3.84,3.84,0,0,1,.59-.93,5.56,5.56,0,0,1,2.07-1.62C260.08,120.65,260.05,120.58,260,120.51Z" style="fill:#fff"></path><path d="M257.42,160.9a57.78,57.78,0,0,1,8.14-1.63c1.37-.15,2.74-.24,4.11-.29.69,0,1.37-.08,2.06-.14a8.89,8.89,0,0,0,2.11-.37,0,0,0,0,1,0,.09,14,14,0,0,1-1.91.68,12.92,12.92,0,0,1-1.94.34c-1.39.17-2.79.27-4.18.43-2.8.3-5.6.61-8.37,1.12A.12.12,0,0,1,257.42,160.9Z" style="fill:#263238"></path><path d="M251.9,165.6a59.36,59.36,0,0,1,6.29-2.72c1.07-.4,2.16-.72,3.27-1,.53-.14,1.05-.28,1.59-.4s1.19-.2,1.77-.35a0,0,0,1,1,0,.09c-.54.16-1.07.41-1.6.59l-1.62.56c-1.07.38-2.14.77-3.22,1.13-2.17.74-4.31,1.49-6.45,2.3C251.85,165.82,251.79,165.65,251.9,165.6Z" style="fill:#263238"></path><path d="M255.77,124.49c.12,1-2.23,8.83-6.65,10.17-1.44.44-4.17-7.32-4.17-7.32l-.33-.53L240,119.43l7.27-9.39,1.08-1.29s1.13,2.11,2.52,4.74l.2.37c.09.15.16.29.24.43l.63,1.19c.16.31.31.6.47.93s.31.64.48,1A56,56,0,0,1,255.77,124.49Z" style="fill:#f7a9a0"></path><path d="M255.43,123.44c-6.47,1.77-10.87.56-13.4-.74L240,119.43l7.27-9.39,1.08-1.29s1.13,2.1,2.52,4.74a3.39,3.39,0,0,1,.2.38l.24.42c.2.39.42.79.63,1.19s.31.6.47.93.31.64.48,1C254,119.68,254.93,122.08,255.43,123.44Z" style="fill:#263238"></path><path d="M260.51,106.63c-.45,15.3-9.66,16.75-13,16.65-3-.09-13.18-.79-14.31-16s6.13-19.88,13-20S261,91.33,260.51,106.63Z" style="fill:#f7a9a0"></path><path d="M258,103.83a8.81,8.81,0,0,1-1,.22,1.7,1.7,0,0,1-1.09,0,.54.54,0,0,1-.27-.6,1.36,1.36,0,0,1,1.08-.83,2,2,0,0,1,1.42.14A.58.58,0,0,1,258,103.83Z" style="fill:#263238"></path><path d="M247.61,103.15a10.47,10.47,0,0,0,1-.38,1.66,1.66,0,0,0,.92-.58.53.53,0,0,0-.11-.65,1.31,1.31,0,0,0-1.35-.09,1.93,1.93,0,0,0-1.11.89A.57.57,0,0,0,247.61,103.15Z" style="fill:#263238"></path><path d="M249.66,106.29s-.08,0-.08.09c0,1-.13,2.23-1.07,2.56a0,0,0,0,0,0,.06C249.67,108.85,249.85,107.27,249.66,106.29Z" style="fill:#263238"></path><path d="M248.75,105.2c-1.67-.14-1.83,3.19-.29,3.33S250.14,105.32,248.75,105.2Z" style="fill:#263238"></path><path d="M248.08,105.34c-.3.18-.6.5-1,.51s-.7-.34-.95-.69c0,0-.06,0-.06,0,0,.64.17,1.3.85,1.43s1.1-.42,1.29-1.06C248.3,105.45,248.2,105.27,248.08,105.34Z" style="fill:#263238"></path><path d="M255.55,106.17s.08,0,.07.09c-.09,1,0,2.23.9,2.63a0,0,0,0,1,0,.06C255.37,108.72,255.3,107.13,255.55,106.17Z" style="fill:#263238"></path><path d="M256.53,105.14c1.67,0,1.61,3.31.07,3.34S255.13,105.17,256.53,105.14Z" style="fill:#263238"></path><path d="M257.23,105.37c.26.19.51.51.83.54s.64-.33.88-.67c0,0,.05,0,.05,0,0,.64-.22,1.3-.83,1.41s-1-.45-1.11-1.09C257,105.48,257.12,105.3,257.23,105.37Z" style="fill:#263238"></path><path d="M249.38,114.73c.23.26.44.62.81.69a2.77,2.77,0,0,0,1.14-.16,0,0,0,0,1,0,.06,1.42,1.42,0,0,1-1.36.44,1.12,1.12,0,0,1-.73-1C249.27,114.71,249.35,114.69,249.38,114.73Z" style="fill:#263238"></path><path d="M254,110.94s.15,1.56.13,2.29c0,.06-.18.09-.43.09,0,0,0,0,0,0a3.45,3.45,0,0,1-3.32-1.42c0-.07.05-.14.11-.09a5.23,5.23,0,0,0,3.13,1c.06-.2-.35-2.65-.24-2.65a6.61,6.61,0,0,1,1.65.43c-.24-3.24-1-6.42-1.17-9.66a.1.1,0,0,1,.2,0,52.46,52.46,0,0,1,1.69,10.35C255.73,111.68,254.25,111.08,254,110.94Z" style="fill:#263238"></path><path d="M253.36,113.2a4,4,0,0,1-1.66,1.2,1.87,1.87,0,0,1-1.1,0c-.79-.24-.79-1-.62-1.59a4.35,4.35,0,0,1,.38-.95A5.2,5.2,0,0,0,253.36,113.2Z" style="fill:#263238"></path><path d="M251.7,114.4a1.87,1.87,0,0,1-1.1,0c-.79-.24-.79-1-.62-1.59A1.86,1.86,0,0,1,251.7,114.4Z" style="fill:#ff98b9"></path><path d="M233,106.57c1.72.08,6.65-4.15,7.65-12.37,0,0-1.41,7.32-2.08,8.35s2.76-2.39,3.66-9a26.8,26.8,0,0,0,6.44,4.25c3,1.21,5,1.38,5.22,1.18s-4.22-2.14-5.31-3.71c0,0,7.93,4.75,11.75,5.45.44.08-.18-7.86-5.72-12.36s-13.29-2.46-16.08-.28c0,0-3,.11-6.71,4.17S231.16,106.49,233,106.57Z" style="fill:#263238"></path><polygon points="238.07 103.15 234.16 99.42 233.25 100.53 237.55 103.76 238.07 103.15" style="fill:#FFA52E"></polygon><polygon points="237.29 104.29 232.77 101.31 232.08 102.57 236.88 104.99 237.29 104.29" style="fill:#FFA52E"></polygon><path d="M235.91,107.86s-2.77-5.17-5.08-4.23-.61,8.14,1.82,9.39a2.6,2.6,0,0,0,3.62-1Z" style="fill:#f7a9a0"></path><path d="M231.37,105.68s-.06,0,0,.07a6.56,6.56,0,0,1,2.89,4.48,1.44,1.44,0,0,0-2.09-.64c-.05,0,0,.11,0,.1a1.59,1.59,0,0,1,1.68.76,7.64,7.64,0,0,1,.67,1.52c.07.17.36.12.33-.07v-.05C235.17,109.59,233.78,106.2,231.37,105.68Z" style="fill:#263238"></path><path d="M126.54,369.25c2,.75,22.57,6.31,23.63,3.23,1.33-3.85-6.48-10.37-4.58-10.29,9.9.42,15.84,14.12,18.65,14.52s3.7-9.86,1.75-12.4-1.1-4.47,2.79-2.09,4.4,10.91,6.73,10.45,2.83-9.73,2.6-13.2-8.79-9.21-7-11.15,11.27,1.52,16.76,11.42,5.32,23.28,8.87,25.31,7.22-2.43,7.28-5-5.67-7.24-5.42-9.53,8.44.87,11.73,5.73,7.43,18.14,11.51,19.7,14.63,1.07,20,4.25,11.85,6.09,15.41,4.74-3-4.32-3.11-6,6.79-2,12.78,0,19.54,14.88,23.75,16.94c5.12,2.5,16.82,0,24.55,3.17s6.07,3.57,24.8,9c0,0-31.59,1.3-78.36-10.15S126.54,369.25,126.54,369.25Z" style="fill:#455a64"></path><path d="M172.18,340.2c-1.39.75,1,3.07,2.68,2.6S174.63,338.88,172.18,340.2Z" style="fill:#455a64"></path><path d="M303.44,412c-1.39.74,1,3.07,2.69,2.6S305.89,410.64,303.44,412Z" style="fill:#455a64"></path><path d="M164.25,358.6c-1,.9-.47,2.52.6,1.8S166,357,164.25,358.6Z" style="fill:#455a64"></path><path d="M249,398c-1,.9-.47,2.53.6,1.81S250.77,396.4,249,398Z" style="fill:#455a64"></path><path d="M201.29,364.09c-1.15.54-.87,3.08.34,2.85S203.31,363.14,201.29,364.09Z" style="fill:#455a64"></path><path d="M168.24,347.71c1.17,0,1.46-2.35-.16-1.75S167.08,347.74,168.24,347.71Z" style="fill:#455a64"></path><path d="M169.19,360c1.17,0,1.45-2.36-.17-1.75S168,360,169.19,360Z" style="fill:#455a64"></path><path d="M143.23,365.68c1.17,0,1.45-2.35-.17-1.75S142.06,365.7,143.23,365.68Z" style="fill:#455a64"></path><path d="M154.05,358.35c.62,0,.77-1.26-.09-.94S153.43,358.36,154.05,358.35Z" style="fill:#455a64"></path><path d="M167.54,357.46c.62,0,.77-1.25-.09-.93S166.92,357.48,167.54,357.46Z" style="fill:#455a64"></path><path d="M252,395.58c.63,0,.78-1.25-.09-.93S251.39,395.59,252,395.58Z" style="fill:#455a64"></path><path d="M198.47,367.43c.7,0,.87-1.42-.11-1.06S197.76,367.44,198.47,367.43Z" style="fill:#455a64"></path><path d="M175.78,346.43c.7,0,.88-1.42-.1-1.06S175.08,346.44,175.78,346.43Z" style="fill:#455a64"></path><path d="M231.24,400.22c-1.38.75,1,3.07,2.69,2.6S233.69,398.9,231.24,400.22Z" style="fill:#455a64"></path><path d="M188.07,374.75c-1,.91-.46,2.53.6,1.81S189.8,373.16,188.07,374.75Z" style="fill:#455a64"></path><path d="M294.86,418.9c-1.14.53-.86,3.08.34,2.85S296.89,418,294.86,418.9Z" style="fill:#455a64"></path><path d="M237.45,402.67c1.17,0,1.46-2.36-.17-1.75S236.29,402.69,237.45,402.67Z" style="fill:#455a64"></path><path d="M180.81,363.54c1.17,0,1.45-2.36-.17-1.75S179.64,363.56,180.81,363.54Z" style="fill:#455a64"></path><path d="M189,373c.62,0,.77-1.26-.09-.94S188.39,373,189,373Z" style="fill:#455a64"></path><path d="M207.37,379.24c.62,0,.77-1.25-.09-.93S206.74,379.25,207.37,379.24Z" style="fill:#455a64"></path><path d="M291.09,419.88c.7,0,.87-1.42-.1-1.06S290.39,419.89,291.09,419.88Z" style="fill:#455a64"></path></g></svg>