<svg xmlns="http://www.w3.org/2000/svg" viewBox="0 0 500 500"><g id="freepik--background-complete--inject-66"><polygon points="246.48 466.46 253.52 466.46 251.64 350.99 248.36 350.99 246.48 466.46" style="fill:#ebebeb"></polygon><polygon points="451.98 466.46 459.01 466.46 383.01 350.99 379.74 350.99 451.98 466.46" style="fill:#ebebeb"></polygon><polygon points="48.02 466.46 40.98 466.46 116.98 350.99 120.26 350.99 48.02 466.46" style="fill:#ebebeb"></polygon><rect x="86.2" y="397.66" width="327.61" height="5.06" style="fill:#ebebeb"></rect><rect x="116.96" y="350.99" width="266.07" height="3.42" style="fill:#ebebeb"></rect><path d="M56.13,208.78c7.19,0,128.17.8,135.77.56.55,0,.84-.82.3-1.09-4.79-2.38-10.23-1.9-15.21-3.58-2.93-1-4.73-2.9-6.77-5.1a14,14,0,0,0-6.29-4.11,13.3,13.3,0,0,0-6.86-.21c-2.45.58-4.58,2-6.92,2.87-5.82,2.2-11.46.11-15.61-4.19-3.43-3.54-6.79-6.89-11.44-8.8A15.21,15.21,0,0,0,111,185c-4.44,2-7.48,6.06-11.65,8.49-4.94,2.89-10.85,2.21-16.31,3.08s-9.65,5.46-14.43,8.11a10.27,10.27,0,0,1-5.22,1.62c-1.07,0-2.12-.32-3.18-.45-1.65-.21-3.21-.16-4.32,1.22C55.6,207.36,55.66,208.78,56.13,208.78Z" style="fill:#ebebeb"></path><path d="M50.47,82.52c5.24,0,93.57.58,99.12.4.4,0,.62-.6.22-.8-3.5-1.73-7.47-1.38-11.11-2.61-2.14-.72-3.45-2.12-4.93-3.72a10.25,10.25,0,0,0-4.6-3,9.75,9.75,0,0,0-5-.16c-1.8.43-3.35,1.46-5.06,2.1-4.25,1.6-8.37.08-11.4-3.06-2.5-2.58-4.95-5-8.35-6.42a11.08,11.08,0,0,0-8.85-.12c-3.24,1.46-5.46,4.42-8.5,6.19-3.61,2.11-7.93,1.61-11.91,2.25s-7,4-10.54,5.92a7.39,7.39,0,0,1-3.81,1.18,22.72,22.72,0,0,1-2.32-.33c-1.2-.14-2.34-.11-3.15.89C50.08,81.48,50.12,82.52,50.47,82.52Z" style="fill:#ebebeb"></path><path d="M260,219.51c5.25,0,93.57.58,99.13.41.39,0,.61-.6.21-.8-3.5-1.73-7.47-1.38-11.1-2.61-2.14-.72-3.46-2.12-4.94-3.72a10.3,10.3,0,0,0-4.6-3,9.74,9.74,0,0,0-5-.15,42.82,42.82,0,0,0-5.06,2.1c-4.24,1.6-8.37.08-11.4-3.06-2.49-2.59-5-5-8.35-6.43a11.12,11.12,0,0,0-8.85-.12c-3.24,1.47-5.46,4.42-8.5,6.2-3.61,2.11-7.92,1.61-11.91,2.24s-7,4-10.54,5.93a7.49,7.49,0,0,1-3.81,1.18,23.13,23.13,0,0,1-2.32-.33,3.17,3.17,0,0,0-3.15.89C259.59,218.47,259.63,219.51,260,219.51Z" style="fill:#ebebeb"></path><path d="M288.82,110.93c5.25,0,93.57.58,99.12.4.4,0,.62-.59.22-.79-3.5-1.73-7.47-1.39-11.1-2.61-2.14-.72-3.46-2.12-4.94-3.73a10.28,10.28,0,0,0-4.6-3,9.74,9.74,0,0,0-5-.15c-1.8.42-3.35,1.45-5.06,2.1-4.24,1.6-8.37.08-11.4-3.06-2.5-2.59-4.95-5-8.35-6.43a11.08,11.08,0,0,0-8.85-.12c-3.24,1.47-5.46,4.42-8.5,6.2-3.61,2.1-7.93,1.61-11.91,2.24s-7,4-10.54,5.93a7.49,7.49,0,0,1-3.81,1.18c-.78,0-1.54-.24-2.32-.33-1.2-.15-2.34-.12-3.15.89C288.43,109.89,288.47,110.93,288.82,110.93Z" style="fill:#ebebeb"></path><path d="M133.73,141.05c.1.3,139.21,0,137.46,0-.8,0,1.21-1.19.43-1.58-4.53-2.25-9.48-2.31-14.41-2.76a22.09,22.09,0,0,1-8.43-2.05c-2.62-1.37-4.25-3.75-6.11-5.95a26.13,26.13,0,0,0-23.76-9c-9.89,1.54-17.69,9.08-27.6,10.47-5.95.83-11.58-1.47-17.4-2.29a21.33,21.33,0,0,0-13.06,2.39c-3.14,1.56-6,2.87-9.58,3.11-2.73.2-5.46-.12-8.19-.14A18.34,18.34,0,0,0,131,138.06C130.59,138.45,129.19,141.05,133.73,141.05Z" style="fill:#ebebeb"></path><path d="M311.76,256.52c.11.29,139.22,0,137.46,0-.8,0,1.22-1.2.44-1.59-4.53-2.24-9.49-2.31-14.42-2.76a22.21,22.21,0,0,1-8.42-2c-2.62-1.38-4.26-3.76-6.12-6a26.11,26.11,0,0,0-23.75-9c-9.89,1.55-17.69,9.08-27.6,10.47-6,.83-11.58-1.47-17.4-2.28a21.18,21.18,0,0,0-13.06,2.39c-3.14,1.55-6,2.86-9.59,3.11-2.72.19-5.46-.12-8.19-.15a18.32,18.32,0,0,0-12,4.81C308.62,253.91,307.22,256.52,311.76,256.52Z" style="fill:#ebebeb"></path><path d="M42.91,313.51s75.57-43.43,122.43-43.43c56.28,0,111,19.35,131.7,25.75,54.49,16.79,160,17.68,160,17.68Z" style="fill:#ebebeb"></path><path d="M457.09,313.51s-42.91-25.27-91.38-25.27c-33.84,0-82.4,5.24-128.13,13.81-17.42,3.27-108.07,11.46-108.07,11.46Z" style="fill:#dbdbdb"></path></g><g id="freepik--Floor--inject-66"><path d="M38.35,466.65c135.6-.61,287.7-.61,423.3,0-135.6.62-287.7.62-423.3,0Z" style="fill:#263238"></path></g><g id="freepik--Ball--inject-66"><path d="M195.53,213.47C139.24,220.81,74,266.08,73.21,327.81A112.93,112.93,0,0,0,76,354.41c-5.56-17.25-7.28-36-3.33-53.87,10.51-46.24,50.46-79.86,92.42-98.18a142.84,142.84,0,0,1,27.56-8.68l2.93,19.79Z" style="fill:#FFA52E;opacity:0.30000000000000004"></path><circle cx="197.22" cy="202.01" r="10.86" style="fill:#FFA52E"></circle><circle cx="197.22" cy="202.01" r="10.86" style="fill:#fff;opacity:0.4"></circle><path d="M187.35,197.48a10.34,10.34,0,0,1,7.78-4.77,3.58,3.58,0,0,1,3,1c1.63,2.69-2.86,7.72-3.77,10.36-1.87,5,1.5,8.87,6.78,8a8.06,8.06,0,0,1-4.64-.06c-3.23-1.21-4.21-5.31-3-8.31,1.15-2.85,3.24-5.3,4-8.18.48-1.65-1.08-2.07-2.38-2.11a10.9,10.9,0,0,0-7.79,4Z" style="fill:#FFA52E"></path></g><g id="freepik--Character--inject-66"><path d="M335.05,384.12l-32.36-30.49s15.7-19.77,28.2-37.72c7.45-10.7,26.85-22.41,26.24-24.07-1.86-5.14-61.64-29.6-81.4-56.47-16.73-22.75,2.32-46.64,2.32-46.64L330.36,199,329.1,214.3c2.12,3.41,45.84,22.22,70.54,47.94,6.92,7.21,10.49,19.21,7.69,30.52C399.81,323.14,335.05,384.12,335.05,384.12Z" style="fill:#f7a9a0"></path><path d="M317,440.17c-2.11-1.43-43.82-56.45-44.08-59.56,0-.49,7.92-6.51,17.23-13.38L315.27,340l28.86,35.32-27,26.13s6.37,27.43,6.29,30.87S319.1,441.61,317,440.17Z" style="fill:#f7a9a0"></path><path d="M317.14,401.43s6.37,27.43,6.29,30.87-4.33,9.31-6.42,7.87-43.82-56.45-44.08-59.56c0-.52,7.94-6.53,17.23-13.38l9.7-10.52,27.85,34.49Z" style="fill:#37474f"></path><polygon points="324.91 393.91 324.19 394.61 296.46 360.39 297.15 359.65 324.91 393.91" style="fill:#FFA52E"></polygon><polygon points="322.7 396.05 321.98 396.75 294.36 362.67 295.05 361.93 322.7 396.05" style="fill:#FFA52E"></polygon><path d="M317.22,440.38c-2.1-1.42-44.55-56.56-44.82-59.65-.11-1.17,8.25-7.47,18.16-13.8l27.12,34.78s6,27.41,5.93,30.83S319.31,441.81,317.22,440.38Z" style="fill:#FFA52E"></path><path d="M318.81,437.94c-6.74-9.35-34.8-46.44-42.18-55.17-.06-.07-.11,0-.06.05,6.48,9.41,34.85,46.26,42.09,55.23C318.81,438.24,319,438.13,318.81,437.94Z" style="fill:#263238"></path><path d="M322.91,427.52a9.25,9.25,0,0,0-6.41-3.79,9,9,0,0,0-6.46,1.66c-.05.05,0,.15.08.11a10.7,10.7,0,0,1,12.67,2.11C322.85,427.67,323,427.6,322.91,427.52Z" style="fill:#263238"></path><path d="M318.94,405.29c-2.74-3.72-7.27-7-12-7-.19,0-.18.26-.05.33a63.51,63.51,0,0,1,11.65,7.07A.29.29,0,0,0,318.94,405.29Z" style="fill:#263238"></path><path d="M320,409c-2.74-3.71-7.27-7-12-7-.18,0-.18.26,0,.33a63.43,63.43,0,0,1,11.64,7.07A.29.29,0,0,0,320,409Z" style="fill:#263238"></path><path d="M321,412.64c-2.73-3.72-7.26-7-12-7-.18,0-.18.26,0,.33A63.77,63.77,0,0,1,320.63,413,.29.29,0,0,0,321,412.64Z" style="fill:#263238"></path><path d="M322.08,416.31c-2.74-3.71-7.27-7-12-7-.19,0-.19.26-.05.33a63.1,63.1,0,0,1,11.64,7.07A.29.29,0,0,0,322.08,416.31Z" style="fill:#263238"></path><path d="M287.13,378.49c-3.14-4.11-9.54.76-6.4,4.88S290.27,382.61,287.13,378.49Z" style="fill:#263238"></path><path d="M331.76,401.82c.13-3-3.16-4.23-5.62-4.17a24.36,24.36,0,0,0-9.65,2.5,11.11,11.11,0,0,0-1.24.64,5.43,5.43,0,0,1-.51.29s0,0,0,0l-.13.1-.4.25a.13.13,0,0,0,0,.2.6.6,0,0,0-.07.64.44.44,0,0,0,.27.24c1,.35,2.11.73,3.18,1.11.18.08.36.13.55.2a25,25,0,0,0,8,1.78C328.53,405.63,331.63,404.69,331.76,401.82Zm-11.22,1.41c-.91-.27-1.82-.56-2.72-.84s-1.53-.48-2.3-.7l-.32-.08-.3-.09.28-.09h0c.61-.2,1.21-.38,1.8-.59a43.7,43.7,0,0,1,4.92-1.37,25.6,25.6,0,0,1,3.49-.55c1.81-.11,7.62,1.17,3.9,4.56C327.27,405.34,322.77,403.91,320.54,403.23Z" style="fill:#263238"></path><path d="M315,402.08a.13.13,0,0,0,.16-.11,1.5,1.5,0,0,0,0-.36.33.33,0,0,0,0-.16s0,0,0,0a2.74,2.74,0,0,0,0-.63,15.09,15.09,0,0,0,0-2.33,24,24,0,0,0-2.26-8.82c-1.08-2.21-3.68-4.55-6.3-3a2.4,2.4,0,0,0-.26.18c-2.17,1.51-1.56,4.55-.48,6.56a23.55,23.55,0,0,0,4.55,5.53c1.22,1.15,2.48,2.26,3.66,3.39l0,0A.56.56,0,0,0,315,402.08Zm-4.37-4.87c-1.65-1.66-5-5-4.33-7.67a3.62,3.62,0,0,1,.84-1.71c1.64-1.71,4.38,1.65,5,3a28.11,28.11,0,0,1,1.17,3.34c.25.86.44,1.72.61,2.6.3,1.42.52,2.84.79,4.27v0c0,.08,0,.18.05.27a1.14,1.14,0,0,0-.19-.19,5.45,5.45,0,0,0-.46-.5C313,399.51,311.8,398.38,310.65,397.21Z" style="fill:#263238"></path><path d="M330.36,199s-13.05,29.48-19.71,36.84c0,0-41.92,90-58.29,107.69-15.65,16.95-72.31,57.38-72.31,57.38l-27.82-32.31S187,330.47,218,313.63c4.79-2.6,37.63-84.16,37.68-86.06.52-19.75,22.4-38.84,22.4-38.84Z" style="fill:#f7a9a0"></path><path d="M172.4,454.13c-1,0-19.14.88-20.69-.51-15.71-14.07-36.79-49-37.24-50.88-.3-1.17,18-16.66,18.13-16.75,1.71-1.89,28.82-25.45,28.82-25.45L191,391.28,162.8,416.89l-.55.54a117.05,117.05,0,0,0,4.6,20.05c.46,1.33,6.29,7,6.68,8.16C174.82,449.29,173.82,454.13,172.4,454.13Z" style="fill:#f7a9a0"></path><path d="M172.4,454.13c-1,0-19.14.88-20.69-.51-15.71-14.07-36.79-49-37.24-50.88-.3-1.17,18-16.66,18.13-16.75.69-.76,5.46-5,10.93-9.82l29.8,31.17-10.53,9.55-.55.54a117.05,117.05,0,0,0,4.6,20.05c.46,1.33,6.29,7,6.68,8.16C174.82,449.29,173.82,454.13,172.4,454.13Z" style="fill:#37474f"></path><path d="M170.45,410l-.74.68-30.24-30.87.74-.66Zm-32.54-28.81-.74.66,30.27,30.88.74-.67Z" style="fill:#FFA52E"></path><path d="M173.11,454.41c-.59.39-20.52.55-21.84-.64-12.58-11.36-38-49.23-38.27-51.5-.15-1.19,8.76-9.24,18.6-16l30.91,31.25s2,13,4.48,20c.57,1.59,6.3,6.82,6.82,8C175.41,449.05,174,453.84,173.11,454.41Z" style="fill:#FFA52E"></path><path d="M171.6,444a12,12,0,0,0-9.1-1.66,10.24,10.24,0,0,0-6.51,4.5c0,.07.09.16.15.09,3.46-4.1,10.27-5.41,15.37-2.79C171.62,444.18,171.7,444,171.6,444Z" style="fill:#263238"></path><path d="M129.57,397c-3.33-4.07-9.67,1.11-6.32,5.19S132.91,401,129.57,397Z" style="fill:#263238"></path><path d="M176.59,418.21c.13-3.09-3.22-4.3-5.72-4.23a24.7,24.7,0,0,0-9.82,2.54c-.44.2-.86.43-1.25.65-.18.12-.36.22-.52.31,0,0,0,0,0,0l-.12.09-.41.26a.12.12,0,0,0,0,.2.59.59,0,0,0-.07.65.42.42,0,0,0,.27.25c1.06.35,2.15.73,3.24,1.12.18.08.36.14.56.21a25.3,25.3,0,0,0,8.18,1.8C173.31,422.09,176.46,421.12,176.59,418.21Zm-11.42,1.45-2.76-.86c-.78-.25-1.55-.48-2.34-.71l-.33-.08-.3-.09.28-.1h0l1.83-.6a44.56,44.56,0,0,1,5-1.4,25.07,25.07,0,0,1,3.54-.56c1.85-.12,7.76,1.18,4,4.63C172,421.79,167.44,420.34,165.17,419.66Z" style="fill:#263238"></path><path d="M159.56,418.48c.08,0,.15,0,.17-.11a1.47,1.47,0,0,0,0-.36.24.24,0,0,0,0-.16s0,0,0,0a3.6,3.6,0,0,0,0-.65,16.91,16.91,0,0,0-.05-2.36,24.54,24.54,0,0,0-2.3-9c-1.11-2.25-3.75-4.62-6.41-3.07a2.61,2.61,0,0,0-.27.19c-2.2,1.54-1.58,4.62-.48,6.66a23.78,23.78,0,0,0,4.64,5.63c1.23,1.17,2.52,2.29,3.72,3.44l0,0A.57.57,0,0,0,159.56,418.48Zm-4.45-4.94c-1.68-1.69-5.11-5.06-4.41-7.8a3.85,3.85,0,0,1,.85-1.74c1.67-1.74,4.47,1.68,5.1,3.09a25.35,25.35,0,0,1,1.19,3.4,26,26,0,0,1,.63,2.64c.31,1.44.54,2.89.81,4.35v0c0,.09,0,.18.06.27l-.19-.19c-.16-.17-.3-.34-.47-.51C157.51,415.87,156.29,414.73,155.11,413.54Z" style="fill:#263238"></path><path d="M164.37,422.83c-2.79-3.77-7.4-7.1-12.22-7.1-.18,0-.18.27,0,.33A65.13,65.13,0,0,1,164,423.25.3.3,0,0,0,164.37,422.83Z" style="fill:#263238"></path><path d="M165.44,426.57c-2.79-3.77-7.4-7.1-12.22-7.1-.18,0-.18.26,0,.33A65.65,65.65,0,0,1,165,427,.29.29,0,0,0,165.44,426.57Z" style="fill:#263238"></path><path d="M166.5,430.31c-2.78-3.78-7.39-7.1-12.21-7.1-.19,0-.18.26,0,.33a65,65,0,0,1,11.84,7.18A.29.29,0,0,0,166.5,430.31Z" style="fill:#263238"></path><path d="M167.57,434c-2.79-3.77-7.39-7.1-12.21-7.1-.19,0-.19.27-.05.34a64.19,64.19,0,0,1,11.85,7.18A.3.3,0,0,0,167.57,434Z" style="fill:#263238"></path><path d="M173.28,451.69c-5.38-.7-10.88-.59-16.28-1.11l-1.9-.18a2.9,2.9,0,0,1-1.89-.56,29.72,29.72,0,0,1-2.42-3c-1.62-2.07-3.22-4.15-4.83-6.24-6.46-8.37-12.78-16.84-19.05-25.35-1.77-2.41-3.55-4.8-5.32-7.2s-3.72-4.7-5.5-7.1c-.07-.09-.21,0-.15.09,1.51,2.26,2.86,4.61,4.41,6.84s3.09,4.47,4.67,6.67q4.72,6.58,9.57,13.05t9.8,12.88c1.66,2.16,3.34,4.3,5,6.44l2.45,3.1a3.29,3.29,0,0,0,2.49,1.43c6.24.59,12.61.44,18.87.75C173.49,452.16,173.54,451.73,173.28,451.69Z" style="fill:#263238"></path><path d="M330.36,199l-52.31-10.22-11.92,9.93s-22.39,3.18-26.62,6.37c-9,6.76-10,19.67-6.85,23.92,4.08,5.54,17.6,8.22,28.62,15.81,14,9.65,26.33,23.71,36.32,23.19,17.17-.9,30.15-17.43,38.09-22s17.42-11.16,28.78-10.91c2.23.05-2-7.06-7.75-9.77-3.22-1.53-27-11.5-27-11.5Z" style="fill:#FFA52E"></path><path d="M329.11,213.43c-.82.11-1.63.33-2.45.47l-2.62.44c-1.75.32-3.53.58-5.3.79a81.12,81.12,0,0,1-10.34.53,84.53,84.53,0,0,1-20.74-2.81,72.53,72.53,0,0,1-11.4-3.87c-.09,0-.17.09-.08.14a82.88,82.88,0,0,0,9.76,4.27A68.38,68.38,0,0,0,296.18,216a70.31,70.31,0,0,0,21.28.51c2-.25,3.88-.56,5.8-1,1-.22,2-.47,3-.77a27.16,27.16,0,0,0,2.93-1C329.34,213.73,329.34,213.4,329.11,213.43Z" style="fill:#263238"></path><path d="M329.08,208.36q-12.27-1.34-24.56-2.16c-2.34-.15-4.68-.27-7-.42-.09,0-.08.17,0,.18,8.16,1.09,16.33,2,24.54,2.38,2.34.11,4.69.16,7,.21C329.18,208.55,329.17,208.37,329.08,208.36Z" style="fill:#263238"></path><path d="M327.84,205c-3.23-.53-6.53-.79-9.79-1.05s-6.66-.43-10-.7c-.1,0-.09.15,0,.16,3.3.33,6.58.76,9.88,1.09s6.59.66,9.88.72C327.94,205.24,328,205,327.84,205Z" style="fill:#263238"></path><path d="M317.88,227.32a56.51,56.51,0,0,0-10.57,11.74c-3.25,4.68-6.32,9.51-9.33,14.35-1.78,2.87-3.57,5.74-5.25,8.68-.06.09.09.2.16.11,3.54-4.68,6.91-9.53,10.2-14.4,3.05-4.52,6-9.14,9.23-13.52a57.22,57.22,0,0,1,5.76-6.77C318.21,227.39,318,227.22,317.88,227.32Z" style="fill:#263238"></path><path d="M327.3,229a78.28,78.28,0,0,0-9.58,6c-1.48,1.07-2.91,2.21-4.3,3.39-.71.6-1.42,1.2-2.09,1.84s-1.34,1.4-2,2.05c-.07.06,0,.18.1.12,1.44-1.13,3-2.14,4.51-3.22s3-2.19,4.53-3.27q4.54-3.24,9.19-6.37A.31.31,0,0,0,327.3,229Z" style="fill:#263238"></path><path d="M268.49,196.62c-3.27,2.4-6.46,4.91-9.65,7.41-1.61,1.25-3.19,2.53-4.78,3.81l-2.3,1.83a14.51,14.51,0,0,0-2.25,2c0,.06,0,.19.1.15a13.48,13.48,0,0,0,2.49-1.56c.8-.56,1.59-1.12,2.38-1.7,1.68-1.21,3.35-2.44,5-3.72,3.19-2.51,6.32-5.1,9.28-7.87C268.91,196.77,268.68,196.48,268.49,196.62Z" style="fill:#263238"></path><path d="M359.93,227.35c-14.45,1-27.83,11.51-38.71,20.12-8.14,6.44-14.57,11.53-19.9,11.53-8.69,0-18.12-7.56-27.23-14.86a120.38,120.38,0,0,0-11.53-8.55,58.7,58.7,0,0,0-11.33-5.18c-4.74-1.71-8.49-3.07-10.94-7.7-3.18-6,3.14-14.94,9-21,2.48-.57,5.12-1.09,7.55-1.53a55.21,55.21,0,0,0-9.34,9.8c-3.47,4.75-4.81,8.71-3.68,10.85,1.72,3.26,4.37,4.22,8.76,5.81a62.44,62.44,0,0,1,12,5.52,121.29,121.29,0,0,1,12,8.85c8.18,6.55,17.45,14,24.73,14,3.94,0,10.49-5.18,17.42-10.67,10-7.88,21.94-17.35,35.37-20.2,1.22.53,2.14.93,2.61,1.16A15.94,15.94,0,0,1,359.93,227.35Z" style="opacity:0.1"></path><path d="M325.76,149.17c14.27,21.24,32.5,42.91,40,41.61,10.79-1.87,30.9-15.82,41.36-24.35,3.08-2.5-19-24.47-22.27-21.79-4,3.23-20.83,17.77-21.31,18-1,.41-23.79-18.78-29.85-22.63C322.61,132.9,318,137.62,325.76,149.17Z" style="fill:#f7a9a0"></path><path d="M368.86,190a22,22,0,0,1-3.08.77c-7.52,1.3-25.75-20.38-40-41.61-5.65-8.41-4.75-13.19.46-12.44Z" style="opacity:0.1"></path><path d="M401.87,169.68c3.06-1.67,21.87-10.71,25-14s11.6-13.47,9.32-16.15-5,.09-5,.09,3.23-5.27.34-7.35c-2.31-1.66-6.33,2.05-6.33,2.05s3.24-6,.1-7.65c-2.85-1.55-6.17,3.55-6.17,3.55s2.2-5.27-.84-6.23c-3.65-1.15-7.47,8-11.24,11.34-.86.77-18.48,14.35-18.48,14.35Z" style="fill:#f7a9a0"></path><path d="M419.05,129.92c-3.56,6.53-5.22,9.13-11.08,13.22-.12.08,0,.27.1.19,6.11-3.48,8.3-6.42,11.31-13.29C419.52,129.71,419.21,129.62,419.05,129.92Z" style="fill:#263238"></path><path d="M425.18,134.3c-3.54,6.69-6.18,9.19-12,13.92-.08.07,0,.22.11.16,6.11-4.17,9.48-6.87,12.14-14C425.54,134,425.34,134,425.18,134.3Z" style="fill:#263238"></path><path d="M431,139.84c-3.9,6.23-6.59,9.28-12.84,13.15a.14.14,0,0,0,.13.24c6.76-3.33,10.14-7.11,12.88-13.25C431.31,139.56,431.19,139.45,431,139.84Z" style="fill:#263238"></path><path d="M381.18,148.29s6.2-6.71,9-9.71,9.49-12.55,13-12.23c3.93.36.83,10.53-4.1,15.91,0,0,6.11,10.32,1.61,15.72S381.18,148.29,381.18,148.29Z" style="fill:#f7a9a0"></path><path d="M398.76,143c2.52,3.93,4.2,9.86,2.21,14.07a.11.11,0,0,0,.19.11c2.74-4.23.86-11.11-1.6-14.48C399.08,142,398.11,142,398.76,143Z" style="fill:#263238"></path><path d="M375.52,151.76c.13-.7,6.1-6.1,6.87-5.85s21.44,22.27,21.64,23.77c.08.59-6.29,6.21-7.39,6.19C395.22,175.84,375.1,154,375.52,151.76Z" style="fill:#FFA52E"></path><path d="M401.94,172l-.75.67-22.07-24.52.76-.65Z" style="fill:#ebebeb"></path><path d="M399.7,173.9l-.79.63-22-24.41c.23-.22.47-.46.73-.69Z" style="fill:#ebebeb"></path><path d="M321.7,93.3a6.08,6.08,0,0,0-2-1.18c-3.32-1.16-6.81.23-9.59,2-3,1.93-5.69,4.69-9.21,5.56a5.82,5.82,0,0,1-4.15-.3,5.38,5.38,0,0,1-2.49-3.73c-.4-1.58-.53-3.54-1.89-4.66a4.61,4.61,0,0,0-4.1-.57c-3.5,1-5.42,4.65-8.13,6.79A18.37,18.37,0,0,1,270,101.17a17.85,17.85,0,0,1-9.93-2.28,17.51,17.51,0,0,1-4-3c-1.31-1.36-2.3-3-3.55-4.38A6.51,6.51,0,0,0,248,88.91c-1.41,0-5.86,2.71-8.19,8.65-.16.42-.92.1-.91-.4a22.3,22.3,0,0,1,.21-2.82,24.6,24.6,0,0,1,12.77-18.4,25.56,25.56,0,0,1,12-2.91,41.58,41.58,0,0,0,7-.17,12.84,12.84,0,0,0,5.54-2.49c3.15-2.35,5.7-5.42,9.25-7.22A21.47,21.47,0,0,1,296,61a25.53,25.53,0,0,1,18.93,9.61C319.47,76.25,322,93.58,321.7,93.3Z" style="fill:#263238"></path><path d="M321.52,93.14a10.13,10.13,0,0,0-4.13-1.87,8.26,8.26,0,0,0-4.06.47c-2.92,1.06-5.14,3.19-7.39,5.23s-4.46,3.83-7.4,4.2a6.74,6.74,0,0,1-3.71-.5,5.26,5.26,0,0,1-2.59-3.07c-.9-2.4-1.25-5.72-4.05-6.72s-5.4,1.23-7.36,2.8c-4.78,3.83-10.41,9.51-17.18,7.73-3.43-.9-6.6-3.27-9.15-5.65-1.83-1.72-4.15-3.92-6.88-3.55-.1,0-.06.16,0,.15,2.9-.34,4.83,2.26,6.64,4.1a24,24,0,0,0,7.44,5.3,11.69,11.69,0,0,0,8.85.08,27.09,27.09,0,0,0,7.88-5c1.23-1,2.44-2.09,3.7-3.08A9.76,9.76,0,0,1,286,91.62a3.39,3.39,0,0,1,3.73,1.58,17.76,17.76,0,0,1,1.59,4.18,6.88,6.88,0,0,0,2.11,3.31,6.19,6.19,0,0,0,3,1.24,9.87,9.87,0,0,0,6.94-1.76c2.88-1.93,5-4.75,8-6.63a10,10,0,0,1,5-1.76c1.89,0,3.44.82,5.05,1.69A.19.19,0,0,0,321.52,93.14Z" style="fill:#263238"></path><path d="M315,67.34c-4.56-5.86-12.33-8.33-19.54-7.24a25.59,25.59,0,0,0-11.1,4.69c-3.09,2.22-5.93,4.91-9.46,6.43-3.9,1.68-8,.93-12.13.8a22.66,22.66,0,0,0-9.65,1.79,24.35,24.35,0,0,0-13.08,13.26,24,24,0,0,0-.79,2.3.08.08,0,0,0,.15,0,23.44,23.44,0,0,1,12.26-14,23,23,0,0,1,9-2.36c3.86-.17,7.74.79,11.59.1,3.61-.65,6.63-2.89,9.45-5.11,3.07-2.42,6.12-4.79,9.87-6.08,7-2.39,15-1.25,20.6,3.71,6.24,5.52,7.89,14,8.46,22q.12,1.59.21,3.18c0,.12.19.13.19,0C320.89,82.74,320.18,74,315,67.34Z" style="fill:#263238"></path><path d="M325.87,91.85c-.24-1.23-1.47-2.62-2.31-2.67s-6.18,3.78-6.35,5.4S319.94,97,319.94,97Z" style="fill:#FFA52E"></path><path d="M334.9,178.65,330.36,199l-52.31-10.22s14-37.78,33.28-49.78c9.63-6,15.24-3.62,19.23,3.54,1,1.81,9.81,18.1,9.86,27.06C340.45,173.51,334.9,178.65,334.9,178.65Z" style="fill:#FFA52E"></path><path d="M314,175.68a48.23,48.23,0,0,1,8.24,2.42c1.32.54,2.62,1.16,3.91,1.81.65.32,1.3.62,1.95.91a7.42,7.42,0,0,0,2.12.69c.06,0,.05.13,0,.12a13.11,13.11,0,0,1-2.08-.23,13.31,13.31,0,0,1-1.94-.63c-1.36-.54-2.68-1.15-4-1.7-2.72-1.12-5.44-2.24-8.22-3.11C313.77,175.92,313.83,175.65,314,175.68Z" style="fill:#263238"></path><path d="M306.72,178.06a51.72,51.72,0,0,1,7,.23,31.36,31.36,0,0,1,3.47.57c.55.11,1.1.24,1.65.37s1.18.4,1.79.54c.06,0,.05.13,0,.12-.57-.11-1.16-.11-1.74-.18l-1.74-.21c-1.17-.14-2.33-.26-3.49-.42-2.33-.3-4.65-.58-7-.79C306.57,178.28,306.6,178.07,306.72,178.06Z" style="fill:#263238"></path><path d="M316.44,138c.26,1.14,5.63,8.51,10.8,8.3,1.69-.07,1.7-9.29,1.7-9.29l.16-.68,2.18-9.52-11.16-7.25-1.61-1s-.43,2.64-.92,5.94c0,.15,0,.31-.08.47s-.06.36-.08.54c-.09.49-.17,1-.24,1.49s-.1.76-.15,1.16-.09.8-.15,1.2A64.79,64.79,0,0,0,316.44,138Z" style="fill:#f7a9a0"></path><path d="M331.29,126.8,330,132.4a20.56,20.56,0,0,1-13.37-.24c.07-.9.15-1.84.25-2.76.06-.41.1-.8.15-1.2s.1-.78.15-1.16.15-1,.23-1.49c0-.18.06-.35.1-.54s0-.32.07-.47c.49-3.3.91-5.94.91-5.94l1.62,1Z" style="fill:#263238"></path><path d="M305.54,114.18c1,17.12,11.41,18.43,15.1,18.2,3.35-.21,14.73-1.34,15.46-18.47s-7.55-22.06-15.24-22S304.5,97.06,305.54,114.18Z" style="fill:#f7a9a0"></path><path d="M308.23,112.91c.41,0,.79,0,1.2,0a1.93,1.93,0,0,0,1.23-.27.61.61,0,0,0,.14-.74,1.56,1.56,0,0,0-1.43-.64,2.28,2.28,0,0,0-1.54.53A.66.66,0,0,0,308.23,112.91Z" style="fill:#263238"></path><path d="M319.6,109.61a9.71,9.71,0,0,1-1.11.47,1.91,1.91,0,0,1-1.23.27.62.62,0,0,1-.43-.62,1.56,1.56,0,0,1,1-1.17,2.27,2.27,0,0,1,1.62-.16A.67.67,0,0,1,319.6,109.61Z" style="fill:#263238"></path><path d="M317.53,114s.1,0,.1.09c.16,1.18.53,2.5,1.66,2.72,0,0,0,.06,0,.06C318,116.9,317.48,115.14,317.53,114Z" style="fill:#263238"></path><path d="M318.37,112.6c1.87-.45,2.63,3.31.91,3.73S316.81,113,318.37,112.6Z" style="fill:#263238"></path><path d="M319.15,112.65c.37.14.77.45,1.18.41s.73-.51.95-1c0,0,.06,0,.07,0a1.4,1.4,0,0,1-.71,1.78c-.69.24-1.33-.29-1.65-1C318.93,112.81,319,112.59,319.15,112.65Z" style="fill:#263238"></path><path d="M311,114.91s-.08.07-.07.12c.26,1.16.37,2.53-.61,3.12,0,0,0,.08,0,.07C311.56,117.79,311.41,116,311,114.91Z" style="fill:#263238"></path><path d="M309.7,113.89c-1.91.22-1.33,4,.43,3.81S311.29,113.71,309.7,113.89Z" style="fill:#263238"></path><path d="M308.94,114.26c-.27.25-.51.66-.86.73s-.78-.27-1.11-.62c0,0-.05,0-.05,0,.09.73.45,1.44,1.16,1.48s1-.66,1.09-1.41C309.19,114.35,309.05,114.16,308.94,114.26Z" style="fill:#263238"></path><path d="M319.59,123.31c-.21.34-.39.78-.8.92a3.26,3.26,0,0,1-1.32,0,0,0,0,0,0,0,.07,1.59,1.59,0,0,0,1.62.26,1.27,1.27,0,0,0,.65-1.25C319.71,123.26,319.62,123.26,319.59,123.31Z" style="fill:#263238"></path><path d="M318.15,120.39a4,4,0,0,1-2.43,2,4.78,4.78,0,0,1-1.41.23,1.22,1.22,0,0,1-.27,0h-.26a.31.31,0,0,1-.26-.23h0a.48.48,0,0,1,0-.12h0v-.1c-.13-.89-.2-2.25-.2-2.25-.31.2-1.88,1.14-1.9.67a58.8,58.8,0,0,1,.15-12.08.11.11,0,0,1,.21,0c.36,3.72.05,7.47.35,11.21a6.41,6.41,0,0,1,1.79-.78c.13,0,.09,2.63.18,3a.16.16,0,0,0,0,0A5.49,5.49,0,0,0,318,120.3C318.1,120.22,318.2,120.29,318.15,120.39Z" style="fill:#263238"></path><path d="M315.17,122.22a4,4,0,0,0,1.8.87,1.76,1.76,0,0,0,1.07-.16c.72-.36.59-1.06.32-1.63a4.07,4.07,0,0,0-.53-.85A5.15,5.15,0,0,1,315.17,122.22Z" style="fill:#263238"></path><path d="M317,123.09a1.76,1.76,0,0,0,1.07-.16c.72-.36.59-1.06.32-1.63A1.83,1.83,0,0,0,317,123.09Z" style="fill:#ff9cbd"></path><path d="M335.89,113.05c-1.89.24-7.71-4-9.52-13,0,0,2.19,8,3,9.06s-3.25-2.4-4.81-9.64a30,30,0,0,1-6.77,5.25c-3.26,1.59-5.37,1.94-5.66,1.74s4.48-2.73,5.56-4.56c0,0-8.38,5.94-12.54,7-.48.13-1.19-7.83,4.55-13.28s15.21-4.73,18.48-2.55c0,0,2.52.51,5.59,4.17C337.7,101.9,337.92,112.8,335.89,113.05Z" style="fill:#263238"></path><path d="M324.21,98.53c0-.2.31-.25.33,0a24,24,0,0,0,3.11,9.45s0,.08-.08,0C325.63,105.05,324.22,102.12,324.21,98.53Z" style="fill:#263238"></path><path d="M313.55,106.74c4.79-1.48,8.73-3.8,11.31-8.23a.09.09,0,0,1,.16.07c-1.94,4.68-6.67,7.31-11.43,8.34C313.49,106.94,313.45,106.77,313.55,106.74Z" style="fill:#263238"></path><path d="M332.3,106.63a44.85,44.85,0,0,1,5.72,4.6s.75-3.49-.09-5.56a45.48,45.48,0,0,0-13.61-7.82Z" style="fill:#FFA52E"></path><path d="M335.75,109.22s-11.27-12.77-16.79-15-16.93-1.87-23.17,3c-4.87,3.78,9.08,9.66,9.08,9.66s.51-2.61,2.09-3.73c3.08-2.18,9.63-2.2,13.5-1.46C325.33,102.61,335.75,109.22,335.75,109.22Z" style="fill:#FFA52E"></path><path d="M335.75,109.22s-11.27-12.77-16.79-15-16.93-1.87-23.17,3c-4.87,3.78,9.08,9.66,9.08,9.66s.51-2.61,2.09-3.73c3.08-2.18,9.63-2.2,13.5-1.46C325.33,102.61,335.75,109.22,335.75,109.22Z" style="opacity:0.2"></path><path d="M332.88,115.24s2.63-6,5.27-5.14,1.39,9-1.2,10.59a2.9,2.9,0,0,1-4.12-.77Z" style="fill:#f7a9a0"></path><path d="M337.73,112.43a0,0,0,0,1,0,.07c-1.8,1.19-2.47,3.21-2.82,5.24a1.6,1.6,0,0,1,2.26-.9.06.06,0,0,1,0,.12,1.8,1.8,0,0,0-1.81,1,8.76,8.76,0,0,0-.61,1.74c-.06.19-.39.16-.37,0a.09.09,0,0,0,0,0C333.85,117.1,335.1,113.22,337.73,112.43Z" style="fill:#263238"></path><path d="M441.22,113.35c-10.94-8.66-32.71-11.7-47.63,7.15-10.66,13.47-11.42,23.14-11.69,33.7-.16,6.75,2.41,13.6,1.91,15.62-2,8.28-9.9,22.36-9.9,22.36l6,4.79s11.89-10.9,19.49-14.78c1.84-.94,9.1,0,15.64-1.72,10.21-2.68,19.45-5.64,30.11-19.11C460.12,142.51,452.17,122,441.22,113.35Zm-48.8,69.86c-4,2.79-12.44,10.36-12.44,10.36l-2.78-2.2s5.42-10,7.23-14.49c.79-2,2.48-6,2.48-6a18.54,18.54,0,0,0,10.83,8.58S394.17,182,392.42,183.21ZM394,173.07c-10.53-8.34-13.24-30.8,1.58-49.53s35.24-13.78,43.41-7.31,17.67,25.18,2.84,43.92S404.49,181.39,394,173.07Z" style="fill:#263238"></path><path d="M409.61,112.5l-.13.15.21-.08Zm39.63,31.37a.57.57,0,0,1,0,.18l.1-.12Z" style="fill:#263238"></path><rect x="371.94" y="194.23" width="8.01" height="3.17" transform="matrix(0.78, 0.62, -0.62, 0.78, 202.7, -191.05)" style="fill:#FFA52E"></rect><rect x="371.94" y="194.23" width="8.01" height="3.17" transform="matrix(0.78, 0.62, -0.62, 0.78, 202.7, -191.05)" style="fill:#fff;opacity:0.5"></rect><rect x="358.36" y="192.98" width="9.75" height="37.79" transform="translate(209.92 -179.69) rotate(38.36)" style="fill:#FFA52E"></rect><polygon points="378.78 200.08 378.4 200.55 367.99 198.02 368.6 197.25 378.12 199.55 378.78 200.08" style="fill:#fff;opacity:0.30000000000000004"></polygon><polygon points="374.3 205.74 363.87 203.21 364.49 202.44 374.92 204.97 374.3 205.74" style="fill:#fff;opacity:0.30000000000000004"></polygon><polygon points="370.19 210.93 359.76 208.4 360.38 207.63 370.81 210.16 370.19 210.93" style="fill:#fff;opacity:0.30000000000000004"></polygon><polygon points="366.08 216.12 355.66 213.59 356.27 212.82 366.7 215.35 366.08 216.12" style="fill:#fff;opacity:0.30000000000000004"></polygon><polygon points="361.98 221.31 351.55 218.78 352.16 218.01 362.59 220.54 361.98 221.31" style="fill:#fff;opacity:0.30000000000000004"></polygon><polygon points="358.48 225.73 357.87 226.5 348.35 224.2 347.68 223.67 348.06 223.19 358.48 225.73" style="fill:#fff;opacity:0.30000000000000004"></polygon><path d="M410.86,112.12l-24.77,31.29c.12-.57.25-1.13.39-1.7l23.13-29.21.08.07Z" style="fill:#263238"></path><path d="M421.31,110.4l-35.84,45.27c-.05-.35-.07-.72-.1-1.08l35-44.17Z" style="fill:#263238"></path><path d="M429.46,111.6l-41.79,52.79c-.11-.26-.22-.52-.32-.8l41.32-52.2C428.94,111.45,429.2,111.52,429.46,111.6Z" style="fill:#263238"></path><path d="M436.3,114.43l-44.66,56.42c-.17-.18-.33-.38-.49-.58l44.49-56.21C435.87,114.18,436.09,114.3,436.3,114.43Z" style="fill:#263238"></path><path d="M441.82,118.94l-44.51,56.23-.67-.36,44.67-56.43Z" style="fill:#263238"></path><path d="M446,125.1l-41.34,52.23-.86-.13,41.82-52.82C445.78,124.61,445.91,124.85,446,125.1Z" style="fill:#263238"></path><path d="M448.89,133l-35,44.2c-.35.07-.72.12-1.07.16L448.68,132C448.76,132.35,448.83,132.66,448.89,133Z" style="fill:#263238"></path><path d="M449.31,143.93l-23.14,29.24c-.52.26-1,.52-1.56.75l24.8-31.33c0,.43-.1.85-.17,1.28Z" style="fill:#263238"></path><path d="M445,123.29,430.71,112c.78.25,1.54.53,2.26.83l10.71,8.49C444.14,121.92,444.58,122.58,445,123.29Z" style="fill:#263238"></path><path d="M449.38,135.84,417.49,110.6c.37,0,.73-.08,1.09-.1l30.65,24.26C449.29,135.12,449.34,135.47,449.38,135.84Z" style="fill:#263238"></path><path d="M449.11,144.72,408.9,112.89l.58-.24.13-.15,39.7,31.43-.1.12C449.18,144.27,449.15,144.49,449.11,144.72Z" style="fill:#263238"></path><path d="M446.82,152l-44.48-35.2.62-.47,44.16,35Z" style="fill:#263238"></path><path d="M443.23,158.24l-46.14-36.53.49-.56,46.08,36.47Z" style="fill:#263238"></path><path d="M439.2,163.19c-.17.19-.34.37-.52.55L392.77,127.4l.42-.63Z" style="fill:#263238"></path><path d="M433.93,168.11l-.6.48-44-34.86c.1-.24.21-.47.32-.7Z" style="fill:#263238"></path><path d="M427.75,172.31c-.23.13-.46.27-.7.39l-40.33-31.92c.07-.26.15-.52.22-.78Z" style="fill:#263238"></path><path d="M420.43,175.6c-.28.09-.56.19-.86.27l-34.22-27.08c0-.31,0-.61.07-.91Z" style="fill:#263238"></path><path d="M411.33,177.49l-1.12.07-24.35-19.27c-.07-.36-.13-.73-.19-1.11Z" style="fill:#263238"></path><path d="M396.08,174.51a18.64,18.64,0,0,1-2.11-1.44,19.17,19.17,0,0,1-1.89-1.73Z" style="fill:#263238"></path><path d="M312.85,154.67c-2.38,3.5-7.4,6-10.58,5.4-2.59-.47-3.62-3.41-2.31-7,2.25-6.05,10.54-14.61,14-14.15C317.93,139.5,316.8,148.83,312.85,154.67Z" style="fill:#f7a9a0"></path><path d="M307.4,149.32c-5,25.1-7.45,53.31-1.22,57.72,8.95,6.33,33,10.72,46.45,12.12,3.94.4,3.93-30.72-.28-31.16-5.1-.54-27.3-2.22-27.77-2.42-1-.44-3.49-30.1-5-37.12C316.7,135.6,310.1,135.67,307.4,149.32Z" style="fill:#f7a9a0"></path><path d="M391.94,189.1a4.73,4.73,0,0,1-1.43,5.2,7,7,0,0,1,2.63,4c.55,2.83-3.65,4.94-3.65,4.94a8.63,8.63,0,0,1,2.12,4.63c.25,2.76-3.68,5.49-3.68,5.49a7.59,7.59,0,0,1-.71,5.24c-2.46,4.2-9.89,4.41-14.61,4.59s-18.28-3.73-20.94-4.21l-1.42-30.28s20.94-6.84,26.52-6.26C381.47,182.89,390.58,185.67,391.94,189.1Z" style="fill:#f7a9a0"></path><path d="M390.28,193.82c-4.88-1.71-10-1.89-15.09-2.36-.11,0-.13.17,0,.17,5.08.41,10,1.82,15.05,2.43A.13.13,0,0,0,390.28,193.82Z" style="fill:#263238"></path><path d="M389.38,202.81a13.28,13.28,0,0,0-3.5-.38c-1.25-.06-2.5-.09-3.75-.1-2.49,0-5,0-7.49.12-.11,0-.13.18,0,.18q3.74,0,7.47.22c1.25.07,2.49.14,3.73.23a15.45,15.45,0,0,0,3.53.07A.18.18,0,0,0,389.38,202.81Z" style="fill:#263238"></path><path d="M387.82,213.33a9.35,9.35,0,0,0-3.17-.19c-1.14,0-2.28,0-3.42,0-2.27,0-4.55,0-6.83-.08a.09.09,0,0,0,0,.18c2.31.09,4.62.21,6.94.28l3.4.08a8.72,8.72,0,0,0,3.1-.19A.06.06,0,0,0,387.82,213.33Z" style="fill:#263238"></path><path d="M305.82,153.85c0,.4,0,.81.05,1.22a41,41,0,0,1,1-4.21,0,0,0,0,1,.08,0c-.26,2.21-.31,2.85-.68,5.05-.18,1-.41,1.91-.62,2.95s-.39,1-.26-.16c.1-1,.06-1.5.23-2.47,0-.3-.08-.6-.09-.9,0-.49,0-1,0-1.47C305.59,152.9,305.76,152.88,305.82,153.85Z" style="fill:#263238"></path><path d="M356.83,186.63c4.17-1.4,8.41-2.51,12.68-3.51a39,39,0,0,1,6.55-1,19,19,0,0,1,6.43,1.53,25.12,25.12,0,0,0-6.43-.94,50,50,0,0,0-6.39,1.18c-3.77.84-9.09,2.07-12.84,2.78Z" style="fill:#263238"></path></g><g id="freepik--Net--inject-66"><rect x="42.14" y="368.79" width="7.18" height="97.87" style="fill:#263238"></rect><rect x="450.68" y="368.79" width="7.18" height="97.87" style="fill:#263238"></rect><rect x="53.9" y="389.8" width="392.2" height="0.5" style="fill:#263238"></rect><rect x="53.9" y="401.52" width="392.2" height="0.5" style="fill:#263238"></rect><rect x="53.9" y="413.23" width="392.2" height="0.5" style="fill:#263238"></rect><rect x="53.9" y="424.95" width="392.2" height="0.5" style="fill:#263238"></rect><rect x="53.9" y="436.67" width="392.2" height="0.5" style="fill:#263238"></rect><rect x="53.9" y="448.38" width="392.2" height="0.5" style="fill:#263238"></rect><rect x="49.32" y="460.1" width="401.36" height="0.5" style="fill:#263238"></rect><rect x="49.32" y="464.24" width="401.36" height="0.5" style="fill:#263238"></rect><rect x="53.52" y="368.79" width="392.96" height="9.55" style="fill:#dbdbdb"></rect><polygon points="446.35 464.74 53.65 464.74 53.65 378.34 54.15 378.34 54.15 464.24 445.85 464.24 445.85 378.34 446.35 378.34 446.35 464.74" style="fill:#263238"></polygon><rect x="68.08" y="378.34" width="0.5" height="86.15" style="fill:#263238"></rect><rect x="82.05" y="378.34" width="0.5" height="86.15" style="fill:#263238"></rect><rect x="96.03" y="378.34" width="0.5" height="86.15" style="fill:#263238"></rect><rect x="110" y="378.34" width="0.5" height="86.15" style="fill:#263238"></rect><rect x="123.98" y="378.34" width="0.5" height="86.15" style="fill:#263238"></rect><rect x="137.95" y="378.34" width="0.5" height="86.15" style="fill:#263238"></rect><rect x="151.93" y="378.34" width="0.5" height="86.15" style="fill:#263238"></rect><rect x="165.9" y="378.34" width="0.5" height="86.15" style="fill:#263238"></rect><rect x="179.88" y="378.34" width="0.5" height="86.15" style="fill:#263238"></rect><rect x="193.85" y="378.34" width="0.5" height="86.15" style="fill:#263238"></rect><rect x="207.83" y="378.34" width="0.5" height="86.15" style="fill:#263238"></rect><rect x="221.8" y="378.34" width="0.5" height="86.15" style="fill:#263238"></rect><rect x="235.78" y="378.34" width="0.5" height="86.15" style="fill:#263238"></rect><rect x="249.75" y="378.34" width="0.5" height="86.15" style="fill:#263238"></rect><rect x="263.72" y="378.34" width="0.5" height="86.15" style="fill:#263238"></rect><rect x="277.7" y="378.34" width="0.5" height="86.15" style="fill:#263238"></rect><rect x="291.67" y="378.34" width="0.5" height="86.15" style="fill:#263238"></rect><rect x="305.65" y="378.34" width="0.5" height="86.15" style="fill:#263238"></rect><rect x="319.62" y="378.34" width="0.5" height="86.15" style="fill:#263238"></rect><rect x="333.6" y="378.34" width="0.5" height="86.15" style="fill:#263238"></rect><rect x="347.57" y="378.34" width="0.5" height="86.15" style="fill:#263238"></rect><rect x="361.55" y="378.34" width="0.5" height="86.15" style="fill:#263238"></rect><rect x="375.52" y="378.34" width="0.5" height="86.15" style="fill:#263238"></rect><rect x="389.5" y="378.34" width="0.5" height="86.15" style="fill:#263238"></rect><rect x="403.47" y="378.34" width="0.5" height="86.15" style="fill:#263238"></rect><rect x="417.45" y="378.34" width="0.5" height="86.15" style="fill:#263238"></rect><rect x="431.42" y="378.34" width="0.5" height="86.15" style="fill:#263238"></rect><rect x="49.32" y="368.79" width="4.2" height="5" style="fill:#263238"></rect><rect x="446.48" y="368.79" width="4.2" height="5" style="fill:#263238"></rect></g></svg>