<svg xmlns="http://www.w3.org/2000/svg" viewBox="0 0 500 500"><g id="freepik--background-complete--inject-706"><circle cx="95.83" cy="97.42" r="59.11" transform="translate(-17.8 173.33) rotate(-79.22)" style="fill:#ebebeb"></circle><circle cx="98.53" cy="98.73" r="56.4" style="fill:#dbdbdb"></circle><circle cx="98.53" cy="98.73" r="52.84" style="fill:#fff"></circle><path d="M150.18,87.52C126.12,102.1,86.57,126,64.46,139.13A53,53,0,0,1,50,119.71L123.13,52A52.91,52.91,0,0,1,150.18,87.52Z" style="fill:#ebebeb;opacity:0.5"></path><path d="M151.34,100.58a52.36,52.36,0,0,1-3.49,17.17L81.94,148.92a51.64,51.64,0,0,1-8.32-3.58C93.53,133.84,129.9,112.91,151.34,100.58Z" style="fill:#ebebeb;opacity:0.5"></path><rect x="98.02" y="49.73" width="1.02" height="8.01" style="fill:#c7c7c7"></rect><rect x="75.52" y="55.76" width="1.02" height="8.01" transform="translate(-19.69 46.02) rotate(-30)" style="fill:#c7c7c7"></rect><rect x="59.05" y="72.23" width="1.02" height="8.01" transform="matrix(0.5, -0.87, 0.87, 0.5, -36.24, 89.69)" style="fill:#c7c7c7"></rect><rect x="49.53" y="98.22" width="8.01" height="1.02" style="fill:#c7c7c7"></rect><rect x="55.56" y="120.73" width="8.01" height="1.02" transform="translate(-52.64 46.02) rotate(-30)" style="fill:#c7c7c7"></rect><rect x="72.03" y="137.2" width="8.01" height="1.02" transform="translate(-81.24 134.78) rotate(-60.03)" style="fill:#c7c7c7"></rect><rect x="98.02" y="139.73" width="1.02" height="8.01" style="fill:#c7c7c7"></rect><rect x="120.52" y="133.7" width="1.02" height="8.01" transform="translate(-52.64 78.97) rotate(-30)" style="fill:#c7c7c7"></rect><rect x="137" y="117.23" width="1.02" height="8.01" transform="translate(-36.24 179.69) rotate(-60)" style="fill:#c7c7c7"></rect><rect x="139.53" y="98.22" width="8.01" height="1.02" style="fill:#c7c7c7"></rect><rect x="133.5" y="75.72" width="8.01" height="1.02" transform="translate(-19.69 78.98) rotate(-30.01)" style="fill:#c7c7c7"></rect><rect x="117.03" y="59.25" width="8.01" height="1.02" transform="translate(8.8 134.76) rotate(-60.03)" style="fill:#c7c7c7"></rect><polygon points="99.3 53.35 101.04 102.3 96.03 102.24 97.94 53.34 99.3 53.35" style="fill:#c7c7c7"></polygon><polygon points="129.79 81.67 96.86 102.69 94.47 98.28 129.14 80.47 129.79 81.67" style="fill:#a6a6a6"></polygon><path d="M100.24,98.73A1.71,1.71,0,1,1,98.53,97,1.71,1.71,0,0,1,100.24,98.73Z" style="fill:#c7c7c7"></path><rect x="259.36" y="48.48" width="197.51" height="136.68" style="fill:#dbdbdb"></rect><rect x="267.43" y="56.55" width="181.37" height="120.61" style="fill:#ebebeb"></rect><rect x="279.66" y="80.02" width="37.49" height="44.43" style="fill:#fff"></rect><path d="M299.75,83.05a1.35,1.35,0,1,1-1.34-1.35A1.34,1.34,0,0,1,299.75,83.05Z" style="fill:#455a64"></path><path d="M286.79,88.92c3.79-.29,7.59-.31,11.38-.35s7.58.06,11.37.35c-3.79.3-7.58.31-11.37.36S290.58,89.21,286.79,88.92Z" style="fill:#ebebeb"></path><path d="M286.79,92.43a51.26,51.26,0,0,1,6.19-.35,49.25,49.25,0,0,1,6.18.35,53.31,53.31,0,0,1-12.37,0Z" style="fill:#ebebeb"></path><path d="M286.79,96c2.64-.28,5.27-.34,7.9-.36s5.27.08,7.9.36c-2.63.27-5.26.34-7.9.35S289.43,96.22,286.79,96Z" style="fill:#ebebeb"></path><path d="M286.79,99.46c3.3-.28,6.59-.34,9.89-.36s6.59.08,9.88.36c-3.29.27-6.59.34-9.88.35S290.09,99.73,286.79,99.46Z" style="fill:#ebebeb"></path><path d="M286.79,103c2.87-.28,5.73-.34,8.59-.36s5.72.08,8.59.36c-2.87.27-5.73.34-8.59.35S289.66,103.24,286.79,103Z" style="fill:#ebebeb"></path><path d="M286.79,106.48c3.67-.29,7.33-.31,11-.35s7.33.05,11,.35c-3.67.29-7.33.31-11,.35S290.46,106.77,286.79,106.48Z" style="fill:#ebebeb"></path><path d="M286.79,110a72.19,72.19,0,0,1,14.2,0,62.51,62.51,0,0,1-7.1.35A65,65,0,0,1,286.79,110Z" style="fill:#ebebeb"></path><path d="M286.79,113.5c3.79-.29,7.59-.31,11.38-.35s7.58.06,11.37.35c-3.79.29-7.58.31-11.37.35S290.58,113.79,286.79,113.5Z" style="fill:#ebebeb"></path><path d="M286.79,117c3.79-.29,7.59-.31,11.38-.35s7.58.06,11.37.35c-3.79.3-7.58.31-11.37.35S290.58,117.3,286.79,117Z" style="fill:#ebebeb"></path><rect x="401.16" y="66.36" width="37.49" height="44.43" style="fill:#fff"></rect><path d="M421.26,69.38A1.35,1.35,0,1,1,419.91,68,1.35,1.35,0,0,1,421.26,69.38Z" style="fill:#455a64"></path><path d="M408.3,75.26c3.79-.3,7.58-.31,11.37-.36s7.58.06,11.37.36c-3.79.29-7.58.31-11.37.35S412.09,75.55,408.3,75.26Z" style="fill:#ebebeb"></path><path d="M408.3,78.77a53.23,53.23,0,0,1,12.36,0,54.74,54.74,0,0,1-12.36,0Z" style="fill:#ebebeb"></path><path d="M408.3,82.28a89.33,89.33,0,0,1,15.8,0c-2.63.27-5.27.34-7.9.35S410.93,82.55,408.3,82.28Z" style="fill:#ebebeb"></path><path d="M408.3,85.79c3.29-.28,6.59-.34,9.88-.35s6.59.07,9.89.35c-3.3.28-6.59.34-9.89.35S411.59,86.06,408.3,85.79Z" style="fill:#ebebeb"></path><path d="M408.3,89.3C411.16,89,414,89,416.89,89s5.72.07,8.58.35c-2.86.28-5.72.34-8.58.35S411.16,89.57,408.3,89.3Z" style="fill:#ebebeb"></path><path d="M408.3,92.81c3.66-.29,7.33-.31,11-.35s7.33.06,11,.35c-3.66.3-7.33.31-11,.35S412,93.1,408.3,92.81Z" style="fill:#ebebeb"></path><path d="M408.3,96.32a72.19,72.19,0,0,1,14.2,0,70.19,70.19,0,0,1-14.2,0Z" style="fill:#ebebeb"></path><path d="M408.3,99.83c3.79-.29,7.58-.31,11.37-.35s7.58.06,11.37.35c-3.79.3-7.58.32-11.37.36S412.09,100.12,408.3,99.83Z" style="fill:#ebebeb"></path><path d="M408.3,103.34c3.79-.29,7.58-.31,11.37-.35s7.58.06,11.37.35c-3.79.3-7.58.32-11.37.36S412.09,103.64,408.3,103.34Z" style="fill:#ebebeb"></path><rect x="345.58" y="102.54" width="44.37" height="52.57" style="fill:#fff"></rect><path d="M369.11,109.63a1.35,1.35,0,1,1-1.35-1.35A1.34,1.34,0,0,1,369.11,109.63Z" style="fill:#455a64"></path><path d="M351.79,115.65a32.57,32.57,0,0,1,4.92-.35,31.32,31.32,0,0,1,4.92.35,33.8,33.8,0,0,1-9.84,0Z" style="fill:#ebebeb"></path><path d="M351.79,119.62a58.14,58.14,0,0,1,12.74,0,58.14,58.14,0,0,1-12.74,0Z" style="fill:#ebebeb"></path><path d="M351.79,123.58a49.9,49.9,0,0,1,11.8,0,49.9,49.9,0,0,1-11.8,0Z" style="fill:#ebebeb"></path><path d="M351.79,127.55a48.53,48.53,0,0,1,11.8,0,44.91,44.91,0,0,1-5.9.35A46.71,46.71,0,0,1,351.79,127.55Z" style="fill:#ebebeb"></path><path d="M351.79,131.51a37.7,37.7,0,0,1,10.25,0,32.72,32.72,0,0,1-5.12.35A34,34,0,0,1,351.79,131.51Z" style="fill:#ebebeb"></path><path d="M351.79,135.47a61.65,61.65,0,0,1,13.12,0,59.95,59.95,0,0,1-13.12,0Z" style="fill:#ebebeb"></path><path d="M351.79,139.44a40.91,40.91,0,0,1,10.83,0,37.81,37.81,0,0,1-5.41.35A39.36,39.36,0,0,1,351.79,139.44Z" style="fill:#ebebeb"></path><path d="M351.79,143.4a59.39,59.39,0,0,1,6.79-.35,57.2,57.2,0,0,1,6.79.35,66,66,0,0,1-13.58,0Z" style="fill:#ebebeb"></path><path d="M351.79,147.36a61.76,61.76,0,0,1,6.79-.35,59.39,59.39,0,0,1,6.79.35,64.21,64.21,0,0,1-13.58,0Z" style="fill:#ebebeb"></path><path d="M371.18,115.65a55.59,55.59,0,0,1,6.44-.35,53.62,53.62,0,0,1,6.45.35,57.87,57.87,0,0,1-12.89,0Z" style="fill:#ebebeb"></path><path d="M371.18,119.62a25.8,25.8,0,0,1,8.47,0,25.8,25.8,0,0,1-8.47,0Z" style="fill:#ebebeb"></path><path d="M371.18,123.58a52.72,52.72,0,0,1,12.13,0,52.72,52.72,0,0,1-12.13,0Z" style="fill:#ebebeb"></path><path d="M371.18,127.55a48.53,48.53,0,0,1,11.8,0,44.91,44.91,0,0,1-5.9.35A46.59,46.59,0,0,1,371.18,127.55Z" style="fill:#ebebeb"></path><path d="M371.18,131.51a59.52,59.52,0,0,1,12.89,0,51.64,51.64,0,0,1-6.45.35A53.46,53.46,0,0,1,371.18,131.51Z" style="fill:#ebebeb"></path><path d="M371.18,135.47a37.7,37.7,0,0,1,10.25,0,36.66,36.66,0,0,1-10.25,0Z" style="fill:#ebebeb"></path><path d="M371.18,139.44a51.27,51.27,0,0,1,12.13,0,47.63,47.63,0,0,1-6.07.35A49.26,49.26,0,0,1,371.18,139.44Z" style="fill:#ebebeb"></path><path d="M371.18,143.4a28.4,28.4,0,0,1,4.69-.35,27.51,27.51,0,0,1,4.69.35,31.6,31.6,0,0,1-9.38,0Z" style="fill:#ebebeb"></path><path d="M371.18,147.36a27.29,27.29,0,0,1,4.5-.35,26.25,26.25,0,0,1,4.5.35,28.31,28.31,0,0,1-9,0Z" style="fill:#ebebeb"></path><rect x="313.7" y="67.81" width="22.56" height="22.56" style="fill:#FFA52E"></rect><path d="M326.33,70.1A1.35,1.35,0,1,1,325,68.75,1.35,1.35,0,0,1,326.33,70.1Z" style="fill:#455a64"></path><rect x="445.65" y="56.55" width="3.04" height="120.74" style="fill:#c7c7c7"></rect></g><g id="freepik--Shadow--inject-706"><ellipse cx="255.58" cy="431.78" rx="213.86" ry="21" style="fill:#ebebeb"></ellipse></g><g id="freepik--Desk--inject-706"><polygon points="36.3 393.56 89.72 393.31 143.15 393.23 250 393.06 356.85 393.23 410.28 393.31 463.7 393.56 410.28 393.8 356.85 393.89 250 394.06 143.15 393.89 89.72 393.8 36.3 393.56" style="fill:#263238"></polygon></g><g id="freepik--Monitor--inject-706"><rect x="62.5" y="114.77" width="365.1" height="248.26" style="fill:#263238"></rect><rect x="62.5" y="326.41" width="365.1" height="36.62" style="fill:#FFA52E"></rect><rect x="62.5" y="326.41" width="365.1" height="36.62" style="fill:#fff;opacity:0.4"></rect><rect x="173.9" y="407.78" width="142.29" height="11.89" style="fill:#FFA52E"></rect><rect x="173.9" y="407.78" width="142.29" height="11.89" style="fill:#fff;opacity:0.30000000000000004"></rect><polygon points="299.25 407.79 190.85 407.79 193.6 387.16 193.74 386.18 193.99 384.25 194.12 383.27 194.38 381.34 194.42 381.04 194.51 380.37 194.77 378.43 194.9 377.46 196.83 363.04 293.27 363.04 295.08 376.64 295.18 377.29 295.48 379.55 295.56 380.2 295.68 381.04 295.87 382.46 295.95 383.11 296.25 385.37 296.34 386.02 299.25 407.79" style="fill:#FFA52E"></polygon><g style="opacity:0.4"><polygon points="299.25 407.79 190.85 407.79 193.6 387.16 193.74 386.18 193.99 384.25 194.12 383.27 194.38 381.34 194.42 381.04 194.51 380.37 194.77 378.43 194.9 377.46 196.83 363.04 293.27 363.04 295.08 376.64 295.18 377.29 295.48 379.55 295.56 380.2 295.68 381.04 295.87 382.46 295.95 383.11 296.25 385.37 296.34 386.02 299.25 407.79" style="fill:#fff"></polygon></g><path d="M251,342.26a6.05,6.05,0,1,1-6.05-6.05A6.05,6.05,0,0,1,251,342.26Z" style="fill:#37474f"></path><g style="opacity:0.16"><polygon points="295.68 381.04 194.9 377.46 196.83 363.04 293.27 363.04 295.68 381.04"></polygon></g><rect x="79.35" y="130.91" width="331.4" height="178.27" style="fill:#fff"></rect><rect x="79.35" y="130.91" width="331.4" height="178.27" style="fill:#37474f"></rect><g style="opacity:0.1"><polygon points="319.05 130.91 140.77 309.19 103.45 309.19 281.74 130.91 319.05 130.91" style="fill:#fff"></polygon><polygon points="410.75 223.53 410.75 260.85 362.41 309.19 325.09 309.19 410.75 223.53" style="fill:#fff"></polygon><polygon points="154.23 130.91 79.34 205.8 79.34 168.49 116.92 130.91 154.23 130.91" style="fill:#fff"></polygon><polygon points="410.75 173.83 410.75 189.41 290.96 309.19 275.39 309.19 410.75 173.83" style="fill:#fff"></polygon><polygon points="220.82 130.91 79.34 272.39 79.34 256.82 205.25 130.91 220.82 130.91" style="fill:#fff"></polygon><polygon points="354.3 130.91 176.02 309.19 171.88 309.19 350.15 130.91 354.3 130.91" style="fill:#fff"></polygon><polygon points="104.58 130.91 79.34 156.14 79.34 152 100.43 130.91 104.58 130.91" style="fill:#fff"></polygon></g></g><g id="freepik--Sparkles--inject-706"><polygon points="417.23 158.3 407.52 160.09 405.35 170.33 403.18 160.09 393.47 158.29 403.14 155.93 405.35 146.26 407.56 155.93 417.23 158.3" style="fill:#FFA52E"></polygon><polygon points="391.08 139.54 385.66 140.54 384.45 146.26 383.23 140.54 377.81 139.54 383.21 138.22 384.45 132.81 385.68 138.22 391.08 139.54" style="fill:#FFA52E"></polygon><polygon points="105.17 262.45 99.75 263.45 98.53 269.17 97.32 263.45 91.89 262.45 97.3 261.13 98.53 255.72 99.77 261.13 105.17 262.45" style="fill:#FFA52E"></polygon><g style="opacity:0.8"><polygon points="417.23 158.3 407.52 160.09 405.35 170.33 403.18 160.09 393.47 158.29 403.14 155.93 405.35 146.26 407.56 155.93 417.23 158.3" style="fill:#fff"></polygon><polygon points="391.08 139.54 385.66 140.54 384.45 146.26 383.23 140.54 377.81 139.54 383.21 138.22 384.45 132.81 385.68 138.22 391.08 139.54" style="fill:#fff"></polygon><polygon points="105.17 262.45 99.75 263.45 98.53 269.17 97.32 263.45 91.89 262.45 97.3 261.13 98.53 255.72 99.77 261.13 105.17 262.45" style="fill:#fff"></polygon></g></g><g id="freepik--Plant--inject-706"><path d="M110.07,313.61a100.39,100.39,0,0,0-2.32-16.28c-1.15-4.83-2.78-9.76-5.82-13.75-2.78-3.64-6.77-6.54-11.41-7.1-4.46-.55-8.66,1.44-12,4.26-4.14,3.48-7.31,8.1-10.29,12.58a154.1,154.1,0,0,0-8.89,15.55c-.09.18.18.33.27.15a96.81,96.81,0,0,1,8-13,82.23,82.23,0,0,1,9.15-11.08c3.07-3,7-5.79,11.41-5.93s8.5,2.34,11.16,5.75c3,3.81,4.49,8.57,5.63,13.2a100.22,100.22,0,0,1,2.29,15.51c.87,10.73,1.11,21.53,1.35,32.29.14,6.09.22,12.18.28,18.27,0,3.08,0,6.17.07,9.25a56.59,56.59,0,0,0,.36,8.93c.1.6,1.08.54,1.18,0a53.06,53.06,0,0,0,.41-8.46c0-2.92.08-5.85.1-8.77q.08-8.54.07-17.06C111,336.46,110.85,325,110.07,313.61Z" style="fill:#a6a6a6"></path><path d="M75.05,285.45c-1,.39.35-11.05-4.16-12.51-6.37-2.07-21,1.67-29.07,12.51a24.26,24.26,0,0,0-3.52,7.29c4-1.95,17.31-8.1,20.64-6.22,3,1.72-16,7.7-21.87,11.54a45.56,45.56,0,0,0-.53,4.79c3.43-2.36,12.77-8.48,16.94-8.48,4.64,0-10.74,8.14-17,14a48.86,48.86,0,0,0,3.6,16.49c1.59-3,5.1-8.88,9.64-12,6.28-4.39,9,2.67,1.11,8.27-4.22,3-7.26,5.44-9.19,7.1a32.45,32.45,0,0,0,7,9.11A25.76,25.76,0,0,1,59,330.21c1.54-.54,4-1.23,7.07-2.25a66.5,66.5,0,0,0,2.14-11.72c.17-4.65,5.68-2.07,3.45,6.19-.43,1.56-.81,2.84-1.17,3.91a32,32,0,0,0,6.73-3.3c.3-2.71-.15-8.94-1.26-14.81-1.38-7.32,4.2-7.84,5.41,1.38.56,4.25-.25,8.66-.52,11.53C87.19,317.47,92.41,310,92.41,310a27.81,27.81,0,0,0-4.36-11.54c-3.1-4.67.26-6.51,3.36-2.29,1.73,2.35,2.76,6.31,3.32,9.34C101.39,283.31,93.16,278.16,75.05,285.45ZM44.84,309.78c-1.72-2.5,4.22-7.06,5.51-5.51C52,306.26,46.56,312.27,44.84,309.78Zm39.72-10.24c-2.42,1.75-4.72-4-3.16-5S86.61,298.05,84.56,299.54Z" style="fill:#FFA52E"></path><path d="M79,296.29c-.82-1.62-1.67-3.22-2.61-4.78a27.43,27.43,0,0,0-3-4.34c.26-.31.51-.64.78-.95.1-.13-.08-.31-.19-.18-.31.35-.59.7-.89,1a.26.26,0,0,0-.12.15q-1.68,2-3.18,4.13a48,48,0,0,0-5.26,1.53c-1.78.59-3.54,1.21-5.27,1.94-.18.07-.09.37.09.29,1.71-.76,3.45-1.49,5.22-2.09s3.38-1,5.08-1.48c-.55.78-1.09,1.57-1.61,2.36a62.58,62.58,0,0,0-9.3,3.8c-3.15,1.49-6.17,3.23-9.18,5-.17.1,0,.36.16.26a101.09,101.09,0,0,1,9.13-4.73c2.91-1.36,5.93-2.48,8.86-3.78C60.36,306,55.92,319.3,50,331.63c-.08.18.2.32.27.14,1.81-4.32,3.9-8.53,5.87-12.79,1.77-3.81,3.5-7.65,5.27-11.47.52-1.12,1.05-2.23,1.59-3.35-.32,6.17-.19,12.44-1.2,18.53a.15.15,0,1,0,.3,0c.43-6.58,1.59-13.07,1.54-19.69a.24.24,0,0,0,0-.09c1.25-2.51,2.59-5,4-7.42,2.45,5.77,5,11.63,6.17,17.82,0,.19.35.11.29-.09-1.66-6.21-3.21-12.42-6.2-18.16a70.75,70.75,0,0,1,5.21-7.51c.82,1.53,1.88,3,2.81,4.45s1.81,2.87,2.65,4.35a62.32,62.32,0,0,1,4.63,9.77c.07.19.37.09.29-.09C82.07,302.78,80.64,299.48,79,296.29Z" style="fill:#263238"></path><path d="M137.32,310.32c-4.75-4.76-10.26-11-17.6-11-7.07,0-12.28,5.71-15.28,11.59-3.13,6.14-4.25,13.11-5.13,19.88a240.81,240.81,0,0,0-1.88,24.45c-.13,4.53-.11,9.08,0,13.62a89.05,89.05,0,0,0,1,13.74c.13.73,1.31.76,1.35,0,.22-3.82.06-7.66,0-11.49s0-7.53.18-11.3c.28-7.61.83-15.22,1.73-22.79.78-6.61,1.4-13.4,3.37-19.79,1.79-5.76,5.13-12.35,11-14.88,8-3.45,15.76,2.86,21,8.18C137.22,310.65,137.46,310.46,137.32,310.32Z" style="fill:#a6a6a6"></path><path d="M151.76,317.76c-6.37-.65-4.61-4.11,1.18-2.59a26.18,26.18,0,0,1,8.63,4.15A37.51,37.51,0,0,0,159,304.25c-5.32-1.33-10.15,1-15.11,3.33s-8.27-3.7-2.44-6.6a18.45,18.45,0,0,1,15.74-.28c-.46-.8-.92-1.54-1.42-2.24a27,27,0,0,0-4.85-5.37c-4.34.35-6.75,3-8,3.88-1.83,1.2-4.7-.22-2.88-2.81,1.43-2,5-3,7.91-3.21-5.23-3.08-10.45-3.09-13.4-1.75-5.13,2.33-3.69,15.85-3.69,15.85s-13.45-7.2-17.85-1.54a16.69,16.69,0,0,0-2.8,6.62c4.76-1.76,10.61-2.18,11.16.67.58,3-7.47,2.12-11.65,2.61-.5,6,.9,13.06,5.71,18,4.08-7.85,13.16-13.81,14.45-9.49s-8.46,5.43-12.45,11.3a25.82,25.82,0,0,0,5.6,3.11c2.17-3.26,5.81-7.76,7.56-6.39s-2.83,4.55-5.79,7.11a84.53,84.53,0,0,0,12.94,3.56c1.08-4.53,3.15-8.76,5.15-8.37s-1.88,5.13-3.55,8.7a132.14,132.14,0,0,0,17.8,2.25c.36-.1,2.81-7.25,3.91-16.14a25.47,25.47,0,0,0-9.24-1.85c-4.5-.22-4.93-5.34,1.8-4.62a17.11,17.11,0,0,1,7.78,3.22c.06-.94.12-1.9.16-2.88h0A25.53,25.53,0,0,0,151.76,317.76Zm-1.68-7c.69-1.53,4.8-1,4.4.89S149.51,312.06,150.08,310.76Zm-33.65,12.7c-.25-1.27,2.5-2.44,2.89-1.41S116.77,325.17,116.43,323.46ZM135.78,334c-2.19-1.14.94-6.13,2.95-5.33C140.37,329.29,138,335.1,135.78,334Z" style="fill:#FFA52E"></path><path d="M156.33,342.2c-3-5.05-6-10.13-9.18-15.08-1.47-2.31-3-4.57-4.63-6.79l.72-.17c.4-.09.8-.17,1.21-.24.92-.16,1.86-.29,2.79-.39s1.77-.13,2.66-.14a12.2,12.2,0,0,1,2.83.15c.11,0,.13-.16,0-.15-.94,0-1.9-.09-2.85-.1s-1.84,0-2.75.06-1.72.14-2.57.27c-.47.07-.94.15-1.41.25a8.52,8.52,0,0,0-.85.17c-1.63-2.24-3.33-4.45-5.09-6.61a60.69,60.69,0,0,1,16.54-5.27c.09,0,.06-.17,0-.15A56.14,56.14,0,0,0,137,313.09L134,309.55c-1.09-1.31-2.26-2.59-3.25-4a.08.08,0,1,0-.12.09,58,58,0,0,1,3.83,4.69h0a58.32,58.32,0,0,0-6.15,4.94q-3,2.67-5.88,5.51c-.06.07,0,.18.11.11,1.88-1.87,3.84-3.66,5.88-5.35s4.19-3.26,6.24-4.94c0,0,0,0,0,0l1.41,1.85.71.93a.18.18,0,0,0,.05.07c.79,1,1.57,2,2.35,3.07a24.8,24.8,0,0,0-2.34,4.22c-.67,1.42-1.26,2.89-1.81,4.37a64.64,64.64,0,0,0-2.51,9.46c0,.1.12.15.14.05a56.8,56.8,0,0,1,2.75-9.28c.59-1.54,1.26-3.05,1.95-4.55s1.38-2.68,2-4.06c.68.9,1.35,1.81,2,2.72.19.26.37.53.56.8,0,.06,0,.14.07.14h0c2.08,2.89,4.05,5.86,6,8.86a2.39,2.39,0,0,0-.26.66c-.13.36-.24.73-.35,1.1-.21.74-.39,1.49-.53,2.24s-.23,1.43-.3,2.15a18,18,0,0,1-.18,2.45c0,.12.17.13.15,0a8,8,0,0,1,.17-2.28c.11-.78.25-1.55.43-2.32s.35-1.39.56-2.07q.15-.51.33-1c.06-.18.15-.36.21-.56q1.35,2.12,2.67,4.25l5.19,8.49C156.19,342.47,156.42,342.34,156.33,342.2Z" style="fill:#263238"></path><path d="M109.75,381c-.08-2.87-.53-5.75-.84-8.59s-.63-5.72-.94-8.58c-.58-5.51-.91-11.14-2.21-16.55A24,24,0,0,0,99,334.89a10.94,10.94,0,0,0-6.6-3.15,11.38,11.38,0,0,0-7,2.16,24.55,24.55,0,0,0-5.9,6.21,59.61,59.61,0,0,0-4.59,7.47c-.06.09.1.16.15.06A38.14,38.14,0,0,1,85,336.5a11.72,11.72,0,0,1,6.27-2.61,8.46,8.46,0,0,1,6.07,2.42c3.34,2.9,5.27,7.17,6.42,11.36,1.37,5,1.81,10.19,2.49,15.29.4,3,.79,6.05,1.19,9.08s.65,6.1,1.29,9.07A.5.5,0,0,0,109.75,381Z" style="fill:#a6a6a6"></path><path d="M92,338c-6.58-.13-13.54,4.77-13.54,4.77s3.69-12.8-6.59-12.38c-6.11.24-13.74,6.65-15.27,16.65,2.35-1.25,7.32-3.66,11.25-3.73,5.33-.1,5.69,4.07-1.66,4.71a45.16,45.16,0,0,0-9.84,1.63,27.32,27.32,0,0,0,1.23,9.23c4.1-2.49,11.1-5.13,11.31-1.7.15,2.55-7.08,2.76-10.65,3.65a43.1,43.1,0,0,0,6.14,10.92,99,99,0,0,0,14.81-3.34,28.5,28.5,0,0,0-.46-5.36c-.87-4.56,2.49-4.65,2.92-.26a15.8,15.8,0,0,1-.31,4.89,44.27,44.27,0,0,0,9.51-4.48,29.21,29.21,0,0,0-2.11-10.11c-1.31-3.57,1.29-5.62,3.47-1.51,1.41,2.64.84,7.6.37,10.39a15.87,15.87,0,0,0,3.12-3.18C102.71,349,98.53,338.1,92,338Zm-28.36,2.36c.24-1.85,4.83-1.5,4.6-.06S63.34,342.39,63.62,340.32Zm-5.12,15c.45-1.19,2.43-1,2.34-.08S58.2,356.12,58.5,355.35Zm27.26,6.44c-2.67.11-1.79-5.43-.24-5.65C86.84,356,87.79,361.71,85.76,361.79Z" style="fill:#FFA52E"></path><path d="M83.38,362.3c-.26-.69-.49-1.39-.7-2.1.2.71.37,1.43.51,2.15C83.21,362.49,83.43,362.43,83.38,362.3Z" style="fill:#263238"></path><path d="M80.66,353.39c-.48-1.42-1-2.82-1.57-4.22-.3-.74-.6-1.48-.93-2.21a8.91,8.91,0,0,0-.91-1.86,13.78,13.78,0,0,0,.83-1.79.06.06,0,0,0-.1-.06,22,22,0,0,0-2,3.11l-.84,1.47a12.94,12.94,0,0,0-1.73.27c-.61.11-1.23.23-1.84.37l-1.83.43c-.6.14-1.21.34-1.82.44a.1.1,0,1,0,0,.19,11.53,11.53,0,0,1,1.92-.5c.59-.13,1.18-.23,1.78-.32s1.2-.16,1.8-.22l1.36-.11c-.25.43-.5.86-.74,1.29l-.11.21a6.23,6.23,0,0,0-1.48.17c-.53.1-1.06.2-1.58.32-1.08.23-2.14.49-3.2.78-2.23.62-4.42,1.33-6.62,2.05-.12,0,0,.23.08.19a63.4,63.4,0,0,1,6.64-1.85c1.06-.23,2.11-.48,3.16-.7l1.59-.33c.4-.09.83-.14,1.23-.27-1.14,2.09-2.2,4.21-3.18,6.38-2.13,4.71-3.93,9.57-5.76,14.41,0,.12.15.2.19.08A131.2,131.2,0,0,1,71.17,357c.41-.84.84-1.67,1.25-2.51,0,.17.08.34.11.51.1.58.21,1.15.3,1.72.2,1.15.39,2.29.56,3.45a40,40,0,0,1,.83,7.14c0,.15.22.14.2,0a33.73,33.73,0,0,1-.26-3.48c-.07-1.2-.16-2.41-.3-3.6s-.28-2.31-.47-3.46l-.3-1.72a3.51,3.51,0,0,0-.33-1.24c.61-1.21,1.2-2.42,1.81-3.62s1.15-2.26,1.74-3.38c.25-.48.52-.95.78-1.44a13,13,0,0,0,.68,1.73c.26.65.53,1.3.8,1.95.58,1.43,1.13,2.88,1.68,4.33.78,2.06,1.64,4.16,2.28,6.3C81.9,357.6,81.37,355.46,80.66,353.39Z" style="fill:#263238"></path><path d="M82.68,360.2l-.15-.5Z" style="fill:#263238"></path><polygon points="126.94 375.41 126.22 390.71 124.36 430.16 83.66 430.16 81.8 390.71 81.08 375.41 126.94 375.41" style="fill:#455a64"></polygon><polygon points="126.94 375.41 126.22 390.71 81.8 390.71 81.08 375.41 126.94 375.41" style="fill:#263238"></polygon><rect x="78.19" y="369.22" width="51.65" height="12.37" style="fill:#455a64"></rect><rect x="86.96" y="430.16" width="7.14" height="6.48" style="fill:#455a64"></rect><rect x="86.96" y="430.16" width="7.14" height="3.24" style="fill:#263238"></rect><rect x="113.93" y="430.16" width="7.14" height="6.48" style="fill:#455a64"></rect><rect x="113.93" y="430.16" width="7.14" height="3.24" style="fill:#263238"></rect></g><g id="freepik--Lamp--inject-706"><polygon points="428.76 421.65 460.59 287.35 422.68 231.18 416.88 235.09 453.07 288.72 421.95 420.03 428.76 421.65" style="fill:#dbdbdb"></polygon><path d="M462.91,288a6.09,6.09,0,1,1-6.08-6.08A6.09,6.09,0,0,1,462.91,288Z" style="fill:#FFA52E"></path><polygon points="380.44 217.53 409.03 249.45 422.23 233.15 430.27 223.21 408.83 199.3 398.07 206.21 380.44 217.53" style="fill:#FFA52E"></polygon><polygon points="380.44 217.53 409.03 249.45 422.23 233.15 398.07 206.21 380.44 217.53" style="opacity:0.1"></polygon><polygon points="338.98 233.28 388.85 288.93 421.96 246.69 384.59 204.98 338.98 233.28" style="fill:#FFA52E"></polygon><polygon points="388.97 436.64 462.75 436.64 458.22 413.46 393.5 413.46 388.97 436.64" style="fill:#FFA52E"></polygon></g><g id="freepik--Mug--inject-706"><rect x="341.08" y="432.37" width="27.32" height="4.26" style="fill:#455a64"></rect><rect x="341.08" y="432.37" width="27.32" height="2.81" style="fill:#263238"></rect><path d="M308.65,420.91A15.48,15.48,0,0,0,324,427.49a15.1,15.1,0,0,0,2.77-.8,19.18,19.18,0,0,0,3.86-2l-3.47-5.14a12,12,0,0,1-2.05,1.16c-6.5,2.95-10.62-2.18-11.43-3.35-3.75-5.26-5.09-17.28-1.3-21.91.26-.34,1.35-.88,5.75.05.81.19,1.74.39,2.78.68a11.29,11.29,0,0,0,2.49.54l.12-3.09.3-3.09c-.29-.05-.73-.17-1.31-.34a40.48,40.48,0,0,0-6.21-1.29c-3.24-.33-6.63.05-8.71,2.61C301.46,399,304,414.31,308.65,420.91Z" style="fill:#455a64"></path><path d="M327.2,419.52a12,12,0,0,1-2.05,1.16l1.66,6a19.18,19.18,0,0,0,3.86-2Z" style="opacity:0.1"></path><path d="M316.34,388.88l1.83,6.59c.81.19,1.74.39,2.78.68a11.29,11.29,0,0,0,2.49.54l.12-3.09.3-3.09c-.29-.05-.73-.17-1.31-.34A40.48,40.48,0,0,0,316.34,388.88Z" style="fill:#263238"></path><path d="M391.08,380.83s-3.27,27.84-8.93,39.57-13.57,13-18.48,13H345.81c-4.91,0-12.81-1.31-18.47-13s-8.94-39.57-8.94-39.57Z" style="fill:#455a64"></path><path d="M387.56,402.24c-.26,1.19-.51,2.36-.77,3.54H322.7l-.78-3.54Z" style="fill:#37474f"></path><path d="M385.91,409.33c-.68,2.63-1.42,5.15-2.24,7.38H325.81c-.81-2.23-1.55-4.75-2.24-7.38Z" style="fill:#37474f"></path></g></svg>