<svg xmlns="http://www.w3.org/2000/svg" viewBox="0 0 500 500"><g id="freepik--background-complete--inject-483"><path d="M454.92,125.56H359.34s9.48-25.89,24.06-25.89,19.16,17.87,19.16,17.87,9.84-9.71,17.92-9.71,15.11,12.83,15.11,12.83S447,113.76,454.92,125.56Z" style="fill:#ebebeb"></path><path d="M358.45,145.19H313.79s10-14.46,17.84-14.46,10.19,9.64,10.19,9.64,5.54-4.5,10.69-3.7S358.45,145.19,358.45,145.19Z" style="fill:#ebebeb"></path><path d="M132.08,156.88h-87S57,130.28,69.74,128.62s18.84,19.76,18.84,19.76,8.22-7.57,14.69-7.57,11.45,10,11.45,10S127.65,144,132.08,156.88Z" style="fill:#ebebeb"></path><path d="M167.12,110.18H108.35s10.1-19.27,21.05-19.55,16.71,14.58,16.71,14.58S163.14,91.54,167.12,110.18Z" style="fill:#ebebeb"></path><path d="M213,179.14H173.34s6.81-13,14.2-13.2,11.28,9.84,11.28,9.84S210.32,166.56,213,179.14Z" style="fill:#ebebeb"></path><path d="M339.73,242.49S273.17,232,232,217.81c-34.16-11.82-74.5-30.16-89.82-30.16-33.41,0-93.93,54.84-93.93,54.84H268.73" style="fill:#dbdbdb"></path><path d="M188.92,242.49s138.54-41,156.47-41c24.17,0,106.34,41,106.34,41Z" style="fill:#ebebeb"></path><polygon points="92.71 45.45 91.5 47.89 88.81 48.28 90.76 50.18 90.3 52.86 92.71 51.59 95.11 52.86 94.65 50.18 96.6 48.28 93.91 47.89 92.71 45.45" style="fill:#ebebeb"></polygon><polygon points="294.39 174.26 293.19 176.7 290.5 177.09 292.45 178.99 291.99 181.67 294.39 180.4 296.8 181.67 296.34 178.99 298.29 177.09 295.6 176.7 294.39 174.26" style="fill:#ebebeb"></polygon><polygon points="411.76 140.05 410.56 142.49 407.87 142.88 409.81 144.78 409.36 147.46 411.76 146.2 414.17 147.46 413.71 144.78 415.66 142.88 412.96 142.49 411.76 140.05" style="fill:#ebebeb"></polygon><polygon points="88.33 118.77 87.59 120.28 85.92 120.52 87.13 121.69 86.84 123.35 88.33 122.57 89.82 123.35 89.54 121.69 90.74 120.52 89.08 120.28 88.33 118.77" style="fill:#ebebeb"></polygon><polygon points="301.79 132.1 301.04 133.61 299.38 133.85 300.58 135.02 300.3 136.68 301.79 135.9 303.27 136.68 302.99 135.02 304.19 133.85 302.53 133.61 301.79 132.1" style="fill:#ebebeb"></polygon><polygon points="275.27 117.68 274.81 118.61 273.79 118.76 274.53 119.48 274.36 120.51 275.27 120.02 276.19 120.51 276.02 119.48 276.76 118.76 275.74 118.61 275.27 117.68" style="fill:#ebebeb"></polygon><polygon points="56.28 185.43 55.82 186.36 54.79 186.51 55.53 187.23 55.36 188.25 56.28 187.77 57.2 188.25 57.02 187.23 57.76 186.51 56.73 186.36 56.28 185.43" style="fill:#ebebeb"></polygon><polygon points="423.25 185.43 422.79 186.36 421.76 186.51 422.51 187.23 422.33 188.25 423.25 187.77 424.17 188.25 424 187.23 424.74 186.51 423.71 186.36 423.25 185.43" style="fill:#ebebeb"></polygon><polygon points="356.38 51.25 355.63 52.75 353.97 53 355.18 54.17 354.89 55.83 356.38 55.04 357.87 55.83 357.58 54.17 358.79 53 357.12 52.75 356.38 51.25" style="fill:#ebebeb"></polygon><polygon points="442.81 88.45 442.06 89.95 440.4 90.19 441.6 91.37 441.32 93.03 442.81 92.24 444.29 93.03 444.01 91.37 445.21 90.19 443.55 89.95 442.81 88.45" style="fill:#ebebeb"></polygon><polygon points="170.89 157.69 170.15 159.2 168.48 159.44 169.69 160.62 169.4 162.27 170.89 161.49 172.38 162.27 172.09 160.62 173.3 159.44 171.63 159.2 170.89 157.69" style="fill:#ebebeb"></polygon></g><g id="freepik--Floor--inject-483"><polygon points="48.27 241.88 98.7 241.64 149.13 241.55 250 241.38 350.87 241.55 401.3 241.64 451.73 241.88 401.3 242.13 350.87 242.21 250 242.38 149.13 242.21 98.7 242.13 48.27 241.88" style="fill:#263238"></polygon></g><g id="freepik--Forest--inject-483"><path d="M448.15,240.46a19.55,19.55,0,0,1-2.07-1.11,10.31,10.31,0,0,1,0,2.85H416.19a11.13,11.13,0,0,1,.06-3.25c-.3.13-1.82.41-2.14.51s3-6.73,3.89-11.11c0,0,0,0,0-.07a3.83,3.83,0,0,1-2,1.34c-.55.13,4.73-15,4.74-15-.66.55-3.21,1.35-2.9,1,1.88-1.89,4.79-11.25,5.31-13.61a11.9,11.9,0,0,1-1.51.88c-.59.29,2.21-5.36,3.19-8.07.26-.73.5-1.48.72-2.24,2.4-10.1,4.58-17.68,5.6-17.68.58,0,1.55,2.52,2.73,6.59.92,2.26,1.42,4.69,2.23,7,1.19,3.39,5.08,10.19,4.6,10.06a8.14,8.14,0,0,1-2.6-1.24,57.9,57.9,0,0,0,3.95,12.17c.93,2,4.51,7.57,4.46,8,0,.16-2.89.29-3.69-.33.52,2.12,1,4.27,1.63,6.37.1.31.21.62.33.94.91,2.55,3.74,8.68,3.31,8.62a7.34,7.34,0,0,1-3.2-1.51,1,1,0,0,0,0,.16,34.39,34.39,0,0,0,1.16,3.56C446.72,236.85,448.51,240.73,448.15,240.46Z" style="fill:#37474f"></path><path d="M436.87,198c0-.12-.2-.07-.18,0a6,6,0,0,1,.14,1.11c0,.26.1.34-.15.26-.42-.13-.88-1-1.09-1.32a.09.09,0,0,0-.17,0c-.08,1,.39,2.25.23,3.29a19.48,19.48,0,0,1-2.19-3.42s-.07,0,0,0a15.36,15.36,0,0,0,2.18,4c.12.16.36,0,.37-.15,0-.64-.09-1.3-.15-1.94,0-.49-.06-1-.14-1.47a6.73,6.73,0,0,0,1.22,1.28.07.07,0,0,0,.11,0A4.58,4.58,0,0,0,436.87,198Z" style="fill:#263238"></path><path d="M426,215.62a4,4,0,0,1-.38,1,4.4,4.4,0,0,0-.53-1.31s-.07,0-.1,0c-.55.53-1.39,1.72-2.19,2a18.07,18.07,0,0,0,1.13-3.87s0,0,0,0c-.26,1.45-1.21,2.69-1.58,4.12a.2.2,0,0,0,.2.25,3,3,0,0,0,1.78-1.25,8.9,8.9,0,0,0,.67-1c.21.07.34,1.31.38,1.51a.2.2,0,0,0,.33.09,2.56,2.56,0,0,0,.63-1.5A.16.16,0,0,0,426,215.62Z" style="fill:#263238"></path><path d="M442.83,231a5.83,5.83,0,0,0-.6-1.73.13.13,0,0,0-.25.07c0,.41.95,2.48.63,2.67-.08,0-.92-.89-1-1a12.54,12.54,0,0,1-1.19-1.53c-.08-.11-.33-.09-.3.08a5.41,5.41,0,0,1,.11,1.13c-.05.39,0,.56-.42-.05a7.31,7.31,0,0,1-1-1.95s-.07,0-.06,0a5.65,5.65,0,0,0,.62,1.87c.14.26.46.91.83.91s.45-.7.35-1.28a12.69,12.69,0,0,0,1.22,1.42c.26.26.71.9,1.13.82a.15.15,0,0,0,.11-.11A2.78,2.78,0,0,0,442.83,231Z" style="fill:#263238"></path><path d="M429.29,236.17c-.33.83-.63-.06-.84-.46a.16.16,0,0,0-.3,0c-.14.54-.27,1.09-.44,1.63a6.05,6.05,0,0,1-.46,1.21c-.14.24-.13.48-.26.18a6,6,0,0,1,0-1.69,7.3,7.3,0,0,0-.2-1.54c0-.14-.27-.18-.33,0a3.35,3.35,0,0,1-.55.9c-.25.27-.49.71-.61.27a3.34,3.34,0,0,1,.1-1c0-.39,0-.77,0-1.15a.05.05,0,0,0-.1,0,8.58,8.58,0,0,0-.53,2.32c0,.22,0,.42.23.53.59.28,1.17-.51,1.5-1.16a8.11,8.11,0,0,1,.08,1.21,8.59,8.59,0,0,0,0,1.52c0,.27.11.56.46.51s.57-.7.69-1a10,10,0,0,0,.63-2.06c.14.33.31.65.66.69a.18.18,0,0,0,.15-.08,1.81,1.81,0,0,0,.24-.82C429.44,236.1,429.32,236.1,429.29,236.17Z" style="fill:#263238"></path><path d="M429.14,192.25a2.34,2.34,0,0,0-.09.24c-.09-.24-.24-.83-.3-.94a.05.05,0,0,0-.08,0,2,2,0,0,0-.43.64c-.1.2-.69,1.16-.76.59,0-.14.13-.38.17-.52a4.68,4.68,0,0,0,.17-1.58.08.08,0,1,0-.15,0,16.06,16.06,0,0,1-.38,2.05c-.05.18-.13.45.11.52s.67-.35.83-.52a1.83,1.83,0,0,0,.47-.79,3.25,3.25,0,0,0,.17.63c0,.12.05.2.18.23a.1.1,0,0,0,.12-.07c0-.14.08-.27.11-.41S429.17,192.17,429.14,192.25Z" style="fill:#263238"></path><path d="M146.18,240.18a13,13,0,0,1-1.65-1.21c.42,3.1.56,5.25.29,6.12a1.55,1.55,0,0,1-.65.79H107.42a1.55,1.55,0,0,1-.65-.79,4.17,4.17,0,0,1-.13-1c0-.11,0-.23,0-.35a38.72,38.72,0,0,1,.45-5c-.07.1-2.1.73-2.1.73.93-2.53,4.55-16.33,4.57-16.48.53-2.62.92-5.26,1.28-7.91-.65.93-2.91,2.83-3.09,2.47,0-.08,1.55-3.93,2.28-5.62,1-2.39,2-4.81,2.93-7.25l-.38.42c-.49.52,2.76-9.71,4-14.4l.54-2.39a3.82,3.82,0,0,1-2.45,1c-.48-.05,3.38-7.85,4.7-11.63.93-2.68,1.56-5.46,2.39-8.18,1.74-6.27,3.18-10.27,4-10.27,1.08,0,2.93,6.72,5.6,16.28,2.09,7.47,5.46,13.28,4.82,13.23a5,5,0,0,1-1.41-.34l.26.62a74.33,74.33,0,0,1,3.5,8.71c.2.69-1.85-1-2-1.15.21.65.43,1.29.68,1.92,1.23,3.24,4.1,10.07,4.1,10.07a15.83,15.83,0,0,1-2.67-1.17c1.13,4.54,5.27,15.69,5.22,15.63-.37-.37-2-1.32-2.3-1.72.24.57.5,1.13.76,1.68,1,2,2.91,7.2,2.39,6.7s-1.27-1.28-1.87-2c.38,1.35.78,2.68,1.23,4C144.57,233.21,146.61,240.44,146.18,240.18Z" style="fill:#37474f"></path><path d="M122.72,188.51a2.93,2.93,0,0,0,0,.29s0-.08-.07-.13-.27-.09-.3,0c-.12.49-.24,1-.37,1.48-.21-.58-.5-1.14-.74-1.71,0-.09-.16,0-.18,0a12.42,12.42,0,0,1-.76,1.5c-.11.21-.55,1.23-.8,1.28s-.12-.94-.1-1.09c.07-.59.13-1.18.2-1.78,0,0,0,0,0,0-.14.44-1.35,3.63-.27,3.49.44-.05.79-.72,1-1.05a7.65,7.65,0,0,0,.88-2,13.07,13.07,0,0,0,.7,1.93.15.15,0,0,0,.28,0c.12-.5.26-1,.4-1.51a.94.94,0,0,0,.12.22.22.22,0,0,0,.4-.11c0-.27,0-.55,0-.82S122.75,188.31,122.72,188.51Z" style="fill:#263238"></path><path d="M133.83,200.2c0-.19-.34-.29-.37,0a3.55,3.55,0,0,0-.05.57,3.41,3.41,0,0,1,0,.78c-.21.27-.93-.36-1.12-.52s-.29,0-.28.12a7.18,7.18,0,0,0,.19,1,2.37,2.37,0,0,1,.15.69c0,.32-.13.13-.38-.09a19.08,19.08,0,0,1-1.68-1.92c-.06-.07-.15,0-.12.09.41.83,1.23,2.65,2.37,2.68a.26.26,0,0,0,.23-.12,2.13,2.13,0,0,0-.21-1.77c.33.27.73.52,1,.41s.19-.14.23-.31A5.3,5.3,0,0,0,133.83,200.2Z" style="fill:#263238"></path><path d="M122.75,210.82c-.06.14-.09.37-.17.52-.1-.08-.17-.21-.26-.28a1,1,0,0,0-.27-.18.1.1,0,0,0-.16.07,6.46,6.46,0,0,1-.27.6l-.08.18-.05.13,0,0a1.16,1.16,0,0,0,0-.16c0-.1-.06-.19-.1-.29s-.14-.43-.21-.65h0c0-.11-.15-.19-.23-.1-.29.34-.57.68-.86,1a5.32,5.32,0,0,1-.47.48c-.21.19-.41.51-.59.14a6.71,6.71,0,0,1,.19-1.44c0-.56-.06-1.11-.09-1.66a0,0,0,1,0-.07,0c-.06,1-.41,2-.57,3-.06.38-.06.86.41,1s.91-.36,1.2-.64a4.13,4.13,0,0,0,.92-1.25c0,.48.07,1.12.47,1.17s.55-.78.62-1.23c.17.2.24.51.57.52a.16.16,0,0,0,.15-.12,3.78,3.78,0,0,0,.11-.74C122.89,210.79,122.78,210.76,122.75,210.82Z" style="fill:#263238"></path><path d="M133,220.6a8.67,8.67,0,0,1-.32,1.2c-.17,0-.72-.68-.82-.81s-.45,0-.45.19c0,.4,0,.8,0,1.2,0,.14.07.56-.17.57-.09,0-.37-.49-.42-.56a7.21,7.21,0,0,1-1-2.21c0-.15-.25-.09-.22.06a6.55,6.55,0,0,0,.6,1.88,3.19,3.19,0,0,0,.92,1.32c.69.37.82-.71.84-1.51.24.25.51.45.79.38.53-.13.5-1.22.5-1.59S133.06,220.3,133,220.6Z" style="fill:#263238"></path><path d="M116.39,237.39l-.14.25c-.11-.35-.23-.68-.37-1-.06-.14-.27-.11-.34,0a3.79,3.79,0,0,1-1,1.25c-.26.15-.48.31-.54-.1a3,3,0,0,1,.21-.74,10.88,10.88,0,0,0,.43-2.77c0-.06-.1-.08-.11,0a20.21,20.21,0,0,1-.72,2.67c-.14.42-.59,1.25-.23,1.68.57.68,1.54-.66,2-1.4a9.55,9.55,0,0,0,.34,1,.22.22,0,0,0,.39.05,1.46,1.46,0,0,0,.3-.85C116.68,237.25,116.45,237.25,116.39,237.39Z" style="fill:#263238"></path><path d="M141.69,236.65a26.37,26.37,0,0,1-1.28-3.06c0-.06-.1,0-.09,0a22.38,22.38,0,0,0,.58,2.55c.2.68.58,1.37.75,2.07a3.53,3.53,0,0,1-2-.67c-.37-.28-.6-.16-.27.18A4.61,4.61,0,0,0,142,239c.2,0,.47-.09.44-.33A6,6,0,0,0,141.69,236.65Z" style="fill:#263238"></path><path d="M130.34,178.05c-.37-1.06-1-2.06-1.28-3.13,0,0-.09,0-.08,0a10.31,10.31,0,0,0,.81,2.83,4.35,4.35,0,0,1-1-.7c-.24-.2-.38-.06-.2.2a2.29,2.29,0,0,0,1.52,1C130.24,178.31,130.4,178.2,130.34,178.05Z" style="fill:#263238"></path><path d="M409.34,241.35c-.22.23-1.66,0-2-.17a13.16,13.16,0,0,1,.06,4.14,1.25,1.25,0,0,1-.38.56H370.59a1.31,1.31,0,0,1-.37-.56,11.34,11.34,0,0,1,0-3.64,6.88,6.88,0,0,1-2.27,1.44c-.49-.28,2.31-5.37,3.72-10.93a1.48,1.48,0,0,1,0-.19c-.72.8-3.64,1.21-3.47.62,1-3.64,2.86-7,4-10.64.65-2,1.12-4.11,1.62-6.19,0-.12,0-.23.08-.35.11-.46.23-.92.34-1.38-.32.25-3.21,1.41-4.28,1-.21-.09,4.07-8.07,5.23-10.5.31-.65.61-1.32.89-2a77.85,77.85,0,0,0,4-13.16,9.87,9.87,0,0,1-3.23,1.54c-.59.17,4.24-8.29,5.72-12.51,1-2.87,1.62-5.87,2.77-8.68,1.46-5.06,2.67-8.2,3.4-8.2,1.26,0,4,9.43,7,22,.28.94.56,1.88.9,2.79,1.21,3.36,4.68,10.39,4,10a14.2,14.2,0,0,1-1.65-1,1.82,1.82,0,0,0-.23-.15l.09.35c.64,2.83,1,6.16,2.21,8.77.2.43,4.07,8.48,3.48,8.23a10.35,10.35,0,0,1-2.78-1.71c0,.07,3.65,12.12,6.82,17.51.37.63-2.73.35-3.43-.47l0,.08C406.34,234.61,409.45,241.23,409.34,241.35Z" style="fill:#455a64"></path><path d="M398.91,195.21a12.28,12.28,0,0,1-1.51-2.27c-.11-.22-.51-.06-.42.18a16.61,16.61,0,0,1,.67,1.95,7.23,7.23,0,0,1,.4,1.94,30.81,30.81,0,0,1-3.73-4.85c-.17-.23-.58-.1-.49.21a11.59,11.59,0,0,1,.49,2.92,5.86,5.86,0,0,1-2-2.52c0-.06-.13,0-.11,0a4.47,4.47,0,0,0,2.21,3.11.25.25,0,0,0,.38-.21,12.15,12.15,0,0,0-.18-2.1,18.63,18.63,0,0,0,3.33,4.15.29.29,0,0,0,.48-.12,4,4,0,0,0-.22-2.56c.12.15.22.3.34.44S399.09,195.43,398.91,195.21Z" style="fill:#263238"></path><path d="M384.29,210.19c-.45,1-.47,2.2-1.11,3.09a15.09,15.09,0,0,1-.43-2.21.24.24,0,0,0-.47,0,6,6,0,0,1-.81,2.08,3.67,3.67,0,0,1-.82.95c-.24.29-.32.3-.26,0s0-.4,0-.6a14.77,14.77,0,0,0,.21-4.35s0,0-.07,0-.15-.07-.2,0a12.27,12.27,0,0,1-1.78,2.72c-.14.15.08.37.22.22a7,7,0,0,0,1.72-2.63,25.62,25.62,0,0,1-.63,4c-.07.44-.3,1.24.24,1.45s1.32-.79,1.59-1.16a5.36,5.36,0,0,0,.72-1.33,5,5,0,0,0,.4,1.55.28.28,0,0,0,.44.05c1-1,.94-2.4,1.31-3.68C384.66,210.14,384.37,210,384.29,210.19Z" style="fill:#263238"></path><path d="M396.06,220.86a2.56,2.56,0,0,1-.94-1.16l-.8-1.34a.24.24,0,0,0-.45.12c-.09.69-.22,1.37-.35,2.05a4.42,4.42,0,0,1-.6-1,5.46,5.46,0,0,1-.52-1.71c0-.1-.17-.11-.16,0a6.74,6.74,0,0,0,.4,2.09c.19.47.43,1.13.93,1.34a.25.25,0,0,0,.37-.15c.12-.62.21-1.24.3-1.87.25.44.5.87.77,1.29a1.33,1.33,0,0,0,.9.72C396.11,221.24,396.27,221,396.06,220.86Z" style="fill:#263238"></path><path d="M388,235.56a.09.09,0,0,0-.18,0c0,.29.13.6-.19.67s-.59-.48-.76-.74a.13.13,0,0,0-.23,0c-.19.86-.29,1.73-.47,2.59A9.73,9.73,0,0,1,386,237c-.12-.52-.24-1-.37-1.56a.18.18,0,0,0-.33,0c-.19.42-.36.84-.58,1.24-.13.22-.26.44-.41.65s-.45.64-.63.18a6.09,6.09,0,0,1,.06-1.7l.07-1.9c0-.13-.19-.12-.21,0-.09,1.08-.2,2.15-.29,3.22,0,.38-.2,1.07.32,1.2.69.18,1.39-1.15,1.76-2.07.1.59.19,1.19.31,1.78.08.43.12.79.53,1a.28.28,0,0,0,.4-.16,10.87,10.87,0,0,0,.35-2.78c.24.38.59.82.87.75C388.27,236.7,388.05,235.84,388,235.56Z" style="fill:#263238"></path><path d="M406.07,238a9.44,9.44,0,0,1-1.81-2.79.18.18,0,0,0-.33.09c0,.39,0,.78,0,1.17,0,.22,0,.44,0,.65-.05.47-.06.53-.37.11a8.6,8.6,0,0,1-1.14-2.29.15.15,0,0,0-.28.08,14.44,14.44,0,0,0,.76,2c.17.36.44,1.08.91,1.14.68.1.74-.92.66-1.8.16.31.33.63.51.94a2.28,2.28,0,0,0,.84,1C406,238.45,406.25,238.19,406.07,238Z" style="fill:#263238"></path><path d="M385.44,179.59a5,5,0,0,1-.73,1.37c-.1.12-.54.63-.65.61s-.12-.51-.11-.56c.12-1,.15-1.95.25-2.93,0-.13-.22-.16-.24,0-.15,1-.37,1.9-.5,2.86,0,.32-.25,1,.14,1.18s.89-.37,1.12-.61a3.69,3.69,0,0,0,1-1.82A.13.13,0,0,0,385.44,179.59Z" style="fill:#263238"></path><path d="M349.66,240c-.35-.1-1.79-.66-2.11-.8a17.66,17.66,0,0,1,.14,3H315a17.33,17.33,0,0,1,.1-2.53,9,9,0,0,1-1.38,1.24c-.39.3.7-3.95,1.38-5.64a34.45,34.45,0,0,0,1.27-3.88l0-.17a3.76,3.76,0,0,1-2.24,1.33c-.47.07,3.35-8.87,4.48-17a3.66,3.66,0,0,1-3.73.83c-.19-.08,3.55-7,4.57-9.17.12-.24.23-.49.33-.74l.37-.82c.4-.93.77-1.9,1.11-2.86a79.3,79.3,0,0,0,2.48-8.8,8.93,8.93,0,0,1-2.83,1.34c-.52.14,3.7-7.24,5-10.93.88-2.51,1.42-5.13,2.41-7.58,1.29-4.43,2.35-7.16,3-7.16,1.1,0,3.46,8.22,6.07,19.2.24.82.5,1.63.79,2.43,1.06,2.94,4.1,9.07,3.47,8.77a12.19,12.19,0,0,1-1.64-1,34.54,34.54,0,0,0,2.5,7.47c1.09,2.31,3.05,7.9,2.54,7.69a9.22,9.22,0,0,1-2.43-1.49c0,.06,1.23,4.45,1.92,6.44.07.24.15.47.24.7.2.56.41,1.11.64,1.68.88,2.21,2.95,7.66,2.35,7.52a4.12,4.12,0,0,1-2.18-1.46.17.17,0,0,0,0,.07c.64,1.79,1.24,3.59,1.91,5.37C347.72,233.52,350.09,240.17,349.66,240Z" style="fill:#455a64"></path><path d="M329,195.7c0-.08-.12-.08-.13,0a5.9,5.9,0,0,1-.19,1.29,5.25,5.25,0,0,1-.44-1.06.25.25,0,0,0-.45-.05c-.17.33-.76,2.15-1.3,2.44.05-.7.28-1.42.34-2.12a7.86,7.86,0,0,0-.1-2.27.06.06,0,0,0-.11,0c-.07.92-.06,1.82-.22,2.73-.11.65-.4,1.29-.47,1.94a.29.29,0,0,0,.14.23c.91.44,1.62-.92,2-2a3.42,3.42,0,0,0,.51.91.27.27,0,0,0,.46-.19C328.92,197,329,196.35,329,195.7Z" style="fill:#263238"></path><path d="M338.62,211.28c-.21-.81-.29-1.67-.43-2.49a0,0,0,0,0-.08,0c.05.34.47,2.68.21,2.74s-.78-.57-.95-.75a4.41,4.41,0,0,1-.85-1.07s-.11,0-.09,0a5.79,5.79,0,0,0,.86,1.51c.23.26.71.87,1.13.79S338.7,211.57,338.62,211.28Z" style="fill:#263238"></path><path d="M330.86,225.27c0-.11-.2-.08-.19,0,0,.4.06.8,0,1.2a3.15,3.15,0,0,1-.58-.66.13.13,0,0,0-.24.06c0,.46.19,2.72-.5,2.16-.48-.39-.78-1.87-1-2.47a.13.13,0,0,0-.21-.05,4.4,4.4,0,0,0-.77,1.17c-.11.21-.39.8-.68.37-.09-.13.13-.75.16-.89a5.53,5.53,0,0,0,0-2.77.1.1,0,0,0-.19,0,16.18,16.18,0,0,1-.56,3.29c-.07.42-.22,1,.24,1.3.84.47,1.59-.91,1.87-1.84.22,1,.64,2.73,1.38,2.76.27,0,.34-.11.43-.34a5.38,5.38,0,0,0,.07-2.1,2.08,2.08,0,0,0,.57.58c.16.11.34-.08.31-.24C331,226.33,331,225.79,330.86,225.27Z" style="fill:#263238"></path><path d="M346.33,239.05c-.21-.9-.82-1.56-.88-2.48,0-.34-.23-.49-.25-.15a7.86,7.86,0,0,0,.49,2.48,2.11,2.11,0,0,1,.15.6l.13.1-.47-.21a9.55,9.55,0,0,1-1.22-.86c-.16-.12-.42.08-.34.26s.24.63.33,1,.1.44.14.66c0,.37,0,.47-.22.3-.41,0-1.48-1.43-1.67-1.7,0,0-.08,0-.06,0,.36.66,1.21,2.77,2.28,2.42a.29.29,0,0,0,.2-.27,6.33,6.33,0,0,0-.23-1.5c.53.46,1.2.84,1.6.46S346.4,239.34,346.33,239.05Z" style="fill:#263238"></path><path d="M320.36,239.08l-.2.62a3.36,3.36,0,0,1-.21.61c-.25.16-.18-.28-.19-.4s-.05-.42-.06-.63-.21-.22-.29-.08a4.17,4.17,0,0,1-.72,1c-.17.19-.79.79-.53.17a4,4,0,0,0,.33-2.28s0,0,0,0a7.65,7.65,0,0,1-.7,2.22c-.16.27-.36.69,0,.92s.79-.12,1-.34a2.54,2.54,0,0,0,.59-.86c0,.44.09.9.41.92a.36.36,0,0,0,.33-.23,6.16,6.16,0,0,0,.4-1.6A.08.08,0,0,0,320.36,239.08Z" style="fill:#263238"></path><path d="M334.85,186.83a9.07,9.07,0,0,1-.73-2.32c0-.1-.16-.11-.16,0a5.19,5.19,0,0,0,.58,2.34c.06.14.27.43.16.57s-.33-.06-.47-.15a12.25,12.25,0,0,0-1-.77c-.05,0-.14,0-.12.09a2.3,2.3,0,0,0,1,1.08c.21.13.71.4.94.16S334.94,187.06,334.85,186.83Z" style="fill:#263238"></path><path d="M89.21,238.54c0,.4-2-1.12-2.07-1.16l0,.2a17.24,17.24,0,0,1,.23,5.3.08.08,0,0,1,0,0H53.22a.06.06,0,0,1,0,0,9.17,9.17,0,0,1,0-3.07c0-.17,0-.34.05-.52,0,0,0-.06,0-.1,0-.22,0-.45.08-.69s.09-.81.16-1.26c-.07.08-1.68,1.38-1.68,1.38s2.06-8.15,3-11.5a2.5,2.5,0,0,1,.07-.26,90.08,90.08,0,0,0,2-10.88c-.59.84-3,2.25-2.78,1.71,1.73-3.62,3.25-7.32,4.69-11.06-.12.13-1.29.4-1.41.53-.44.47,3.54-8.87,4.68-13.08l.48-2.15a4.63,4.63,0,0,1-2.2.86c-.42-.08,3-7,4.23-10.45.84-2.41,1.41-4.91,2.14-7.34,1.56-5.64,2.87-9.24,3.61-9.24,1,0,2.49,6.4,4.68,15.05a77.28,77.28,0,0,0,4.68,11.47,4.15,4.15,0,0,1-1.27-.31c.08.19,2.59,6.45,3.39,8.36,0,0-1.67-.9-1.84-1,.2.59.4,1.16.61,1.73,1.12,2.9,3.54,9.3,3,9.08a8.91,8.91,0,0,1-1.75-1.08c.68,2.77,4.94,14,4.94,14a7.09,7.09,0,0,1-2.32-1.47l.11.26c.09.21.17.4.27.59,1,2.09,2.91,7.13,2.45,6.68s-1.15-1.15-1.68-1.76c.34,1.21.7,2.41,1.1,3.58C87.46,233.08,89.21,238.54,89.21,238.54Z" style="fill:#37474f"></path><path d="M74.6,205.38a.18.18,0,0,0-.35.1c.21,1,.5,2.05.71,3.09a5.92,5.92,0,0,1-1.43-1.91.23.23,0,0,0-.42.12,26.69,26.69,0,0,1,.07,4.19c-.08.46.06.55-.37.13a3.67,3.67,0,0,1-.49-.78c-.39-.66-.76-1.34-1.11-2,0-.05-.1,0-.07,0,.42.91.88,1.79,1.37,2.67.19.35.28.73.66.86a.14.14,0,0,0,.15,0c.37-.37.19-1.08.2-1.56l0-2.61a6.08,6.08,0,0,0,1.64,1.72c.18.13.4-.08.36-.27A36.38,36.38,0,0,0,74.6,205.38Z" style="fill:#263238"></path><path d="M61.47,234.8l-.1.11a5.07,5.07,0,0,1-.3-1.4c0-.13-.19-.24-.29-.12-.41.54-1.44,1.88-2.29,1.85a12.28,12.28,0,0,0,.89-3.59c0-.12-.19-.15-.21,0A12.37,12.37,0,0,1,58.3,234a2.3,2.3,0,0,0-.36,1.5.24.24,0,0,0,.29.17,4.49,4.49,0,0,0,2.55-1.71,5.52,5.52,0,0,0,.35,1.37.18.18,0,0,0,.26.11.56.56,0,0,0,.36-.55A.15.15,0,0,0,61.47,234.8Z" style="fill:#263238"></path><path d="M81.21,226.78a2,2,0,0,0-.41-.94c-.08-.1-.24,0-.21.13s.18.43.24.67l.06.23c0,.36,0,.44-.22.23-.33-.1-.73-.63-1-.88a9.23,9.23,0,0,1-1.46-2.16,0,0,0,0,0-.06,0,7,7,0,0,0,2.35,3.55c.24.16.64.28.78-.08A1.56,1.56,0,0,0,81.21,226.78Z" style="fill:#263238"></path><path d="M67.24,193.59c0-.12-.21-.18-.23,0a3.2,3.2,0,0,1-.37,1,5.77,5.77,0,0,1-.42-1.42.1.1,0,0,0-.17,0c-.25.37-.45,1-.83,1.23-.21.15-.45.32-.49-.1a2.71,2.71,0,0,1,.25-.67,10.64,10.64,0,0,0,.35-2.75c0-.07-.11-.09-.12,0a27,27,0,0,1-.67,2.65c-.1.36-.39,1-.08,1.35.56.6,1.32-.61,1.63-1.29,0,.55.07,1.26.45,1.57a.22.22,0,0,0,.34-.05A1.85,1.85,0,0,0,67.24,193.59Z" style="fill:#263238"></path><path d="M121.31,248.5c-.35-.1-1.5-.27-1.83-.41a16.53,16.53,0,0,1,.14,2.95H87a17.2,17.2,0,0,1,.1-2.52c-.42.45-1.56.41-2,.77s3-7.75,3.32-9l0-.18c-.63.71-2.7,1-3.57,1.09-.47.07,3-6.67,4-9.83.6-1.89,1-3.83,1.5-5.76l.09-.38c.06-.26.13-.52.19-.78a5.66,5.66,0,0,1-.53.37s-2.15.92-3.2.46c-.18-.08,4.06-8.12,4.56-9.16a63.75,63.75,0,0,0,4.3-13.23,8.52,8.52,0,0,1-2.83,1.34c-.51.14,3.71-7.24,5-10.93.87-2.5,1.42-5.13,2.42-7.58,1.28-4.42,2.33-7.16,3-7.16,1.09,0,3.47,8.23,6.07,19.21.25.81.5,1.63.79,2.43,1.06,2.94,4.1,9.07,3.46,8.77a13.66,13.66,0,0,1-1.64-1,36.93,36.93,0,0,0,2.08,6.52c.14.32.28.64.43.95,1.08,2.31,3,7.9,2.54,7.69a9.12,9.12,0,0,1-2.43-1.49c0,.07,0,.12,0,.17a.19.19,0,0,1,.18.15c1.17,5.32,5.54,16.16,5,16a4.19,4.19,0,0,1-2.2-1.45s0,.05,0,.07C118.24,238.36,121.75,248.64,121.31,248.5Z" style="fill:#455a64"></path><path d="M98,211a5.7,5.7,0,0,1-.26.92,3.92,3.92,0,0,1-.4-1.47.09.09,0,0,0-.17,0,3.89,3.89,0,0,1-.93,1.25c-.24.14-.21.16-.24-.06a3.58,3.58,0,0,1,.29-.77c.33-.92.48-1.89.78-2.82,0-.07-.09-.1-.11,0-.21.5-2.48,4.19-1.27,4.41.45.08.86-.59,1.06-.88,0,0,.45-.75.44-.75a1.91,1.91,0,0,1,.08.39,6.3,6.3,0,0,0,.37,1.19.14.14,0,0,0,.24,0,4,4,0,0,0,.37-1.3C98.29,210.88,98,210.85,98,211Z" style="fill:#263238"></path><path d="M112.55,228.42a.11.11,0,0,0-.21,0l0,.27a5.24,5.24,0,0,1-.62-1c-.09-.2-.45-.1-.43.12.11,1.13.38,2.23.55,3.35a29.27,29.27,0,0,1-2-2.58.23.23,0,0,0-.4,0c-.15.29-.28,1.64-.45,1.66s-.57-.95-.62-1.07a6.57,6.57,0,0,1-.47-1.42c0-.09-.17-.07-.16,0a6.67,6.67,0,0,0,.52,2.11c.14.3.37,1,.73,1.07a.42.42,0,0,0,.46-.13.89.89,0,0,0,.15-.45c.07-.41,0-.78.09-1.16a14.88,14.88,0,0,0,2.29,2.88.23.23,0,0,0,.37-.22,15.89,15.89,0,0,1-.53-3.12,4.12,4.12,0,0,0,.49.54c.1.09.32,0,.31-.13S112.57,228.66,112.55,228.42Z" style="fill:#263238"></path><path d="M95.28,244.5a1.86,1.86,0,0,1-.73.92,19.4,19.4,0,0,0-.23-2.27c0-.09-.14-.13-.22-.09-.36.23-.64.53-1,.76s-.35.23-.17-.19a11,11,0,0,0,.67-2.7c0-.16-.21-.24-.25-.07C93,242,92.22,243.14,92,244.3a.29.29,0,0,0,.07.28c.57.46,1.46-.36,2-1a20.92,20.92,0,0,1,0,2.24.28.28,0,0,0,.42.24,2.63,2.63,0,0,0,1.28-1.41C95.82,244.44,95.39,244.25,95.28,244.5Z" style="fill:#263238"></path><path d="M107.2,199.55a14.69,14.69,0,0,1-.93-2.63,0,0,0,0,0-.08,0,6.8,6.8,0,0,0,.48,2.4c.12.33.51,1.06,0,1-.21,0-.58-.48-.86-.55a.12.12,0,0,0-.15.15c.11.56,1.4,1.47,1.8.73C107.63,200.34,107.34,199.89,107.2,199.55Z" style="fill:#263238"></path><path d="M378.4,247.73c.18.56-1.61-.82-1.66-.9a26.17,26.17,0,0,1,.35,4.21h-30.6a25.29,25.29,0,0,1,.33-4.09,10.72,10.72,0,0,1-1.3,1c-.36.22,1-4.79,1.67-6.73.37-1.05.69-2.11,1-3.19a10.71,10.71,0,0,1-2.14,1.62c-.22-.14,2.26-4.62,3.17-6.74-.28.36-2.07.93-1.79.38q1-2.07,1.82-4.2c.36-.92.7-1.87,1-2.82l.15-.48c.42-1.32.81-2.65,1.14-4-.46.37-2.36,2.22-2.18,1.67.9-2.6,2.34-6.2,3.32-8.79.2-.51.38-1,.55-1.53-.14.1-1.86,1.43-1.67,1.07,1-1.83,2-5.24,2.83-7.11.08-.16.14-.34.22-.5-.36.14-1.1.78-1.5.81s2.95-5.68,4.22-11.11c1.8-7.72,3.62-13,4.47-13,.67,0,1.82,3.2,3.21,8.21.66,2.16,1.17,4.39,1.91,6.53,1.06,3,2.7,7,4,9.88.13.29-1.75-.79-2.24-1.36l.42,1.91a92.88,92.88,0,0,0,4.75,12c.2.45-1.73-.76-1.83-.87,1.28,3.32,3.79,10.87,3.39,10.43a19.16,19.16,0,0,1-1.69-2.12,77.93,77.93,0,0,0,1.79,9.67C376.33,240.66,377.86,246.08,378.4,247.73Z" style="fill:#37474f"></path><path d="M360.56,196c0-.09-.14-.07-.16,0a2.15,2.15,0,0,0-.09.44c0,.16,0,.59-.15.56s-.29-1.08-.32-1.22-.32-.17-.38,0a5,5,0,0,1-.49,1.11l-.19.24c-.19.26-.27.29-.23.09s.09-.5.13-.68a4.93,4.93,0,0,0,.17-2.19s-.07,0-.08,0a15.34,15.34,0,0,1-.47,2.43c-.05.23-.23.71.06.86s.63-.25.78-.41a3.07,3.07,0,0,0,.43-.69c.09.47.27,1,.64,1C360.8,197.48,360.61,196.29,360.56,196Z" style="fill:#263238"></path><path d="M366.91,206.62a6.1,6.1,0,0,0-.21-1.05.07.07,0,0,0-.14,0c.06.25.14.49.21.74,0,0,.1.25.07.29-.16.31-.46-.14-.51-.21s-.05,0,0,0l.05.08c0-.06-.12-.05-.11,0,0,.54.05,1.07.06,1.6a7.08,7.08,0,0,1-.46-.81l-.66-1.18c0-.06-.12,0-.13,0a3.88,3.88,0,0,1-.16.88,2.53,2.53,0,0,1-.19.48q-.31.15-.24-.18a3.17,3.17,0,0,1-.06-.82c0-.28-.07-.55-.09-.82,0,0,0,0,0,0a12.64,12.64,0,0,0,0,1.74c0,.19,0,.46.24.53.52.15.68-.88.71-1.47a6.07,6.07,0,0,0,1.16,2.16.16.16,0,0,0,.28-.11,20,20,0,0,0-.26-2c.12.16.33.42.5.3S366.91,206.68,366.91,206.62Z" style="fill:#263238"></path><path d="M359.85,218.14l0,.29c0,.3,0,.36-.17.19,0,0-.34-.29-.33-.28a.15.15,0,0,0-.25.07c-.17.69-.28,1.39-.42,2.09a13.9,13.9,0,0,1-.67-2.24.16.16,0,0,0-.29,0,4.51,4.51,0,0,1-1.66,1.85c.14-.57.23-1.16.32-1.75a.06.06,0,0,0-.11,0,15,15,0,0,0-.63,2.07.17.17,0,0,0,.25.19,4.23,4.23,0,0,0,1.93-1.83,11.16,11.16,0,0,1,.35,1.38,1.58,1.58,0,0,0,.48,1A.2.2,0,0,0,359,221a9.78,9.78,0,0,0,.41-2.13.47.47,0,0,0,.51.29A.13.13,0,0,0,360,219c0-.29,0-.58,0-.88C360.05,218.06,359.87,218,359.85,218.14Z" style="fill:#263238"></path><path d="M368.54,229.64c.3-.15.22-.78.25-1s-.23-.17-.25,0a2.51,2.51,0,0,1-.08.62c-.11.14,0,.07-.11,0s-.09-.16-.25-.19a.18.18,0,0,0-.21.22c.06.36.12.72.16,1.09a1.85,1.85,0,0,1,.06.52c0,.07,0,.14,0,.21a1.94,1.94,0,0,1-.23-.26,4.21,4.21,0,0,1-.84-1.66.15.15,0,0,0-.3,0c-.09.23-.14.47-.23.7a2.35,2.35,0,0,1-.22.45c-.13.17-.1.17-.11-.08a5.53,5.53,0,0,0-.26-1.46s-.06,0-.05,0a9.21,9.21,0,0,1,0,1.66c0,.19.06.48.31.48s.39-.34.49-.5a3,3,0,0,0,.3-.69,8,8,0,0,0,.46,1c.15.24.41.74.73.73s.28-.24.27-.46c0-.43-.07-.86-.13-1.28A.29.29,0,0,0,368.54,229.64Z" style="fill:#263238"></path><path d="M354.38,235.49c-.43.24-.56.92-.73,1.34,0,.07-.09.37-.18.38s-.08-.37-.09-.49c-.05-.43-.09-.86-.14-1.29a.18.18,0,0,0-.34-.09,5.07,5.07,0,0,1-.52.61,1.9,1.9,0,0,0-.36.39l.15-.38c.22-.54.4-1.09.63-1.63,0-.07-.1-.13-.13-.06-.26.58-.56,1.13-.83,1.7-.1.22-.22.38-.09.6a.15.15,0,0,0,.18.07,1.93,1.93,0,0,0,1-.71,8.87,8.87,0,0,0,.16,1.56c0,.19.08.37.3.41s.35-.18.44-.35c.34-.59.36-1.36.69-1.93C354.54,235.54,354.45,235.45,354.38,235.49Z" style="fill:#263238"></path><path d="M364.6,242.75a.14.14,0,0,0-.28,0c0,.43.08.85.13,1.27a6.79,6.79,0,0,1,.13,1.21,6.59,6.59,0,0,1-1.49-1.58s-.08,0-.06,0a4,4,0,0,0,1.58,1.93.14.14,0,0,0,.21-.12C364.74,244.61,364.75,243.67,364.6,242.75Z" style="fill:#263238"></path><path d="M376.65,246.87c-.16-.41-.48-.73-.65-1.15h0c0-.05,0-.1,0-.13s-.28-.12-.29,0a2.09,2.09,0,0,1,0,.43c0,.29-.05.27-.09,0a3.91,3.91,0,0,0-.26-.44,10.8,10.8,0,0,1-.53-1.08c-.08-.16-.29,0-.27.11,0,.32.38,2.58,0,2.67-.14,0-.61-.77-.69-.89-.2-.34-.37-.69-.54-1,0,0-.09,0-.07,0,.3.75.61,1.94,1.38,2.34a.15.15,0,0,0,.18,0c.28-.23.17-.81.17-1.11s0-.7-.05-1.05c.05.11.09.22.15.33s.28.69.57.77.42-.18.43-.47a1.61,1.61,0,0,0,.45.82C376.55,247,376.7,247,376.65,246.87Z" style="fill:#263238"></path><path d="M201.23,243.41c.12.36-1-.54-1.08-.59a17.43,17.43,0,0,1,.22,2.74H180.45a17.67,17.67,0,0,1,.22-2.66,6,6,0,0,1-.85.63c-.23.14.66-3.12,1.09-4.38.24-.68.45-1.38.64-2.08a7,7,0,0,1-1.4,1.06c-.14-.09,1.48-3,2.07-4.39-.18.23-1.35.6-1.17.24.43-.89.83-1.8,1.18-2.72.24-.61.46-1.22.67-1.84l.09-.32c.28-.86.53-1.72.74-2.6-.3.25-1.53,1.45-1.41,1.1.58-1.7,1.52-4,2.16-5.73.12-.33.24-.66.35-1-.09.06-1.2.93-1.08.69.62-1.19,1.29-3.41,1.84-4.63,0-.1.09-.21.15-.32-.24.09-.72.5-1,.52s1.92-3.69,2.74-7.23c1.17-5,2.36-8.46,2.92-8.46s1.18,2.08,2.08,5.35c.44,1.4.76,2.85,1.25,4.25.68,2,1.75,4.55,2.63,6.43.08.19-1.14-.52-1.46-.88l.27,1.24a60,60,0,0,0,3.09,7.83c.13.3-1.12-.49-1.19-.56a55.77,55.77,0,0,1,2.21,6.79,13,13,0,0,1-1.1-1.38,51.91,51.91,0,0,0,1.16,6.29C199.88,238.8,200.87,242.33,201.23,243.41Z" style="fill:#37474f"></path><path d="M189.62,209.71c0-.06-.1-.05-.11,0a1.4,1.4,0,0,0-.06.28c0,.11,0,.39-.1.36s-.19-.69-.21-.79-.21-.11-.24,0a3.59,3.59,0,0,1-.32.72l-.12.16q-.19.26-.15.06c0-.12.05-.33.08-.44a3.16,3.16,0,0,0,.11-1.43s-.05,0-.05,0a9.39,9.39,0,0,1-.31,1.58c0,.15-.14.46,0,.56s.41-.16.51-.27a2.2,2.2,0,0,0,.28-.44c.06.3.17.63.42.63S189.65,209.92,189.62,209.71Z" style="fill:#263238"></path><path d="M193.75,216.64a4.11,4.11,0,0,0-.14-.68c0-.06-.11,0-.09,0s.09.32.13.48.07.17,0,.19c-.1.21-.3-.09-.33-.14s0,0,0,0l0,.05s-.07,0-.07,0c0,.35,0,.7,0,1a3.35,3.35,0,0,1-.3-.52l-.43-.77a0,0,0,0,0-.08,0,2.83,2.83,0,0,1-.11.58,1.66,1.66,0,0,1-.12.31c-.14.07-.19,0-.16-.12a2.28,2.28,0,0,1,0-.53l-.06-.54h0a7.23,7.23,0,0,0,0,1.14c0,.12,0,.3.16.34.33.1.44-.57.46-.95a4.07,4.07,0,0,0,.75,1.41c.06.05.19,0,.18-.08a10.08,10.08,0,0,0-.17-1.33c.08.11.22.28.33.2S193.75,216.68,193.75,216.64Z" style="fill:#263238"></path><path d="M189.15,224.14l0,.19c0,.2,0,.24-.11.12a1.3,1.3,0,0,1-.21-.18.11.11,0,0,0-.17,0c-.11.45-.18.91-.27,1.36a8.47,8.47,0,0,1-.43-1.45.11.11,0,0,0-.2,0,2.94,2.94,0,0,1-1.08,1.21,11.39,11.39,0,0,0,.21-1.14s-.05-.06-.07,0a10.51,10.51,0,0,0-.41,1.35.11.11,0,0,0,.16.13,2.75,2.75,0,0,0,1.26-1.19,8.46,8.46,0,0,1,.23.9,1,1,0,0,0,.31.63.14.14,0,0,0,.22-.06,7.25,7.25,0,0,0,.26-1.39.32.32,0,0,0,.33.2.09.09,0,0,0,.09-.09l0-.57C189.28,224.09,189.16,224.07,189.15,224.14Z" style="fill:#263238"></path><path d="M194.81,231.63c.19-.1.14-.51.16-.67s-.15-.11-.16,0,0,.35-.06.4,0,0-.06,0-.07-.11-.17-.12a.12.12,0,0,0-.14.14c.05.23.08.47.11.71a1.32,1.32,0,0,1,0,.34v.14l-.15-.17a2.86,2.86,0,0,1-.54-1.09.11.11,0,0,0-.2,0c0,.15-.09.31-.15.46a1,1,0,0,1-.14.29c-.08.12-.06.12-.08-.05a3.38,3.38,0,0,0-.16-.95s0,0,0,0a6.51,6.51,0,0,1,0,1.08c0,.12,0,.31.2.31s.25-.22.32-.33a2.48,2.48,0,0,0,.2-.44,6.13,6.13,0,0,0,.3.64c.09.15.26.48.47.47s.19-.16.18-.3-.05-.56-.09-.84A.18.18,0,0,0,194.81,231.63Z" style="fill:#263238"></path><path d="M185.59,235.44c-.28.15-.37.59-.47.87,0,0-.07.24-.12.25s-.05-.24-.06-.32l-.09-.84a.12.12,0,0,0-.22-.06,4.47,4.47,0,0,1-.34.4,1.42,1.42,0,0,0-.24.25l.1-.24c.14-.36.26-.72.41-1.07,0-.05-.06-.08-.09,0-.16.37-.36.73-.53,1.1-.07.14-.14.25-.06.39a.11.11,0,0,0,.12.05,1.24,1.24,0,0,0,.63-.47,6.78,6.78,0,0,0,.1,1c0,.12.06.24.2.26s.23-.11.29-.22c.22-.39.23-.89.45-1.26A.06.06,0,0,0,185.59,235.44Z" style="fill:#263238"></path><path d="M192.24,240.16c0-.1-.18-.07-.18,0a7.8,7.8,0,0,0,.09.83,4,4,0,0,1,.08.78,4.28,4.28,0,0,1-1-1s0,0,0,0a2.61,2.61,0,0,0,1,1.26.1.1,0,0,0,.14-.08C192.33,241.38,192.34,240.76,192.24,240.16Z" style="fill:#263238"></path><path d="M200.09,242.85c-.11-.27-.32-.48-.43-.75h0a.34.34,0,0,1,0-.09c0-.11-.19-.08-.19,0a1.33,1.33,0,0,1,0,.28q0,.28-.06,0c0-.1-.12-.19-.17-.29a7.61,7.61,0,0,1-.35-.7c0-.1-.18,0-.17.08s.25,1.67,0,1.73c-.09,0-.4-.5-.45-.58s-.24-.45-.35-.68c0,0-.06,0,0,0,.2.49.4,1.26.9,1.52a.09.09,0,0,0,.12,0c.18-.15.11-.53.11-.72s0-.46,0-.69l.09.22c.08.15.19.44.38.5s.27-.12.27-.31a1.06,1.06,0,0,0,.3.54C200,243,200.12,242.92,200.09,242.85Z" style="fill:#263238"></path><path d="M184.08,247.91c-.05-.08-1.52-1-1.58-1.08a26.25,26.25,0,0,1,.35,4.21H152.26a25.29,25.29,0,0,1,.33-4.09,11,11,0,0,1-2.41.86c-.36.22,2.11-4.68,2.78-6.62.35-1.05.67-2.11,1-3.19-.48.55-1.82,1.16-2.34,1.66s2.85-5.57,3.37-6.78c-.28.36-2.07.93-1.8.38a54.13,54.13,0,0,0,2.52-6.11c.62-1.76,1.15-3.56,1.6-5.38-.45.37-2.62.82-2.43.28.41-1.21,2.88-5.82,2.87-5.82a12.41,12.41,0,0,0,.72-1.58c.19-.51.36-1,.54-1.53a3.59,3.59,0,0,1-.47.27c-.48.26.79-4.44,1.64-6.31l.21-.5a3.75,3.75,0,0,1-1.13.28c-.51,0,1.22-4.2,2-5.84.53-1.59,1.18-3.17,1.81-4.74,1.94-7.68,3.61-13,4.47-13,.66,0,1.82,3.2,3.21,8.21.66,2.16,1.16,4.39,1.91,6.53,1.05,3,4.13,9.22,3.76,9.29a2,2,0,0,1-2-.77c.14.64.29,1.27.43,1.91,1,3.74,4.82,12.32,4.43,11.9-.11-.11-1.42-.62-1.52-.73.49,1.27,1,2.53,1.5,3.77.13.35.27.69.42,1s2.21,5.79,2.28,6a29.39,29.39,0,0,1-2.5-2.5c.05.41.11.82.17,1.24s.11.78.17,1.17a69,69,0,0,0,1.44,7.26C182.1,240.66,184.36,248.28,184.08,247.91Z" style="fill:#455a64"></path><path d="M165.57,205.91c-.12.4-.2.81-.3,1.21a5.16,5.16,0,0,1-.6-.94c0-.09-.16-.06-.2,0-.32.42-.45,1-.75,1.43a5.92,5.92,0,0,1-.35.48c-.07.09-.65.93-.65.43a3.85,3.85,0,0,1,.32-.79,6.39,6.39,0,0,0,.24-.74,3.26,3.26,0,0,0,0-1.64.18.18,0,0,0-.35,0c-.18,1-.52,2-.78,3-.1.4-.17.92.4.94,1,0,1.87-1.62,2.06-2.65l.56.94a.15.15,0,0,0,.27,0,3.6,3.6,0,0,0,.3-1.55A.11.11,0,0,0,165.57,205.91Z" style="fill:#263238"></path><path d="M175.55,219.81a.13.13,0,0,0-.26.07c.07.26.58,1.61-.09,1.32-.38-.16-.75-.89-1-1.21-.09-.13-.34-.1-.32.08.08.71.2,1.4.21,2.11,0,.22.1,1-.2,1.11s-.76-.56-.88-.67-.2,0-.14.1c.24.33,1,1.43,1.44.84.27-.34.14-1.13.14-1.52s0-.8-.09-1.2c.33.46.75.95,1.13.9.23,0,.28-.14.32-.35A4.11,4.11,0,0,0,175.55,219.81Z" style="fill:#263238"></path><path d="M165,235.64a.17.17,0,0,0-.33,0c0,.26,0,.52-.06.78a5.41,5.41,0,0,1-.65-.51.19.19,0,0,0-.32.13c0,.11,0,.86-.07,1.28-.25-.54-.53-1.07-.83-1.59a.25.25,0,0,0-.39,0c-.23.29-.45.58-.66.88a3.46,3.46,0,0,1-.42.63l-.89.48.23-.57a6.61,6.61,0,0,0,.47-2.56c0-.09-.15-.12-.17,0a20.71,20.71,0,0,1-.84,2.56c-.12.3-.42.9-.1,1.17.82.7,2-1.14,2.53-1.93a13.18,13.18,0,0,1,.84,1.63.24.24,0,0,0,.37,0c.34-.27.32-.92.31-1.45a3,3,0,0,0,.67.51.24.24,0,0,0,.36-.21A9.63,9.63,0,0,0,165,235.64Z" style="fill:#263238"></path><path d="M179.24,245.06a3.37,3.37,0,0,1-.75-.55.29.29,0,0,0-.48.2c0,.5.09,1,.13,1.52a8,8,0,0,1-1.7-2.25c-.12-.24-.55-.14-.52.14a24.35,24.35,0,0,0,.63,3.17c.08.31.4.82-.18.65-.16-.05-.36-.37-.47-.49a8.37,8.37,0,0,1-1.09-1.35s-.12,0-.1,0c.22.64,1.2,3.11,2.23,2.59.46-.22.31-.9.21-1.28-.16-.66-.31-1.32-.44-2a8.3,8.3,0,0,0,1.56,1.63c.17.13.5.07.48-.2,0-.53-.09-1.06-.13-1.59.12.07.23.15.36.21A.26.26,0,0,0,179.24,245.06Z" style="fill:#263238"></path><path d="M170.67,197.85a11.39,11.39,0,0,1-.5-2.23c0-.15-.15,0-.16.11a4.86,4.86,0,0,0,.37,2.26s.17.44,0,.46-.39-.36-.42-.4c-.26-.27-.52-.55-.76-.85,0,0-.09,0-.08.05a3.35,3.35,0,0,0,1.29,1.65.19.19,0,0,0,.18,0C171,198.66,170.74,198.21,170.67,197.85Z" style="fill:#263238"></path></g><g id="freepik--Plant--inject-483"><path d="M92.8,331.71s-.73-3.39-2.18-3.91a2,2,0,0,0-2.33,1s-.34-3.24-2.4-4.21-3.61,1-3.61,1-1.57-4.11-4.4-4.11-4.24,6-4.24,6-1.67-1.8-3.37-.78-1.71,5-1.71,5Z" style="fill:#37474f"></path><path d="M160.53,391.53s-1.43-6.68-4.29-7.71-4.6,2-4.6,2-.67-6.38-4.73-8.29-7.1,2-7.1,2-3.11-8.1-8.67-8.1-8.37,11.85-8.37,11.85-3.28-3.53-6.64-1.53-3.36,9.82-3.36,9.82Z" style="fill:#455a64"></path><path d="M388.62,342.91H335.26s1.75-7.52,5.29-8.05,5.19,2.95,5.19,2.95-.16-10.49,6.44-12.28S364.33,333,364.33,333s4.15-5.29,9.79-4.95,7.09,9.07,7.09,9.07S386.35,334.11,388.62,342.91Z" style="fill:#37474f"></path><path d="M70.13,331.71H56.69s0-2,1.36-2.53a1.79,1.79,0,0,1,2.1.51s.54-3.68,3-3.68,3.64,3.17,3.64,3.17a1.88,1.88,0,0,1,1.92-.78C70.07,328.58,70.13,331.71,70.13,331.71Z" style="fill:#455a64"></path><path d="M410.66,342.91H382.57s.06-4.18,2.82-5.29a3.77,3.77,0,0,1,4.41,1.06s1.12-7.69,6.27-7.69,7.61,6.63,7.61,6.63a4,4,0,0,1,4-1.63C410.54,336.36,410.66,342.91,410.66,342.91Z" style="fill:#455a64"></path><path d="M380,455.74H336.57s.1-6.46,4.36-8.17a5.81,5.81,0,0,1,6.81,1.63s1.74-11.88,9.69-11.88,11.76,10.25,11.76,10.25a6.11,6.11,0,0,1,6.2-2.53C379.8,445.62,380,455.74,380,455.74Z" style="fill:#455a64"></path><path d="M443.31,455.74H371.75s.16-10.65,7.2-13.48A9.58,9.58,0,0,1,390.16,445s2.87-19.58,16-19.58,19.39,16.89,19.39,16.89,2.93-5.1,10.21-4.15S443.31,455.74,443.31,455.74Z" style="fill:#37474f"></path></g><g id="freepik--space-ship--inject-483"><path d="M252,46.5c1.76,14-14,27.53-32.9,29.91s-37.51-6.85-39.27-20.86,13.84-28.42,32.79-30.8S250.23,32.48,252,46.5Z" style="fill:#c7c7c7"></path><ellipse cx="224.59" cy="30.87" rx="4.79" ry="7.89" transform="translate(174.35 251.93) rotate(-85.02)" style="fill:#dbdbdb"></ellipse><ellipse cx="217.36" cy="62.63" rx="97.4" ry="19" transform="translate(-6.1 27.52) rotate(-7.15)" style="fill:#a6a6a6"></ellipse><ellipse cx="217.51" cy="63.78" rx="97.4" ry="19" transform="translate(-6.24 27.55) rotate(-7.15)" style="fill:#c7c7c7"></ellipse><path d="M170.2,57.38c3.25.17,5.88.47,8.37.8a45.37,45.37,0,0,1,6.34,1.24c-3.26-.16-5.89-.46-8.38-.8A42.48,42.48,0,0,1,170.2,57.38Z" style="fill:#a6a6a6"></path><path d="M137.85,66.7c4.61-.34,8.86-.52,13-.68s8.19-.24,11.89-.21c-4.61.34-8.87.53-13,.68S141.55,66.73,137.85,66.7Z" style="fill:#a6a6a6"></path><path d="M126.85,75.23c4.73-.74,9.47-1.37,14.21-2s9.49-1.15,14.26-1.6c-4.73.74-9.47,1.37-14.21,2S131.61,74.78,126.85,75.23Z" style="fill:#a6a6a6"></path><path d="M140.14,80.69c3.58-1,7.53-1.84,11.57-2.73s8.26-1.75,12.81-2.56c-3.58.95-7.53,1.85-11.58,2.73S144.69,79.88,140.14,80.69Z" style="fill:#a6a6a6"></path><path d="M174.16,81.63A43.21,43.21,0,0,1,180,78.86c2.32-.93,4.8-1.88,7.92-2.84a44.46,44.46,0,0,1-5.84,2.77C179.75,79.72,177.28,80.66,174.16,81.63Z" style="fill:#a6a6a6"></path><path d="M219,80.14a18,18,0,0,1-1-4.23,17.48,17.48,0,0,1-.08-4.34,18,18,0,0,1,1,4.22A17.55,17.55,0,0,1,219,80.14Z" style="fill:#a6a6a6"></path><path d="M216,56.28a18.71,18.71,0,0,1-1-4.23A18.05,18.05,0,0,1,215,47.7a18.16,18.16,0,0,1,1,4.23A17.55,17.55,0,0,1,216,56.28Z" style="fill:#a6a6a6"></path><path d="M264.82,70.18c-3.25-.17-5.89-.47-8.37-.8a43.42,43.42,0,0,1-6.34-1.24c3.26.16,5.89.47,8.37.8A45.37,45.37,0,0,1,264.82,70.18Z" style="fill:#a6a6a6"></path><path d="M297.17,60.87c-4.61.33-8.87.52-13,.67s-8.19.25-11.89.21c4.61-.33,8.86-.52,13-.68S293.46,60.83,297.17,60.87Z" style="fill:#a6a6a6"></path><path d="M308.17,52.33c-4.73.74-9.47,1.37-14.21,2s-9.5,1.15-14.26,1.6c4.73-.74,9.47-1.37,14.21-2S303.4,52.78,308.17,52.33Z" style="fill:#a6a6a6"></path><path d="M294.87,46.87c-3.57,1-7.53,1.85-11.57,2.73s-8.25,1.75-12.8,2.57c3.57-1,7.53-1.85,11.57-2.74S290.33,47.68,294.87,46.87Z" style="fill:#a6a6a6"></path><path d="M260.85,45.93A43.61,43.61,0,0,1,255,48.7c-2.33.94-4.8,1.88-7.92,2.84a45.13,45.13,0,0,1,5.84-2.77C255.26,47.84,257.74,46.9,260.85,45.93Z" style="fill:#a6a6a6"></path><path d="M312.16,49.58A.84.84,0,1,1,312,48a.84.84,0,1,1,.2,1.63Z" style="fill:#FFA52E"></path><path d="M122.28,73.38a.83.83,0,1,1-.21-1.62.83.83,0,1,1,.21,1.62Z" style="fill:#FFA52E"></path><path d="M136.55,63.59a.83.83,0,1,1,.88-.94A.93.93,0,0,1,136.55,63.59Z" style="fill:#FFA52E"></path><path d="M169,53.45a.83.83,0,1,1,.88-.93A.91.91,0,0,1,169,53.45Z" style="fill:#FFA52E"></path><path d="M214.39,45.5a.83.83,0,1,1,.88-.93A.92.92,0,0,1,214.39,45.5Z" style="fill:#FFA52E"></path><path d="M260.63,41.85a.83.83,0,1,1,.88-.93A.92.92,0,0,1,260.63,41.85Z" style="fill:#FFA52E"></path><path d="M295,43.52a.83.83,0,1,1,.87-.93A.9.9,0,0,1,295,43.52Z" style="fill:#FFA52E"></path><path d="M277.33,66.16a2.88,2.88,0,0,1-.29,1.59l-.24.47-3.34,6.37L166,88.06l-4.86-5.39-.31-.34h0a2.87,2.87,0,0,1-.66-1.47c-.84-6.66,24.72-15.35,57.09-19.4S276.49,59.49,277.33,66.16Z" style="fill:#a6a6a6"></path><ellipse cx="219.53" cy="79.89" rx="54.62" ry="11.24" transform="translate(-8.23 27.93) rotate(-7.15)" style="fill:#c7c7c7"></ellipse><path d="M218.3,72.87c-2.87.36-3.32-.26-3.39-.85s.21-1.29,3.08-1.65,3.32.26,3.39.84S221.17,72.51,218.3,72.87Z" style="fill:#dbdbdb"></path><path d="M195,77a9.3,9.3,0,0,1-2.34,0c-.95-.16-1.06-.74-1.06-1,0-.91,1.23-1.2,1.82-1.34.39-.09.82-.16,1.26-.22a9.9,9.9,0,0,1,2.35,0c.94.17,1.05.74,1.06,1,0,.92-1.23,1.2-1.83,1.34C195.89,76.82,195.45,76.89,195,77Z" style="fill:#dbdbdb"></path><path d="M178.33,82.16c-.45,0-.89.08-1.28.09-.61,0-1.89,0-2.1-.85,0-.23-.09-.81.79-1.2a8.88,8.88,0,0,1,2.28-.54,11.76,11.76,0,0,1,1.28-.1c.61,0,1.88,0,2.09.85.06.23.09.81-.78,1.21A9.92,9.92,0,0,1,178.33,82.16Z" style="fill:#dbdbdb"></path><path d="M172.73,87.09c-2.87.36-3.32-.26-3.4-.84s.22-1.3,3.09-1.66,3.32.26,3.39.84S175.6,86.73,172.73,87.09Z" style="fill:#dbdbdb"></path><path d="M179.71,90.43a9.79,9.79,0,0,1-2.34,0c-1-.17-1.06-.74-1.06-1,0-.91,1.23-1.2,1.82-1.34.39-.09.82-.16,1.26-.22a9.9,9.9,0,0,1,2.35,0c.94.17,1,.74,1.06,1,0,.91-1.23,1.2-1.83,1.34C180.59,90.3,180.15,90.37,179.71,90.43Z" style="fill:#dbdbdb"></path><path d="M197.4,91.28a11.76,11.76,0,0,1-1.28.1c-.61,0-1.88,0-2.1-.85-.05-.23-.09-.82.79-1.21a9.32,9.32,0,0,1,2.28-.54c.44,0,.89-.09,1.28-.1.61,0,1.88,0,2.1.85.05.24.09.82-.79,1.21A9.32,9.32,0,0,1,197.4,91.28Z" style="fill:#dbdbdb"></path><path d="M221.06,89.41c-2.86.36-3.32-.26-3.39-.84s.21-1.29,3.08-1.65,3.32.26,3.39.84S223.93,89.06,221.06,89.41Z" style="fill:#dbdbdb"></path><path d="M244.36,85.33a8.91,8.91,0,0,1-2.35,0c-.94-.16-1-.74-1-1,0-.92,1.22-1.21,1.82-1.34a11,11,0,0,1,1.26-.22,9.32,9.32,0,0,1,2.35,0c.94.17,1.05.74,1.05,1,0,.92-1.22,1.2-1.82,1.34A11,11,0,0,1,244.36,85.33Z" style="fill:#dbdbdb"></path><path d="M261,80.13c-.45.05-.89.09-1.28.1-.61,0-1.89,0-2.1-.85-.05-.24-.09-.82.79-1.21a9.32,9.32,0,0,1,2.28-.54,11.76,11.76,0,0,1,1.28-.1c.61,0,1.88,0,2.09.85.06.23.09.82-.78,1.21A9.92,9.92,0,0,1,261,80.13Z" style="fill:#dbdbdb"></path><path d="M266.64,75.19c-2.87.36-3.32-.26-3.39-.84s.21-1.29,3.08-1.65,3.32.26,3.39.84S269.51,74.83,266.64,75.19Z" style="fill:#dbdbdb"></path><path d="M259.66,71.85a8.91,8.91,0,0,1-2.35,0c-.94-.16-1.05-.73-1.05-1,0-.92,1.22-1.21,1.82-1.34a11,11,0,0,1,1.26-.22,8.92,8.92,0,0,1,2.35,0c.94.16,1.05.73,1.06,1,0,.92-1.23,1.21-1.83,1.34A11,11,0,0,1,259.66,71.85Z" style="fill:#dbdbdb"></path><path d="M242,71a11.76,11.76,0,0,1-1.28.1c-.61,0-1.88,0-2.09-.85-.06-.23-.09-.81.78-1.21a9.92,9.92,0,0,1,2.28-.54c.45,0,.89-.08,1.28-.09.61,0,1.89,0,2.1.84.05.24.09.82-.78,1.21A9,9,0,0,1,242,71Z" style="fill:#dbdbdb"></path><path d="M220.5,71.32c0,.23-1,.55-2.3.72s-2.38.1-2.41-.13,1-.55,2.3-.71S220.47,71.09,220.5,71.32Z" style="fill:#FFA52E"></path><path d="M196.87,75.24c.67.11.32.42-.79.67a10.15,10.15,0,0,1-3.24.25c-.67-.11-.32-.42.79-.67A10.13,10.13,0,0,1,196.87,75.24Z" style="fill:#FFA52E"></path><path d="M179.3,80.4c1.14,0,1.56.18.94.46a10.21,10.21,0,0,1-3.2.55c-1.14,0-1.56-.18-.93-.46A10.08,10.08,0,0,1,179.3,80.4Z" style="fill:#FFA52E"></path><path d="M172.52,85.42c1.3-.16,2.38-.11,2.41.12s-1,.55-2.31.72-2.37.11-2.4-.12S171.22,85.59,172.52,85.42Z" style="fill:#FFA52E"></path><path d="M178.33,89a10.13,10.13,0,0,1,3.24-.25c.67.11.32.42-.8.67a10.07,10.07,0,0,1-3.23.25C176.87,89.53,177.22,89.22,178.33,89Z" style="fill:#FFA52E"></path><path d="M195.18,90.08a10.47,10.47,0,0,1,3.2-.56c1.14,0,1.55.18.93.46a10.18,10.18,0,0,1-3.2.56C195,90.57,194.56,90.36,195.18,90.08Z" style="fill:#FFA52E"></path><path d="M218.55,88.46c0-.23,1-.55,2.31-.71s2.37-.11,2.4.12-1,.55-2.3.71S218.58,88.69,218.55,88.46Z" style="fill:#FFA52E"></path><path d="M242.19,84.55c-.68-.12-.32-.42.79-.68a10.09,10.09,0,0,1,3.23-.25c.68.12.32.42-.79.68A10.39,10.39,0,0,1,242.19,84.55Z" style="fill:#FFA52E"></path><path d="M259.75,79.39c-1.14,0-1.56-.18-.93-.46a10.05,10.05,0,0,1,3.19-.56c1.14,0,1.56.18.94.46A10.47,10.47,0,0,1,259.75,79.39Z" style="fill:#FFA52E"></path><path d="M266.53,74.36c-1.3.16-2.37.11-2.4-.12s1-.55,2.3-.71,2.38-.11,2.41.12S267.83,74.2,266.53,74.36Z" style="fill:#FFA52E"></path><path d="M260.72,70.82a10.39,10.39,0,0,1-3.23.25c-.68-.12-.32-.42.79-.68a10.39,10.39,0,0,1,3.23-.25C262.19,70.26,261.83,70.56,260.72,70.82Z" style="fill:#FFA52E"></path><path d="M243.87,69.71a10.08,10.08,0,0,1-3.19.55c-1.14,0-1.56-.18-.94-.46a10.47,10.47,0,0,1,3.2-.56C244.08,69.22,244.5,69.43,243.87,69.71Z" style="fill:#FFA52E"></path><path d="M261.37,78.56a1.62,1.62,0,0,1-.21,1l-.17.31-2.4,4.15-75.88,9.51-3.39-3.46-.21-.21h0a1.82,1.82,0,0,1-.45-.95c-.54-4.31,17.54-10.12,40.38-13S260.83,74.25,261.37,78.56Z" style="fill:#dbdbdb"></path><path d="M258.78,83.09c.5,4-16.22,9.36-37.35,12s-38.65,1.56-39.15-2.42,16.22-9.36,37.34-12S258.28,79.1,258.78,83.09Z" style="fill:#ebebeb"></path><path d="M239.92,85.45c.22,1.75-8.28,4.25-19,5.59s-19.58,1-19.79-.73,8.28-4.24,19-5.59S239.7,83.71,239.92,85.45Z" style="fill:#FFA52E"></path><path d="M219.54,81.68a1.31,1.31,0,0,1,.59.92,1.26,1.26,0,0,1-.34,1,1.31,1.31,0,0,1-.59-.92A1.33,1.33,0,0,1,219.54,81.68Z" style="fill:#c7c7c7"></path><path d="M202,84.75a31.47,31.47,0,0,1,3.28.41,14.41,14.41,0,0,1,2.48.59c-1.27-.1-2.3-.25-3.28-.41A15.67,15.67,0,0,1,202,84.75Z" style="fill:#c7c7c7"></path><path d="M189.4,88.66c1.8-.12,3.46-.18,5.09-.22s3.2,0,4.65,0c-1.8.11-3.46.17-5.09.21S190.85,88.7,189.4,88.66Z" style="fill:#c7c7c7"></path><path d="M185.15,92.35c1.85-.29,3.69-.54,5.55-.77s3.7-.45,5.56-.62c-1.84.3-3.69.54-5.54.78S187,92.19,185.15,92.35Z" style="fill:#c7c7c7"></path><path d="M190.38,94.85c1.4-.39,2.94-.76,4.51-1.13s3.22-.72,5-1c-1.39.4-2.93.77-4.51,1.13S192.16,94.52,190.38,94.85Z" style="fill:#c7c7c7"></path><path d="M203.69,95.49A16.13,16.13,0,0,1,206,94.3,31.23,31.23,0,0,1,209,93.1a15.19,15.19,0,0,1-2.27,1.18C205.87,94.68,204.91,95.08,203.69,95.49Z" style="fill:#c7c7c7"></path><path d="M221.52,94.08a1.29,1.29,0,0,1-.59-.92,1.25,1.25,0,0,1,.34-1,1.29,1.29,0,0,1,.59.92A1.32,1.32,0,0,1,221.52,94.08Z" style="fill:#c7c7c7"></path><path d="M239.07,91c-1.27-.1-2.3-.25-3.28-.41a15.41,15.41,0,0,1-2.48-.59,31.47,31.47,0,0,1,3.28.41A16,16,0,0,1,239.07,91Z" style="fill:#c7c7c7"></path><path d="M251.66,87.11c-1.8.12-3.46.17-5.09.21s-3.21.06-4.65,0c1.8-.12,3.46-.18,5.09-.22S250.21,87.07,251.66,87.11Z" style="fill:#c7c7c7"></path><path d="M255.91,83.41c-1.85.3-3.7.54-5.55.78s-3.7.45-5.56.61c1.84-.29,3.69-.54,5.54-.78S254.05,83.58,255.91,83.41Z" style="fill:#c7c7c7"></path><path d="M250.67,80.91c-1.39.4-2.93.77-4.5,1.13s-3.22.72-5,1c1.39-.39,2.93-.77,4.5-1.13S248.9,81.24,250.67,80.91Z" style="fill:#c7c7c7"></path><path d="M237.36,80.28a16,16,0,0,1-2.26,1.18c-.9.4-1.87.8-3.08,1.21a16.13,16.13,0,0,1,2.27-1.19A32,32,0,0,1,237.36,80.28Z" style="fill:#c7c7c7"></path></g><g id="freepik--Light--inject-483"><g style="opacity:0.9"><path d="M390,475.32v0H143.77l57.37-385h0a.06.06,0,0,1,0,0c-.21-1.66,7.55-4,17.59-5.4l1.4-.19.91-.11c10.31-1.21,18.68-.85,18.89.84a.06.06,0,0,1,0,0h0L389.66,474.54l.31.73,0,.05Z" style="fill:#FFA52E"></path><g style="opacity:0.4"><path d="M390,475.32v0H143.77l57.37-385h0a.06.06,0,0,1,0,0c-.21-1.66,7.55-4,17.59-5.4l1.4-.19.91-.11c10.31-1.21,18.68-.85,18.89.84a.06.06,0,0,1,0,0h0L389.66,474.54l.31.73,0,.05Z" style="fill:#fff"></path></g><g style="opacity:0.4"><path d="M358.28,475.34h-186L206.61,89.66h0s0,0,0,0c-.21-1.64,5.11-3.67,12.12-4.72l1.4-.19.91-.11c7.28-.8,13.2-.15,13.41,1.53,0,0,0,0,0,0h0Z" style="fill:#fff"></path></g><g style="opacity:0.4"><path d="M338.28,475.34h-146L206.61,89.66h0s0,0,0,0c-.21-1.64,5.11-3.67,12.12-4.72l1.4-.19.91-.11c7.28-.8,13.2-.15,13.41,1.53,0,0,0,0,0,0h0Z" style="fill:#fff"></path></g></g></g><g id="freepik--Stars--inject-483"><polygon points="340.79 363.98 336.17 364.83 335.13 369.71 334.1 364.83 329.47 363.98 334.08 362.85 335.13 358.24 336.19 362.85 340.79 363.98" style="fill:#FFA52E"></polygon><polygon points="198.83 184.43 194.2 185.29 193.17 190.17 192.13 185.29 187.51 184.43 192.12 183.3 193.17 178.69 194.22 183.3 198.83 184.43" style="fill:#FFA52E"></polygon><polygon points="255.6 221.64 250.98 222.49 249.94 227.37 248.91 222.49 244.28 221.63 248.89 220.51 249.94 215.9 251 220.51 255.6 221.64" style="fill:#FFA52E"></polygon><polygon points="238.79 96.36 234.16 97.22 233.13 102.1 232.09 97.22 227.46 96.36 232.07 95.23 233.13 90.63 234.18 95.23 238.79 96.36" style="fill:#FFA52E"></polygon><polygon points="313.31 423.64 308.68 424.5 307.65 429.37 306.61 424.5 301.98 423.64 306.59 422.51 307.65 417.9 308.7 422.51 313.31 423.64" style="fill:#FFA52E"></polygon><polygon points="190.67 258.59 188.09 259.06 187.51 261.79 186.93 259.06 184.34 258.58 186.92 257.95 187.51 255.38 188.1 257.95 190.67 258.59" style="fill:#FFA52E"></polygon><polygon points="334.25 381.46 331.66 381.94 331.08 384.67 330.5 381.94 327.92 381.46 330.49 380.83 331.08 378.25 331.67 380.83 334.25 381.46" style="fill:#FFA52E"></polygon><polygon points="167.12 378.25 164.53 378.73 163.95 381.46 163.38 378.73 160.79 378.25 163.36 377.62 163.95 375.05 164.54 377.62 167.12 378.25" style="fill:#FFA52E"></polygon><polygon points="259.07 314.1 256.49 314.58 255.91 317.31 255.33 314.58 252.74 314.1 255.32 313.47 255.91 310.89 256.5 313.47 259.07 314.1" style="fill:#FFA52E"></polygon><polygon points="374.91 418.65 372.32 419.13 371.75 421.86 371.17 419.13 368.58 418.65 371.16 418.02 371.75 415.44 372.34 418.02 374.91 418.65" style="fill:#FFA52E"></polygon><polygon points="243.85 204.99 241.26 205.47 240.69 208.2 240.11 205.47 237.52 204.99 240.1 204.36 240.69 201.78 241.28 204.36 243.85 204.99" style="fill:#FFA52E"></polygon><polygon points="235.19 391.53 232.6 392.01 232.02 394.73 231.44 392.01 228.86 391.53 231.43 390.9 232.02 388.32 232.61 390.9 235.19 391.53" style="fill:#FFA52E"></polygon><polygon points="212.2 165.76 209.62 166.24 209.04 168.97 208.46 166.24 205.87 165.76 208.45 165.13 209.04 162.55 209.63 165.13 212.2 165.76" style="fill:#FFA52E"></polygon><polygon points="251.96 134.37 249.37 134.85 248.79 137.58 248.22 134.85 245.63 134.37 248.2 133.74 248.79 131.16 249.38 133.74 251.96 134.37" style="fill:#FFA52E"></polygon><path d="M321.28,285.52a.75.75,0,0,0,0,1.5A.75.75,0,0,0,321.28,285.52Z" style="fill:#FFA52E"></path><path d="M235,195.53a.75.75,0,0,0,0,1.5A.75.75,0,0,0,235,195.53Z" style="fill:#FFA52E"></path><path d="M226.53,107.15a.75.75,0,0,0,0,1.5A.75.75,0,0,0,226.53,107.15Z" style="fill:#FFA52E"></path><path d="M176.31,274.57a.75.75,0,0,0,0,1.5A.75.75,0,0,0,176.31,274.57Z" style="fill:#FFA52E"></path><path d="M234.27,336.2a.75.75,0,0,0,0,1.5A.75.75,0,0,0,234.27,336.2Z" style="fill:#FFA52E"></path><path d="M313.55,261.38a.53.53,0,0,0,0,1.06A.53.53,0,0,0,313.55,261.38Z" style="fill:#FFA52E"></path><path d="M165.79,408.92a.53.53,0,0,0,0,1.06A.53.53,0,0,0,165.79,408.92Z" style="fill:#FFA52E"></path><path d="M268.53,228.41a.54.54,0,0,0,0,1.07A.54.54,0,0,0,268.53,228.41Z" style="fill:#FFA52E"></path><path d="M238.68,118.84a.53.53,0,0,0,0,1.06A.53.53,0,0,0,238.68,118.84Z" style="fill:#FFA52E"></path><path d="M201.23,130.2a.53.53,0,0,0,0,1.06A.53.53,0,0,0,201.23,130.2Z" style="fill:#FFA52E"></path><path d="M200,243.06a.53.53,0,0,0,0,1.06A.53.53,0,0,0,200,243.06Z" style="fill:#FFA52E"></path><path d="M278.72,197.48a1.44,1.44,0,0,0,0,2.88A1.44,1.44,0,0,0,278.72,197.48Z" style="fill:#FFA52E"></path><path d="M172.28,398.76a1.44,1.44,0,0,0,0,2.87A1.44,1.44,0,0,0,172.28,398.76Z" style="fill:#FFA52E"></path><path d="M206.8,238.18a1.44,1.44,0,0,0,0,2.87A1.44,1.44,0,0,0,206.8,238.18Z" style="fill:#FFA52E"></path><path d="M319.89,368.51a1.44,1.44,0,0,0,0,2.88A1.44,1.44,0,0,0,319.89,368.51Z" style="fill:#FFA52E"></path><path d="M241.84,151.39a1.44,1.44,0,0,0,0,2.88A1.44,1.44,0,0,0,241.84,151.39Z" style="fill:#FFA52E"></path><polygon points="274.92 400.19 272.33 400.67 271.75 403.4 271.17 400.67 268.59 400.19 271.16 399.56 271.75 396.99 272.34 399.56 274.92 400.19" style="fill:#FFA52E"></polygon><path d="M261.64,384.66a.54.54,0,0,0,0,1.07A.54.54,0,0,0,261.64,384.66Z" style="fill:#FFA52E"></path><path d="M264.8,417.21a1.44,1.44,0,0,0,0,2.88A1.44,1.44,0,0,0,264.8,417.21Z" style="fill:#FFA52E"></path></g><g id="freepik--Character--inject-483"><path d="M198.07,336.92l20.58,18.17c4.15,4.19,10.55,10.14,10.65,11.23-.41,2.08-33.18,36.77-34.71,37.58s-4-3.5-3.77-5.83,6.8-21,6.8-21l-20.5-19.23Z" style="fill:#ad6359"></path><path d="M190.82,398.07c.11-1.18,1.81-6.42,3.48-11.38-.89,5.69-.37,16.68,25.11-30.84,4.12,4.11,9.79,9.44,9.88,10.47-.4,2.08-33.16,36.77-34.7,37.58S190.62,400.4,190.82,398.07Z" style="fill:#263238"></path><path d="M239.84,280.41s-7.41,6-11.83,7.8c0,0-53.62,14.52-66.15,22.43-4.29,2.72-9.37,16.14-5.46,23.17,9.17,16.49,34.16,39.93,34.16,39.93l22.49-23.59L190.79,329c9.19-4.12,55.48-7.73,72.51-29.12Z" style="fill:#37474f"></path><path d="M207.55,346.54a285.62,285.62,0,0,1-19.42,21.11.14.14,0,0,1-.21-.19c1.51-1.9,15.73-17.52,19.49-21.08C207.49,346.3,207.62,346.45,207.55,346.54Z" style="fill:#263238"></path><path d="M202.89,347.1c-3.4-3-6.74-6.16-10-9.3q-2.47-2.37-4.87-4.82c-.8-.82-1.59-1.64-2.36-2.49-.38-.43-.76-.86-1.12-1.32-.18-.22-.36-.46-.52-.7a3.26,3.26,0,0,1-.24-.4,1,1,0,0,1-.14-.62.59.59,0,0,1,.28-.33,1.2,1.2,0,0,1,.21-.13l.42-.19.81-.31c.55-.19,1.09-.37,1.64-.53,1.1-.34,2.2-.65,3.3-.95,2.2-.6,4.41-1.17,6.62-1.74L210.16,320c8.85-2.18,17.73-4.29,26.48-6.81,1.09-.32,2.18-.65,3.25-1a18.94,18.94,0,0,0,3.11-1.31,47.9,47.9,0,0,0,5.75-3.63,101.7,101.7,0,0,0,10.46-8.78A93.83,93.83,0,0,1,249,307.51a46.64,46.64,0,0,1-5.75,3.77,19.36,19.36,0,0,1-3.16,1.4c-1.08.39-2.17.74-3.26,1.08-4.37,1.36-8.79,2.5-13.2,3.65s-8.85,2.26-13.27,3.35L197.07,324c-2.22.55-4.42,1.1-6.63,1.69l-3.28.91c-.55.15-1.09.32-1.63.49l-.78.29a3.17,3.17,0,0,0-.37.16l-.15.08s-.08.1,0,0,0,.1.09.2.12.22.19.33a7.76,7.76,0,0,0,.49.68c.34.44.71.87,1.08,1.3.74.86,1.52,1.69,2.3,2.52,1.56,1.65,3.17,3.27,4.77,4.89C196.33,340.75,199.61,343.92,202.89,347.1Z" style="fill:#263238"></path><path d="M263.3,299.83c-7.75,10.23-12.88,10.74-17.82,13.3-11.77,6.06-32.39,9.73-45.45,13l41.38-44.39Z" style="fill:#263238"></path><path d="M216.5,383.83s3.63,30.64,3.64,30.66c.72,5.85,1.25,11,1.28,13.69,0,0,0,0,0,0a4.14,4.14,0,0,1-.21,1.87s0,0,0,0c-1.59,1.39-48.22,8.56-49.93,8.26s-1-5.19.59-6.91S190.06,419,190.06,419l-3.35-30.67Z" style="fill:#ad6359"></path><path d="M219.89,405.35l-34.36,2.87s-4.15-38.84-.3-58.51c1.93-9.84,29.32-37.89,45.45-53.71l-1.05-1.95c1.22-2.87,5.72-8.4,10.21-13.64l25,20.74s-8.66,18.79-20.52,21.13c0,0-27.56,28.42-28.39,32.06C214.18,362.2,219.89,405.35,219.89,405.35Z" style="fill:#37474f"></path><path d="M183.71,367c-.08-2.84,0-8.07.26-10.91.1-1.42.26-2.83.47-4.25a21,21,0,0,1,1-4.21,34.56,34.56,0,0,1,4.38-7.38c.85-1.14,1.73-2.26,2.63-3.36s1.85-2.16,2.83-3.18c-1.69,2.28-3.36,4.57-4.94,6.91a42.22,42.22,0,0,0-4.12,7.3,22.38,22.38,0,0,0-1,4.05c-.24,1.39-.41,2.79-.6,4.19s-.33,2.81-.46,4.22Z" style="fill:#263238"></path><path d="M261,300.26a46.09,46.09,0,0,1-3.24,5.39,51.17,51.17,0,0,1-3.89,4.94,37.67,37.67,0,0,1-4.64,4.28,26.89,26.89,0,0,1-5.47,3.19l.1-.06c-5.37,5.34-10.71,10.71-15.91,16.21q-3.91,4.13-7.66,8.38-1.87,2.13-3.65,4.33a37.61,37.61,0,0,0-3.25,4.57c-.12.2-.2.41-.3.61a3.35,3.35,0,0,0-.24.61,2.21,2.21,0,0,0-.12.65l-.08.68c-.08.92-.1,1.87-.11,2.81,0,1.88.05,3.77.11,5.66.15,3.78.36,7.56.6,11.34q.75,11.34,1.66,22.67-1.29-11.29-2.21-22.63c-.29-3.78-.58-7.56-.76-11.35-.07-1.89-.14-3.79-.14-5.7,0-.95,0-1.9.09-2.87l.09-.73a2.54,2.54,0,0,1,.14-.74,3.17,3.17,0,0,1,.27-.71c.11-.22.2-.46.33-.67a36.25,36.25,0,0,1,3.29-4.7c1.18-1.49,2.41-2.95,3.66-4.38,2.5-2.85,5.09-5.62,7.71-8.37q7.86-8.22,16.07-16.09l0,0,.06,0a26.61,26.61,0,0,0,5.4-3,39.65,39.65,0,0,0,4.65-4.14,47.22,47.22,0,0,0,4-4.81A50.33,50.33,0,0,0,261,300.26Z" style="fill:#263238"></path><path d="M234.91,301.09A34.68,34.68,0,0,0,231.4,296c-1.37-1.64-2.9-3.12-4.39-4.65-.07-.07-.2,0-.13.11,1.38,1.56,2.62,3.25,3.91,4.88s2.63,3.23,4,4.8C234.85,301.21,235,301.16,234.91,301.09Z" style="fill:#263238"></path><path d="M237,289.53c1.21-1.77,2.38-3.59,3.49-5.42.06-.08-.06-.16-.12-.09-1.21,1.5-2.38,3-3.53,4.58-.57.76-1.13,1.54-1.68,2.32-.37.52-1.36,2.18-2.15,1.53s-.13-1.71.2-2.37c.45-.9.94-1.79,1.46-2.65,1-1.69,2.14-3.3,3.25-4.92,0-.07-.05-.18-.12-.11a27.65,27.65,0,0,0-3.39,4.3c-.5.77-1,1.56-1.44,2.37a7.79,7.79,0,0,0-1,2.09,2.13,2.13,0,0,0,.5,1.78l-.06,0c-.1.12-.18.25-.27.37-.2.28-.41.55-.6.83L231,295a4.79,4.79,0,0,0-.47.86.08.08,0,0,0,.13.09,5.23,5.23,0,0,0,.65-.68l.66-.79.59-.79c.09-.13.21-.26.29-.4l0-.07a1.19,1.19,0,0,0,1,0,4.15,4.15,0,0,0,1.55-1.48C236,291,236.46,290.28,237,289.53Z" style="fill:#263238"></path><path d="M253.84,305a14.1,14.1,0,0,1-1.65-.59,6.21,6.21,0,0,1-1.51-1.08,7.22,7.22,0,0,1-2-3.31,10.25,10.25,0,0,1-.19-4.09,16.89,16.89,0,0,1,.39-2c.18-.74.34-1.5.56-2.23,0-.09-.12-.14-.15-.06-.19.41-.43.8-.61,1.21s-.26.69-.37,1a14.08,14.08,0,0,0-.57,2.28,10.37,10.37,0,0,0,.21,4.4,6.89,6.89,0,0,0,2.26,3.43,4.44,4.44,0,0,0,3.6,1.09S253.89,305,253.84,305Z" style="fill:#263238"></path><path d="M216,399.3a285.34,285.34,0,0,1-28.63,1.62.14.14,0,0,1,0-.28c2.41-.31,23.5-1.62,28.67-1.55C216.14,399.09,216.13,399.28,216,399.3Z" style="fill:#263238"></path><path d="M221.21,430.08s0,0,0,0c-1.61,1.4-48.23,8.57-49.94,8.28s-1-5.2.59-6.92c.87-.94,6.1-4.49,10.74-7.56-4.39,3-15.08,12.87,38.21-3.83.38,3.44.61,6.31.64,8.09,0,0,0,0,0,0A3.91,3.91,0,0,1,221.21,430.08Z" style="fill:#263238"></path><path d="M294.41,265.48c-11.34,2-27.38-9.56-32.66-26-4.47-13.88,5.46-31.43,16.18-34.3a16.57,16.57,0,0,1,21.21,13.94c.87,9.13-5.29,14.88-3.36,21.42.92,3.13,4.92,6.94,6.48,11.5C304,257.18,300.23,264.46,294.41,265.48Z" style="fill:#263238"></path><path d="M300.44,248.34a35.72,35.72,0,0,1-3.08-5,13.84,13.84,0,0,1-1.52-5.74,9,9,0,0,1,.56-3c.3-.94.65-1.86,1-2.77a56.19,56.19,0,0,0,1.82-5.55,22.09,22.09,0,0,0,.85-5.7A14.33,14.33,0,0,0,299,215a14.18,14.18,0,0,0-3.26-4.72,24.37,24.37,0,0,0-4.63-3.56A22.58,22.58,0,0,1,296,210a14.68,14.68,0,0,1,3.53,4.76,13.9,13.9,0,0,1,1.24,5.82,23.3,23.3,0,0,1-.8,5.89,56.6,56.6,0,0,1-1.91,5.59c-.35.91-.7,1.83-1,2.74a9.34,9.34,0,0,0-.59,2.77,13.39,13.39,0,0,0,1.29,5.58A40.63,40.63,0,0,0,300.44,248.34Z" style="fill:#263238"></path><path d="M292,265.71c-4.21-.06-11.1,0-21.78-9.19a25.8,25.8,0,0,1-4.29-4.69,14.67,14.67,0,0,1-.89-1.33c-.28-.45-.58-.89-.82-1.36s-.5-.94-.74-1.41l-.62-1.47a32.67,32.67,0,0,1-2.19-12.39c.11,1,.15,2.1.3,3.13s.28,2.08.54,3.09a29.18,29.18,0,0,0,1.87,5.95,26.84,26.84,0,0,0,7.31,9.93c8,7.12,13.06,8.32,15.1,8.77A44.58,44.58,0,0,0,292,265.71Z" style="fill:#263238"></path><path d="M272.75,271c5.83,20.34,9.73,57.94,10,64,.16,4.1-20.29,4.71-20.88,2-.7-3.25.84-50,3-66.56C266.1,261.3,271.23,265.74,272.75,271Z" style="fill:#ad6359"></path><path d="M261.93,333.08c-.37,8.07.37,16.8,5,23.86a4.19,4.19,0,0,0,2.13,1.72c2,3.2,4.14,3.21,4.14,3.21,2.79,2.4,5,2.11,5,2.11s2.41,3.73,4.91,2.65c2.81-1.21-1.13-6.22-1.62-10.29-1.1-9.34-.07-22.93-.12-25.65Z" style="fill:#ad6359"></path><path d="M273.41,347.37a60.56,60.56,0,0,0,1.44,8.12,61.85,61.85,0,0,0,3.34,8.39.07.07,0,1,1-.12.07,32,32,0,0,1-4.78-16.57C273.29,347.25,273.39,347.23,273.41,347.37Z" style="fill:#263238"></path><path d="M267.68,347.22a44.59,44.59,0,0,0,5.6,14.6s0,.06,0,0a28.69,28.69,0,0,1-5.69-14.61C267.54,347.07,267.65,347,267.68,347.22Z" style="fill:#263238"></path><path d="M264.6,347.19a44.87,44.87,0,0,0,4.47,11.45s0,.05-.05,0c-3-4.61-3.56-6.63-4.58-11.45C264.4,347,264.56,347,264.6,347.19Z" style="fill:#263238"></path><path d="M280.89,343.7c-.12-1.32.57-1.39,2.18.31s6.53,9.8,9.21,7.84-4-14.25-6.88-16.88a31.23,31.23,0,0,1-4.07-4.28C280.57,333,279.1,338.8,280.89,343.7Z" style="fill:#ad6359"></path><path d="M278.31,287.12,262.6,281a127.27,127.27,0,0,1,2.33-13c1.66-6,6.79-7.15,10.13-.24C277.29,272.46,278.31,287.12,278.31,287.12Z" style="fill:#FFA52E"></path><path d="M264.52,281.79c-.16-.1-1.75-.77-1.88-.79.15-1,.32-2,.46-2.95.07-.5.13-1,.18-1.49s.16-1.16.21-1.64c0-.08-.08-.09-.1,0-.13.62-.21,1.09-.32,1.62s-.19,1-.26,1.45c-.17,1-.38,2.11-.5,3.14a18,18,0,0,0,2.19.74S264.54,281.8,264.52,281.79Z" style="fill:#263238"></path><path d="M277.29,285c-2.22-1-4.46-2.05-6.74-3-1.14-.45-2.28-.89-3.43-1.31s-2.35-.72-3.49-1.15c-.07,0-.1.08,0,.1,1.17.37,2.29.91,3.43,1.34s2.29.88,3.43,1.34c2.28.89,4.56,1.79,6.81,2.74C277.32,285.14,277.35,285,277.29,285Z" style="fill:#263238"></path><path d="M278.31,287.11l-8.74-3.38,4.81-17.14c.23.39.46.8.68,1.25C277.3,272.46,278.31,287.11,278.31,287.11Z" style="opacity:0.1"></path><path d="M231.59,283.44l29.57,25.38S276.6,286.45,279,274.07c1.09-5.64-1.69-8.37-5.78-9.41-1-.26-17.25-.89-21.34,1-3.62,1.7-5.27,6.85-5.27,6.85Z" style="fill:#FFA52E"></path><path d="M256.37,281.48a34.39,34.39,0,0,0-3.54-3.6c-.64-.55-1.3-1.06-2-1.56-.34-.25-.66-.5-1-.77a5.05,5.05,0,0,1-.94-.91s-.07,0-.05,0a10.33,10.33,0,0,0,.74,1,8.43,8.43,0,0,0,.86.83c.64.56,1.31,1.09,2,1.64,1.31,1.11,2.61,2.22,3.84,3.43C256.32,281.63,256.42,281.54,256.37,281.48Z" style="fill:#263238"></path><path d="M257.54,285.73a34.81,34.81,0,0,0-2.23-3.52c-.41-.57-.85-1.1-1.3-1.63l-.66-.74c-.25-.27-.53-.51-.78-.78,0,0-.07,0,0,0,.23.27.4.57.61.84l.62.84c.41.56.82,1.12,1.24,1.67.84,1.11,1.66,2.22,2.46,3.36C257.49,285.86,257.58,285.79,257.54,285.73Z" style="fill:#263238"></path><path d="M261.8,277.26a3.27,3.27,0,0,0,1,2.61l-.06-.5.8.34a3.68,3.68,0,0,1-.85-2.68Z" style="fill:#fff"></path><path d="M263.58,279.71l-.8-.34.06.5c-.15-.16-.28-.33-.4-.48l.73-.28A3,3,0,0,0,263.58,279.71Z" style="fill:#263238"></path><path d="M257.55,273.46a3.25,3.25,0,0,0-2.81,0l.49.13-.62.61a3.63,3.63,0,0,1,2.8.23Z" style="fill:#fff"></path><path d="M254.61,274.18l.62-.61-.49-.13a4.11,4.11,0,0,1,.6-.19l0,.77A2.94,2.94,0,0,0,254.61,274.18Z" style="fill:#263238"></path><path d="M260,270.08c.68-.07,4.5,2.43,5.09,3.46s-2.23,5.39-2.92,5.12-5.51-3.16-5.53-4.31S259.51,270.12,260,270.08Z" style="fill:#fff"></path><path d="M265.77,274c-.41.5-.7.28-.87.11l0,0c-.13-.18.09-.54.1-.57.06-.2.66.36,1-.71,0-.12.12,0,.13.27A1.48,1.48,0,0,1,265.77,274Z" style="fill:#fff"></path><path d="M266.5,271.44a1,1,0,0,0-.87.54.64.64,0,0,0,.23.81.34.34,0,0,0,.51-.19c.1-.29-.2-.58-.2-.71S266.27,271.65,266.5,271.44Z" style="fill:#263238"></path><path d="M258,273.84h0a2.15,2.15,0,0,1-1.3.08,10.52,10.52,0,0,1,2.08-2.86,1.16,1.16,0,0,1,.34.12,1,1,0,0,1,.38.95A2,2,0,0,1,258,273.84Z" style="fill:#263238"></path><path d="M262.15,278.66a6.48,6.48,0,0,1-.81-.42,2.5,2.5,0,0,1,.09-1.31,1.4,1.4,0,0,1,1.2-.8c.21,0,.35,0,.49-.19s.16-.31.25-.46a.82.82,0,0,1,1.41-.22C264.09,276.86,262.62,278.84,262.15,278.66Z" style="fill:#263238"></path><path d="M264,273.9c-.44.3-1,.31-1.45.61-.23.17-.38.43-.64.58a.92.92,0,0,1-.63.11,1.54,1.54,0,0,1-1.19-.81,1.1,1.1,0,0,1,.23-1.23,1.26,1.26,0,0,0,.33-.73,6.09,6.09,0,0,1,.1-.73,1.17,1.17,0,0,1,.86-.88h0a18.51,18.51,0,0,1,2.93,2.14A1.29,1.29,0,0,1,264,273.9Z" style="fill:#263238"></path><path d="M257.32,274.34a3.23,3.23,0,0,0-1.47,2.39l.36-.35.21.84a3.63,3.63,0,0,1,1.64-2.28Z" style="fill:#fff"></path><path d="M256.42,277.22l-.21-.84-.36.35a3.63,3.63,0,0,1,.15-.61l.65.42A2.63,2.63,0,0,0,256.42,277.22Z" style="fill:#263238"></path><path d="M260.27,277.29a3.3,3.3,0,0,0,.13,2.81l.11-.49.64.58a3.67,3.67,0,0,1,.08-2.81Z" style="fill:#fff"></path><path d="M261.15,280.19l-.64-.58-.11.49a5.37,5.37,0,0,1-.22-.59l.78,0A2.92,2.92,0,0,0,261.15,280.19Z" style="fill:#263238"></path><path d="M260.92,267.5a1.47,1.47,0,0,0-.66-.41l-.09,0V267c.06-.51.84-1,.77-.74l0,.13a2,2,0,0,0,0,1.08C261,267.53,261,267.55,260.92,267.5Z" style="fill:#dbdbdb"></path><path d="M262.11,270.5a2.56,2.56,0,0,0,0-.83h0a.17.17,0,0,0,0-.07c0-.21.16.35,1.13.62.07,0,.06.06,0,.11A1.13,1.13,0,0,1,262.11,270.5Z" style="fill:#dbdbdb"></path><path d="M256.44,267.89c.62-.23,3.15-1.06,3.92-.82s2.26,2.56,1.85,3.35c-.13.26-3.4,2.52-3.4,2.52Z" style="fill:#fff"></path><path d="M259.59,272.4l-.78.54-2.37-5.05c.62-.23,3.15-1.06,3.92-.82a4.51,4.51,0,0,1,1.87,2.62,1.11,1.11,0,0,1,0,.73A27.54,27.54,0,0,1,259.59,272.4Z" style="fill:#fff"></path><path d="M257.38,268.07a.26.26,0,0,0-.41.31A.26.26,0,0,0,257.38,268.07Z" style="fill:#263238"></path><path d="M259.41,271.6a.25.25,0,0,0-.4.31C259.2,272.17,259.61,271.86,259.41,271.6Z" style="fill:#263238"></path><path d="M258.44,273.23s-.56.5-.82.4a5,5,0,0,1-2.21-2.36,5.7,5.7,0,0,1-.61-2,.84.84,0,0,1,.09-.47,1.83,1.83,0,0,1,.67-.54c-.1-.44.41-.44.45-.19a2.22,2.22,0,0,1,.43-.16,21.11,21.11,0,0,1,2.63,4.87l-.26.18C259,273.15,258.65,273.56,258.44,273.23Z" style="fill:#FFA52E"></path><path d="M258.44,273.23s-.56.5-.82.4a5,5,0,0,1-2.21-2.36,5.7,5.7,0,0,1-.61-2,.84.84,0,0,1,.09-.47,1.83,1.83,0,0,1,.67-.54c-.1-.44.41-.44.45-.19a2.22,2.22,0,0,1,.43-.16,21.11,21.11,0,0,1,2.63,4.87l-.26.18C259,273.15,258.65,273.56,258.44,273.23Z" style="fill:#fff;opacity:0.6000000000000001"></path><g style="opacity:0.1"><path d="M255.83,268a.12.12,0,0,0-.18.1s0,0,0,0,.06-.06.1-.05.06.09,0,.11,0,0,0,0A.1.1,0,0,0,255.83,268Z"></path><path d="M258.75,273.06c0-.11-.15-.1-.22,0s0,.05,0,0a.09.09,0,0,1,.12,0,.07.07,0,0,1-.06.11c-.05,0-.06,0,0,0A.11.11,0,0,0,258.75,273.06Z"></path></g><path d="M259.59,272.4a1.18,1.18,0,0,1,.12-.36c.12-.23.38-.46.42-.72a2,2,0,0,0-.14-.76,2.19,2.19,0,0,1-.11-.67.86.86,0,0,1,.73-.84,1.75,1.75,0,0,1,1.19.3,2.08,2.08,0,0,1,.43.34,1.11,1.11,0,0,1,0,.73A27.54,27.54,0,0,1,259.59,272.4Z" style="fill:#263238"></path><path d="M259.14,269.75c.25-.21.24-.56.43-.8a.94.94,0,0,0,.14-1.12.6.6,0,0,0-.74-.23.52.52,0,0,0-.29.31c-.05.14,0,.32-.06.45s-.32.18-.43.29a.54.54,0,0,0-.18.33.89.89,0,0,0,.36.81A.6.6,0,0,0,259.14,269.75Z" style="fill:#263238"></path><path d="M281.87,272.32c13.55,16.25,32.3,49.08,35,54.5,1.81,3.68-17.43,13.65-18.28,11-1.09-3.43-19.46-46.87-24.12-62.87C271.86,266.1,278.34,268.09,281.87,272.32Z" style="fill:#ad6359"></path><path d="M304.35,346.66c4.55,4.6,6.42,5.08,8.2,11,1.16,3.89,4.14,4.81,4.95.67,1.31-6.77-3.31-13.93-5.63-15.95Z" style="fill:#ad6359"></path><path d="M296,330.25s2,8.94,6.38,14.32c3,3.72,10.48,11.08,24.61,9,3.35-.5,7.77-3.6,2-4.77-4.1-.83-6.95-.12-9.25-1,0,0,5.16-4.6,4.53-7.94a61.73,61.73,0,0,0-2.28-8.61,14.46,14.46,0,0,0-1.65.28s-.88-3.06-5-5.63Z" style="fill:#ad6359"></path><path d="M305.79,347.66c2.48.43,7.73,1.25,12.26.43,5-.92,14.49-4,13.78-7.75-.53-2.72-4.24-1.84-4.24-1.84s3.64-2.12,2.63-4.47c-.92-2.14-3.76-1.3-3.76-1.3s2-1.66.7-3.55c-1.54-2.28-5.45,1.57-9,.62C317.35,329.58,305.79,347.66,305.79,347.66Z" style="fill:#ad6359"></path><path d="M316.2,342.93a20.4,20.4,0,0,0,11.36-4.33c.08-.07.07-.17,0-.12a50,50,0,0,1-11.35,4.4A0,0,0,0,0,316.2,342.93Z" style="fill:#263238"></path><path d="M315.43,337.82a22.86,22.86,0,0,0,11.07-5c.08-.07.07-.17,0-.12a53.45,53.45,0,0,1-11.07,5.07S315.4,337.82,315.43,337.82Z" style="fill:#263238"></path><path d="M293.46,284.79l-16.83.78a127.45,127.45,0,0,1-3.1-12.8c-.92-6.19,1.16-8,7-3C284.45,273.08,293.46,284.79,293.46,284.79Z" style="fill:#FFA52E"></path><path d="M278.68,285.48c-.18,0-1.91,0-2,0-.26-1-.51-1.93-.78-2.89-.13-.48-.27-1-.42-1.43s-.33-1.13-.48-1.59a.05.05,0,1,0-.1,0c.13.62.25,1.08.37,1.62s.21,1,.34,1.43c.26,1,.5,2.08.81,3.07a16.77,16.77,0,0,0,2.3-.21A0,0,0,0,0,278.68,285.48Z" style="fill:#263238"></path><path d="M291.68,283.27c-2.46,0-4.91-.07-7.37,0-1.22,0-2.45.1-3.67.18s-2.44.29-3.66.36c-.07,0-.06.11,0,.1,1.22-.13,2.46-.09,3.68-.15l3.67-.17c2.45-.09,4.9-.19,7.35-.23C291.75,283.38,291.74,283.27,291.68,283.27Z" style="fill:#263238"></path><path d="M278.34,270.07c-.69.3-6.63.34-8.51-2.46-.61-.91,4.21-4.47,4.21-4.47l.3-.35,4.15-4.82L286.6,261l1.12.47s-1.22,1.25-2.76,2.78l-.22.22-.24.25c-.23.23-.46.47-.7.7s-.35.35-.55.53l-.57.54A40.31,40.31,0,0,1,278.34,270.07Z" style="fill:#ad6359"></path><path d="M285,264.28a12.77,12.77,0,0,1-10.62-1.49l4.15-4.82L286.6,261l1.12.47S286.5,262.75,285,264.28Z" style="fill:#263238"></path><path d="M282.36,243.8c-10.53,3.71-9.49,10.44-8.69,12.71.73,2.05,3.48,9,14.33,6.37s12.45-8.68,11-13.48S292.88,240.08,282.36,243.8Z" style="fill:#ad6359"></path><path d="M283.58,244.73c.19.17.4.31.61.47a1.34,1.34,0,0,0,.72.36.39.39,0,0,0,.36-.32,1,1,0,0,0-.45-.89,1.46,1.46,0,0,0-1-.35A.42.42,0,0,0,283.58,244.73Z" style="fill:#263238"></path><path d="M288.61,251.89a4.81,4.81,0,0,1-.12-.76,1.22,1.22,0,0,1,0-.8.39.39,0,0,1,.45-.17,1,1,0,0,1,.56.83,1.43,1.43,0,0,1-.16,1A.42.42,0,0,1,288.61,251.89Z" style="fill:#263238"></path><path d="M284.24,251.11s0,.06,0,.07c-.73.23-1.52.62-1.53,1.35,0,0,0,0,0,0C282.46,251.71,283.52,251.21,284.24,251.11Z" style="fill:#263238"></path><path d="M285.21,251.48c.5,1.12-1.79,2-2.24,1S284.8,250.54,285.21,251.48Z" style="fill:#263238"></path><path d="M285.27,252c0,.25-.2.53-.13.78s.41.41.71.5c0,0,0,0,0,.05a.89.89,0,0,1-1.2-.26.9.9,0,0,1,.43-1.14C285.14,251.85,285.29,251.88,285.27,252Z" style="fill:#263238"></path><path d="M282.83,247.12s-.05,0-.08,0c-.7.31-1.55.54-2,0,0,0,0,0,0,0C281.1,247.85,282.22,247.52,282.83,247.12Z" style="fill:#263238"></path><path d="M283.31,246.19c-.37-1.17-2.68-.33-2.33.75S283.63,247.17,283.31,246.19Z" style="fill:#263238"></path><path d="M283,245.76c-.19-.13-.48-.23-.57-.45s.07-.52.26-.77c0,0,0,0,0,0-.45.14-.85.45-.79.91s.55.56,1,.51C283,245.93,283.06,245.82,283,245.76Z" style="fill:#263238"></path><path d="M278.14,255.09a1.14,1.14,0,0,1-.77-.16,2.17,2.17,0,0,1-.42-.72s0,0-.05,0a1,1,0,0,0,.36,1,.82.82,0,0,0,.9,0A0,0,0,0,0,278.14,255.09Z" style="fill:#263238"></path><path d="M278.85,252.86a6.25,6.25,0,0,0-.67-2.8c0-.08.12-.21.2-.24h0l1.5-.4c-.16-.16-.9-1-.61-1.09a36.24,36.24,0,0,1,7.42-1.2.07.07,0,0,1,0,.13c-2.24.61-4.57.83-6.83,1.41a4.36,4.36,0,0,1,.67,1c0,.08-1.61.33-1.84.43a3.6,3.6,0,0,1,.45,2.66C279.05,253.14,278.81,253.34,278.85,252.86Z" style="fill:#263238"></path><path d="M277.18,251.7c0-.47,1.54-1.64,1.86-.94a3.67,3.67,0,0,1-.56,3.46c-.79.82-.72-1.53-1-1.83S277.17,252,277.18,251.7Z" style="fill:#263238"></path><path d="M277.52,252.38a.75.75,0,0,1-.12-.14,1.3,1.3,0,0,1,1.64,1,2.5,2.5,0,0,1-.55.95C277.69,255,277.76,252.69,277.52,252.38Z" style="fill:#ff9abb"></path><path d="M287.52,262.84c-.4-1.19,1.55-5.49,7.1-7.86,0,0-4.83,2.47-5.41,3.15s1.1-2.42,5.55-4.39a19.66,19.66,0,0,1-4.28-3.64c-1.47-1.88-2-3.19-1.88-3.41s2.35,2.51,3.67,3c0,0-4.94-4.58-6.2-7.11-.14-.29,5.24-2.41,9.52.55s4.7,9.73,3.74,12.12c0,0,.49,1.72-1.77,5C295.14,263.78,288,264.11,287.52,262.84Z" style="fill:#263238"></path><path d="M284.13,264.27a2.51,2.51,0,0,1-.34-.42,1.85,1.85,0,0,1-.23-.47,1.48,1.48,0,0,1-.07-.68,1.66,1.66,0,0,1,.12-.51,2.32,2.32,0,0,1,.39-.65l3-.67s4.18.78,4,2.58S285.52,265.67,284.13,264.27Z" style="fill:#ad6359"></path><path d="M289.48,263.53s0,.05,0,0a4.8,4.8,0,0,0-3.74-1,1,1,0,0,1,.91,1.3,0,0,0,0,1-.08,0,1.17,1.17,0,0,0-.9-1,5.94,5.94,0,0,0-1.19-.13c-.13,0-.16-.22,0-.24h0C285.94,261.76,288.59,262,289.48,263.53Z" style="fill:#263238"></path><path d="M284.49,263.93a.52.52,0,1,1,.39-.62A.52.52,0,0,1,284.49,263.93Z" style="fill:#fff"></path><path d="M285.64,264.58a.37.37,0,0,1-.16-.72.37.37,0,1,1,.16.72Z" style="fill:#fff"></path></g></svg>