<svg xmlns="http://www.w3.org/2000/svg" viewBox="0 0 500 500"><g id="freepik--background-complete--inject-949"><path d="M41.54,202.37a3,3,0,0,1,3.09,0l.79.45.82.41A3,3,0,0,1,48,205.82l.11,3.8,12.39-.39-.12-3.8a3,3,0,0,1,1.56-2.67,17,17,0,0,0,1.57-1,3,3,0,0,1,3.07-.2l3.35,1.8,5.86-10.93-3.35-1.79A2.93,2.93,0,0,1,70.88,188a16.35,16.35,0,0,0-.07-1.85,3,3,0,0,1,1.37-2.77l3.23-2-6.53-10.53-3.25,2a2.94,2.94,0,0,1-3.08,0l-.79-.45L61,172a3,3,0,0,1-1.73-2.56l-.12-3.81L46.72,166l.12,3.79a3,3,0,0,1-1.56,2.67,17.11,17.11,0,0,0-1.57,1,3,3,0,0,1-3.08.2l-3.34-1.8-5.86,10.93,3.34,1.79a3,3,0,0,1,1.54,2.67q0,.93.06,1.86A3,3,0,0,1,35,191.85l-3.22,2,6.53,10.53Zm3.1-19.56a10.15,10.15,0,1,1,4.16,13.75A10.16,10.16,0,0,1,44.64,182.81Z" style="fill:#ebebeb"></path><path d="M76.6,158.28a2.07,2.07,0,0,1,1.92-1H79.8a2.06,2.06,0,0,1,1.91,1L83,160.58l7.52-4.34-1.33-2.3a2.07,2.07,0,0,1,.08-2.17,11.19,11.19,0,0,0,.64-1.12,2.08,2.08,0,0,1,1.84-1.14h2.66v-8.68H91.79A2.08,2.08,0,0,1,90,139.69a11.19,11.19,0,0,0-.64-1.12,2.05,2.05,0,0,1-.08-2.16l1.33-2.31L83,129.76l-1.34,2.32a2.06,2.06,0,0,1-1.9,1H78.52a2.07,2.07,0,0,1-1.92-1l-1.33-2.31-7.52,4.34,1.33,2.3a2.07,2.07,0,0,1-.07,2.16,11.42,11.42,0,0,0-.65,1.13,2.08,2.08,0,0,1-1.84,1.14H63.87v8.68h2.65a2.08,2.08,0,0,1,1.84,1.14,11.42,11.42,0,0,0,.65,1.13,2.07,2.07,0,0,1,.07,2.16l-1.33,2.3,7.52,4.34ZM72,145.17a7.11,7.11,0,1,1,7.12,7.11A7.12,7.12,0,0,1,72,145.17Z" style="fill:#ebebeb"></path><path d="M379.76,59.09a2.07,2.07,0,0,1,1,1.92c0,.21,0,.42,0,.64s0,.43,0,.64a2.06,2.06,0,0,1-1,1.91l-2.31,1.33,4.34,7.52,2.3-1.33a2.07,2.07,0,0,1,2.17.08c.36.23.73.45,1.12.65a2.06,2.06,0,0,1,1.14,1.83v2.66h8.68V74.28a2.06,2.06,0,0,1,1.14-1.83c.39-.2.76-.42,1.12-.65a2.07,2.07,0,0,1,2.17-.08l2.3,1.33,4.34-7.52L406,64.19a2.06,2.06,0,0,1-1-1.9c0-.22,0-.43,0-.64s0-.43,0-.64a2.07,2.07,0,0,1,1-1.92l2.31-1.33-4.34-7.52-2.3,1.33a2.05,2.05,0,0,1-2.16-.07,11.42,11.42,0,0,0-1.13-.65A2.07,2.07,0,0,1,397.21,49V46.36h-8.68V49a2.07,2.07,0,0,1-1.14,1.84,11.42,11.42,0,0,0-1.13.65,2.05,2.05,0,0,1-2.16.07l-2.3-1.33-4.34,7.52Zm13.11-4.56a7.12,7.12,0,1,1-7.11,7.12A7.12,7.12,0,0,1,392.87,54.53Z" style="fill:#ebebeb"></path><polygon points="216.5 396.85 403.19 396.85 407.08 320.25 212.61 320.25 216.5 396.85" style="fill:#ebebeb"></polygon><path d="M394.34,355.31h-78l-1.46-26.59h81.22Zm-77.16-.94h76.28l1.59-24.71H315.82Z" style="fill:#dbdbdb"></path><path d="M392.9,385.91H319.35l-1.2-24H394.4ZM320.24,385H392l1.38-22.13H319.14Z" style="fill:#dbdbdb"></path><path d="M362.83,344.9H349.72l-.83-6.42h14.77ZM350.55,344H362l.58-4.53H350Z" style="fill:#dbdbdb"></path><path d="M362.83,377.11H349.72l-.83-6.41h14.77Zm-12.28-.94H362l.58-4.53H350Z" style="fill:#dbdbdb"></path><path d="M302.53,355.31h-78L223,328.72h81.22Zm-77.16-.94h76.28l1.59-24.71H224Z" style="fill:#dbdbdb"></path><path d="M301.09,385.91H227.54l-1.2-24h76.25ZM228.43,385h71.78l1.38-22.13H227.33Z" style="fill:#dbdbdb"></path><path d="M271,344.9H257.91l-.83-6.42h14.77ZM258.74,344h11.45l.59-4.53H258.15Z" style="fill:#dbdbdb"></path><path d="M271,377.11H257.91l-.83-6.41h14.77Zm-12.28-.94h11.45l.59-4.53H258.15Z" style="fill:#dbdbdb"></path><polygon points="233.24 396.85 232.07 405.2 229.71 421.97 225.1 421.97 225.1 396.85 233.24 396.85" style="fill:#ebebeb"></polygon><polygon points="233.24 396.85 232.07 405.2 225.1 405.2 225.1 396.85 233.24 396.85" style="fill:#dbdbdb"></polygon><polygon points="386.45 396.85 387.62 405.2 389.98 421.97 394.59 421.97 394.59 396.85 386.45 396.85" style="fill:#ebebeb"></polygon><polygon points="386.45 396.85 387.62 405.2 394.59 405.2 394.59 396.85 386.45 396.85" style="fill:#dbdbdb"></polygon></g><g id="freepik--Shadow--inject-949"><ellipse cx="361.11" cy="451.92" rx="106.25" ry="18.45" style="fill:#ebebeb"></ellipse><ellipse cx="95.65" cy="452.35" rx="46.8" ry="11.22" style="fill:#ebebeb"></ellipse></g><g id="freepik--Floor--inject-949"><polygon points="29.71 422.48 84.78 422.24 139.85 422.15 250 421.98 360.15 422.15 415.22 422.23 470.29 422.48 415.22 422.72 360.15 422.81 250 422.98 139.85 422.81 84.78 422.72 29.71 422.48" style="fill:#263238"></polygon></g><g id="freepik--Gears--inject-949"><path d="M94.51,46.44a42,42,0,1,0,42,42A42,42,0,0,0,94.51,46.44Zm0,61.58a19.61,19.61,0,1,1,19.61-19.6A19.6,19.6,0,0,1,94.51,108Z" style="fill:#455a64"></path><path d="M70.57,62.25a.37.37,0,0,1,.55-.48L77.6,69.1a.37.37,0,0,1,0,.52.36.36,0,0,1-.51,0Z" style="fill:#fff"></path><path d="M80.43,67.1l-.05,0a.36.36,0,0,1-.46-.18l-4.24-8.81a.36.36,0,0,1,.16-.48l0,0,1.74-.84a5.26,5.26,0,0,1,4.56,9.47Zm1.43-1.51a4.52,4.52,0,0,0-3.93-8.14l-1.43.69,3.92,8.14Z" style="fill:#fff"></path><path d="M87.31,53.58a.36.36,0,0,1,.31-.4h0L93,52.52a.37.37,0,0,1,.4.32.36.36,0,0,1-.32.41l-5,.61.5,4.13L93,57.45a.36.36,0,0,1,.4.33.35.35,0,0,1-.31.4l-4.36.54.5,4.11,5-.61a.35.35,0,0,1,.4.33.36.36,0,0,1-.31.4l-5.32.65h-.07a.37.37,0,0,1-.38-.31Z" style="fill:#fff"></path><path d="M102.78,61.52l-4.68-1-1.43,2.23a.37.37,0,0,1-.38.16l-.13,0a.39.39,0,0,1-.11-.52l5.6-8.76a.4.4,0,0,1,.4-.15.37.37,0,0,1,.3.3L103.89,64a.36.36,0,0,1-.29.42h-.14a.38.38,0,0,1-.28-.31Zm-4.26-1.66,4.15.88-.89-6Z" style="fill:#fff"></path><polygon points="102.58 48.18 86.44 48.18 87.33 36.76 101.69 36.76 102.58 48.18" style="fill:#455a64"></polygon><polygon points="71.85 53.62 60.44 65.04 52.99 56.33 63.14 46.17 71.85 53.62" style="fill:#455a64"></polygon><polygon points="53.97 79.2 53.97 95.34 42.55 94.45 42.55 80.09 53.97 79.2" style="fill:#455a64"></polygon><polygon points="59.41 109.92 70.83 121.34 62.12 128.79 51.96 118.64 59.41 109.92" style="fill:#455a64"></polygon><polygon points="84.98 127.81 101.13 127.81 100.24 139.23 85.88 139.23 84.98 127.81" style="fill:#455a64"></polygon><polygon points="115.71 122.37 127.13 110.95 134.58 119.66 124.42 129.82 115.71 122.37" style="fill:#455a64"></polygon><polygon points="133.59 96.79 133.59 80.65 145.02 81.54 145.02 95.9 133.59 96.79" style="fill:#455a64"></polygon><polygon points="128.16 66.06 116.74 54.65 125.45 47.2 135.6 57.35 128.16 66.06" style="fill:#455a64"></polygon><path d="M97.3,78.17V97.81a1.86,1.86,0,0,1-1.87,1.83,1.81,1.81,0,0,1-1.83-1.83V81.43l-1.33.76a1.66,1.66,0,0,1-.93.27,1.87,1.87,0,0,1-1-3.43l4.1-2.43s.1,0,.13-.07.1-.06.17-.1l.19,0a.24.24,0,0,1,.14,0,.45.45,0,0,1,.23,0h.37s.1,0,.13,0a.39.39,0,0,1,.2.06s.1,0,.13,0,.14.1.2.1l.14.1s.1.06.13.1.1.1.13.13a.34.34,0,0,1,.1.13l.14.14,0,.06s0,.07,0,.1.07.1.07.17,0,.13.07.17a1.57,1.57,0,0,0,0,.16.29.29,0,0,0,.07.24Z" style="fill:#263238"></path><path d="M135.26,43.91c-1.19,10.11-7.69,12-8.78,14.66a45.58,45.58,0,0,0-1.36,5.17H114.55a44.89,44.89,0,0,0-1.35-5.17c-1.08-2.7-7.58-4.57-8.75-14.69-.77-6.64,4.24-17.13,15.42-17.12S136,37.26,135.26,43.91Z" style="fill:#FFA52E"></path><rect x="115.33" y="47.46" width="0.69" height="17.1" transform="translate(-8.28 22.03) rotate(-10.51)" style="fill:#fff"></rect><rect x="115.46" y="55.68" width="17.1" height="0.69" transform="translate(46.06 167.56) rotate(-79.36)" style="fill:#fff"></rect><path d="M119.85,53.24h0a3.21,3.21,0,0,1-2.46-2,1.27,1.27,0,0,1-.89.47h0c-1.61,0-2.25-3.3-2.27-3.44l.34-.06c.16.87.83,3.15,1.93,3.15h0a1.06,1.06,0,0,0,.73-.45,7.38,7.38,0,0,1-.78-3c0-.94.36-1.47,1-1.47h0a1,1,0,0,1,.91.51c.49.87.12,2.57-.5,3.66q-.11.18-.21.33c.56,1.07,1.36,1.93,2.22,1.93h0c.77,0,1.46-.71,2-1.65a4.34,4.34,0,0,1-1-2.84c0-1.2.45-1.94,1.19-1.94h0c.6,0,.94.59.94,1.61a7.89,7.89,0,0,1-.76,3.11,1.48,1.48,0,0,0,1,.41h0c1,0,1.79-2.29,2-3.18l.33.1c-.09.35-1,3.42-2.37,3.42h0a1.84,1.84,0,0,1-1.17-.44A2.75,2.75,0,0,1,119.85,53.24ZM122,46.82c-.63,0-.85.85-.85,1.59a4.33,4.33,0,0,0,.78,2.51,7.37,7.37,0,0,0,.66-2.84c0-.38-.06-1.26-.59-1.26Zm-4.6,0c-.53,0-.64.62-.64,1.13a6.83,6.83,0,0,0,.66,2.67l.09-.14c.57-1,.91-2.59.5-3.32a.65.65,0,0,0-.61-.34Z" style="fill:#fff"></path><rect x="113.32" y="63.28" width="13.04" height="2.55" transform="matrix(1, 0, 0, 1, 0.07, -0.12)" style="fill:#263238"></rect><rect x="113.31" y="66.24" width="13.04" height="2.55" transform="translate(0.07 -0.12) rotate(0.06)" style="fill:#263238"></rect><rect x="113.31" y="69.2" width="13.04" height="2.55" transform="translate(0.07 -0.12) rotate(0.06)" style="fill:#263238"></rect><path d="M163.85,173.11a50.24,50.24,0,1,0,50.21,50.24A50.29,50.29,0,0,0,163.85,173.11Zm0,89.78a39.55,39.55,0,1,1,39.52-39.54A39.53,39.53,0,0,1,163.85,262.89Zm0-89.78a50.24,50.24,0,1,0,50.21,50.24A50.29,50.29,0,0,0,163.85,173.11Zm0,89.78a39.55,39.55,0,1,1,39.52-39.54A39.53,39.53,0,0,1,163.85,262.89Zm0-124.23a84.68,84.68,0,1,0,84.66,84.69A84.69,84.69,0,0,0,163.85,138.66Zm0,139.74a55.06,55.06,0,1,1,55-55A55.12,55.12,0,0,1,163.85,278.4Zm0-105.29a50.24,50.24,0,1,0,50.21,50.24A50.29,50.29,0,0,0,163.85,173.11Zm0,89.78a39.55,39.55,0,1,1,39.52-39.54A39.53,39.53,0,0,1,163.85,262.89Z" style="fill:#FFA52E"></path><path d="M118.45,180.3a1.92,1.92,0,0,0-1.76-.41,3.26,3.26,0,0,0-1.2.56l-.07,0-1.7,1.91,3.11,2.76a.36.36,0,0,1,0,.52.37.37,0,0,1-.51,0L109,179.2a.37.37,0,0,1,0-.48l0,0,0,0,1.94-2.19a3,3,0,0,1,5.11,2.86l.16-.06a2.63,2.63,0,0,1,2.68.5,4.07,4.07,0,0,0,1,.7.53.53,0,0,0,.29.06.37.37,0,0,1,.65.35,1,1,0,0,1-.11.15l0,0a.83.83,0,0,1-.8.19A3.77,3.77,0,0,1,118.45,180.3ZM111.52,177l-1.72,1.94,3.39,3,1.67-1.88.09-.1a2.27,2.27,0,0,0-3.43-3Z" style="fill:#fff"></path><path d="M116.35,171.43a.35.35,0,0,1,0-.5l0,0,4.11-3.47a.36.36,0,0,1,.51.05.36.36,0,0,1,0,.52l-3.85,3.24,2.68,3.18,3.36-2.84a.36.36,0,0,1,.52.06.35.35,0,0,1,0,.5L120.31,175l2.67,3.16,3.84-3.24a.37.37,0,0,1,.52.06.36.36,0,0,1,0,.51l-4.09,3.45,0,0,0,0a.36.36,0,0,1-.48-.07Z" style="fill:#fff"></path><path d="M128.06,172.41a.31.31,0,0,1,.37-.28,5.82,5.82,0,0,0,3.65-.66,4,4,0,0,0,1.61-1.8,2,2,0,0,0-.06-1.8,1.66,1.66,0,0,0-1.48-.78,7.1,7.1,0,0,0-2.52.54l0,0a6.46,6.46,0,0,1-2.58.54,2.19,2.19,0,0,1-1.88-1,2.48,2.48,0,0,1-.09-2.25,4.25,4.25,0,0,1,1.76-2,5.8,5.8,0,0,1,3.4-.66.34.34,0,0,1,.32.35.33.33,0,0,1-.34.31,5.25,5.25,0,0,0-3,.56,3.81,3.81,0,0,0-1.49,1.66,1.79,1.79,0,0,0,0,1.66,1.5,1.5,0,0,0,1.33.68,6.15,6.15,0,0,0,2.33-.5l0,0a7.37,7.37,0,0,1,2.78-.58,2.38,2.38,0,0,1,2,1.09,2.65,2.65,0,0,1,.09,2.41,4.57,4.57,0,0,1-1.87,2.11,6.56,6.56,0,0,1-4.09.74A.34.34,0,0,1,128.06,172.41Z" style="fill:#fff"></path><path d="M133.87,159.67a.37.37,0,0,1,.19-.47h0l4.95-2.1a.36.36,0,0,1,.47.2.35.35,0,0,1-.19.48l-4.62,2,1.62,3.82,4-1.71a.37.37,0,0,1,.29.68l-4.05,1.71,1.61,3.81,4.63-2a.37.37,0,0,1,.48.21.36.36,0,0,1-.19.47l-4.93,2.09,0,0h0a.38.38,0,0,1-.45-.21Z" style="fill:#fff"></path><path d="M150.62,161.8,146,163l-.29,2.63a.38.38,0,0,1-.27.32l-.14,0a.38.38,0,0,1-.32-.41l1.11-10.34a.4.4,0,0,1,.3-.3.37.37,0,0,1,.4.13l5.95,8.52a.39.39,0,0,1-.07.51l-.13.05a.39.39,0,0,1-.39-.15Zm-4.55.41,4.11-1.06-3.45-4.94Z" style="fill:#fff"></path><path d="M159.74,160.89a1.91,1.91,0,0,0-1-1.5,3.33,3.33,0,0,0-1.26-.4l-.08,0-2.53.26.41,4.13a.37.37,0,0,1-.34.39.36.36,0,0,1-.39-.32l-1-9.73a.37.37,0,0,1,.29-.39h.08l2.91-.29a3,3,0,0,1,1.82,5.57l.15.06a2.66,2.66,0,0,1,1.64,2.19,3.94,3.94,0,0,0,.25,1.19.53.53,0,0,0,.18.24.38.38,0,0,1,.42.2.39.39,0,0,1-.19.5l-.18,0h0a.86.86,0,0,1-.72-.42A3.73,3.73,0,0,1,159.74,160.89Zm-2.82-7.15-2.58.25.45,4.51,2.5-.25h.14a2.26,2.26,0,0,0-.51-4.5Z" style="fill:#fff"></path><path d="M169.41,152.72a5.64,5.64,0,0,1,3.31,1.38.38.38,0,0,1,0,.53.35.35,0,0,1-.51,0,4.86,4.86,0,0,0-2.87-1.22,4.6,4.6,0,1,0-.62,9.17,4.5,4.5,0,0,0,3-.83.36.36,0,0,1,.51.13.34.34,0,0,1-.08.52,5.55,5.55,0,0,1-3.46.91,5.33,5.33,0,1,1,.72-10.63Z" style="fill:#fff"></path><path d="M181.91,160.77l-5.24-1.3-1.1,4.39a.37.37,0,0,1-.45.26.37.37,0,0,1-.26-.44l2.37-9.49a.35.35,0,0,1,.43-.26.36.36,0,0,1,.28.44l-1.1,4.4,5.24,1.3,1.1-4.39a.37.37,0,0,1,.71.18l-2.36,9.49a.38.38,0,0,1-.46.26.38.38,0,0,1-.26-.44Z" style="fill:#fff"></path><polygon points="173.78 140.2 154.39 140.2 156.32 120.85 171.85 120.85 173.78 140.2" style="fill:#FFA52E"></polygon><polygon points="130.87 146.37 114.08 156.06 106.08 138.34 119.52 130.57 130.87 146.37" style="fill:#FFA52E"></polygon><polygon points="96.8 173.16 87.1 189.95 71.31 178.6 79.07 165.16 96.8 173.16" style="fill:#FFA52E"></polygon><polygon points="80.69 213.4 80.69 232.79 61.33 230.86 61.33 215.33 80.69 213.4" style="fill:#FFA52E"></polygon><polygon points="86.85 256.31 96.55 273.1 78.82 281.1 71.06 267.65 86.85 256.31" style="fill:#FFA52E"></polygon><polygon points="113.65 290.38 130.44 300.07 119.09 315.87 105.64 308.11 113.65 290.38" style="fill:#FFA52E"></polygon><polygon points="153.89 306.49 173.28 306.49 171.34 325.85 155.82 325.85 153.89 306.49" style="fill:#FFA52E"></polygon><polygon points="196.79 300.32 213.58 290.63 221.59 308.36 208.14 316.12 196.79 300.32" style="fill:#FFA52E"></polygon><polygon points="230.87 273.53 240.56 256.74 256.36 268.09 248.59 281.54 230.87 273.53" style="fill:#FFA52E"></polygon><polygon points="246.98 233.29 246.98 213.9 266.33 215.83 266.33 231.36 246.98 233.29" style="fill:#FFA52E"></polygon><polygon points="240.81 190.38 231.12 173.59 248.84 165.59 256.61 179.04 240.81 190.38" style="fill:#FFA52E"></polygon><polygon points="214.02 156.31 197.23 146.62 208.57 130.82 222.02 138.59 214.02 156.31" style="fill:#FFA52E"></polygon><path d="M171.22,235.66a1.81,1.81,0,0,1-1.83,1.83H157.54a1.81,1.81,0,0,1-1.37-.6,1.83,1.83,0,0,1,.1-2.59l9.86-8.93a4.17,4.17,0,0,0,1.4-3.19,4.32,4.32,0,0,0-1.1-2.9,4.22,4.22,0,0,0-3.2-1.4,4.37,4.37,0,0,0-2.89,1.1l-1,.93a1.8,1.8,0,0,1-2.59-.13,1.84,1.84,0,0,1,.13-2.6l1-.93a7.85,7.85,0,0,1,5.36-2.06,8,8,0,0,1,5.93,2.63,7.83,7.83,0,0,1,2.06,5.36,8,8,0,0,1-2.63,5.92l-6.29,5.7h7.09A1.83,1.83,0,0,1,171.22,235.66Z" style="fill:#263238"></path><path d="M229.76,183.91l-6,4.52-11.06-14.59-4-5.34a9.25,9.25,0,0,0,2.32-1.31,9.63,9.63,0,0,0,3.06-4l4.3,5.66Z" style="fill:#263238"></path><path d="M218,149.55a16.28,16.28,0,1,0-3,22.84,16.72,16.72,0,0,0,3.38-3.51A16.3,16.3,0,0,0,218,149.55Zm-7,17.64a9.25,9.25,0,0,1-2.32,1.31,9.68,9.68,0,1,1,2.32-1.31Z" style="fill:#263238"></path><path d="M442.2,124.29a19.15,19.15,0,1,0-17.29,20.85A19.14,19.14,0,0,0,442.2,124.29Zm-17.5,18.52a16.82,16.82,0,1,1,15.18-18.3A16.82,16.82,0,0,1,424.7,142.81Zm17.5-18.52a19.15,19.15,0,1,0-17.29,20.85A19.14,19.14,0,0,0,442.2,124.29Zm-17.5,18.52a16.82,16.82,0,1,1,15.18-18.3A16.82,16.82,0,0,1,424.7,142.81Zm17.5-18.52a19.15,19.15,0,1,0-17.29,20.85A19.14,19.14,0,0,0,442.2,124.29Zm-17.5,18.52a16.82,16.82,0,1,1,15.18-18.3A16.82,16.82,0,0,1,424.7,142.81Zm38.63-20.48a40.37,40.37,0,1,0-36.45,43.94A40.38,40.38,0,0,0,463.33,122.33ZM425.19,148.1a22.14,22.14,0,1,1,20-24.08A22.16,22.16,0,0,1,425.19,148.1ZM421.37,107a19.16,19.16,0,1,0,20.83,17.3A19.15,19.15,0,0,0,421.37,107Zm3.33,35.82a16.82,16.82,0,1,1,15.18-18.3A16.82,16.82,0,0,1,424.7,142.81Zm17.5-18.52a19.15,19.15,0,1,0-17.29,20.85A19.14,19.14,0,0,0,442.2,124.29Zm-17.5,18.52a16.82,16.82,0,1,1,15.18-18.3A16.82,16.82,0,0,1,424.7,142.81Zm17.5-18.52a19.15,19.15,0,1,0-17.29,20.85A19.14,19.14,0,0,0,442.2,124.29Zm-17.5,18.52a16.82,16.82,0,1,1,15.18-18.3A16.82,16.82,0,0,1,424.7,142.81Z" style="fill:#FFA52E"></path><polygon points="427.28 86.81 411.82 88.25 411.66 77.23 425.41 75.95 427.28 86.81" style="fill:#FFA52E"></polygon><polygon points="398.34 94.76 388.43 106.7 380.52 99.03 389.34 88.4 398.34 94.76" style="fill:#FFA52E"></polygon><polygon points="383.5 120.84 384.93 136.29 373.91 136.46 372.63 122.71 383.5 120.84" style="fill:#FFA52E"></polygon><polygon points="391.44 149.78 403.38 159.69 395.7 167.6 385.08 158.78 391.44 149.78" style="fill:#FFA52E"></polygon><polygon points="417.52 164.62 432.98 163.19 433.14 174.21 419.39 175.49 417.52 164.62" style="fill:#FFA52E"></polygon><polygon points="446.46 156.68 456.37 144.73 464.28 152.41 455.46 163.04 446.46 156.68" style="fill:#FFA52E"></polygon><polygon points="461.3 130.6 459.87 115.14 470.89 114.98 472.17 128.73 461.3 130.6" style="fill:#FFA52E"></polygon><polygon points="453.36 101.66 441.41 91.75 449.09 83.84 459.72 92.66 453.36 101.66" style="fill:#FFA52E"></polygon><path d="M398.7,121.45l0,.06a.37.37,0,0,1-.45.19L389,118.45a.36.36,0,0,1-.22-.45l0,0,.64-1.81a5.25,5.25,0,0,1,9.9,3.48Zm-.06-2.07a4.51,4.51,0,1,0-8.51-3l-.53,1.5,8.52,3Z" style="fill:#fff"></path><path d="M394.08,107a.37.37,0,0,1-.05-.51l0,0,3.35-4.2a.37.37,0,0,1,.57.46l-3.13,3.93,3.24,2.59,2.74-3.43a.37.37,0,0,1,.52-.05.36.36,0,0,1,.06.5l-2.74,3.44,3.23,2.58,3.13-3.93a.36.36,0,0,1,.52,0,.35.35,0,0,1,.06.5L402.26,113l0,0,0,0a.34.34,0,0,1-.48,0Z" style="fill:#fff"></path><path d="M405.8,105.78a.32.32,0,0,1,.37-.28,5.74,5.74,0,0,0,3.65-.66,3.91,3.91,0,0,0,1.6-1.79,1.92,1.92,0,0,0-.05-1.8,1.66,1.66,0,0,0-1.48-.78,7.1,7.1,0,0,0-2.52.54l0,0a6.45,6.45,0,0,1-2.57.54,2.19,2.19,0,0,1-1.88-1,2.44,2.44,0,0,1-.1-2.25,4.35,4.35,0,0,1,1.76-2,5.78,5.78,0,0,1,3.39-.66.32.32,0,0,1,.32.35.3.3,0,0,1-.33.31,5.14,5.14,0,0,0-3,.57,3.67,3.67,0,0,0-1.5,1.66,1.83,1.83,0,0,0,0,1.65,1.52,1.52,0,0,0,1.33.68,6.2,6.2,0,0,0,2.34-.5l0,0a7.37,7.37,0,0,1,2.78-.58,2.37,2.37,0,0,1,2,1.08,2.65,2.65,0,0,1,.09,2.41,4.55,4.55,0,0,1-1.87,2.12,6.54,6.54,0,0,1-4.09.74A.36.36,0,0,1,405.8,105.78Z" style="fill:#fff"></path><path d="M412.77,93.18a.37.37,0,0,1,.71-.21l2.71,9.39a.37.37,0,0,1-.7.21Z" style="fill:#fff"></path><path d="M424.16,97.07a.35.35,0,0,1-.36-.37.36.36,0,0,1,.38-.36l3.24.09h0a.38.38,0,0,1,.33.38l-.1,3.6v.06a.5.5,0,0,1-.14.27,5.39,5.39,0,1,1-3.14-9.59,5.51,5.51,0,0,1,3.37,1.28.37.37,0,0,1-.49.55,4.64,4.64,0,1,0-3.14,8.09,4.73,4.73,0,0,0,2.79-.83l.09-3.09Z" style="fill:#fff"></path><path d="M435,94.82l-3.85,7.68a.36.36,0,0,1-.65-.32l4.32-8.61a.36.36,0,0,1,.3-.3.37.37,0,0,1,.42.31l1.73,10.74,3.84-7.65a.36.36,0,0,1,.65.33l-4.34,8.65a.35.35,0,0,1-.49.15.34.34,0,0,1-.2-.24.19.19,0,0,1,0-.08Z" style="fill:#fff"></path><path d="M431.32,130.55a1.83,1.83,0,0,1-1.86,1.83h-.33v2.53a1.84,1.84,0,0,1-3.67,0v-2.53H415a1.66,1.66,0,0,1-1.14-.4,1.79,1.79,0,0,1-.3-2.57l12.32-15.31s0,0,.07-.07a.36.36,0,0,0,.1-.13.57.57,0,0,0,.17-.1l.13-.1c.07,0,.1-.07.2-.07a.15.15,0,0,1,.13-.1.81.81,0,0,1,.2-.06.19.19,0,0,0,.14,0h.56a.27.27,0,0,0,.17,0s.13,0,.2.06l.13,0,.17.13.16.1s0,0,0,0,.1,0,.1.07a1.53,1.53,0,0,0,.13.13l.1.13a1.15,1.15,0,0,1,.13.17.28.28,0,0,0,.07.13c0,.07,0,.1.07.2s0,.1,0,.14a.38.38,0,0,1,0,.2c0,.06,0,.1,0,.16v13.55h.33A1.86,1.86,0,0,1,431.32,130.55Zm-5.86-10.06-6.62,8.22h6.62Z" style="fill:#263238"></path><path d="M461.6,86.75s2.78-4.57-1.26-6.58-5.87,3-5.87,3Z" style="fill:#dd6a57"></path><polygon points="438.34 116.99 445.47 120.53 461.69 86.56 454.56 83.02 438.34 116.99" style="fill:#455a64"></polygon><polygon points="453.41 83.89 461.73 88.03 462.38 86.68 454.06 82.54 453.41 83.89" style="fill:#263238"></polygon><polygon points="452.7 85.39 461.02 89.52 461.67 88.17 453.34 84.04 452.7 85.39" style="fill:#263238"></polygon><path d="M438.34,117l.68,5.53.21,1.82,1.56-.94,4.68-2.87-.31-1.2-1.11.5-.32-1.21-1.11.5-.3-1.2-1.13.49-.3-1.2-1.12.49-.31-1.2Z" style="fill:#fff"></path><polygon points="439.02 122.52 439.23 124.34 440.79 123.4 439.02 122.52" style="fill:#37474f"></polygon><path d="M441.3,115.88c1-2.41,2-4.79,3.06-7.16s2.17-4.7,3.26-7.06,2.26-4.66,3.44-7,2.37-4.62,3.65-6.88c-1,2.42-2,4.79-3.06,7.16s-2.17,4.71-3.26,7.06-2.26,4.67-3.44,7S442.58,113.62,441.3,115.88Z" style="fill:#263238"></path><path d="M444.53,117.43c1-2.42,2-4.79,3.05-7.16s2.18-4.71,3.26-7.06,2.27-4.67,3.44-7,2.37-4.61,3.65-6.87c-.95,2.41-2,4.79-3.05,7.16s-2.18,4.7-3.27,7.06-2.26,4.66-3.44,7S445.8,115.16,444.53,117.43Z" style="fill:#263238"></path><path d="M318.5,96.52a53.76,53.76,0,1,0,53.75,53.76A53.76,53.76,0,0,0,318.5,96.52Zm0,78.86a25.11,25.11,0,1,1,25.1-25.1A25.11,25.11,0,0,1,318.5,175.38Z" style="fill:#455a64"></path><polygon points="328.83 98.75 308.16 98.75 309.31 84.12 327.69 84.12 328.83 98.75" style="fill:#455a64"></polygon><polygon points="289.49 105.72 274.87 120.33 265.33 109.18 278.33 96.18 289.49 105.72" style="fill:#455a64"></polygon><polygon points="266.59 138.46 266.59 159.13 251.96 157.99 251.96 139.6 266.59 138.46" style="fill:#455a64"></polygon><polygon points="273.56 177.81 288.17 192.42 277.02 201.96 264.02 188.96 273.56 177.81" style="fill:#455a64"></polygon><polygon points="306.3 200.7 326.97 200.7 325.83 215.33 307.44 215.33 306.3 200.7" style="fill:#455a64"></polygon><polygon points="345.65 193.74 360.26 179.12 369.8 190.28 356.8 203.28 345.65 193.74" style="fill:#455a64"></polygon><polygon points="368.54 160.99 368.54 140.32 383.17 141.46 383.17 159.85 368.54 160.99" style="fill:#455a64"></polygon><polygon points="361.58 121.65 346.96 107.03 358.12 97.49 371.12 110.49 361.58 121.65" style="fill:#455a64"></polygon><path d="M286.7,159.08a.32.32,0,0,1-.11-.45,5.73,5.73,0,0,0,.82-3.61,4,4,0,0,0-1-2.18,1.92,1.92,0,0,0-1.68-.66,1.67,1.67,0,0,0-1.29,1.06,6.81,6.81,0,0,0-.48,2.53v0a6.44,6.44,0,0,1-.51,2.58,2.16,2.16,0,0,1-1.64,1.34,2.45,2.45,0,0,1-2.11-.79,4.26,4.26,0,0,1-1.13-2.39,5.81,5.81,0,0,1,.71-3.39.34.34,0,0,1,.45-.15.3.3,0,0,1,.15.43,5.14,5.14,0,0,0-.66,3,3.74,3.74,0,0,0,.94,2,1.82,1.82,0,0,0,1.55.6,1.51,1.51,0,0,0,1.14-1,6,6,0,0,0,.45-2.35v0a7,7,0,0,1,.55-2.78,2.36,2.36,0,0,1,1.78-1.44,2.68,2.68,0,0,1,2.26.86,4.64,4.64,0,0,1,1.22,2.55,6.6,6.6,0,0,1-.92,4.05A.35.35,0,0,1,286.7,159.08Z" style="fill:#fff"></path><path d="M278.24,145.3l-.43,3.13a.37.37,0,0,1-.42.31.38.38,0,0,1-.31-.41l1-7a.37.37,0,0,1,.41-.31.36.36,0,0,1,.32.41l-.43,3.13,9.32,1.28a.36.36,0,1,1-.1.72Z" style="fill:#fff"></path><path d="M289.14,134.74a1.89,1.89,0,0,0-1.8.12,3.26,3.26,0,0,0-1,.89l-.06.05-1.05,2.32,3.78,1.72a.37.37,0,0,1,.18.49.37.37,0,0,1-.48.18l-8.91-4a.37.37,0,0,1-.19-.45l0,0v0l1.21-2.66a3,3,0,0,1,5.73,1.21l.13-.1a2.64,2.64,0,0,1,2.71-.32,4.44,4.44,0,0,0,1.16.38.48.48,0,0,0,.29,0,.4.4,0,0,1,.39-.27.41.41,0,0,1,.34.41l-.06.18v0a.87.87,0,0,1-.72.42A3.8,3.8,0,0,1,289.14,134.74Zm-7.6-1.15L280.47,136l4.12,1.87,1-2.3.06-.12a2.27,2.27,0,0,0-4.15-1.82Z" style="fill:#fff"></path><path d="M294.68,126.6l-3.12,3.63,1.28,2.32a.38.38,0,0,1,0,.42.9.9,0,0,1-.1.09.38.38,0,0,1-.5-.15l-5-9.11a.4.4,0,0,1,.07-.42.36.36,0,0,1,.4-.13l9.77,3.58a.38.38,0,0,1,.23.46s0,.08-.07.12a.4.4,0,0,1-.41.1Zm-3.5,3,2.77-3.22-5.66-2.07Z" style="fill:#fff"></path><path d="M294.6,117.52,292,119.35a.37.37,0,0,1-.51-.1.36.36,0,0,1,.08-.5l5.76-4.08a.37.37,0,0,1,.42.6l-2.58,1.83,5.44,7.67a.37.37,0,0,1-.08.51.38.38,0,0,1-.51-.09Z" style="fill:#fff"></path><path d="M302.24,112.61a.37.37,0,0,1,.22-.46h0l5.06-1.78a.37.37,0,0,1,.25.69l-4.74,1.67,1.38,3.91,4.14-1.45a.37.37,0,0,1,.25.69l-4.15,1.46,1.37,3.9,4.74-1.66a.36.36,0,0,1,.47.23.37.37,0,0,1-.22.46L306,122l-.05,0h0a.38.38,0,0,1-.44-.23Z" style="fill:#fff"></path><path d="M318.07,114.76a.36.36,0,0,1-.38-.35.37.37,0,0,1,.36-.39l3.24-.07h0a.38.38,0,0,1,.34.37l.08,3.6V118a.43.43,0,0,1-.13.27,5.49,5.49,0,0,1-3.37,1.23,5.33,5.33,0,1,1-.23-10.65,5.51,5.51,0,0,1,3.43,1.11.37.37,0,0,1,.05.51.38.38,0,0,1-.52.07,4.59,4.59,0,1,0,0,7.26l-.07-3.09Z" style="fill:#fff"></path><path d="M328.46,115.85l-2-5.62a.37.37,0,0,1,.21-.46.33.33,0,0,1,.47.2l1.89,5.25,4.44-3.41a.34.34,0,0,1,.5.09.36.36,0,0,1-.07.51L329.16,116l-1.32,4.52a.36.36,0,0,1-.45.25.37.37,0,0,1-.25-.45Z" style="fill:#fff"></path><path d="M323.27,149.49a8.11,8.11,0,0,1,2.43,5.82,8.27,8.27,0,0,1-14.12,5.86,1.88,1.88,0,1,1,2.66-2.66,4.47,4.47,0,0,0,3.17,1.3,4.59,4.59,0,0,0,3.19-1.3,4.46,4.46,0,0,0,1.33-3.2,4.32,4.32,0,0,0-1.33-3.16,4.42,4.42,0,0,0-3.16-1.33,1.67,1.67,0,0,1-1.37-.6s0,0,0,0a1.9,1.9,0,0,1-.07-2.66l3.4-3.46H314a1.88,1.88,0,0,1,0-3.76h9.82a1.87,1.87,0,0,1,1.9,1.86,2,2,0,0,1-.24.9,2.64,2.64,0,0,1-.33.47l-4.19,4.32A7.7,7.7,0,0,1,323.27,149.49Z" style="fill:#263238"></path><circle cx="354.57" cy="104.31" r="6.25" style="fill:#FFA52E"></circle><rect x="347.94" y="109.6" width="13.25" height="1.91" style="fill:#FFA52E"></rect><rect x="347.94" y="109.6" width="13.25" height="1.91" style="opacity:0.1"></rect><rect x="341.15" y="135.9" width="26.84" height="1.91" style="fill:#FFA52E"></rect><rect x="341.15" y="135.9" width="26.84" height="1.91" style="opacity:0.1"></rect><rect x="341.15" y="141.26" width="26.84" height="1.91" style="fill:#FFA52E"></rect><rect x="341.15" y="141.26" width="26.84" height="1.91" style="opacity:0.1"></rect><rect x="342.15" y="137.81" width="24.84" height="3.45" style="fill:#FFA52E"></rect><rect x="349.16" y="111.51" width="10.81" height="1.91" style="fill:#FFA52E"></rect><path d="M365.55,135.9h-22s5-5,6.05-11c.88-5.06,1.3-11.48,1.3-11.48h7.25s.43,6.42,1.31,11.48C360.54,130.89,365.55,135.9,365.55,135.9Z" style="fill:#FFA52E"></path><path d="M56,44.48l-.59-.82c1.05-.75,1.67-1.12,1.7-1.13l.51.86A18.65,18.65,0,0,0,56,44.48Z" style="fill:#263238"></path><path d="M318,217.27c-1.36,0-2.71-.06-4-.14l.06-1c1.29.08,2.63.12,4,.14Zm4-.08-.05-1c1.33-.06,2.66-.17,3.93-.33l.12,1C324.76,217,323.42,217.12,322.06,217.19Zm-12.05-.4c-1.34-.15-2.67-.34-4-.56l.17-1c1.29.22,2.6.41,3.93.56Zm20-.56-.2-1c1.31-.26,2.6-.58,3.83-.94l.28,1C332.68,215.64,331.37,216,330,216.23Zm-27.93-.8c-1.32-.32-2.62-.67-3.88-1.07l.29-1c1.24.38,2.53.73,3.82,1ZM337.74,214l-.37-.93a36,36,0,0,0,3.56-1.65l.47.89C340.22,212.89,339,213.45,337.74,214ZM294.42,213c-1.25-.49-2.49-1-3.69-1.6l.43-.9c1.18.56,2.4,1.09,3.62,1.57Zm50.44-2.83-.56-.83a36.39,36.39,0,0,0,3.15-2.36l.64.77A40,40,0,0,1,344.86,210.21Zm-57.7-.63c-1.16-.66-2.31-1.37-3.43-2.12l.56-.83c1.09.73,2.23,1.43,3.36,2.08Zm-6.7-4.47c-1-.8-2.09-1.66-3.1-2.55l.65-.75c1,.87,2,1.72,3.06,2.51Zm70.6-.05-.71-.7c.9-.91,1.79-1.9,2.64-2.93l.77.63C352.89,203.12,352,204.13,351.06,205.06Zm-76.65-5.23c-.93-.92-1.87-1.89-2.8-2.89l.73-.68c.92,1,1.85,2,2.77,2.85Zm81.78-1-.82-.57c.74-1.06,1.46-2.18,2.15-3.33l.86.51C357.67,196.63,356.94,197.77,356.19,198.85Zm-87.25-4.93c-.83-1-1.68-2-2.53-3.12l.78-.62c.85,1.08,1.7,2.12,2.52,3.09Zm91.39-2-.88-.46c.58-1.13,1.17-2.33,1.73-3.57l.91.41C361.52,189.58,360.93,190.8,360.33,191.94ZM264,187.61c-.79-1.07-1.57-2.16-2.35-3.25l.82-.58c.77,1.09,1.55,2.17,2.33,3.24Zm99.71-3-.92-.38c.48-1.19,1-2.44,1.43-3.72l.94.35C364.66,182.17,364.17,183.43,363.68,184.63Zm-104.35-3.57c-.75-1.1-1.49-2.2-2.24-3.32l.84-.55c.74,1.11,1.48,2.21,2.23,3.31Zm107.12-4-.95-.31c.42-1.26.82-2.52,1.22-3.81l.95.3C367.28,174.55,366.87,175.82,366.45,177.08Zm-111.57-2.67-2.22-3.35.84-.55,2.21,3.35Zm113.93-5-1-.28c.37-1.27.72-2.55,1.08-3.85l1,.26Q369.37,167.49,368.81,169.41Zm-118.37-1.68c-.75-1.1-1.5-2.21-2.26-3.3l.82-.57c.76,1.1,1.52,2.2,2.26,3.31Zm120.48-6.07-1-.25q.49-1.92,1-3.87l1,.24C371.58,159.08,371.25,160.38,370.92,161.66Zm-125-.5c-.78-1.08-1.57-2.16-2.37-3.22l.8-.6c.81,1.07,1.6,2.15,2.38,3.23Zm-4.82-6.37c-.84-1.06-1.7-2.09-2.54-3.07l.76-.65c.85,1,1.71,2,2.57,3.1Zm131.82-.9-1-.24,1-3.89,1,.24Zm-137-5.15c-.91-1-1.85-1.94-2.77-2.86l.7-.71c.94.92,1.88,1.9,2.8,2.89Zm138.93-2.61-1-.25c.32-1.29.65-2.58,1-3.88l1,.25C375.45,143.54,375.12,144.83,374.8,146.13Zm-289-2.42c-1.34,0-2.7-.1-4-.22l.09-1c1.31.11,2.64.19,4,.21Zm4-.07,0-1c1.31-.08,2.64-.2,3.94-.37l.13,1C92.56,143.44,91.2,143.56,89.86,143.64Zm140.35-.48c-1-.89-2-1.75-3-2.57l.63-.78c1,.83,2.06,1.71,3.06,2.61ZM77.79,143c-1.32-.22-2.65-.49-4-.8l.23-1c1.27.31,2.58.57,3.88.78Zm20.07-.39-.2-1c1.29-.27,2.58-.59,3.85-1l.27,1C100.5,142,99.18,142.32,97.86,142.6Zm-27.92-1.47c-1.28-.41-2.56-.86-3.8-1.35l.37-.93c1.21.48,2.47.93,3.73,1.32Zm35.68-.67-.3-1,3.82-1.2.3.95C108.18,139.67,106.9,140.07,105.62,140.46Zm271.16-2.09-1-.26c.34-1.29.69-2.59,1.05-3.88l1,.27C377.47,135.78,377.12,137.08,376.78,138.37ZM224,138.19c-1.07-.77-2.17-1.52-3.28-2.22l.53-.84c1.13.71,2.25,1.47,3.34,2.25Zm-161.58,0c-1.21-.59-2.41-1.22-3.57-1.88l.5-.87c1.13.65,2.31,1.27,3.5,1.84Zm50.81-.13-.3-.95,3.8-1.23.31.95Zm7.61-2.47-.31-.95,3.81-1.24.31,1Zm-65.42-1.42c-1.11-.76-2.2-1.56-3.25-2.39l.62-.79c1,.82,2.1,1.61,3.2,2.35Zm161.89-.2c-1.15-.63-2.34-1.24-3.52-1.81l.43-.9c1.2.57,2.4,1.19,3.57,1.84Zm-88.86-.84-.3-1L132,131l.3,1Zm7.64-2.37-.29-1c1.29-.39,2.57-.76,3.85-1.12l.27,1Zm242.8-.09-1-.28c.37-1.28.76-2.57,1.15-3.84l1,.3C379.66,128.09,379.28,129.37,378.91,130.65Zm-168.73-.12c-1.1-.45-2.23-.87-3.36-1.27l-.35-.12.33-.95.26.09c1.24.44,2.39.87,3.5,1.33Zm-161-1.41c-1-.92-1.94-1.88-2.84-2.87l.74-.67c.88,1,1.82,1.91,2.78,2.81Zm94.66-.55-.25-1c1.3-.34,2.59-.67,3.89-1l.23,1C146.38,127.9,145.09,128.23,143.79,128.57Zm58.89-.66c-1.27-.39-2.56-.75-3.83-1.08l.25-1c1.28.34,2.58.7,3.87,1.09Zm-51.13-1.22-.21-1c1.31-.28,2.62-.55,3.93-.8l.19,1C154.16,126.14,152.85,126.41,151.55,126.69Zm43.43-.78c-1.29-.27-2.61-.53-3.91-.75l.17-1c1.32.23,2.64.48,3.95.77Zm-35.59-.7-.16-1c1.34-.21,2.68-.4,4-.56l.12,1C162,124.81,160.71,125,159.39,125.21Zm27.75-.63c-1.32-.17-2.65-.31-4-.41l.08-1c1.33.11,2.67.25,4,.41Zm-19.85-.34-.09-1c1.34-.11,2.69-.2,4-.26l0,1C170,124,168.62,124.13,167.29,124.24Zm11.92-.31q-1.74-.06-3.45-.06h-.53v-1h.53c1.15,0,2.32,0,3.49.06Zm-135.53-.77c-.82-1.06-1.61-2.17-2.34-3.29l.84-.55c.71,1.1,1.49,2.19,2.29,3.23Zm337.6-.14-.95-.31c.42-1.28.86-2.54,1.31-3.8l.94.34C382.13,120.5,381.7,121.76,381.28,123Zm-342-6.63c-.64-1.18-1.23-2.4-1.76-3.63l.91-.4c.53,1.21,1.11,2.4,1.73,3.56ZM384,115.52l-.93-.36c.49-1.26,1-2.49,1.52-3.72l.92.4C385,113.05,384.48,114.28,384,115.52ZM36.06,109c-.43-1.26-.81-2.56-1.14-3.87l1-.24c.32,1.28.7,2.55,1.12,3.79Zm351.08-.78-.9-.43c.59-1.24,1.19-2.45,1.8-3.6l.88.47C388.33,105.78,387.73,107,387.14,108.21Zm3.71-7-.86-.5c.68-1.17,1.4-2.32,2.12-3.43l.84.55C392.23,98.88,391.53,100,390.85,101.17Zm-356.75,0c-.12-.72-.23-1.44-.32-2.17s-.15-1.23-.21-1.83l1-.1c.06.6.13,1.2.2,1.81s.19,1.42.31,2.12Zm361.12-6.64-.81-.59c.8-1.08,1.64-2.15,2.48-3.15l.77.64C396.83,92.42,396,93.47,395.22,94.53Zm-362-1.38c-.05-1.12-.08-2.25-.08-3.36v-.66h1v.66c0,1.1,0,2.21.08,3.32Zm367-4.68-.72-.69c.93-1,1.89-1.93,2.86-2.82l.68.74C402.16,86.58,401.21,87.51,400.29,88.47ZM34.35,85.17l-1-.07c.09-1.34.23-2.69.4-4l1,.13C34.58,82.52,34.45,83.85,34.35,85.17Zm371.76-2-.63-.78c1-.83,2.13-1.64,3.23-2.4l.57.82C408.2,81.51,407.13,82.3,406.11,83.12Zm6.5-4.5-.52-.86c1.15-.68,2.34-1.33,3.54-1.93l.45.89C414.9,77.31,413.73,78,412.61,78.62ZM35.41,77.31l-1-.2c.27-1.32.59-2.64.94-3.92l1,.27C36,74.72,35.68,76,35.41,77.31Zm2.11-7.64-.94-.33c.45-1.26,1-2.52,1.48-3.75L39,66C38.45,67.19,38,68.43,37.52,69.67Zm3.18-7.25L39.81,62c.63-1.19,1.3-2.36,2-3.5l.85.53C42,60.09,41.31,61.25,40.7,62.42Zm4.19-6.72-.81-.59c.79-1.09,1.63-2.15,2.5-3.18l.76.65C46.49,53.58,45.67,54.63,44.89,55.7ZM50,49.65l-.71-.7c.95-1,1.94-1.9,2.94-2.77l.66.76C51.93,47.79,51,48.7,50,49.65Z" style="fill:#263238"></path><path d="M420.11,74.86l-.39-.92c.62-.26,1.24-.51,1.88-.75l.36.94C421.33,74.36,420.72,74.61,420.11,74.86Z" style="fill:#263238"></path><circle cx="57.36" cy="42.96" r="8.15" transform="translate(-12.04 25.08) rotate(-22.38)" style="fill:#263238"></circle><circle cx="200.14" cy="126.13" r="8.15" style="fill:#263238"></circle><circle cx="421.78" cy="73.66" r="8.15" style="fill:#263238"></circle><circle cx="318.86" cy="218.38" r="8.15" style="fill:#263238"></circle></g><g id="freepik--Plant--inject-949"><path d="M93.1,339.66a45.82,45.82,0,0,1-.89,17.57A49.11,49.11,0,0,1,89.52,365c-1.4,3.22-2.86,6.36-2.51,9.88.34.22-.83.19-.86-.16-9.4-5.35-21.46-6.33-28.69-15.08-3.43-4.14-5.16-9.39-6-14.65-.89-5.72-1.13-12.05.34-17.69,1.25-4.77,4-9.36,8.51-11.7s10.68-2.2,15.55-.69C86.39,318.16,91.61,329.49,93.1,339.66Z" style="fill:#FFA52E"></path><path d="M97.92,409.24c-1.28-4.28-2.56-8.55-3.88-12.82-2.58-8.35-5.26-16.68-8.23-24.9q-2.67-7.39-5.62-14.64a88.1,88.1,0,0,1,1.12-9.09c.78-3.64,1.93-7.16,3-10.73.06-.22-.29-.33-.38-.12-2.11,4.91-4.86,11.2-4.93,17-2.3-5.47-4.75-10.86-7.39-16.17A69,69,0,0,1,72,324.32c0-.21-.28-.27-.31-.06a47.15,47.15,0,0,0-.92,11.88c-2-4-4.15-7.93-6.42-11.81-.2-.35-.69,0-.51.36,3.54,6.8,6.81,13.74,9.89,20.78A45.23,45.23,0,0,0,59,336.93c-.24-.08-.41.26-.17.36a53.79,53.79,0,0,1,15.94,10.55q3.32,7.74,6.32,15.58c-5.89-5.76-13.93-9.55-21.72-11.59-.27-.07-.34.34-.08.42,9,2.71,16,7.82,22.86,13.95q1.2,3.18,2.34,6.36,4.37,12.09,8.3,24.32,1.89,5.85,3.73,11.73c1.31,4.21,2.34,8.67,4,12.74.17.38.86.3.77-.17A122,122,0,0,0,97.92,409.24Z" style="fill:#263238"></path><path d="M82.33,331.43a23.5,23.5,0,0,0-3.39,8.44c0,.07.11.12.14,0a73.65,73.65,0,0,1,3.67-8.28C82.89,331.36,82.49,331.18,82.33,331.43Z" style="fill:#263238"></path><path d="M65.56,351a25,25,0,0,0-8.43-2.84c-.08,0-.13.1-.05.14,1.36.56,2.78.95,4.15,1.48S64,351,65.35,351.45A.24.24,0,0,0,65.56,351Z" style="fill:#263238"></path><path d="M60.84,327.45a17,17,0,0,0-2.72-1.67A.14.14,0,0,0,58,326a17,17,0,0,0,2.67,1.73C60.81,327.85,61,327.57,60.84,327.45Z" style="fill:#263238"></path><path d="M124.79,371.58c-6.77,2-13.58,3.87-20.35,5.86-.58.17-12-21.76-7.89-33.06,3.82-10.45,12.57-18.28,23-21.83,4.83-1.64,10.77-3,15.88-1.9,4.54,1,7.75,4.73,9.22,9,2,5.8,1.34,12.72.25,18.65a32.7,32.7,0,0,1-6.66,15.22C134.65,367.79,130.06,370,124.79,371.58Z" style="fill:#FFA52E"></path><path d="M134.6,350.74A91.21,91.21,0,0,1,121.33,356a55.93,55.93,0,0,0-8.86,3.2c2.86-6.37,6-12.61,9.32-18.8,4.38-1.26,9-3.23,12.27-6.33a.19.19,0,0,0-.24-.29c-3.61,2.55-7.59,4.08-11.58,5.81q1.35-2.51,2.74-5c.25-.46-.38-.92-.69-.47a142.82,142.82,0,0,0-9.62,16.16,74.65,74.65,0,0,1-.7-14.8.1.1,0,0,0-.19,0,49.36,49.36,0,0,0,.16,16.27c-2.37,4.74-4.53,9.59-6.48,14.51-.77-3-1.77-5.86-2.44-8.84a40.26,40.26,0,0,1-1-13,.1.1,0,0,0-.2,0,45.93,45.93,0,0,0,2.84,23.92c-1.13,3-2.21,5.93-3.2,8.91a177.49,177.49,0,0,0-9,47,.29.29,0,0,0,.58,0,232.47,232.47,0,0,1,10.09-46.42c2-5.9,4.22-11.63,6.7-17.25,4-1.18,8-2.79,11.91-4.15s7.76-2.86,11-5.38A.14.14,0,0,0,134.6,350.74Z" style="fill:#263238"></path><path d="M140.91,344.37c-4.14,1.47-8.06,3.53-12.2,5-.19.07-.08.37.12.33,4.37-.9,8.71-2.25,12.24-5.12C141.21,344.5,141.06,344.32,140.91,344.37Z" style="fill:#263238"></path><path d="M107.11,335.44c0-.22-.28-.35-.34-.12-1.14,3.81-1.92,7.86-.82,11.76,0,.16.29.16.3,0C106.44,343.14,106.23,339.31,107.11,335.44Z" style="fill:#263238"></path><path d="M124.21,326.62a10.15,10.15,0,0,0-1.79,6.49c0,.15.24.23.28.06.5-2.19,1.34-4.18,2-6.3A.28.28,0,0,0,124.21,326.62Z" style="fill:#263238"></path><path d="M44.26,381.26c2,6.29,6.7,15,14.17,15.07,4.84.05,9.72-.53,14.57-.6,5.2-.08,10.41-.06,15.59.25.43,0-.62-15.57-13.11-23.16-3.5-2.12-7.78-2.8-11.75-3.66a54.54,54.54,0,0,0-13.88-1.44c-2.87.11-5.26.72-6.28,3.66S43.31,378.26,44.26,381.26Z" style="fill:#FFA52E"></path><path d="M49.63,373.37c3,.78,6.1,1.68,9.15,2.65a32.51,32.51,0,0,0-2.52-2.46c-1.31-1.09-2.75-1.95-4.15-2.91-.12-.08,0-.3.1-.24a17.15,17.15,0,0,1,7.37,5.86c3.8,1.22,7.56,2.58,11.18,4.06a41.87,41.87,0,0,1,7.15,3.77,29.25,29.25,0,0,0-2.59-4.51c-1.66-2.14-3.9-3.34-6.07-4.87a.19.19,0,0,1,.2-.33A17.77,17.77,0,0,1,79.19,385a41.21,41.21,0,0,1,7.08,6.44c8.27,9.38,14.78,21.87,14.8,34.62,0,.3-.49.39-.55.07a70.51,70.51,0,0,0-15.76-33.85c-.59-.69-1.2-1.35-1.81-2a55.76,55.76,0,0,0-6.83-.51c-2.66,0-5.3.39-8,.6-4.36.36-9.18.41-13.11-1.78a.18.18,0,0,1,.14-.33c8.76,3.19,18-.86,26.75,1a41.31,41.31,0,0,0-13-8.36l-.81-.32c-5.63.68-11.57,2.14-17.05.32-.16-.06-.09-.31.07-.26,5.3,1.32,10.38-.34,15.6-.61-5.69-2.21-11.49-4-17.19-6.18C49.13,373.68,49.11,373.24,49.63,373.37Z" style="fill:#263238"></path><path d="M47.15,378.91a75,75,0,0,0,8.19.62c.06,0,.08.1,0,.12a17.07,17.07,0,0,1-8.27-.53C47,379.08,47,378.89,47.15,378.91Z" style="fill:#263238"></path><path d="M65.65,373.51a13.43,13.43,0,0,1,4,2.82c.15.13,0,.38-.2.27-.69-.5-1.4-1-2.11-1.44a19.39,19.39,0,0,1-2-1.25C65.23,373.76,65.43,373.43,65.65,373.51Z" style="fill:#263238"></path><path d="M109.76,393.79c-.1.21.2.4.32.19,0,0,0,0,0,0a.27.27,0,0,0,.19.13,125.86,125.86,0,0,0,15.26,2.66c4.13.37,8.89.6,12.51-1.8,4.9-3.25,8.12-11.93,5.47-17.45-3.13-6.55-12.57-3-17.31-.67A34.72,34.72,0,0,0,109.76,393.79Z" style="fill:#FFA52E"></path><path d="M106.09,396.82a49,49,0,0,1,9.11-6.94,31.29,31.29,0,0,1,9.24-9.41c.18-.13.34.16.17.28a42.15,42.15,0,0,0-7.78,8.19,87.35,87.35,0,0,1,11.43-5.2,15.27,15.27,0,0,1,6.14-6.15s.11.05.06.09a25.07,25.07,0,0,0-5.54,5.82c2.32-.87,4.66-1.68,7-2.46.21-.07.29.26.09.33-4.17,1.63-8.44,3.35-12.58,5.34a48.33,48.33,0,0,0,15.23,0c.14,0,.2.18.06.22a30.06,30.06,0,0,1-16.16.24,77.39,77.39,0,0,0-7.66,4.29,19.45,19.45,0,0,1,6.19.51A47.06,47.06,0,0,0,132,393.15a.13.13,0,0,1,0,.25c-6.31,1.09-12.28-1.78-18.54-1a48.3,48.3,0,0,0-6.52,5.33,48.88,48.88,0,0,0-9.51,13.41c-2.63,5.36-4.06,11-6.19,16.59a.2.2,0,0,1-.39-.11C92.69,416.66,98.13,404.61,106.09,396.82Z" style="fill:#263238"></path><path d="M125.14,381.84a7,7,0,0,1,1.62-2,6.33,6.33,0,0,1,1.86-1.4c.06,0,.1.06.06.11-.52.58-1.24,1-1.8,1.58s-1,1.23-1.59,1.78A.09.09,0,0,1,125.14,381.84Z" style="fill:#263238"></path><path d="M135.55,385.23c.94-.24,1.93-.22,2.88-.41a27.3,27.3,0,0,0,2.8-.84c.12,0,.19.14.08.21a9.28,9.28,0,0,1-5.76,1.33A.15.15,0,0,1,135.55,385.23Z" style="fill:#263238"></path><polygon points="80.07 414.12 80.9 423.53 83.71 455.32 108.6 455.32 112.12 423.53 113.16 414.12 80.07 414.12" style="fill:#455a64"></polygon><polygon points="80.07 414.12 80.9 423.53 112.12 423.53 113.16 414.12 80.07 414.12" style="fill:#263238"></polygon><rect x="77.61" y="411.55" width="38.02" height="7.64" transform="translate(193.23 830.74) rotate(180)" style="fill:#455a64"></rect></g><g id="freepik--Character--inject-949"><path d="M334.52,454.81c2,.65,59.27-.1,61.43-1.51.83-.52,1.21-8.87,1.37-19,0-.11,0-.21,0-.32,0-2.08.06-4.23.06-6.4,0-.3,0-.6,0-.89l-37.31.1,0,1.17.23,6.09,0,.62s-21.79,10.09-24,11.9S332.51,454.17,334.52,454.81Z" style="fill:#ebebeb"></path><path d="M334.51,454.81c1,.33,16.59.29,31.8,0,3.06-.06,6.1-.13,9-.21,10.84-.3,19.8-.75,20.63-1.29s1.2-8.64,1.37-18.55c0-.14,0-.28,0-.42s0-.22,0-.33h-.05l-36.9.07,0,.63s-21.79,10.08-24,11.89S332.51,454.17,334.51,454.81Z" style="fill:#FFA52E"></path><path d="M335.14,452.58c9.65-.36,48.6-.91,58.17-.54.07,0,.07.06,0,.06-9.56.57-48.51.81-58.17.64C334.94,452.74,334.94,452.59,335.14,452.58Z" style="fill:#263238"></path><path d="M356.27,434.23c3.79-.75,8.44-.23,11.38,2.44.11.1,0,.26-.16.22a53.87,53.87,0,0,0-11.2-2.18A.24.24,0,0,1,356.27,434.23Z" style="fill:#263238"></path><path d="M353.55,435.92c3.79-.76,8.44-.23,11.38,2.44.11.1,0,.26-.16.22a53.87,53.87,0,0,0-11.2-2.18A.24.24,0,0,1,353.55,435.92Z" style="fill:#263238"></path><path d="M350.83,437.61c3.79-.76,8.44-.23,11.38,2.43.11.11,0,.27-.16.23a53.22,53.22,0,0,0-11.2-2.18A.24.24,0,0,1,350.83,437.61Z" style="fill:#263238"></path><path d="M366.31,454.8c3.06-.06,6.1-.13,9-.21,10.84-.3,19.8-.75,20.63-1.29s1.2-8.64,1.37-18.55c0-.14,0-.28,0-.42s0-.22,0-.33h-.05C392.23,437.55,374.41,449.41,366.31,454.8Z" style="fill:#263238"></path><path d="M357.87,434.2H399.1s-8.3-96.31-8-98c.41-2.16,2.84-11.91,6.08-24.64,1-4,2.11-8.26,3.25-12.69,3.08-12,6.47-25.08,9.42-36.48,4.43-17.07,7.89-30.33,7.89-30.33H382.82s-4.07,12.91-9.2,29.71c-8.37,27.3-19.55,64.88-20.65,74C351.18,350.55,357.87,434.2,357.87,434.2Z" style="fill:#37474f"></path><path d="M359.69,427.17c6.3-.13,4.49-.18,10.79-.25,3.08,0,23.34-.2,26.22.28a.06.06,0,0,1,0,.12c-2.88.48-23.14.3-26.22.27-6.3-.06-4.49-.11-10.79-.24A.09.09,0,0,1,359.69,427.17Z" style="fill:#263238"></path><path d="M383.37,330.32c1.35-6,3.37-11.8,5.13-17.65q5.36-17.84,10.78-35.65,2.72-8.91,5.44-17.81c.93-3,1.85-6,2.78-9s2-5.83,2.79-8.79c.34-1.2.53-.54.09,1-.87,3.07-1.72,6.15-2.62,9.22q-2.67,9.12-5.36,18.22Q397,288,391.58,306.09l-5.46,18.14a73.78,73.78,0,0,0-2.23,8.78,40.42,40.42,0,0,0-.36,9.39c.39,6.31,1.12,12.61,1.71,18.91s1.16,12.61,1.75,18.92q1.74,18.82,3.45,37.66c.14,1.59.28,3.18.41,4.78,0,.53-.77.49-.82,0-1.36-12.42-2.4-24.87-3.57-37.3L383,348.24c-.29-3.11-.62-6.22-.62-9.34A38.69,38.69,0,0,1,383.37,330.32Z" style="fill:#263238"></path><path d="M386.79,232.07c2.43,18.77,7,54,10.42,79.5,7.89-30.94,20.56-79.5,20.56-79.5Z" style="fill:#263238"></path><path d="M378.21,455.36c2,.66,59.26.12,61.43-1.28.83-.52,1.24-8.87,1.44-19,0-.11,0-.21,0-.32,0-2.08.08-4.22.09-6.4,0-.3,0-.6,0-.89l-37.3,0,0,1.16.21,6.09,0,.63s-21.83,10-24.05,11.8S376.2,454.71,378.21,455.36Z" style="fill:#ebebeb"></path><path d="M378.21,455.36c2,.66,59.26.12,61.43-1.28.83-.52,1.24-8.87,1.44-19,0-.11,0-.21,0-.32l-36.95-.07,0,.63s-21.83,10-24.05,11.8S376.2,454.71,378.21,455.36Z" style="fill:#FFA52E"></path><path d="M378.83,453.13c9.65-.32,48.61-.73,58.17-.32.08,0,.08.06,0,.06-9.56.53-48.51.63-58.17.42C378.63,453.29,378.63,453.14,378.83,453.13Z" style="fill:#263238"></path><path d="M400,434.87c3.79-.75,8.44-.21,11.37,2.47.11.1,0,.26-.16.23a52.57,52.57,0,0,0-11.19-2.22A.24.24,0,0,1,400,434.87Z" style="fill:#263238"></path><path d="M397.3,436.54c3.79-.74,8.45-.2,11.37,2.48.12.1,0,.26-.16.22A53.71,53.71,0,0,0,397.32,437,.24.24,0,0,1,397.3,436.54Z" style="fill:#263238"></path><path d="M394.58,438.22c3.79-.74,8.44-.2,11.37,2.48.11.1,0,.26-.16.22a54,54,0,0,0-11.19-2.22A.24.24,0,0,1,394.58,438.22Z" style="fill:#263238"></path><path d="M384,232.07s.81,16.72,4.63,30c.31,1.1.64,2.18,1,3.21a62.52,62.52,0,0,1,10.08,5.18s.4,13.45.8,28.46c.45,16.77.91,35.48.82,39.45-.35,14.84,1.85,96.48,1.85,96.48l41.23.16s-7.45-91.16-7.4-96.6c.08-8.74-2-47.38-3.6-75.56-1-17.36-1.79-30.74-1.79-30.74Z" style="fill:#37474f"></path><path d="M404.55,427.47c6.29-.1,4.49-.16,10.78-.19,3.09,0,23.34-.11,26.22.38.07,0,.06.12,0,.13-2.88.46-23.14.2-26.22.16-6.3-.09-4.49-.13-10.78-.29A.1.1,0,0,1,404.55,427.47Z" style="fill:#263238"></path><path d="M428.11,238c.76,23,1.56,46,2.59,69s2.42,46.14,4.36,69.15c1.07,12.86,2.09,30.95,3.48,43.77a.07.07,0,0,1-.14,0c-3-22.81-4.67-51-6.15-74s-2.47-46-3.26-68.95c-.44-13-.78-26-1.17-39C427.82,237.84,428.1,237.86,428.11,238Z" style="fill:#263238"></path><path d="M387.87,264.24a77.38,77.38,0,0,1,11.79,6.18.14.14,0,0,1-.13.24c-4-1.93-8-3.79-11.9-5.94A.27.27,0,0,1,387.87,264.24Z" style="fill:#263238"></path><path d="M387.64,250.06c.27,1.46.63,2.91.94,4.37s.52,2.76.88,4.11a7.07,7.07,0,0,0,1.91,3.45c.54.5,1.13.94,1.7,1.39.31.25.64.49,1,.74,0-.2-.07-.39-.11-.59-.09-.56-.19-1.11-.28-1.67-.21-1.24-.41-2.47-.59-3.71-.38-2.43-.72-4.89-1.23-7.29a.08.08,0,0,1,.16,0c.6,2.38,1.27,4.74,1.8,7.15.26,1.18,1.18,7,1.22,7.42s.08.85.09,1.28a4.72,4.72,0,0,1,0,1.3c0,.11-.15.09-.19,0h0a5.61,5.61,0,0,1-.37-1.27c-.11-.42-.2-.84-.28-1.26,0-.15,0-.31-.07-.47-.57-.34-1.1-.8-1.64-1.19s-1.17-.83-1.71-1.29a6.54,6.54,0,0,1-2.1-3.27,23.62,23.62,0,0,1-.68-4.19c-.19-1.65-.32-3.31-.55-5C387.47,250,387.62,250,387.64,250.06Z" style="fill:#263238"></path><path d="M406.15,188.93c-5.69,9.48-30,30-38.55,30.44-6.19.36-27.68-16.63-33.45-22.61-5.57-5.76,14.63-21.42,18.13-18.26,4.94,4.45,15.76,17.29,18.15,17.7,1.67.28,12-4.56,28-13.7C407.35,177.44,409.55,183.27,406.15,188.93Z" style="fill:#ad6359"></path><path d="M345.05,169.49c-3.45-2-7.24-4.45-11.34-5.09s-8.43,4.16-8.7,5.7-.41,11.44,3.67,12.15,2.91-7.11,3.21-7.93.65-1.87,1.41-1.66,13.11,9,13.11,9Z" style="fill:#ad6359"></path><path d="M344.69,170c-.23,0-10.41-6.27-14.51-6.9s-8.43,4.15-8.7,5.69-.41,11.44,3.67,12.16,2.91-7.11,3.21-7.93.65-1.88,1.41-1.67,13.11,9,13.11,9Z" style="fill:#ad6359"></path><path d="M326.62,180.67a4.91,4.91,0,0,0,1.11-2.29,8.66,8.66,0,0,0,.31-2.63,14,14,0,0,1-.11-2.33,4.64,4.64,0,0,1,.95-2.06c.42-.52,1-.22,1.46,0a20.49,20.49,0,0,1,2.05,1.39l2.11,1.6a21,21,0,0,1,2.15,1.72s0,.14-.07.1a22,22,0,0,1-1.91-1.29c-.71-.5-1.43-1-2.15-1.48s-1.32-.94-2-1.38c-.24-.16-.71-.53-1-.51s-.61.75-.73,1a4,4,0,0,0-.24,2.23,11.88,11.88,0,0,1,0,2.31,6,6,0,0,1-.54,2.09,8.55,8.55,0,0,1-1.29,1.59C326.67,180.84,326.56,180.73,326.62,180.67Z" style="fill:#263238"></path><path d="M355.76,183s-9.51-12.3-11.5-14.76c-4-4.93-22.48-16.54-25.2-17.32s-4.72,4.73,7.75,13c6.57,4.36,7.13,8.65,6.59,10.89s-3.42,6.07-7.2,5.3-5.28-6.75-8.66-8-2.2,5.58-.38,9.71A23.6,23.6,0,0,0,326,191.6c3.07,1.8,12.47,8,12.47,8Z" style="fill:#ad6359"></path><path d="M322,176.6c1.24,1.36,2.61,3.08,4.48,3.48s3.42-.63,4.6-2.06a7.33,7.33,0,0,0,1.92-5.08,9,9,0,0,0-1.86-4.71,21.49,21.49,0,0,0-4.55-4.33c-.07-.06,0-.16.1-.11,1.61,1.09,6.66,4.27,6.91,9.26a7.51,7.51,0,0,1-2,5.17c-1.11,1.36-2.59,2.61-4.46,2.43-2.27-.21-3.89-2.37-5.26-4C321.77,176.56,321.89,176.53,322,176.6Z" style="fill:#263238"></path><path d="M352.68,178.85,337,207.09s23.41,13.8,31,13,29.6-18.64,38.22-30.34c5.25-7.12,1.55-13.15-8.67-7.81-10.52,5.48-25.26,13-26.31,13.21S352.68,178.85,352.68,178.85Z" style="fill:#FFA52E"></path><path d="M369,199.53a7.86,7.86,0,0,1-1.67,3.64,7,7,0,0,1,.6-1.93A7.52,7.52,0,0,1,369,199.53Z" style="fill:#fff"></path><path d="M348,193.22a7.28,7.28,0,0,1-.6,1.92,7.11,7.11,0,0,1-1.07,1.71,7.62,7.62,0,0,1,1.67-3.63Z" style="fill:#fff"></path><path d="M390.85,188.68a6.93,6.93,0,0,1-.6,1.92,6.53,6.53,0,0,1-1.07,1.71,6.93,6.93,0,0,1,.6-1.92A7.11,7.11,0,0,1,390.85,188.68Z" style="fill:#fff"></path><path d="M367.32,214.79a7,7,0,0,1-1.93-.6,6.7,6.7,0,0,1-1.71-1.07,7,7,0,0,1,1.93.6A7.31,7.31,0,0,1,367.32,214.79Z" style="fill:#fff"></path><path d="M344.23,206.73a7,7,0,0,1-1.93-.6,7.31,7.31,0,0,1-1.71-1.07,7,7,0,0,1,1.93.6A7.18,7.18,0,0,1,344.23,206.73Z" style="fill:#fff"></path><path d="M354.7,184.55a7,7,0,0,1-1.93-.59,7.31,7.31,0,0,1-1.71-1.07,7,7,0,0,1,1.93.59A7.31,7.31,0,0,1,354.7,184.55Z" style="fill:#fff"></path><path d="M380.61,196.85a7,7,0,0,1,.94,1.79,6.83,6.83,0,0,1,.46,2,7.35,7.35,0,0,1-.95-1.79A7.16,7.16,0,0,1,380.61,196.85Z" style="fill:#fff"></path><path d="M356.18,201.37a7.08,7.08,0,0,1,.94,1.78,7.16,7.16,0,0,1,.45,2,7.08,7.08,0,0,1-.94-1.78A7.24,7.24,0,0,1,356.18,201.37Z" style="fill:#fff"></path><path d="M399.48,189.84a7.08,7.08,0,0,1,.94,1.78,7.16,7.16,0,0,1,.45,2,7.84,7.84,0,0,1-1.39-3.75Z" style="fill:#fff"></path><path d="M391.53,203.1a7.35,7.35,0,0,1,1.79-.95,7.16,7.16,0,0,1,2-.45,7,7,0,0,1-1.79.94A7.17,7.17,0,0,1,391.53,203.1Z" style="fill:#fff"></path><path d="M358.89,193a7.31,7.31,0,0,1,1.79-.94,7.16,7.16,0,0,1,2-.45,7.31,7.31,0,0,1-1.79.94A7.16,7.16,0,0,1,358.89,193Z" style="fill:#fff"></path><path d="M374.78,208.81a7.31,7.31,0,0,1,1.79-.94,7.16,7.16,0,0,1,2-.45,7.31,7.31,0,0,1-1.79.94A7.16,7.16,0,0,1,374.78,208.81Z" style="fill:#fff"></path><path d="M350.18,212.83a7.41,7.41,0,0,1,1.78-.94,7.16,7.16,0,0,1,2-.45,6.77,6.77,0,0,1-1.78.94A7.24,7.24,0,0,1,350.18,212.83Z" style="fill:#fff"></path><path d="M351.11,197.1c1-2.15,5.06-10.75,5.9-13,0,0,0-.07-.06,0-1.21,2-5.45,10.33-6.48,12.48a132.54,132.54,0,0,0-5.78,13c0,.08.09.16.14.08C347.2,205.63,349.09,201.33,351.11,197.1Z" style="fill:#263238"></path><path d="M406.23,189.8c-7,9.48-22.79,23-32.55,28.22l29.94-38h0C409,179.53,410.25,184.34,406.23,189.8Z" style="fill:#263238"></path><path d="M435.87,256.91c-.15.15-60.56-4-61.07-4.64-.7-.93,18.42-62.32,23.21-71.34,2-3.84,11.81-4.4,15.67-.76,9.67,9.09,16.4,38.49,17.81,47.3C433.84,242,436.41,256.38,435.87,256.91Z" style="fill:#FFA52E"></path><path d="M407.07,197.72a7.88,7.88,0,0,1-1.67,3.63,6.83,6.83,0,0,1,.6-1.92A6.53,6.53,0,0,1,407.07,197.72Z" style="fill:#fff"></path><path d="M400.15,222.69a6.93,6.93,0,0,1-.6,1.92,6.81,6.81,0,0,1-1.07,1.71,6.93,6.93,0,0,1,.6-1.92A7.31,7.31,0,0,1,400.15,222.69Z" style="fill:#fff"></path><path d="M393.3,249.86a7.86,7.86,0,0,1-1.67,3.64,7.6,7.6,0,0,1,1.67-3.64Z" style="fill:#fff"></path><path d="M421.23,216.72a7.86,7.86,0,0,1-1.67,3.64,6.89,6.89,0,0,1,.6-1.93A6.7,6.7,0,0,1,421.23,216.72Z" style="fill:#fff"></path><path d="M430,234.45a7.28,7.28,0,0,1-.6,1.92,7.11,7.11,0,0,1-1.07,1.71,6.93,6.93,0,0,1,.6-1.92A6.53,6.53,0,0,1,430,234.45Z" style="fill:#fff"></path><path d="M406.23,244.31a7.33,7.33,0,0,1-.59,1.93,7.23,7.23,0,0,1-1.08,1.71,7.86,7.86,0,0,1,1.67-3.64Z" style="fill:#fff"></path><path d="M388.32,212.14a7.1,7.1,0,0,1-.6,1.93,6.88,6.88,0,0,1-1.07,1.71,6.89,6.89,0,0,1,.6-1.93A7.31,7.31,0,0,1,388.32,212.14Z" style="fill:#fff"></path><path d="M414.29,209a7.86,7.86,0,0,1-3.64-1.67,7.86,7.86,0,0,1,3.64,1.67Z" style="fill:#fff"></path><path d="M419.77,231a7.33,7.33,0,0,1-1.93-.59,7.23,7.23,0,0,1-1.71-1.08,7.86,7.86,0,0,1,3.64,1.67Z" style="fill:#fff"></path><path d="M416.86,255.69l-1.07-.07-.41-.18a7.31,7.31,0,0,1-1.71-1.07,7,7,0,0,1,1.93.6A7.56,7.56,0,0,1,416.86,255.69Z" style="fill:#fff"></path><path d="M394.28,234.85a7,7,0,0,1-1.93-.59,7.31,7.31,0,0,1-1.71-1.07,7,7,0,0,1,1.93.59A7.31,7.31,0,0,1,394.28,234.85Z" style="fill:#fff"></path><path d="M414.29,189.86a7.33,7.33,0,0,1-1.93-.59,7,7,0,0,1-1.71-1.08,7.86,7.86,0,0,1,3.64,1.67Z" style="fill:#fff"></path><path d="M419.7,193.07a7.31,7.31,0,0,1,.94,1.79,7.17,7.17,0,0,1,.45,2,7.08,7.08,0,0,1-.94-1.78A7.16,7.16,0,0,1,419.7,193.07Z" style="fill:#fff"></path><path d="M427.8,221.29a7.08,7.08,0,0,1,.94,1.78,7.16,7.16,0,0,1,.45,2,7.31,7.31,0,0,1-.94-1.79A7.17,7.17,0,0,1,427.8,221.29Z" style="fill:#fff"></path><path d="M427.1,246.69a7.35,7.35,0,0,1,.95,1.79,7.17,7.17,0,0,1,.45,2,6.77,6.77,0,0,1-.94-1.78A7.17,7.17,0,0,1,427.1,246.69Z" style="fill:#fff"></path><path d="M398.37,209.36a7.29,7.29,0,0,1,.94,1.79,7.09,7.09,0,0,1,.45,2,7.74,7.74,0,0,1-1.39-3.75Z" style="fill:#fff"></path><path d="M407.17,232.18a7.31,7.31,0,0,1,.94,1.79,7.17,7.17,0,0,1,.45,2,7.08,7.08,0,0,1-.94-1.78A7.16,7.16,0,0,1,407.17,232.18Z" style="fill:#fff"></path><path d="M383.26,241.49a7.41,7.41,0,0,1,.94,1.78,7.16,7.16,0,0,1,.45,2,7.74,7.74,0,0,1-1.39-3.75Z" style="fill:#fff"></path><path d="M399.48,189.84a7.08,7.08,0,0,1,.94,1.78,7.16,7.16,0,0,1,.45,2,7.84,7.84,0,0,1-1.39-3.75Z" style="fill:#fff"></path><path d="M391.53,203.1a7.35,7.35,0,0,1,1.79-.95,7.16,7.16,0,0,1,2-.45,7,7,0,0,1-1.79.94A7.17,7.17,0,0,1,391.53,203.1Z" style="fill:#fff"></path><path d="M415.89,242.88a7.31,7.31,0,0,1,1.79-.94,7.16,7.16,0,0,1,2-.45,7.31,7.31,0,0,1-1.79.94A7.16,7.16,0,0,1,415.89,242.88Z" style="fill:#fff"></path><path d="M383.82,225.82a7,7,0,0,1,1.79-.94,7.09,7.09,0,0,1,2-.45,7.08,7.08,0,0,1-1.78.94A7.16,7.16,0,0,1,383.82,225.82Z" style="fill:#fff"></path><path d="M426.1,205.26a7.74,7.74,0,0,1-1.5.74,7.16,7.16,0,0,1-2,.45,7.14,7.14,0,0,1,1.79-.94,7.35,7.35,0,0,1,1.63-.41A.75.75,0,0,1,426.1,205.26Z" style="fill:#fff"></path><path d="M397.13,242.88a7.31,7.31,0,0,1,1.79-.94,7.16,7.16,0,0,1,2-.45,7.31,7.31,0,0,1-1.79.94A7.16,7.16,0,0,1,397.13,242.88Z" style="fill:#fff"></path><path d="M406.23,218.11a7.31,7.31,0,0,1,1.79-.94,7.16,7.16,0,0,1,2-.45,7.31,7.31,0,0,1-1.79.94A7.16,7.16,0,0,1,406.23,218.11Z" style="fill:#fff"></path><path d="M397.64,181.91s.05,0,0,0c-.35,2.73-1,9.07,3.32,9a9.2,9.2,0,0,0,4.79-2,23.68,23.68,0,0,0,3.9-3.45,35.65,35.65,0,0,0,3.72-4.51c0-.07.15,0,.1.08-1.13,1.6-2.1,3.29-3.39,4.78a21.05,21.05,0,0,1-4.22,3.83,9.12,9.12,0,0,1-5.08,1.9,3.46,3.46,0,0,1-3.34-2.85A15.27,15.27,0,0,1,397.64,181.91Z" style="fill:#263238"></path><polygon points="354.66 269.4 391.51 265.77 369.64 220.19 332.79 223.82 354.66 269.4" style="fill:#ebebeb"></polygon><polygon points="352.14 269.65 388.99 266.02 367.12 220.44 330.27 224.07 352.14 269.65" style="fill:#c7c7c7"></polygon><path d="M363.21,220.83A3.28,3.28,0,0,0,365,222.6c.37.15.42-.32.06-.46a2.44,2.44,0,0,1-1.19-1.11,2.72,2.72,0,0,1-.11-.25,1.73,1.73,0,0,1-.15-.9.59.59,0,0,1,.18-.34l0,0,0,0,.07,0a.39.39,0,0,1,.26,0,.88.88,0,0,1,.45.23,2.52,2.52,0,0,1,.42.45c.07.08.12.17.19.26l0,.06a.41.41,0,0,1,.05.09s0,0,0,.06l.52-.05a3.88,3.88,0,0,0-.59-.86,2,2,0,0,0-1.5-.76.81.81,0,0,0-.75.83A2.15,2.15,0,0,0,363.21,220.83Z" style="fill:#a6a6a6"></path><path d="M360.32,221.11a3.3,3.3,0,0,0,1.77,1.77c.37.16.42-.31.05-.46a2.43,2.43,0,0,1-1.19-1.11c0-.08-.08-.17-.11-.25a1.77,1.77,0,0,1-.14-.89.64.64,0,0,1,.17-.35l0,0,0,0H361a.45.45,0,0,1,.26,0,1.14,1.14,0,0,1,.45.23,2.22,2.22,0,0,1,.41.46,1.64,1.64,0,0,1,.19.25l0,.06a.47.47,0,0,1,.06.09s0,0,0,.06l.53-.05a3.88,3.88,0,0,0-.59-.86,2,2,0,0,0-1.51-.76.83.83,0,0,0-.75.84A2.2,2.2,0,0,0,360.32,221.11Z" style="fill:#a6a6a6"></path><path d="M357.44,221.4a3.26,3.26,0,0,0,1.77,1.77c.37.15.41-.32.05-.46a2.53,2.53,0,0,1-1.19-1.11,2.72,2.72,0,0,1-.11-.25,1.72,1.72,0,0,1-.14-.9.53.53,0,0,1,.17-.34l0,0,0,0,.07,0a.39.39,0,0,1,.26,0,.88.88,0,0,1,.45.23,2,2,0,0,1,.42.45c.07.08.12.17.19.26l0,.06a.41.41,0,0,1,0,.09s0,0,0,.06l.52-.05a3.66,3.66,0,0,0-.59-.86,2,2,0,0,0-1.5-.76.8.8,0,0,0-.75.83A2.15,2.15,0,0,0,357.44,221.4Z" style="fill:#a6a6a6"></path><path d="M354.55,221.68a3.3,3.3,0,0,0,1.77,1.77c.37.15.42-.32.05-.46a2.41,2.41,0,0,1-1.18-1.11,1.36,1.36,0,0,1-.11-.25,1.71,1.71,0,0,1-.15-.89.57.57,0,0,1,.18-.35l0,0s0,0,0,0l.07,0a.57.57,0,0,1,.26,0,1.14,1.14,0,0,1,.45.23,2,2,0,0,1,.41.46,1.64,1.64,0,0,1,.19.25l0,.06a.47.47,0,0,1,.06.09s0,0,0,.06l.52-.05a3.88,3.88,0,0,0-.59-.86,2,2,0,0,0-1.5-.76.81.81,0,0,0-.75.83A2.11,2.11,0,0,0,354.55,221.68Z" style="fill:#a6a6a6"></path><path d="M351.67,222a3.22,3.22,0,0,0,1.77,1.76c.37.16.41-.31.05-.46a2.46,2.46,0,0,1-1.19-1.1,2,2,0,0,1-.11-.26,1.67,1.67,0,0,1-.14-.89.58.58,0,0,1,.17-.35l0,0,.05,0,.06,0a.46.46,0,0,1,.26,0,1.07,1.07,0,0,1,.45.23,2.25,2.25,0,0,1,.42.46c.07.08.12.17.19.26l0,.06a.41.41,0,0,1,.05.09s0,0,0,.06l.52,0a3.88,3.88,0,0,0-.58-.87,2.08,2.08,0,0,0-1.51-.76.81.81,0,0,0-.75.84A2.15,2.15,0,0,0,351.67,222Z" style="fill:#a6a6a6"></path><path d="M348.78,222.25a3.3,3.3,0,0,0,1.77,1.77c.37.15.42-.32.06-.46a2.44,2.44,0,0,1-1.19-1.11,1.36,1.36,0,0,1-.11-.25,1.73,1.73,0,0,1-.15-.9.54.54,0,0,1,.18-.34l0,0s0,0,0,0l.07,0a.46.46,0,0,1,.26,0,1.07,1.07,0,0,1,.45.23,2.52,2.52,0,0,1,.42.45,2.4,2.4,0,0,1,.18.26l0,.06a.47.47,0,0,1,.06.09s0,0,0,.06l.52,0a3.88,3.88,0,0,0-.59-.86,2,2,0,0,0-1.5-.76.81.81,0,0,0-.75.83A2.11,2.11,0,0,0,348.78,222.25Z" style="fill:#a6a6a6"></path><path d="M345.9,222.53a3.26,3.26,0,0,0,1.77,1.77c.37.16.42-.31.05-.46a2.46,2.46,0,0,1-1.19-1.1l-.11-.26a1.77,1.77,0,0,1-.14-.89.58.58,0,0,1,.17-.35l0,0s0,0,0,0h.06a.49.49,0,0,1,.27,0,1.21,1.21,0,0,1,.45.23,2.22,2.22,0,0,1,.41.46c.07.08.13.17.19.25l0,.07a.19.19,0,0,1,.05.09s0,0,0,.06l.52-.06a4.06,4.06,0,0,0-.58-.86,2,2,0,0,0-1.51-.76.82.82,0,0,0-.75.84A2.09,2.09,0,0,0,345.9,222.53Z" style="fill:#a6a6a6"></path><path d="M343,222.82a3.33,3.33,0,0,0,1.77,1.77c.37.15.42-.32.06-.46a2.44,2.44,0,0,1-1.19-1.11,2.72,2.72,0,0,1-.11-.25,1.73,1.73,0,0,1-.15-.9.54.54,0,0,1,.18-.34l0,0s0,0,0,0l.07,0a.46.46,0,0,1,.26,0,.88.88,0,0,1,.45.23,2.52,2.52,0,0,1,.42.45c.07.08.12.17.19.26l0,.06a.47.47,0,0,1,.06.09s0,0,0,.06l.52-.05a3.88,3.88,0,0,0-.59-.86,2,2,0,0,0-1.5-.76.81.81,0,0,0-.75.83A2.25,2.25,0,0,0,343,222.82Z" style="fill:#a6a6a6"></path><path d="M340.13,223.1a3.3,3.3,0,0,0,1.77,1.77c.37.16.42-.31.05-.46a2.43,2.43,0,0,1-1.19-1.11,2.72,2.72,0,0,1-.11-.25,1.77,1.77,0,0,1-.14-.89.64.64,0,0,1,.17-.35s0,0,0,0l.05,0h.07a.45.45,0,0,1,.26,0,1.21,1.21,0,0,1,.45.23,2.22,2.22,0,0,1,.41.46,2.35,2.35,0,0,1,.19.25l0,.06a.41.41,0,0,1,0,.09s0,0,0,.06l.53,0a3.88,3.88,0,0,0-.59-.86,2,2,0,0,0-1.51-.76.82.82,0,0,0-.75.84A2.2,2.2,0,0,0,340.13,223.1Z" style="fill:#a6a6a6"></path><path d="M337.25,223.39a3.28,3.28,0,0,0,1.76,1.77c.37.15.42-.32.06-.46a2.48,2.48,0,0,1-1.19-1.11,2.72,2.72,0,0,1-.11-.25,1.73,1.73,0,0,1-.15-.9.59.59,0,0,1,.18-.34l0,0,0,0,.07,0a.39.39,0,0,1,.26,0,.88.88,0,0,1,.45.23,2.23,2.23,0,0,1,.42.45c.07.08.12.17.19.26l0,.06a.41.41,0,0,1,.05.09s0,0,0,.06l.52-.05a3.66,3.66,0,0,0-.59-.86,2,2,0,0,0-1.5-.76.8.8,0,0,0-.75.83A2.15,2.15,0,0,0,337.25,223.39Z" style="fill:#a6a6a6"></path><path d="M334.36,223.67a3.3,3.3,0,0,0,1.77,1.77c.37.15.42-.32.05-.46a2.48,2.48,0,0,1-1.19-1.11c0-.08-.08-.17-.11-.25a1.79,1.79,0,0,1-.14-.89.64.64,0,0,1,.17-.35l0,0,0,0h.07a.45.45,0,0,1,.26,0,1.14,1.14,0,0,1,.45.23,2.22,2.22,0,0,1,.41.46,1.64,1.64,0,0,1,.19.25l0,.06a.2.2,0,0,1,.05.09s0,0,0,.06l.53-.05a3.88,3.88,0,0,0-.59-.86,2,2,0,0,0-1.51-.76.83.83,0,0,0-.75.83A2.22,2.22,0,0,0,334.36,223.67Z" style="fill:#a6a6a6"></path><path d="M331.48,224a3.26,3.26,0,0,0,1.77,1.77c.37.15.41-.32.05-.46a2.53,2.53,0,0,1-1.19-1.11,2,2,0,0,1-.11-.26,1.67,1.67,0,0,1-.14-.89.53.53,0,0,1,.17-.34s0,0,0,0l0,0,.07,0a.46.46,0,0,1,.26,0,1,1,0,0,1,.45.24,2,2,0,0,1,.42.45c.07.08.12.17.19.26l0,.06a.41.41,0,0,1,.05.09s0,0,0,.06l.52-.05a3.93,3.93,0,0,0-.59-.87,2,2,0,0,0-1.5-.76.81.81,0,0,0-.75.84A2.15,2.15,0,0,0,331.48,224Z" style="fill:#a6a6a6"></path><path d="M420.9,188c9.86,13.73,31.08,45.09,24.82,52.33-10.3,11.92-35.42,22.35-43.29,24.71-3.4,1-15.56-23.67-12.35-25.7,3.84-2.44,28.45-12.11,28.57-13.3s-4.47-18.19-6-31.52C410.79,178,416.78,182.27,420.9,188Z" style="fill:#ad6359"></path><path d="M402.45,237.61s-10.35-3-17.21-4.7c-3.83-.93-10.54-1.94-13.66-1.34-4.68.9-23.65,7.66-22.11,12.3,1.39,4.2,17-3.68,17-3.68s-16.41,6.56-13.8,11.3,19-6.49,19-6.49-16.7,7.12-13.24,11.59c2.62,3.37,18.05-6,18.05-6s-14.32,6.22-11.78,9.8c2.81,4,17.59-3.76,17.59-3.76,8,8,14.93,9.1,20.18,8.38C403.65,264.87,402.45,237.61,402.45,237.61Z" style="fill:#ad6359"></path><path d="M371.19,237.89c-12.46,3.91-17.37,9.64-17.2,9.52,3.81-3,10.51-6.2,12.4-7.08s2.95-1.5,4.83-2.37C371.27,237.94,371.24,237.88,371.19,237.89Z" style="fill:#263238"></path><path d="M375.23,244.31A44.32,44.32,0,0,0,361,251c-.15.12-.06.16.12.07,2.37-1.18,11.75-5.62,14.17-6.67A0,0,0,0,0,375.23,244.31Z" style="fill:#263238"></path><path d="M379.08,249.6a33,33,0,0,0-10.88,5.48c-.17.12,0,.17.16.07,3.58-1.89,6.38-3.39,10.77-5.42C379.2,249.7,379.16,249.57,379.08,249.6Z" style="fill:#263238"></path><path d="M397.65,235.52l13.85,29.55s33-17.8,35.53-26.17-20-45.15-26.79-52.66-9-4.43-8.85,4.14,6.93,35.25,6.76,35.74S397.65,235.52,397.65,235.52Z" style="fill:#FFA52E"></path><path d="M421.23,216.72a7.86,7.86,0,0,1-1.67,3.64,6.89,6.89,0,0,1,.6-1.93A6.7,6.7,0,0,1,421.23,216.72Z" style="fill:#fff"></path><path d="M430,234.45a7.28,7.28,0,0,1-.6,1.92,7.11,7.11,0,0,1-1.07,1.71,6.93,6.93,0,0,1,.6-1.92A6.53,6.53,0,0,1,430,234.45Z" style="fill:#fff"></path><path d="M406.23,244.31a7.33,7.33,0,0,1-.59,1.93,7.23,7.23,0,0,1-1.08,1.71,7.86,7.86,0,0,1,1.67-3.64Z" style="fill:#fff"></path><path d="M419.77,231a7.33,7.33,0,0,1-1.93-.59,7.23,7.23,0,0,1-1.71-1.08,7.86,7.86,0,0,1,3.64,1.67Z" style="fill:#fff"></path><path d="M417.31,256a7,7,0,0,1-1.93-.6,7.31,7.31,0,0,1-1.71-1.07,7.86,7.86,0,0,1,3.64,1.67Z" style="fill:#fff"></path><path d="M442.82,239.56a7.86,7.86,0,0,1-3.64-1.67,6.89,6.89,0,0,1,1.93.6A6.7,6.7,0,0,1,442.82,239.56Z" style="fill:#fff"></path><path d="M435.38,211.44a7,7,0,0,1-1.93-.6,6.7,6.7,0,0,1-1.71-1.07,7.86,7.86,0,0,1,3.64,1.67Z" style="fill:#fff"></path><path d="M414.29,189.86a7.33,7.33,0,0,1-1.93-.59,9.12,9.12,0,0,1-1-.53c0-.13,0-.26,0-.38a7.9,7.9,0,0,1,1.18.43A7.31,7.31,0,0,1,414.29,189.86Z" style="fill:#fff"></path><path d="M419.7,193.07a7.31,7.31,0,0,1,.94,1.79,7.17,7.17,0,0,1,.45,2,7.08,7.08,0,0,1-.94-1.78A7.16,7.16,0,0,1,419.7,193.07Z" style="fill:#fff"></path><path d="M427.8,221.29a7.08,7.08,0,0,1,.94,1.78,7.16,7.16,0,0,1,.45,2,7.31,7.31,0,0,1-.94-1.79A7.17,7.17,0,0,1,427.8,221.29Z" style="fill:#fff"></path><path d="M427.1,246.69a7.35,7.35,0,0,1,.95,1.79,7.17,7.17,0,0,1,.45,2,6.77,6.77,0,0,1-.94-1.78A7.17,7.17,0,0,1,427.1,246.69Z" style="fill:#fff"></path><path d="M407.17,232.18a7.31,7.31,0,0,1,.94,1.79,7.17,7.17,0,0,1,.45,2,7.08,7.08,0,0,1-.94-1.78A7.16,7.16,0,0,1,407.17,232.18Z" style="fill:#fff"></path><path d="M415.89,242.88a7.31,7.31,0,0,1,1.79-.94,7.16,7.16,0,0,1,2-.45,7.31,7.31,0,0,1-1.79.94A7.16,7.16,0,0,1,415.89,242.88Z" style="fill:#fff"></path><path d="M422.63,206.45a7.84,7.84,0,0,1,3.75-1.39,7.08,7.08,0,0,1-1.78.94A7.16,7.16,0,0,1,422.63,206.45Z" style="fill:#fff"></path><path d="M438.54,227a7.08,7.08,0,0,1,1.78-.94,7.16,7.16,0,0,1,2-.45,7.08,7.08,0,0,1-1.78.94A7.24,7.24,0,0,1,438.54,227Z" style="fill:#fff"></path><path d="M400.89,241.49a4,4,0,0,1-.34.23l-.08-.18A3,3,0,0,1,400.89,241.49Z" style="fill:#fff"></path><path d="M415.69,213.52c-.44-2-.88-4-1.31-6-.21-1-.43-2.09-.66-3.13l-.33-1.44c-.05-.23-.13-.47-.17-.71-.14-.88,0-.1-.24-.95,0-.06-.1,0-.1,0,.06.55-.05.33.05.75s.12.62.17.94c.07.49.15,1,.22,1.46.16,1,.34,2,.53,3,0,.13,0,.26.08.39a.42.42,0,0,0,0-.1c-.36-1.08-.74-2.14-1.12-3.21a0,0,0,0,0-.08,0c.26,1.11.55,2.2.91,3.28.2.62.45,1.23.69,1.83.26,1.32.52,2.64.79,4,.86,4.07,1.75,8.16,2.93,12.15-1.73.79-3.49,1.5-5.22,2.3s-3.45,1.62-5.18,2.44-3.44,1.63-5.15,2.47L400,234.18c-.88.45-1.72,1-2.61,1.43-.09,0,0,.17.08.13.93-.43,1.92-.73,2.85-1.14s1.65-.7,2.47-1.07c1.74-.78,3.47-1.59,5.2-2.4s3.46-1.61,5.18-2.44,3.39-1.74,5.1-2.57a.64.64,0,0,0,.2-.36C417.65,221.67,416.61,217.6,415.69,213.52Z" style="fill:#263238"></path><path d="M411.42,247.18c-1-2.14-5.21-10.68-6.42-12.72a0,0,0,0,0-.06,0c.76,2.17,4.65,10.71,5.68,12.86A130.55,130.55,0,0,0,417.16,260c0,.07.18,0,.14-.06C415.63,255.57,413.46,251.4,411.42,247.18Z" style="fill:#263238"></path><path d="M435.28,250.45c-.76.44-1.47,1-2.19,1.47l-2.24,1.55a53.29,53.29,0,0,1-4.49,2.94c-.09,0,0,.18.08.13,1.58-.9,3.19-1.74,4.72-2.73a23.68,23.68,0,0,0,4.2-3.25A.07.07,0,0,0,435.28,250.45Z" style="fill:#263238"></path><path d="M401,188c3.07.51,8.6-4.88,10.41-8.76.12-.27-.45-3-1-6.24-.32-2-.63-4.23-.77-6.29,0-.42-1.41.45-1.41.45l-2.62.82-8.67,2.71a33.12,33.12,0,0,1,1.77,7.82,4.71,4.71,0,0,1,0,.85s0,.09,0,.15C398.49,181.1,398,187.46,401,188Z" style="fill:#ad6359"></path><path d="M398.65,179.33s0,.09,0,.15a8.7,8.7,0,0,0,1.34,0c8.67-.77,9-11.89,9-11.89l-3.42.38-8.67,2.71a33.12,33.12,0,0,1,1.77,7.82A4.71,4.71,0,0,1,398.65,179.33Z" style="fill:#263238"></path><path d="M410.88,152.83c1.46,4.57-.78,17.85-4,20.85-4.68,4.34-12.41,4.85-16.13-.78-3.6-5.47-.37-22.72,3.24-25.46C399.31,143.42,408.73,146.08,410.88,152.83Z" style="fill:#ad6359"></path><path d="M407.2,173.54h0" style="fill:none;stroke:#dc6a57;stroke-linecap:round;stroke-linejoin:round;stroke-width:0px"></path><path d="M398,161.6s.07.06.06.09c-.18.89-.23,1.94.53,2.37,0,0,0,.06,0,.05C397.56,163.81,397.64,162.42,398,161.6Z" style="fill:#263238"></path><path d="M398.91,160.8c1.45.13,1.09,3-.26,2.91S397.68,160.69,398.91,160.8Z" style="fill:#263238"></path><path d="M392.86,160.8s-.07,0-.07.07c-.09.9-.34,1.93-1.19,2.12,0,0,0,.06,0,.06C392.62,163,392.93,161.67,392.86,160.8Z" style="fill:#263238"></path><path d="M392.18,159.76c-1.44-.29-1.91,2.6-.58,2.87S393.38,160,392.18,159.76Z" style="fill:#263238"></path><path d="M400.22,159.61a12,12,0,0,1-1.08-.53,1.93,1.93,0,0,1-1-.76.61.61,0,0,1,.19-.73,1.54,1.54,0,0,1,1.55,0,2.23,2.23,0,0,1,1.17,1.13A.65.65,0,0,1,400.22,159.61Z" style="fill:#263238"></path><path d="M391.24,158.16c.41,0,.78-.1,1.19-.16a1.9,1.9,0,0,0,1.18-.39.6.6,0,0,0,.06-.75,1.51,1.51,0,0,0-1.48-.48,2.21,2.21,0,0,0-1.47.69A.66.66,0,0,0,391.24,158.16Z" style="fill:#263238"></path><path d="M398.14,169.76c-.25.19-.5.45-.83.44a2.39,2.39,0,0,1-.94-.35s-.06,0,0,0a1.19,1.19,0,0,0,1.08.63,1,1,0,0,0,.81-.7C398.24,169.76,398.17,169.74,398.14,169.76Z" style="fill:#263238"></path><path d="M397.52,167a3.09,3.09,0,0,1-2.21,1.11,3.76,3.76,0,0,1-1.11-.09.8.8,0,0,1-.21-.05l-.19,0a.24.24,0,0,1-.16-.22h0s0-.06,0-.09h0l0-.08c.06-.69.26-1.74.26-1.74-.27.1-1.63.52-1.57.16a46.75,46.75,0,0,1,2.35-9.13.08.08,0,0,1,.16,0c-.42,2.88-1.34,5.67-1.8,8.56a5,5,0,0,1,1.5-.26c.09,0-.42,2-.43,2.33v0a4.31,4.31,0,0,0,3.3-.59C397.52,166.82,397.59,166.89,397.52,167Z" style="fill:#263238"></path><path d="M394.65,167.67A3.61,3.61,0,0,0,396,169a1.62,1.62,0,0,0,1,.19c.75-.1.85-.76.78-1.34a3.47,3.47,0,0,0-.21-.9A4.73,4.73,0,0,1,394.65,167.67Z" style="fill:#263238"></path><path d="M396,169a1.62,1.62,0,0,0,1,.19c.75-.1.85-.76.78-1.34A1.69,1.69,0,0,0,396,169Z" style="fill:#ff98b9"></path><path d="M391.34,153.26c4.23,3.23,10.46-1,10.46-1a4.77,4.77,0,0,0,4.67,3.26s.49,7.46,2.44,7.55c3,.13,4.42-9.94,3.58-12a5.31,5.31,0,0,0-3.34-2.68,4.84,4.84,0,0,0-1.87-3c-2-1.66-9.08.08-9.08.08a6.52,6.52,0,0,0-1.68-2.52,1.84,1.84,0,0,0-2.66.1,4.54,4.54,0,0,1,.62,1.87c.24,2.19-1.54,2.1-1.42.13a3.09,3.09,0,0,1,.8-2c-.81-1.33-2.22-1.82-3.12-1.18C389.1,143,387.82,150.58,391.34,153.26Z" style="fill:#263238"></path><path d="M408.2,163.66s3-4.26,5-3.18-.36,7.28-2.65,8.11a2.31,2.31,0,0,1-3.1-1.27Z" style="fill:#ad6359"></path><path d="M412.46,162.24a0,0,0,0,1,0,.06,5.87,5.87,0,0,0-3.06,3.65,1.27,1.27,0,0,1,1.92-.33s0,.09-.05.08a1.44,1.44,0,0,0-1.57.49,7,7,0,0,0-.76,1.26c-.08.15-.33.07-.28-.1v0C408.66,165.28,410.26,162.43,412.46,162.24Z" style="fill:#263238"></path><path d="M398.59,179.25l3.15,7.59,9.37-9.75,2.72,3.06s-9.09,15.44-9.16,14.75l-3.22-6.54L397,193l.23-11.48Z" style="fill:#fff"></path><path d="M396.76,187.3c.11-1.9.16-3.81.35-5.69,0-.07.11-.1.13,0,.4,1.82,0,9.06,0,10.8l0,0c.19-.2,4.16-4.07,4.2-4,.7,1,3.06,5.79,3.22,6.23,1.44-2.45,6.95-11.37,8.66-13.69.05-.07.16,0,.12.06-1.27,2.59-8.57,14.59-8.68,14.56a74.49,74.49,0,0,1-3.37-6.91c-.67.84-4.67,5.21-4.69,4.92A61.68,61.68,0,0,1,396.76,187.3Z" style="fill:#263238"></path></g></svg>