<svg xmlns="http://www.w3.org/2000/svg" viewBox="0 0 500 500"><g id="freepik--background-complete--inject-927"><polygon points="360.35 301.39 357.98 315.62 341.9 402.44 339.31 402.44 351 315.62 352.73 301.39 360.35 301.39" style="fill:#dbdbdb"></polygon><polygon points="352.73 301.39 360.35 301.39 357.98 315.62 351 315.62 352.73 301.39" style="fill:#a6a6a6"></polygon><polygon points="410.84 402.44 408.25 402.44 392.17 315.62 389.8 301.39 397.42 301.39 399.15 315.62 410.84 402.44" style="fill:#dbdbdb"></polygon><polygon points="397.42 301.39 399.15 315.62 392.17 315.62 389.8 301.39 397.42 301.39" style="fill:#a6a6a6"></polygon><polygon points="459.06 402.44 456.47 402.44 440.39 315.62 438.02 301.39 445.64 301.39 447.37 315.62 459.06 402.44" style="fill:#dbdbdb"></polygon><polygon points="447.37 315.62 440.39 315.62 438.02 301.39 445.64 301.39 447.37 315.62" style="fill:#a6a6a6"></polygon><polygon points="454.95 308.07 337.15 308.07 337.15 295.66 381.25 295.66 396.07 209.43 450.46 209.43 454.95 308.07" style="fill:#dbdbdb"></polygon><polygon points="454.95 308.07 448.53 308.07 444.34 209.43 450.46 209.43 454.95 308.07" style="fill:#a6a6a6"></polygon><circle cx="411.99" cy="97.47" r="32.2" transform="translate(-11.37 95.9) rotate(-13.1)" style="fill:#ebebeb"></circle><circle cx="413.47" cy="98.18" r="30.72" transform="translate(-11.21 82.5) rotate(-11.24)" style="fill:#dbdbdb"></circle><circle cx="413.47" cy="98.18" r="28.78" transform="translate(-6.57 162.69) rotate(-22.09)" style="fill:#fff"></circle><path d="M441.6,92.07c-13.11,8-34.65,21-46.69,28.11a28.68,28.68,0,0,1-7.86-10.57L426.87,72.7A28.86,28.86,0,0,1,441.6,92.07Z" style="fill:#ebebeb;opacity:0.5"></path><path d="M442.23,99.19a28.52,28.52,0,0,1-1.9,9.35l-35.9,17a28.9,28.9,0,0,1-4.53-2C410.74,117.3,430.56,105.9,442.23,99.19Z" style="fill:#ebebeb;opacity:0.5"></path><rect x="413.19" y="71.49" width="0.56" height="4.36" style="fill:#c7c7c7"></rect><rect x="400.94" y="74.77" width="0.56" height="4.36" transform="translate(15.27 210.9) rotate(-30)" style="fill:#c7c7c7"></rect><rect x="391.96" y="83.74" width="0.56" height="4.36" transform="translate(121.69 382.64) rotate(-60)" style="fill:#c7c7c7"></rect><rect x="386.78" y="97.9" width="4.36" height="0.56" style="fill:#c7c7c7"></rect><rect x="390.06" y="110.16" width="4.36" height="0.56" transform="translate(-2.66 210.95) rotate(-30)" style="fill:#c7c7c7"></rect><rect x="399.03" y="119.13" width="4.36" height="0.56" transform="translate(97.37 407.35) rotate(-60.03)" style="fill:#c7c7c7"></rect><rect x="413.19" y="120.51" width="0.56" height="4.36" style="fill:#c7c7c7"></rect><rect x="425.45" y="117.23" width="0.56" height="4.36" transform="translate(-2.67 228.86) rotate(-30)" style="fill:#c7c7c7"></rect><rect x="434.42" y="108.26" width="0.56" height="4.36" transform="translate(121.68 431.65) rotate(-60)" style="fill:#c7c7c7"></rect><rect x="435.8" y="97.9" width="4.36" height="0.56" style="fill:#c7c7c7"></rect><rect x="432.52" y="85.65" width="4.36" height="0.56" transform="translate(15.3 228.93) rotate(-30.01)" style="fill:#c7c7c7"></rect><rect x="423.54" y="76.68" width="4.36" height="0.56" transform="translate(146.4 407.32) rotate(-60.03)" style="fill:#c7c7c7"></rect><polygon points="413.89 73.47 414.83 100.12 412.1 100.09 413.15 73.46 413.89 73.47" style="fill:#c7c7c7"></polygon><polygon points="430.49 88.89 412.56 100.33 411.25 97.93 430.14 88.23 430.49 88.89" style="fill:#a6a6a6"></polygon><circle cx="413.47" cy="98.18" r="0.93" style="fill:#c7c7c7"></circle><polygon points="35.44 378.87 211.18 378.87 214.83 306.76 31.79 306.76 35.44 378.87" style="fill:#ebebeb"></polygon><path d="M202.85,339.77H129.38l-1.38-25h76.45Zm-72.63-.89H202l1.5-23.26H128.94Z" style="fill:#dbdbdb"></path><path d="M201.49,368.57H132.25L131.13,346H202.9Zm-68.39-.89h67.56l1.3-20.82h-69.9Z" style="fill:#dbdbdb"></path><path d="M173.19,330H160.84l-.78-6H174Zm-11.57-.89h10.79l.55-4.26H161.07Z" style="fill:#dbdbdb"></path><path d="M173.19,360.29H160.84l-.78-6H174Zm-11.57-.89h10.79l.55-4.26H161.07Z" style="fill:#dbdbdb"></path><path d="M116.43,339.77H43l-1.38-25H118Zm-72.63-.89h71.8l1.49-23.26H42.52Z" style="fill:#dbdbdb"></path><path d="M115.07,368.57H45.83L44.71,346h71.77Zm-68.39-.89h67.56l1.3-20.82H45.64Z" style="fill:#dbdbdb"></path><path d="M86.77,330H74.42l-.78-6H87.55Zm-11.57-.89H86l.55-4.26H74.65Z" style="fill:#dbdbdb"></path><path d="M86.77,360.29H74.42l-.78-6H87.55ZM75.2,359.4H86l.55-4.26H74.65Z" style="fill:#dbdbdb"></path><polygon points="51.2 378.87 50.1 386.73 47.88 402.51 43.54 402.51 43.54 378.87 51.2 378.87" style="fill:#ebebeb"></polygon><polygon points="51.2 378.87 50.1 386.73 43.54 386.73 43.54 378.87 51.2 378.87" style="fill:#dbdbdb"></polygon><polygon points="195.41 378.87 196.52 386.73 198.74 402.51 203.08 402.51 203.08 378.87 195.41 378.87" style="fill:#ebebeb"></polygon><polygon points="195.41 378.87 196.52 386.73 203.08 386.73 203.08 378.87 195.41 378.87" style="fill:#dbdbdb"></polygon></g><g id="freepik--Shadow--inject-927"><ellipse cx="250" cy="441.23" rx="211.65" ry="23.07" style="fill:#ebebeb"></ellipse></g><g id="freepik--Floor--inject-927"><polygon points="29.71 402.48 84.78 402.24 139.85 402.15 250 401.98 360.15 402.15 415.22 402.23 470.29 402.48 415.22 402.72 360.15 402.81 250 402.98 139.85 402.81 84.78 402.72 29.71 402.48" style="fill:#263238"></polygon></g><g id="freepik--board--inject-927"><polygon points="116.3 431.81 109.6 431.81 156.6 243.5 173.3 243.5 116.3 431.81" style="fill:#455a64"></polygon><polygon points="156.59 243.5 173.31 243.5 160.28 286.51 145.87 286.51 156.59 243.5" style="fill:#263238"></polygon><polygon points="181.36 421.81 174.65 421.81 179.65 243.5 196.36 243.5 181.36 421.81" style="fill:#455a64"></polygon><polygon points="179.66 243.5 196.35 243.5 192.74 286.51 178.44 286.51 179.66 243.5" style="fill:#263238"></polygon><polygon points="246.71 431.81 253.41 431.81 216.41 243.5 199.71 243.5 246.71 431.81" style="fill:#455a64"></polygon><polygon points="224.87 286.51 210.44 286.51 199.71 243.5 216.41 243.5 224.87 286.51" style="fill:#263238"></polygon><rect x="135.44" y="351.13" width="97.52" height="3.68" style="fill:#455a64"></rect><rect x="55.18" y="77.36" width="265.65" height="196.02" style="fill:#ebebeb"></rect><rect x="45.45" y="69.55" width="285.11" height="14.53" style="fill:#37474f"></rect><rect x="133.36" y="99.52" width="109.29" height="2.42" style="fill:#c7c7c7"></rect><rect x="152.05" y="104.57" width="71.91" height="2.42" style="fill:#c7c7c7"></rect><rect x="98.09" y="102.68" width="63.39" height="97.62" transform="translate(-21.7 281.28) rotate(-90)" style="fill:#c7c7c7"></rect><rect x="59.78" y="148.98" width="56.66" height="5.02" transform="translate(-63.38 239.6) rotate(-90)" style="fill:#fff"></rect><rect x="73.63" y="162.83" width="28.97" height="5.02" transform="translate(-77.23 253.45) rotate(-90)" style="fill:#FFA52E"></rect><rect x="69.04" y="148.98" width="56.66" height="5.02" transform="translate(-54.12 248.86) rotate(-90)" style="fill:#fff"></rect><rect x="75" y="154.94" width="44.74" height="5.02" transform="translate(-60.08 254.82) rotate(-90)" style="fill:#455a64"></rect><rect x="78.3" y="148.98" width="56.66" height="5.02" transform="translate(-44.86 258.12) rotate(-90)" style="fill:#fff"></rect><rect x="88.63" y="159.3" width="36.02" height="5.02" transform="translate(-55.18 268.44) rotate(-90)" style="fill:#FFA52E"></rect><rect x="87.57" y="148.98" width="56.66" height="5.02" transform="translate(-35.6 267.39) rotate(-90)" style="fill:#fff"></rect><rect x="106.89" y="168.31" width="18.01" height="5.02" transform="translate(-54.92 286.71) rotate(-90)" style="fill:#455a64"></rect><rect x="96.83" y="148.98" width="56.66" height="5.02" transform="translate(-26.33 276.65) rotate(-90)" style="fill:#fff"></rect><rect x="100.77" y="152.93" width="48.77" height="5.02" transform="translate(-30.28 280.59) rotate(-90)" style="fill:#FFA52E"></rect><rect x="106.09" y="148.98" width="56.66" height="5.02" transform="translate(-17.07 285.91) rotate(-90)" style="fill:#fff"></rect><rect x="112.05" y="154.94" width="44.74" height="5.02" transform="translate(-23.04 291.87) rotate(-90)" style="fill:#455a64"></rect><rect x="115.35" y="148.98" width="56.66" height="5.02" transform="translate(-7.81 295.17) rotate(-90)" style="fill:#fff"></rect><rect x="125.67" y="159.3" width="36.02" height="5.02" transform="translate(-18.13 305.49) rotate(-90)" style="fill:#FFA52E"></rect><rect x="124.61" y="148.98" width="56.66" height="5.02" transform="translate(1.45 304.43) rotate(-90)" style="fill:#fff"></rect><rect x="130.57" y="154.94" width="44.74" height="5.02" transform="translate(-4.51 310.39) rotate(-90)" style="fill:#455a64"></rect><rect x="133.87" y="148.98" width="56.66" height="5.02" transform="translate(10.71 313.69) rotate(-90)" style="fill:#fff"></rect><rect x="153.2" y="168.31" width="18.01" height="5.02" transform="translate(-8.62 333.02) rotate(-90)" style="fill:#FFA52E"></rect><rect x="143.13" y="148.98" width="56.66" height="5.02" transform="translate(19.97 322.95) rotate(-90)" style="fill:#fff"></rect><rect x="153.45" y="159.3" width="36.02" height="5.02" transform="translate(9.65 333.27) rotate(-90)" style="fill:#455a64"></rect><rect x="81.03" y="190.48" width="6.13" height="6.13" style="fill:#FFA52E"></rect><rect x="91.42" y="190.48" width="67.09" height="1.81" style="fill:#c7c7c7"></rect><rect x="91.42" y="194.8" width="43.35" height="1.81" style="fill:#c7c7c7"></rect><rect x="81.03" y="237.81" width="6.13" height="6.13" style="fill:#FFA52E"></rect><rect x="91.42" y="237.81" width="33" height="1.81" style="fill:#c7c7c7"></rect><rect x="91.42" y="242.13" width="43.35" height="1.81" style="fill:#c7c7c7"></rect><rect x="81.03" y="249.42" width="6.13" height="6.13" style="fill:#455a64"></rect><rect x="91.42" y="249.42" width="25.07" height="1.81" style="fill:#c7c7c7"></rect><rect x="91.42" y="253.73" width="43.35" height="1.81" style="fill:#c7c7c7"></rect><rect x="209.9" y="212.39" width="8.61" height="43.74" style="fill:#FFA52E"></rect><rect x="224.69" y="219.66" width="8.61" height="36.47" style="fill:#FFA52E"></rect><rect x="239.48" y="232.91" width="8.61" height="23.21" style="fill:#FFA52E"></rect><rect x="254.28" y="219.02" width="8.61" height="37.1" style="fill:#FFA52E"></rect><rect x="269.07" y="225.11" width="8.61" height="31.01" style="fill:#FFA52E"></rect><rect x="283.86" y="206.29" width="8.61" height="49.83" style="fill:#FFA52E"></rect><path d="M204.91,203.26l.1,13.21.05,13.22.07,26.43-.22-.21c20.9-.07,41.81,0,62.71,0l17.44.05,15.47.12-15.47.13-17.44.05c-20.9,0-41.81.1-62.71,0h-.22v-.22l.07-26.43.05-13.22Z" style="fill:#a6a6a6"></path><path d="M203,206.29a6.83,6.83,0,0,1,1.9-.24,6.93,6.93,0,0,1,1.9.24,6.94,6.94,0,0,1-1.9.25A6.84,6.84,0,0,1,203,206.29Z" style="fill:#a6a6a6"></path><path d="M203,211.54a6.48,6.48,0,0,1,1.9-.24,6.56,6.56,0,0,1,1.9.24,6.93,6.93,0,0,1-1.9.24A6.83,6.83,0,0,1,203,211.54Z" style="fill:#a6a6a6"></path><path d="M203,216.79a6.84,6.84,0,0,1,1.9-.25,6.58,6.58,0,0,1,1.9.25,6.93,6.93,0,0,1-1.9.24A6.83,6.83,0,0,1,203,216.79Z" style="fill:#a6a6a6"></path><path d="M203,222a6.83,6.83,0,0,1,1.9-.24,6.93,6.93,0,0,1,1.9.24,6.94,6.94,0,0,1-1.9.25A6.84,6.84,0,0,1,203,222Z" style="fill:#a6a6a6"></path><path d="M203,227.28a6.84,6.84,0,0,1,1.9-.25,6.94,6.94,0,0,1,1.9.25,6.93,6.93,0,0,1-1.9.24A6.83,6.83,0,0,1,203,227.28Z" style="fill:#a6a6a6"></path><path d="M203,232.53a6.49,6.49,0,0,1,1.9-.25,6.58,6.58,0,0,1,1.9.25,6.93,6.93,0,0,1-1.9.24A6.83,6.83,0,0,1,203,232.53Z" style="fill:#a6a6a6"></path><path d="M203,237.77a6.83,6.83,0,0,1,1.9-.24,6.93,6.93,0,0,1,1.9.24,6.94,6.94,0,0,1-1.9.25A6.84,6.84,0,0,1,203,237.77Z" style="fill:#a6a6a6"></path><path d="M203,243a6.84,6.84,0,0,1,1.9-.25,6.94,6.94,0,0,1,1.9.25,6.93,6.93,0,0,1-1.9.24A6.83,6.83,0,0,1,203,243Z" style="fill:#a6a6a6"></path><path d="M203,248.26a6.83,6.83,0,0,1,1.9-.24,6.93,6.93,0,0,1,1.9.24,6.58,6.58,0,0,1-1.9.25A6.84,6.84,0,0,1,203,248.26Z" style="fill:#a6a6a6"></path><path d="M247.15,147.47a26,26,0,0,1-15.79,23.86l-10.13-23.86Z" style="fill:#FFA52E"></path><path d="M217.91,145.69,228,169.55s0,0,0,0c-.79.32-1.59.62-2.38.87A25.94,25.94,0,0,1,193.18,138a25.92,25.92,0,0,1,49.49,0,26.36,26.36,0,0,1,1.16,7.69Z" style="fill:#FFA52E"></path><path d="M217.91,145.69,228,169.55s0,0,0,0c-.79.32-1.59.62-2.38.87a26,26,0,1,1,18.22-24.76Z" style="fill:#a6a6a6"></path><path d="M217.92,145.7,201,165.34a25.9,25.9,0,1,1,42.79-19.64Z" style="fill:#455a64"></path><polygon points="260.55 180.03 240.98 180.03 216.74 155.79 217.09 155.44 241.18 179.53 260.55 179.53 260.55 180.03" style="fill:#263238"></polygon><rect x="215.55" y="154.25" width="2.73" height="2.73" style="fill:#263238"></rect><polygon points="260.55 161.28 238.49 161.28 228.02 150.81 228.38 150.45 238.7 160.78 260.55 160.78 260.55 161.28" style="fill:#263238"></polygon><rect x="226.84" y="149.27" width="2.72" height="2.73" style="fill:#263238"></rect><rect x="227.2" y="142.72" width="33.35" height="0.5" style="fill:#263238"></rect><rect x="225.47" y="141.61" width="2.73" height="2.73" style="fill:#263238"></rect><rect x="268.13" y="140.23" width="24.23" height="2.25" style="fill:#c7c7c7"></rect><rect x="268.13" y="144.94" width="31.44" height="2.25" style="fill:#c7c7c7"></rect><rect x="268.13" y="149.65" width="16.81" height="2.25" style="fill:#c7c7c7"></rect><rect x="257.81" y="140.23" width="5.47" height="5.47" style="fill:#455a64"></rect><rect x="268.13" y="158.44" width="27.18" height="2.25" style="fill:#c7c7c7"></rect><rect x="268.13" y="163.15" width="22.66" height="2.25" style="fill:#c7c7c7"></rect><rect x="268.13" y="167.86" width="31.44" height="2.25" style="fill:#c7c7c7"></rect><rect x="257.81" y="158.44" width="5.47" height="5.47" style="fill:#FFA52E"></rect><rect x="268.13" y="176.66" width="27.18" height="2.25" style="fill:#c7c7c7"></rect><rect x="268.13" y="181.36" width="22.66" height="2.25" style="fill:#c7c7c7"></rect><rect x="268.13" y="186.07" width="31.44" height="2.25" style="fill:#c7c7c7"></rect><rect x="257.81" y="176.66" width="5.47" height="5.47" style="fill:#a6a6a6"></rect><path d="M100.7,219.37a10.69,10.69,0,1,1-1.41-5.31A10.68,10.68,0,0,1,100.7,219.37Z" style="fill:#455a64"></path><path d="M99.29,214.06,90,219.37V208.68A10.67,10.67,0,0,1,99.29,214.06Z" style="fill:#FFA52E"></path><circle cx="90.02" cy="219.37" r="7.39" transform="translate(-140.92 273.17) rotate(-80.8)" style="fill:#fff"></circle><rect x="86.94" y="217.73" width="6.15" height="0.87" style="fill:#263238"></rect><rect x="85.42" y="220.14" width="9.2" height="0.87" style="fill:#a6a6a6"></rect><path d="M130.6,219.37a11.46,11.46,0,0,1-.11,1.56,10.79,10.79,0,1,1,.11-1.56Z" style="fill:#455a64"></path><path d="M130.6,219.37a11.46,11.46,0,0,1-.11,1.56l-10.57-1.56V208.68a10.69,10.69,0,0,1,10.68,10.69Z" style="fill:#FFA52E"></path><circle cx="119.92" cy="219.37" r="7.39" transform="translate(-121.09 285.86) rotate(-76.76)" style="fill:#fff"></circle><rect x="116.84" y="217.73" width="6.15" height="0.87" style="fill:#263238"></rect><rect x="115.32" y="220.14" width="9.2" height="0.87" style="fill:#a6a6a6"></rect><path d="M160.71,219.37a10.69,10.69,0,1,1-1.41-5.31A10.67,10.67,0,0,1,160.71,219.37Z" style="fill:#455a64"></path><path d="M160.71,219.37a10.67,10.67,0,0,1-6.86,10l-3.83-10V208.68a10.69,10.69,0,0,1,10.69,10.69Z" style="fill:#FFA52E"></path><path d="M157.41,219.37A7.39,7.39,0,1,1,150,212,7.39,7.39,0,0,1,157.41,219.37Z" style="fill:#fff"></path><rect x="146.95" y="217.73" width="6.15" height="0.87" style="fill:#263238"></rect><rect x="145.42" y="220.14" width="9.2" height="0.87" style="fill:#a6a6a6"></rect><path d="M190.65,219.37a10.69,10.69,0,1,1-1.41-5.31A10.63,10.63,0,0,1,190.65,219.37Z" style="fill:#455a64"></path><path d="M190.65,219.37A10.68,10.68,0,0,1,173,227.49l6.94-8.12V208.68a10.69,10.69,0,0,1,10.68,10.69Z" style="fill:#FFA52E"></path><circle cx="179.96" cy="219.37" r="7.39" transform="translate(-66.48 359.99) rotate(-80.34)" style="fill:#fff"></circle><rect x="176.89" y="217.73" width="6.15" height="0.87" style="fill:#263238"></rect><rect x="175.36" y="220.14" width="9.2" height="0.87" style="fill:#a6a6a6"></rect></g><g id="freepik--Character--inject-927"><path d="M376.3,107.27c-9.48,8.13-6.84,20-10.8,26.42-2.43,3.93-10.32,8.09-11.88,12.62-2.58,7.45,3.73,10.12,2.32,14.17-2,5.73-9.68,5.29-11.06,14.67s8.94,19.36,33.44,22.06S416.27,191,417.15,183s-7.27-10.61-7.83-16.56C409,162.64,414,160,414.26,153s-6.56-9.26-7.54-15.2,2.17-20.36-6.55-27.73S381,103.25,376.3,107.27Z" style="fill:#263238"></path><path d="M377.4,107.48a20.31,20.31,0,0,0-6.3,7.26,44.57,44.57,0,0,0-3.5,9.63,26.37,26.37,0,0,1-1.9,5.77,14.8,14.8,0,0,1-3.29,4.06c-2.65,2.4-5.81,4.22-8.19,6.91s-4,6-3.11,9.44c.49,1.89,1.74,3.43,2.51,5.2s1,3.75-.4,5.14c-1.23,1.18-3,1.73-4.4,2.7a15.63,15.63,0,0,0-3.57,3.46,12,12,0,0,0-2.26,9.43c1.45,7.62,8.6,12,15.2,14.68l2.77,1.12c.14.06.26-.15.12-.21-6.63-3-14.32-6.45-16.86-13.85a11.19,11.19,0,0,1,1.14-9.84,14.09,14.09,0,0,1,3.5-3.68c1.33-1,2.87-1.59,4.23-2.52a4.52,4.52,0,0,0,2.08-4,11.07,11.07,0,0,0-1.82-4.87,9,9,0,0,1-1.57-5.13,9.92,9.92,0,0,1,2-4.9c2.06-2.92,5.12-4.83,7.85-7a16.56,16.56,0,0,0,6-8.25c.5-1.75.82-3.55,1.26-5.31a47.34,47.34,0,0,1,1.46-4.84,23.06,23.06,0,0,1,5.18-8.54,13.41,13.41,0,0,1,2-1.66C377.56,107.55,377.48,107.42,377.4,107.48Z" style="fill:#263238"></path><path d="M418.24,177.15a9,9,0,0,0-1.7-3.57c-.85-1.08-1.88-2-2.82-3a7,7,0,0,1-2-3.31,6.63,6.63,0,0,1,1.07-4.42,32.49,32.49,0,0,0,2.2-4.27,15.31,15.31,0,0,0-1.54-13.67c-.83-1.37-1.77-2.67-2.62-4a19.88,19.88,0,0,1-2.17-4.76c-1.1-3.69-1.34-7.58-2.24-11.32a58.64,58.64,0,0,0-4-11.11c0-.09-.17,0-.13.08a50.78,50.78,0,0,1,3.48,10c.78,3.28,1.08,6.62,1.66,9.93a24.61,24.61,0,0,0,1.24,4.77,25.72,25.72,0,0,0,2.13,4.1c1.65,2.7,3.36,5.36,3.82,8.56a15,15,0,0,1-1.58,9.17c-1.29,2.44-3.09,5.12-2,8,1,2.42,3.26,3.86,4.79,5.86a9.71,9.71,0,0,1,1.65,7.75c-1.32,6.86-8.19,10.26-14.63,10.6a.16.16,0,0,0,0,.31c5.6-.06,11.69-2.52,14.31-7.76A11.81,11.81,0,0,0,418.24,177.15Z" style="fill:#263238"></path><path d="M309.92,448.31c2.17.72,64.32.54,66.69-1,.89-.57,1.39-9.63,1.69-20.58.07-2.37.15-40.51.15-40.51H338l.24,40.51s-23.76,10.72-26.17,12.65S307.75,447.59,309.92,448.31Z" style="fill:#ad6359"></path><path d="M378.15,431.57c-.31,8.69-.79,15.3-1.55,15.78-2.36,1.5-64.51,1.68-66.69,1s-.26-7,2.14-8.89c1.33-1.06,9.11-4.78,15.84-7.91-2.35,1.46-5.35,3.53-5.08,4.76C323.33,438.68,354.28,440.25,378.15,431.57Z" style="fill:#263238"></path><path d="M393.31,213.85S382.37,322,382.12,323.37c0,.18-.12,2.26-.22,5.66-.59,18.61-1.26,82.12-1.26,82.12H336s2.12-74.21,3.79-90.25c2.13-20.47,15.65-107,15.65-107Z" style="fill:#37474f"></path><path d="M376.8,327.18q2.06-35.15,6.2-70.13c1.57-13.14,3.45-26.24,5.33-39.33,0-.12.19-.11.18,0-3.45,23.31-5.9,46.81-8,70.28-.74,8.29-2.15,22.57-2.9,39.22-1.37,30.4-2,66.77-2.23,75.38a.25.25,0,0,1-.49,0C375.51,378.84,375.4,350.9,376.8,327.18Z" style="fill:#263238"></path><path d="M339.09,403.75c20.33-.64,37.93-.19,39.45-.07,1.26.1.56.23-.07.27-17.26,1-38.71.06-39.38,0A.09.09,0,0,1,339.09,403.75Z" style="fill:#263238"></path><path d="M393.31,213.85S382.37,322,382.12,323.37c0,.18-.12,2.26-.22,5.66l-21-115.18Z" style="fill:#263238"></path><path d="M380.41,453.7c2.26.39,64.9-9.26,67-11.1.81-.68-10.33-60-10.33-60l-40.88,6,7.52,40.59s-20.41,13.09-22.52,15.35S378.16,453.3,380.41,453.7Z" style="fill:#ad6359"></path><path d="M447.42,442.6c-2.12,1.84-64.76,11.49-67,11.1s-1.28-6.87.82-9.12c1.22-1.31,8.56-6.23,14.53-10.16-2.12,1.84-5.1,4.64-4.61,5.88.91,2.3,31.81-1.35,53.89-14C446.6,435.43,447.69,442.37,447.42,442.6Z" style="fill:#263238"></path><path d="M355.47,213.85s1.31,11,7.63,19c1.51,1.9,6.16,3.67,8.56,5.42,0,0,9,82.46,11.71,91.8,3,10.37,14.88,81.31,14.88,81.31l46-6.34s-13.37-66.55-16.69-83.8c-.75-3.85-10.73-76.42-10.5-78.1,2.68-20-7-29.24-7-29.24Z" style="fill:#37474f"></path><path d="M390.59,214.64a19.8,19.8,0,0,0,5.55,9.88,18.09,18.09,0,0,0,10.1,5.1c.6.06.52.47-.11.46-7.28,0-14.68-5.93-15.84-15.39A.15.15,0,1,1,390.59,214.64Z" style="fill:#263238"></path><path d="M362.24,232.47a40.05,40.05,0,0,1,7.51,4c2.5,1.54,4.81,3.35,7.22,5,.09.07,0,.22-.09.16-2.53-1.46-5.16-2.72-7.66-4.22a47.67,47.67,0,0,1-7.09-4.75A.12.12,0,0,1,362.24,232.47Z" style="fill:#263238"></path><path d="M361.21,217.31c.39,1.66.88,3.31,1.32,5s.73,3.14,1.22,4.67a8.06,8.06,0,0,0,2.37,3.85c.64.55,1.34,1,2,1.51.37.27.76.52,1.14.79l-.15-.67-.42-1.9c-.3-1.4-.59-2.81-.87-4.22-.56-2.77-1.08-5.57-1.78-8.3a.09.09,0,0,1,.17-.05c.82,2.7,1.71,5.37,2.44,8.11.36,1.34,1.72,8,1.79,8.44s.13,1,.17,1.46a5.81,5.81,0,0,1,.07,1.5c0,.12-.17.11-.22,0h0a6,6,0,0,1-.49-1.44,14.35,14.35,0,0,1-.38-1.43c0-.17-.08-.35-.11-.53-.67-.37-1.31-.87-1.95-1.28s-1.38-.89-2-1.39a7.55,7.55,0,0,1-2.57-3.64,28.59,28.59,0,0,1-1-4.76c-.29-1.89-.54-3.79-.89-5.67C361,217.25,361.19,217.19,361.21,217.31Z" style="fill:#263238"></path><path d="M400.39,402.26c20-3.47,37.53-5.47,39.05-5.56,1.26-.08.59.15,0,.27-17,3.43-38.32,5.46-39,5.47A.09.09,0,0,1,400.39,402.26Z" style="fill:#263238"></path><path d="M430.36,356.72c-2.63-11.53-5-23.1-7-34.77s-3.52-23.28-5-35-3-23.56-4.52-35.34A49.85,49.85,0,0,1,413,243c.13-2.83,1.1-5.55,1.37-8.36a37.8,37.8,0,0,0-2.31-16.1c-.46-1.3-1-2.58-1.53-3.85-.07-.16-.34-.09-.28.09,1.77,5.33,3.4,10.8,3.48,16.46a38.44,38.44,0,0,1-1.1,8.54,24.49,24.49,0,0,0-.15,8.28c1.46,11.73,3,23.46,4.49,35.18s3,23.36,4.88,35,4,23.11,6.65,34.56,5.33,23.06,8.22,34.54c.36,1.43.72,2.85,1.09,4.27,0,.17.29.09.25-.08C435.76,379.84,433,368.29,430.36,356.72Z" style="fill:#263238"></path><path d="M378.21,160.93c-9.27,17.75-24.46,32.3-32.72,32.93-6.43.49-31.66-7.08-40.78-18.64-2-2.56,18.73-15.66,20.49-14.2,5.2,4.29,19.72,9.08,20.66,8.45,1.23-.82,17-11.68,27.44-20.17C386,139.05,383.29,151.21,378.21,160.93Z" style="fill:#ad6359"></path><path d="M310.27,180.52c-1.34-.87-12.11-6.7-16.18-12.39-2.16-3-7.16-12-5.49-13.51,1.52-1.41,3.49.71,3.49.71s-2.17-4,0-6,5.29,1.81,5.29,1.81-1.93-4.29.34-6.07,4.81,2.52,4.81,2.52-1.95-3.84.54-4.52c3-.81,5.78,6.69,8.72,9.55.67.65,14.48,12.21,14.48,12.21Z" style="fill:#ad6359"></path><path d="M302.66,147.63c2.07,5.5,3.92,7.56,8.53,11.06.09.06,0,.21-.09.15-4.83-3-7.52-5.25-8.71-11.13C302.33,147.43,302.57,147.37,302.66,147.63Z" style="fill:#263238"></path><path d="M297.52,151.16c2.64,5.53,4.63,7.77,9.19,11.79.06.06,0,.18-.1.12-4.8-3.57-7.44-5.86-9.35-11.74C297.17,151.07,297.4,150.9,297.52,151.16Z" style="fill:#263238"></path><path d="M292.32,155.52c2.94,5.17,5,7.72,9.95,11.06a.11.11,0,0,1-.11.19c-5.36-2.92-8-6.08-10-11.15C292,155.28,292.13,155.19,292.32,155.52Z" style="fill:#263238"></path><path d="M331.18,164.57s-3.44-8.12-5.45-10.76-13.13-9.68-14.79-7.37c-2.14,3,3.47,8.33,6.56,10.58,0,0-5,6.9-1.76,11.61S331.18,164.57,331.18,164.57Z" style="fill:#ad6359"></path><path d="M310.62,147.46c0,4.13,4.26,6.83,7.1,9.24a.35.35,0,0,1,0,.56c-1.89,3-3.67,7.86-2.18,11.32a.09.09,0,1,1-.15.08c-2.1-3.5-.74-8.38,1.54-11.57-2.95-2.43-7.09-5.32-6.32-9.63C310.59,147.43,310.62,147.43,310.62,147.46Z" style="fill:#263238"></path><path d="M332.71,163.12l-18.25,22.95s25.64,12.7,36.12,7.93,28.91-27.57,32.44-39.57c3.06-10.4-1.33-12.32-9-6.93-6.43,4.53-28,21.3-28.76,21.29S332.71,163.12,332.71,163.12Z" style="fill:#FFA52E"></path><path d="M378,146.4a11.27,11.27,0,0,1-.65,4.66,9.79,9.79,0,0,1,.07-2.36A10.35,10.35,0,0,1,378,146.4Zm-20.39,16.83a9.85,9.85,0,0,0-.08,2.37,11.35,11.35,0,0,0,.65-4.67A9.8,9.8,0,0,0,357.58,163.23Zm5.83,8.56a10.31,10.31,0,0,0-.08,2.36,9.87,9.87,0,0,0,.58-2.29,10.41,10.41,0,0,0,.07-2.37A10.32,10.32,0,0,0,363.41,171.79Zm-36.05,2.12a10.39,10.39,0,0,0-.08,2.37,11.34,11.34,0,0,0,.65-4.66A10.37,10.37,0,0,0,327.36,173.91Zm48.42-7.73a8.6,8.6,0,0,0,1.19.37c.08-.13.17-.26.24-.39A8.55,8.55,0,0,0,375.78,166.18ZM360.9,184.31a9.86,9.86,0,0,0-2.37-.07,10.46,10.46,0,0,0,2.3.57,13.16,13.16,0,0,0,1.42.11l.26-.27A11.25,11.25,0,0,0,360.9,184.31Zm-22.58,7.86a9.87,9.87,0,0,0,2.37.08,9.8,9.8,0,0,0-2.3-.57,10.33,10.33,0,0,0-2.36-.08A10.37,10.37,0,0,0,338.32,192.17Zm2.82-20.1a10.33,10.33,0,0,0,2.36.08,9.87,9.87,0,0,0-2.29-.58,10.41,10.41,0,0,0-2.37-.07A10.32,10.32,0,0,0,341.14,172.07Zm41-17a10.17,10.17,0,0,0-1.73,1.62,10.13,10.13,0,0,0,2-1.22l.39-.31h0c.08-.23.15-.46.22-.68,0,0,0,0,0,0C382.71,154.6,382.41,154.81,382.11,155Zm-29.56,20.14a10.53,10.53,0,0,0-1.73,1.61,10.09,10.09,0,0,0,2-1.21,10.59,10.59,0,0,0,1.73-1.62A9.86,9.86,0,0,0,352.55,175.17ZM337,182.1a10.17,10.17,0,0,0-1.73,1.62,10.62,10.62,0,0,0,2-1.22,9.75,9.75,0,0,0,1.72-1.62A10.05,10.05,0,0,0,337,182.1Zm12.43,3.82a10.17,10.17,0,0,0-1.62-1.73,10.32,10.32,0,0,0,1.22,2,10.17,10.17,0,0,0,1.62,1.73A9.86,9.86,0,0,0,349.43,185.92Zm20.22-28.2A10.17,10.17,0,0,0,368,156a9.86,9.86,0,0,0,1.22,2,10.17,10.17,0,0,0,1.62,1.73A10.62,10.62,0,0,0,369.65,157.72Zm-47.21,27.72a9.7,9.7,0,0,0-1.61-1.72,10,10,0,0,0,1.22,2,10.46,10.46,0,0,0,1.61,1.72A10,10,0,0,0,322.44,185.44Z" style="fill:#fff"></path><path d="M320.83,187.69a26.34,26.34,0,0,1,1.73-2.62l1.89-2.78c1.22-1.78,2.54-3.49,3.84-5.21,2.65-3.48,5.26-7,8.18-10.3,0-.07.18,0,.13.08-2.29,3.66-4.91,7.13-7.47,10.6-1.27,1.73-2.55,3.48-3.89,5.15-.68.84-1.37,1.67-2.06,2.49a26,26,0,0,1-2.23,2.66C320.89,187.81,320.8,187.76,320.83,187.69Z" style="fill:#263238"></path><path d="M359.62,189.08l-5.87,30.46s4.86.3,11.93.7l3.72-6,4.43,6.48c15.37.83,35.11,1.77,42.31,1.59,0,0-7.48-57.79-20.15-72.89-6.34-7.55-14.2-7.37-19.43-2.53-1.32,1.22-17.31,20.45-19.25,28C355.62,181.49,359.62,189.08,359.62,189.08Z" style="fill:#FFA52E"></path><path d="M416.14,222.27c-7.2.18-26.94-.76-42.31-1.59l-4.43-6.48-3.72,6c-7.07-.4-11.93-.7-11.93-.7l5.87-30.46s-4-7.59-2.31-14.24c1.06-4.13,6.35-11.78,11.12-18.05a2.19,2.19,0,0,0,.2-.25c3.86-5,7.34-9.15,7.93-9.69,5-4.65,12.48-5,18.67,1.68h0a1.29,1.29,0,0,1,.16.17c.2.21.4.44.59.67a36.39,36.39,0,0,1,4.85,8.23l.21.45a150.16,150.16,0,0,1,7.62,24c0,.11.05.21.08.31C413.52,202,416.14,222.27,416.14,222.27Z" style="fill:#FFA52E"></path><path d="M391.16,163.26a10.4,10.4,0,0,1-.07,2.37,9.83,9.83,0,0,1-.58,2.3,11.35,11.35,0,0,1,.65-4.67ZM377.39,148.7a9.79,9.79,0,0,0-.07,2.36,11.27,11.27,0,0,0,.65-4.66A10.35,10.35,0,0,0,377.39,148.7Zm3.13,42.35a9.86,9.86,0,0,0-.07,2.37,11.35,11.35,0,0,0,.65-4.67A10.35,10.35,0,0,0,380.52,191.05ZM390,213a9.87,9.87,0,0,0-.07,2.37,11.34,11.34,0,0,0,.65-4.66A9.87,9.87,0,0,0,390,213Zm-26.63-41.19a10.31,10.31,0,0,0-.08,2.36,9.87,9.87,0,0,0,.58-2.29,10.41,10.41,0,0,0,.07-2.37A10.32,10.32,0,0,0,363.41,171.79ZM407.1,195a9.77,9.77,0,0,0-.08,2.36,11.27,11.27,0,0,0,.65-4.66A9.8,9.8,0,0,0,407.1,195Zm-29-28.28a9.86,9.86,0,0,0,2.37.07,11.35,11.35,0,0,0-4.67-.65A10.35,10.35,0,0,0,378.08,166.76Zm25,54a9.86,9.86,0,0,0,2.37.07,11.34,11.34,0,0,0-4.66-.65A9.87,9.87,0,0,0,403.08,220.71ZM397,188.49a10.39,10.39,0,0,0,2.37.08,11.34,11.34,0,0,0-4.66-.65A10.37,10.37,0,0,0,397,188.49Zm-36.2-3.68a10.39,10.39,0,0,0,2.37.08,10.93,10.93,0,0,0-4.67-.65A10.46,10.46,0,0,0,360.83,184.81Zm20.68,20.29a9.77,9.77,0,0,0,2.36.08,11.34,11.34,0,0,0-4.66-.65A9.8,9.8,0,0,0,381.51,205.1Zm-21.39-2.29a9.79,9.79,0,0,0,2.36.08,11.27,11.27,0,0,0-4.66-.65A9.8,9.8,0,0,0,360.12,202.81Zm35.12-54.27h0a11.51,11.51,0,0,0-1.85-.41A10.33,10.33,0,0,0,391,148a9.85,9.85,0,0,0,2.29.57,10.39,10.39,0,0,0,2.09.1A1.29,1.29,0,0,0,395.24,148.54ZM382.11,155a10.17,10.17,0,0,0-1.73,1.62,11.23,11.23,0,0,0,3.76-2.84A10.32,10.32,0,0,0,382.11,155Zm5.64,24.23a10.17,10.17,0,0,0-1.73,1.62,9.86,9.86,0,0,0,2-1.22,10.17,10.17,0,0,0,1.73-1.62A10.62,10.62,0,0,0,387.75,179.26Zm-9.41,38.81a10.17,10.17,0,0,0-1.73,1.62,10.32,10.32,0,0,0,2-1.22,10.17,10.17,0,0,0,1.73-1.62A10.13,10.13,0,0,0,378.34,218.07Zm-20-3.31a10.08,10.08,0,0,0-1.72,1.61,10.37,10.37,0,0,0,2-1.21,10.53,10.53,0,0,0,1.72-1.62A10,10,0,0,0,358.38,214.76ZM368,194.07a9.75,9.75,0,0,0-1.72,1.62,10.42,10.42,0,0,0,2-1.22,10.11,10.11,0,0,0,1.72-1.62A10.93,10.93,0,0,0,368,194.07Zm40.7-12a6,6,0,0,0-.59.64,7,7,0,0,0,.67-.33C408.72,182.23,408.7,182.13,408.67,182Zm-3.83,26.58a10.11,10.11,0,0,0-1.72,1.62,10.42,10.42,0,0,0,2-1.22,10.11,10.11,0,0,0,1.72-1.62A10.93,10.93,0,0,0,404.84,208.6Zm-4-51-.31.23a10.05,10.05,0,0,0-1.72,1.61,10,10,0,0,0,2-1.22l.21-.17Zm0,15.15A10.17,10.17,0,0,0,399.2,171a10.32,10.32,0,0,0,1.22,2,10.17,10.17,0,0,0,1.62,1.73A10.13,10.13,0,0,0,400.82,172.76Zm-6.74,27.41a9.75,9.75,0,0,0-1.62-1.72,10.05,10.05,0,0,0,1.22,2,10.17,10.17,0,0,0,1.62,1.73A10.93,10.93,0,0,0,394.08,200.17Zm-24.43-42.45a12.69,12.69,0,0,0-1-1.18,2.19,2.19,0,0,1-.2.25,14.6,14.6,0,0,0,.82,1.23,10.17,10.17,0,0,0,1.62,1.73A10.62,10.62,0,0,0,369.65,157.72Zm.43,50.93a10.17,10.17,0,0,0-1.62-1.73,9.86,9.86,0,0,0,1.22,2,10.17,10.17,0,0,0,1.62,1.73A10.62,10.62,0,0,0,370.08,208.65Zm4.15-30a10.17,10.17,0,0,0-1.62-1.73,10.62,10.62,0,0,0,1.22,2,10.17,10.17,0,0,0,1.62,1.73A9.86,9.86,0,0,0,374.23,178.61Z" style="fill:#fff"></path><path d="M356.53,205.31c.68-2.78,1.2-5,1.8-7.75s1.23-5.58,1.8-8.38l0-.18-.11-.19a21.54,21.54,0,0,1-2.5-7.25,15.83,15.83,0,0,1-.16-3.83,13.13,13.13,0,0,1,.78-3.72,45.45,45.45,0,0,1,3.46-7c1.34-2.26,2.44-4.16,3.92-6.36.24-.34.11-.43-.11-.16-1.46,1.78-3.08,4.26-4.35,6.19a39.12,39.12,0,0,0-3.85,7,13.32,13.32,0,0,0-.92,4,16.89,16.89,0,0,0,.13,4.08,21.19,21.19,0,0,0,2.74,7.63l-.07-.38c-.52,2.81-1,5.63-1.45,8.45-.43,2.53-.91,5.26-1.27,7.81C356.36,205.53,356.3,206.33,356.53,205.31Z" style="fill:#263238"></path><path d="M363,162.61a12.11,12.11,0,0,0-1.51,2.57,11.06,11.06,0,0,0-.53,1.39,6.17,6.17,0,0,0-.3,1.48c.48-.88.93-1.75,1.34-2.65A17.44,17.44,0,0,0,363,162.61Z" style="fill:#263238"></path><path d="M379.22,155.23c-.61,4.85-1.33,9.68-2.07,14.51s-1.56,9.65-2.34,14.47-1.67,9.62-2.56,14.43l-1.37,7.2c-.49,2.39-.94,4.79-1.46,7.18.29-2.43.65-4.84,1-7.26l1.09-7.25c.74-4.83,1.56-9.65,2.34-14.47s1.67-9.62,2.57-14.43S378.2,160,379.22,155.23Z" style="fill:#263238"></path><path d="M373.15,169.41a.93.93,0,0,0,.73,1.07.92.92,0,0,0,1.07-.73.91.91,0,0,0-.73-1.07A.92.92,0,0,0,373.15,169.41Z" style="fill:#263238"></path><path d="M371.76,178.74a.92.92,0,1,0,1.07-.73A.91.91,0,0,0,371.76,178.74Z" style="fill:#263238"></path><path d="M370.37,188.07a.92.92,0,0,0,1.8.34.92.92,0,1,0-1.8-.34Z" style="fill:#263238"></path><path d="M369,197.41a.92.92,0,1,0,1.07-.73A.91.91,0,0,0,369,197.41Z" style="fill:#263238"></path><path d="M367.58,206.74a.92.92,0,0,0,.73,1.07.92.92,0,0,0,.34-1.8A.92.92,0,0,0,367.58,206.74Z" style="fill:#263238"></path><path d="M391.4,151.28c1.7,7,20.15,44.66,20,47,0,.56-9.09,3.76-9.37,4.64-1.11,3.58,9.21,23,13.22,23.93,11.78,2.66,28,2.11,27.79-7.56-.33-15.17-27-52.74-40.66-66C393.4,144.54,389.72,144.42,391.4,151.28Z" style="fill:#ad6359"></path><path d="M418.19,228.55,404,201.48s6.47-2.34,6.61-3.85-15.53-33.75-18.92-43.23-.76-11.44,9.4-3.31S449,211.9,443.36,223.63C439.51,231.72,418.19,228.55,418.19,228.55Z" style="fill:#FFA52E"></path><path d="M409.91,163.81a9.86,9.86,0,0,1-.07,2.37,10.46,10.46,0,0,1-.57,2.3,9.86,9.86,0,0,1,.07-2.37A10.32,10.32,0,0,1,409.91,163.81Zm19.3,47.29a10.33,10.33,0,0,0-.08,2.36,11.27,11.27,0,0,0,.65-4.66A10.32,10.32,0,0,0,429.21,211.1Zm-11.66-36.91a9.87,9.87,0,0,0,2.37.08,11.34,11.34,0,0,0-4.66-.65A9.85,9.85,0,0,0,417.55,174.19Zm-.37,28.62a9.85,9.85,0,0,0,2.37.08,11.34,11.34,0,0,0-4.66-.65A9.85,9.85,0,0,0,417.18,202.81Zm23,15.5a10.33,10.33,0,0,0,2.36.08,11.27,11.27,0,0,0-4.66-.65A10.32,10.32,0,0,0,440.2,218.31Zm-46.89-69.7a9.85,9.85,0,0,0,2.37.08A11.34,11.34,0,0,0,391,148,9.85,9.85,0,0,0,393.31,148.61Zm16.49,32.44a10.08,10.08,0,0,0-1.72,1.61,9.61,9.61,0,0,0,2-1.22,10.11,10.11,0,0,0,1.73-1.61A10,10,0,0,0,409.8,181.05ZM430,195.49a9.75,9.75,0,0,0-1.72,1.62,10.42,10.42,0,0,0,2-1.22,10.11,10.11,0,0,0,1.72-1.62A10.93,10.93,0,0,0,430,195.49ZM429.67,225a10.17,10.17,0,0,0-1.73,1.62,9.86,9.86,0,0,0,2-1.22,10.17,10.17,0,0,0,1.73-1.62A10.32,10.32,0,0,0,429.67,225Zm-29.14-67.19a10.05,10.05,0,0,0-1.72,1.61,10,10,0,0,0,2-1.22,10.46,10.46,0,0,0,1.72-1.61A10,10,0,0,0,400.53,157.84Zm.29,14.92A10.17,10.17,0,0,0,399.2,171a10.32,10.32,0,0,0,1.22,2,10.17,10.17,0,0,0,1.62,1.73A10.13,10.13,0,0,0,400.82,172.76ZM420.11,189a10.17,10.17,0,0,0-1.62-1.73,10.32,10.32,0,0,0,1.22,2,10.17,10.17,0,0,0,1.62,1.73A10.62,10.62,0,0,0,420.11,189Zm-1.42,27.51a9.75,9.75,0,0,0-1.62-1.72,10.54,10.54,0,0,0,1.22,2,10.17,10.17,0,0,0,1.62,1.73A10.42,10.42,0,0,0,418.69,216.52Z" style="fill:#fff"></path><path d="M410.62,197.81a14.85,14.85,0,0,1,2.79,1q1.36.6,2.7,1.23c1.77.82,3.53,1.67,5.24,2.61s3.37,1.94,5,3l1.16.72.46.16c.65.23,1.3.48,1.92.77a30.63,30.63,0,0,1,3.51,1.93c.08.05,0,.17-.08.13a27.13,27.13,0,0,0-3.66-1.72l-.49-.18c.66.44,1.3.9,1.92,1.39A51.26,51.26,0,0,1,435.8,213c.07.07,0,.17-.11.1-2.68-2.6-6.07-4.48-9.31-6.31s-6.61-3.94-10-5.81c-1-.54-1.93-1.05-2.92-1.54a30,30,0,0,1-2.95-1.47A.09.09,0,0,1,410.62,197.81Z" style="fill:#263238"></path><path d="M409.53,194.51c-.47-1.13-1-2.25-1.48-3.38-.95-2.17-2-4.32-3-6.47Q402,178,399,171.35c-1.17-2.52-2.26-5.1-3.51-7.58,0-.06-.12,0-.1,0,.82,2.31,1.83,4.58,2.77,6.84l.34.78c-.19-.33-.37-.66-.57-1-.56-.95-1.11-1.91-1.65-2.87-.05-.09-.18,0-.14.09.51,1,1,1.94,1.61,2.89.37.64.78,1.26,1.18,1.88.69,1.63,1.37,3.26,2.09,4.88,1.95,4.43,3.88,8.87,5.95,13.24.59,1.26,1.22,2.51,1.84,3.75s1.36,2.43,2,3.67c0,.08.18,0,.14-.06C410.41,196.8,410,195.64,409.53,194.51Z" style="fill:#263238"></path><rect x="362.38" y="214.59" width="46.26" height="2.7" style="fill:#455a64"></rect><rect x="380.52" y="214.59" width="28.12" height="2.7" style="fill:#263238"></rect><polygon points="385.38 217.33 443.93 217.34 452.31 177.37 393.75 177.37 385.38 217.33" style="fill:#455a64"></polygon><path d="M415.28,197.35a3.15,3.15,0,0,0,3.19,3.58,4.07,4.07,0,0,0,3.94-3.58,3.16,3.16,0,0,0-3.19-3.58A4.06,4.06,0,0,0,415.28,197.35Z" style="fill:#263238"></path><path d="M432.18,219.71c-3.61,2-8,6.63-11,7.15a3.49,3.49,0,0,1-3.8-1.74s-1.35,3.1-4.16,3.12c-1.45,0-2.74-2.28-2.74-2.28a4.16,4.16,0,0,1-3.68,2.3c-2-.1-3-2.39-3-2.39s-2.23,1.81-4.23,1c-4-1.54-4.94-18.64,1.22-21.61,2.87-1.39,2.86,2.8,2.86,2.8s1.46-6,5-6.29,3.19,5.16,3.19,5.16,1.47-5.82,5.15-5.74,2.56,5.47,2.56,5.47,2.37-3.94,5.17-3.23c4.63,1.17-.62,10.1.47,13.81h6.12Z" style="fill:#ad6359"></path><path d="M427,223.05c3.58-1.55,5.3,1,9,.52,4.16-.54,2.81-5.42-4.5-6.29h-6.33Z" style="fill:#ad6359"></path><path d="M403.61,225.53a0,0,0,1,1-.09,0,29.66,29.66,0,0,1,.12-17.67c.07-.18.39-.15.36.06A60.3,60.3,0,0,0,403.61,225.53Z" style="fill:#263238"></path><path d="M410.46,226c0,.07-.1.08-.12,0a27.83,27.83,0,0,1,1.33-19.26c.1-.21.4-.3.31,0C410.31,210.94,409.7,220.56,410.46,226Z" style="fill:#263238"></path><path d="M419.9,206.34c-2.61,5.94-3,12.13-2.59,18.54a.07.07,0,0,1-.14,0c-1.08-3.08-.95-7.2-.57-10.4a17.21,17.21,0,0,1,3.09-8.26C419.76,206.15,420,206.21,419.9,206.34Z" style="fill:#263238"></path><path d="M389.07,147c-.48.89-6.67,5.84-10.95,4.47-1.4-.45.71-8.18.71-8.18l0-.6.36-8.48,11-3.5,1.57-.44s-.25,2.32-.59,5.2c0,.13,0,.26-.05.41s0,.31-.05.46L391,137.6c-.05.33-.09.66-.14,1s-.11.69-.15,1A54.81,54.81,0,0,1,389.07,147Z" style="fill:#ad6359"></path><path d="M391.22,135.42a17,17,0,0,1-12.36,7.22l.36-8.48,11-3.5,1.57-.44S391.56,132.54,391.22,135.42Z" style="fill:#263238"></path><path d="M370.23,120.39c-3.15,14.56,5.21,18.09,8.35,18.76,2.85.62,12.64,2.34,17.27-11.81s-1.13-20.23-7.58-22S373.38,105.83,370.23,120.39Z" style="fill:#ad6359"></path><path d="M374.35,117.13c.35,0,.67,0,1,0a1.65,1.65,0,0,0,1.05-.19.52.52,0,0,0,.14-.63,1.32,1.32,0,0,0-1.2-.58,1.92,1.92,0,0,0-1.33.41A.57.57,0,0,0,374.35,117.13Z" style="fill:#263238"></path><path d="M384.13,119.64a8.92,8.92,0,0,1-.94-.42,1.72,1.72,0,0,1-.88-.61.55.55,0,0,1,.14-.64,1.32,1.32,0,0,1,1.33,0,2,2,0,0,1,1,.92A.57.57,0,0,1,384.13,119.64Z" style="fill:#263238"></path><path d="M380.9,122.71s.06.07.05.11c-.27,1-.41,2.14.4,2.69,0,0,0,.06,0,0C380.28,125.14,380.48,123.6,380.9,122.71Z" style="fill:#263238"></path><path d="M382,121.9c1.62.26,1,3.47-.52,3.23S380.67,121.68,382,121.9Z" style="fill:#263238"></path><path d="M382.62,122.19c.24.24.45.62.79.72s.74-.16,1.06-.43c0,0,.06,0,0,0-.11.62-.48,1.2-1.16,1.16s-.94-.66-1-1.31C382.39,122.25,382.52,122.1,382.62,122.19Z" style="fill:#263238"></path><path d="M375.48,121.17s-.09,0-.1.07c-.16,1-.51,2.13-1.47,2.28,0,0,0,.06,0,.06C375,123.64,375.49,122.15,375.48,121.17Z" style="fill:#263238"></path><path d="M374.79,120c-1.58-.43-2.32,2.76-.86,3.16S376.11,120.32,374.79,120Z" style="fill:#263238"></path><path d="M374.07,120c-.29.12-.61.36-.91.31s-.53-.46-.68-.84c0,0-.05,0-.06,0-.16.61-.1,1.29.45,1.54s1-.2,1.31-.77C374.24,120.16,374.19,120,374.07,120Z" style="fill:#263238"></path><path d="M379.46,130.8c-.28.19-.57.48-.94.45a2.73,2.73,0,0,1-1-.41,0,0,0,0,0-.05,0,1.35,1.35,0,0,0,1.19.74,1.1,1.1,0,0,0,.93-.76A.06.06,0,0,0,379.46,130.8Z" style="fill:#263238"></path><path d="M376.07,126.33s-.52,1.44-.67,2.13c0,.07.15.14.39.2h0a3.42,3.42,0,0,0,3.5-.56c.06-.05,0-.15-.09-.12a5.09,5.09,0,0,1-3.22.23c0-.21,1-2.43.87-2.47a6.71,6.71,0,0,0-1.67,0c1-3,2.47-5.86,3.42-8.89,0-.11-.12-.18-.17-.09a51.33,51.33,0,0,0-4.09,9.43C374.22,126.6,375.77,126.39,376.07,126.33Z" style="fill:#263238"></path><path d="M376.28,128.58a3.74,3.74,0,0,0,1.26,1.45,1.72,1.72,0,0,0,1,.27c.77-.05.92-.72.9-1.32a3.87,3.87,0,0,0-.15-.95A4.92,4.92,0,0,1,376.28,128.58Z" style="fill:#263238"></path><path d="M377.54,130a1.72,1.72,0,0,0,1,.27c.77-.05.92-.72.9-1.32A1.76,1.76,0,0,0,377.54,130Z" style="fill:#ff9cbd"></path><path d="M394.91,127.43c-1.57-.44-4.75-5.72-3.2-13.43,0,0-.91,7-.62,8.14s-1.77-3-.61-9.21a25.58,25.58,0,0,1-7.08,1.91c-3.1.18-4.89-.24-5-.5s4.44-.67,5.9-1.76c0,0-8.58,1.92-12.22,1.41-.43-.06,1-8.71,7.29-11.11s14.27,3.42,16.13,6.22c0,0,2.69,1,4.8,5.77S396.6,127.91,394.91,127.43Z" style="fill:#263238"></path><path d="M381.22,128.34a4.71,4.71,0,0,1-2.28-6.25h0a4.7,4.7,0,1,1,3.39,6.6A5.1,5.1,0,0,1,381.22,128.34Zm-1.71-6a4.07,4.07,0,1,0,5.4-2,3.71,3.71,0,0,0-1-.31A4.06,4.06,0,0,0,379.51,122.36Z" style="fill:#FFA52E"></path><path d="M371.75,125.35c-1.84-.57-2.71-3-1.94-5.53a5.59,5.59,0,0,1,1.93-2.84,2.93,2.93,0,0,1,4.78,1.49,5.62,5.62,0,0,1,0,3.44c-.73,2.34-2.67,3.85-4.44,3.52Zm.36-7.87a5,5,0,0,0-1.7,2.53c-.67,2.14,0,4.27,1.53,4.74s3.28-.89,3.95-3a5,5,0,0,0,0-3,2.5,2.5,0,0,0-1.57-1.69.86.86,0,0,0-.23-.06A2.6,2.6,0,0,0,372.11,117.48Z" style="fill:#FFA52E"></path><path d="M378.92,122.66l.53-.34c-.5-.78-1.83-2-3.29-1.21l.31.54C377.77,120.91,378.88,122.59,378.92,122.66Z" style="fill:#FFA52E"></path><path d="M398.56,130.05l.62-.11c-.05-.29-.53-2.84-1.81-3.47s-9.46-2.35-9.82-2.42l-.13.61c2.38.5,8.75,1.91,9.67,2.37S398.44,129.35,398.56,130.05Z" style="fill:#FFA52E"></path><path d="M393.3,128s3.81-4.2,5.76-2.78-1.33,7.79-3.91,8.39A2.5,2.5,0,0,1,392,131.8Z" style="fill:#ad6359"></path><path d="M398.07,127s0,.06,0,.07a6.33,6.33,0,0,0-3.77,3.54,1.38,1.38,0,0,1,2.11-.12s0,.1-.06.09a1.56,1.56,0,0,0-1.76.32,7.16,7.16,0,0,0-1,1.27c-.1.14-.37,0-.29-.15l0,0C393.59,129.75,395.69,126.89,398.07,127Z" style="fill:#263238"></path><path d="M378.84,143.15l1.73,7.07,9.52-7.29,2,3s-10,12.3-10,11.68l-1.94-6.16L375.56,155l1.76-10Z" style="fill:#FFA52E"></path><path d="M376.15,150c.34-1.65.65-3.32,1.07-4.94,0-.06.11-.08.11,0,.11,1.65-1.25,7.93-1.45,9.46l0,0c.19-.15,4.19-3,4.21-2.95.47,1,1.9,5.49,2,5.89,1.59-1.95,8.24-9.6,10.05-11.4.05-.05.14,0,.09.07-1.45,2.1-10.08,12.21-10.18,12.16a66.2,66.2,0,0,1-2-6.5,45.89,45.89,0,0,1-4.77,3.68A49.88,49.88,0,0,1,376.15,150Z" style="fill:#263238"></path></g><g id="freepik--Plant--inject-927"><path d="M89.23,327.24a85,85,0,0,1,2-13.84c1-4.1,2.36-8.29,4.94-11.68a14.86,14.86,0,0,1,9.7-6c3.8-.46,7.36,1.23,10.2,3.62,3.52,3,6.22,6.89,8.75,10.69a132.92,132.92,0,0,1,7.55,13.22c.08.15-.15.28-.23.13a82.11,82.11,0,0,0-6.75-11.06,69.66,69.66,0,0,0-7.78-9.42c-2.61-2.55-5.92-4.93-9.7-5.05a11.93,11.93,0,0,0-9.49,4.89c-2.53,3.24-3.81,7.28-4.78,11.22a84.93,84.93,0,0,0-1.94,13.19c-.75,9.12-1,18.29-1.15,27.44-.12,5.17-.19,10.35-.24,15.52l-.06,7.87a49.28,49.28,0,0,1-.3,7.59c-.09.51-.92.46-1,0a45.28,45.28,0,0,1-.35-7.18q0-3.74-.08-7.46-.08-7.26-.06-14.5C88.45,346.66,88.57,336.92,89.23,327.24Z" style="fill:#263238"></path><path d="M102.26,320.37c.48-2.58,1.36-5.94,2.83-7.94,2.64-3.59,5.49-2,2.85,1.95a23.83,23.83,0,0,0-3.71,9.8s4.44,6.34,9.8,9.46c-.23-2.44-.92-6.18-.44-9.8,1-7.83,5.76-7.39,4.59-1.17a54.15,54.15,0,0,0-1.07,12.58,26.66,26.66,0,0,0,5.73,2.81c-.31-.91-.64-2-1-3.32-1.9-7,2.78-9.22,2.93-5.26a55.92,55.92,0,0,0,1.82,10c2.57.86,4.7,1.45,6,1.91a21.91,21.91,0,0,1,8.78,6,27.74,27.74,0,0,0,6-7.74c-1.63-1.41-4.22-3.51-7.81-6-6.73-4.75-4.39-10.76.95-7,3.85,2.69,6.84,7.68,8.19,10.24a41.6,41.6,0,0,0,3.05-14c-5.28-5-18.36-11.88-14.42-11.88,3.55,0,11.49,5.2,14.4,7.21a37.71,37.71,0,0,0-.45-4.08c-5-3.26-21.17-8.34-18.59-9.8,2.84-1.6,14.13,3.62,17.54,5.28a20.68,20.68,0,0,0-3-6.2c-6.88-9.21-19.29-12.38-24.71-10.63-3.83,1.24-2.71,11-3.53,10.63C103.6,297.11,96.6,301.49,102.26,320.37ZM140,319.3c1.09-1.32,6.14,2.56,4.68,4.68S138.58,321,140,319.3ZM113.6,311c1.32.85-.64,5.76-2.69,4.27C109.17,314,112.26,310.16,113.6,311Z" style="fill:#FFA52E"></path><path d="M115.61,312.52c.7-1.38,1.42-2.74,2.21-4.06a23.51,23.51,0,0,1,2.55-3.69l-.66-.81c-.09-.11.06-.26.16-.15.26.29.5.59.75.89a.24.24,0,0,1,.11.13q1.42,1.71,2.7,3.51a40.75,40.75,0,0,1,4.47,1.29c1.51.51,3,1,4.47,1.65.16.07.08.32-.07.25-1.45-.64-2.93-1.26-4.44-1.77s-2.87-.85-4.32-1.26c.47.66.94,1.33,1.38,2a53.63,53.63,0,0,1,7.9,3.22c2.67,1.27,5.24,2.75,7.8,4.23.15.08,0,.3-.14.22a86.11,86.11,0,0,0-7.75-4c-2.48-1.16-5-2.11-7.54-3.21,6.29,9.81,10.06,21.12,15.1,31.6.07.15-.17.28-.23.13-1.54-3.68-3.31-7.26-5-10.87-1.5-3.25-3-6.51-4.48-9.75q-.66-1.43-1.35-2.85c.27,5.24.16,10.57,1,15.75a.13.13,0,1,1-.25,0c-.37-5.6-1.35-11.11-1.31-16.74,0,0,0-.05,0-.08-1.07-2.14-2.21-4.25-3.43-6.3-2.09,4.9-4.28,9.88-5.25,15.14,0,.16-.29.09-.25-.07,1.42-5.28,2.73-10.56,5.27-15.44a58.43,58.43,0,0,0-4.42-6.38c-.7,1.3-1.6,2.53-2.39,3.78s-1.54,2.44-2.26,3.69a54.38,54.38,0,0,0-3.93,8.31c0,.16-.31.08-.25-.07C113,318,114.24,315.23,115.61,312.52Z" style="fill:#263238"></path><path d="M66.07,324.44c4-4,8.72-9.35,15-9.34,6,0,10.45,4.85,13,9.85,2.66,5.23,3.61,11.15,4.37,16.9A206.21,206.21,0,0,1,100,362.63c.11,3.85.09,7.72,0,11.57a77.25,77.25,0,0,1-.88,11.68c-.12.63-1.12.65-1.15,0-.18-3.25,0-6.51,0-9.76s0-6.41-.15-9.61c-.23-6.47-.7-12.93-1.46-19.37-.67-5.62-1.2-11.39-2.88-16.82-1.51-4.9-4.36-10.49-9.32-12.65-6.77-2.93-13.39,2.43-17.82,7C66.15,324.73,66,324.56,66.07,324.44Z" style="fill:#263238"></path><path d="M45.49,333.48h0c0,.83.08,1.64.14,2.44a14.68,14.68,0,0,1,6.61-2.74c5.72-.6,5.35,3.75,1.53,3.93a21.88,21.88,0,0,0-7.85,1.57c.93,7.56,3,13.64,3.32,13.72a109.78,109.78,0,0,0,15.13-1.91c-1.43-3-4.67-7.06-3-7.39s3.46,3.26,4.38,7.11a72,72,0,0,0,11-3c-2.52-2.18-6.41-4.9-4.93-6.05s4.58,2.66,6.43,5.44A22.84,22.84,0,0,0,83,343.94c-3.4-5-11.66-6-10.59-9.6s8.82,1.39,12.29,8.06c4.08-4.23,5.28-10.21,4.85-15.33-3.56-.41-10.39.34-9.9-2.22s5.44-2.06,9.48-.57a14.2,14.2,0,0,0-2.37-5.62C83,313.85,71.58,320,71.58,320s1.22-11.48-3.14-13.47c-2.51-1.14-6.94-1.13-11.39,1.49,2.49.21,5.51,1,6.72,2.73,1.55,2.2-.9,3.4-2.45,2.39-1.09-.73-3.14-3-6.83-3.3a22.61,22.61,0,0,0-4.12,4.57c-.42.59-.82,1.22-1.21,1.9a15.67,15.67,0,0,1,13.38.24c4.95,2.46,2.19,7.6-2.08,5.6s-8.32-4-12.84-2.83a32.26,32.26,0,0,0-2.17,12.81,22.41,22.41,0,0,1,7.34-3.52c4.92-1.29,6.41,1.65,1,2.2A21.69,21.69,0,0,0,45.49,333.48Zm6-7.91c-.34-1.59,3.16-2.05,3.74-.76C55.7,325.92,51.82,327.17,51.48,325.57Zm29.89,8.84c.33-.87,2.66.12,2.45,1.21C83.53,337.07,81.05,335.28,81.37,334.41ZM64.87,340c1.7-.68,4.36,3.55,2.51,4.52S63.48,340.57,64.87,340Z" style="fill:#FFA52E"></path><path d="M49.91,351.54c2.57-4.29,5.1-8.61,7.8-12.82,1.25-2,2.57-3.89,3.93-5.77L61,332.8l-1-.19c-.79-.14-1.58-.25-2.38-.33s-1.5-.12-2.25-.13a10.77,10.77,0,0,0-2.41.13.07.07,0,1,1,0-.13c.8,0,1.62-.07,2.42-.09s1.57,0,2.34.06,1.46.12,2.19.23c.4.06.8.13,1.19.21a5.75,5.75,0,0,1,.72.15c1.39-1.91,2.84-3.79,4.33-5.62a51.56,51.56,0,0,0-14-4.49c-.08,0-.05-.14,0-.12a47.6,47.6,0,0,1,14.25,4.32l2.48-3c.93-1.11,1.92-2.2,2.76-3.39a.07.07,0,1,1,.11.08,48.26,48.26,0,0,0-3.26,4s0,0,0,0a50.24,50.24,0,0,1,5.23,4.19c1.7,1.52,3.37,3.08,5,4.69a.06.06,0,0,1-.09.09c-1.6-1.59-3.26-3.1-5-4.55s-3.55-2.76-5.3-4.19v0l-1.2,1.57-.6.79,0,0c-.67.87-1.34,1.74-2,2.62a20.84,20.84,0,0,1,2,3.58C67,334.5,67.52,335.75,68,337a52.91,52.91,0,0,1,2.14,8c0,.08-.11.12-.12,0a47,47,0,0,0-2.34-7.89c-.5-1.31-1.06-2.59-1.65-3.86s-1.18-2.28-1.68-3.45c-.57.76-1.15,1.53-1.71,2.3l-.48.68c0,.06,0,.12-.06.12h0c-1.76,2.46-3.44,5-5.07,7.53a2.25,2.25,0,0,1,.22.56c.11.31.21.62.3.94.18.63.33,1.26.45,1.91s.19,1.21.25,1.83a17.69,17.69,0,0,0,.15,2.07c0,.11-.14.11-.12,0a7,7,0,0,0-.14-1.94c-.1-.67-.22-1.32-.37-2s-.3-1.17-.48-1.75c-.08-.29-.18-.58-.28-.87s-.12-.31-.17-.47c-.77,1.19-1.53,2.4-2.27,3.61-1.48,2.4-2.94,4.81-4.42,7.21A.11.11,0,0,1,49.91,351.54Z" style="fill:#263238"></path><path d="M89.5,384.5c.06-2.44.45-4.88.71-7.3s.54-4.86.8-7.29c.5-4.69.78-9.47,1.88-14.07a20.45,20.45,0,0,1,5.72-10.51,9.32,9.32,0,0,1,5.61-2.68,9.62,9.62,0,0,1,6,1.84,20.76,20.76,0,0,1,5,5.27,52.27,52.27,0,0,1,3.91,6.35c0,.08-.09.13-.14.06a32.47,32.47,0,0,0-8.45-9.48,10,10,0,0,0-5.33-2.22,7.26,7.26,0,0,0-5.16,2.06c-2.84,2.47-4.48,6.1-5.46,9.66-1.16,4.22-1.53,8.66-2.11,13-.34,2.57-.67,5.15-1,7.72s-.55,5.19-1.1,7.71A.42.42,0,0,1,89.5,384.5Z" style="fill:#263238"></path><path d="M101.46,365.61a13.5,13.5,0,0,0,2.65,2.7c-.4-2.37-.89-6.59.31-8.84,1.86-3.48,4.06-1.74,3,1.29a25,25,0,0,0-1.79,8.59,37.33,37.33,0,0,0,8.08,3.81,13.65,13.65,0,0,1-.26-4.15c.37-3.73,3.22-3.66,2.48.22a24.35,24.35,0,0,0-.39,4.55,84.19,84.19,0,0,0,12.59,2.84,37,37,0,0,0,5.21-9.28c-3-.76-9.18-.93-9-3.1.17-2.92,6.12-.67,9.6,1.45a23.07,23.07,0,0,0,1.05-7.85,38.71,38.71,0,0,0-8.36-1.39c-6.25-.54-5.94-4.08-1.42-4,3.34.06,7.57,2.11,9.57,3.17-1.3-8.5-7.78-13.95-13-14.15-8.74-.36-5.6,10.52-5.6,10.52s-5.92-4.17-11.5-4.06S95.49,357.3,101.46,365.61Zm23.34-15.72c-.2-1.22,3.7-1.52,3.91.05C128.94,351.7,125,351.13,124.8,349.89Zm6.27,12.76c-.08-.8,1.61-.94,2,.06C133.31,363.37,131.14,363.44,131.07,362.65Zm-21,.74c1.32.19,2.07,4.9-.2,4.8C108.16,368.12,109,363.23,110.09,363.39Z" style="fill:#FFA52E"></path><path d="M111.91,368.62c.22-.59.41-1.18.6-1.78-.17.6-.32,1.21-.43,1.82C112.05,368.78,111.87,368.74,111.91,368.62Z" style="fill:#263238"></path><path d="M114.22,361.05c.41-1.21.87-2.4,1.34-3.58.25-.64.51-1.26.79-1.89a7.62,7.62,0,0,1,.77-1.57,13.12,13.12,0,0,1-.7-1.53c0-.05,0-.08.08,0a18,18,0,0,1,1.7,2.64l.71,1.24a12.14,12.14,0,0,1,1.47.23c.52.1,1.05.2,1.57.32l1.55.36c.52.12,1,.3,1.55.38.12,0,.07.2,0,.16a10.14,10.14,0,0,0-1.64-.43c-.5-.11-1-.19-1.51-.27l-1.53-.18-1.15-.1.63,1.1.09.18a4.41,4.41,0,0,1,1.25.15c.46.08.91.16,1.35.26.92.2,1.82.42,2.72.67,1.89.53,3.76,1.13,5.63,1.74.1,0,0,.19-.07.16a52.53,52.53,0,0,0-5.65-1.57c-.89-.2-1.78-.41-2.68-.59l-1.35-.29a7.43,7.43,0,0,1-1-.23c1,1.78,1.87,3.58,2.7,5.42,1.81,4,3.33,8.14,4.89,12.26a.09.09,0,0,1-.16.06,111.4,111.4,0,0,0-5.2-12L121.23,362c0,.14-.07.28-.1.43-.09.49-.17,1-.25,1.46-.17,1-.33,2-.48,2.93a34.43,34.43,0,0,0-.7,6.07c0,.12-.19.12-.17,0,.15-1,.15-2,.21-3s.14-2,.26-3.06.24-2,.4-2.94c.09-.49.17-1,.26-1.46a3,3,0,0,1,.28-1.06c-.52-1-1-2.05-1.54-3.08l-1.48-2.87c-.21-.4-.44-.81-.66-1.22a12.47,12.47,0,0,1-.58,1.47c-.23.56-.45,1.11-.68,1.66-.5,1.22-1,2.45-1.43,3.68-.66,1.75-1.39,3.54-1.93,5.36C113.17,364.63,113.62,362.81,114.22,361.05Z" style="fill:#263238"></path><path d="M112.51,366.84c0-.14.08-.28.13-.42C112.59,366.56,112.55,366.7,112.51,366.84Z" style="fill:#263238"></path><polygon points="74.89 379.77 75.5 392.77 77.08 426.3 111.67 426.3 113.25 392.77 113.87 379.77 74.89 379.77" style="fill:#37474f"></polygon><polygon points="74.89 379.77 75.5 392.77 113.25 392.77 113.87 379.77 74.89 379.77" style="fill:#263238"></polygon><rect x="72.43" y="374.51" width="43.9" height="10.52" transform="translate(188.75 759.53) rotate(180)" style="fill:#37474f"></rect><rect x="102.8" y="426.3" width="6.07" height="5.51" style="fill:#37474f"></rect><rect x="102.8" y="426.3" width="6.07" height="2.75" style="fill:#263238"></rect><rect x="79.88" y="426.3" width="6.07" height="5.51" style="fill:#37474f"></rect><rect x="79.88" y="426.3" width="6.07" height="2.75" style="fill:#263238"></rect></g></svg>