<svg xmlns="http://www.w3.org/2000/svg" viewBox="0 0 500 500"><g id="freepik--background-complete--inject-396"><path d="M400.2,107.41H323.55s3.81-5,8-5.58c0,0,8.17-24.33,21.85-24.5,12.72-.17,17.82,15,17.82,15s5.89-6.79,11.52-3.69,8.81,12,8.81,12S397.91,104,400.2,107.41Z" style="fill:#ebebeb"></path><path d="M52.6,146.87h96.93s0-6.2-13.36-7.41c0,0-12.19-27.07-30.8-23.43-11.59,2.26-17.52,18.18-17.52,18.18s-8.76-12.53-15.76-10.1-11.17,15.75-11.17,15.75S53.69,143.37,52.6,146.87Z" style="fill:#ebebeb"></path><path d="M136.71,69.94h65.91s-6.22-5.79-9-5.79S182.81,44.72,172.5,45.54s-15.78,15.3-15.78,15.3S144.19,56.92,136.71,69.94Z" style="fill:#ebebeb"></path><path d="M183.39,125.31h56.36s-2.8-3.65-5.89-4.1c0,0-6-17.89-16.07-18-9.35-.12-13.1,11-13.1,11s-4.33-5-8.47-2.7-6.49,8.81-6.49,8.81S185.08,122.8,183.39,125.31Z" style="fill:#ebebeb"></path><path d="M391,178.13H447.4s-2.8-3.65-5.89-4.1c0,0-6-17.89-16.07-18-9.35-.12-13.1,11-13.1,11s-4.33-5-8.47-2.71-6.49,8.81-6.49,8.81S392.73,175.62,391,178.13Z" style="fill:#ebebeb"></path><rect x="278.79" y="173.17" width="31.77" height="166.52" style="fill:#dbdbdb"></rect><rect x="283.72" y="178.58" width="6.18" height="6.36" style="fill:#ebebeb"></rect><rect x="291.62" y="178.58" width="6.18" height="6.36" style="fill:#ebebeb"></rect><rect x="283.72" y="189.38" width="6.18" height="6.36" style="fill:#ebebeb"></rect><rect x="291.62" y="189.38" width="6.18" height="6.36" style="fill:#ebebeb"></rect><rect x="283.72" y="200.17" width="6.18" height="6.36" style="fill:#ebebeb"></rect><rect x="291.62" y="200.17" width="6.18" height="6.36" style="fill:#ebebeb"></rect><rect x="283.72" y="210.97" width="6.18" height="6.36" style="fill:#ebebeb"></rect><rect x="291.62" y="210.97" width="6.18" height="6.36" style="fill:#ebebeb"></rect><rect x="283.72" y="221.76" width="6.18" height="6.36" style="fill:#ebebeb"></rect><rect x="291.62" y="221.76" width="6.18" height="6.36" style="fill:#ebebeb"></rect><rect x="283.72" y="232.56" width="6.18" height="6.36" style="fill:#ebebeb"></rect><rect x="291.62" y="232.56" width="6.18" height="6.36" style="fill:#ebebeb"></rect><rect x="283.72" y="243.35" width="6.18" height="6.36" style="fill:#ebebeb"></rect><rect x="291.62" y="243.35" width="6.18" height="6.36" style="fill:#ebebeb"></rect><rect x="283.72" y="254.15" width="6.18" height="6.36" style="fill:#ebebeb"></rect><rect x="291.62" y="254.15" width="6.18" height="6.36" style="fill:#ebebeb"></rect><rect x="283.72" y="264.94" width="6.18" height="6.36" style="fill:#ebebeb"></rect><rect x="291.62" y="264.94" width="6.18" height="6.36" style="fill:#ebebeb"></rect><rect x="283.72" y="275.74" width="6.18" height="6.36" style="fill:#ebebeb"></rect><rect x="291.62" y="275.74" width="6.18" height="6.36" style="fill:#ebebeb"></rect><rect x="283.72" y="286.53" width="6.18" height="6.36" style="fill:#ebebeb"></rect><rect x="291.62" y="286.53" width="6.18" height="6.36" style="fill:#ebebeb"></rect><rect x="283.72" y="297.33" width="6.18" height="6.36" style="fill:#ebebeb"></rect><rect x="291.62" y="297.33" width="6.18" height="6.36" style="fill:#ebebeb"></rect><rect x="283.72" y="308.12" width="6.18" height="6.36" style="fill:#ebebeb"></rect><rect x="291.62" y="308.12" width="6.18" height="6.36" style="fill:#ebebeb"></rect><rect x="283.72" y="318.92" width="6.18" height="6.36" style="fill:#ebebeb"></rect><rect x="299.45" y="318.92" width="6.18" height="6.36" transform="translate(605.07 644.2) rotate(180)" style="fill:#ebebeb"></rect><rect x="299.45" y="308.12" width="6.18" height="6.36" transform="translate(605.07 622.61) rotate(180)" style="fill:#ebebeb"></rect><rect x="299.45" y="297.33" width="6.18" height="6.36" transform="translate(605.07 601.02) rotate(180)" style="fill:#ebebeb"></rect><rect x="299.45" y="286.53" width="6.18" height="6.36" transform="translate(605.07 579.43) rotate(180)" style="fill:#ebebeb"></rect><rect x="299.45" y="275.74" width="6.18" height="6.36" transform="translate(605.07 557.84) rotate(180)" style="fill:#ebebeb"></rect><rect x="299.45" y="264.94" width="6.18" height="6.36" transform="translate(605.07 536.25) rotate(180)" style="fill:#ebebeb"></rect><rect x="299.45" y="254.15" width="6.18" height="6.36" transform="translate(605.07 514.65) rotate(180)" style="fill:#ebebeb"></rect><rect x="299.45" y="243.35" width="6.18" height="6.36" transform="translate(605.07 493.06) rotate(180)" style="fill:#ebebeb"></rect><rect x="299.45" y="232.56" width="6.18" height="6.36" transform="translate(605.07 471.47) rotate(180)" style="fill:#ebebeb"></rect><rect x="299.45" y="221.76" width="6.18" height="6.36" transform="translate(605.07 449.88) rotate(180)" style="fill:#ebebeb"></rect><rect x="299.45" y="210.97" width="6.18" height="6.36" transform="translate(605.07 428.29) rotate(180)" style="fill:#ebebeb"></rect><rect x="299.45" y="200.17" width="6.18" height="6.36" transform="translate(605.07 406.7) rotate(180)" style="fill:#ebebeb"></rect><rect x="299.45" y="189.38" width="6.18" height="6.36" transform="translate(605.07 385.11) rotate(180)" style="fill:#ebebeb"></rect><rect x="299.45" y="178.58" width="6.18" height="6.36" transform="translate(605.07 363.52) rotate(180)" style="fill:#ebebeb"></rect><rect x="291.62" y="318.92" width="6.18" height="6.36" style="fill:#ebebeb"></rect><rect x="310.55" y="173.17" width="25.05" height="166.52" style="fill:#a6a6a6"></rect><rect x="327.92" y="318.92" width="5.1" height="6.36" transform="translate(660.94 644.2) rotate(180)" style="fill:#c7c7c7"></rect><rect x="321.4" y="318.92" width="5.1" height="6.36" transform="translate(647.89 644.2) rotate(180)" style="fill:#c7c7c7"></rect><rect x="327.92" y="308.12" width="5.1" height="6.36" transform="translate(660.94 622.61) rotate(180)" style="fill:#c7c7c7"></rect><rect x="321.4" y="308.12" width="5.1" height="6.36" transform="translate(647.89 622.61) rotate(180)" style="fill:#c7c7c7"></rect><rect x="327.92" y="297.33" width="5.1" height="6.36" transform="translate(660.94 601.02) rotate(180)" style="fill:#c7c7c7"></rect><rect x="321.4" y="297.33" width="5.1" height="6.36" transform="translate(647.89 601.02) rotate(180)" style="fill:#c7c7c7"></rect><rect x="327.92" y="286.53" width="5.1" height="6.36" transform="translate(660.94 579.43) rotate(180)" style="fill:#c7c7c7"></rect><rect x="321.4" y="286.53" width="5.1" height="6.36" transform="translate(647.89 579.43) rotate(180)" style="fill:#c7c7c7"></rect><rect x="327.92" y="275.74" width="5.1" height="6.36" transform="translate(660.94 557.84) rotate(180)" style="fill:#c7c7c7"></rect><rect x="321.4" y="275.74" width="5.1" height="6.36" transform="translate(647.89 557.84) rotate(180)" style="fill:#c7c7c7"></rect><rect x="327.92" y="264.94" width="5.1" height="6.36" transform="translate(660.94 536.25) rotate(180)" style="fill:#c7c7c7"></rect><rect x="321.4" y="264.94" width="5.1" height="6.36" transform="translate(647.89 536.25) rotate(180)" style="fill:#c7c7c7"></rect><rect x="327.92" y="254.15" width="5.1" height="6.36" transform="translate(660.94 514.65) rotate(180)" style="fill:#c7c7c7"></rect><rect x="321.4" y="254.15" width="5.1" height="6.36" transform="translate(647.89 514.65) rotate(180)" style="fill:#c7c7c7"></rect><rect x="327.92" y="243.35" width="5.1" height="6.36" transform="translate(660.94 493.06) rotate(180)" style="fill:#c7c7c7"></rect><rect x="321.4" y="243.35" width="5.1" height="6.36" transform="translate(647.89 493.06) rotate(180)" style="fill:#c7c7c7"></rect><rect x="327.92" y="232.56" width="5.1" height="6.36" transform="translate(660.94 471.47) rotate(180)" style="fill:#c7c7c7"></rect><rect x="321.4" y="232.56" width="5.1" height="6.36" transform="translate(647.89 471.47) rotate(180)" style="fill:#c7c7c7"></rect><rect x="327.92" y="221.76" width="5.1" height="6.36" transform="translate(660.94 449.88) rotate(180)" style="fill:#c7c7c7"></rect><rect x="321.4" y="221.76" width="5.1" height="6.36" transform="translate(647.89 449.88) rotate(180)" style="fill:#c7c7c7"></rect><rect x="327.92" y="210.97" width="5.1" height="6.36" transform="translate(660.94 428.29) rotate(180)" style="fill:#c7c7c7"></rect><rect x="321.4" y="210.97" width="5.1" height="6.36" transform="translate(647.89 428.29) rotate(180)" style="fill:#c7c7c7"></rect><rect x="327.92" y="200.17" width="5.1" height="6.36" transform="translate(660.94 406.7) rotate(180)" style="fill:#c7c7c7"></rect><rect x="321.4" y="200.17" width="5.1" height="6.36" transform="translate(647.89 406.7) rotate(180)" style="fill:#c7c7c7"></rect><rect x="327.92" y="189.38" width="5.1" height="6.36" transform="translate(660.94 385.11) rotate(180)" style="fill:#c7c7c7"></rect><rect x="321.4" y="189.38" width="5.1" height="6.36" transform="translate(647.89 385.11) rotate(180)" style="fill:#c7c7c7"></rect><rect x="327.92" y="178.58" width="5.1" height="6.36" transform="translate(660.94 363.52) rotate(180)" style="fill:#c7c7c7"></rect><rect x="314.93" y="178.58" width="5.1" height="6.36" style="fill:#c7c7c7"></rect><rect x="314.93" y="189.38" width="5.1" height="6.36" style="fill:#c7c7c7"></rect><rect x="314.93" y="200.17" width="5.1" height="6.36" style="fill:#c7c7c7"></rect><rect x="314.93" y="210.97" width="5.1" height="6.36" style="fill:#c7c7c7"></rect><rect x="314.93" y="221.76" width="5.1" height="6.36" style="fill:#c7c7c7"></rect><rect x="314.93" y="232.56" width="5.1" height="6.36" style="fill:#c7c7c7"></rect><rect x="314.93" y="243.35" width="5.1" height="6.36" style="fill:#c7c7c7"></rect><rect x="314.93" y="254.15" width="5.1" height="6.36" style="fill:#c7c7c7"></rect><rect x="314.93" y="264.94" width="5.1" height="6.36" style="fill:#c7c7c7"></rect><rect x="314.93" y="275.74" width="5.1" height="6.36" style="fill:#c7c7c7"></rect><rect x="314.93" y="286.53" width="5.1" height="6.36" style="fill:#c7c7c7"></rect><rect x="314.93" y="297.33" width="5.1" height="6.36" style="fill:#c7c7c7"></rect><rect x="314.93" y="308.12" width="5.1" height="6.36" style="fill:#c7c7c7"></rect><rect x="314.93" y="318.92" width="5.1" height="6.36" style="fill:#c7c7c7"></rect><rect x="321.4" y="178.58" width="5.1" height="6.36" transform="translate(647.89 363.52) rotate(180)" style="fill:#c7c7c7"></rect><rect x="147.83" y="164.19" width="37.58" height="175.5" style="fill:#ebebeb"></rect><rect x="146.93" y="160.35" width="38.48" height="3.84" style="fill:#c7c7c7"></rect><rect x="151.23" y="169.86" width="3.81" height="169.84" style="fill:#fff"></rect><rect x="157.97" y="169.86" width="3.81" height="169.84" style="fill:#fff"></rect><rect x="164.72" y="169.86" width="3.81" height="169.84" style="fill:#fff"></rect><rect x="171.46" y="169.86" width="3.81" height="169.84" style="fill:#fff"></rect><rect x="178.21" y="169.86" width="3.81" height="169.84" style="fill:#fff"></rect><rect x="151.23" y="174.71" width="3.81" height="7.58" style="fill:#ebebeb"></rect><rect x="157.97" y="174.71" width="3.81" height="7.58" style="fill:#ebebeb"></rect><rect x="164.72" y="174.71" width="3.81" height="7.58" style="fill:#ebebeb"></rect><rect x="171.46" y="174.71" width="3.81" height="7.58" style="fill:#ebebeb"></rect><rect x="178.21" y="174.71" width="3.81" height="7.58" style="fill:#ebebeb"></rect><rect x="151.23" y="187.04" width="3.81" height="7.59" style="fill:#ebebeb"></rect><rect x="157.97" y="187.04" width="3.81" height="7.59" style="fill:#ebebeb"></rect><rect x="164.72" y="187.04" width="3.81" height="7.59" style="fill:#ebebeb"></rect><rect x="171.46" y="187.04" width="3.81" height="7.59" style="fill:#ebebeb"></rect><rect x="178.21" y="187.04" width="3.81" height="7.59" style="fill:#ebebeb"></rect><rect x="151.23" y="199.37" width="3.81" height="7.58" style="fill:#ebebeb"></rect><rect x="157.97" y="199.37" width="3.81" height="7.58" style="fill:#ebebeb"></rect><rect x="164.72" y="199.37" width="3.81" height="7.58" style="fill:#ebebeb"></rect><rect x="171.46" y="199.37" width="3.81" height="7.58" style="fill:#ebebeb"></rect><rect x="178.21" y="199.37" width="3.81" height="7.58" style="fill:#ebebeb"></rect><rect x="151.23" y="211.69" width="3.81" height="7.59" style="fill:#ebebeb"></rect><rect x="157.97" y="211.69" width="3.81" height="7.59" style="fill:#ebebeb"></rect><rect x="164.72" y="211.69" width="3.81" height="7.59" style="fill:#ebebeb"></rect><rect x="171.46" y="211.69" width="3.81" height="7.59" style="fill:#ebebeb"></rect><rect x="178.21" y="211.69" width="3.81" height="7.59" style="fill:#ebebeb"></rect><rect x="151.23" y="224.02" width="3.81" height="7.59" style="fill:#ebebeb"></rect><rect x="157.97" y="224.02" width="3.81" height="7.59" style="fill:#ebebeb"></rect><rect x="164.72" y="224.02" width="3.81" height="7.59" style="fill:#ebebeb"></rect><rect x="171.46" y="224.02" width="3.81" height="7.59" style="fill:#ebebeb"></rect><rect x="178.21" y="224.02" width="3.81" height="7.59" style="fill:#ebebeb"></rect><rect x="151.23" y="236.35" width="3.81" height="7.59" style="fill:#ebebeb"></rect><rect x="157.97" y="236.35" width="3.81" height="7.59" style="fill:#ebebeb"></rect><rect x="164.72" y="236.35" width="3.81" height="7.59" style="fill:#ebebeb"></rect><rect x="171.46" y="236.35" width="3.81" height="7.59" style="fill:#ebebeb"></rect><rect x="178.21" y="236.35" width="3.81" height="7.59" style="fill:#ebebeb"></rect><rect x="151.23" y="248.68" width="3.81" height="7.59" style="fill:#ebebeb"></rect><rect x="157.97" y="248.68" width="3.81" height="7.59" style="fill:#ebebeb"></rect><rect x="164.72" y="248.68" width="3.81" height="7.59" style="fill:#ebebeb"></rect><rect x="171.46" y="248.68" width="3.81" height="7.59" style="fill:#ebebeb"></rect><rect x="178.21" y="248.68" width="3.81" height="7.59" style="fill:#ebebeb"></rect><rect x="151.23" y="261" width="3.81" height="7.59" style="fill:#ebebeb"></rect><rect x="157.97" y="261" width="3.81" height="7.59" style="fill:#ebebeb"></rect><rect x="164.72" y="261" width="3.81" height="7.59" style="fill:#ebebeb"></rect><rect x="171.46" y="261" width="3.81" height="7.59" style="fill:#ebebeb"></rect><rect x="178.21" y="261" width="3.81" height="7.59" style="fill:#ebebeb"></rect><rect x="151.23" y="273.33" width="3.81" height="7.58" style="fill:#ebebeb"></rect><rect x="157.97" y="273.33" width="3.81" height="7.58" style="fill:#ebebeb"></rect><rect x="164.72" y="273.33" width="3.81" height="7.58" style="fill:#ebebeb"></rect><rect x="171.46" y="273.33" width="3.81" height="7.58" style="fill:#ebebeb"></rect><rect x="178.21" y="273.33" width="3.81" height="7.58" style="fill:#ebebeb"></rect><rect x="151.23" y="285.66" width="3.81" height="7.58" style="fill:#ebebeb"></rect><rect x="157.97" y="285.66" width="3.81" height="7.58" style="fill:#ebebeb"></rect><rect x="164.72" y="285.66" width="3.81" height="7.58" style="fill:#ebebeb"></rect><rect x="171.46" y="285.66" width="3.81" height="7.58" style="fill:#ebebeb"></rect><rect x="178.21" y="285.66" width="3.81" height="7.58" style="fill:#ebebeb"></rect><rect x="151.23" y="297.99" width="3.81" height="7.58" style="fill:#ebebeb"></rect><rect x="157.97" y="297.99" width="3.81" height="7.58" style="fill:#ebebeb"></rect><rect x="164.72" y="297.99" width="3.81" height="7.58" style="fill:#ebebeb"></rect><rect x="171.46" y="297.99" width="3.81" height="7.58" style="fill:#ebebeb"></rect><rect x="178.21" y="297.99" width="3.81" height="7.58" style="fill:#ebebeb"></rect><rect x="151.23" y="310.31" width="3.81" height="7.58" style="fill:#ebebeb"></rect><rect x="157.97" y="310.31" width="3.81" height="7.58" style="fill:#ebebeb"></rect><rect x="164.72" y="310.31" width="3.81" height="7.58" style="fill:#ebebeb"></rect><rect x="171.46" y="310.31" width="3.81" height="7.58" style="fill:#ebebeb"></rect><rect x="178.21" y="310.31" width="3.81" height="7.58" style="fill:#ebebeb"></rect><rect x="151.23" y="322.64" width="3.81" height="7.58" style="fill:#ebebeb"></rect><rect x="157.97" y="322.64" width="3.81" height="7.58" style="fill:#ebebeb"></rect><rect x="164.72" y="322.64" width="3.81" height="7.58" style="fill:#ebebeb"></rect><rect x="171.46" y="322.64" width="3.81" height="7.58" style="fill:#ebebeb"></rect><rect x="178.21" y="322.64" width="3.81" height="7.58" style="fill:#ebebeb"></rect><rect x="151.23" y="334.97" width="3.81" height="4.73" style="fill:#ebebeb"></rect><rect x="157.97" y="334.97" width="3.81" height="4.73" style="fill:#ebebeb"></rect><rect x="164.72" y="334.97" width="3.81" height="4.73" style="fill:#ebebeb"></rect><rect x="171.46" y="334.97" width="3.81" height="4.73" style="fill:#ebebeb"></rect><rect x="178.21" y="334.97" width="3.81" height="4.73" style="fill:#ebebeb"></rect><rect x="185.41" y="164.19" width="24.13" height="175.5" style="fill:#dbdbdb"></rect><rect x="185.41" y="160.35" width="25.17" height="3.84" style="fill:#c7c7c7"></rect><rect x="188.81" y="169.86" width="3.81" height="169.84" style="fill:#c7c7c7"></rect><rect x="195.55" y="169.86" width="3.81" height="169.84" style="fill:#c7c7c7"></rect><rect x="202.3" y="169.86" width="3.81" height="169.84" style="fill:#c7c7c7"></rect><rect x="188.81" y="174.71" width="3.81" height="7.58" style="fill:#dbdbdb"></rect><rect x="195.55" y="174.71" width="3.81" height="7.58" style="fill:#dbdbdb"></rect><rect x="202.3" y="174.71" width="3.81" height="7.58" style="fill:#dbdbdb"></rect><rect x="188.81" y="187.04" width="3.81" height="7.59" style="fill:#dbdbdb"></rect><rect x="195.55" y="187.04" width="3.81" height="7.59" style="fill:#dbdbdb"></rect><rect x="202.3" y="187.04" width="3.81" height="7.59" style="fill:#dbdbdb"></rect><rect x="188.81" y="199.37" width="3.81" height="7.58" style="fill:#dbdbdb"></rect><rect x="195.55" y="199.37" width="3.81" height="7.58" style="fill:#dbdbdb"></rect><rect x="202.3" y="199.37" width="3.81" height="7.58" style="fill:#dbdbdb"></rect><rect x="188.81" y="211.69" width="3.81" height="7.59" style="fill:#dbdbdb"></rect><rect x="195.55" y="211.69" width="3.81" height="7.59" style="fill:#dbdbdb"></rect><rect x="202.3" y="211.69" width="3.81" height="7.59" style="fill:#dbdbdb"></rect><rect x="188.81" y="224.02" width="3.81" height="7.59" style="fill:#dbdbdb"></rect><rect x="195.55" y="224.02" width="3.81" height="7.59" style="fill:#dbdbdb"></rect><rect x="202.3" y="224.02" width="3.81" height="7.59" style="fill:#dbdbdb"></rect><rect x="188.81" y="236.35" width="3.81" height="7.59" style="fill:#dbdbdb"></rect><rect x="195.55" y="236.35" width="3.81" height="7.59" style="fill:#dbdbdb"></rect><rect x="202.3" y="236.35" width="3.81" height="7.59" style="fill:#dbdbdb"></rect><rect x="188.81" y="248.68" width="3.81" height="7.59" style="fill:#dbdbdb"></rect><rect x="195.55" y="248.68" width="3.81" height="7.59" style="fill:#dbdbdb"></rect><rect x="202.3" y="248.68" width="3.81" height="7.59" style="fill:#dbdbdb"></rect><rect x="188.81" y="261" width="3.81" height="7.59" style="fill:#dbdbdb"></rect><rect x="195.55" y="261" width="3.81" height="7.59" style="fill:#dbdbdb"></rect><rect x="202.3" y="261" width="3.81" height="7.59" style="fill:#dbdbdb"></rect><rect x="188.81" y="273.33" width="3.81" height="7.58" style="fill:#dbdbdb"></rect><rect x="195.55" y="273.33" width="3.81" height="7.58" style="fill:#dbdbdb"></rect><rect x="202.3" y="273.33" width="3.81" height="7.58" style="fill:#dbdbdb"></rect><rect x="188.81" y="285.66" width="3.81" height="7.58" style="fill:#dbdbdb"></rect><rect x="195.55" y="285.66" width="3.81" height="7.58" style="fill:#dbdbdb"></rect><rect x="202.3" y="285.66" width="3.81" height="7.58" style="fill:#dbdbdb"></rect><rect x="188.81" y="297.99" width="3.81" height="7.58" style="fill:#dbdbdb"></rect><rect x="195.55" y="297.99" width="3.81" height="7.58" style="fill:#dbdbdb"></rect><rect x="202.3" y="297.99" width="3.81" height="7.58" style="fill:#dbdbdb"></rect><rect x="188.81" y="310.31" width="3.81" height="7.58" style="fill:#dbdbdb"></rect><rect x="195.55" y="310.31" width="3.81" height="7.58" style="fill:#dbdbdb"></rect><rect x="202.3" y="310.31" width="3.81" height="7.58" style="fill:#dbdbdb"></rect><rect x="188.81" y="322.64" width="3.81" height="7.58" style="fill:#dbdbdb"></rect><rect x="195.55" y="322.64" width="3.81" height="7.58" style="fill:#dbdbdb"></rect><rect x="202.3" y="322.64" width="3.81" height="7.58" style="fill:#dbdbdb"></rect><rect x="188.81" y="334.97" width="3.81" height="4.73" style="fill:#dbdbdb"></rect><rect x="195.55" y="334.97" width="3.81" height="4.73" style="fill:#dbdbdb"></rect><rect x="202.3" y="334.97" width="3.81" height="4.73" style="fill:#dbdbdb"></rect><rect x="55.81" y="228.69" width="37.42" height="111" style="fill:#ebebeb"></rect><rect x="61.14" y="219.28" width="32.1" height="9.41" style="fill:#c7c7c7"></rect><rect x="59.92" y="233.6" width="29.21" height="106.09" style="fill:#dbdbdb"></rect><rect x="59.92" y="243.73" width="29.21" height="2.51" style="fill:#fff"></rect><rect x="59.92" y="254.11" width="29.21" height="2.51" style="fill:#fff"></rect><rect x="59.92" y="264.5" width="29.21" height="2.51" style="fill:#fff"></rect><rect x="59.92" y="274.88" width="29.21" height="2.51" style="fill:#fff"></rect><rect x="59.92" y="285.27" width="29.21" height="2.51" style="fill:#fff"></rect><rect x="59.92" y="295.65" width="29.21" height="2.51" style="fill:#fff"></rect><rect x="59.92" y="306.04" width="29.21" height="2.51" style="fill:#fff"></rect><rect x="59.92" y="316.42" width="29.21" height="2.51" style="fill:#fff"></rect><rect x="59.92" y="326.81" width="29.21" height="2.51" style="fill:#fff"></rect><rect x="59.92" y="337.19" width="29.21" height="2.51" style="fill:#fff"></rect><rect x="93.23" y="228.69" width="23.44" height="111" style="fill:#dbdbdb"></rect><rect x="93.23" y="219.28" width="19.92" height="9.41" style="fill:#a6a6a6"></rect><rect x="96.47" y="233.6" width="18.02" height="106.09" style="fill:#c7c7c7"></rect><rect x="96.47" y="243.73" width="18.02" height="2.51" style="fill:#fff"></rect><rect x="96.47" y="254.11" width="18.02" height="2.51" style="fill:#fff"></rect><rect x="96.47" y="264.5" width="18.02" height="2.51" style="fill:#fff"></rect><rect x="96.47" y="274.88" width="18.02" height="2.51" style="fill:#fff"></rect><rect x="96.47" y="285.27" width="18.02" height="2.51" style="fill:#fff"></rect><rect x="96.47" y="295.65" width="18.02" height="2.51" style="fill:#fff"></rect><rect x="96.47" y="306.04" width="18.02" height="2.51" style="fill:#fff"></rect><rect x="96.47" y="316.42" width="18.02" height="2.51" style="fill:#fff"></rect><rect x="96.47" y="326.81" width="18.02" height="2.51" style="fill:#fff"></rect><rect x="96.47" y="337.19" width="18.02" height="2.51" style="fill:#fff"></rect><rect x="339.23" y="274.71" width="28.93" height="64.98" style="fill:#dbdbdb"></rect><rect x="343.77" y="280.34" width="5.12" height="3.98" style="fill:#c7c7c7"></rect><rect x="343.77" y="288.84" width="5.12" height="3.98" style="fill:#c7c7c7"></rect><rect x="343.77" y="297.34" width="5.12" height="3.98" style="fill:#c7c7c7"></rect><rect x="343.77" y="305.85" width="5.12" height="3.98" style="fill:#c7c7c7"></rect><rect x="343.77" y="314.35" width="5.12" height="3.98" style="fill:#c7c7c7"></rect><rect x="343.77" y="322.86" width="5.12" height="3.98" style="fill:#c7c7c7"></rect><rect x="343.77" y="331.36" width="5.12" height="3.98" style="fill:#c7c7c7"></rect><rect x="351.14" y="280.34" width="5.12" height="3.98" style="fill:#c7c7c7"></rect><rect x="351.14" y="288.84" width="5.12" height="3.98" style="fill:#c7c7c7"></rect><rect x="351.14" y="297.34" width="5.12" height="3.98" style="fill:#c7c7c7"></rect><rect x="351.14" y="305.85" width="5.12" height="3.98" style="fill:#c7c7c7"></rect><rect x="351.14" y="314.35" width="5.12" height="3.98" style="fill:#c7c7c7"></rect><rect x="351.14" y="322.86" width="5.12" height="3.98" style="fill:#c7c7c7"></rect><rect x="351.14" y="331.36" width="5.12" height="3.98" style="fill:#c7c7c7"></rect><rect x="358.49" y="280.34" width="5.12" height="3.98" style="fill:#c7c7c7"></rect><rect x="358.49" y="288.84" width="5.12" height="3.98" style="fill:#c7c7c7"></rect><rect x="358.49" y="297.34" width="5.12" height="3.98" style="fill:#c7c7c7"></rect><rect x="358.49" y="305.85" width="5.12" height="3.98" style="fill:#c7c7c7"></rect><rect x="358.49" y="314.35" width="5.12" height="3.98" style="fill:#c7c7c7"></rect><rect x="358.49" y="322.86" width="5.12" height="3.98" style="fill:#c7c7c7"></rect><rect x="358.49" y="331.36" width="5.12" height="3.98" style="fill:#c7c7c7"></rect><rect x="368.15" y="274.71" width="20.3" height="64.98" style="fill:#a6a6a6"></rect><rect x="382.2" y="330.73" width="4.17" height="3.98" transform="translate(768.58 665.43) rotate(180)" style="fill:#c7c7c7"></rect><rect x="382.2" y="322.22" width="4.17" height="3.98" transform="translate(768.58 648.42) rotate(180)" style="fill:#c7c7c7"></rect><rect x="382.2" y="313.72" width="4.17" height="3.98" transform="translate(768.58 631.42) rotate(180)" style="fill:#c7c7c7"></rect><rect x="382.2" y="305.21" width="4.17" height="3.98" transform="translate(768.58 614.41) rotate(180)" style="fill:#c7c7c7"></rect><rect x="382.2" y="296.71" width="4.17" height="3.98" transform="translate(768.58 597.4) rotate(180)" style="fill:#c7c7c7"></rect><rect x="382.2" y="288.21" width="4.17" height="3.98" transform="translate(768.58 580.39) rotate(180)" style="fill:#c7c7c7"></rect><rect x="382.2" y="279.7" width="4.17" height="3.98" transform="translate(768.58 563.39) rotate(180)" style="fill:#c7c7c7"></rect><rect x="376.21" y="330.73" width="4.17" height="3.98" transform="translate(756.59 665.43) rotate(180)" style="fill:#c7c7c7"></rect><rect x="376.21" y="322.22" width="4.17" height="3.98" transform="translate(756.59 648.42) rotate(180)" style="fill:#c7c7c7"></rect><rect x="376.21" y="313.72" width="4.17" height="3.98" transform="translate(756.59 631.42) rotate(180)" style="fill:#c7c7c7"></rect><rect x="376.21" y="305.21" width="4.17" height="3.98" transform="translate(756.59 614.41) rotate(180)" style="fill:#c7c7c7"></rect><rect x="376.21" y="296.71" width="4.17" height="3.98" transform="translate(756.59 597.4) rotate(180)" style="fill:#c7c7c7"></rect><rect x="376.21" y="288.21" width="4.17" height="3.98" transform="translate(756.59 580.39) rotate(180)" style="fill:#c7c7c7"></rect><rect x="376.21" y="279.7" width="4.17" height="3.98" transform="translate(756.59 563.39) rotate(180)" style="fill:#c7c7c7"></rect><rect x="370.23" y="330.73" width="4.17" height="3.98" transform="translate(744.63 665.43) rotate(180)" style="fill:#c7c7c7"></rect><rect x="370.23" y="322.22" width="4.17" height="3.98" transform="translate(744.63 648.42) rotate(180)" style="fill:#c7c7c7"></rect><rect x="370.23" y="313.72" width="4.17" height="3.98" transform="translate(744.63 631.42) rotate(180)" style="fill:#c7c7c7"></rect><rect x="370.23" y="305.21" width="4.17" height="3.98" transform="translate(744.63 614.41) rotate(180)" style="fill:#c7c7c7"></rect><rect x="370.23" y="296.71" width="4.17" height="3.98" transform="translate(744.63 597.4) rotate(180)" style="fill:#c7c7c7"></rect><rect x="370.23" y="288.21" width="4.17" height="3.98" transform="translate(744.63 580.39) rotate(180)" style="fill:#c7c7c7"></rect><rect x="370.23" y="279.7" width="4.17" height="3.98" transform="translate(744.63 563.39) rotate(180)" style="fill:#c7c7c7"></rect><rect x="393.35" y="200.17" width="19.99" height="23.61" style="fill:#dbdbdb"></rect><rect x="413.33" y="200.17" width="12.67" height="24.47" style="fill:#c7c7c7"></rect><rect x="414.27" y="210.6" width="12.58" height="14.05" style="fill:#dbdbdb"></rect><rect x="426.85" y="210.6" width="7.84" height="14.05" style="fill:#c7c7c7"></rect><rect x="385.68" y="222.25" width="32.32" height="117.45" style="fill:#ebebeb"></rect><rect x="389.38" y="227.3" width="10.16" height="4.15" style="fill:#fff"></rect><rect x="402.38" y="227.3" width="10.16" height="4.15" style="fill:#fff"></rect><rect x="389.38" y="234.35" width="10.16" height="4.15" style="fill:#fff"></rect><rect x="402.38" y="234.35" width="10.16" height="4.15" style="fill:#fff"></rect><rect x="389.38" y="241.4" width="10.16" height="4.15" style="fill:#fff"></rect><rect x="402.38" y="241.4" width="10.16" height="4.15" style="fill:#fff"></rect><rect x="389.38" y="248.44" width="10.16" height="4.15" style="fill:#fff"></rect><rect x="402.38" y="248.44" width="10.16" height="4.15" style="fill:#fff"></rect><rect x="389.38" y="255.49" width="10.16" height="4.15" style="fill:#fff"></rect><rect x="402.38" y="255.49" width="10.16" height="4.15" style="fill:#fff"></rect><rect x="389.38" y="262.54" width="10.16" height="4.15" style="fill:#fff"></rect><rect x="402.38" y="262.54" width="10.16" height="4.15" style="fill:#fff"></rect><rect x="389.38" y="269.59" width="10.16" height="4.15" style="fill:#fff"></rect><rect x="402.38" y="269.59" width="10.16" height="4.15" style="fill:#fff"></rect><rect x="389.38" y="276.64" width="10.16" height="4.15" style="fill:#fff"></rect><rect x="402.38" y="276.64" width="10.16" height="4.15" style="fill:#fff"></rect><rect x="389.38" y="283.69" width="10.16" height="4.15" style="fill:#fff"></rect><rect x="402.38" y="283.69" width="10.16" height="4.15" style="fill:#fff"></rect><rect x="389.38" y="290.74" width="10.16" height="4.15" style="fill:#fff"></rect><rect x="402.38" y="290.74" width="10.16" height="4.15" style="fill:#fff"></rect><rect x="389.38" y="297.79" width="10.16" height="4.15" style="fill:#fff"></rect><rect x="402.38" y="297.79" width="10.16" height="4.15" style="fill:#fff"></rect><rect x="389.38" y="304.84" width="10.16" height="4.15" style="fill:#fff"></rect><rect x="402.38" y="304.84" width="10.16" height="4.15" style="fill:#fff"></rect><rect x="389.38" y="311.89" width="10.16" height="4.15" style="fill:#fff"></rect><rect x="402.38" y="311.89" width="10.16" height="4.15" style="fill:#fff"></rect><rect x="389.38" y="318.94" width="10.16" height="4.15" style="fill:#fff"></rect><rect x="402.38" y="318.94" width="10.16" height="4.15" style="fill:#fff"></rect><rect x="418" y="222.25" width="26.19" height="117.45" style="fill:#c7c7c7"></rect><rect x="433.22" y="318.94" width="8.34" height="4.15" transform="translate(874.78 642.04) rotate(180)" style="fill:#ebebeb"></rect><rect x="422.54" y="318.94" width="8.34" height="4.15" transform="translate(853.43 642.04) rotate(180)" style="fill:#ebebeb"></rect><rect x="433.22" y="311.89" width="8.34" height="4.15" transform="translate(874.78 627.94) rotate(180)" style="fill:#ebebeb"></rect><rect x="422.54" y="311.89" width="8.34" height="4.15" transform="translate(853.43 627.94) rotate(180)" style="fill:#ebebeb"></rect><rect x="433.22" y="304.84" width="8.34" height="4.15" transform="translate(874.78 613.84) rotate(180)" style="fill:#ebebeb"></rect><rect x="422.54" y="304.84" width="8.34" height="4.15" transform="translate(853.43 613.84) rotate(180)" style="fill:#ebebeb"></rect><rect x="433.22" y="297.79" width="8.34" height="4.15" transform="translate(874.78 599.74) rotate(180)" style="fill:#ebebeb"></rect><rect x="422.54" y="297.79" width="8.34" height="4.15" transform="translate(853.43 599.74) rotate(180)" style="fill:#ebebeb"></rect><rect x="433.22" y="290.74" width="8.34" height="4.15" transform="translate(874.78 585.64) rotate(180)" style="fill:#ebebeb"></rect><rect x="422.54" y="290.74" width="8.34" height="4.15" transform="translate(853.43 585.64) rotate(180)" style="fill:#ebebeb"></rect><rect x="433.22" y="283.69" width="8.34" height="4.15" transform="translate(874.78 571.54) rotate(180)" style="fill:#ebebeb"></rect><rect x="422.54" y="283.69" width="8.34" height="4.15" transform="translate(853.43 571.54) rotate(180)" style="fill:#ebebeb"></rect><rect x="433.22" y="276.64" width="8.34" height="4.15" transform="translate(874.78 557.44) rotate(180)" style="fill:#ebebeb"></rect><rect x="422.54" y="276.64" width="8.34" height="4.15" transform="translate(853.43 557.44) rotate(180)" style="fill:#ebebeb"></rect><rect x="433.22" y="269.59" width="8.34" height="4.15" transform="translate(874.78 543.34) rotate(180)" style="fill:#ebebeb"></rect><rect x="422.54" y="269.59" width="8.34" height="4.15" transform="translate(853.43 543.34) rotate(180)" style="fill:#ebebeb"></rect><rect x="433.22" y="262.54" width="8.34" height="4.15" transform="translate(874.78 529.24) rotate(180)" style="fill:#ebebeb"></rect><rect x="422.54" y="262.54" width="8.34" height="4.15" transform="translate(853.43 529.24) rotate(180)" style="fill:#ebebeb"></rect><rect x="433.22" y="255.49" width="8.34" height="4.15" transform="translate(874.78 515.14) rotate(180)" style="fill:#ebebeb"></rect><rect x="422.54" y="255.49" width="8.34" height="4.15" transform="translate(853.43 515.14) rotate(180)" style="fill:#ebebeb"></rect><rect x="433.22" y="248.44" width="8.34" height="4.15" transform="translate(874.78 501.04) rotate(180)" style="fill:#ebebeb"></rect><rect x="422.54" y="248.44" width="8.34" height="4.15" transform="translate(853.43 501.04) rotate(180)" style="fill:#ebebeb"></rect><rect x="433.22" y="241.4" width="8.34" height="4.15" transform="translate(874.78 486.94) rotate(180)" style="fill:#ebebeb"></rect><rect x="422.54" y="241.4" width="8.34" height="4.15" transform="translate(853.43 486.94) rotate(180)" style="fill:#ebebeb"></rect><rect x="433.22" y="234.35" width="8.34" height="4.15" transform="translate(874.78 472.84) rotate(180)" style="fill:#ebebeb"></rect><rect x="422.54" y="234.35" width="8.34" height="4.15" transform="translate(853.43 472.84) rotate(180)" style="fill:#ebebeb"></rect><rect x="433.22" y="227.3" width="8.34" height="4.15" transform="translate(874.78 458.74) rotate(180)" style="fill:#ebebeb"></rect><rect x="422.54" y="227.3" width="8.34" height="4.15" transform="translate(853.43 458.74) rotate(180)" style="fill:#ebebeb"></rect><rect x="108" y="263.16" width="38.12" height="76.53" style="fill:#c7c7c7"></rect><rect x="113.99" y="269.79" width="6.75" height="4.69" style="fill:#dbdbdb"></rect><rect x="113.99" y="279.8" width="6.75" height="4.69" style="fill:#dbdbdb"></rect><rect x="113.99" y="289.82" width="6.75" height="4.69" style="fill:#dbdbdb"></rect><rect x="113.99" y="299.83" width="6.75" height="4.69" style="fill:#dbdbdb"></rect><rect x="113.99" y="309.85" width="6.75" height="4.69" style="fill:#dbdbdb"></rect><rect x="113.99" y="319.86" width="6.75" height="4.69" style="fill:#dbdbdb"></rect><rect x="113.99" y="329.88" width="6.75" height="4.69" style="fill:#dbdbdb"></rect><rect x="123.7" y="269.79" width="6.75" height="4.69" style="fill:#dbdbdb"></rect><rect x="123.7" y="279.8" width="6.75" height="4.69" style="fill:#dbdbdb"></rect><rect x="123.7" y="289.82" width="6.75" height="4.69" style="fill:#dbdbdb"></rect><rect x="123.7" y="299.83" width="6.75" height="4.69" style="fill:#dbdbdb"></rect><rect x="123.7" y="309.85" width="6.75" height="4.69" style="fill:#dbdbdb"></rect><rect x="123.7" y="319.86" width="6.75" height="4.69" style="fill:#dbdbdb"></rect><rect x="123.7" y="329.88" width="6.75" height="4.69" style="fill:#dbdbdb"></rect><rect x="133.38" y="269.79" width="6.75" height="4.69" style="fill:#dbdbdb"></rect><rect x="133.38" y="279.8" width="6.75" height="4.69" style="fill:#dbdbdb"></rect><rect x="133.38" y="289.82" width="6.75" height="4.69" style="fill:#dbdbdb"></rect><rect x="133.38" y="299.83" width="6.75" height="4.69" style="fill:#dbdbdb"></rect><rect x="133.38" y="309.85" width="6.75" height="4.69" style="fill:#dbdbdb"></rect><rect x="133.38" y="319.86" width="6.75" height="4.69" style="fill:#dbdbdb"></rect><rect x="133.38" y="329.88" width="6.75" height="4.69" style="fill:#dbdbdb"></rect><rect x="120.74" y="255.19" width="25.38" height="7.97" style="fill:#dbdbdb"></rect><rect x="130.03" y="250.25" width="16.09" height="4.94" style="fill:#ebebeb"></rect><rect x="146.12" y="263.16" width="26.74" height="76.53" style="fill:#a6a6a6"></rect><rect x="164.63" y="329.13" width="5.49" height="4.69" transform="translate(334.76 662.95) rotate(180)" style="fill:#c7c7c7"></rect><rect x="164.63" y="319.12" width="5.49" height="4.69" transform="translate(334.76 642.92) rotate(180)" style="fill:#c7c7c7"></rect><rect x="164.63" y="309.1" width="5.49" height="4.69" transform="translate(334.76 622.89) rotate(180)" style="fill:#c7c7c7"></rect><rect x="164.63" y="299.09" width="5.49" height="4.69" transform="translate(334.76 602.86) rotate(180)" style="fill:#c7c7c7"></rect><rect x="164.63" y="289.07" width="5.49" height="4.69" transform="translate(334.76 582.83) rotate(180)" style="fill:#c7c7c7"></rect><rect x="164.63" y="279.06" width="5.49" height="4.69" transform="translate(334.76 562.8) rotate(180)" style="fill:#c7c7c7"></rect><rect x="164.63" y="269.04" width="5.49" height="4.69" transform="translate(334.76 542.77) rotate(180)" style="fill:#c7c7c7"></rect><rect x="156.73" y="329.13" width="5.49" height="4.69" transform="translate(318.96 662.95) rotate(180)" style="fill:#c7c7c7"></rect><rect x="156.73" y="319.12" width="5.49" height="4.69" transform="translate(318.96 642.92) rotate(180)" style="fill:#c7c7c7"></rect><rect x="156.73" y="309.1" width="5.49" height="4.69" transform="translate(318.96 622.89) rotate(180)" style="fill:#c7c7c7"></rect><rect x="156.73" y="299.09" width="5.49" height="4.69" transform="translate(318.96 602.86) rotate(180)" style="fill:#c7c7c7"></rect><rect x="156.73" y="289.07" width="5.49" height="4.69" transform="translate(318.96 582.83) rotate(180)" style="fill:#c7c7c7"></rect><rect x="156.73" y="279.06" width="5.49" height="4.69" transform="translate(318.96 562.8) rotate(180)" style="fill:#c7c7c7"></rect><rect x="156.73" y="269.04" width="5.49" height="4.69" transform="translate(318.96 542.77) rotate(180)" style="fill:#c7c7c7"></rect><rect x="148.85" y="329.13" width="5.49" height="4.69" transform="translate(303.2 662.95) rotate(180)" style="fill:#c7c7c7"></rect><rect x="148.85" y="319.12" width="5.49" height="4.69" transform="translate(303.2 642.92) rotate(180)" style="fill:#c7c7c7"></rect><rect x="148.85" y="309.1" width="5.49" height="4.69" transform="translate(303.2 622.89) rotate(180)" style="fill:#c7c7c7"></rect><rect x="148.85" y="299.09" width="5.49" height="4.69" transform="translate(303.2 602.86) rotate(180)" style="fill:#c7c7c7"></rect><rect x="148.85" y="289.07" width="5.49" height="4.69" transform="translate(303.2 582.83) rotate(180)" style="fill:#c7c7c7"></rect><rect x="148.85" y="279.06" width="5.49" height="4.69" transform="translate(303.2 562.8) rotate(180)" style="fill:#c7c7c7"></rect><rect x="148.85" y="269.04" width="5.49" height="4.69" transform="translate(303.2 542.77) rotate(180)" style="fill:#c7c7c7"></rect><rect x="146.12" y="255.19" width="22.69" height="7.97" style="fill:#c7c7c7"></rect><rect x="146.12" y="250.25" width="12.3" height="4.94" style="fill:#dbdbdb"></rect></g><g id="freepik--Shadow--inject-396"><ellipse cx="247.43" cy="450.66" rx="157.9" ry="12.15" style="fill:#ebebeb"></ellipse></g><g id="freepik--Floor--inject-396"><rect x="37.86" y="339.7" width="424.28" height="6.8" style="fill:#c7c7c7"></rect><path d="M67.6,339.7a11.59,11.59,0,0,1,0,6.8,10.27,10.27,0,0,1-.5-3.4A10.78,10.78,0,0,1,67.6,339.7Z" style="fill:#263238"></path><path d="M100.77,339.7a10.78,10.78,0,0,1,.5,3.4,10.27,10.27,0,0,1-.5,3.4,11.59,11.59,0,0,1,0-6.8Z" style="fill:#263238"></path><path d="M133.93,339.7a11.81,11.81,0,0,1,0,6.8,11.81,11.81,0,0,1,0-6.8Z" style="fill:#263238"></path><path d="M167.09,339.7a11.59,11.59,0,0,1,0,6.8,10.27,10.27,0,0,1-.5-3.4A10.5,10.5,0,0,1,167.09,339.7Z" style="fill:#263238"></path><path d="M200.26,339.7a10.78,10.78,0,0,1,.5,3.4,10.27,10.27,0,0,1-.5,3.4,11.59,11.59,0,0,1,0-6.8Z" style="fill:#263238"></path><path d="M233.42,339.7a11.81,11.81,0,0,1,0,6.8,11.59,11.59,0,0,1,0-6.8Z" style="fill:#263238"></path><path d="M266.58,339.7a11.59,11.59,0,0,1,0,6.8,11.81,11.81,0,0,1,0-6.8Z" style="fill:#263238"></path><path d="M299.74,339.7a11.59,11.59,0,0,1,0,6.8,10.27,10.27,0,0,1-.5-3.4A10.78,10.78,0,0,1,299.74,339.7Z" style="fill:#263238"></path><path d="M332.91,339.7a10.5,10.5,0,0,1,.5,3.4,10.27,10.27,0,0,1-.5,3.4,11.59,11.59,0,0,1,0-6.8Z" style="fill:#263238"></path><path d="M366.07,339.7a11.81,11.81,0,0,1,0,6.8,11.81,11.81,0,0,1,0-6.8Z" style="fill:#263238"></path><path d="M399.23,339.7a11.59,11.59,0,0,1,0,6.8,10.27,10.27,0,0,1-.5-3.4A10.5,10.5,0,0,1,399.23,339.7Z" style="fill:#263238"></path><path d="M432.4,339.7a10.78,10.78,0,0,1,.5,3.4,10.27,10.27,0,0,1-.5,3.4,11.59,11.59,0,0,1,0-6.8Z" style="fill:#263238"></path><polygon points="32.13 346.5 86.6 346.26 141.06 346.17 250 346 358.94 346.17 413.4 346.26 467.87 346.5 413.4 346.75 358.94 346.83 250 347 141.06 346.83 86.6 346.74 32.13 346.5" style="fill:#263238"></polygon></g><g id="freepik--Trees--inject-396"><path d="M76.52,259s21.84,48.49-13.8,48.53-12.6-50.16-12.6-50.16-8.25-3.62,1.29-30.69,13.81-27.08,17.79-27.08c5,0,9.71,11.71,6.3,29.69C75.5,229.3,88.07,251.73,76.52,259Z" style="fill:#37474f"></path><polygon points="59.59 339.71 62.95 266.63 66.46 339.71 59.59 339.71" style="fill:#263238"></polygon><polygon points="61.58 297.27 74.52 282.12 64.38 299.27 61.58 297.27" style="fill:#263238"></polygon><path d="M422.9,264.22s-10.17-4-18.22,10c-8.26,14.41,2.12,23.88,10.34,18.22,0,0,6.47,13.55,19.38,10.31s15-13.57,15-13.57,11.45.79,11.77-7.76-8.09-16.12-8.09-16.12-.51-21.3-14.38-21.12S422.9,264.22,422.9,264.22Z" style="fill:#455a64"></path><polygon points="432.42 339.68 435.25 276.31 438.23 339.67 432.42 339.68" style="fill:#263238"></polygon><polygon points="434.42 300.12 425.49 282.35 435.88 297.35 434.42 300.12" style="fill:#263238"></polygon><path d="M124.36,264.22s-10.16-4-18.22,10c-8.25,14.41,2.13,23.88,10.35,18.22,0,0,6.47,13.55,19.37,10.31s15-13.57,15-13.57,11.46.79,11.77-7.76-8.08-16.12-8.08-16.12S154,244,140.15,244.2,124.36,264.22,124.36,264.22Z" style="fill:#455a64"></path><polygon points="133.89 339.68 136.72 276.31 139.69 339.67 133.89 339.68" style="fill:#263238"></polygon><polygon points="135.88 300.12 126.96 282.35 137.35 297.35 135.88 300.12" style="fill:#263238"></polygon><path d="M390.22,269s-19,42.52,12.19,42.48,10.94-43.95,10.94-43.95,7.22-3.19-1.19-26.88S400,216.94,396.53,216.94c-4.4,0-8.49,10.27-5.47,26C391.06,243,380.1,262.63,390.22,269Z" style="fill:#37474f"></path><polygon points="405.21 339.64 402.13 275.63 399.19 339.65 405.21 339.64" style="fill:#263238"></polygon><polygon points="403.38 302.47 392.02 289.23 400.94 304.22 403.38 302.47" style="fill:#263238"></polygon></g><g id="freepik--Benchs--inject-396"><rect x="105.75" y="301.97" width="2.17" height="19.22" style="fill:#263238"></rect><rect x="145.09" y="301.97" width="2.17" height="19.22" style="fill:#263238"></rect><rect x="100.07" y="303.72" width="52.87" height="2.84" style="fill:#FFA52E"></rect><rect x="100.07" y="303.72" width="52.87" height="2.84" style="opacity:0.2"></rect><rect x="100.07" y="308.09" width="52.87" height="2.84" style="fill:#FFA52E"></rect><rect x="100.07" y="308.09" width="52.87" height="2.84" style="opacity:0.2"></rect><rect x="100.07" y="312.47" width="52.87" height="2.84" style="fill:#FFA52E"></rect><rect x="100.07" y="312.47" width="52.87" height="2.84" style="opacity:0.2"></rect><rect x="100.07" y="316.85" width="52.87" height="2.84" style="fill:#FFA52E"></rect><rect x="100.07" y="316.85" width="52.87" height="2.84" style="opacity:0.2"></rect><rect x="95.41" y="321.19" width="62.93" height="4.23" style="fill:#FFA52E"></rect><rect x="95.41" y="321.19" width="62.93" height="4.23" style="opacity:0.2"></rect><rect x="98.94" y="325.42" width="2.17" height="14.31" style="fill:#263238"></rect><rect x="152.65" y="325.42" width="2.17" height="14.31" style="fill:#263238"></rect><g style="opacity:0.2"><path d="M107.1,305.14a.27.27,0,1,1-.27-.27A.27.27,0,0,1,107.1,305.14Z"></path><path d="M107.1,309.51a.27.27,0,1,1-.53,0,.27.27,0,0,1,.53,0Z"></path><circle cx="106.83" cy="313.89" r="0.27"></circle><path d="M107.1,318.27a.27.27,0,1,1-.27-.27A.27.27,0,0,1,107.1,318.27Z"></path><path d="M146.44,305.14a.27.27,0,1,1-.27-.27A.27.27,0,0,1,146.44,305.14Z"></path><path d="M146.44,309.51a.27.27,0,1,1-.27-.26A.27.27,0,0,1,146.44,309.51Z"></path><path d="M146.44,313.89a.27.27,0,1,1-.27-.27A.27.27,0,0,1,146.44,313.89Z"></path><path d="M146.44,318.27a.27.27,0,1,1-.27-.27A.27.27,0,0,1,146.44,318.27Z"></path></g><rect x="351.99" y="301.97" width="2.17" height="19.22" style="fill:#263238"></rect><rect x="391.32" y="301.97" width="2.17" height="19.22" style="fill:#263238"></rect><rect x="346.3" y="303.72" width="52.87" height="2.84" style="fill:#FFA52E"></rect><rect x="346.3" y="303.72" width="52.87" height="2.84" style="opacity:0.2"></rect><rect x="346.3" y="308.09" width="52.87" height="2.84" style="fill:#FFA52E"></rect><rect x="346.3" y="308.09" width="52.87" height="2.84" style="opacity:0.2"></rect><rect x="346.3" y="312.47" width="52.87" height="2.84" style="fill:#FFA52E"></rect><rect x="346.3" y="312.47" width="52.87" height="2.84" style="opacity:0.2"></rect><rect x="346.3" y="316.85" width="52.87" height="2.84" style="fill:#FFA52E"></rect><rect x="346.3" y="316.85" width="52.87" height="2.84" style="opacity:0.2"></rect><rect x="341.65" y="321.19" width="62.93" height="4.23" style="fill:#FFA52E"></rect><rect x="341.65" y="321.19" width="62.93" height="4.23" style="opacity:0.2"></rect><rect x="345.18" y="325.42" width="2.17" height="14.31" style="fill:#263238"></rect><rect x="398.89" y="325.42" width="2.17" height="14.31" style="fill:#263238"></rect><g style="opacity:0.2"><path d="M353.34,305.14a.27.27,0,1,1-.27-.27A.27.27,0,0,1,353.34,305.14Z"></path><path d="M353.34,309.51a.27.27,0,1,1-.27-.26A.27.27,0,0,1,353.34,309.51Z"></path><path d="M353.34,313.89a.27.27,0,1,1-.27-.27A.27.27,0,0,1,353.34,313.89Z"></path><path d="M353.34,318.27a.27.27,0,1,1-.27-.27A.27.27,0,0,1,353.34,318.27Z"></path><path d="M392.68,305.14a.27.27,0,1,1-.27-.27A.27.27,0,0,1,392.68,305.14Z"></path><path d="M392.68,309.51a.27.27,0,1,1-.27-.26A.27.27,0,0,1,392.68,309.51Z"></path><path d="M392.68,313.89a.27.27,0,1,1-.27-.27A.27.27,0,0,1,392.68,313.89Z"></path><path d="M392.68,318.27a.27.27,0,1,1-.27-.27A.27.27,0,0,1,392.68,318.27Z"></path></g></g><g id="freepik--Character--inject-396"><path d="M309.25,416.28c-2.15.7-65.78-.1-68.1-1.62-.89-.56,3.58-60.42,3.58-60.42l41.12.41-4.38,40.05s23.39,10.83,25.76,12.76S311.41,415.59,309.25,416.28Z" style="fill:#eb9481"></path><path d="M309.25,416.28c-2.15.7-65.78-.1-68.1-1.62-.41-.25.32-13.1,1.22-26.88h39.86l-.76,6.92s23.39,10.82,25.77,12.76S311.41,415.59,309.25,416.28Z" style="fill:#fff"></path><path d="M310,417.15c-2.27.75-66.51.14-69-1.45-1-.59.41-21.78.41-21.89h39.75l0,.7s24.7,11.33,27.21,13.36S312.22,416.42,310,417.15Z" style="fill:#FFA52E"></path><path d="M309.78,414.64c-10.92-.37-55-.84-65.81-.37-.09,0-.09.06,0,.07,10.81.6,54.89.7,65.81.47C310,414.81,310,414.64,309.78,414.64Z" style="fill:#263238"></path><path d="M285.08,395.05c-4.29-.84-9.56-.23-12.87,2.8-.13.12,0,.3.18.26a59.91,59.91,0,0,1,12.66-2.51A.28.28,0,0,0,285.08,395.05Z" style="fill:#263238"></path><path d="M288.16,397c-4.29-.84-9.55-.23-12.86,2.8-.13.12,0,.3.18.26a60.56,60.56,0,0,1,12.66-2.52A.27.27,0,0,0,288.16,397Z" style="fill:#263238"></path><path d="M291.24,398.85c-4.29-.84-9.55-.23-12.86,2.8-.13.12,0,.3.18.25a61.19,61.19,0,0,1,12.66-2.51A.27.27,0,0,0,291.24,398.85Z" style="fill:#263238"></path><path d="M301.61,404.44a9.23,9.23,0,0,0-6.85,2.77,9,9,0,0,0-2.57,6.1c0,.07.13.07.14,0a10.59,10.59,0,0,1,9.28-8.72A.08.08,0,0,0,301.61,404.44Z" style="fill:#263238"></path><path d="M248.18,404c-5.13,0-5.14,8,0,8S253.32,404,248.18,404Z" style="fill:#fff"></path><path d="M285.63,393H241.36s7.53-108.46,7.27-109.84c-.45-2.31-12.1-61.19-15.27-73.42-4.76-18.33-8.47-32.56-8.47-32.56H262.4s4.38,13.86,9.89,31.89c9,29.31,16,69.64,17.16,79.45C290.89,300.4,285.63,393,285.63,393Z" style="fill:#455a64"></path><path d="M283.57,384.94c-6.75-.14-4.81-.2-11.56-.26-3.3,0-25-.22-28.1.29-.06,0-.06.12,0,.13,3.09.51,24.8.33,28.1.29,6.75-.06,4.81-.12,11.56-.26A.1.1,0,1,0,283.57,384.94Z" style="fill:#263238"></path><path d="M231.71,182.28l5.95,24.81s13.47,64.26,15.45,72.43c.48,2.05,1,4.09,1.37,6.17.11.51.18,1.05.27,1.57,0,.29.05.61.05.89l-.06.78-6.15,92.27-.4.39,5.63-92.73.06-.79c0-.25,0-.45,0-.68-.09-.51-.16-1-.27-1.53C253.16,283.82,231.71,182.28,231.71,182.28Z" style="fill:#263238"></path><path d="M261.1,177.19,246.81,274c-3.5-17.55-11-54.81-13.45-64.25-4.76-18.33-8.47-32.56-8.47-32.56Z" style="fill:#263238"></path><path d="M176.09,416c2.17.68,55.61.92,57.93-.63.89-.57,1.2-9.59,1.27-20.49v-.34c0-2.24,5.18-40,5.18-40l-40.37.83L195.43,395l0,.68s-15.08,9.45-17.45,11.42S173.91,415.29,176.09,416Z" style="fill:#eb9481"></path><path d="M236,387.78c-.45,3.61-.75,6.19-.75,6.72v.35c-.07,10.9-.38,19.9-1.27,20.48-2.32,1.55-55.76,1.31-57.94.64s-.41-6.93,1.94-8.89,17.44-11.42,17.44-11.42l0-.68.85-7.2Z" style="fill:#fff"></path><path d="M173.45,417.15c2.27.75,59.74.14,62.19-1.45.94-.59-.42-21.78-.41-21.89H195.48l0,.7s-17.92,11.33-20.43,13.36S171.18,416.42,173.45,417.15Z" style="fill:#FFA52E"></path><path d="M173.62,414.64c10.92-.37,48.22-.84,59-.37.09,0,.09.06,0,.07-10.82.6-48.12.7-59,.47C173.39,414.81,173.39,414.64,173.62,414.64Z" style="fill:#263238"></path><path d="M198.71,395.14c5.44-1.5,12.22-1.49,16.64,1.5.17.11,0,.34-.22.31a85.53,85.53,0,0,0-16.36-1.2C198.36,395.76,198.32,395.25,198.71,395.14Z" style="fill:#263238"></path><path d="M194.87,397.68c5.44-1.5,12.22-1.49,16.64,1.5.17.11,0,.34-.22.31a84.73,84.73,0,0,0-16.36-1.2A.31.31,0,0,1,194.87,397.68Z" style="fill:#263238"></path><path d="M191,400.22c5.44-1.5,12.22-1.5,16.64,1.5.17.11,0,.34-.22.31a84.73,84.73,0,0,0-16.36-1.2A.31.31,0,0,1,191,400.22Z" style="fill:#263238"></path><path d="M178.51,407a14.86,14.86,0,0,1,12-.82c3.17,1.24,6.5,3.54,8.08,7.05,0,.1-.14.19-.2.1-4.15-6-12.88-8.85-19.72-6.12C178.48,407.28,178.38,407.09,178.51,407Z" style="fill:#263238"></path><path d="M231.69,401.91c4,0,4,8,0,8S227.66,401.91,231.69,401.91Z" style="fill:#fff"></path><path d="M261.5,177.19s-4.92,34.59-5.31,35.71c0,0-2.88,1.08-6.69,2.84L238.94,392.83l-44.47.18L213,177.19Z" style="fill:#455a64"></path><path d="M237.42,384.91c-6.79-.11-4.84-.17-11.64-.21-3.32,0-25.18-.11-28.28.41-.07,0-.07.13,0,.14,3.11.5,25,.22,28.28.17,6.8-.09,4.85-.14,11.64-.31A.1.1,0,0,0,237.42,384.91Z" style="fill:#263238"></path><path d="M256.94,212.63a76.43,76.43,0,0,0-12.1,5.64.14.14,0,0,0,.12.25c4.07-1.75,8.23-3.43,12.2-5.4A.27.27,0,0,0,256.94,212.63Z" style="fill:#263238"></path><path d="M258.23,184.67c0-.14-.25-.17-.25,0a136.11,136.11,0,0,1-.69,13.62c-.19,2.1-1.87,13.7-5.51,12.85-.61-.14-.92-.74-1-1.66a15,15,0,0,1,.48-3.56c.41-2.42.73-4.86.94-7.31a66.22,66.22,0,0,0-.15-13.72.12.12,0,0,0-.23,0,126.23,126.23,0,0,1-1.11,18.94c-.46,3-2,7.56,1.18,8s5.29-7.13,5.69-9.21A69.69,69.69,0,0,0,258.23,184.67Z" style="fill:#263238"></path><path d="M251.87,211.43a18.44,18.44,0,0,0-.81,2.41,5.36,5.36,0,0,0-.35,2,.15.15,0,0,0,.26.06,7.11,7.11,0,0,0,.84-1.93c.28-.74.57-1.48.83-2.23A.41.41,0,0,0,251.87,211.43Z" style="fill:#263238"></path><polygon points="248.59 220.18 246.21 240.53 243.72 260.86 234.84 380.88 234.29 380.88 243 260.77 245.75 240.47 248.59 220.18" style="fill:#263238"></polygon><path d="M215.8,207.52c3.43-.35,7-.3,10.16-1.84s5.3-4.63,7-7.72a25.11,25.11,0,0,0,2.28-6.05c0-.1.17-.07.17,0a16.91,16.91,0,0,1-1.4,5.71,25.78,25.78,0,0,1-2.74,5.06,12.2,12.2,0,0,1-3.92,3.68,13.62,13.62,0,0,1-5.16,1.56,28.77,28.77,0,0,1-6.36,0A.2.2,0,0,1,215.8,207.52Z" style="fill:#263238"></path><path d="M304.8,183.46c1,3.71,2.37,7.34,3.61,11s2.49,7.31,3.64,11a93.72,93.72,0,0,1,2.85,11.26,34.58,34.58,0,0,1,.35,5.83c0,1.93-.07,3.87-.17,5.8-.42,7.74-1.49,15.4-2.44,23.06-.48,3.83-.95,7.66-1.32,11.49a90.46,90.46,0,0,0-.49,11.5c.24,7.66,3.29,14.94,7.16,21.53s8.67,12.71,13.08,19.06a67.87,67.87,0,0,1,6,9.95,24,24,0,0,1,1.84,5.54c.4,1.9.76,3.8,1,5.72a149,149,0,0,1,1.49,23.11,148,148,0,0,0-2-23c-.7-3.78-1.24-7.64-3-11.06a68.3,68.3,0,0,0-6.07-9.78c-4.5-6.25-9.29-12.35-13.24-19a61.16,61.16,0,0,1-5.06-10.5,38.25,38.25,0,0,1-2.32-11.45,90.14,90.14,0,0,1,.54-11.63c.39-3.85.87-7.68,1.37-11.51,1-7.66,2-15.31,2.57-23,.13-1.92.21-3.85.24-5.77a33,33,0,0,0-.28-5.72,91.07,91.07,0,0,0-2.69-11.22c-1.07-3.71-2.23-7.39-3.41-11.06S305.76,187.2,304.8,183.46Z" style="fill:#263238"></path><rect x="122.98" y="397.52" width="10.84" height="3.85" transform="translate(-262.71 247.54) rotate(-50.96)" style="fill:#FFA52E"></rect><circle cx="156.21" cy="421.37" r="29.28" style="fill:#263238"></circle><circle cx="156.21" cy="421.37" r="21.43" style="fill:#455a64"></circle><path d="M126.14,421.77h-4c0-19.51,14.74-34.22,34.29-34.22,12.81,0,22.79,6.05,29.66,18l-3.47,2c-6.1-10.6-14.92-16-26.19-16C138.88,391.55,126.14,404.26,126.14,421.77Z" style="fill:#455a64"></path><circle cx="355.19" cy="421.37" r="29.28" style="fill:#263238"></circle><circle cx="355.19" cy="421.37" r="21.43" style="fill:#455a64"></circle><path d="M325.12,421.77h-4c0-19.51,14.74-34.22,34.29-34.22,12.81,0,22.79,6.05,29.66,18l-3.46,2c-6.11-10.6-14.93-16-26.2-16C337.86,391.55,325.12,404.26,325.12,421.77Z" style="fill:#455a64"></path><rect x="148.03" y="416.64" width="166.25" height="9.47" style="fill:#37474f"></rect><rect x="250.64" y="265.62" width="125.91" height="4.03" transform="translate(487.18 -106.31) rotate(74.42)" style="fill:#455a64"></rect><rect x="288.56" y="187.57" width="17.26" height="4.03" transform="translate(609.98 27.01) rotate(120)" style="fill:#37474f"></rect><rect x="304.44" y="352.26" width="68.13" height="9.47" transform="translate(591.49 -64.95) rotate(74.42)" style="fill:#37474f"></rect><rect x="326.21" y="368.08" width="32.02" height="4.45" transform="translate(607.02 -58.79) rotate(74.42)" style="fill:#FFA52E"></rect><rect x="287.14" y="199.84" width="17.24" height="7.17" transform="translate(412.29 -136.1) rotate(74.42)" style="fill:#37474f"></rect><polygon points="340.88 378.53 313.57 412.33 300.1 412.33 336.54 367.01 340.88 378.53" style="fill:#37474f"></polygon><rect x="288.88" y="412.33" width="25.41" height="4.31" style="fill:#37474f"></rect><path d="M310.65,180a5.85,5.85,0,1,1-5.85-5.85A5.85,5.85,0,0,1,310.65,180Z" style="fill:#37474f"></path><path d="M308.24,180a3.45,3.45,0,1,1-3.44-3.44A3.45,3.45,0,0,1,308.24,180Z" style="fill:#FFA52E"></path><rect x="152.41" y="419.4" width="32.73" height="3.95" style="fill:#FFA52E"></rect><path d="M59.77,405.66c4.52-.2,9-.3,13.58-.38s9.05-.07,13.58-.12,9,0,13.58.12l6.79.14c2.26.08,4.52.13,6.79.24-2.27.12-4.53.17-6.79.25l-6.79.14c-4.53.08-9.06.07-13.58.11s-9.06,0-13.58-.11S64.29,405.87,59.77,405.66Z" style="fill:#263238"></path><path d="M81.45,399.25c3.15-.21,6.3-.31,9.45-.39s6.29-.1,9.44-.11,6.3,0,9.45.11l4.72.14c1.58.09,3.15.13,4.72.25-1.57.11-3.14.16-4.72.24l-4.72.14c-3.15.09-6.3.11-9.45.12s-6.29,0-9.44-.12S84.6,399.45,81.45,399.25Z" style="fill:#263238"></path><path d="M86.72,412.17c2.73-.21,5.47-.31,8.2-.39s5.47-.1,8.2-.11,5.47,0,8.2.11l4.11.14c1.36.08,2.73.13,4.1.25-1.37.11-2.74.16-4.1.24l-4.11.14c-2.73.09-5.46.1-8.2.11s-5.47,0-8.2-.11S89.45,412.37,86.72,412.17Z" style="fill:#263238"></path><path d="M69.6,412.17a25.41,25.41,0,0,1,5.41-.5,25.47,25.47,0,0,1,5.41.5,30.11,30.11,0,0,1-10.82,0Z" style="fill:#263238"></path><path d="M242.12,127.25c6.59,18.2,25.27,44.48,32.87,45.28,3.62.38,10,1.84,15.14-1.88,11.2-8.13,21.46-24.7,24.14-34.48,1-3.48-15.55-12.71-18.35-10.07-6.57,6.2-14.69,18.79-15.74,18.62-3.87-.66-19.65-15-29.78-23.93C237.68,109.61,239.49,120,242.12,127.25Z" style="fill:#eb9481"></path><path d="M323.14,133.49c-2.67,4.5-11.75,11.55-14.59,12.41s-15.36-14.17-14.7-17.15,10.86-17.42,15.86-19.29S325.92,128.83,323.14,133.49Z" style="fill:#eb9481"></path><path d="M295.16,126a43.61,43.61,0,0,0,.12-12.63c-.86-5-2.7-12.25,0-12.81,5.45-1.16,10,17,10,17s.73,8.34-4.57,10A5.5,5.5,0,0,1,295.16,126Z" style="fill:#eb9481"></path><path d="M302.59,113.89c0,2.77,3.28,1.16,3.28,1.16s-4.13,3.45-3,6.3,5,.66,5.24.52c-.22.18-3.93,3.45-2.5,6.2s5,.09,5.23-.08c-.15.23-2.08,3.42-.52,5.26,2.67,3.17,7.84-4.84,11.15-5.41,0,0,1.6,5.5,1.68,5.65,0,0,5.08-7.52,4.06-11.94a2.9,2.9,0,0,0-2.81-2.29s1.9-2.24.85-4.44c-.55-1.13-2.84-1.26-2.84-1.26a3.63,3.63,0,0,0,.39-3.76c-.84-1.52-3-1.42-3-1.42s.56-2.43-.8-3.7C316.24,102.11,302.56,108,302.59,113.89Z" style="fill:#eb9481"></path><path d="M319.44,108.35c.05,0,0-.09,0-.08a25.86,25.86,0,0,0-13.75,6.85c-.11.12,0,.36.18.25A52.9,52.9,0,0,1,319.44,108.35Z" style="fill:#263238"></path><path d="M322.46,113.5c.05,0,0-.11,0-.1a24.18,24.18,0,0,0-14.52,8.4c-.13.16-.08.43.08.26C310.62,119.16,317.89,115,322.46,113.5Z" style="fill:#263238"></path><path d="M310.69,128.4c3.64-4.31,8.3-7,13.48-9.12.07,0,0-.12,0-.11-2.81.33-6,2-8.33,3.53a14.88,14.88,0,0,0-5.26,5.57C310.49,128.36,310.61,128.49,310.69,128.4Z" style="fill:#263238"></path><path d="M305.78,115c-.14.15.22.2.08.34-.57.62-3.69,4.62-2.65,6.1.83,1.19,3,.9,3.79.46l2-1.11-1.48,1.73a9.21,9.21,0,0,0-1.59,2.56,3.32,3.32,0,0,0-.08,2.72A1.91,1.91,0,0,0,308,129a5.71,5.71,0,0,0,2.57-1.3l2.08-1.71-1.4,2.29a8.85,8.85,0,0,0-.92,2,3.62,3.62,0,0,0-.08,2.08,1.72,1.72,0,0,0,1.35,1.19,3.82,3.82,0,0,0,2.05-.55,30.38,30.38,0,0,0,3.82-2.69c.63-.48,1.25-1,1.9-1.41a5.64,5.64,0,0,1,2.13-1,6,6,0,0,0-2,1.21c-.61.5-1.2,1-1.78,1.55a25.38,25.38,0,0,1-3.77,2.94,4.37,4.37,0,0,1-2.43.75,2.44,2.44,0,0,1-2.07-1.68,4.43,4.43,0,0,1,0-2.58,9.86,9.86,0,0,1,1-2.29l.68.58a6.59,6.59,0,0,1-3,1.57,2.77,2.77,0,0,1-1.84-.29,3.2,3.2,0,0,1-1.25-1.36,4.22,4.22,0,0,1,.1-3.45,10.23,10.23,0,0,1,1.79-2.79l.5.63c-1,.52-3.41,1.11-4.93-.57C300.82,119.57,305,115.69,305.78,115Z" style="fill:#263238"></path><path d="M305.87,115.05a5.66,5.66,0,0,1-1.69.19,1.3,1.3,0,0,1-1.12-.68,2.69,2.69,0,0,1-.09-1.49c.1-.55.22-1.12.38-1.71a4.42,4.42,0,0,0-1,1.56,2.6,2.6,0,0,0,0,2,1.83,1.83,0,0,0,.78.78,1.92,1.92,0,0,0,1,.16A3,3,0,0,0,305.87,115.05Z" style="fill:#263238"></path><path d="M266.13,132.88,252.69,151.7s-11.47-22.7-13-30.33c-1.68-8.58,3.08-7.56,10-3S266.13,132.88,266.13,132.88Z" style="fill:#FFA52E"></path><path d="M262.6,131.07c-.56.58-4.8,6.42-5.69,7.7s-4.6,6.52-5.41,7.92a.06.06,0,0,0,.09.07c1.06-1.22,4.81-6.48,5.75-7.77s5-7.16,5.36-7.86C262.73,131.07,262.64,131,262.6,131.07Z" style="fill:#263238"></path><path d="M264.25,135.51,252.69,151.7s-11.47-22.7-13-30.33c-1-5.36.42-7,3.36-6.31C247.92,119.7,257.34,128.75,264.25,135.51Z" style="opacity:0.1"></path><path d="M269.93,188.6l-61,8c-.95-1,3.15-40.67,8.09-56.18,6.34-19.88,11.23-21.43,13.43-23.45,4.06-3.74,12.88-2.81,14.35-2,2.61,1.48,7.35,8.72,10.31,15.4C261.08,143.81,270.68,187.62,269.93,188.6Z" style="fill:#FFA52E"></path><path d="M267.66,175.64l-58,7.79c.13-1.19.26-2.44.41-3.73l56.78-7.63Zm.72,3.42-59,7.93c-.13,1.35-.23,2.6-.31,3.71l60-8.07C268.89,181.56,268.65,180.36,268.38,179.06Z" style="opacity:0.1"></path><path d="M244.53,126.66C241.2,127.72,235,123,232.38,119c-.18-.28,0-3.35.11-7.09,0-2.27,0-4.8-.14-7.1,0-.48,14.73,2.42,14.73,2.42a37.29,37.29,0,0,0-.73,9,5.22,5.22,0,0,0,.18.94,1.43,1.43,0,0,0,0,.16C247,119,247.75,125.63,244.53,126.66Z" style="fill:#eb9481"></path><path d="M233.24,104.75c1,3.85,4.11,13.09,11.84,12.68a8.9,8.9,0,0,0,1.47-.19.65.65,0,0,0,0-.16,5.29,5.29,0,0,1-.17-.93,36.77,36.77,0,0,1,.73-9S236.43,105.09,233.24,104.75Z" style="fill:#263238"></path><path d="M231,87.14c-1.57,5.14,1.16,20,4.82,23.31,5.3,4.8,14,5.26,18.07-1.12,3.95-6.18.06-25.49-4-28.5C243.8,76.4,233.28,79.54,231,87.14Z" style="fill:#eb9481"></path><path d="M243.83,96.67s-.07.06-.06.1c.2,1,.26,2.17-.59,2.66,0,0,0,.06,0,0C244.28,99.14,244.18,97.58,243.83,96.67Z" style="fill:#263238"></path><path d="M242.76,95.77c-1.63.14-1.22,3.4.29,3.27S244.13,95.65,242.76,95.77Z" style="fill:#263238"></path><path d="M249.73,96s.08,0,.09.08c.09,1,.37,2.16,1.33,2.38a0,0,0,0,1,0,0C250,98.46,249.65,96.93,249.73,96Z" style="fill:#263238"></path><path d="M250.49,94.79c1.61-.33,2.15,2.91.66,3.22S249.15,95.07,250.49,94.79Z" style="fill:#263238"></path><path d="M241.29,94.44c.43-.17.8-.39,1.21-.6a2.2,2.2,0,0,0,1.11-.85.7.7,0,0,0-.22-.82,1.7,1.7,0,0,0-1.74,0,2.47,2.47,0,0,0-1.31,1.27C240.05,94.06,240.72,94.66,241.29,94.44Z" style="fill:#263238"></path><path d="M251.55,93c-.46,0-.89-.11-1.34-.17a2.17,2.17,0,0,1-1.33-.44.69.69,0,0,1-.07-.84,1.72,1.72,0,0,1,1.66-.54,2.53,2.53,0,0,1,1.66.77A.74.74,0,0,1,251.55,93Z" style="fill:#263238"></path><path d="M244.31,106.09c.27.21.55.5.92.49a2.74,2.74,0,0,0,1.06-.4,0,0,0,0,1,.05,0,1.39,1.39,0,0,1-1.21.71,1.08,1.08,0,0,1-.91-.79A.06.06,0,0,1,244.31,106.09Z" style="fill:#263238"></path><path d="M245,102.93a3.46,3.46,0,0,0,2.49,1.24,4.34,4.34,0,0,0,1.24-.1l.23,0,.22-.07a.23.23,0,0,0,.17-.25h0a.43.43,0,0,0,0-.11h0v-.09c-.08-.78-.3-2-.3-2,.3.1,1.83.57,1.75.17a52.25,52.25,0,0,0-2.64-10.24.1.1,0,0,0-.19,0c.48,3.23,1.52,6.36,2,9.59a6.34,6.34,0,0,0-1.69-.28c-.11,0,.48,2.25.48,2.61v0a4.81,4.81,0,0,1-3.7-.66C245,102.78,244.92,102.86,245,102.93Z" style="fill:#263238"></path><path d="M248.22,103.79a4,4,0,0,1-1.53,1.41,1.84,1.84,0,0,1-1.12.16c-.82-.14-.91-.89-.81-1.53a4.65,4.65,0,0,1,.28-1A5.34,5.34,0,0,0,248.22,103.79Z" style="fill:#263238"></path><path d="M246.69,105.2a1.84,1.84,0,0,1-1.12.16c-.82-.14-.91-.89-.81-1.53A1.9,1.9,0,0,1,246.69,105.2Z" style="fill:#ff9bbc"></path><path d="M230.92,96.69c.93-.53,2.54-3.78,3.26-5.11s.29-7.59.11-9.45a9.93,9.93,0,0,0-3.22,4.55C230.35,88.78,230.37,92.71,230.92,96.69Z" style="fill:#263238;opacity:0.2"></path><path d="M246.86,85.59a5,5,0,0,1-4.14,2.5,5.06,5.06,0,0,1-4.4-2.23,0,0,0,0,0-.07,0,5,5,0,0,0,4.48,2.6A5.12,5.12,0,0,0,247,85.65C247,85.57,246.9,85.52,246.86,85.59Z" style="fill:#263238"></path><path d="M239.5,74.52a7.82,7.82,0,0,0-5.77,4.79,5.55,5.55,0,0,0,.15,3.67s.12,0,.1,0a6.12,6.12,0,0,1,1.79-6,7.84,7.84,0,0,1,6.69-2.14,4.94,4.94,0,0,1,3,1.6c.08.09.28,0,.21-.11C244.6,74.71,242,74,239.5,74.52Z" style="fill:#263238"></path><path d="M257.08,77.49a6.34,6.34,0,0,0-3.3-2.84c-1.94-.74-3.87-.2-5.77.37,0,0,0,.09,0,.08a8.72,8.72,0,0,1,5-.39,6.25,6.25,0,0,1,3.41,2.44A6.08,6.08,0,0,1,255.36,85a6.18,6.18,0,0,1-4.69,1.4c-.06,0-.09.09,0,.1a6.2,6.2,0,0,0,6.43-9.05Z" style="fill:#263238"></path><path d="M230.53,90.54s-3.63-4.55-1.93-7.9c1-1.9,5.22-2.47,5.22-2.47A7.7,7.7,0,0,1,238.07,76c3.38-1.47,8-.2,8-.2s3-2.55,6.47-1.34c4.85,1.68,5.56,8.46,1.55,11.43-2.82,2.09-7.54.14-7.54.14-.39.13-4.06,3.4-7.89.29,0,0-2.12,2.74-4.7,1.58A3.75,3.75,0,0,1,230.53,90.54Z" style="fill:#263238"></path><path d="M249.46,96.76c-.33-2.5.74-4.72,2.4-4.94s3.27,1.63,3.6,4.13-.73,4.72-2.39,4.94S249.8,99.26,249.46,96.76Zm.61-.08c.29,2.16,1.6,3.78,2.92,3.6s2.16-2.08,1.87-4.25-1.6-3.78-2.92-3.6S249.78,94.51,250.07,96.68Z" style="fill:#455a64"></path><path d="M238.67,98.29a4.28,4.28,0,1,1,4.85,4A4.46,4.46,0,0,1,238.67,98.29Zm.61-.08a3.67,3.67,0,1,0,3.1-4.42A3.84,3.84,0,0,0,239.28,98.21Z" style="fill:#455a64"></path><path d="M246.85,96.77c1.79-1,2.74-.42,2.75-.41l.24-.52s-1.18-.83-3.23.38Z" style="fill:#455a64"></path><path d="M238.93,97.85l0-.61c-.41,0-7.2-.43-8.22-.35s-3.35,1.8-3.61,2l.37.49a11.46,11.46,0,0,1,3.25-1.87h0C231.57,97.44,235.52,97.68,238.93,97.85Z" style="fill:#455a64"></path><path d="M234.15,99.25s-3.46-4.74-5.61-3.5.51,8.16,3.09,9.06a2.6,2.6,0,0,0,3.46-1.47Z" style="fill:#eb9481"></path><path d="M229.35,97.72s0,0,0,.06c1.81.69,2.79,2.34,3.49,4a1.45,1.45,0,0,0-2.16-.35s0,.11.05.1a1.58,1.58,0,0,1,1.77.52,8.14,8.14,0,0,1,.88,1.41c.08.16.37.06.31-.12l0,0C233.66,101.06,231.81,97.9,229.35,97.72Z" style="fill:#263238"></path><path d="M224.73,129.34c-1.84,14-1.22,42.87,4.31,51.72,2.77,4.43,30.12,6.36,37.56,6.43,3.09,0,10.57-23.76,7.37-24.05-4.41-.41-27.23-1-29.06-2.65s-6.07-19.76-8.62-31.45C233.08,114.6,226.29,117.52,224.73,129.34Z" style="fill:#eb9481"></path><path d="M265.35,163.24s11.75-.75,18.51-1.07c3.77-.17,10.26.1,13.09,1.24,4.24,1.7,20.85,11.53,18.55,15.6-2.07,3.7-15.28-6.55-15.28-6.55s14.24,9.16,10.92,13.15S294.45,176,294.45,176s14.41,9.75,10.34,13.32c-3.08,2.69-15.88-8.91-15.88-8.91s12.33,8.46,9.28,11.37c-3.36,3.22-15.86-6.75-15.86-6.75-9,6.09-18.05,2.7-22.55.74C258.7,185.32,265.35,163.24,265.35,163.24Z" style="fill:#eb9481"></path><path d="M296.35,169.5c6.42,3.73,12,9,13.86,11.46.23.3.42.58.4.56-3-2.62-12.7-10.79-14.31-12C296.26,169.53,296.31,169.48,296.35,169.5Z" style="fill:#263238"></path><path d="M291.19,174.73c5.27,2.11,10.24,7.24,12.2,8.86.15.12,0,.16-.13,0-2-1.53-10-7.42-12.1-8.86C291.12,174.75,291.16,174.71,291.19,174.73Z" style="fill:#263238"></path><path d="M287.13,179.37a26.37,26.37,0,0,1,8.71,6.77c.13.15,0,.16-.17,0-3-2.43-4.85-4-8.61-6.7C287,179.44,287.06,179.33,287.13,179.37Z" style="fill:#263238"></path><path d="M259.39,162.75a46.14,46.14,0,0,0,9.4,0l9.41-.74c3.15-.16,6.31-.34,9.47-.24s6.4.29,9.28,1.65a16.35,16.35,0,0,0-4.59-.92,43.33,43.33,0,0,0-4.7-.16c-3.13,0-6.27.19-9.41.42s-6.27.43-9.43.58c-1.57.06-3.16.12-4.74,0A30.72,30.72,0,0,1,259.39,162.75Z" style="fill:#263238"></path><path d="M242.52,146.67l-21.27,9.09s2-25.36,4.71-32.65c3-8.21,6.56-4.86,10.1,2.66S242.52,146.67,242.52,146.67Z" style="fill:#FFA52E"></path><path d="M240.45,143.29c-.78.21-7.43,3-8.87,3.62s-7.31,3.17-8.74,4a.06.06,0,0,0,0,.11c1.53-.5,7.47-3,9-3.66s8-3.51,8.66-3.93C240.56,143.35,240.51,143.28,240.45,143.29Z" style="fill:#263238"></path><path d="M239.77,147.85c.88-.48,1.77-.94,2.67-1.37l-.12.24-1.15-4.18-1.12-4.2c-.73-2.79-1.45-5.58-2.27-8.37a34.48,34.48,0,0,1,1.66,4c.49,1.37.92,2.76,1.32,4.15.79,2.79,1.46,5.62,2,8.48l0,.18-.15.06C241.67,147.22,240.73,147.54,239.77,147.85Z" style="fill:#263238"></path><path d="M239.71,135.78a8.89,8.89,0,0,1-.35-1.95,10,10,0,0,1,0-2,5.73,5.73,0,0,1,.46,1.94A6.05,6.05,0,0,1,239.71,135.78Z" style="fill:#263238"></path><path d="M223.8,154.67c-.82.44-1.65.83-2.47,1.25l-.27.14v-.32c.06-1.61.1-3.22.23-4.83s.25-3.21.42-4.82.39-3.2.65-4.79.54-3.18.93-4.75c-.12,1.61-.26,3.21-.41,4.81s-.28,3.21-.44,4.81L222,151l-.54,4.8-.26-.18C222.05,155.28,222.92,155,223.8,154.67Z" style="fill:#263238"></path><path d="M222.05,138.12a14.43,14.43,0,0,1,.36,2.42c0,.4.05.8.05,1.21s0,.81,0,1.23a8,8,0,0,1-.52-2.4A8.86,8.86,0,0,1,222.05,138.12Z" style="fill:#263238"></path></g><g id="freepik--speech-bubble--inject-396"><path d="M314.18,68.11a22.93,22.93,0,0,1-38.31,14.51L264.4,84.3l5.74-9.92a22.7,22.7,0,0,1-1.57-11,22.93,22.93,0,1,1,45.61,4.77Z" style="fill:#fff"></path><path d="M314.18,68.11a23.12,23.12,0,0,1-4.63,11.63,26.06,26.06,0,0,1-2.07,2.39,27.88,27.88,0,0,1-2.42,2.05,23.25,23.25,0,0,1-11.71,4.55,22.51,22.51,0,0,1-3.18.06,19.94,19.94,0,0,1-3.18-.33,23.11,23.11,0,0,1-11.34-5.6l.27.08L264.46,84.7l-.83.13.42-.73,5.71-9.94,0,.39a23.19,23.19,0,0,1,1.41-20.43,23.46,23.46,0,0,1,7.18-7.65,23.16,23.16,0,0,1,35.86,21.64Zm0,0a22.69,22.69,0,0,0-26-24.81A22.5,22.5,0,0,0,278.71,47a23.74,23.74,0,0,0-6.86,7.49,22.53,22.53,0,0,0-2.91,9.7,22.86,22.86,0,0,0,1.62,10l.08.21-.11.19-5.77,9.89-.41-.6,11.48-1.61.15,0,.12.1a22.55,22.55,0,0,0,11,5.66,19,19,0,0,0,3.11.38,21.8,21.8,0,0,0,3.13,0,22.29,22.29,0,0,0,6.13-1.35,21,21,0,0,0,5.53-3,20.37,20.37,0,0,0,4.5-4.39A23,23,0,0,0,314.18,68.11Z" style="fill:#263238"></path><path d="M302,62c-.8,6.95-5.26,8.24-6,10.1A31.9,31.9,0,0,0,295,75.7l-7.27,0a32.63,32.63,0,0,0-.93-3.56c-.75-1.85-5.23-3.12-6.06-10.07-.54-4.57,2.88-11.79,10.57-11.81S302.47,57.46,302,62Z" style="fill:#FFA52E"></path><rect x="286.92" y="75.4" width="8.97" height="1.75" transform="matrix(1, 0, 0, 1, -0.19, 0.74)" style="fill:#263238"></rect><rect x="286.92" y="77.43" width="8.97" height="1.75" transform="translate(-0.2 0.74) rotate(-0.15)" style="fill:#263238"></rect><rect x="286.93" y="79.47" width="8.97" height="1.75" transform="matrix(1, 0, 0, 1, -0.2, 0.74)" style="fill:#263238"></rect><g id="freepik--Z1vjzJ.tif--inject-396"><path d="M298.66,62.72s-.62,2.38-1,3.69a6.61,6.61,0,0,1-6,4.66s.88-1.95,1.21-2.59,1.61-2.7,1.61-2.7a9.82,9.82,0,0,0-3.2,5c-.64-4.69,2.32-9.08,7.41-8.08Z" style="fill:#fff"></path><path d="M284.93,62.16c2.36.84,5,1.77,6.33,4a8.72,8.72,0,0,0-.27,1c-.13.61-.21,1.33-.27,1.83a34,34,0,0,1-2.81-2.43,8.07,8.07,0,0,0,2.76,3,10,10,0,0,0,.05,1.42c-4.34,0-6.86-5-5.81-8.9Z" style="fill:#fff"></path></g></g></svg>