<svg xmlns="http://www.w3.org/2000/svg" viewBox="0 0 500 500"><g id="freepik--background-complete--inject-222"><path d="M463,147.61H363.64s9.85-26.91,25-26.91,19.91,18.57,19.91,18.57,10.22-10.09,18.62-10.09,15.71,13.34,15.71,13.34S454.76,135.35,463,147.61Z" style="fill:#ebebeb"></path><path d="M189.18,92.21H89.85s9.85-26.9,25-26.9,19.9,18.57,19.9,18.57S145,73.79,153.39,73.79,169.1,87.12,169.1,87.12,181,80,189.18,92.21Z" style="fill:#ebebeb"></path><path d="M376.24,78.43H329.82s10.37-15,18.54-15,10.59,10,10.59,10,5.77-4.68,11.11-3.84S376.24,78.43,376.24,78.43Z" style="fill:#ebebeb"></path><path d="M291.88,128.22H245.46s10.37-15,18.54-15,10.59,10,10.59,10,5.76-4.68,11.11-3.84S291.88,128.22,291.88,128.22Z" style="fill:#ebebeb"></path><path d="M181.76,169.58H135.33s10.38-15,18.55-15,10.59,10,10.59,10,5.76-4.68,11.11-3.84S181.76,169.58,181.76,169.58Z" style="fill:#ebebeb"></path><path d="M127.44,180.91H37s12.39-27.64,25.63-29.37,19.58,20.54,19.58,20.54,8.55-7.87,15.26-7.87,11.91,10.37,11.91,10.37S122.84,167.47,127.44,180.91Z" style="fill:#ebebeb"></path><path d="M465,229.17s-70.79-38.83-122.5-38.83c-50.62,0-119.27,19.62-137.93,24-49,11.54-112.08,14.82-112.08,14.82Z" style="fill:#dbdbdb"></path><path d="M35,229.17s35.41-26,75.41-26c27.91,0,68,10.48,105.73,16.38,14.37,2.24,89.18,9.65,89.18,9.65Z" style="fill:#c7c7c7"></path><path d="M284.72,229.45c3.81.18,7.61.59,11.4,1.05s7.56,1.05,11.32,1.71,7.51,1.45,11.21,2.4a59.92,59.92,0,0,1,10.85,3.72,18.37,18.37,0,0,1,2.5,1.44,8.6,8.6,0,0,1,2.15,2,3.6,3.6,0,0,1,.66,2.88,5.37,5.37,0,0,1-1.57,2.5,19.77,19.77,0,0,1-4.83,3.17,56.92,56.92,0,0,1-5.28,2.25c-7.19,2.67-14.68,4.29-22,6.54a221.17,221.17,0,0,0-21.58,7.52,83.55,83.55,0,0,0-10.24,5,34.09,34.09,0,0,0-4.66,3.21,11.54,11.54,0,0,0-3.46,4.27,4.29,4.29,0,0,0-.26,2.59,5.52,5.52,0,0,0,1.26,2.34,15.34,15.34,0,0,0,4.54,3.2,55.44,55.44,0,0,0,10.72,3.7c7.41,1.75,14.89,3.29,22.39,4.66,30,5.66,60.23,10,90.16,16.09,7.47,1.59,14.94,3.23,22.27,5.42l2.72.9c.91.31,1.84.56,2.71.94l5.32,2.14c1.8.67,3.49,1.56,5.22,2.37s3.48,1.6,5.12,2.59a75.87,75.87,0,0,1,18.39,13.57l2,2.08c.63.72,1.21,1.49,1.82,2.22l.89,1.12.81,1.19c.52.8,1.12,1.55,1.56,2.4s1,1.64,1.4,2.5.86,1.7,1.18,2.61l.52,1.33c.15.45.29.91.43,1.37a17.58,17.58,0,0,1,.62,2.79,18.81,18.81,0,0,0-.64-2.79c-.15-.45-.29-.91-.45-1.36l-.53-1.32c-.32-.9-.81-1.73-1.2-2.59s-1-1.66-1.41-2.49-1.06-1.58-1.59-2.38l-.81-1.17-.91-1.11c-.61-.73-1.19-1.49-1.82-2.19l-2-2.06A75.33,75.33,0,0,0,433.2,326.4c-1.64-1-3.39-1.75-5.11-2.56s-3.41-1.69-5.21-2.34l-5.3-2.12c-.88-.38-1.8-.62-2.7-.93l-2.72-.88c-7.3-2.16-14.77-3.78-22.23-5.34-29.93-6-60.18-10.23-90.21-15.81-7.51-1.4-15-3-22.42-4.74a56.53,56.53,0,0,1-10.87-3.8,15.71,15.71,0,0,1-4.74-3.38,6.13,6.13,0,0,1-1.42-2.66,5.08,5.08,0,0,1,.3-3,12.2,12.2,0,0,1,3.68-4.54A34.86,34.86,0,0,1,269,271a85.49,85.49,0,0,1,10.33-5A222.6,222.6,0,0,1,301,258.55c7.31-2.23,14.8-3.83,21.95-6.46,1.78-.67,3.54-1.38,5.24-2.22a19.36,19.36,0,0,0,4.72-3.07,5,5,0,0,0,1.46-2.27,3.15,3.15,0,0,0-.59-2.52,8.32,8.32,0,0,0-2-1.89,19.27,19.27,0,0,0-2.45-1.42,60,60,0,0,0-10.74-3.79c-3.68-1-7.42-1.79-11.16-2.49s-7.52-1.3-11.3-1.81S288.53,229.66,284.72,229.45Z" style="fill:#ebebeb"></path><path d="M317.24,229.45c7.19.37,14.36,1.12,21.52,1.94s14.29,1.84,21.39,3.1c3.55.63,7.09,1.34,10.59,2.18a85.89,85.89,0,0,1,10.39,3.07,27,27,0,0,1,4.9,2.37,9,9,0,0,1,2.1,1.81,3.17,3.17,0,0,1,.71,2.74,4.92,4.92,0,0,1-1.57,2.33,13.47,13.47,0,0,1-2.25,1.59,35,35,0,0,1-4.92,2.31,99.61,99.61,0,0,1-10.32,3.27l-10.45,2.78-20.89,5.52c-6.95,1.87-13.9,3.78-20.78,5.88-3.43,1.06-6.86,2.16-10.23,3.41-1.68.62-3.35,1.28-5,2a26,26,0,0,0-4.63,2.57,4.39,4.39,0,0,0-1.58,1.83c-.24.67.22,1.33.91,1.81a16.11,16.11,0,0,0,4.83,1.95,93.4,93.4,0,0,0,10.58,1.94c7.12,1,14.28,1.74,21.45,2.42,14.34,1.35,28.7,2.5,43,4.09S405.65,296,419.76,299s28,7.11,41,13.29c-13.09-6.05-27.05-9.95-41.13-12.87s-28.38-4.88-42.69-6.43-28.69-2.63-43-3.93c-7.17-.66-14.35-1.38-21.5-2.35a95.53,95.53,0,0,1-10.67-1.93,16.16,16.16,0,0,1-5.12-2.08,3.47,3.47,0,0,1-1-1.11,2,2,0,0,1-.16-1.64,5.1,5.1,0,0,1,1.87-2.23,26.52,26.52,0,0,1,4.8-2.65c1.66-.74,3.34-1.4,5-2,3.39-1.24,6.83-2.33,10.28-3.38,6.91-2.09,13.86-4,20.83-5.82l20.91-5.46,10.45-2.74a101.84,101.84,0,0,0,10.27-3.22,35.2,35.2,0,0,0,4.86-2.26,13.74,13.74,0,0,0,2.16-1.52,4.47,4.47,0,0,0,1.42-2.07,2.67,2.67,0,0,0-.61-2.3,8.47,8.47,0,0,0-2-1.7,26.74,26.74,0,0,0-4.81-2.34,86.78,86.78,0,0,0-10.31-3.09c-3.5-.84-7-1.56-10.56-2.23-7.07-1.32-14.2-2.38-21.34-3.29S324.43,229.88,317.24,229.45Z" style="fill:#ebebeb"></path><path d="M378.44,229.45c6.12.29,12.23.9,18.32,1.54s12.18,1.44,18.24,2.39,12.1,2.07,18.07,3.53a85.93,85.93,0,0,1,8.83,2.63,34,34,0,0,1,4.24,1.88,9.26,9.26,0,0,1,3.59,3,2.93,2.93,0,0,1,.28,2.45,4.86,4.86,0,0,1-1.38,2,16.54,16.54,0,0,1-3.91,2.55,59.69,59.69,0,0,1-8.63,3.3c-2.93.92-5.9,1.69-8.87,2.46s-5.94,1.51-8.92,2.24c-11.93,2.87-23.92,5.46-35.91,8-6,1.26-12,2.51-18,3.85-3,.66-6,1.35-8.94,2.1s-5.93,1.53-8.78,2.56a20.32,20.32,0,0,0-2.08.89,6.59,6.59,0,0,0-.93.57c-.27.2-.51.48-.51.66s.2.4.5.57a4.86,4.86,0,0,0,1,.44,17.43,17.43,0,0,0,2.18.57,91.26,91.26,0,0,0,9.08,1.2l18.29,1.86c12.19,1.29,24.37,2.87,36.41,5.27q9,1.84,17.88,4.31c5.9,1.67,11.73,3.59,17.49,5.69-5.79-2-11.63-3.89-17.54-5.5s-11.9-2.94-17.91-4.11c-12-2.32-24.2-3.87-36.39-5.11l-18.3-1.79c-3-.3-6.11-.57-9.15-1.17a18.81,18.81,0,0,1-2.26-.59,6.43,6.43,0,0,1-1.11-.5,2.5,2.5,0,0,1-.53-.42,1,1,0,0,1-.29-.75,1.67,1.67,0,0,1,.77-1.17,6.94,6.94,0,0,1,1-.63,18.22,18.22,0,0,1,2.14-.93c2.91-1.07,5.88-1.86,8.85-2.63s6-1.46,8.95-2.14c6-1.35,12-2.63,18-3.91,12-2.56,24-5.06,35.9-7.9q4.47-1.07,8.93-2.19c3-.76,5.93-1.52,8.85-2.42a59.29,59.29,0,0,0,8.54-3.23,16,16,0,0,0,3.78-2.43,4.44,4.44,0,0,0,1.23-1.74,2.33,2.33,0,0,0-.23-2,8.7,8.7,0,0,0-3.36-2.82,32.21,32.21,0,0,0-4.15-1.86,82.86,82.86,0,0,0-8.77-2.66c-5.93-1.48-12-2.61-18-3.6s-12.12-1.85-18.2-2.59S384.56,229.82,378.44,229.45Z" style="fill:#ebebeb"></path><path d="M265.71,229.45c3.65.17,7.29.56,10.93,1s7.25,1,10.86,1.61,7.19,1.34,10.75,2.21a73.27,73.27,0,0,1,10.49,3.29,21.76,21.76,0,0,1,4.84,2.66,6.59,6.59,0,0,1,1.88,2.08,3.31,3.31,0,0,1,.18,2.83,6.3,6.3,0,0,1-1.69,2.25A15.65,15.65,0,0,1,311.7,249a36.55,36.55,0,0,1-4.93,2.46c-6.79,2.84-13.94,4.54-21,6.46-14.12,3.8-28.26,7.58-42.2,12a169.71,169.71,0,0,0-20.47,7.72,40.65,40.65,0,0,0-4.75,2.65,16.29,16.29,0,0,0-2.13,1.64,6.08,6.08,0,0,0-1.55,2,2.35,2.35,0,0,0,.2,2.27,5.85,5.85,0,0,0,1.9,1.72,22.89,22.89,0,0,0,4.94,2.13c28.33,7,57,13.17,85.18,21.17,7,2,14,4.16,20.94,6.61a124.56,124.56,0,0,1,20,9,75.06,75.06,0,0,1,17.4,13.34,49.4,49.4,0,0,1,6.61,8.75,29.5,29.5,0,0,1,3.88,10.21,29.44,29.44,0,0,0-4-10.15,49.12,49.12,0,0,0-6.69-8.65,76.31,76.31,0,0,0-17.44-13.11,123.53,123.53,0,0,0-20-8.88c-6.9-2.43-13.9-4.54-20.94-6.53-14.08-3.95-28.3-7.41-42.53-10.79l-21.37-5-10.69-2.53-5.34-1.27c-1.78-.42-3.57-.87-5.32-1.44a23.54,23.54,0,0,1-5.11-2.22,6.78,6.78,0,0,1-2.12-1.95,3.24,3.24,0,0,1-.51-1.45,3.2,3.2,0,0,1,.26-1.51,6.67,6.67,0,0,1,1.74-2.3,17.48,17.48,0,0,1,2.22-1.71,43,43,0,0,1,4.84-2.67,169.37,169.37,0,0,1,20.58-7.71c14-4.4,28.13-8.14,42.27-11.91,7.06-1.89,14.2-3.58,20.95-6.37a36.37,36.37,0,0,0,4.88-2.43,13.67,13.67,0,0,0,2.18-1.59,5.79,5.79,0,0,0,1.58-2.08,2.86,2.86,0,0,0-.14-2.47,6.48,6.48,0,0,0-1.76-2,21.46,21.46,0,0,0-4.73-2.64,74.3,74.3,0,0,0-10.41-3.36c-3.55-.89-7.13-1.64-10.73-2.3s-7.21-1.21-10.83-1.69S269.36,229.65,265.71,229.45Z" style="fill:#ebebeb"></path><path d="M117.49,229.45c3.81.18,7.61.59,11.4,1.05s7.56,1.05,11.32,1.71,7.5,1.45,11.21,2.4a59.56,59.56,0,0,1,10.84,3.72,17.89,17.89,0,0,1,2.51,1.44,8.56,8.56,0,0,1,2.14,2,3.57,3.57,0,0,1,.67,2.88,5.37,5.37,0,0,1-1.57,2.5,20.15,20.15,0,0,1-4.83,3.17,56.92,56.92,0,0,1-5.28,2.25c-7.19,2.67-14.68,4.29-22,6.54a221.17,221.17,0,0,0-21.58,7.52,83.55,83.55,0,0,0-10.24,5,34.09,34.09,0,0,0-4.66,3.21A11.67,11.67,0,0,0,94,279.09a4.36,4.36,0,0,0-.25,2.59A5.41,5.41,0,0,0,95,284a15.34,15.34,0,0,0,4.54,3.2,55.44,55.44,0,0,0,10.72,3.7q11.11,2.63,22.39,4.66c30,5.66,60.23,10,90.16,16.09,7.47,1.59,14.94,3.23,22.27,5.42l2.72.9c.91.31,1.83.56,2.71.94l5.32,2.14c1.8.67,3.49,1.56,5.22,2.37s3.48,1.6,5.11,2.59a75.68,75.68,0,0,1,18.39,13.57l2,2.08c.63.72,1.21,1.49,1.82,2.22l.89,1.12.81,1.19c.52.8,1.12,1.55,1.56,2.4s1,1.64,1.39,2.5.87,1.7,1.19,2.61l.52,1.33c.15.45.29.91.43,1.37a17.58,17.58,0,0,1,.62,2.79,17.66,17.66,0,0,0-.65-2.79c-.14-.45-.28-.91-.44-1.36l-.53-1.32c-.32-.9-.81-1.73-1.21-2.59s-.94-1.66-1.41-2.49a28,28,0,0,0-1.58-2.38l-.81-1.17-.91-1.11c-.61-.73-1.19-1.49-1.82-2.19l-2-2.06A75.33,75.33,0,0,0,266,326.4c-1.64-1-3.39-1.75-5.11-2.56s-3.41-1.69-5.21-2.34l-5.31-2.12c-.87-.38-1.79-.62-2.69-.93l-2.72-.88c-7.3-2.16-14.77-3.78-22.23-5.34-29.93-6-60.18-10.23-90.21-15.81-7.51-1.4-15-3-22.42-4.74a56.53,56.53,0,0,1-10.87-3.8,15.88,15.88,0,0,1-4.75-3.38A6.22,6.22,0,0,1,93,281.84a5.08,5.08,0,0,1,.3-3A12.2,12.2,0,0,1,97,274.29a34.25,34.25,0,0,1,4.76-3.26,85.49,85.49,0,0,1,10.33-5,222.6,222.6,0,0,1,21.67-7.47c7.31-2.23,14.8-3.83,21.94-6.46a56.55,56.55,0,0,0,5.25-2.22,19.36,19.36,0,0,0,4.72-3.07,5,5,0,0,0,1.46-2.27,3.15,3.15,0,0,0-.59-2.52,8.32,8.32,0,0,0-2-1.89,19.27,19.27,0,0,0-2.45-1.42,60,60,0,0,0-10.74-3.79c-3.68-1-7.42-1.79-11.16-2.49s-7.52-1.3-11.3-1.81S121.3,229.66,117.49,229.45Z" style="fill:#ebebeb"></path><path d="M89,229.45c3.66.17,7.3.56,10.93,1s7.25,1,10.86,1.61,7.19,1.34,10.75,2.21A72.88,72.88,0,0,1,132,237.56a21.76,21.76,0,0,1,4.84,2.66,6.74,6.74,0,0,1,1.89,2.08,3.34,3.34,0,0,1,.17,2.83,6.19,6.19,0,0,1-1.69,2.25A15.56,15.56,0,0,1,135,249a37.26,37.26,0,0,1-4.94,2.46c-6.79,2.84-13.94,4.54-21,6.46-14.13,3.8-28.27,7.58-42.21,12a169.71,169.71,0,0,0-20.47,7.72,40.65,40.65,0,0,0-4.75,2.65A16.29,16.29,0,0,0,39.52,282,6.08,6.08,0,0,0,38,284a2.35,2.35,0,0,0,.2,2.27,6,6,0,0,0,1.9,1.72A22.89,22.89,0,0,0,45,290.14c28.34,7,57,13.17,85.18,21.17,7,2,14,4.16,20.94,6.61a124.56,124.56,0,0,1,20,9,75.06,75.06,0,0,1,17.4,13.34,49.4,49.4,0,0,1,6.61,8.75,29.3,29.3,0,0,1,3.88,10.21,29.44,29.44,0,0,0-4-10.15,49.55,49.55,0,0,0-6.68-8.65A76.59,76.59,0,0,0,171,327.3a123.15,123.15,0,0,0-20-8.88c-6.9-2.43-13.9-4.54-20.94-6.53-14.08-3.95-28.29-7.41-42.53-10.79l-21.37-5-10.68-2.53-5.34-1.27c-1.78-.42-3.58-.87-5.33-1.44a23.26,23.26,0,0,1-5.1-2.22,6.7,6.7,0,0,1-2.13-1.95,3.24,3.24,0,0,1-.51-1.45,3.2,3.2,0,0,1,.26-1.51,6.67,6.67,0,0,1,1.74-2.3,18.22,18.22,0,0,1,2.22-1.71,43,43,0,0,1,4.84-2.67,168.89,168.89,0,0,1,20.59-7.71c14-4.4,28.12-8.14,42.26-11.91,7.06-1.89,14.2-3.58,20.95-6.37a36.37,36.37,0,0,0,4.88-2.43,13.67,13.67,0,0,0,2.18-1.59,5.82,5.82,0,0,0,1.59-2.08,2.89,2.89,0,0,0-.15-2.47,6.23,6.23,0,0,0-1.76-2,21.24,21.24,0,0,0-4.73-2.64,73.88,73.88,0,0,0-10.41-3.36c-3.55-.89-7.13-1.64-10.72-2.3s-7.22-1.21-10.84-1.69S92.66,229.65,89,229.45Z" style="fill:#ebebeb"></path></g><g id="freepik--Trees--inject-222"><path d="M130.07,224c-.4.39-5,.57-6.73.57s-6.33-.18-6.73-.57,5.23-31.26,6.73-31.26S130.47,223.64,130.07,224Z" style="fill:#455a64"></path><path d="M130.16,216.17c-1.14.44-5.39,2.17-6.31,2.68v-.58c1-.61,2.05-1.21,3.08-1.8s2.29-1.22,3.32-2c.05,0,0-.14-.05-.12a28.57,28.57,0,0,0-3.25,1.8c-1,.61-2.07,1.24-3.1,1.88,0-1.48,0-3,0-4.44a34.92,34.92,0,0,0,4.84-2.46c.05,0,0-.13,0-.1a34.44,34.44,0,0,0-4.8,2.36c0-.77,0-1.54,0-2.31,0-4,0-7.92-.15-11.88,1-.51,2-.95,3-1.47.07,0,0-.14,0-.12-1,.4-2,.87-3,1.32-.05-2.05-.13-4.09-.26-6.13a.05.05,0,1,0-.1,0c-.14,3.79-.13,7.59-.08,11.39-1-.84-2.16-1.57-3.22-2.38,0,0-.08,0,0,.07,1.11.84,2.15,1.78,3.26,2.62,0,.22,0,.43,0,.64-1.13-.51-2.28-1-3.42-1.48-.09,0-.17.09-.08.13,1.16.56,2.32,1.13,3.5,1.66l.09,5.63c0,3.29.11,6.57.18,9.85-2.13-1.08-4.29-2.13-6.45-3.15-.09,0-.16.08-.08.12a70.13,70.13,0,0,0,6.54,3.29c0,2.72.11,5.45.15,8.18a.13.13,0,1,0,.25,0c0-3.48,0-7-.05-10.44a63.76,63.76,0,0,0,6.39-2.6C130.35,216.31,130.27,216.13,130.16,216.17Z" style="fill:#37474f"></path><path d="M63.73,223.07c-.46.47-5.92.68-7.91.68s-7.44-.21-7.9-.68,6.14-36.74,7.9-36.74S64.2,222.61,63.73,223.07Z" style="fill:#455a64"></path><path d="M63.84,213.83c-1.34.52-6.34,2.55-7.42,3.14v-.68c1.2-.71,2.41-1.41,3.62-2.11a43.55,43.55,0,0,0,3.9-2.32c.06,0,0-.17,0-.13a30.87,30.87,0,0,0-3.82,2.11c-1.23.72-2.44,1.46-3.65,2.21,0-1.74,0-3.48,0-5.22a41.64,41.64,0,0,0,5.69-2.89c.06,0,0-.15-.05-.12a39.88,39.88,0,0,0-5.64,2.78c0-.91,0-1.81,0-2.71-.05-4.66-.06-9.32-.18-14,1.18-.6,2.4-1.13,3.59-1.73.07,0,0-.17-.06-.14-1.2.47-2.36,1-3.54,1.54q-.09-3.6-.3-7.2a.07.07,0,0,0-.13,0c-.16,4.46-.15,8.92-.09,13.39-1.23-1-2.54-1.85-3.79-2.8,0,0-.09.05,0,.08,1.3,1,2.52,2.1,3.83,3.09,0,.25,0,.5,0,.75-1.33-.6-2.68-1.17-4-1.75-.11,0-.2.11-.09.16,1.36.66,2.73,1.33,4.12,1.95,0,2.21.07,4.42.09,6.63,0,3.85.14,7.71.22,11.57-2.51-1.27-5-2.51-7.59-3.7-.09,0-.18.09-.08.14A81,81,0,0,0,56,219.76c.07,3.21.13,6.41.17,9.62,0,.19.31.19.31,0-.05-4.09-.06-8.18-.07-12.27a74.89,74.89,0,0,0,7.52-3.06C64.06,214,64,213.78,63.84,213.83Z" style="fill:#37474f"></path><path d="M118.85,222.59c-.51.5-6.37.72-8.51.72s-8-.22-8.51-.72,6.61-39.51,8.51-39.51S119.35,222.08,118.85,222.59Z" style="fill:#37474f"></path><path d="M119,212.65c-1.44.55-6.82,2.74-8,3.38v-.74l3.9-2.27a47.64,47.64,0,0,0,4.19-2.49c.06-.05,0-.18-.06-.14a34.07,34.07,0,0,0-4.1,2.26q-2,1.17-3.93,2.38c0-1.87,0-3.74,0-5.61a45.1,45.1,0,0,0,6.12-3.11c.06,0,0-.16-.06-.13a45.55,45.55,0,0,0-6.07,3c0-1,0-1.94,0-2.92-.05-5-.06-10-.19-15,1.28-.64,2.59-1.21,3.86-1.85.08,0,0-.19-.06-.15-1.3.5-2.54,1.1-3.81,1.65-.07-2.58-.16-5.16-.32-7.74a.07.07,0,0,0-.14,0c-.17,4.8-.16,9.6-.1,14.39-1.32-1.05-2.72-2-4.07-3,0,0-.1.05,0,.09,1.41,1.06,2.72,2.25,4.13,3.31,0,.27,0,.54,0,.82-1.43-.66-2.89-1.27-4.33-1.89-.11,0-.22.12-.1.17,1.47.71,2.94,1.43,4.43,2.1,0,2.37.08,4.75.11,7.12,0,4.15.14,8.3.23,12.45q-4.05-2-8.16-4c-.1-.05-.19.1-.09.15a85,85,0,0,0,8.26,4.15c.07,3.45.14,6.9.19,10.35a.16.16,0,0,0,.32,0c0-4.4,0-8.8-.07-13.2a80.48,80.48,0,0,0,8.09-3.28C119.2,212.82,119.1,212.59,119,212.65Z" style="fill:#455a64"></path><path d="M323.51,222.59c-.5.5-6.37.72-8.5.72s-8-.22-8.51-.72,6.61-39.51,8.51-39.51S324,222.08,323.51,222.59Z" style="fill:#37474f"></path><path d="M323.63,212.65c-1.45.55-6.82,2.74-8,3.38v-.74l3.89-2.27a46.39,46.39,0,0,0,4.2-2.49c.06-.05,0-.18-.06-.14a33.33,33.33,0,0,0-4.1,2.26c-1.33.78-2.63,1.57-3.93,2.38,0-1.87,0-3.74,0-5.61a44,44,0,0,0,6.12-3.11c.07,0,0-.16-.05-.13a45,45,0,0,0-6.07,3c0-1,0-1.94,0-2.92-.05-5-.06-10-.19-15,1.27-.64,2.59-1.21,3.86-1.85.08,0,0-.19-.07-.15-1.29.5-2.53,1.1-3.8,1.65-.07-2.58-.17-5.16-.32-7.74a.07.07,0,0,0-.14,0c-.18,4.8-.16,9.6-.1,14.39-1.32-1.05-2.73-2-4.07-3,0,0-.1.05,0,.09,1.4,1.06,2.72,2.25,4.12,3.31,0,.27,0,.54,0,.82-1.43-.66-2.88-1.27-4.32-1.89-.12,0-.22.12-.1.17,1.47.71,2.94,1.43,4.43,2.1,0,2.37.07,4.75.1,7.12.06,4.15.15,8.3.24,12.45q-4.05-2-8.16-4c-.11-.05-.2.1-.09.15A84.82,84.82,0,0,0,315.2,219c.08,3.45.15,6.9.19,10.35a.17.17,0,0,0,.33,0c-.05-4.4-.06-8.8-.07-13.2a79.37,79.37,0,0,0,8.08-3.28C323.86,212.82,323.77,212.59,323.63,212.65Z" style="fill:#455a64"></path><path d="M85.06,222.59c-.5.5-6.37.72-8.5.72s-8-.22-8.51-.72,6.6-39.51,8.51-39.51S85.56,222.08,85.06,222.59Z" style="fill:#37474f"></path><path d="M85.18,212.65c-1.45.55-6.82,2.74-8,3.38v-.74L81.09,213a47.64,47.64,0,0,0,4.19-2.49c.07-.05,0-.18-.06-.14a34.86,34.86,0,0,0-4.1,2.26c-1.32.78-2.62,1.57-3.93,2.38,0-1.87,0-3.74,0-5.61a44.52,44.52,0,0,0,6.12-3.11c.07,0,0-.16-.05-.13a44.38,44.38,0,0,0-6.07,3c0-1,0-1.94,0-2.92-.06-5-.07-10-.19-15,1.27-.64,2.58-1.21,3.85-1.85.09,0,0-.19-.06-.15-1.29.5-2.54,1.1-3.8,1.65-.07-2.58-.17-5.16-.33-7.74a.07.07,0,0,0-.13,0c-.18,4.8-.16,9.6-.1,14.39-1.32-1.05-2.73-2-4.07-3-.06,0-.11.05,0,.09,1.4,1.06,2.71,2.25,4.12,3.31,0,.27,0,.54,0,.82-1.43-.66-2.88-1.27-4.33-1.89-.11,0-.21.12-.1.17,1.48.71,2.94,1.43,4.44,2.1,0,2.37.07,4.75.1,7.12.06,4.15.15,8.3.23,12.45-2.69-1.36-5.42-2.69-8.16-4-.1-.05-.19.1-.09.15A85,85,0,0,0,76.75,219c.08,3.45.15,6.9.19,10.35a.17.17,0,0,0,.33,0c0-4.4-.06-8.8-.07-13.2a81.28,81.28,0,0,0,8.08-3.28C85.41,212.82,85.32,212.59,85.18,212.65Z" style="fill:#455a64"></path><path d="M93.82,224.68c.36.35,4.46.5,6,.5s5.59-.15,5.94-.5-4.61-27.62-5.94-27.62S93.47,224.32,93.82,224.68Z" style="fill:#455a64"></path><path d="M93.74,217.73c1,.39,4.77,1.91,5.58,2.36v-.51c-.9-.54-1.81-1.06-2.72-1.59a33.21,33.21,0,0,1-2.93-1.74s0-.13,0-.1a26.71,26.71,0,0,1,2.87,1.58c.92.54,1.83,1.1,2.74,1.66,0-1.3,0-2.61,0-3.92a31.25,31.25,0,0,1-4.28-2.17s0-.11,0-.09a30.88,30.88,0,0,1,4.24,2.09c0-.68,0-1.36,0-2,0-3.5,0-7,.13-10.5-.89-.45-1.81-.84-2.7-1.29-.06,0,0-.13,0-.11.9.35,1.77.77,2.66,1.16,0-1.81.11-3.61.22-5.41a.05.05,0,0,1,.1,0c.12,3.35.11,6.7.07,10.06.92-.74,1.9-1.39,2.84-2.1,0,0,.07,0,0,.06-1,.74-1.9,1.57-2.89,2.31V208c1-.45,2-.88,3-1.31.08,0,.15.08.07.12-1,.49-2,1-3.1,1.46,0,1.66-.05,3.32-.07,5,0,2.9-.1,5.8-.16,8.7,1.88-1,3.79-1.88,5.7-2.78a.06.06,0,1,1,.06.11,63.47,63.47,0,0,1-5.77,2.9c0,2.4-.1,4.81-.13,7.22a.12.12,0,0,1-.23,0c0-3.07,0-6.14,0-9.22a54.7,54.7,0,0,1-5.65-2.29C93.58,217.85,93.64,217.69,93.74,217.73Z" style="fill:#37474f"></path><path d="M295.4,224.68c.35.35,4.46.5,6,.5s5.59-.15,5.94-.5-4.61-27.62-5.94-27.62S295.05,224.32,295.4,224.68Z" style="fill:#455a64"></path><path d="M295.32,217.73c1,.39,4.77,1.91,5.58,2.36v-.51L298.18,218a31.82,31.82,0,0,1-2.93-1.74c-.05,0,0-.13,0-.1a26.71,26.71,0,0,1,2.87,1.58c.92.54,1.83,1.1,2.74,1.66,0-1.3,0-2.61,0-3.92a30.15,30.15,0,0,1-4.28-2.17,0,0,0,0,1,0-.09,31.46,31.46,0,0,1,4.24,2.09c0-.68,0-1.36,0-2,0-3.5.05-7,.14-10.5-.89-.45-1.81-.84-2.7-1.29-.06,0,0-.13,0-.11.91.35,1.78.77,2.66,1.16.05-1.81.12-3.61.23-5.41a0,0,0,0,1,.09,0c.13,3.35.12,6.7.08,10.06.92-.74,1.9-1.39,2.84-2.1,0,0,.07,0,0,.06-1,.74-1.89,1.57-2.88,2.31,0,.19,0,.38,0,.57,1-.45,2-.88,3-1.31.08,0,.15.08.07.12-1,.49-2.06,1-3.1,1.46,0,1.66-.05,3.32-.07,5q-.06,4.35-.17,8.7,2.84-1.43,5.71-2.78a.06.06,0,0,1,.06.11c-1.87,1.06-3.8,2-5.77,2.9,0,2.4-.1,4.81-.13,7.22a.12.12,0,0,1-.23,0c0-3.07,0-6.14,0-9.22a54.7,54.7,0,0,1-5.65-2.29C295.16,217.85,295.22,217.69,295.32,217.73Z" style="fill:#37474f"></path><path d="M440.2,224.68c.35.35,4.45.5,5.95.5s5.59-.15,5.94-.5-4.61-27.62-5.94-27.62S439.85,224.32,440.2,224.68Z" style="fill:#455a64"></path><path d="M440.12,217.73c1,.39,4.77,1.91,5.58,2.36v-.51L443,218a31.82,31.82,0,0,1-2.93-1.74c-.05,0,0-.13,0-.1a25.65,25.65,0,0,1,2.86,1.58c.93.54,1.84,1.1,2.75,1.66,0-1.3,0-2.61,0-3.92a30.15,30.15,0,0,1-4.28-2.17,0,0,0,0,1,0-.09,31.46,31.46,0,0,1,4.24,2.09c0-.68,0-1.36,0-2,0-3.5,0-7,.14-10.5-.9-.45-1.81-.84-2.7-1.29-.06,0,0-.13,0-.11.91.35,1.78.77,2.66,1.16.05-1.81.12-3.61.23-5.41a0,0,0,1,1,.09,0c.13,3.35.12,6.7.07,10.06.93-.74,1.91-1.39,2.85-2.1,0,0,.07,0,0,.06-1,.74-1.9,1.57-2.88,2.31,0,.19,0,.38,0,.57,1-.45,2-.88,3-1.31.08,0,.15.08.07.12-1,.49-2.06,1-3.1,1.46,0,1.66-.05,3.32-.07,5q-.06,4.35-.17,8.7,2.83-1.43,5.71-2.78a.06.06,0,0,1,.06.11c-1.87,1.06-3.8,2-5.77,2.9-.05,2.4-.1,4.81-.13,7.22a.12.12,0,0,1-.23,0c0-3.07,0-6.14.05-9.22a54.7,54.7,0,0,1-5.65-2.29C440,217.85,440,217.69,440.12,217.73Z" style="fill:#37474f"></path><path d="M63.8,224.68c.35.35,4.45.5,5.94.5s5.6-.15,6-.5-4.62-27.62-6-27.62S63.45,224.32,63.8,224.68Z" style="fill:#455a64"></path><path d="M63.72,217.73c1,.39,4.76,1.91,5.57,2.36,0-.17,0-.34,0-.51-.91-.54-1.82-1.06-2.73-1.59a33.21,33.21,0,0,1-2.93-1.74s0-.13,0-.1a25.65,25.65,0,0,1,2.86,1.58c.93.54,1.84,1.1,2.75,1.66,0-1.3,0-2.61,0-3.92A30.58,30.58,0,0,1,65,213.3c-.05,0,0-.11,0-.09a31,31,0,0,1,4.25,2.09c0-.68,0-1.36,0-2,0-3.5,0-7,.13-10.5-.89-.45-1.8-.84-2.69-1.29-.06,0,0-.13,0-.11.9.35,1.77.77,2.66,1.16,0-1.81.12-3.61.23-5.41a0,0,0,1,1,.09,0c.12,3.35.11,6.7.07,10.06.92-.74,1.91-1.39,2.85-2.1,0,0,.07,0,0,.06-1,.74-1.9,1.57-2.88,2.31,0,.19,0,.38,0,.57,1-.45,2-.88,3-1.31.08,0,.15.08.07.12-1,.49-2.06,1-3.1,1.46,0,1.66,0,3.32-.08,5,0,2.9-.1,5.8-.16,8.7q2.83-1.43,5.7-2.78a.07.07,0,1,1,.07.11c-1.87,1.06-3.8,2-5.77,2.9q-.08,3.6-.14,7.22a.11.11,0,1,1-.22,0q0-4.6,0-9.22a55.45,55.45,0,0,1-5.64-2.29C63.55,217.85,63.62,217.69,63.72,217.73Z" style="fill:#37474f"></path><path d="M354.86,223.07c-.47.47-5.92.68-7.91.68s-7.44-.21-7.91-.68,6.14-36.74,7.91-36.74S355.33,222.61,354.86,223.07Z" style="fill:#455a64"></path><path d="M355,213.83c-1.35.52-6.34,2.55-7.42,3.14v-.68c1.2-.71,2.41-1.41,3.62-2.11a43.55,43.55,0,0,0,3.9-2.32c.06,0,0-.17-.06-.13a31.48,31.48,0,0,0-3.81,2.11c-1.23.72-2.44,1.46-3.65,2.21,0-1.74,0-3.48,0-5.22a41.64,41.64,0,0,0,5.69-2.89c.06,0,0-.15-.05-.12a40.53,40.53,0,0,0-5.65,2.78c0-.91,0-1.81,0-2.71-.05-4.66-.05-9.32-.17-14,1.18-.6,2.4-1.13,3.58-1.73a.08.08,0,0,0-.06-.14c-1.2.47-2.35,1-3.53,1.54-.07-2.4-.16-4.8-.3-7.2,0-.08-.13-.08-.13,0-.16,4.46-.15,8.92-.09,13.39-1.23-1-2.54-1.85-3.79-2.8-.05,0-.09.05-.05.08,1.31,1,2.53,2.1,3.84,3.09,0,.25,0,.5,0,.75-1.33-.6-2.68-1.17-4-1.75-.11,0-.2.11-.1.16,1.37.66,2.74,1.33,4.12,1.95q.06,3.31.1,6.63c0,3.85.14,7.71.22,11.57-2.51-1.27-5-2.51-7.59-3.7-.1,0-.18.09-.08.14a79.86,79.86,0,0,0,7.68,3.86c.06,3.21.13,6.41.17,9.62,0,.19.31.19.3,0,0-4.09-.05-8.18-.06-12.27a74.89,74.89,0,0,0,7.52-3.06C355.19,214,355.1,213.78,355,213.83Z" style="fill:#37474f"></path><path d="M376.19,222.59c-.5.5-6.37.72-8.51.72s-8-.22-8.5-.72,6.6-39.51,8.5-39.51S376.69,222.08,376.19,222.59Z" style="fill:#37474f"></path><path d="M376.31,212.65c-1.45.55-6.82,2.74-8,3.38,0-.25,0-.49,0-.74l3.9-2.27a47.64,47.64,0,0,0,4.19-2.49c.06-.05,0-.18-.06-.14a34.86,34.86,0,0,0-4.1,2.26q-2,1.17-3.93,2.38c0-1.87,0-3.74,0-5.61a45.1,45.1,0,0,0,6.12-3.11.07.07,0,0,0-.06-.13,44.84,44.84,0,0,0-6.06,3c0-1,0-1.94,0-2.92-.06-5-.07-10-.2-15,1.28-.64,2.59-1.21,3.86-1.85.09,0,0-.19-.06-.15-1.29.5-2.54,1.1-3.81,1.65-.06-2.58-.16-5.16-.32-7.74,0-.08-.13-.08-.13,0-.18,4.8-.17,9.6-.11,14.39-1.32-1.05-2.72-2-4.07-3-.05,0-.1.05-.05.09,1.41,1.06,2.72,2.25,4.13,3.31,0,.27,0,.54,0,.82-1.43-.66-2.88-1.27-4.33-1.89-.11,0-.21.12-.1.17,1.48.71,2.94,1.43,4.43,2.1,0,2.37.08,4.75.11,7.12.05,4.15.14,8.3.23,12.45q-4-2-8.16-4c-.1-.05-.19.1-.09.15a85,85,0,0,0,8.26,4.15c.07,3.45.14,6.9.19,10.35,0,.21.33.21.32,0,0-4.4-.05-8.8-.06-13.2a81.28,81.28,0,0,0,8.08-3.28C376.54,212.82,376.45,212.59,376.31,212.65Z" style="fill:#455a64"></path><path d="M385,224.68c.35.35,4.46.5,5.95.5s5.59-.15,5.94-.5-4.61-27.62-5.94-27.62S384.6,224.32,385,224.68Z" style="fill:#455a64"></path><path d="M384.87,217.73c1,.39,4.77,1.91,5.58,2.36v-.51L387.73,218a31.82,31.82,0,0,1-2.93-1.74c-.05,0,0-.13,0-.1a26.71,26.71,0,0,1,2.87,1.58c.92.54,1.83,1.1,2.74,1.66,0-1.3,0-2.61,0-3.92a30.69,30.69,0,0,1-4.28-2.17,0,0,0,0,1,0-.09,30.88,30.88,0,0,1,4.24,2.09c0-.68,0-1.36,0-2,0-3.5,0-7,.14-10.5-.89-.45-1.81-.84-2.7-1.29-.06,0,0-.13.05-.11.9.35,1.77.77,2.65,1.16.05-1.81.12-3.61.23-5.41a0,0,0,1,1,.09,0c.13,3.35.12,6.7.08,10.06.92-.74,1.9-1.39,2.84-2.1,0,0,.07,0,0,.06-1,.74-1.9,1.57-2.89,2.31V208c1-.45,2-.88,3-1.31.08,0,.15.08.07.12-1,.49-2.06,1-3.1,1.46,0,1.66-.05,3.32-.07,5q-.06,4.35-.17,8.7c1.89-1,3.8-1.88,5.71-2.78a.06.06,0,0,1,.06.11,63.47,63.47,0,0,1-5.77,2.9c-.05,2.4-.1,4.81-.13,7.22a.12.12,0,0,1-.23,0c0-3.07,0-6.14.05-9.22a54.7,54.7,0,0,1-5.65-2.29C384.71,217.85,384.77,217.69,384.87,217.73Z" style="fill:#37474f"></path><path d="M354.93,224.68c.35.35,4.45.5,5.94.5s5.59-.15,5.95-.5-4.62-27.62-5.95-27.62S354.58,224.32,354.93,224.68Z" style="fill:#455a64"></path><path d="M354.84,217.73c1,.39,4.77,1.91,5.58,2.36v-.51c-.9-.54-1.81-1.06-2.72-1.59a33.21,33.21,0,0,1-2.93-1.74s0-.13,0-.1a24.92,24.92,0,0,1,2.87,1.58c.92.54,1.84,1.1,2.75,1.66,0-1.3,0-2.61,0-3.92a31.25,31.25,0,0,1-4.28-2.17s0-.11,0-.09a30.88,30.88,0,0,1,4.24,2.09c0-.68,0-1.36,0-2,0-3.5,0-7,.13-10.5-.89-.45-1.81-.84-2.7-1.29-.05,0,0-.13.05-.11.9.35,1.77.77,2.66,1.16,0-1.81.12-3.61.23-5.41a0,0,0,0,1,.09,0c.12,3.35.11,6.7.07,10.06.92-.74,1.91-1.39,2.84-2.1,0,0,.08,0,0,.06-1,.74-1.9,1.57-2.88,2.31,0,.19,0,.38,0,.57,1-.45,2-.88,3-1.31.08,0,.15.08.07.12-1,.49-2.05,1-3.09,1.46,0,1.66-.06,3.32-.08,5,0,2.9-.1,5.8-.16,8.7q2.83-1.43,5.7-2.78a.07.07,0,1,1,.07.11,63.65,63.65,0,0,1-5.78,2.9c-.05,2.4-.1,4.81-.13,7.22,0,.15-.23.15-.22,0,0-3.07,0-6.14,0-9.22a56.57,56.57,0,0,1-5.65-2.29C354.68,217.85,354.75,217.69,354.84,217.73Z" style="fill:#37474f"></path><path d="M183,222.59c-.51.5-6.38.72-8.51.72s-8-.22-8.51-.72,6.61-39.51,8.51-39.51S183.48,222.08,183,222.59Z" style="fill:#37474f"></path><path d="M183.09,212.65c-1.45.55-6.82,2.74-8,3.38v-.74L179,213a47.64,47.64,0,0,0,4.19-2.49c.06-.05,0-.18-.06-.14a33.33,33.33,0,0,0-4.1,2.26q-2,1.17-3.93,2.38c0-1.87,0-3.74,0-5.61a45.1,45.1,0,0,0,6.12-3.11c.06,0,0-.16-.06-.13a45.55,45.55,0,0,0-6.07,3c0-1,0-1.94,0-2.92-.05-5-.06-10-.19-15,1.28-.64,2.59-1.21,3.86-1.85.08,0,0-.19-.06-.15-1.3.5-2.54,1.1-3.81,1.65-.07-2.58-.17-5.16-.32-7.74a.07.07,0,0,0-.14,0c-.17,4.8-.16,9.6-.1,14.39-1.32-1.05-2.73-2-4.07-3,0,0-.1.05,0,.09,1.4,1.06,2.72,2.25,4.13,3.31,0,.27,0,.54,0,.82-1.43-.66-2.89-1.27-4.33-1.89-.11,0-.22.12-.1.17,1.47.71,2.94,1.43,4.43,2.1,0,2.37.08,4.75.11,7.12,0,4.15.14,8.3.23,12.45q-4-2-8.16-4c-.1-.05-.2.1-.09.15a85,85,0,0,0,8.26,4.15c.07,3.45.14,6.9.19,10.35a.16.16,0,0,0,.32,0c-.05-4.4-.05-8.8-.07-13.2a80.48,80.48,0,0,0,8.09-3.28C183.33,212.82,183.23,212.59,183.09,212.65Z" style="fill:#455a64"></path><path d="M332.05,224.68c.35.35,4.45.5,5.94.5s5.6-.15,5.95-.5-4.62-27.62-5.95-27.62S331.7,224.32,332.05,224.68Z" style="fill:#37474f"></path><path d="M332,217.73c1,.39,4.76,1.91,5.57,2.36,0-.17,0-.34,0-.51-.91-.54-1.82-1.06-2.73-1.59a33.21,33.21,0,0,1-2.93-1.74s0-.13.05-.1a25.65,25.65,0,0,1,2.86,1.58c.92.54,1.84,1.1,2.75,1.66,0-1.3,0-2.61,0-3.92a30.58,30.58,0,0,1-4.27-2.17c-.05,0,0-.11,0-.09a30.33,30.33,0,0,1,4.24,2.09c0-.68,0-1.36,0-2,0-3.5,0-7,.13-10.5-.89-.45-1.8-.84-2.69-1.29-.06,0,0-.13,0-.11.9.35,1.77.77,2.66,1.16,0-1.81.12-3.61.23-5.41a0,0,0,0,1,.09,0c.12,3.35.11,6.7.07,10.06.92-.74,1.91-1.39,2.85-2.1,0,0,.07,0,0,.06-1,.74-1.9,1.57-2.88,2.31,0,.19,0,.38,0,.57,1-.45,2-.88,3-1.31.08,0,.15.08.07.12-1,.49-2.06,1-3.1,1.46,0,1.66-.05,3.32-.08,5,0,2.9-.1,5.8-.16,8.7q2.83-1.43,5.7-2.78a.07.07,0,1,1,.07.11c-1.87,1.06-3.8,2-5.77,2.9q-.09,3.6-.14,7.22a.11.11,0,1,1-.22,0q0-4.6,0-9.22a55.45,55.45,0,0,1-5.64-2.29C331.8,217.85,331.87,217.69,332,217.73Z" style="fill:#455a64"></path></g><g id="freepik--Plants--inject-222"><path d="M88.42,229.34s-.84-3.93-2.52-4.54S83.19,226,83.19,226s-.39-3.75-2.78-4.87-4.17,1.17-4.17,1.17-1.83-4.76-5.1-4.76-4.91,7-4.91,7-1.93-2.08-3.91-.91-2,5.78-2,5.78Z" style="fill:#37474f"></path><path d="M367.26,229.34s-.84-3.93-2.52-4.54S362,226,362,226s-.4-3.75-2.78-4.87-4.17,1.17-4.17,1.17-1.83-4.76-5.1-4.76-4.92,7-4.92,7-1.92-2.08-3.9-.91-2,5.78-2,5.78Z" style="fill:#455a64"></path><path d="M162.7,229.34H133.15s1-4.17,2.93-4.46a2.89,2.89,0,0,1,2.88,1.63s-.09-5.81,3.57-6.8,6.72,4.15,6.72,4.15,2.3-2.93,5.42-2.74,3.93,5,3.93,5S161.44,224.46,162.7,229.34Z" style="fill:#37474f"></path><path d="M62.16,229.34H46.61s0-2.32,1.56-2.93a2.08,2.08,0,0,1,2.44.58s.62-4.25,3.47-4.25,4.22,3.67,4.22,3.67a2.2,2.2,0,0,1,2.22-.91C62.1,225.71,62.16,229.34,62.16,229.34Z" style="fill:#455a64"></path><path d="M174.9,229.34H159.35s0-2.32,1.56-2.93a2.08,2.08,0,0,1,2.44.58s.63-4.25,3.48-4.25,4.21,3.67,4.21,3.67a2.2,2.2,0,0,1,2.22-.91C174.84,225.71,174.9,229.34,174.9,229.34Z" style="fill:#455a64"></path><path d="M404.37,229.34H388.82s0-2.32,1.56-2.93a2.08,2.08,0,0,1,2.44.58s.62-4.25,3.47-4.25,4.22,3.67,4.22,3.67a2.18,2.18,0,0,1,2.22-.91C404.31,225.71,404.37,229.34,404.37,229.34Z" style="fill:#455a64"></path><path d="M427.06,229.34H401.42s.06-3.82,2.58-4.83a3.44,3.44,0,0,1,4,1s1-7,5.73-7,6.94,6.06,6.94,6.06a3.6,3.6,0,0,1,3.66-1.49C427,223.36,427.06,229.34,427.06,229.34Z" style="fill:#37474f"></path></g><g id="freepik--Floor--inject-222"><polygon points="29.13 229.36 84.34 229.12 139.56 229.03 250 228.87 360.44 229.03 415.66 229.12 470.88 229.36 415.66 229.61 360.44 229.7 250 229.86 139.56 229.69 84.34 229.61 29.13 229.36" style="fill:#263238"></polygon></g><g id="freepik--Rocks--inject-222"><path d="M0,420.43S27.83,398.1,42.33,393.9s50.42,8,65.49,11.28c7.54,1.64,25.51,16.07,49.26,21.21s53.3,1,64.19,1.51c21.79,1,62.12-38.74,79.87-38.22s86-23.29,101.09-35.93,38.13-37.11,53.21-45.19S500,298.28,500,298.28V500H0Z" style="fill:#455a64"></path><path d="M0,500s29-36.92,42.33-51.07c8.59-9.09,61.8-10.2,68.89-12.58s31.31-24.2,48-37.1,79.34-4.62,90.76-4.87,26.52-18.95,45-25.36c36.63-12.68,88,.3,98.31,6.14,29.29,16.55,34.58,34.78,73,48.14,10.59,3.69,28.41,17.75,33.7,32.84V500Z" style="fill:#37474f"></path><path d="M216,500H69.91s54.9-28.54,64.86-42.26-1.57-19.48,2.2-29.3,25.68-28.46,39-34.95v0c25.13-3.9,65.12,1.1,74,.91a13.51,13.51,0,0,0,3.35-.54c-14.58,9.24-46.7,28.71-43.09,34.32,2.53,3.94,18.54,16.16,38.33,14.68,11.09-.83,8.71,15.29,9.34,22.37C259.32,480.79,216,500,216,500Z" style="fill:#263238;opacity:0.5"></path><path d="M500,456.14V500H302.82s55.07-6.77,68.2-8.33,69-20.71,67-25-16.31-2.16-41,2.54-48.23.11-43.1-4.87c3.62-3.52,35.78-4.67,43.1-8.34s43.7-14.71,50.35-20-4.33-19.29-15.72-31.27c8.59,6.73,18.8,13.09,34.67,18.61C476.89,427,494.71,441.05,500,456.14Z" style="fill:#263238;opacity:0.5"></path></g><g id="freepik--Dirt--inject-222"><polygon points="75.64 398.35 75.66 398.25 75.65 398.3 75.64 398.35" style="fill:#37474f"></polygon><polygon points="75.61 398.49 75.61 398.49 75.65 398.3 75.61 398.49" style="fill:#37474f"></polygon><path d="M62.57,390.93c.26,0,.42.24.72.28.27.45.13.61-.16.74a1.53,1.53,0,0,1-1-.58C62.07,391.12,62.26,390.92,62.57,390.93Z" style="fill:#37474f"></path><path d="M64.48,390.05c.26.23,0,.3,0,.45a1.31,1.31,0,0,1-.76-.26C63.44,389.87,63.93,389.46,64.48,390.05Z" style="fill:#37474f"></path><path d="M24.83,363.84c0,.16-.18.37-.35.21l-.1-.15A.25.25,0,0,1,24.83,363.84Z" style="fill:#37474f"></path><polygon points="68.27 364.1 68.28 364.04 68.46 364.06 68.45 364.13 68.27 364.1" style="fill:#37474f"></polygon><path d="M25.85,363.12c.06,0,0,.08,0,.15s-.28.07-.27-.07S25.74,363.07,25.85,363.12Z" style="fill:#37474f"></path><path d="M70.7,365l0,.21a.75.75,0,0,1-.85-.47C70,364.78,70.51,364.67,70.7,365Z" style="fill:#37474f"></path><path d="M28.38,365.29c.07.25,0,.53-.32.49a.51.51,0,0,1-.31-.42A.48.48,0,0,1,28.38,365.29Z" style="fill:#37474f"></path><path d="M20.94,348.66h-.08c.49-.06,1.2-.11,1.52.36-.05.23-.34.16-.56.14-.43,0-.66-.41-1.06-.41C20.77,348.66,20.94,348.77,20.94,348.66Z" style="fill:#37474f"></path><path d="M111,376.84s0-.14-.08-.17l.36,0c.07-.49.52,0,.68-.19a1.33,1.33,0,0,1,.71,1c-.14.44-.26.36-.41.78-.32-.17-.48.7-.88.18-.39.07-.35-.39-.7-.45.19.09,0-.25,0-.39l-.15-.16c.29-.05.23-.32.17-.56C110.78,377,110.89,376.86,111,376.84Z" style="fill:#37474f"></path><path d="M89.92,366.3c0-.05,0-.17-.08-.2l.4,0c.08-.56.59,0,.78-.22a1.49,1.49,0,0,1,.8,1.14c-.16.49-.29.4-.47.88-.35-.19-.54.8-1,.21-.43.07-.39-.45-.8-.51.23.1,0-.29,0-.45l-.16-.18c.33-.05.26-.37.2-.64C89.69,366.48,89.81,366.32,89.92,366.3Z" style="fill:#37474f"></path><path d="M24.4,350.21c.12.08.31.13.36.27-.14.22-.53.07-.75,0l-.31-.27A1.34,1.34,0,0,1,24.4,350.21Z" style="fill:#37474f"></path><path d="M26.16,349.31c.06,0,.09.1.15.11v.1c-.42.11-.68-.19-1-.28A1.4,1.4,0,0,1,26.16,349.31Z" style="fill:#37474f"></path><path d="M26,349.41c0-.05-.21.09-.23-.05Z" style="fill:#37474f"></path><path d="M26.51,348.56l0,0,0,0-.15-.06C26.42,348.53,26.49,348.49,26.51,348.56Z" style="fill:#37474f"></path><path d="M36.11,345.86s0,.07,0,.12l-.12-.09S36.09,345.88,36.11,345.86Z" style="fill:#37474f"></path><path d="M45.12,357a.23.23,0,0,1,.08.29c-.15.07-.19.07-.32,0C45,357.16,44.89,356.94,45.12,357Z" style="fill:#37474f"></path><path d="M49.32,350.84a.27.27,0,0,1,.27.12c-.1.08-.1.27-.26.25S49.2,350.91,49.32,350.84Z" style="fill:#37474f"></path><path d="M50.22,347.16c.18.11.49.24.39.5a.38.38,0,0,1-.49.38c-.29.11-.24-.25-.4-.32C49.73,347.4,50,347.32,50.22,347.16Z" style="fill:#37474f"></path><path d="M49.78,350.06c.07,0,.14,0,.18.07a.29.29,0,0,1-.14.25C49.66,350.37,49.59,350.09,49.78,350.06Z" style="fill:#37474f"></path><path d="M50.26,357.36c.09.05.2.06.26.19-.11.12,0,.29-.23.36A.28.28,0,0,1,50.26,357.36Z" style="fill:#37474f"></path><polygon points="32.36 355.56 32.03 355.62 32.13 355.49 32.36 355.56" style="fill:#37474f"></polygon><path d="M34.05,356.39c.19.12.48.21.34.46-.34.43-1,0-1.29,0H33c.1-.05,0-.16.07-.24-.42.06-.12-.37-.52-.33A2.32,2.32,0,0,1,34.05,356.39Z" style="fill:#37474f"></path><path d="M51.94,351.34c.19,0,.12.17.18.25a.18.18,0,0,1-.33,0C51.78,351.44,51.86,351.4,51.94,351.34Z" style="fill:#37474f"></path><path d="M52.58,356.9c.11.06,0,.19,0,.28s-.18,0-.28,0A.21.21,0,0,1,52.58,356.9Z" style="fill:#37474f"></path><path d="M53.19,354.41a.22.22,0,0,1,0,.35c-.12,0-.26,0-.26-.14S53.11,354.5,53.19,354.41Z" style="fill:#37474f"></path><path d="M53.05,356.61c.15.18.68,0,.47.4-.2-.11-.51.15-.66-.14C52.91,356.8,52.93,356.67,53.05,356.61Z" style="fill:#37474f"></path><path d="M37.84,356.17c.18,0,.34,0,.45-.13s-.21-.16-.13-.29c.73.26,1.71.21,2.06,1a.48.48,0,0,1-.27.4.91.91,0,0,0-.57.1c-.24-.32-.81.06-1.12-.28.06,0,.1-.06.17-.1a3.86,3.86,0,0,1-.77-.63Z" style="fill:#37474f"></path><path d="M35,376.66c.19,0,.34,0,.46-.14,0-.1-.22-.16-.14-.29.74.26,1.72.21,2.07,1a.49.49,0,0,1-.28.4.9.9,0,0,0-.56.11c-.25-.33-.82.05-1.13-.29.07,0,.1-.06.17-.09a4.23,4.23,0,0,1-.76-.64Z" style="fill:#37474f"></path><path d="M39.05,359.88c0,.6-.69.2-1,.17l-.46-.37A1.32,1.32,0,0,1,39.05,359.88Z" style="fill:#37474f"></path><polygon points="38.66 359.84 38.48 360.05 38.32 359.75 38.48 360 38.66 359.84" style="fill:#37474f"></polygon><path d="M85.24,371.48l.05.27c-.85.45-1.83-.17-2.5-.59l-.42-.39A3.15,3.15,0,0,1,85.24,371.48Z" style="fill:#37474f"></path><polygon points="40.27 360.8 40.12 360.67 40.28 360.64 40.27 360.8" style="fill:#37474f"></polygon><path d="M42.1,361.32a1.25,1.25,0,0,1,.25.26c0,.16-.19.26-.31.29a1.42,1.42,0,0,1-1-.39l-.05.06c-.07,0,.12-.05.17-.09s-.17-.11-.26-.15A1.34,1.34,0,0,1,42.1,361.32Z" style="fill:#37474f"></path><path d="M41.68,361.55l-.1-.1c-.14.17,0,0-.16,0C41.63,361.59,41.5,361.28,41.68,361.55Z" style="fill:#37474f"></path><path d="M42.93,362.36a1.31,1.31,0,0,1,1.2.08c.12.13.3.34.06.45a1.61,1.61,0,0,1-1,0c-.06-.26-.39-.23-.58-.34C42.63,362.42,43.08,362.67,42.93,362.36Z" style="fill:#37474f"></path><polygon points="43.37 362.4 43.41 362.48 43.36 362.48 43.37 362.4" style="fill:#37474f"></polygon><path d="M45.58,374.23c.11.06,0,.14,0,.21-.23.27-.67.09-.94,0-.07-.23-.3,0-.42-.16C44.68,374.25,45.12,374,45.58,374.23Z" style="fill:#37474f"></path><path d="M59.8,349.22c.09.52-.48.34-.77.42-.74,0-1-.76-1.64-.92l-.3-.25C57.89,348.82,59.25,348.17,59.8,349.22Z" style="fill:#37474f"></path><path d="M56.54,368.44c0,.07.15.09.18.18s0,.35-.25.41l-.66-.07s0-.07.06-.11l-.25-.2C55.78,368.26,56.22,368.4,56.54,368.44Z" style="fill:#37474f"></path><polygon points="51.5 367.86 51.26 367.88 51.34 367.84 51.5 367.86" style="fill:#37474f"></polygon><path d="M61.8,369.52l.1-.09c0-.1-.14,0-.21-.07.25-.28.57-.22,1-.32.19.15.47.25.49.57s-.26.3-.4.43-.47-.29-.76-.13l.05-.06-.43-.42C61.66,369.46,61.78,369.41,61.8,369.52Z" style="fill:#37474f"></path><polygon points="58.79 343.11 58.57 342.99 58.8 343.02 58.79 343.11" style="fill:#37474f"></polygon><path d="M58.79,344.49c.15-.05-.16.19-.22.1l.34.31-.46-.27Z" style="fill:#37474f"></path><path d="M58.94,344.58c0-.11.22,0,.29,0s.21.2.14.36-.16,0-.23,0,.17-.05.25-.14a.39.39,0,0,0-.38-.2s0,.07,0,.11l-.22,0,.18-.09Z" style="fill:#37474f"></path><path d="M60.2,343l0-.06,0,.06-.24.08C60.07,343.14,60.13,343.06,60.2,343Z" style="fill:#37474f"></path><path d="M61.57,360.43c.54.17,1.29-.28,1.76.27a.41.41,0,0,1-.45.51c-.55,0-.86-.49-1.33-.68Z" style="fill:#37474f"></path><path d="M65.6,371.84c.25,0,.58,0,.65.33s-.23.25-.36.37-.38-.11-.57-.16c0-.08.07-.16,0-.17C65.44,372,65.33,372,65.6,371.84Z" style="fill:#37474f"></path><path d="M64.62,352.87c.21.05.47.17.52.37a.31.31,0,0,1-.35.32c-.27,0-.58-.05-.71-.28S64.4,353,64.62,352.87Z" style="fill:#37474f"></path><path d="M66.32,373.37c.17-.11-.08-.23,0-.26s.13.1.15.13l0,.07a.32.32,0,0,1-.48-.06C66.11,373.26,66.17,373.41,66.32,373.37Z" style="fill:#37474f"></path><path d="M66.57,340.57c.27,0,.44.14.6.33,0,.23-.09.55-.34.48S66.16,340.78,66.57,340.57Z" style="fill:#37474f"></path><path d="M90.88,390c.3,0,.49.15.67.37,0,.27-.1.63-.38.54S90.41,390.25,90.88,390Z" style="fill:#37474f"></path><path d="M66.65,346.23c0-.08,0-.11-.07-.16.11-.22.25,0,.3.08.57,0,1.26-.19,1.68.42a.54.54,0,0,1-.35.56l-.95-.16.06,0a3.56,3.56,0,0,1-1-.71C66.45,346.23,66.57,346.31,66.65,346.23Z" style="fill:#37474f"></path><path d="M66.3,356.4c0,.1,0,.17.06.27v-.07h.09v.07c-.06,0-.08,0-.1,0s.25.22.34,0c-.42-.11,0-.43-.18-.58.28,0,.89-.09.95.41a.67.67,0,0,1-.35.37,2.07,2.07,0,0,0-.7,0s.09,0,.13,0v-.07l-.34-.08c.06-.06,0-.2.11-.25l-.24-.14C66.15,356.4,66.25,356.48,66.3,356.4Z" style="fill:#37474f"></path><path d="M68.3,380.87c.19.18-.07.37-.18.42-.36.17-.62-.32-.93-.12C67.51,381,67.92,380.7,68.3,380.87Z" style="fill:#37474f"></path><path d="M66.63,356.52c.09,0-.11.1-.1.06v-.07Z" style="fill:#37474f"></path><path d="M66.83,356.36a1,1,0,0,0,.14.27l-.09.1c.05,0,0,.09,0,.15l-.16-.23c.07-.13.2-.13.09-.29l-.11.13C66.72,356.41,66.79,356.4,66.83,356.36Z" style="fill:#37474f"></path><path d="M96.16,387.75l0-.34c.07-.11.61.91.79.16.39.65,1.31,1.07,1.19,1.91.08,0,.14.16.24.11l-.09-.32c.44.21,1.1.25,1.32.79,0,.13,0,.36-.18.39-1.08.29-1.22-1.56-2.44-.69a2.19,2.19,0,0,1-1.44-.94l-.56-.16c.4.18.32-.32.5-.42l-.29-.2.34-.05-.14-.47C95.51,387.62,95.85,387.89,96.16,387.75Z" style="fill:#37474f"></path><path d="M115.74,395.72l0-.34c.08-.1.6.91.78.16.38.65,1.29,1.06,1.17,1.89.08,0,.14.15.24.1l-.09-.32c.44.22,1.08.26,1.3.79,0,.12,0,.35-.18.38-1.06.28-1.2-1.53-2.4-.68a2.16,2.16,0,0,1-1.42-.92l-.55-.16c.39.17.31-.32.49-.41l-.28-.2.34-.05-.14-.46C115.1,395.6,115.44,395.86,115.74,395.72Z" style="fill:#37474f"></path><path d="M69.69,374c.22.13.59,0,.63.45s-.37.17-.55.34c-.17,0-.19-.22-.38-.16l0,0C69.43,374.47,69.34,373.92,69.69,374Z" style="fill:#37474f"></path><path d="M69.69,348.83a.82.82,0,0,1,.83.1c0,.11.14.24,0,.3-.27.29-.64,0-.91-.11C69.78,349.1,69.62,348.9,69.69,348.83Z" style="fill:#37474f"></path><polygon points="70.03 349.02 69.76 348.99 69.77 348.94 70.03 349.02" style="fill:#37474f"></polygon><path d="M72.2,377.14c-.21-.05.08-.18,0-.25.18,0,.51-.11.62.17s-.2.18-.34.32l-.37-.16Z" style="fill:#37474f"></path><polygon points="72.3 377.1 72.51 377.12 72.37 377.25 72.41 377.21 72.21 377.08 72.31 376.99 72.3 377.1" style="fill:#37474f"></polygon><path d="M76.94,379.08c.2-.16.59-.37.86-.14a.93.93,0,0,1,.49.52c-.19.58-.79.31-1.17.46l.06,0c0-.27-.3-.25-.43-.38A.64.64,0,0,0,76.94,379.08Z" style="fill:#37474f"></path><path d="M76.15,388.64c0-.08-.08-.14-.1-.2l-.11,0c.48.05,1-.32,1.47.09.09.24-.29.56-.55.55a2.09,2.09,0,0,1-1-.33Z" style="fill:#37474f"></path><path d="M74.85,348.22a1,1,0,0,1,1-.06.59.59,0,0,1,.38.57c0,.3-.26.42-.48.5s-.39-.16-.62,0c.27-.46-.59-.21-.24-.55l-.17-.13C74.85,348.53,74.93,348.34,74.85,348.22Z" style="fill:#37474f"></path><path d="M74.33,355.9l.06,0v0l.12,0,0,.1-.2-.17S74.29,355.91,74.33,355.9Z" style="fill:#37474f"></path><path d="M78,382.26l0-.23c.14.13.45.11.68.14s.39.11.4.44c0,.5-.31.53-.62.67-.1-.22-.29,0-.46-.06,0-.06,0-.08.07-.13-.32-.07-.07-.21-.35-.36l.06-.05-.23-.16C77.93,382.54,77.64,382.13,78,382.26Z" style="fill:#37474f"></path><path d="M75.43,356c0,.19-.26.18-.32.22l-.49-.13.15-.14c-.13.27.2.22.25.25s.14-.13.12-.24c-.1-.32-.39-.11-.52-.13l0,0-.3-.11C74.74,355.65,75.26,355.52,75.43,356Z" style="fill:#37474f"></path><path d="M82.91,361.69a.14.14,0,0,1,.15.08l0,.18-.21-.14C82.87,361.76,82.94,361.74,82.91,361.69Z" style="fill:#37474f"></path><path d="M83.68,377.46c0,.05,0,.08,0,.14l-.13.07,0,0c0,.07.11-.21,0-.32,0,.08.07.07.12.08Z" style="fill:#37474f"></path><path d="M91.63,362.5l.06,0-.07.17C91.49,362.66,91.45,362.48,91.63,362.5Z" style="fill:#37474f"></path><path d="M92,362.81c.24-.07,0,0-.08,0L92,363l.37,0,0-.1,0,.1c.15,0,.11-.15.17-.21-.15-.18-.43-.13-.66-.09l0-.08A1.87,1.87,0,0,1,93,363a.38.38,0,0,1,0,.37,1.55,1.55,0,0,1-1.25-.58Z" style="fill:#37474f"></path><polygon points="92.34 363.22 92.3 363.14 92.51 363.09 92.34 363.22" style="fill:#37474f"></polygon><path d="M92.47,383c.22.26,0,.54-.23.67-.18-.09-.4,0-.58-.08,0,0,.26-.35,0-.4.12.23-.26.18-.42.1h.22c0-.22-.22-.21-.3-.41l.22,0-.09-.27C91.66,382.68,92.11,382.63,92.47,383Z" style="fill:#37474f"></path><path d="M94.68,370.17c.48.23,1,.26,1,.87-.11.28-.53.23-.76.17l-.6-.37.08,0-.1-.36h.08l-.12-.23C94.49,370.33,94.77,370.32,94.68,370.17Z" style="fill:#37474f"></path><path d="M95.24,370.64c0-.14-.22-.17-.28-.24a.58.58,0,0,1,.29,0c.15.22-.13.35-.17.48-.24,0-.44-.3-.59-.28C94.91,370.78,94.77,370.32,95.24,370.64Z" style="fill:#37474f"></path><path d="M95.13,370.82c-.07,0-.13,0-.13,0l0,.07-.13-.08,0-.07.08.05,0-.23Z" style="fill:#37474f"></path><path d="M89.38,383c.05.1-.1.19-.13.29-.27.11-.46-.07-.69-.22.18,0,.19.15.4,0l0-.28c-.11.05-.28,0-.28-.09C88.94,382.68,89.26,382.69,89.38,383Z" style="fill:#37474f"></path><path d="M98.1,370v.21l-.37,0c.06,0,.12,0,.13-.05l0-.11-.35.09c0-.14-.13-.15-.19-.21l.16.1.06-.09,0,.09.25-.14-.55-.36C97.53,369.62,97.91,369.64,98.1,370Z" style="fill:#37474f"></path><path d="M101.11,399.81c.31-.23-.18-.3-.19-.48.16,0,.2.31.42.16a.41.41,0,0,0-.33-.39l0,0c.32,0,.66.51,1,.23-.09-.07-.07-.29.07-.29.33.21.64,0,1,.17l0-.19a5.42,5.42,0,0,1,.84.57c0-.46.49.3.64,0,0,.31.13.58.34.53a1.58,1.58,0,0,1,0,1.45c0,.32-.25.22-.49.47v-.1c-.09.08-.29.08-.24.25a.57.57,0,0,0-.54,0c-.14.18-.44.24-.54.08-.09,0-.11.06-.13.1a.31.31,0,0,0-.29-.07,3.5,3.5,0,0,0-1.51-.37l.19,0,0-.2-.54.09c.16-.14.51-.12.52-.36s-.27-.17-.41-.25h.2c0-.24-.43-.14-.51-.42.41-.1.34-.38.23-.66l-.44-.32A.6.6,0,0,0,101.11,399.81Z" style="fill:#37474f"></path><path d="M99.58,373.32c-.08,0-.12,0-.17.11s.17.27.27.4l.17-.11c0-.22-.25,0-.19-.28.27-.16.38.25.57.38-.07.39-.46.17-.62,0s-.26-.36-.4-.55C99.27,373.3,99.49,373.17,99.58,373.32Z" style="fill:#37474f"></path><path d="M102.55,376.53c.19.29.22.75,0,.84s-.22.14-.29.19c.23.22.37.66,0,.83-1.09-.18-1.39-1.31-1.64-1.83l.25,0-.14-.26A1.87,1.87,0,0,1,102.55,376.53Z" style="fill:#37474f"></path><path d="M125.26,396.21l-.1-.08c.17.07.36,0,.56,0,0-.11,0-.2-.12-.26h-.08c.11-.05.35.27.43-.06l0-.09c.41.41.8.06,1.16.43.63-.14.7.62,1,.82-.14.14,0,.35,0,.53l-.63.84a1.67,1.67,0,0,0-.72.13,1.56,1.56,0,0,1,.15,1.05c-.18.61-.72.26-1.09.5-.11-.28-.45-.35-.71-.38h-.17c.47-.22-.22-.55-.38-.8l-.14-.11c.14,0,.29.12.39,0l-.35-.26a.38.38,0,0,0,.29.05v-.22c.06.08.14,0,.22,0s0-.14,0-.22l.24,0c0-.22-.16-.35.06-.51l-.43-.45H125a.28.28,0,0,0-.17-.28h-.07l.21-.07-.32-.3C124.84,396.34,125.36,396.64,125.26,396.21Z" style="fill:#37474f"></path><path d="M80.72,388.63l-.1-.08c.17.07.37,0,.57,0,0-.11,0-.2-.13-.26H81c.1,0,.35.27.44-.06l0-.09c.41.41.8.06,1.17.43.63-.14.71.63,1,.83-.14.15,0,.36,0,.54l-.65.86a1.59,1.59,0,0,0-.73.14,1.47,1.47,0,0,1,.15,1.06c-.17.62-.72.26-1.1.5-.11-.28-.46-.35-.72-.38h-.17c.47-.23-.23-.56-.39-.82l-.15-.11c.15,0,.3.13.41,0l-.36-.27a.38.38,0,0,0,.29.05v-.22c.06.08.15,0,.22,0s0-.15,0-.22l.24,0c0-.22-.16-.35.06-.51l-.44-.46h.23a.3.3,0,0,0-.17-.29h-.08l.22-.07-.33-.3C80.29,388.76,80.82,389.06,80.72,388.63Z" style="fill:#37474f"></path><path d="M103.07,394.75l0-.18c.41,0,1-.31,1.58.14.35.21.41.52.64.91-.21.65-.64.76-1.23.87-.18-.28-.85-.31-1.11-.56h-.11l.25,0-.54-.71C102.74,395.12,102.87,394.86,103.07,394.75Z" style="fill:#37474f"></path><rect x="100.09" y="381.57" width="0.05" height="0.18" transform="translate(-271.12 247.98) rotate(-55.5)" style="fill:#37474f"></rect><path d="M103.92,382.28s-.1.05-.13.06.1-.34-.09-.29C103.8,382,104,382.13,103.92,382.28Z" style="fill:#37474f"></path><path d="M105.61,383.78v-.1c-.06,0,.33.08.33-.15.8.05.25,1.23,1.2,1,.09.51.66.69.43,1.23-.24.38-.71.33-1.08.22l-.54-.22c.08-.07,0-.19-.08-.21l-.21-.15c.36-.2-.22-.32-.19-.59l.06.05c.19-.36-.27-.42-.22-.77l-.13-.18C105.27,383.76,105.47,383.84,105.61,383.78Z" style="fill:#37474f"></path><path d="M113.16,390.38c-.09-.15.26.11.17-.16.2.15.33-.09.5,0v-.07c.22.36.58-.28.88.36.41-.09.22.51.49.57a.93.93,0,0,1-.48,1c-.41.15-.2,0-.69.11l-.24,0c.12-.36-.47.14-.39-.28-.16-.09-.33-.05-.47-.2a.21.21,0,0,0,.15-.09c0-.16-.2-.2-.28-.29l.14-.1-.16-.26c.07,0,.11,0,.15-.09l-.11-.14C112.87,390.46,113.27,390.78,113.16,390.38Z" style="fill:#37474f"></path><path d="M73.44,390.06c-.09-.14.26.11.17-.15.2.14.33-.1.5,0v-.07c.22.37.58-.28.88.36.41-.09.22.51.49.57a.92.92,0,0,1-.48,1c-.41.16-.2,0-.69.12l-.24,0c.12-.37-.47.14-.39-.29-.16-.09-.33,0-.47-.2a.21.21,0,0,0,.15-.09c0-.16-.2-.2-.28-.29l.14-.1-.16-.25c.07,0,.11,0,.15-.1l-.11-.14C73.15,390.14,73.55,390.46,73.44,390.06Z" style="fill:#37474f"></path><path d="M61.53,376c-.08-.15.27.11.18-.16.2.15.33-.09.5,0v-.07c.22.36.58-.28.88.36.41-.09.22.51.49.57a.91.91,0,0,1-.49,1c-.4.16-.19,0-.68.12l-.24,0c.12-.36-.48.14-.39-.28-.16-.09-.34-.05-.47-.2a.17.17,0,0,0,.14-.09c0-.16-.19-.21-.27-.29l.13-.1-.15-.26c.07,0,.11,0,.15-.09l-.12-.14C61.25,376.05,61.64,376.37,61.53,376Z" style="fill:#37474f"></path><polygon points="112.06 392.74 111.72 392.54 111.93 392.64 112.06 392.74" style="fill:#37474f"></polygon><path d="M114.52,404.39l.1-.13c.1.16.2-.05.31-.05.25.21.65.43.53.74l-.39.34c-.07-.17-.34-.08-.51-.12.13-.14-.19-.23-.16-.24l.08,0c-.14-.16-.13-.24-.18-.48A.11.11,0,0,0,114.52,404.39Z" style="fill:#37474f"></path><rect x="114.53" y="404.61" width="0.05" height="0.23" transform="translate(-278.29 254.39) rotate(-53.26)" style="fill:#37474f"></rect><path d="M108.27,415.23a.41.41,0,0,1-.06.72.55.55,0,0,1-.56-.27C107.52,415.41,108,414.87,108.27,415.23Z" style="fill:#37474f"></path><path d="M117.87,400.71c.09-.16.1-.09.26-.25.21.06.54.21.56.48a.53.53,0,0,1-.37.49c-.29,0-.19,0-.46-.11,0-.24-.24-.44,0-.65Z" style="fill:#37474f"></path><path d="M119.63,400.94c-.06.11-.15.11-.26.13s-.14-.24,0-.32Z" style="fill:#37474f"></path><path d="M115.24,408.44a.52.52,0,0,1,.5.17c0,.11,0,.29-.16.28a.67.67,0,0,1-.47-.15c0-.1,0-.26.16-.22Z" style="fill:#37474f"></path><path d="M115.39,408.69l0,.08c.14,0-.32.05-.16-.17S115.38,408.63,115.39,408.69Z" style="fill:#37474f"></path><path d="M113.21,412l-.15-.26c.14.16.31.12.5.09a.18.18,0,0,0,0-.17c.1.13.24.1.37.14l0-.23c.4.42,1.39.68,1.19,1.59l-.62.63v-.07c-.38.24-.67,0-1,.18l-.07.09-.09-.33c-.21.05,0-.11-.14-.19l-.49-.08c0-.08.13,0,.19-.06,0-.21-.15-.17-.27-.2.18-.09.11-.37.11-.75-.08,0-.12,0-.17-.07s.19,0,.27,0l0,0-.26-.29C112.84,411.9,113.06,412.29,113.21,412Z" style="fill:#37474f"></path><path d="M118.05,406.17c.22,0,.27-.06.28-.24l0-.11c-.09,0,.2.08.16.22.18,0,.29-.3.47,0,.28,0,.09-.28.16-.42.26.17,0,.41.38.51.62-.3.56.62,1,.58,0,0,.3.19.16.38.07.08.17,0,.22,0,.17.28-.11.78.09.9s-.05.31,0,.49a.27.27,0,0,0-.09.32c-.46-.06.12.57-.36.4-.17.1,0,.32,0,.38s-.14-.27-.34-.26c.14.63-.54.12-.7.63,0-.16-.23-.17-.32-.08l-.08.1c-.07-.37-.51-.09-.67-.21s-.22-.72-.78-.5c-.26,0,.2-.72-.36-.66l-.25,0c0-.28.43,0,.35-.34s-.27,0-.44,0c.07-.05.73-.16.36-.56l-.42-.16a1.86,1.86,0,0,0,.49-.24c.12-.32-.41-.18-.22-.33.14,0,.32.12.38-.1l-.19-.46C117.59,406.57,117.76,406.05,118.05,406.17Z" style="fill:#37474f"></path><path d="M122.75,418.93s0-.09,0-.11c.17-.19.62-.14.74-.47.35.27.7-.37,1,0,.19.09.3-.27.39.08.09,0,.14-.06.18-.12.3.46.88.54,1,1.09.21.19-.1.5.23.63l-.18,0c-.09.29.22.68-.24.82l-.08.32a1.31,1.31,0,0,0-.81.42c-.2,0-.49-.28-.63,0-.19-.34-.43.06-.65.06l0-.18-.27.05c0-.09.17-.13.11-.23a.86.86,0,0,0-.7-.09s.06-.12.15-.11c0-.26-.28-.05-.39-.2l.08-.11-.18-.13.08,0c0-.3-.3-.24-.44-.34.08-.07.32-.05.27-.24l0-.36c-.07,0-.13,0-.19,0l.37-.2c0-.29-.42,0-.47-.26C122.44,419.46,122.35,418.94,122.75,418.93Z" style="fill:#37474f"></path><path d="M129.82,403.26c-.06.12,0,.27-.11.36s-.4-.19-.38-.34C129.62,403.27,129.55,403,129.82,403.26Z" style="fill:#37474f"></path><path d="M138.59,396.7c.13,0,.11.15.12.26s-.34.16-.49.14c-.19-.21.06-.08-.06-.34A.39.39,0,0,1,138.59,396.7Z" style="fill:#37474f"></path><path d="M127.68,416.8c.08.16.27.2.22.43-.12,0-.26.22-.42.13l-.14-.11c0-.18.41.06.22-.29l-.21.07C127.46,416.92,127.51,416.77,127.68,416.8Z" style="fill:#37474f"></path><path d="M133.9,410.09a1.35,1.35,0,0,1,.4-.31,1.33,1.33,0,0,1,1,.42c.11.53.29.76-.07,1.1.09.26-.41.08-.2.4-.17,0-.49-.25-.48.12.15-.12-.28-.28-.39-.3l-.06.08c-.06-.05,0-.22-.14-.24-.29.17-.15-.27-.39-.29.1,0,.12-.07.17-.13s-.15-.15-.22-.23h.1l0-.4.18,0-.1-.17Z" style="fill:#37474f"></path><path d="M46.07,381a1.33,1.33,0,0,1,.35-.28,1.24,1.24,0,0,1,.87.38c.1.48.25.68-.06,1,.08.23-.37.06-.19.35-.15,0-.43-.22-.42.1.13-.1-.25-.24-.35-.26l-.05.07c-.06,0,0-.19-.13-.21-.26.15-.13-.24-.35-.26.09,0,.11-.07.15-.12s-.13-.13-.19-.2h.08v-.36l.16,0-.08-.15Z" style="fill:#37474f"></path><path d="M133.87,412.16c.12,0,.39.29.53,0,0,.1.18.07.26,0l.08-.11c0,.14.11.15.16.22s.11-.11.19-.17c0,.13.1.17.1.3l.24.06c0,.06,0,.14,0,.22.44.05.23.53.41.76s-.34.45,0,.76c-.65.08-.32.76-1.07.89-.05,0-.12-.06-.12-.15-.17-.07-.28.17-.29.3-.1-.08-.08-.2-.09-.3-.42.29-.6-.3-.88-.28.16-.17-.2-.2-.17-.37l-.18,0,.22-.16c-.14,0-.15-.24-.39-.13.08-.3.46-.52.09-.71.17,0,.22-.12.33-.21C132.94,412.58,133.94,412.66,133.87,412.16Z" style="fill:#37474f"></path><path d="M136.51,418.68c.23-.09.08-.36,0-.42a.37.37,0,0,0,.29-.17c0-.14-.11-.15-.16-.22.18-.06.34.39.48.08l0-.18.32.09v-.29c.09.13.47.26.62,0l.09-.32c.05,0,.06.08.05.13.26.13.27-.47.48-.11.15-.37.6-.48.7-.7.11.19.23-.05.34-.06s.06.17.15.22c.21-.27.1.2.32.08.12.18.07.54.38.52-.38.13-.08.48-.2.68.35.21.24-.39.55-.34,0,.35-.52.47-.15.82l.26,0c0,.14-.2.46.12.42l-.08.39.2.08c0,.08-.15.12-.11.22s.15,0,.22,0a.56.56,0,0,0-.17.52l.21.06-.3.38c.34.2-.27.28,0,.57-.44,0-.2.46-.15.6-.11,0-.21-.14-.31,0-.3.18.09.29.09.46l-.31-.18c-.16.08-.22.29-.27.44l.06,0c-.1.12-.6,0-.43.34,0-.05-.08,0-.15,0s0,.32-.11.44-.05-.69-.42-.33l-.31.48.09-.48c-.67-.26-.85.84-1.48.41.19-.21,0-.43-.16-.51s-.49.27-.75,0c.36-.33-.08-.81-.36-.82s-.33.23-.5.16c.06-.18.55-.22.45-.59l-.35-.05c.16,0,.24-.27.23-.43l-.26,0c.1-.09.36-.08.22-.29l-.3-.1c0-.12.25,0,.27-.18s0-.37-.22-.3.33-.1.13-.38l-.18-.14c.16,0,.39,0,.48-.25l-.35-.27c.13,0,.3,0,.35-.12l-.22-.33C136.13,418.68,136.33,418.87,136.51,418.68Z" style="fill:#37474f"></path><path d="M122.33,391.13c.2.21.6.28.46.72-.23.26-.71.73-.94.23l-.18,0-.11-.46c.3-.06,0-.46.37-.5C122.05,391.21,122.25,391.33,122.33,391.13Z" style="fill:#37474f"></path><path d="M123.12,392.65l.37.11Z" style="fill:#37474f"></path><polygon points="124.22 393.02 123.72 392.87 123.77 392.81 123.62 392.8 123.7 392.7 124.22 393.02" style="fill:#37474f"></polygon><path d="M119.93,389.63c-.05,0,0-.06-.07-.12.12,0,.18.07.29.05l-.17-.29c.23.12.42,0,.65,0v-.07a1.63,1.63,0,0,1,1.32.67c.13.35.13.86.56,1,0,.24-.32,0-.23.22s-.13.64-.18,1c-.44,0-.5.2-.78.4-.16,0-.41-.18-.48.12l0-.27c-.26,0-.29.27-.44.38l-.09-.39c-.3.13-.64-.22-.87-.26,0-.46-.59-.32-.88-.28,0-.26.7-.25.59-.71-.07,0-.15.08-.22,0-.07-.41.59-.14.4-.54l-.78,0C119.15,390.26,119.73,390.34,119.93,389.63Z" style="fill:#37474f"></path><path d="M88.81,373.4c-.06,0,0-.07-.08-.12a1,1,0,0,0,.29.05l-.17-.3a.73.73,0,0,0,.66,0v-.07a1.68,1.68,0,0,1,1.34.68c.13.36.13.88.56,1,0,.25-.32-.05-.23.22s-.13.65-.18,1c-.45,0-.51.21-.79.42-.17,0-.42-.19-.49.12l0-.28c-.27,0-.3.27-.45.38l-.09-.39c-.3.13-.65-.22-.88-.27,0-.46-.61-.32-.9-.28,0-.27.71-.25.6-.72-.07,0-.15.08-.22,0-.08-.42.6-.14.41-.55l-.8,0C88,374,88.6,374.12,88.81,373.4Z" style="fill:#37474f"></path><path d="M124.45,393.1l.29,0Z" style="fill:#37474f"></path><polygon points="119.84 393.35 119.8 393.32 119.93 393.15 119.84 393.35" style="fill:#37474f"></polygon></g><g id="freepik--Car--inject-222"><path d="M269.24,197.36l-19.45-15.73a8.2,8.2,0,0,0-6.1-1.78L96.13,197.3a8.11,8.11,0,0,0-5.51,3.16l-13.84,18-2.37-1.83,13.83-18a11.12,11.12,0,0,1,7.54-4.31l147.56-17.44a11.24,11.24,0,0,1,8.33,2.42L271.13,195Z" style="fill:#263238"></path><rect x="84.16" y="193.94" width="173.35" height="3" transform="translate(-21.77 21.41) rotate(-6.74)" style="fill:#263238"></rect><rect x="99.85" y="195.25" width="3" height="19.58" transform="translate(-23.38 13.32) rotate(-6.74)" style="fill:#263238"></rect><rect x="123.3" y="192.47" width="3" height="19.58" transform="translate(-22.89 16.05) rotate(-6.74)" style="fill:#263238"></rect><rect x="146.74" y="189.7" width="3" height="19.58" transform="translate(-22.41 18.8) rotate(-6.75)" style="fill:#263238"></rect><rect x="170.19" y="186.93" width="3" height="19.58" transform="translate(-21.91 21.52) rotate(-6.74)" style="fill:#263238"></rect><rect x="193.64" y="184.15" width="3" height="19.58" transform="translate(-21.43 24.26) rotate(-6.74)" style="fill:#263238"></rect><rect x="217.09" y="181.38" width="3" height="19.58" transform="translate(-20.94 26.99) rotate(-6.74)" style="fill:#263238"></rect><rect x="240.53" y="178.61" width="3" height="19.58" transform="translate(-20.45 29.73) rotate(-6.75)" style="fill:#263238"></rect><polygon points="95.33 359.81 146.23 353.79 199.31 369.84 326.03 349.46 437.98 336.22 433.72 300.16 409 280.67 105.33 316.58 94.51 351.99 95.33 359.81" style="fill:#FFA52E"></polygon><polygon points="95.33 359.81 146.23 353.79 199.31 369.84 326.03 349.46 437.98 336.22 433.72 300.16 409 280.67 105.33 316.58 94.51 351.99 95.33 359.81" style="opacity:0.6000000000000001"></polygon><polygon points="432.96 293.77 429.16 261.62 415.87 251.14 299.05 256.25 276.43 200.88 68.38 225.49 67.83 279.35 77.07 357.51 93.36 355.58 108.89 324.6 166.8 317.75 192.56 358.14 326.19 342.33 360.37 293.42 412.77 287.23 425.06 294.74 432.96 293.77" style="fill:#FFA52E"></polygon><g style="opacity:0.2"><polygon points="193.87 210.65 197.16 235.93 200.39 261.22 200.4 261.3 200.38 261.39 198.01 272.86 198.02 272.66 202.01 304.67 205.88 336.69 204.88 335.9 250.86 330.37 296.86 325.02 296.06 326.03 291.74 288.53 287.55 251.02 287.58 251.16 278.36 226.46 269.22 201.74 278.95 226.24 288.61 250.76 288.64 250.82 288.64 250.89 293.31 288.35 297.86 325.82 297.97 326.71 297.07 326.82 251.09 332.35 205.1 337.69 204.2 337.8 204.09 336.91 200.39 304.86 196.81 272.81 196.79 272.7 196.81 272.61 199.33 261.17 199.32 261.35 196.56 236 193.87 210.65"></polygon><path d="M318.09,255.42c.51,3.15,1,6.31,1.43,9.47s.94,6.32,1.37,9.48l-.61-.48c9-1.28,18.1-2.45,27.16-3.59s18.12-2.23,27.19-3.26,18.15-2,27.24-3,18.18-1.77,27.28-2.51q-13.53,2.1-27.12,3.92T374.86,269q-13.59,1.66-27.21,3.17c-9.07,1-18.15,2-27.24,2.84l-.56.06-.06-.54c-.32-3.18-.58-6.36-.88-9.54S318.34,258.6,318.09,255.42Z"></path><path d="M347.3,292.85a36.56,36.56,0,0,1-1.4-5.24q-.54-2.62-.86-5.3c-.21-1.77-.34-3.55-.41-5.35a36.34,36.34,0,0,1,.15-5.41,36.08,36.08,0,0,1,1.4,5.23c.36,1.76.65,3.52.85,5.3s.34,3.56.41,5.35A37.9,37.9,0,0,1,347.3,292.85Z"></path><path d="M293.85,299.61q-3.45.64-6.92,1.14c-2.32.36-4.63.68-6.95,1l.42-.52q.56,4.34,1,8.69l-.53-.42q3.48-.37,7-.66c2.33-.22,4.66-.38,7-.51-2.3.42-4.61.81-6.93,1.14s-4.62.68-6.94,1l-.47.06-.06-.48q-.56-4.33-1-8.69l-.05-.48.47,0q3.48-.37,7-.67T293.85,299.61Z"></path><path d="M286.26,304.92a1.23,1.23,0,1,1-1.37-1.08A1.23,1.23,0,0,1,286.26,304.92Z"></path><path d="M293.31,302.84l.29,2.44-2.76.33a.61.61,0,0,1-.13,0,1.23,1.23,0,0,1-1.37-1.08,1.25,1.25,0,0,1,1.08-1.38Z"></path><path d="M289.53,263.07c-2.31.42-4.61.8-6.93,1.14s-4.62.68-6.94,1l.42-.53q.56,4.33,1,8.69l-.53-.41c2.32-.25,4.65-.48,7-.67s4.66-.38,7-.51c-2.31.43-4.61.81-6.93,1.14s-4.62.68-6.94,1l-.47.06-.06-.47q-.56-4.35-1-8.7l-.05-.48.47-.05q3.48-.37,7-.66C284.86,263.36,287.19,263.2,289.53,263.07Z"></path><path d="M281.94,268.37a1.23,1.23,0,1,1-1.37-1.07A1.24,1.24,0,0,1,281.94,268.37Z"></path><path d="M289,266.3l.29,2.44-2.76.33-.13,0a1.23,1.23,0,1,1-.29-2.45Z"></path><path d="M311.44,312.08l-6.7.79-2.51-21.17,16.3-1.93,1.37,11.59Zm-4.95-1.43,3.89-.45,7.44-9.43-1-8.78-12.33,1.46Z"></path><path d="M212.43,279.39a3.72,3.72,0,1,1,3.25-4.13A3.72,3.72,0,0,1,212.43,279.39Zm-.75-6.39a2.71,2.71,0,1,0,3,2.38A2.72,2.72,0,0,0,211.68,273Z"></path><rect x="211.5" y="274.22" width="1" height="2.96" transform="translate(-30.9 26.79) rotate(-6.74)"></rect></g><path d="M336.87,254.59l1,8.32A1,1,0,0,1,337,264h0a1,1,0,0,1-1.11-.88l-1-8.46Z"></path><path d="M343.16,254.32l.93,7.85a1,1,0,0,1-.88,1.11h0a1,1,0,0,1-1.11-.88l-.94-8Z"></path><path d="M349.45,254l.88,7.39a1,1,0,0,1-.88,1.11h0a1,1,0,0,1-1.11-.88l-.89-7.53Z"></path><path d="M355.73,253.77l.82,6.92a1,1,0,0,1-.87,1.11h0a1,1,0,0,1-1.11-.87l-.84-7.07Z"></path><path d="M362,253.49l.77,6.47a1,1,0,0,1-.88,1.11h0a1,1,0,0,1-1.11-.88l-.78-6.61Z"></path><path d="M337.94,280.67l-10.19,1.21a1,1,0,0,1-1.11-.88h0a1,1,0,0,1,.88-1.11l10.18-1.2a1,1,0,0,1,1.12.87h0A1,1,0,0,1,337.94,280.67Z"></path><path d="M338.58,286.07l-10.19,1.2a1,1,0,0,1-1.11-.87h0a1,1,0,0,1,.88-1.11l10.18-1.21a1,1,0,0,1,1.11.88h0A1,1,0,0,1,338.58,286.07Z"></path><path d="M339.22,291.46,329,292.67a1,1,0,0,1-1.11-.88h0a1,1,0,0,1,.87-1.11L339,289.47a1,1,0,0,1,1.11.88h0A1,1,0,0,1,339.22,291.46Z"></path><polygon points="246.19 192.52 94.74 210.43 72.33 217.91 67.49 225.59 277.75 200.73 272.55 194.54 246.19 192.52" style="fill:#ebebeb"></polygon><path d="M188.63,292.75,71.05,306.65l-.36-3.08,117.58-13.91A1.55,1.55,0,0,1,190,291h0A1.56,1.56,0,0,1,188.63,292.75Z"></path><polygon points="222.31 290.72 210.75 292.08 209.62 291 209.22 287.58 222.75 285.98 223.17 289.49 222.31 290.72" style="fill:#ebebeb"></polygon><rect x="84.05" y="309.4" width="14.85" height="9.53" transform="translate(-36.27 12.92) rotate(-6.74)" style="fill:#c95f50"></rect><polygon points="435.27 277.14 427.94 278.01 425.29 277.31 424.25 268.51 426.67 267.22 433.99 266.35 435.27 277.14" style="fill:#c95f50"></polygon><path d="M68.38,233.06l9.49-1.13a5.92,5.92,0,0,1,6.57,5.18l3.92,33.17a5.91,5.91,0,0,1-5.18,6.57l-15.43,1.83Z" style="fill:#37474f"></path><path d="M100.6,229.24l14.11-1.66L120,272.49l-14.1,1.67A5.9,5.9,0,0,1,99.35,269l-3.93-33.16A5.93,5.93,0,0,1,100.6,229.24Z" style="fill:#37474f"></path><path d="M125.69,226.28l53.95-6.38a5.9,5.9,0,0,1,6.57,5.18l3.92,33.16a5.92,5.92,0,0,1-5.18,6.58L131,271.19Z" style="fill:#37474f"></path><path d="M272.52,254.46l-58.19,6.88a5.92,5.92,0,0,1-6.57-5.18L203.84,223a5.91,5.91,0,0,1,5.18-6.57l49.25-5.82a5.9,5.9,0,0,1,6.19,3.68l12.86,32.11A5.92,5.92,0,0,1,272.52,254.46Z" style="fill:#37474f"></path><path d="M84.44,237.12l.4,3.41-16.76,14,.18-12.75,11.64-9.72A5.89,5.89,0,0,1,84.44,237.12Z" style="fill:#455a64"></path><polygon points="107.51 273.97 119.06 264.33 120.02 272.49 107.51 273.97" style="fill:#455a64"></polygon><path d="M184.88,222l-54.33,45.34-1.36-11.46,41.89-35,8.56-1A5.87,5.87,0,0,1,184.88,222Z" style="fill:#455a64"></path><polygon points="270.65 229.76 235.86 258.79 218.29 260.87 266.88 220.32 270.65 229.76" style="fill:#455a64"></polygon><polygon points="71.56 278.23 87.71 264.75 88.17 268.62 77.5 277.52 71.56 278.23" style="fill:#455a64"></polygon><polygon points="116.28 240.89 116.74 244.77 98.3 260.16 97.84 256.29 116.28 240.89" style="fill:#455a64"></polygon><polygon points="141.07 224.46 126.88 236.31 126.42 232.44 135.13 225.16 141.07 224.46" style="fill:#455a64"></polygon><polygon points="166.61 266.99 188.96 248.32 189.42 252.19 172.54 266.28 166.61 266.99" style="fill:#455a64"></polygon><polygon points="236.11 213.22 205.69 238.62 205.23 234.75 230.18 213.92 236.11 213.22" style="fill:#455a64"></polygon><polygon points="67.78 275.93 87.12 259.79 87.28 261.13 67.76 277.42 67.78 275.93" style="fill:#455a64"></polygon><polygon points="115.7 235.94 115.86 237.28 97.42 252.67 97.26 251.33 115.7 235.94" style="fill:#455a64"></polygon><polygon points="129.59 225.82 125.99 228.82 125.83 227.47 127.53 226.06 129.59 225.82" style="fill:#455a64"></polygon><path d="M186.21,225.08l.1.86-54.05,45.11-1.26.14-.06-.52,55.2-46.06C186.16,224.77,186.19,224.92,186.21,225.08Z" style="fill:#455a64"></path><path d="M264.79,215.11l-54.33,45.36a7.77,7.77,0,0,1-.91-.72L264.35,214a2,2,0,0,1,.11.26Z" style="fill:#455a64"></path><path d="M189.78,366.82l-.68-.08.77,6.52.65-.24c-.05-1-.14-2.08-.26-3.12S190,367.84,189.78,366.82Zm-1-1.49.61-.35a46.37,46.37,0,0,0-1.8-6l-.7.05Zm.73,15.91.7-.11a45.92,45.92,0,0,0,.35-6.23l-.67-.2Zm-2.61-24a45.37,45.37,0,0,0-2.81-5.57l-.68.17,2.95,5.85Zm.91,31.81h.7A45.71,45.71,0,0,0,190,383l-.63-.3Zm-9.08-43.7,3.92,5.26.45-.54a43.55,43.55,0,0,0-3.74-5Zm6,51.1.68.12a46,46,0,0,0,2.47-5.73l-.56-.42ZM173,339.8l4.78,4.49.35-.6a44.8,44.8,0,0,0-4.54-4.28Zm7.5,63.42.65.23a45.06,45.06,0,0,0,3.42-5.22l-.47-.5ZM166.39,335.3l5.48,3.59.24-.65a46.4,46.4,0,0,0-5.22-3.42Zm8.73,73.83.59.34a47,47,0,0,0,4.28-4.54l-.38-.58Zm-16-77.1,6,2.59.13-.69a45.47,45.47,0,0,0-5.74-2.46Zm9.7,82,.53.45a45.82,45.82,0,0,0,5-3.74l-.28-.63Zm-17.45-83.93,6.38,1.5v-.71a45.93,45.93,0,0,0-6.08-1.43Zm10.37,87.64.44.54a45.49,45.49,0,0,0,5.58-2.81l-.17-.67Zm-18.15-88.89-.19.66,6.54.37-.12-.68A44.36,44.36,0,0,0,143.55,328.83Zm10.87,91.91a44.37,44.37,0,0,0,6-1.79l-.05-.69-6.27,1.89Zm-15.86-91.59c-1,.12-2.07.27-3.08.47l-.08.69,6.51-.77-.24-.65C140.64,328.93,139.61,329,138.56,329.15Zm7.81,92.7c1,0,2.08-.13,3.13-.26s2.08-.27,3.09-.47l.07-.68-6.51.77ZM127.66,331.8l0,.69L134,330.6l-.34-.6A45.9,45.9,0,0,0,127.66,331.8Zm10.61,89.76a44.59,44.59,0,0,0,6.24.35l.19-.66-6.55-.37ZM120.34,335.3l.16.68,5.85-3-.44-.54A44.67,44.67,0,0,0,120.34,335.3Zm10,84.56a44.44,44.44,0,0,0,6.08,1.44l.3-.62-6.38-1.5ZM113.74,340l.28.63,5.25-3.92-.53-.45A44.56,44.56,0,0,0,113.74,340Zm9.08,76.77a45.78,45.78,0,0,0,5.74,2.48l.41-.56-6-2.58Zm-14.75-71,.38.57,4.49-4.77-.59-.34A44.8,44.8,0,0,0,108.07,345.82ZM116,412.49a45.26,45.26,0,0,0,5.23,3.43l.49-.47-5.48-3.6Zm-12.46-60,.47.5,3.59-5.48-.64-.24A44.62,44.62,0,0,0,103.49,352.52Zm6.44,54.53a43.91,43.91,0,0,0,4.56,4.28l.56-.37-4.77-4.49Zm-9.81-47.14.56.4,2.59-6-.68-.12A44.3,44.3,0,0,0,100.12,359.91ZM105,400.65a45.85,45.85,0,0,0,3.73,5l.63-.28-3.92-5.25Zm-6.84-32.88.62.3,1.5-6.38h-.7A45.18,45.18,0,0,0,98.11,367.77Zm3,25.72a45.49,45.49,0,0,0,2.81,5.58l.67-.17L101.68,393Zm-2.63-24-.68.12a47.75,47.75,0,0,0-.36,6.24l.66.19Zm.73,15.92-.59.34a45.58,45.58,0,0,0,1.8,6l.68-.05Zm-1.06-7.93-.64.23c0,1,.14,2.07.26,3.11s.29,2.08.48,3.11L99,384Z" style="fill:#263238"></path><path d="M189.87,373.26l.65-.24c0,.63,0,1.25.06,1.88l-.67-.2-.38,6.54.7-.11c-.07.62-.17,1.24-.27,1.85l-.63-.3-1.5,6.38h.7c-.19.59-.38,1.19-.59,1.78l-.56-.42-2.59,6,.68.12c-.28.55-.58,1.11-.9,1.65l-.47-.5-3.6,5.49.65.23c-.37.5-.76,1-1.16,1.48l-.38-.58-4.49,4.78.59.34c-.45.43-.92.85-1.4,1.25l-.28-.63L168.78,414l.53.45c-.52.34-1.05.68-1.59,1l-.17-.67-5.85,2.94.44.54c-.57.25-1.15.47-1.74.69l-.05-.69-6.27,1.89.34.59c-.61.14-1.22.26-1.83.38l.07-.68-6.51.77.22.64q-.93.06-1.86.06l.19-.66-6.55-.37.12.68c-.62-.07-1.23-.15-1.85-.26l.3-.62-6.38-1.5v.68c-.6-.18-1.19-.37-1.78-.58l.41-.56-6-2.58-.12.66c-.56-.27-1.1-.57-1.64-.88l.49-.47-5.48-3.6-.24.64c-.49-.37-1-.76-1.46-1.16l.56-.37-4.77-4.49-.35.58c-.42-.45-.84-.92-1.25-1.39l.63-.28-3.92-5.25-.44.52c-.35-.52-.67-1-1-1.58l.67-.17L101.68,393l-.53.45c-.24-.58-.48-1.15-.69-1.74l.68-.05-1.89-6.28-.59.34c-.14-.6-.26-1.21-.37-1.82L99,384l-.77-6.52-.64.23c0-.62,0-1.24-.07-1.86l.66.19.38-6.55-.68.12c.07-.62.16-1.24.27-1.85l.62.3,1.5-6.38h-.7c.19-.6.39-1.2.59-1.78l.56.4,2.59-6-.68-.12q.43-.84.9-1.65l.47.5,3.59-5.48-.64-.24c.37-.5.75-1,1.16-1.48l.38.57,4.49-4.77-.59-.34c.45-.43.91-.84,1.39-1.25l.28.63,5.25-3.92-.53-.45c.53-.35,1.06-.67,1.6-1l.16.68,5.85-3-.44-.54c.57-.25,1.16-.48,1.75-.69l0,.69L134,330.6l-.34-.6c.61-.14,1.22-.27,1.84-.38l-.08.69,6.51-.77-.24-.65c.63,0,1.26-.06,1.88-.06l-.19.66,6.54.37-.12-.68c.63.07,1.24.16,1.86.26l-.31.64,6.38,1.5v-.71c.59.18,1.19.38,1.78.6l-.42.56,6,2.59.13-.69c.56.29,1.11.58,1.65.89l-.5.48,5.48,3.59.24-.65c.5.39,1,.77,1.48,1.17l-.59.39,4.78,4.49.35-.6c.43.45.85.92,1.25,1.4l-.63.27,3.92,5.26.45-.54c.34.52.68,1.06,1,1.6l-.68.17,2.95,5.85.54-.45c.25.58.48,1.17.69,1.75l-.7.05,1.89,6.28.61-.35c.14.61.27,1.22.37,1.84l-.68-.08Z" style="fill:#263238"></path><polygon points="141.91 329.54 135.4 330.31 135.48 329.62 135.71 327.5 140.95 326.88 141.67 328.89 141.91 329.54" style="fill:#263238"></polygon><polygon points="133.98 330.6 127.7 332.49 127.66 331.8 127.52 329.68 132.59 328.15 133.64 330 133.98 330.6" style="fill:#263238"></polygon><polygon points="126.35 333.03 120.5 335.98 120.34 335.3 119.83 333.24 124.56 330.86 125.91 332.49 126.35 333.03" style="fill:#263238"></polygon><polygon points="119.27 336.74 114.02 340.66 113.74 340.03 112.88 338.08 117.12 334.92 118.74 336.29 119.27 336.74" style="fill:#263238"></polygon><polygon points="112.94 341.62 108.45 346.39 108.07 345.82 106.88 344.05 110.51 340.2 112.35 341.28 112.94 341.62" style="fill:#263238"></polygon><polygon points="107.55 347.54 103.96 353.02 103.48 352.52 102 350.98 104.91 346.56 106.91 347.3 107.55 347.54" style="fill:#263238"></polygon><polygon points="103.27 354.29 100.68 360.31 100.12 359.91 98.41 358.65 100.49 353.79 102.59 354.17 103.27 354.29" style="fill:#263238"></polygon><polygon points="100.23 361.69 98.73 368.07 98.11 367.77 96.19 366.82 97.41 361.68 99.53 361.69 100.23 361.69" style="fill:#263238"></polygon><polygon points="98.52 369.5 98.14 376.05 97.48 375.86 95.44 375.26 95.74 369.98 97.84 369.62 98.52 369.5" style="fill:#263238"></polygon><polygon points="98.19 377.49 98.96 384.01 98.29 383.94 96.16 383.7 95.54 378.45 97.55 377.72 98.19 377.49" style="fill:#263238"></polygon><polygon points="101.14 391.7 100.46 391.75 98.33 391.89 96.81 386.82 98.67 385.76 99.25 385.43 101.14 391.7" style="fill:#263238"></polygon><polygon points="104.63 398.9 103.97 399.06 101.89 399.57 99.51 394.85 101.15 393.49 101.68 393.04 104.63 398.9" style="fill:#263238"></polygon><polygon points="109.31 405.38 108.68 405.66 106.73 406.52 103.57 402.28 104.95 400.65 105.39 400.13 109.31 405.38" style="fill:#263238"></polygon><polygon points="115.05 410.96 114.49 411.33 112.71 412.52 108.85 408.9 109.93 407.05 110.28 406.46 115.05 410.96" style="fill:#263238"></polygon><polygon points="121.67 415.45 121.18 415.92 119.64 417.39 115.22 414.5 115.95 412.49 116.19 411.85 121.67 415.45" style="fill:#263238"></polygon><polygon points="128.97 418.71 128.56 419.28 127.3 421 122.44 418.9 122.82 416.8 122.94 416.13 128.97 418.71" style="fill:#263238"></polygon><polygon points="136.72 420.68 136.42 421.3 135.48 423.2 130.33 422 130.34 419.86 130.34 419.18 136.72 420.68" style="fill:#263238"></polygon><polygon points="144.7 421.25 144.51 421.91 143.92 423.97 138.63 423.66 138.27 421.56 138.15 420.88 144.7 421.25" style="fill:#263238"></polygon><polygon points="152.66 420.44 152.59 421.12 152.35 423.25 147.11 423.87 146.37 421.85 146.15 421.21 152.66 420.44" style="fill:#263238"></polygon><polygon points="160.35 418.26 160.4 418.94 160.54 421.07 155.47 422.6 154.42 420.74 154.08 420.15 160.35 418.26" style="fill:#263238"></polygon><polygon points="168.23 417.52 163.5 419.89 162.14 418.26 161.7 417.73 167.55 414.78 167.72 415.45 168.23 417.52" style="fill:#263238"></polygon><polygon points="175.18 412.67 170.94 415.84 169.31 414.46 168.78 414.01 174.03 410.09 174.31 410.73 175.18 412.67" style="fill:#263238"></polygon><polygon points="181.18 406.7 177.55 410.54 175.71 409.47 175.12 409.13 179.61 404.35 179.99 404.93 181.18 406.7" style="fill:#263238"></polygon><polygon points="186.05 399.77 183.16 404.19 181.15 403.45 180.5 403.22 184.1 397.74 184.57 398.23 186.05 399.77" style="fill:#263238"></polygon><polygon points="189.65 392.1 187.56 396.96 185.47 396.58 184.79 396.45 187.38 390.43 187.94 390.85 189.65 392.1" style="fill:#263238"></polygon><polygon points="191.85 383.93 190.65 389.08 188.53 389.06 187.83 389.06 189.33 382.68 189.96 382.99 191.85 383.93" style="fill:#263238"></polygon><polygon points="192.62 375.49 192.32 380.77 190.22 381.13 189.53 381.24 189.91 374.7 190.58 374.9 192.62 375.49" style="fill:#263238"></polygon><polygon points="191.9 367.06 192.52 372.3 190.51 373.02 189.87 373.26 189.1 366.74 189.78 366.82 191.9 367.06" style="fill:#263238"></polygon><polygon points="191.25 363.93 189.41 364.98 188.8 365.33 186.91 359.05 187.61 359 189.73 358.87 191.25 363.93" style="fill:#263238"></polygon><polygon points="188.54 355.9 186.92 357.25 186.38 357.7 183.43 351.85 184.12 351.69 186.17 351.18 188.54 355.9" style="fill:#263238"></polygon><polygon points="184.49 348.47 183.12 350.08 182.67 350.62 178.75 345.36 179.38 345.08 181.32 344.23 184.49 348.47" style="fill:#263238"></polygon><polygon points="179.2 341.85 178.13 343.69 177.78 344.29 173 339.8 173.59 339.41 175.35 338.23 179.2 341.85" style="fill:#263238"></polygon><polygon points="172.84 336.25 172.11 338.24 171.87 338.89 166.39 335.3 166.88 334.82 168.42 333.35 172.84 336.25" style="fill:#263238"></polygon><polygon points="165.62 331.84 165.24 333.93 165.11 334.62 159.08 332.03 159.5 331.46 160.76 329.76 165.62 331.84" style="fill:#263238"></polygon><polygon points="157.73 328.75 157.72 330.87 157.71 331.58 151.33 330.07 151.64 329.44 152.58 327.54 157.73 328.75" style="fill:#263238"></polygon><polygon points="149.9 329.86 143.36 329.49 143.55 328.83 144.14 326.79 149.43 327.09 149.78 329.18 149.9 329.86" style="fill:#263238"></polygon><path d="M166.27,372.74a22.4,22.4,0,1,1-24.87-19.61A22.4,22.4,0,0,1,166.27,372.74Z" style="fill:#37474f"></path><circle cx="144.03" cy="375.37" r="19.38" transform="translate(-236.97 503.78) rotate(-87.63)" style="fill:#dbdbdb"></circle><path d="M152.55,374.37a8.58,8.58,0,1,1-9.53-7.52A8.58,8.58,0,0,1,152.55,374.37Z" style="fill:#263238"></path><path d="M145.34,386.47a11.17,11.17,0,1,1,9.79-12.41A11.18,11.18,0,0,1,145.34,386.47Zm-2.51-21.2a10.18,10.18,0,1,0,11.3,8.91A10.19,10.19,0,0,0,142.83,365.27Z" style="fill:#263238"></path><path d="M144,360a1.82,1.82,0,1,1-2-1.59A1.81,1.81,0,0,1,144,360Z" style="fill:#263238"></path><path d="M136.37,362.07a1.82,1.82,0,1,1-2.55-.37A1.83,1.83,0,0,1,136.37,362.07Z" style="fill:#263238"></path><path d="M130.74,367.68a1.82,1.82,0,1,1-2.39,1A1.82,1.82,0,0,1,130.74,367.68Z" style="fill:#263238"></path><path d="M128.68,375.36a1.82,1.82,0,1,1-1.59,2A1.81,1.81,0,0,1,128.68,375.36Z" style="fill:#263238"></path><path d="M130.73,383a1.82,1.82,0,1,1-.37,2.55A1.82,1.82,0,0,1,130.73,383Z" style="fill:#263238"></path><path d="M136.34,388.66a1.82,1.82,0,1,1,.95,2.39A1.82,1.82,0,0,1,136.34,388.66Z" style="fill:#263238"></path><path d="M144,390.72a1.82,1.82,0,1,1,2,1.6A1.83,1.83,0,0,1,144,390.72Z" style="fill:#263238"></path><path d="M151.69,388.68a1.82,1.82,0,1,1,2.54.36A1.82,1.82,0,0,1,151.69,388.68Z" style="fill:#263238"></path><path d="M157.31,383.06a1.82,1.82,0,1,1,2.39-.95A1.81,1.81,0,0,1,157.31,383.06Z" style="fill:#263238"></path><path d="M159.38,375.39a1.82,1.82,0,1,1,1.59-2A1.81,1.81,0,0,1,159.38,375.39Z" style="fill:#263238"></path><path d="M157.33,367.71a1.82,1.82,0,1,1,.37-2.54A1.82,1.82,0,0,1,157.33,367.71Z" style="fill:#263238"></path><path d="M151.72,362.09a1.82,1.82,0,1,1-1-2.39A1.82,1.82,0,0,1,151.72,362.09Z" style="fill:#263238"></path><path d="M434.19,337.92l-.68-.08.77,6.51.65-.23c-.05-1-.14-2.08-.26-3.12S434.39,338.93,434.19,337.92Zm-1-1.5.61-.34a45.9,45.9,0,0,0-1.8-6l-.7,0Zm.73,15.92.7-.11A46.16,46.16,0,0,0,435,346l-.67-.19Zm-2.61-24a46,46,0,0,0-2.8-5.57l-.69.16,3,5.86Zm.91,31.8h.7a45.56,45.56,0,0,0,1.43-6.08l-.63-.31Zm-9.08-43.69,3.92,5.25.45-.53a43.67,43.67,0,0,0-3.74-5Zm6,51.09.68.12a44.77,44.77,0,0,0,2.47-5.73l-.56-.41Zm-11.79-56.66,4.78,4.49.36-.59A44.94,44.94,0,0,0,418,310.5Zm7.5,63.42.65.24a47.41,47.41,0,0,0,3.43-5.22l-.48-.5ZM410.8,306.4l5.48,3.59.24-.65a44.22,44.22,0,0,0-5.22-3.42Zm8.73,73.82.59.35A46,46,0,0,0,424.4,376l-.38-.58Zm-16-77.1,6,2.59.13-.69a46.32,46.32,0,0,0-5.74-2.46Zm9.7,82,.54.45a46.59,46.59,0,0,0,5-3.73l-.27-.63Zm-17.45-83.93,6.38,1.5V302a44.41,44.41,0,0,0-6.08-1.43Zm10.37,87.65.44.53a45.44,45.44,0,0,0,5.58-2.8l-.17-.68ZM388,299.93l-.19.65,6.54.38-.11-.68A44.59,44.59,0,0,0,388,299.93Zm10.87,91.91a45.9,45.9,0,0,0,6-1.8l-.05-.69-6.27,1.89ZM383,300.24c-1,.13-2.07.28-3.08.48l-.08.68,6.51-.77-.23-.64C385.05,300,384,300.12,383,300.24ZM390.79,393c1,0,2.07-.14,3.12-.26s2.08-.28,3.09-.48l.07-.67-6.51.77Zm-18.72-90.06,0,.69,6.28-1.89-.34-.59A44.37,44.37,0,0,0,372.07,302.89Zm10.61,89.77a44.59,44.59,0,0,0,6.24.35l.19-.66-6.55-.37ZM364.75,306.4l.16.67,5.85-2.94-.44-.55A46.15,46.15,0,0,0,364.75,306.4Zm10,84.56a43,43,0,0,0,6.08,1.43l.3-.62-6.38-1.5Zm-16.6-79.83.28.63,5.25-3.93-.53-.45A45.9,45.9,0,0,0,358.15,311.13Zm9.08,76.77a44.3,44.3,0,0,0,5.74,2.47l.41-.56-6-2.58Zm-14.75-71,.38.57,4.49-4.77-.59-.34A43.77,43.77,0,0,0,352.48,316.92Zm7.88,66.67a46.61,46.61,0,0,0,5.23,3.43l.49-.47-5.48-3.61Zm-12.46-60,.47.49,3.59-5.48-.64-.23A43.79,43.79,0,0,0,347.9,323.62Zm6.44,54.53a45,45,0,0,0,4.56,4.28l.56-.38-4.77-4.49ZM344.53,331l.56.41,2.59-6-.68-.12A45.52,45.52,0,0,0,344.53,331Zm4.83,40.75a45.73,45.73,0,0,0,3.73,5l.63-.27-3.92-5.26Zm-6.84-32.89.62.3,1.5-6.38h-.7A45.91,45.91,0,0,0,342.52,338.86Zm3,25.72a44.18,44.18,0,0,0,2.82,5.58L349,370l-3-5.85Zm-2.63-24-.67.12a45.92,45.92,0,0,0-.37,6.23l.66.2Zm.73,15.92-.58.33a44.08,44.08,0,0,0,1.79,6l.68,0Zm-1.06-7.93-.64.23c.05,1,.14,2.07.26,3.11s.29,2.08.48,3.1l.67.07Z" style="fill:#263238"></path><path d="M434.28,344.35l.65-.23c0,.63.05,1.25.06,1.87l-.67-.19-.38,6.54.7-.11c-.07.62-.17,1.23-.27,1.85l-.63-.31-1.5,6.38h.7c-.19.6-.38,1.19-.59,1.78l-.56-.41-2.59,6,.68.12c-.28.56-.58,1.12-.89,1.66l-.48-.5-3.6,5.48.65.24c-.37.49-.76,1-1.16,1.47l-.38-.58-4.49,4.78.59.35c-.45.42-.92.84-1.4,1.25l-.27-.63-5.26,3.91.54.45c-.53.35-1.06.68-1.6,1l-.17-.68-5.85,2.95.44.53q-.85.38-1.74.69l-.05-.69-6.27,1.89.34.6c-.61.14-1.22.26-1.83.37l.07-.67-6.51.77.23.64-1.87.06.19-.66-6.55-.37.12.68c-.62-.07-1.23-.16-1.85-.27l.3-.62-6.38-1.5V391c-.6-.18-1.19-.37-1.78-.59l.41-.56-6-2.58-.12.67c-.56-.28-1.1-.58-1.64-.88l.49-.47-5.48-3.61-.24.65c-.49-.38-1-.76-1.46-1.16l.56-.38-4.77-4.49-.35.59c-.42-.46-.84-.92-1.25-1.4l.63-.27-3.92-5.26-.44.53c-.35-.53-.67-1.05-1-1.59L349,370l-3-5.85-.53.44c-.24-.57-.48-1.15-.69-1.74l.68,0-1.89-6.27-.58.33c-.15-.6-.27-1.21-.38-1.82l.67.07-.77-6.51-.64.23c0-.62,0-1.25-.07-1.87l.66.2.38-6.55-.67.12c.06-.63.15-1.24.26-1.86l.62.3,1.5-6.38h-.7c.19-.59.39-1.19.59-1.78l.56.41,2.59-6-.68-.12c.29-.56.59-1.1.9-1.64l.47.49,3.59-5.48-.64-.23c.37-.5.75-1,1.16-1.48l.38.57,4.49-4.77-.59-.34c.45-.44.91-.85,1.39-1.25l.28.63,5.25-3.93-.53-.45c.53-.34,1.06-.67,1.6-1l.16.67,5.85-2.94-.44-.55c.57-.25,1.16-.48,1.75-.69l0,.69,6.28-1.89-.34-.59c.61-.14,1.22-.28,1.84-.38l-.08.68,6.51-.77-.23-.64c.62-.05,1.25-.06,1.87-.06l-.19.65,6.54.38-.11-.68c.62.06,1.23.15,1.85.26l-.31.63,6.38,1.5V302c.59.18,1.19.38,1.78.59l-.42.56,6,2.59.13-.69q.84.44,1.65.9l-.5.48,5.48,3.59.24-.65c.5.38,1,.77,1.48,1.16l-.59.39,4.78,4.49.36-.59c.42.45.84.91,1.24,1.39l-.63.28,3.92,5.25.45-.53c.34.52.68,1.05,1,1.6l-.69.16,3,5.86.54-.45c.25.57.48,1.16.69,1.75l-.7,0,1.89,6.28.61-.34c.14.61.27,1.22.37,1.84l-.68-.08Z" style="fill:#263238"></path><polygon points="386.32 300.63 379.81 301.4 379.89 300.72 380.12 298.6 385.36 297.98 386.08 299.99 386.32 300.63" style="fill:#263238"></polygon><polygon points="378.39 301.69 372.11 303.58 372.07 302.89 371.93 300.77 377 299.25 378.05 301.1 378.39 301.69" style="fill:#263238"></polygon><polygon points="370.76 304.13 364.91 307.07 364.75 306.4 364.24 304.33 368.97 301.95 370.32 303.58 370.76 304.13" style="fill:#263238"></polygon><polygon points="363.68 307.83 358.43 311.76 358.15 311.13 357.29 309.17 361.53 306.01 363.15 307.38 363.68 307.83" style="fill:#263238"></polygon><polygon points="357.35 312.72 352.86 317.49 352.48 316.92 351.3 315.15 354.92 311.3 356.76 312.38 357.35 312.72" style="fill:#263238"></polygon><polygon points="351.96 318.63 348.37 324.11 347.9 323.62 346.42 322.08 349.32 317.66 351.32 318.4 351.96 318.63" style="fill:#263238"></polygon><polygon points="347.68 325.38 345.09 331.41 344.53 331 342.82 329.74 344.9 324.89 347 325.26 347.68 325.38" style="fill:#263238"></polygon><polygon points="344.64 332.78 343.14 339.16 342.52 338.86 340.61 337.92 341.82 332.77 343.94 332.78 344.64 332.78" style="fill:#263238"></polygon><polygon points="342.93 340.6 342.55 347.15 341.89 346.95 339.85 346.36 340.15 341.08 342.25 340.72 342.93 340.6" style="fill:#263238"></polygon><polygon points="342.6 348.59 343.37 355.11 342.7 355.03 340.57 354.79 339.95 349.55 341.96 348.82 342.6 348.59" style="fill:#263238"></polygon><polygon points="345.55 362.79 344.87 362.84 342.74 362.98 341.22 357.92 343.08 356.85 343.66 356.52 345.55 362.79" style="fill:#263238"></polygon><polygon points="349.04 369.99 348.38 370.16 346.3 370.67 343.92 365.95 345.56 364.58 346.09 364.14 349.04 369.99" style="fill:#263238"></polygon><polygon points="353.72 376.48 353.09 376.75 351.14 377.62 347.98 373.38 349.36 371.75 349.8 371.22 353.72 376.48" style="fill:#263238"></polygon><polygon points="359.46 382.05 358.9 382.43 357.12 383.62 353.26 380 354.34 378.15 354.69 377.56 359.46 382.05" style="fill:#263238"></polygon><polygon points="366.08 386.55 365.59 387.02 364.05 388.49 359.63 385.6 360.37 383.59 360.6 382.94 366.08 386.55" style="fill:#263238"></polygon><polygon points="373.38 389.81 372.97 390.37 371.71 392.09 366.85 390 367.23 387.9 367.35 387.23 373.38 389.81" style="fill:#263238"></polygon><polygon points="381.13 391.77 380.83 392.39 379.89 394.3 374.74 393.09 374.75 390.96 374.75 390.27 381.13 391.77" style="fill:#263238"></polygon><polygon points="389.11 392.35 388.92 393.01 388.33 395.06 383.04 394.76 382.69 392.66 382.56 391.98 389.11 392.35" style="fill:#263238"></polygon><polygon points="397.07 391.54 397 392.21 396.76 394.35 391.52 394.97 390.79 392.95 390.56 392.31 397.07 391.54" style="fill:#263238"></polygon><polygon points="404.76 389.35 404.81 390.04 404.95 392.17 399.89 393.69 398.83 391.84 398.49 391.24 404.76 389.35" style="fill:#263238"></polygon><polygon points="412.64 388.61 407.91 390.98 406.55 389.35 406.11 388.82 411.96 385.87 412.13 386.55 412.64 388.61" style="fill:#263238"></polygon><polygon points="419.59 383.76 415.35 386.93 413.73 385.55 413.19 385.1 418.44 381.19 418.72 381.82 419.59 383.76" style="fill:#263238"></polygon><polygon points="425.59 377.8 421.96 381.64 420.12 380.57 419.53 380.23 424.02 375.44 424.4 376.02 425.59 377.8" style="fill:#263238"></polygon><polygon points="430.46 370.87 427.56 375.29 425.56 374.55 424.91 374.31 428.51 368.83 428.99 369.33 430.46 370.87" style="fill:#263238"></polygon><polygon points="434.06 363.2 431.97 368.06 429.88 367.67 429.2 367.55 431.79 361.53 432.35 361.94 434.06 363.2" style="fill:#263238"></polygon><polygon points="436.27 355.02 435.06 360.17 432.94 360.16 432.24 360.15 433.74 353.77 434.37 354.08 436.27 355.02" style="fill:#263238"></polygon><polygon points="437.03 346.59 436.73 351.87 434.64 352.23 433.94 352.34 434.32 345.8 434.99 345.99 437.03 346.59" style="fill:#263238"></polygon><polygon points="436.31 338.15 436.94 343.4 434.93 344.12 434.28 344.35 433.51 337.84 434.19 337.92 436.31 338.15" style="fill:#263238"></polygon><polygon points="435.66 335.03 433.82 336.08 433.21 336.43 431.32 330.14 432.02 330.1 434.14 329.96 435.66 335.03" style="fill:#263238"></polygon><polygon points="432.95 327 431.33 328.35 430.79 328.8 427.84 322.94 428.53 322.78 430.58 322.28 432.95 327" style="fill:#263238"></polygon><polygon points="428.9 319.56 427.53 321.18 427.08 321.71 423.16 316.46 423.79 316.18 425.73 315.33 428.9 319.56" style="fill:#263238"></polygon><polygon points="423.61 312.95 422.55 314.79 422.19 315.38 417.41 310.89 418 310.5 419.76 309.33 423.61 312.95" style="fill:#263238"></polygon><polygon points="417.25 307.35 416.52 309.34 416.28 309.99 410.8 306.4 411.3 305.92 412.83 304.45 417.25 307.35" style="fill:#263238"></polygon><polygon points="410.03 302.94 409.65 305.02 409.52 305.71 403.49 303.12 403.91 302.56 405.17 300.85 410.03 302.94" style="fill:#263238"></polygon><polygon points="402.14 299.85 402.13 301.97 402.12 302.67 395.74 301.17 396.05 300.54 396.99 298.64 402.14 299.85" style="fill:#263238"></polygon><polygon points="394.31 300.96 387.77 300.58 387.96 299.93 388.56 297.88 393.84 298.18 394.19 300.28 394.31 300.96" style="fill:#263238"></polygon><circle cx="388.44" cy="346.47" r="22.4" transform="translate(17.89 712.01) rotate(-86.34)" style="fill:#37474f"></circle><circle cx="388.44" cy="346.47" r="19.38" transform="translate(-55.3 74.39) rotate(-10.22)" style="fill:#dbdbdb"></circle><path d="M397,345.46a8.58,8.58,0,1,1-9.53-7.51A8.58,8.58,0,0,1,397,345.46Z" style="fill:#263238"></path><path d="M389.75,357.57a11.18,11.18,0,1,1,9.79-12.41A11.19,11.19,0,0,1,389.75,357.57Zm-2.51-21.21a10.18,10.18,0,1,0,11.3,8.91A10.19,10.19,0,0,0,387.24,336.36Z" style="fill:#263238"></path><path d="M388.45,331.12a1.82,1.82,0,1,1-2-1.59A1.81,1.81,0,0,1,388.45,331.12Z" style="fill:#263238"></path><path d="M380.78,333.17a1.82,1.82,0,1,1-2.55-.37A1.82,1.82,0,0,1,380.78,333.17Z" style="fill:#263238"></path><path d="M375.15,338.78a1.82,1.82,0,1,1-2.39,1A1.82,1.82,0,0,1,375.15,338.78Z" style="fill:#263238"></path><path d="M373.09,346.45a1.82,1.82,0,1,1-1.59,2A1.83,1.83,0,0,1,373.09,346.45Z" style="fill:#263238"></path><path d="M375.14,354.13a1.82,1.82,0,1,1-.37,2.55A1.82,1.82,0,0,1,375.14,354.13Z" style="fill:#263238"></path><path d="M380.75,359.76a1.82,1.82,0,1,1,.95,2.38A1.81,1.81,0,0,1,380.75,359.76Z" style="fill:#263238"></path><path d="M388.42,361.82a1.82,1.82,0,1,1,2,1.59A1.82,1.82,0,0,1,388.42,361.82Z" style="fill:#263238"></path><path d="M396.1,359.77a1.82,1.82,0,1,1,2.54.37A1.81,1.81,0,0,1,396.1,359.77Z" style="fill:#263238"></path><path d="M401.72,354.16a1.82,1.82,0,1,1,2.39-1A1.82,1.82,0,0,1,401.72,354.16Z" style="fill:#263238"></path><path d="M403.79,346.49a1.82,1.82,0,1,1,1.59-2A1.83,1.83,0,0,1,403.79,346.49Z" style="fill:#263238"></path><path d="M401.74,338.81a1.82,1.82,0,1,1,.37-2.55A1.82,1.82,0,0,1,401.74,338.81Z" style="fill:#263238"></path><path d="M396.13,333.19a1.82,1.82,0,1,1-1-2.39A1.83,1.83,0,0,1,396.13,333.19Z" style="fill:#263238"></path><rect x="37.4" y="254.98" width="31.92" height="75.92" transform="translate(-34.03 8.29) rotate(-6.74)" style="fill:#263238"></rect><polygon points="40.85 256.2 34.34 256.97 34.42 256.29 34.65 254.16 39.9 253.54 40.62 255.55 40.85 256.2" style="fill:#263238"></polygon><polygon points="52.16 254.86 45.64 255.63 45.72 254.95 45.96 252.83 51.2 252.21 51.92 254.22 52.16 254.86" style="fill:#263238"></polygon><polygon points="63.46 253.53 56.95 254.3 57.03 253.61 57.26 251.49 62.5 250.87 63.22 252.88 63.46 253.53" style="fill:#263238"></polygon><polygon points="65.86 329.69 72.38 328.92 72.3 329.61 72.07 331.73 66.82 332.35 66.1 330.34 65.86 329.69" style="fill:#263238"></polygon><polygon points="54.56 331.03 61.07 330.26 60.99 330.94 60.76 333.06 55.52 333.68 54.8 331.68 54.56 331.03" style="fill:#263238"></polygon><polygon points="43.26 332.37 49.77 331.59 49.69 332.28 49.46 334.4 44.21 335.02 43.49 333.01 43.26 332.37" style="fill:#263238"></polygon><polygon points="323.82 349.72 360.07 297.85 415.64 291.27 431.99 301.37 442.09 300.17 441.23 292.88 415.06 277.68 353.5 284.96 312.29 341.87 313.36 350.96 323.82 349.72" style="fill:#263238"></polygon><polygon points="198.68 364.52 163.24 321.12 110.67 327.34 94.89 356.11 87.04 357.04 86.18 349.75 105.07 314.34 166.62 307.06 208.07 354.19 209.14 363.29 198.68 364.52" style="fill:#263238"></polygon><rect x="62.9" y="345.98" width="31.61" height="15.74" transform="translate(-41.01 11.69) rotate(-6.74)" style="fill:#263238"></rect><rect x="63.42" y="332.87" width="6.95" height="14.41" transform="translate(-39.48 10.21) rotate(-6.74)" style="fill:#263238"></rect><rect x="70.57" y="336.29" width="4.58" height="10.3" transform="translate(-39.59 10.92) rotate(-6.74)" style="fill:#263238"></rect><rect x="198" y="347.62" width="128.24" height="14.74" transform="translate(-39.88 33.24) rotate(-6.74)" style="fill:#263238"></rect><rect x="434.03" y="300.65" width="10.17" height="35.32" transform="translate(-34.34 53.77) rotate(-6.74)" style="fill:#263238"></rect><polygon points="451.99 322.62 445.75 331.14 441.87 298.28 448.6 293.97 451.99 322.62" style="fill:#263238"></polygon><path d="M455.83,274.73h2.47A6.67,6.67,0,0,1,465,281.4v33.79a6.67,6.67,0,0,1-6.67,6.67h-9.14a0,0,0,0,1,0,0V281.4A6.67,6.67,0,0,1,455.83,274.73Z" transform="translate(-31.86 55.73) rotate(-6.74)" style="fill:#263238"></path></g></svg>