<svg xmlns="http://www.w3.org/2000/svg" viewBox="0 0 500 500"><g id="freepik--background-complete--inject-44"><path d="M250,372.21A122.69,122.69,0,1,1,372.69,249.52,122.83,122.83,0,0,1,250,372.21Zm0-244.28A121.59,121.59,0,1,0,371.59,249.52,121.73,121.73,0,0,0,250,127.93Z" style="fill:#ebebeb"></path><path d="M250,358.91A109.39,109.39,0,1,1,359.39,249.52,109.51,109.51,0,0,1,250,358.91Zm0-217.68A108.29,108.29,0,1,0,358.29,249.52,108.41,108.41,0,0,0,250,141.23Z" style="fill:#ebebeb"></path><rect x="177.59" y="61.56" width="1.1" height="20.24" transform="translate(-13.88 71.95) rotate(-22)" style="fill:#ebebeb"></rect><rect x="191" y="88.16" width="1.1" height="33.38" transform="translate(-25.33 79.39) rotate(-22)" style="fill:#ebebeb"></rect><rect x="72.88" y="164.46" width="1.1" height="20.24" transform="translate(-115.96 173.96) rotate(-67)" style="fill:#ebebeb"></rect><rect x="105.81" y="171.86" width="1.1" height="33.38" transform="translate(-108.76 212.79) rotate(-67)" style="fill:#ebebeb"></rect><rect x="62.03" y="320.83" width="20.24" height="1.1" transform="translate(-115.14 50.43) rotate(-22)" style="fill:#ebebeb"></rect><rect x="88.63" y="307.43" width="33.38" height="1.1" transform="translate(-107.7 61.88) rotate(-22)" style="fill:#ebebeb"></rect><rect x="164.93" y="425.54" width="20.24" height="1.1" transform="translate(-285.57 420.74) rotate(-67)" style="fill:#ebebeb"></rect><rect x="172.34" y="392.61" width="33.38" height="1.1" transform="translate(-246.73 413.54) rotate(-67)" style="fill:#ebebeb"></rect><rect x="321.31" y="417.25" width="1.1" height="20.24" transform="translate(-136.66 151.69) rotate(-22)" style="fill:#ebebeb"></rect><rect x="307.9" y="377.51" width="1.1" height="33.38" transform="translate(-125.21 144.26) rotate(-22)" style="fill:#ebebeb"></rect><rect x="426.02" y="314.35" width="1.1" height="20.24" transform="translate(-38.78 590.35) rotate(-67)" style="fill:#ebebeb"></rect><rect x="393.09" y="293.8" width="1.1" height="33.38" transform="translate(-45.98 551.52) rotate(-67)" style="fill:#ebebeb"></rect><rect x="417.73" y="177.12" width="20.24" height="1.1" transform="translate(-35.4 173.21) rotate(-22)" style="fill:#ebebeb"></rect><rect x="377.99" y="190.52" width="33.38" height="1.1" transform="translate(-42.84 161.76) rotate(-22)" style="fill:#ebebeb"></rect><rect x="314.83" y="72.4" width="20.24" height="1.1" transform="translate(130.83 343.57) rotate(-67)" style="fill:#ebebeb"></rect><rect x="294.28" y="105.34" width="33.38" height="1.1" transform="translate(92 350.76) rotate(-67)" style="fill:#ebebeb"></rect><rect x="249.45" y="31.89" width="1.1" height="49.78" style="fill:#ebebeb"></rect><rect x="249.45" y="92.89" width="1.1" height="17.28" style="fill:#ebebeb"></rect><rect x="113.16" y="88.34" width="1.1" height="49.78" transform="translate(-46.76 113.57) rotate(-45)" style="fill:#ebebeb"></rect><rect x="144.8" y="136.23" width="1.1" height="17.28" transform="translate(-59.87 145.21) rotate(-45)" style="fill:#ebebeb"></rect><rect x="32.37" y="248.97" width="49.78" height="1.1" style="fill:#ebebeb"></rect><rect x="93.36" y="248.97" width="17.28" height="1.1" style="fill:#ebebeb"></rect><rect x="88.82" y="385.26" width="49.78" height="1.1" transform="translate(-239.51 193.41) rotate(-45)" style="fill:#ebebeb"></rect><rect x="136.71" y="353.62" width="17.28" height="1.1" transform="translate(-207.86 206.51) rotate(-45)" style="fill:#ebebeb"></rect><rect x="249.45" y="417.38" width="1.1" height="49.78" style="fill:#ebebeb"></rect><rect x="249.45" y="388.87" width="1.1" height="17.28" style="fill:#ebebeb"></rect><rect x="385.74" y="360.93" width="1.1" height="49.78" transform="translate(-159.67 386.15) rotate(-45)" style="fill:#ebebeb"></rect><rect x="354.1" y="345.53" width="1.1" height="17.28" transform="translate(-146.56 354.51) rotate(-45)" style="fill:#ebebeb"></rect><rect x="417.86" y="248.97" width="49.78" height="1.1" style="fill:#ebebeb"></rect><rect x="389.35" y="248.97" width="17.28" height="1.1" style="fill:#ebebeb"></rect><rect x="361.4" y="112.68" width="49.78" height="1.1" transform="translate(33.08 306.31) rotate(-45)" style="fill:#ebebeb"></rect><rect x="346.01" y="144.32" width="17.28" height="1.1" transform="translate(1.43 293.21) rotate(-45)" style="fill:#ebebeb"></rect><circle cx="250" cy="249.52" r="2.51" style="fill:#ebebeb"></circle><path d="M229.19,458c9.19,0,163.88,1,173.6.7a.75.75,0,0,0,.38-1.39c-6.13-3-13.08-2.42-19.45-4.57-3.75-1.26-6.05-3.71-8.65-6.52a18,18,0,0,0-8.05-5.26,17,17,0,0,0-8.76-.27c-3.14.75-5.87,2.54-8.86,3.68-7.43,2.8-14.65.14-20-5.36-4.37-4.53-8.68-8.81-14.62-11.25-5-2.05-10.51-2.47-15.5-.22-5.67,2.57-9.57,7.74-14.9,10.85-6.31,3.7-13.87,2.82-20.85,3.94s-12.33,7-18.45,10.37a13.05,13.05,0,0,1-6.67,2.07c-1.37,0-2.71-.41-4.06-.58-2.11-.26-4.11-.2-5.53,1.56C228.52,456.16,228.59,458,229.19,458Z" style="fill:#ebebeb"></path><path d="M298.5,360.51c6.71,0,119.64.74,126.74.51.51,0,.78-.76.27-1-4.47-2.22-9.54-1.77-14.19-3.34-2.74-.92-4.42-2.71-6.32-4.76a13,13,0,0,0-5.87-3.84,12.41,12.41,0,0,0-6.4-.2c-2.29.55-4.28,1.86-6.47,2.69-5.43,2-10.7.1-14.57-3.92-3.2-3.31-6.34-6.43-10.68-8.21a14.21,14.21,0,0,0-11.31-.16c-4.14,1.88-7,5.65-10.88,7.92-4.61,2.7-10.13,2.06-15.22,2.87s-9,5.11-13.47,7.58a9.65,9.65,0,0,1-4.87,1.51c-1,0-2-.3-3-.42-1.54-.19-3-.15-4,1.14C298,359.18,298.06,360.51,298.5,360.51Z" style="fill:#ebebeb"></path><path d="M345.11,421.12c6.72,0,119.65.74,126.75.51.51,0,.78-.76.27-1-4.47-2.22-9.55-1.77-14.2-3.34-2.73-.92-4.41-2.71-6.31-4.76a13,13,0,0,0-5.88-3.84,12.37,12.37,0,0,0-6.39-.2c-2.3.55-4.29,1.86-6.47,2.69-5.43,2-10.7.1-14.57-3.92-3.2-3.31-6.34-6.43-10.68-8.21a14.21,14.21,0,0,0-11.31-.16c-4.15,1.88-7,5.65-10.88,7.92-4.61,2.7-10.13,2.06-15.22,2.88s-9,5.1-13.48,7.57a9.52,9.52,0,0,1-4.87,1.51c-1,0-2-.3-3-.42-1.54-.19-3-.15-4,1.14C344.62,419.79,344.67,421.12,345.11,421.12Z" style="fill:#ebebeb"></path><path d="M28,404.55c6.71,0,119.64.74,126.74.52.51,0,.78-.77.28-1-4.48-2.22-9.55-1.77-14.2-3.34-2.74-.92-4.42-2.71-6.32-4.76a13.07,13.07,0,0,0-5.87-3.84,12.41,12.41,0,0,0-6.4-.2c-2.29.55-4.28,1.86-6.47,2.69-5.42,2-10.69.1-14.57-3.92-3.19-3.3-6.33-6.43-10.68-8.21a14.17,14.17,0,0,0-11.31-.15c-4.14,1.87-7,5.65-10.88,7.92-4.61,2.69-10.12,2.05-15.22,2.87s-9,5.1-13.47,7.57a9.55,9.55,0,0,1-4.87,1.51,29.89,29.89,0,0,1-3-.42c-1.54-.19-3-.14-4,1.14C27.5,403.22,27.55,404.55,28,404.55Z" style="fill:#ebebeb"></path><path d="M117.91,381.58c.13.38,178,0,175.75,0-1,0,1.56-1.53.55-2-5.79-2.87-12.12-2.95-18.43-3.53-3.67-.33-7.45-.87-10.76-2.61s-5.44-4.8-7.82-7.62a33.44,33.44,0,0,0-30.38-11.51c-12.64,2-22.61,11.62-35.28,13.39-7.61,1.07-14.81-1.88-22.25-2.92-6.12-.85-11.22.34-16.7,3.06-4,2-7.72,3.66-12.25,4-3.49.25-7-.15-10.47-.18a23.39,23.39,0,0,0-15.41,6.15C113.9,378.25,112.1,381.58,117.91,381.58Z" style="fill:#ebebeb"></path></g><g id="freepik--Moon--inject-44"><circle cx="250" cy="249.52" r="110.37" style="fill:#fff"></circle><circle cx="250" cy="249.52" r="110.37" style="fill:#FFA52E;opacity:0.30000000000000004"></circle><path d="M193.1,298.88a9.87,9.87,0,0,1,3.15,7.08,10.79,10.79,0,0,1-3.13,7.8,9.67,9.67,0,0,1-8.08,2.77,11.57,11.57,0,0,1-6.94-3.32,36.18,36.18,0,0,0,6.86-.47,8.56,8.56,0,0,0,4.74-2.37,11.23,11.23,0,0,0,2.79-4.79A20.66,20.66,0,0,0,193.1,298.88Z" style="opacity:0.1"></path><path d="M179.42,309.59a6.29,6.29,0,0,1-2.74-4.88,7.57,7.57,0,0,1,2.18-5.79,6.91,6.91,0,0,1,6-1.95,7.23,7.23,0,0,1,4.73,2.87,36.68,36.68,0,0,0-4.65.92,5.89,5.89,0,0,0-2.69,1.55,8.6,8.6,0,0,0-1.85,2.79A16.51,16.51,0,0,0,179.42,309.59Z" style="opacity:0.1"></path><path d="M327.93,195a9.85,9.85,0,0,1-2.35,7.39,10.75,10.75,0,0,1-7.52,3.75,9.64,9.64,0,0,1-7.88-3.3,11.45,11.45,0,0,1-3-7.09,35.78,35.78,0,0,0,5.44,4.21,8.55,8.55,0,0,0,5.11,1.38A11.26,11.26,0,0,0,323,199.6,20.33,20.33,0,0,0,327.93,195Z" style="opacity:0.1"></path><path d="M310.59,193.92a6.32,6.32,0,0,1,1.2-5.47,7.51,7.51,0,0,1,5.47-2.88,6.86,6.86,0,0,1,5.8,2.55,7.16,7.16,0,0,1,1.64,5.29,36.42,36.42,0,0,0-4.09-2.4,5.82,5.82,0,0,0-3-.63,8.44,8.44,0,0,0-3.23.85A16.48,16.48,0,0,0,310.59,193.92Z" style="opacity:0.1"></path><g style="opacity:0.1"><path d="M314.35,254a18.75,18.75,0,0,1,13.8,10,20.75,20.75,0,1,0-32.39,19.15A18.91,18.91,0,0,1,314.35,254Z"></path></g><path d="M336.15,261.86a26.83,26.83,0,0,1-.39,16.19,31.62,31.62,0,0,1-9.25,13.82c-4.3,3.69-10,6.16-15.77,5.83a24.62,24.62,0,0,1-15.14-5.88,33.22,33.22,0,0,0,15.06,2.68,31.19,31.19,0,0,0,3.63-.58,21.39,21.39,0,0,0,3.42-1.22,23.35,23.35,0,0,0,6.1-3.92c.92-.82,1.84-1.69,2.71-2.58s1.68-1.85,2.39-2.88a32.61,32.61,0,0,0,3.87-6.42A37.82,37.82,0,0,0,336.15,261.86Z" style="opacity:0.1"></path><path d="M196.66,189.64a8.22,8.22,0,0,1,5.71,4.81,9.08,9.08,0,1,0-14.74,7.36,8.29,8.29,0,0,1,9-12.17Z" style="opacity:0.1"></path><path d="M205.94,193.77a11.32,11.32,0,0,1-.47,7.16,13.66,13.66,0,0,1-4.5,5.89,10.06,10.06,0,0,1-7.26,2.05,10.37,10.37,0,0,1-6.42-3.28,15.3,15.3,0,0,0,6.51,1.4,9.86,9.86,0,0,0,5.72-2.09A16.51,16.51,0,0,0,205.94,193.77Z" style="opacity:0.1"></path><path d="M232.13,317.55a11.64,11.64,0,0,1,9.17,5.33,12.91,12.91,0,1,0-18.82,13.92,11.78,11.78,0,0,1,9.65-19.25Z" style="opacity:0.1"></path><path d="M246.12,321.05a17,17,0,0,1,.74,10,19.78,19.78,0,0,1-4.84,9.11,14.29,14.29,0,0,1-9.35,4.61,15.58,15.58,0,0,1-9.73-2.62,20.25,20.25,0,0,0,9.5.75,14.12,14.12,0,0,0,7.82-4.38,22,22,0,0,0,4.79-8A22.88,22.88,0,0,0,246.12,321.05Z" style="opacity:0.1"></path></g><g id="freepik--Character--inject-44"><path d="M332.33,227.72s21.75-32.17,34.8-36c22.22-6.57,58.14,3.76,60.89,4.89s-4.91,2.19-4.91,2.19,26.11,1.36,34.12,4.64c2.93,1.19-16.75,19.08-16.75,19.08l4.2-1.24S429.91,240,422.37,243.47c0,0,4.57-1.85,5.77-1.12s-17.42,16.66-33.56,18c-23.11,1.9-57.92-11.74-57.92-11.74Z" style="fill:#FFA52E"></path><path d="M332.33,227.72s21.75-32.17,34.8-36c22.22-6.57,58.14,3.76,60.89,4.89s-4.91,2.19-4.91,2.19,26.11,1.36,34.12,4.64c2.93,1.19-16.75,19.08-16.75,19.08l4.2-1.24S429.91,240,422.37,243.47c0,0,4.57-1.85,5.77-1.12s-17.42,16.66-33.56,18c-23.11,1.9-57.92-11.74-57.92-11.74Z" style="opacity:0.1"></path><g style="opacity:0.1"><path d="M416.86,197.6c-4.29-.65-8.84-.42-13.17-.46s-8.58-.08-12.86.08c-7.42.26-14.44,1.57-21,5.18s-12,8.52-17.36,13.57a242.43,242.43,0,0,0-16.83,17.84c-.21.24.2.62.43.38,5.51-5.68,11.26-11.16,17.1-16.5,5.44-5,11-10,17.47-13.6,6.94-3.91,14.45-5.23,22.32-5.59s16.06.35,23.93-.41C417.18,198.06,417.12,197.63,416.86,197.6Z"></path><path d="M375.86,211.21a97.7,97.7,0,0,0-28.35,16.58c-.19.15,0,.41.23.28A171.76,171.76,0,0,1,376.22,212C376.71,211.73,376.35,211,375.86,211.21Z"></path><path d="M421.77,244c-8.84,3.34-16.95,7.65-26.57,8.41-9.78.79-19.59-1.16-29.14-3-.19,0-.26.28-.07.32,9.44,2.39,19.08,4.79,28.9,4.14,9.51-.63,19-4.52,27.08-9.45A.22.22,0,0,0,421.77,244Z"></path><path d="M438.63,223.69c-17.19,12-37.35,18.47-58.41,17.72a.11.11,0,0,0,0,.21c20.81,2.19,42.63-3.92,58.73-17.56C439.19,223.86,438.88,223.51,438.63,223.69Z"></path></g><path d="M327.41,226.06c5.5-2.6,14.07,1.76,15.87,10.91s-2.43,14-8.14,14.51-10.25-5.78-11.89-10.94S322,228.63,327.41,226.06Z" style="fill:#FFA52E"></path><path d="M44.41,276.05c-4.66,2.43.26,13.09,2.67,15.35s49.65,3.57,57,2.19,84.05-10.33,90.73-12.14,53.17-16.53,59-18.79,75-15.28,79.64-17,2.28-11.88-1.33-12.71-74.85,15-82.95,17.25S194,267.31,191.43,268.73s-82.61,9.1-87.36,9.5C85.9,279.8,50.6,272.82,44.41,276.05Z" style="fill:#FFA52E"></path><path d="M44.41,276.05c-4.66,2.43.26,13.09,2.67,15.35s49.65,3.57,57,2.19,84.05-10.33,90.73-12.14,53.17-16.53,59-18.79,75-15.28,79.64-17,2.28-11.88-1.33-12.71-74.85,15-82.95,17.25S194,267.31,191.43,268.73s-82.61,9.1-87.36,9.5C85.9,279.8,50.6,272.82,44.41,276.05Z" style="opacity:0.5"></path><g style="opacity:0.1"><path d="M47.22,277.69c-.26,0-.36.39-.1.46,4.88,1.32,4.92,6.23,6,10.23.11.4.76.42.77,0C54,284,52,278.43,47.22,277.69Z"></path><path d="M169.54,279.85c-18.1,2-36.22,3.78-54.33,5.73-18.44,2-36.86,3.26-55.4,2a.22.22,0,0,0,0,.43c18,2.7,36.4.88,54.42-1.19,18.48-2.12,36.92-4.57,55.39-6.79C169.73,280.05,169.69,279.83,169.54,279.85Z"></path><path d="M236.81,258c-15.64,3.63-29.25,13-45,16.46-16.23,3.54-33.22.54-49.2,5.64-.08,0-.06.16,0,.14,16.21-4,33.13-1.1,49.39-4.64,15.74-3.43,29.33-12.91,44.82-17.18C237.15,258.35,237.08,257.94,236.81,258Z"></path><path d="M307,245.48a264.35,264.35,0,0,0-44.94,8,179.22,179.22,0,0,0-19.6,6.88c-7.14,2.91-14.35,5.74-22.1,6.46-.12,0-.11.22,0,.21,14.45-.74,27.6-8.45,41.34-12.3,14.9-4.18,30.2-6,45.38-8.79A.23.23,0,0,0,307,245.48Z"></path><path d="M325.64,238.92c-7.89.26-15.87,1.51-23.67,2.66a236.53,236.53,0,0,0-24.52,4.51.11.11,0,0,0,0,.22c8-1.1,16-2.66,24-3.76s16.15-1.67,24.15-2.86C326.11,239.63,326.09,238.91,325.64,238.92Z"></path><path d="M212.38,264.53c-9.83,3.32-19.53,6.61-29.64,9-.12,0-.09.22,0,.19a109.54,109.54,0,0,0,29.73-9C212.66,264.7,212.54,264.47,212.38,264.53Z"></path><path d="M275.57,247.62c-11,1.23-22.3,4.68-32.59,8.7-.16.07-.07.35.1.3,5.35-1.69,10.72-3.35,16.14-4.79s11-2.38,16.44-3.73A.24.24,0,0,0,275.57,247.62Z"></path><path d="M331.43,240.81a147.52,147.52,0,0,1-26.35,7.32C295.74,250,286.45,252,277.15,254a0,0,0,0,0,0,.05c9.74-1.73,19.49-3.38,29.19-5.33,8.63-1.73,17.28-3.7,25.29-7.42C331.93,241.12,331.72,240.69,331.43,240.81Z"></path><path d="M216.22,270.26a115.25,115.25,0,0,1-19.52,6.59c-6.57,1.43-13.37,1.13-19.87,2.92-.17.05-.13.32,0,.28,7-1.47,14.14-.88,21.08-2.55,6.39-1.53,12.37-4.37,18.38-7C216.5,270.43,216.38,270.19,216.22,270.26Z"></path><path d="M118.9,280.69c-17.55,3.82-35.41.72-53.12,2.22a.18.18,0,0,0,0,.36c17.67.13,35.84,2.15,53.16-2.29A.15.15,0,0,0,118.9,280.69Z"></path><path d="M144.1,277.42a97.53,97.53,0,0,0-21.82,4.05c-.09,0-.07.16,0,.14,7.25-1.64,14.52-2.78,21.85-3.91C144.34,277.67,144.28,277.41,144.1,277.42Z"></path><path d="M80.48,280.35A129.51,129.51,0,0,0,55,278c-.09,0-.11.13,0,.13,8.5.72,17,1.74,25.45,2.54C80.66,280.69,80.68,280.39,80.48,280.35Z"></path></g><path d="M315.05,395.25,261.9,376.31s32.66-91,31.07-96.26c-1.06-3.5-70.44-.77-92.31-20.21-22.63-20.13-2.84-55.16-2.84-55.16h56.72s0,12.14,2.34,14.15c1.58,1.35,82.31,9.81,98.41,33.23C373.5,278.54,315.05,395.25,315.05,395.25Z" style="fill:#FFA52E"></path><path d="M337.12,449.28c-3.22-.13-84.67-31.48-87-34.64-.91-1.19,3-13.32,8.07-27.85l.17-.45c1-3,2.14-6.08,3.28-9.19.16-.42.32-.85.46-1.28C269.69,355,278,333.49,278,333.49l54.16,18.25-16.83,44-.68,1.65L311.12,406l-.36.88s25.81,25.95,28,29.7S340.33,449.43,337.12,449.28Z" style="fill:#FFA52E"></path><path d="M322.36,417.4c-.17-.14-.25-.23-.25-.29Z" style="fill:#FFA52E"></path><path d="M338.52,450.41c-2.12-.1-37.44-13.45-62.92-23.8-5.9-2.4-11.27-4.64-15.58-6.51-5.94-2.59-9.87-4.46-10.36-5.13-.86-1.17,10.12-35.09,11.92-38.9l53.71,20.65-3.68,10.33s26.35,26.52,28.6,30.34S341.8,450.54,338.52,450.41Z" style="fill:#263238"></path><path d="M337.84,446.33c-13.81-5.72-70.06-27.48-84.14-32.08-.12,0-.15,0,0,.09,13.57,6,70,27.27,84.09,32.22C338.05,446.66,338.13,446.45,337.84,446.33Z" style="fill:#FFA52E"></path><path d="M314,404.42c-5.09-3.14-12.13-4.89-17.83-2.59-.22.08-.09.4.11.41a82.49,82.49,0,0,1,17.43,2.86A.37.37,0,0,0,314,404.42Z" style="fill:#FFA52E"></path><path d="M317,408.33c-5.09-3.14-12.13-4.88-17.83-2.59-.22.09-.09.4.11.41A83.14,83.14,0,0,1,316.75,409,.37.37,0,0,0,317,408.33Z" style="fill:#FFA52E"></path><path d="M320.08,412.24c-5.09-3.14-12.13-4.88-17.83-2.59-.22.09-.09.4.11.42a82.49,82.49,0,0,1,17.43,2.86A.38.38,0,0,0,320.08,412.24Z" style="fill:#FFA52E"></path><path d="M323.12,416.16C318,413,311,411.27,305.29,413.57c-.22.08-.09.4.11.41a82.49,82.49,0,0,1,17.43,2.86A.37.37,0,0,0,323.12,416.16Z" style="fill:#FFA52E"></path><path d="M293.4,463.73c-3.18-.48-80.8-40.38-82.78-43.77-.78-1.28,4.37-12.93,11-26.82.07-.15.15-.29.22-.44,1.36-2.86,2.78-5.81,4.25-8.77.2-.41.4-.82.59-1.23,9.79-19.95,20.38-40.43,20.38-40.43l51.89,24L277.5,408.17l-.85,1.56-4.45,8.15-.46.84s22.88,28.56,24.68,32.53S296.58,464.23,293.4,463.73Z" style="fill:#FFA52E"></path><path d="M282.15,430.45c-.15-.15-.23-.25-.22-.31S282,430.25,282.15,430.45Z" style="fill:#FFA52E"></path><path d="M294.68,465c-2.11-.33-35.79-17.4-60-30.42-5.61-3-10.71-5.82-14.79-8.14-5.63-3.21-9.33-5.5-9.76-6.21-.72-1.26,13.83-33.8,16-37.4l51.19,26.29L272.57,419s23.35,29.19,25.18,33.24S297.92,465.49,294.68,465Z" style="fill:#263238"></path><path d="M294.44,460.88c-13.12-7.17-66.71-34.83-80.22-40.92-.11,0-.15,0-.05.08,12.85,7.39,66.66,34.62,80.15,41C294.61,461.23,294.71,461,294.44,460.88Z" style="fill:#FFA52E"></path><path d="M275.23,416.65c-4.73-3.67-11.54-6.16-17.45-4.49-.23.06-.13.39.06.42a82.78,82.78,0,0,1,17,4.72A.38.38,0,0,0,275.23,416.65Z" style="fill:#FFA52E"></path><path d="M277.83,420.86c-4.73-3.66-11.53-6.15-17.45-4.48-.23.06-.13.39.07.42a82.66,82.66,0,0,1,17,4.71A.38.38,0,0,0,277.83,420.86Z" style="fill:#FFA52E"></path><path d="M280.43,425.08c-4.72-3.67-11.53-6.16-17.44-4.49-.23.07-.14.39.06.43a82.49,82.49,0,0,1,17,4.71A.38.38,0,0,0,280.43,425.08Z" style="fill:#FFA52E"></path><path d="M283,429.3c-4.73-3.67-11.54-6.16-17.45-4.49-.23.07-.13.39.06.42a82.78,82.78,0,0,1,17,4.72A.38.38,0,0,0,283,429.3Z" style="fill:#FFA52E"></path><path d="M285.09,393.71l-51.63-22.18s40.16-87.8,38.4-89.21c-2.79-2.23-63.27-4.62-82-26.27-17.07-19.72,3.3-51.37,3.3-51.37h57.37s1.86,6.59-2,17.61c0,0,48.12,4.12,72.48,18.31,3.64,2.12,12,8,13.25,18.56C338.58,294.6,285.09,393.71,285.09,393.71Z" style="fill:#FFA52E"></path><path d="M278.28,226.57c4.72.88,9.42,1.94,14.08,3.12s9.31,2.47,13.89,4a99.73,99.73,0,0,1,13.42,5.44,34.2,34.2,0,0,1,6.17,3.92,24.24,24.24,0,0,1,4.83,5.57,28.48,28.48,0,0,1,3,6.7,39.24,39.24,0,0,1,1.41,7.19,59.92,59.92,0,0,1-.49,14.54,92.11,92.11,0,0,1-3.24,14.15c-.36,1.15-.68,2.32-1.07,3.46l-1.18,3.43c-.75,2.29-1.63,4.53-2.48,6.79-3.45,9-7.24,17.85-11.13,26.66s-7.95,17.52-12.14,26.19C295,375,286.32,392.21,277,409.06q6.57-12.84,12.88-25.81c4.23-8.64,8.4-17.3,12.44-26,8.08-17.44,16.07-35,22.9-52.9,3.36-9,6.61-18,8-27.5a58.35,58.35,0,0,0,.55-14.21,36.31,36.31,0,0,0-1.33-7,28.88,28.88,0,0,0-2.82-6.44,23.23,23.23,0,0,0-4.51-5.36,33,33,0,0,0-5.93-3.89A97.92,97.92,0,0,0,306,234.4,254.44,254.44,0,0,0,278.28,226.57Z" style="fill:#263238"></path><path d="M254.54,204.68s.73,9.61,3.11,11.51,33.93,7.14,37.92,7.93,18.22,4.24,20.76,6.08,21.49,6.13,25.19,7.89,6.31,6.77,6.25,6.74-12.45-4.69-18.49-4.86-5.88.69-8.28.63S301.54,243,292.74,248s-19,46.8-26.23,52.84S237,324.25,223.77,326.19s-24.74-12.12-38-16.68-38.63-2.94-44.9-10.32,14.23-14.14,15.49-25,1.22-11.13,9.27-15.79,13.19-8.55,15.34-12.61-.41-24,12.22-41.13Z" style="fill:#263238"></path><path d="M265.62,293.36c-.8-.91-1.68-1.72-2.54-2.57s-1.68-1.73-2.55-2.57c-1.69-1.62-3.39-3.24-5.11-4.82A54.87,54.87,0,0,0,245,275.56c-7.53-4.17-16.31-5.62-24.73-6.75-3.89-.52-8.5-1.67-10.74-5.2-.05-.09-.19,0-.13.08,1.89,2.94,5,4.69,8.22,5.77a115.46,115.46,0,0,0,12,2.9A56.61,56.61,0,0,1,242,276.28,54.9,54.9,0,0,1,253,283.67c2,1.63,4,3.29,6,4.95,1,.85,2.05,1.71,3.13,2.49s2.15,1.78,3.31,2.57C265.58,293.81,265.75,293.52,265.62,293.36Z" style="fill:#37474f"></path><path d="M251.65,289.48a67.44,67.44,0,0,0-7-8c-.07-.07-.18,0-.11.12A63.68,63.68,0,0,1,251,290c2,2.89,3.68,5.91,5.45,8.92.12.2.47.05.38-.17A42.85,42.85,0,0,0,251.65,289.48Z" style="fill:#37474f"></path><path d="M317.6,236.5a92.17,92.17,0,0,0-9-4.05,67.38,67.38,0,0,0-9.58-2.79,57.17,57.17,0,0,0-9.75-1.33c-3.48-.15-7,.08-10.44.21a60.29,60.29,0,0,1-12.09-.34c-.1,0-.14.13,0,.15a79.41,79.41,0,0,0,10.2,1.16c3.5.17,7,.24,10.51.46,3.3.21,6.61.49,9.89.92a77.33,77.33,0,0,1,9.54,2,64.67,64.67,0,0,1,10.67,3.68C317.61,236.6,317.65,236.52,317.6,236.5Z" style="fill:#37474f"></path><path d="M279.76,225.84c-1.87-.41-3.78-.67-5.66-1.05s-3.78-.75-5.67-1.11-3.78-.75-5.67-1.15a11.86,11.86,0,0,1-5-1.8c-.08-.06-.18,0-.11.11A11.7,11.7,0,0,0,261.9,223a60.36,60.36,0,0,0,5.91,1.69,59.26,59.26,0,0,0,5.92,1.09,54.51,54.51,0,0,0,6,.58A.26.26,0,0,0,279.76,225.84Z" style="fill:#37474f"></path><path d="M186,248.11a113.59,113.59,0,0,1-9.07,12,59.23,59.23,0,0,1-5.16,5.23c-1.92,1.72-3.93,3.32-5.91,5a36.46,36.46,0,0,1-3.58,2.62c-1.29.84-2.64,1.59-3.9,2.48-.1.07,0,.27.1.21,2.5-1,4.84-2.46,7.27-3.65a27.6,27.6,0,0,0,6.56-4.5,41.54,41.54,0,0,0,5-5.64,71.26,71.26,0,0,0,4.28-6.21c1.5-2.48,3-5,4.5-7.42C186.23,248.1,186.09,248,186,248.11Z" style="fill:#37474f"></path><path d="M192.32,241.57c-1.47,8.39-3.51,17.07-8.95,23.85a41.73,41.73,0,0,1-4.89,5c-1.74,1.56-3.47,3.12-5.22,4.66-3.44,3-6.92,6-10.51,8.86-2,1.6-4,3.21-6.07,4.8a50.47,50.47,0,0,1-6.53,4.26c-.08,0,0,.15.07.11,2.13-1,4.17-2.16,6.27-3.2a48.81,48.81,0,0,0,6-3.61,113.47,113.47,0,0,0,10.92-8.76c3.53-3.14,7.26-6.24,10.27-9.9a32.51,32.51,0,0,0,5.8-11.46,119.73,119.73,0,0,0,3-14.54C192.49,241.51,192.34,241.48,192.32,241.57Z" style="fill:#37474f"></path><path d="M208.74,319.47a29,29,0,0,1-2-4.45c-.5-1.49-1-3-1.57-4.44-1.18-2.86-2.29-5.75-3.37-8.65a44,44,0,0,1-2.67-9.11,36.08,36.08,0,0,1,.25-9.79c.48-3.78.81-7.57,1.34-11.34a.08.08,0,0,0-.16,0c-.48,3.42-1.07,6.82-1.66,10.23a65.15,65.15,0,0,0-1.32,10,27.09,27.09,0,0,0,1.84,9.28c1.08,3.07,2.27,6.1,3.5,9.11A24.87,24.87,0,0,0,205.4,315c1,1.52,2,3.11,3,4.65A.19.19,0,0,0,208.74,319.47Z" style="fill:#37474f"></path><path d="M229.71,314.76A22.37,22.37,0,0,0,227,306a27,27,0,0,0-5.91-7.36c-2.45-2.22-5-4.37-7.26-6.75A70.57,70.57,0,0,1,206.4,283a.08.08,0,1,0-.13.08c1.87,2.73,3.77,5.46,5.84,8.05s4.22,5,6.46,7.33a46.39,46.39,0,0,1,6,7.16,28.19,28.19,0,0,1,3.17,8.16,31.25,31.25,0,0,1,.84,4.89c.07.83.14,1.65.14,2.48s-.06,1.78-.05,2.67a.15.15,0,0,0,.3,0,23.83,23.83,0,0,0,.75-4.52A25.38,25.38,0,0,0,229.71,314.76Z" style="fill:#37474f"></path><path d="M245.34,152.79c25.78,17.93,78.11,31.86,82.74,22.63,4.5-8.95,9.16-40.09,1.92-63.6-1.07-3.47-35.94,9.87-34.58,14.76,1.41,5.11,3.67,15.52,3.26,19.57-.2,2-31.85-4.38-44.78-6.46C230,135.86,238.17,147.8,245.34,152.79Z" style="fill:#f7a9a0"></path><path d="M295.84,133.47l39.39-5.66s.25,45.43-7.79,51-51.8-4.5-78.47-22.84-3.19-18.57,4.61-17.24,43.61,8.05,44.57,7.37S295.84,133.47,295.84,133.47Z" style="fill:#263238;opacity:0.6000000000000001"></path><path d="M335.23,127.81l-39.39,5.66s-1.52-3.28-.69-3.66,3,2.13,3,2.13.54-3.57,2.27-3.84,3.19,3.28,3.19,3.28,1-4.25,2.43-4.42,2.9,3.61,2.9,3.61,1-4.45,2.82-4.69,4,3.57,4,3.57.8-4.24,3-4.3,2.86,3.81,2.86,3.81,1.2-3.71,3.06-4,3.35,3.15,3.35,3.15,1-3.47,2.34-3.74,2.29,2.65,2.29,2.65,1.43-2.87,2.61-2.5S335.23,127.81,335.23,127.81Z" style="fill:#fff"></path><path d="M281.51,178.08s-25.45.3-27.23-1.72-22.79-28.64-22.79-28.64l10.67-13.33c0,.08,1.33,1.53,3.43,3.88-8.56.4-16.44,4,3.38,17.66a135.13,135.13,0,0,0,24.12,12.84C278,174.2,281.51,178.08,281.51,178.08Z" style="fill:#FFA52E;opacity:0.1"></path><path d="M273.09,168.77A135.13,135.13,0,0,1,249,155.93c-19.82-13.64-11.94-17.26-3.38-17.66C251.68,145.06,264.53,159.29,273.09,168.77Z" style="opacity:0.1"></path><path d="M293,137.21c-1.41.83-26.12-10.4-31.64-14.84S235.64,106.29,223,98.24c-10.95-7-24.75-20.68-26.55-24.8-.28-.62-.28-1,0-1.16a.87.87,0,0,1,.21,0c2.4-.27,19.44,2.87,32,13.41,7.75,6.51,22.86,11.27,33.32,16.5,9.48,4.75,28.43,29.08,30.79,34.15C293.05,136.81,293.12,137.13,293,137.21Z" style="fill:#FFA52E"></path><path d="M293,137.21c-1.41.83-26.12-10.4-31.64-14.84S235.64,106.29,223,98.24c-10.95-7-24.75-20.68-26.55-24.8-.28-.62-.28-1,0-1.16a.87.87,0,0,1,.21,0c2.4-.27,19.44,2.87,32,13.41,7.75,6.51,22.86,11.27,33.32,16.5,9.48,4.75,28.43,29.08,30.79,34.15C293.05,136.81,293.12,137.13,293,137.21Z" style="opacity:0.5"></path><path d="M236.93,151.33c-11.43,10-23.46,24-38.73,28-12,3.11-24.54-.43-35.23-6-23.5-12.18-45.79-37.74-37.66-66,3.26-11.28,18.13-24.7,30.86-20.52,6.53,2.16,11.5,7,17,10.95,7.17,5.26,14.82,7.08,23.55,5.18,17-3.7,25-12,39.06-21.45,2.61-1.73,5.48-3.09,9.47-2.33a21.36,21.36,0,0,1,10.6,4.33,21.29,21.29,0,0,1,7.73,6.93c4.07,6.32,3.18,16.22,3.45,23.42s-1.59,12.22-7,17.16C252.38,137.93,244.6,144.57,236.93,151.33Z" style="fill:#263238"></path><path d="M232.52,157.28c9.89-9.89,19.56-19.95,29.32-30,.06-.06,0-.16-.09-.1-8.26,8-16.63,15.89-24.79,24-8,7.95-15.68,16.68-24.34,23.9-19.46,16.22-43.8,2.36-56.31-15.22-.56-.8-1.77.2-1.17,1,11.47,15.09,30.66,28.67,50.29,20.25C216.17,176.54,224.44,165.36,232.52,157.28Z" style="fill:#263238"></path><path d="M237.53,81.67c.21-.17-.05-.48-.27-.32-11.26,8.22-23.62,18.86-38,20.26a35.37,35.37,0,0,1-20.5-4.24c-4.93-2.75-8.54-7-12.8-10.55-16.66-14-39.31,3.86-38.37,23,0,.4.71.39.71,0-.05-14,10.05-26.71,24.71-27,11.75-.26,18,12.32,28.08,16.78C201.84,108.81,222,94.66,237.53,81.67Z" style="fill:#263238"></path><path d="M254.54,204.68H193.15s17.38-48.93,36-64.24c8.47-7,15.57-4.81,21.06,1.09,1.37,1.48,13,24.75,13.53,33.38.45,7.63-7.59,13.36-7.59,13.36Z" style="fill:#f7a9a0"></path><path d="M254.54,204.68H193.15s17.38-48.93,36-64.24c8.47-7,15.57-4.81,21.06,1.09,1.37,1.48,13,24.75,13.53,33.38.45,7.63-7.59,13.36-7.59,13.36Z" style="fill:#263238;opacity:0.6000000000000001"></path><path d="M263.72,174.91c.45,7.63-7.59,13.36-7.59,13.36l-1.59,16.41H193.15A314.55,314.55,0,0,1,209.29,168h0c2-.72,21-7.41,27.15-7.89s12.29,5.73,12.29,5.73,5.07-5.94,10.55-5.6C261.61,165.94,263.51,171.54,263.72,174.91Z" style="fill:#263238"></path><path d="M247.44,183.45a50.69,50.69,0,0,0-8.76.67c-1.44.26-2.87.59-4.3,1-.72.18-1.43.34-2.15.5a8.27,8.27,0,0,1-2.26.23c-.07,0-.08.11,0,.12a13.85,13.85,0,0,0,2.13.21,13.35,13.35,0,0,0,2.08-.22c1.47-.24,2.93-.57,4.4-.84,2.95-.53,5.91-1.07,8.89-1.35C247.58,183.73,247.58,183.45,247.44,183.45Z" style="fill:#455a64"></path><path d="M254.2,187.34a53.59,53.59,0,0,0-7.1-1.26c-1.2-.12-2.39-.16-3.6-.17-.58,0-1.15,0-1.73,0s-1.27.14-1.9.15c-.07,0-.09.12,0,.13.6,0,1.19.14,1.79.19l1.79.16,3.58.32c2.4.18,4.78.4,7.17.68C254.3,187.59,254.32,187.37,254.2,187.34Z" style="fill:#455a64"></path><path d="M234.44,138.61c.31,1.41,6.89,10.65,13.32,10.45,2.1-.07,2.23-11.53,2.23-11.53l.2-.85L253,124.87l-13.78-9.15-2-1.21s-.56,3.28-1.22,7.38l-.09.58c-.05.23-.09.45-.12.67-.11.61-.21,1.23-.3,1.85s-.15.94-.21,1.44-.13,1-.2,1.49A78.7,78.7,0,0,0,234.44,138.61Z" style="fill:#f7a9a0"></path><path d="M253,124.87l-1.44,6c-6.7,2.28-14.84.24-16.76-.3.08-.88.17-1.78.28-2.67.08-.5.13-1,.21-1.49s.12-1,.2-1.44.19-1.24.3-1.85c0-.22.07-.44.11-.67s.07-.4.1-.58c.66-4.1,1.22-7.38,1.22-7.38l2,1.21Z" style="fill:#263238"></path><path d="M249.94,139.16s-.08,9.83-2.17,9.89c-6.44.21-13-9-13.33-10.44a20.21,20.21,0,0,1,.09-4.22C234.87,134.63,241.88,139.8,249.94,139.16Z" style="fill:#263238;opacity:0.6000000000000001"></path><path d="M234.53,134.41s7.56,5.64,15.41,4.75c0,0,.9-1.5.48-2s-1.68,1.48-1.68,1.48-.15-1.56-1-1.89-2,1.55-2,1.55-.44-2-1.59-2.21-1.94,1.39-1.94,1.39-.51-2.4-1.52-2.61-1.75,1.33-1.75,1.33-.55-2-1.19-2.24-1.4,1-1.4,1-1-2-1.47-2.05S234.53,134.41,234.53,134.41Z" style="fill:#fff"></path><path d="M224.53,102.23c-6.18,20.4,5.34,26.41,9.74,27.74,4,1.2,17.75,4.8,26-14.85s.72-29-8.27-32.22S230.71,81.83,224.53,102.23Z" style="fill:#f7a9a0"></path><path d="M233.07,99.77a13.88,13.88,0,0,0,1.44.07,2.35,2.35,0,0,0,1.48-.21.72.72,0,0,0,.23-.87,1.84,1.84,0,0,0-1.64-.89,2.77,2.77,0,0,0-1.89.5A.79.79,0,0,0,233.07,99.77Z" style="fill:#263238"></path><path d="M247.65,103.62a12,12,0,0,1-1.29-.65,2.3,2.3,0,0,1-1.19-.91.75.75,0,0,1,.23-.88,1.87,1.87,0,0,1,1.87,0,2.77,2.77,0,0,1,1.4,1.36A.79.79,0,0,1,247.65,103.62Z" style="fill:#263238"></path><path d="M243.13,107.73s.09.1.07.15c-.43,1.35-.71,3,.39,3.79,0,0,0,.09,0,.07C242.11,111.09,242.5,108.94,243.13,107.73Z" style="fill:#263238"></path><path d="M244.77,106.66c2.24.47,1.14,4.92-.94,4.49S242.89,106.26,244.77,106.66Z" style="fill:#263238"></path><path d="M245.58,107.11c.33.35.6.89,1.06,1s1.06-.18,1.52-.54c.05,0,.08,0,.07.07-.2.86-.75,1.66-1.7,1.56s-1.27-1-1.27-1.91C245.26,107.17,245.45,107,245.58,107.11Z" style="fill:#263238"></path><path d="M234.81,105.3s-.12,0-.13.1c-.29,1.39-.85,2.94-2.21,3.1a0,0,0,0,0,0,.08C234,108.73,234.76,106.67,234.81,105.3Z" style="fill:#263238"></path><path d="M233.93,103.56c-2.19-.7-3.43,3.72-1.41,4.37S235.76,104.15,233.93,103.56Z" style="fill:#263238"></path><path d="M232.92,103.59c-.41.14-.88.47-1.3.38s-.72-.69-.9-1.23c0-.06-.06,0-.08,0-.26.84-.23,1.79.54,2.19s1.44-.22,1.88-1C233.14,103.81,233.09,103.54,232.92,103.59Z" style="fill:#263238"></path><path d="M238.82,118.87c-.4.26-.83.64-1.34.58a3.86,3.86,0,0,1-1.43-.65,0,0,0,0,0-.07.06A1.91,1.91,0,0,0,237.6,120a1.52,1.52,0,0,0,1.34-1C239,118.88,238.88,118.83,238.82,118.87Z" style="fill:#263238"></path><path d="M234.36,112.39s-.82,2-1.07,3c0,.1.2.2.52.3l0,0a4.75,4.75,0,0,0,4.92-.56c.1-.08,0-.21-.11-.17a7.21,7.21,0,0,1-4.52.11c0-.29,1.52-3.35,1.37-3.4a8.86,8.86,0,0,0-2.33-.08c1.58-4.17,3.83-8.06,5.34-12.25a.13.13,0,0,0-.23-.12c-2.64,3.91-4.57,8.67-6.32,12.94C231.74,112.67,233.93,112.46,234.36,112.39Z" style="fill:#263238"></path><path d="M234,115.49a6,6,0,0,0,1.82,2.42,2.73,2.73,0,0,0,1.55.53c1.22,0,1.53-1,1.57-2a6.45,6.45,0,0,0-.14-1.51A7.68,7.68,0,0,1,234,115.49Z" style="fill:#263238"></path><path d="M235.8,117.91a2.73,2.73,0,0,0,1.55.53c1.22,0,1.53-1,1.57-2A2.77,2.77,0,0,0,235.8,117.91Z" style="fill:#ff9bbc"></path><path d="M259.09,118.16a8.9,8.9,0,0,1-3.11-8.23,23.38,23.38,0,0,1-7.39-9.67c0,.47.29,3.84.47,5.56-12.71-5.76-14.33-17-14.33-17a23.58,23.58,0,0,0-7.87,7s1.91-8.19,7.45-12.63A13.55,13.55,0,0,1,247.8,80.8a19.38,19.38,0,0,1,17,10.17C271.12,102.52,259.09,118.16,259.09,118.16Z" style="fill:#263238"></path><path d="M239.48,101.12a25.13,25.13,0,0,0,6.21,4.19s0,0,0,0A21.51,21.51,0,0,1,237.38,97a20.52,20.52,0,0,1-1.89-4.72,14.3,14.3,0,0,1-.52-5.51.11.11,0,0,0-.21,0,16.47,16.47,0,0,0-.23,5.51,14.81,14.81,0,0,0,1.88,5.14,17.13,17.13,0,0,0,3.07,3.77" style="fill:#263238"></path><path d="M258,122.65a4,4,0,0,1-1,0,3.29,3.29,0,0,1-1-.18,2.84,2.84,0,0,1-1.12-.64,3.61,3.61,0,0,1-.66-.77,4.12,4.12,0,0,1-.54-1.34l2.32-5.33s5.93-5.55,8.54-3.3S261.78,122.09,258,122.65Z" style="fill:#f7a9a0"></path><path d="M263,113.58a.05.05,0,0,1,0,.1c-2.64.47-4.39,2.46-5.78,4.61a2,2,0,0,1,3,.08c.06.06,0,.14-.09.11a2.22,2.22,0,0,0-2.55.26,10.84,10.84,0,0,0-1.55,1.69c-.16.19-.53,0-.39-.24l0,0C256.24,117,259.57,113.19,263,113.58Z" style="fill:#263238"></path><path d="M293.05,137c-2.35-5.05-22.58-30.16-32-34.89-10.41-5.21-25.46-9.95-33.17-16.43-12.47-10.5-28.73-13.67-31.12-13.4,7.63-1.64,37.84,7.13,37.84,7.13s1.49,0,19.15,9c18.69,9.53,26.65,21.19,27.63,22.65C288.23,121.29,292.37,133.69,293.05,137Z" style="fill:#263238"></path><path d="M303.66,89.84c-.51,2.2-1.56-1.72-1.92-5.79-.22-2.49-.69-4.83-1.69-5.74-2.26-2-8.33-7.61-8.33-7.61s.49,4.84-2.49,4.89-3.15.31-3.15.31-.64,3.9-2.15,4.86-5.18,1.35-4.76,4-4.39,18.8-4.39,18.8c-1.19-1.82-39.44-23.93-39.44-23.93s35.25-19.49,41.13-20.28c6.13-.83,14.39-.17,17.78,2.58s9.82,14.15,9.91,15.91S304.47,86.37,303.66,89.84Z" style="fill:#263238"></path><path d="M279.17,83.85a4.35,4.35,0,0,0-.43-1.46,9.45,9.45,0,0,0-.75-2,13.72,13.72,0,0,1-1.32-3.77s-.05,0,0,0a14.49,14.49,0,0,0,.7,3.24c.16.41.35.79.53,1.18a7,7,0,0,0-1.14-1,45.44,45.44,0,0,0-4.8-3c-.06,0-.1.08,0,.11,2.61,1.74,5.59,3.23,7,6.75C279,84.07,279.19,84.06,279.17,83.85Z" style="fill:#37474f"></path><path d="M286.13,75.86c-1.27-1.89-3.21-2.4-4.54-4.24a0,0,0,0,0,0,0A8.13,8.13,0,0,0,283.4,74c.42.34.89.57,1.31.91s.87.76,1.34,1.08C286.11,76,286.17,75.93,286.13,75.86Z" style="fill:#37474f"></path><path d="M274.91,103.14s-14.23-14-39.57-23.49c-.6-.23,7-4.83,7.57-5s21.37,8.1,33.74,22.39C277.18,97.63,274.91,103.14,274.91,103.14Z" style="fill:#FFA52E"></path><path d="M249.67,89.4a12.37,12.37,0,0,1-2-.93c-1.36-.72-3.24-1.82-4.9-2.86-3.1-1.94-3.29-2.25-3.46-3a2.34,2.34,0,0,1,.29-1.67,35.92,35.92,0,0,1,2.76-3.73c2.38-2.88,2.71-2.91,3.12-2.94h0c.3,0,1.09-.09,5.25,2.16s4.44,2.78,4.59,3a2.25,2.25,0,0,1,.33,1.5c-.21,1.82-4.15,7.85-4.79,8.34A1.2,1.2,0,0,1,249.67,89.4Zm-7.26-7.61a74,74,0,0,0,7.37,4.29,54.16,54.16,0,0,0,3-5,49,49,0,0,0-6.88-3.54A51.18,51.18,0,0,0,242.41,81.79Zm-1-.75,12.2.63Z" style="fill:#ebebeb"></path><path d="M331,115.46s-5.45-23.59-19.34-34.84c-4.87-4-27.58-17.65-31-12.2-3.1,4.93,17.94,14.17,17.94,14.17S278.2,71.38,275.55,78s22.51,13.9,22.51,13.9-21.22-11-22.86-3.78c-1.25,5.48,21.16,13.36,21.16,13.36s-18.3-9.36-19.82-3.77c-1.69,6.17,18.54,14.74,18.54,14.74-1.68,5-2.21,8.9.34,14.12C296.13,128.05,331,115.46,331,115.46Z" style="fill:#f7a9a0"></path><path d="M305.9,86c-2.35-1.4-4.72-2.84-7.18-4s-5-2.29-7.54-3.25A46.62,46.62,0,0,0,280.85,76c6.21,1.39,15.1,5.51,17.56,6.7s5,2.25,7.45,3.43C305.92,86.13,306,86,305.9,86Z" style="fill:#263238"></path><path d="M301.77,95c-3.08-1.66-6.07-3.43-9.22-4.95s-6.25-2.69-9.48-4c-.25-.1-.22.06,0,.17,3.18,1.43,6,3,9.16,4.46s6.38,2.8,9.47,4.37C301.78,95.09,301.82,95,301.77,95Z" style="fill:#263238"></path><path d="M299.61,103.33a78.23,78.23,0,0,0-14.68-6.49c-.25-.08-.19.13.06.23,4.92,2.07,8.8,3.65,14.52,6.42C299.6,103.53,299.7,103.39,299.61,103.33Z" style="fill:#263238"></path><path d="M226.66,141.87c-24.88,25.9-61.16,91.49-65.64,100.9-3.05,6.39,30.33,23.22,31.75,18.57,1.81-5.94,30.89-79.35,38.61-107C235.64,139,231.8,136.52,226.66,141.87Z" style="fill:#f7a9a0"></path><path d="M194.34,257c-1.16,3.18-5.13,16.69-7.9,18.37s-17.32,1.32-24.65,1.32-8.78-2-8.66-4.56,15.51-3,15.51-3-20.55,5.89-25.72,6.85-17.07,4-18.79-.32c-.78-1.93,2.48-3.88,2.48-3.88s-5,1.46-5.79-1c-.91-2.83,3.07-4.38,3.07-4.38s-3.13.63-3.2-1.68c-.16-5.15,19.38-7.68,19.38-7.68s-15,7.29-15.44,3.09c-.67-5.82,30-12.2,33.19-14.73a21.7,21.7,0,0,0,5.12-6.32Z" style="fill:#f7a9a0"></path><path d="M153.24,273.36a2.29,2.29,0,0,1,.7-2,6.31,6.31,0,0,1,1.79-1.15,23.72,23.72,0,0,1,4.2-1.37c2.89-.73,5.85-1.25,8.8-2a35.46,35.46,0,0,0-9,1,16,16,0,0,0-4.32,1.65,5.84,5.84,0,0,0-1.81,1.55A2.36,2.36,0,0,0,153.24,273.36Z" style="fill:#263238"></path><path d="M126.61,271.72c2.11-.52,4.2-1.12,6.28-1.72s4.15-1.24,6.22-1.86l6.19-1.94c2.06-.65,4.12-1.29,6.21-1.91a48,48,0,0,0-6.42,1.15c-2.12.48-4.21,1.09-6.29,1.72s-4.13,1.32-6.16,2.09S128.59,270.8,126.61,271.72Z" style="fill:#263238"></path><path d="M146.55,259.16a40.67,40.67,0,0,0-5.93.82,55.42,55.42,0,0,0-5.8,1.49,52.45,52.45,0,0,0-5.61,2.1,40.48,40.48,0,0,0-5.32,2.74c1.89-.65,3.73-1.38,5.6-2s3.75-1.27,5.64-1.85,3.77-1.15,5.67-1.71S144.62,259.68,146.55,259.16Z" style="fill:#263238"></path><path d="M143.52,254.25a36.72,36.72,0,0,0-9.43,2,36.26,36.26,0,0,0-8.68,4.2c3-1.08,6-2.23,9-3.23S140.46,255.24,143.52,254.25Z" style="fill:#263238"></path><path d="M160.6,241.19,197,253.41s32.49-89.26,35.27-102.54c1.49-7.11,1.91-14.88-4.34-10.39C207.13,155.43,160.6,241.19,160.6,241.19Z" style="fill:#263238;opacity:0.6000000000000001"></path><path d="M160.6,241.19,197,253.41s-.11,3.69-1,3.66-1.69-3.17-1.69-3.17-2,2.86-3.64,2.34-1.35-4.23-1.35-4.23-2.74,3.23-4,2.77-1-4.39-1-4.39-2.8,3.41-4.48,2.84-2-4.85-2-4.85-2.54,3.32-4.49,2.4-.82-4.54-.82-4.54-2.65,2.7-4.39,2.12-1.53-4.19-1.53-4.19-2.35,2.59-3.66,2.22-.82-3.29-.82-3.29-2.5,1.86-3.36,1S160.6,241.19,160.6,241.19Z" style="fill:#fff"></path><path d="M228.9,162.42c.43-1.7.94-3.35,1.47-5a45,45,0,0,1,1.83-4.88,24.26,24.26,0,0,1-1.12,5.12A20.49,20.49,0,0,1,228.9,162.42Z" style="fill:#263238"></path><path d="M230.31,158.77a8.44,8.44,0,0,1,.86-1.85,10.84,10.84,0,0,1,1.2-1.63,4,4,0,0,1-.31,1,7.1,7.1,0,0,1-.47.91A6.88,6.88,0,0,1,230.31,158.77Z" style="fill:#263238"></path><g style="opacity:0.5"><path d="M244.57,348.38s-24.1,1-35.24-9.77c-13.94-13.46,12-33.25,35.76-40.53,26.68-8.19,55.32-12.08,55.32-12.08S289,274.84,260.85,274.84c-19.51,0-20.17,14.07-20.17,14.07s-21,.71-36.93,16.16C191.62,316.86,181.77,350.35,244.57,348.38Z" style="fill:#FFA52E"></path><path d="M330.56,359.72c7.87,2.15,19.95,11,17.83,21.21-6.21,29.84-67.16,27.67-84,29.84-69.67,9-29.07,23.82-29.07,23.82s-26.15.52-26.15-11.54c0-12.81,21.88-16.19,59.83-16.19,34.68,0,67.56-13.27,69.15-30A18.5,18.5,0,0,0,330.56,359.72Z" style="fill:#FFA52E"></path><path d="M187.25,318.48s-11.72,24.19,21.48,30c0,0-25.21,1.24-29.07-9.64S187.25,318.48,187.25,318.48Z" style="fill:#FFA52E"></path><path d="M212.17,261.9c7.65-38,50.5-40.45,80.49-36.63s59.93-3.11,76.61-33.27c11.35-20.51,3.18-35.4-9.81-31.89s-11,22.32-17.52,35.73c-5.82,12-15.92,24.45-41.53,24.45-19.25,0-38.37-13-63.31-1.19S212.17,261.9,212.17,261.9Z" style="fill:#FFA52E"></path><path d="M346.35,168.58s4.32-13.88,19.62-11.31C366,157.27,348.43,146.72,346.35,168.58Z" style="fill:#FFA52E"></path><path d="M342.18,363.7s11.07,5.07,8.32,16.13C350.5,379.83,358.79,363,342.18,363.7Z" style="fill:#FFA52E"></path><path d="M235.06,282.19a2.94,2.94,0,1,1-2.94-2.93A2.94,2.94,0,0,1,235.06,282.19Z" style="fill:#FFA52E"></path><path d="M241.16,421.54a2.93,2.93,0,1,1-2.93-2.93A2.93,2.93,0,0,1,241.16,421.54Z" style="fill:#FFA52E"></path><path d="M369.92,210.64a2.94,2.94,0,1,1-2.94-2.93A2.94,2.94,0,0,1,369.92,210.64Z" style="fill:#FFA52E"></path><path d="M218.54,330.77a1.47,1.47,0,1,1-1.47-1.47A1.47,1.47,0,0,1,218.54,330.77Z" style="fill:#FFA52E"></path><path d="M334.76,196.39a1.47,1.47,0,0,1-2.93,0,1.47,1.47,0,1,1,2.93,0Z" style="fill:#FFA52E"></path><path d="M246.78,233.62a1.47,1.47,0,1,1-1.47-1.47A1.46,1.46,0,0,1,246.78,233.62Z" style="fill:#FFA52E"></path><path d="M334.76,373.24a1.47,1.47,0,1,1-1.46-1.46A1.46,1.46,0,0,1,334.76,373.24Z" style="fill:#FFA52E"></path><path d="M204.16,418.61a1.47,1.47,0,1,1-2.93,0,1.47,1.47,0,0,1,2.93,0Z" style="fill:#FFA52E"></path></g></g><g id="freepik--Cat--inject-44"><path d="M121.32,271.84c.39-.11,6.39-.67,7.75-8.76s-8.86-18.5-7.51-31.26,6.76-18.16,11.43-16c4.93,2.3,0,11.58-2.46,16.35-3.88,7.47,1.73,17.52,2.79,25.55,1,7.55-2.78,17.31-11.27,18.49Z" style="fill:#263238"></path><path d="M126,269.55l-.43,5.6a11.51,11.51,0,0,1-3.47,1.06l-.73-4.37A8.78,8.78,0,0,0,126,269.55Z" style="fill:#37474f"></path><path d="M97.36,211.06c1.2-.36,2.43-.64,3.65-.92s2.46-.5,3.69-.72c2.47-.43,5-.75,7.46-1s5-.38,7.52-.4c1.25,0,2.5,0,3.76,0s2.5.12,3.75.21c-2.5,0-5,0-7.5.15-1.25,0-2.5.13-3.75.2s-2.49.19-3.73.32c-2.49.21-5,.53-7.45.88S99.82,210.56,97.36,211.06Z" style="fill:#263238"></path><path d="M98.55,212.37c2.23-.37,4.48-.61,6.73-.79s4.52-.26,6.78-.31,4.52,0,6.78.15,4.51.36,6.74.68c-1.13,0-2.25-.15-3.38-.17l-1.69-.08-1.69,0-3.38-.06c-1.12,0-2.25,0-3.38,0-2.25,0-4.5.09-6.75.19-1.13.05-2.26.11-3.38.18S99.68,212.29,98.55,212.37Z" style="fill:#263238"></path><path d="M98.08,213.86c1.88-.13,3.77-.11,5.65-.06s3.77.18,5.65.36,3.75.4,5.6.7c.94.15,1.86.32,2.79.48s1.85.38,2.76.59c-1.87-.22-3.73-.47-5.6-.68s-3.73-.41-5.6-.59-3.74-.33-5.62-.47c-.93-.08-1.87-.13-2.81-.18S99,213.9,98.08,213.86Z" style="fill:#263238"></path><path d="M85.6,192.26s6.5-7.9,12.79-9.69c.53-.16-.78,16.33-1,17.15S85.6,192.26,85.6,192.26Z" style="fill:#263238"></path><path d="M87.7,193.38s5-6,9.73-7.38c.4-.12-.59,12.44-.78,13.06S87.7,193.38,87.7,193.38Z" style="fill:#37474f"></path><path d="M63.55,239.53c.31,3.43,6,33.19,6,33.65S66.88,275,66.41,276s-.88,2.76-.48,3.17,3.84.85,4.87.91,5.91-1.7,6.63-2.16.8-3.68.85-4.09,3.35-22.79,3-24.9S63.55,239.53,63.55,239.53Z" style="fill:#263238"></path><path d="M68.13,275.65a3.47,3.47,0,0,0-.89.62,3,3,0,0,0-.58,1,3.77,3.77,0,0,0-.22,1.24,1.58,1.58,0,0,0,.26,1c0,.06.16,0,.13-.07a6.52,6.52,0,0,1,.36-2.06,4.29,4.29,0,0,1,.37-.85,2.15,2.15,0,0,1,.62-.81S68.18,275.62,68.13,275.65Z" style="fill:#37474f"></path><path d="M71,276.1a4.26,4.26,0,0,0-1,.65,2.81,2.81,0,0,0-.68,1,2.2,2.2,0,0,0,.21,2.33s.09,0,.07,0a2.2,2.2,0,0,1-.08-1.14,5.18,5.18,0,0,1,.26-1,4.68,4.68,0,0,1,.5-.9,2.77,2.77,0,0,1,.79-.81C71.05,276.15,71,276.08,71,276.1Z" style="fill:#37474f"></path><path d="M80.27,259.48l-14.71-8c-1-5.7-1.9-10.63-2-11.91,0,0,17.39,7.32,17.73,9.44C81.44,249.87,80.92,254.46,80.27,259.48Z" style="fill:#37474f"></path><path d="M61.4,207.55c.3-4.11,4.37-21.14,12.43-26C75.2,180.74,77,193.1,77,193.1s7.51-2.72,11.14-2.68S106,205.74,106.91,209.2,98,227.13,98,227.13s9.22,8.17,16.32,14.56c5.13,4.62,10.36,31.59,9.81,34.52s-20.21,5.17-23.37,4.79S82.31,260.18,75.2,254.52c-3.81-3-10.12-4.37-11.45-13.19S61,212.58,61.4,207.55Z" style="fill:#263238"></path><path d="M72.48,231.35s0-.1-.08,0A21.09,21.09,0,0,0,70,237.36a13.55,13.55,0,0,0-.36,3.41,5.67,5.67,0,0,0,.31,1.69c.14.36.37.75.8.78s.73-.57.9-1c.09-.19.17-.39.25-.58a8,8,0,0,0,.38,3.14,7.12,7.12,0,0,0,2.77,3.82c.09.05.2-.07.12-.15a10.4,10.4,0,0,1-2.37-3.84,8.92,8.92,0,0,1-.22-4.5.19.19,0,0,0-.36-.12,19.55,19.55,0,0,1-.94,1.89c-.06.13-.13.25-.2.38s-.12.35-.28.28-.26-.6-.3-.78a11,11,0,0,1,0-3.67A19.27,19.27,0,0,1,72.48,231.35Z" style="fill:#37474f"></path><path d="M78.23,241.63c.47,2.27,3.83,33.5,3.84,34s-2.8,1.65-3.33,2.64-1.06,2.7-.68,3.14,3.78,1.09,4.8,1.22,6-1.32,6.75-1.73,1-3.62,1.11-4,4.81-22.53,4.6-24.65S78.23,241.63,78.23,241.63Z" style="fill:#263238"></path><path d="M79.86,253.21c-.26-2.07-.61-4.11-.89-6.18,0,0-.08,0-.07,0,.08,1.39.15,2.78.26,4.17l-.27-.88c-.2-.76-.38-1.53-.52-2.3a0,0,0,0,0-.05,0,12.6,12.6,0,0,0,.37,2.36,11.47,11.47,0,0,0,.54,1.66l.12,1.24a41.71,41.71,0,0,0,1,6.1,0,0,0,0,0,.09,0A53,53,0,0,0,79.86,253.21Z" style="fill:#37474f"></path><path d="M96.18,256.67c-.35,1-.72,2-1.14,3-.15.35-.33.69-.49,1,.34-1.68.67-3.37,1-5.06,0,0,0-.06-.06,0-.79,2.8-1.47,5.64-2.14,8.47-.34,1.4-.67,2.81-1,4.22a30.39,30.39,0,0,0-.72,4.23,0,0,0,0,0,.09,0,29.5,29.5,0,0,0,1.15-4.11c.36-1.4.65-2.82.95-4.23.19-.89.37-1.78.56-2.67.1-.23.23-.46.34-.69.23-.45.44-.92.64-1.38a16.9,16.9,0,0,0,.9-2.77C96.27,256.64,96.2,256.63,96.18,256.67Z" style="fill:#37474f"></path><path d="M80.28,278a3.7,3.7,0,0,0-.9.62,3.25,3.25,0,0,0-.58,1,3.51,3.51,0,0,0-.21,1.24,1.58,1.58,0,0,0,.26,1c.05.06.15,0,.12-.07a6.54,6.54,0,0,1,.37-2.06,3.74,3.74,0,0,1,.36-.85,2.34,2.34,0,0,1,.62-.81A0,0,0,1,0,80.28,278Z" style="fill:#37474f"></path><path d="M83.09,278.48a4,4,0,0,0-1,.65,3,3,0,0,0-.69,1,2.2,2.2,0,0,0,.21,2.33s.09,0,.07,0a2.1,2.1,0,0,1-.07-1.14,4.58,4.58,0,0,1,.26-1,4.63,4.63,0,0,1,.49-.9,2.81,2.81,0,0,1,.8-.81S83.14,278.46,83.09,278.48Z" style="fill:#37474f"></path><path d="M115.28,257c-2.17-3.11-16.82-12.7-21.94-9.14S87,267.25,98.28,278.33a15.87,15.87,0,0,0-4.19,1.12c-1,.67-2.18,3-1.72,3.55s4.55,1.52,5.59,1.57a50.38,50.38,0,0,0,8.48-1.72c.92-.44.73-2.19.73-2.19s12.55-.64,15-2.94S118.6,261.78,115.28,257Z" style="fill:#263238"></path><path d="M95.13,280a4,4,0,0,0-.9.62,3.25,3.25,0,0,0-.58,1,3.57,3.57,0,0,0-.21,1.25,1.6,1.6,0,0,0,.26,1,.08.08,0,0,0,.13-.08,6.3,6.3,0,0,1,.36-2.06,4.52,4.52,0,0,1,.36-.85,2.24,2.24,0,0,1,.63-.8S95.18,279.94,95.13,280Z" style="fill:#37474f"></path><path d="M97.94,280.43a4.2,4.2,0,0,0-1,.65,2.93,2.93,0,0,0-.69,1,2.26,2.26,0,0,0,.21,2.34s.09,0,.08-.05a2.1,2.1,0,0,1-.08-1.14,4.63,4.63,0,0,1,.26-1,5,5,0,0,1,.49-.91,2.65,2.65,0,0,1,.8-.8C98,280.48,98,280.4,97.94,280.43Z" style="fill:#37474f"></path><path d="M113.42,255.11a30.17,30.17,0,0,0-4-3.35l.33.12c.65.27,1.3.55,1.94.84.05,0,.1,0,.05-.08a5.17,5.17,0,0,0-1.86-1.07,7.94,7.94,0,0,0-1.07-.26h0a31,31,0,0,0-5.26-2.84c-3.35-1.42-7.93-3-10.84.13a11.55,11.55,0,0,0-2.46,5.14,22.32,22.32,0,0,0-.6,6.47,30.72,30.72,0,0,0,3.6,12.42,14.13,14.13,0,0,0,4,5,12.44,12.44,0,0,0,2.64,1.53,13.92,13.92,0,0,0,3,.82c.06,0,.08-.08,0-.09a12.74,12.74,0,0,1-4.74-2.26,13.73,13.73,0,0,1-3.66-4,31.71,31.71,0,0,1-2.58-5.69A29.49,29.49,0,0,1,90.46,262a22.75,22.75,0,0,1,.06-6.33,14.83,14.83,0,0,1,1.84-5.47,5.21,5.21,0,0,1,4.26-2.67,15.14,15.14,0,0,1,5.6,1.24,37.34,37.34,0,0,1,11.13,6.46A.05.05,0,0,0,113.42,255.11Z" style="fill:#37474f"></path><path d="M80.19,204.26c-3.73.26-5.41,3.24-5.17,6.58a5.59,5.59,0,0,0,6.16,5.07,6,6,0,0,0,5.38-6.18A5.88,5.88,0,0,0,80.19,204.26Z" style="fill:#263238"></path><path d="M80.59,204.93c-3.5.25-5.07,3-4.86,6.19a5.27,5.27,0,0,0,5.79,4.77,5.63,5.63,0,0,0,5.07-5.82A5.55,5.55,0,0,0,80.59,204.93Z" style="fill:#FFA52E"></path><path d="M81.18,205.4c-2.74.19-4,2.38-3.8,4.84A4.12,4.12,0,0,0,81.91,214a4.39,4.39,0,0,0,4-4.55A4.32,4.32,0,0,0,81.18,205.4Z" style="fill:#263238"></path><path d="M96.58,200.26c2.81-.95,5.1,1.18,6.13,4.23.83,2.48,0,5.56-2.67,6.47s-5.36-1.49-6.14-3.81S93.54,201.29,96.58,200.26Z" style="fill:#263238"></path><path d="M96.53,201c2.63-.89,4.79,1.11,5.76,4,.78,2.32,0,5.22-2.51,6.08s-5-1.4-5.78-3.59S93.66,202,96.53,201Z" style="fill:#FFA52E"></path><path d="M97,201.27c2.07-.7,3.76.87,4.51,3.11.62,1.82,0,4.09-2,4.76s-3.94-1.1-4.52-2.8S94.76,202,97,201.27Z" style="fill:#263238"></path><path d="M94.23,210.68c0,.31-1.85,1.68-2.08,1.71a6.75,6.75,0,0,1-2.43-1.13c-.09-.29,1.73-.64,2.2-.7S94.24,210.38,94.23,210.68Z" style="fill:#455a64"></path><path d="M87,214.18a11.27,11.27,0,0,0,1.44,1.08,2.32,2.32,0,0,0,1.54.46,2,2,0,0,0,1.19-.95,4.9,4.9,0,0,0,.62-1.56l.33-1.52.41,1.5a6.59,6.59,0,0,0,.52,1.32c.22.4.52.78.83.76a1,1,0,0,0,.51-.28,3.2,3.2,0,0,0,.46-.56,9.35,9.35,0,0,0,.71-1.33,5.64,5.64,0,0,1-.43,1.49,3.22,3.22,0,0,1-.41.69,1.31,1.31,0,0,1-.76.51,1.16,1.16,0,0,1-.95-.26,3.12,3.12,0,0,1-.56-.66,5.9,5.9,0,0,1-.65-1.48l.73,0a5.2,5.2,0,0,1-.78,1.79,2.85,2.85,0,0,1-.71.72,2,2,0,0,1-1,.37,1.82,1.82,0,0,1-1-.2,3.86,3.86,0,0,1-.79-.52A7.29,7.29,0,0,1,87,214.18Z" style="fill:#455a64"></path><path d="M75,215.46c-2.5.13-5,.34-7.48.61s-5,.56-7.43,1c-1.24.18-2.47.4-3.7.61s-2.46.47-3.68.72c-2.46.49-4.88,1.1-7.32,1.7,1.19-.39,2.39-.79,3.59-1.13s2.42-.66,3.64-.94c2.44-.6,4.91-1.05,7.39-1.45s5-.68,7.47-.87c1.25-.09,2.51-.16,3.76-.21S73.7,215.41,75,215.46Z" style="fill:#263238"></path><path d="M74.12,217c-1.11.19-2.22.39-3.33.61s-2.21.42-3.32.65c-2.2.46-4.41.93-6.59,1.47-1.1.25-2.19.53-3.29.81l-3.26.88-1.63.46-1.62.49c-1.08.3-2.14.68-3.23,1,2.09-.86,4.21-1.65,6.37-2.32s4.34-1.27,6.54-1.81,4.41-1,6.64-1.36S71.87,217.22,74.12,217Z" style="fill:#263238"></path><path d="M74.94,218.36c-.9.27-1.8.54-2.69.84s-1.8.56-2.69.86c-1.78.6-3.56,1.2-5.33,1.84s-3.53,1.28-5.28,1.94-3.5,1.37-5.26,2c.83-.43,1.68-.84,2.53-1.25s1.71-.78,2.58-1.15c1.73-.75,3.49-1.42,5.27-2.06s3.57-1.21,5.38-1.73S73.09,218.7,74.94,218.36Z" style="fill:#263238"></path><path d="M67.58,197.84s2-9.87,6.58-13.17c.34-.24,2,8.9,1.77,9A35.66,35.66,0,0,0,67.58,197.84Z" style="fill:#37474f"></path></g><g id="freepik--Stars--inject-44"><polygon points="126.02 78.93 131.53 77.91 132.76 72.1 133.99 77.91 139.5 78.93 134.02 80.27 132.76 85.76 131.51 80.27 126.02 78.93" style="fill:#FFA52E"></polygon><polygon points="95.06 260.59 100.56 259.57 101.8 253.76 103.03 259.57 108.54 260.59 103.05 261.93 101.8 267.42 100.54 261.93 95.06 260.59" style="fill:#FFA52E"></polygon><polygon points="345.54 120.27 351.05 119.25 352.28 113.44 353.51 119.25 359.02 120.27 353.54 121.61 352.28 127.1 351.02 121.61 345.54 120.27" style="fill:#FFA52E"></polygon><polygon points="393.42 272.7 398.93 271.68 400.16 265.87 401.39 271.68 406.9 272.7 401.42 274.04 400.16 279.53 398.91 274.04 393.42 272.7" style="fill:#FFA52E"></polygon><polygon points="249.74 231.67 255.25 230.65 256.48 224.84 257.71 230.65 263.22 231.67 257.73 233.01 256.48 238.5 255.22 233.01 249.74 231.67" style="fill:#FFA52E"></polygon><polygon points="73.1 328.71 76.18 328.14 76.87 324.9 77.56 328.14 80.64 328.71 77.57 329.46 76.87 332.53 76.17 329.46 73.1 328.71" style="fill:#FFA52E"></polygon><polygon points="198.07 282.67 201.15 282.1 201.84 278.86 202.53 282.1 205.61 282.67 202.54 283.42 201.84 286.49 201.14 283.42 198.07 282.67" style="fill:#FFA52E"></polygon><polygon points="112.86 208.39 115.94 207.82 116.63 204.57 117.32 207.82 120.4 208.39 117.33 209.14 116.63 212.21 115.93 209.14 112.86 208.39" style="fill:#FFA52E"></polygon><polygon points="198.07 72.95 201.15 72.38 201.84 69.14 202.53 72.38 205.61 72.95 202.54 73.7 201.84 76.77 201.14 73.7 198.07 72.95" style="fill:#FFA52E"></polygon><polygon points="348.38 336.35 351.46 335.78 352.15 332.53 352.84 335.78 355.92 336.35 352.85 337.1 352.15 340.16 351.45 337.1 348.38 336.35" style="fill:#FFA52E"></polygon><polygon points="328.01 192.87 331.1 192.3 331.78 189.06 332.47 192.3 335.55 192.88 332.48 193.62 331.78 196.69 331.08 193.62 328.01 192.87" style="fill:#FFA52E"></polygon><polygon points="172.64 146.96 175.72 146.39 176.41 143.14 177.1 146.39 180.18 146.96 177.11 147.71 176.41 150.78 175.71 147.71 172.64 146.96" style="fill:#FFA52E"></polygon><polygon points="419.37 212.2 422.44 211.63 423.13 208.39 423.82 211.63 426.9 212.21 423.83 212.96 423.13 216.02 422.43 212.96 419.37 212.2" style="fill:#FFA52E"></polygon><polygon points="185.09 350.88 188.17 350.31 188.86 347.07 189.55 350.31 192.63 350.88 189.56 351.63 188.86 354.7 188.16 351.63 185.09 350.88" style="fill:#FFA52E"></polygon><path d="M259.94,85.78a.9.9,0,0,0,0-1.79A.9.9,0,0,0,259.94,85.78Z" style="fill:#FFA52E"></path><path d="M416.42,275.69a.9.9,0,0,0,0-1.79A.9.9,0,0,0,416.42,275.69Z" style="fill:#FFA52E"></path><path d="M246.36,294.76a.89.89,0,0,0,0-1.78A.89.89,0,0,0,246.36,294.76Z" style="fill:#FFA52E"></path><path d="M77.73,176.46a.9.9,0,0,0,0-1.79A.9.9,0,0,0,77.73,176.46Z" style="fill:#FFA52E"></path><path d="M380.62,180.17a.89.89,0,0,0,0-1.78A.89.89,0,0,0,380.62,180.17Z" style="fill:#FFA52E"></path><path d="M161.17,213.1a.9.9,0,0,0,0-1.79A.9.9,0,0,0,161.17,213.1Z" style="fill:#FFA52E"></path><path d="M343.18,230a.63.63,0,0,0,0-1.26A.63.63,0,0,0,343.18,230Z" style="fill:#FFA52E"></path><path d="M264.45,59.19a.63.63,0,0,0,0-1.26A.63.63,0,0,0,264.45,59.19Z" style="fill:#FFA52E"></path><path d="M143,133.71a.64.64,0,0,0,0-1.27A.64.64,0,0,0,143,133.71Z" style="fill:#FFA52E"></path><path d="M143.63,186.24a.63.63,0,0,0,0-1.26A.63.63,0,0,0,143.63,186.24Z" style="fill:#FFA52E"></path><path d="M317,250.58a1.71,1.71,0,0,0,0-3.42A1.71,1.71,0,0,0,317,250.58Z" style="fill:#FFA52E"></path><path d="M318.66,67.24a1.71,1.71,0,0,0,0-3.42A1.71,1.71,0,0,0,318.66,67.24Z" style="fill:#FFA52E"></path></g></svg>