<svg xmlns="http://www.w3.org/2000/svg" viewBox="0 0 500 500"><g id="freepik--background-complete--inject-1003"><path d="M333.88,136.71l87.61-.13s-4.36-5.67-9.17-6.37c0,0-9.38-27.79-25-28-14.54-.17-20.34,17.13-20.34,17.13s-6.75-7.75-13.18-4.19-10.06,13.71-10.06,13.71S336.5,132.81,333.88,136.71Z" style="fill:#ebebeb"></path><path d="M195.16,174l-110.79.17s0-7.08,15.25-8.49c0,0,13.89-31,35.17-26.83,13.25,2.56,20.05,20.74,20.05,20.74s10-14.33,18-11.57,12.79,18,12.79,18S193.9,170,195.16,174Z" style="fill:#ebebeb"></path><path d="M322.12,77.27l-75.33.11s7.1-6.63,10.26-6.63,12.35-22.23,24.13-21.31S299.24,66.9,299.24,66.9,313.56,62.39,322.12,77.27Z" style="fill:#ebebeb"></path><path d="M112.27,119.38l-64.42.1s3.19-4.18,6.72-4.7c0,0,6.84-20.46,18.34-20.62,10.69-.16,15,12.55,15,12.55s4.95-5.71,9.68-3.11S105,113.66,105,113.66,110.33,116.51,112.27,119.38Z" style="fill:#ebebeb"></path><path d="M372.4,201.63a39.1,39.1,0,0,0,1.93,17c3.92,11.41,14.47,19.07,18.52,30.27,0,1.43,0,2.88-.12,4.35,0,0,0,0,0,.07s0,0,0,0h0v0a.2.2,0,0,0,.13.11c.06-.18.1-.35.14-.52s.16-.63.22-.94.2-.89.27-1.34c0,0,.06-.21,0-.27,2.11-12.66-4.28-25.09-8.51-36.76-2.42-6.68-3.22-13.72-5.52-20.38-.55-1.59-1.11-4.7-3.35-3.64C373.63,190.82,372.66,199.3,372.4,201.63Z" style="fill:#ebebeb"></path><path d="M376,211.43c1.9,14.41,17.37,24.46,16.95,39.28,0,.43-.05.84-.08,1.26s-.05.58-.09.87h0c0,.11,0,.23,0,.36s0,0,0,.07,0,0,0,0h0v0a.2.2,0,0,0,.13.11h.06a.16.16,0,0,0,.1-.11c.09-.45.15-.91.2-1.35a18.34,18.34,0,0,0,.15-3.29,0,0,0,0,0,0,0c.22-6.53-1.27-12.7-3.82-19.05-3.13-7.8-6.65-15.27-9.64-23.19-.37-1-1.11-5-2.64-4.14C375.33,203.36,375.79,209.76,376,211.43Zm.31-2.25c0-.83,0-6.39,1.46-6.07.86.18,1.71,4.22,1.94,4.77.88,2.13,1.76,4.23,2.64,6.36,1.87,4.45,3.77,8.89,5.63,13.34a62.06,62.06,0,0,1,4.76,16.87C389.7,232.09,376.63,222.52,376.31,209.18Z" style="fill:#fff"></path><path d="M394.33,339.31c0,.19.24.42.46.21,9.53-9,24.06-5.79,34.11-14.07a58.49,58.49,0,0,0,10.25-11.83,46.83,46.83,0,0,0,5.71-10.07c.18-.48,1.22-2.5.84-3.34-2.95-6.35-18.18,8.14-20.79,10.26-10.18,8.28-19.5,15.83-28,25.59-.89,1-1.76,2-2.62,3.11C394.3,339.2,394.31,339.25,394.33,339.31Z" style="fill:#ebebeb"></path><path d="M394.33,339.31l1-1c6.77-4.94,14.82-7.73,22.43-11.25s13.95-8.19,18.86-15.15c.87-1.23,4.53-6,2.86-7.76-1.49-1.57-5.27,2.7-6.24,3.51-7.21,6-14.23,12-21.9,17.46-4.91,3.47-9.88,6.95-14.43,10.9-.89,1-1.76,2-2.62,3.11C394.3,339.2,394.31,339.25,394.33,339.31Zm4.49-3.95c5.3-4.4,11-8.31,16.62-12.37q5.79-4.17,11.21-8.8c2-1.7,3.94-3.43,5.94-5.11,1-.84,2-1.68,3-2.49.51-.42,2.17-1.83,2.8-1,1.7,2.08-8.54,16.16-23.38,22.06A98.16,98.16,0,0,0,398.82,335.36Z" style="fill:#fff"></path><path d="M408.53,315.51a.09.09,0,0,0,0,.14.12.12,0,0,0,.16,0l.55-.78c.67-1,1.31-1.92,1.93-2.9l.33-.53a.24.24,0,0,0,.12-.07c7-10.43,19.59-15.55,25.07-27.16a50.56,50.56,0,0,0,4.12-16.48c.25-2.44,2.26-10.12-1-11.42-2.54-1-5.51,2.75-6.75,4.34-3.93,5.05-6.19,11.51-8.48,17.41s-4.19,11.66-6.28,17.49a102.67,102.67,0,0,1-7.16,15.3C410.32,312.37,409.43,313.93,408.53,315.51Z" style="fill:#ebebeb"></path><path d="M408.53,315.51a.09.09,0,0,0,0,.14c.57-.88,1.14-1.75,1.72-2.61l-1,1.79c.67-1,1.31-1.92,1.93-2.9.29-.51.59-1,.9-1.52a140.36,140.36,0,0,1,13.48-16.15,29.65,29.65,0,0,0,5.86-8.44c2.66-5.86,6-19.12,4.59-20.76s-3,2.67-3.43,3.63c-3.76,7.79-6.46,16-10.65,23.59-2.82,5.11-5.69,10.19-8.56,15.28-.76,1.06-1.51,2.15-2.21,3.25C410.32,312.37,409.43,313.93,408.53,315.51Zm7.1-11c2.89-4.82,5.73-9.67,8.31-14.64,2.13-4.13,3.85-8.43,5.62-12.72.88-2.15,1.77-4.29,2.73-6.39.26-.58,2.09-5.33,3-5.13s.18,3.76,0,4.7a137.78,137.78,0,0,1-3.79,13.49c-1.6,4.66-4.48,8.07-7.88,11.54A103.45,103.45,0,0,0,415.63,304.54Z" style="fill:#fff"></path><path d="M354.22,381.92a.09.09,0,0,0,.11.08c.05,0,.09,0,.1-.1,0-.29,0-.57,0-.85,0-1.05,0-2.08-.05-3.11,0-.19,0-.37,0-.56a.18.18,0,0,0,.05-.11c-.1-11.21,6.58-21.32,4.76-32.62a44.93,44.93,0,0,0-5.28-14.21c-1-1.92-3.43-8.59-6.48-7.9-2.37.53-2.67,4.8-2.78,6.59-.35,5.7,1.25,11.59,2.53,17.09s2.8,10.69,4.2,16a91.81,91.81,0,0,1,2.45,14.88C354,378.71,354.1,380.31,354.22,381.92Z" style="fill:#ebebeb"></path><path d="M354.22,381.92a.09.09,0,0,0,.11.08c0-.93,0-1.86-.05-2.78.05.61.1,1.22.16,1.83,0-1.05,0-2.08-.05-3.11,0-.52-.07-1.05-.1-1.58a125.91,125.91,0,0,1,1.78-18.67,26.64,26.64,0,0,0,.05-9.17c-1-5.66-5.2-17.1-7.08-17.6s-.84,3.46-.7,4.41c1.16,7.62,3.31,15,4.06,22.73.5,5.18,1,10.37,1.4,15.56,0,1.17,0,2.34,0,3.51C354,378.71,354.1,380.31,354.22,381.92Zm-.3-11.65c-.3-5-.65-10-1.26-15-.52-4.11-1.42-8.15-2.28-12.2-.44-2-.86-4-1.21-6.08-.1-.55-1.15-5-.38-5.29s2,2.68,2.35,3.48c1.49,3.85,2.92,7.84,4,11.83,1.17,4.24.77,8.21,0,12.47A92.28,92.28,0,0,0,353.92,370.27Z" style="fill:#fff"></path><path d="M354.64,391.16a1.65,1.65,0,0,0,.78-.45c10.28-6.28,22.34-8.7,32.68-15a32.93,32.93,0,0,0,11.34-10.89c1.17-2,5.24-8.71,3.6-11.19-4.88-7.46-37.49,24.92-48.07,36.35a2,2,0,0,0-.49.49C354.17,390.89,354.29,391.2,354.64,391.16Z" style="fill:#ebebeb"></path><path d="M354.64,391.16c.73-.6,1.47-1.22,2.22-1.81,2.49-1.58,5-3.11,7.61-4.49,4.12-2.19,8.48-3.84,12.72-5.79A43.09,43.09,0,0,0,394,365.66c.95-1.26,3.84-4.71,2.74-6.54-1-1.67-3.48.61-4.38,1.26-12.79,9.3-25,19.52-37.23,29.6l-.65.5C354.17,390.89,354.29,391.2,354.64,391.16Zm5.85-4.77q7.2-5.83,14.41-11.6,5.66-4.52,11.35-9c1.88-1.47,3.73-3,5.64-4.41.75-.57,3.64-2.79,4.16-1.69s-1.3,3.66-1.63,4.14c-5.1,7.65-12.57,12.49-20.89,16A103.68,103.68,0,0,0,360.49,386.39Z" style="fill:#fff"></path><path d="M390.34,287.91a.49.49,0,0,0,0,.43.55.55,0,0,0,.54.25.54.54,0,0,0,.32-.09.21.21,0,0,0,.18-.1c4.28-6.07,11.37-12.3,15.84-18.2a57.71,57.71,0,0,0,7.94-15,78.27,78.27,0,0,0,4.5-18.41c.32-3,1.52-10.13-1.3-12.48-5.78-4.86-11.47,17.74-12.41,20.33C400.72,259.05,395.46,273.45,390.34,287.91Z" style="fill:#ebebeb"></path><path d="M390.37,288.34a.55.55,0,0,0,.54.25c.23-.49.45-1,.68-1.49,1.6-2.78,3.2-5.56,5-8.25,2.86-4.39,6.31-8.36,9-12.84,4.72-7.8,11.95-31.19,8.35-32.73-1.88-.8-3.14,4-3.56,5.13-1.64,4.55-2.7,9.28-4.41,13.82-1.77,4.77-3.83,9.42-5.87,14.08-3.16,7.16-6.34,14.31-9.42,21.52C390.55,288,390.47,288.17,390.37,288.34Zm3.33-6c2.82-6.34,5.57-12.7,8.35-19.05,1.91-4.4,3.78-8.82,5.38-13.34.88-2.53,1.62-5.11,2.36-7.69.36-1.25.72-2.51,1.17-3.74.39-1.06,1.74-5.43,3-4.15s-.46,8.06-.86,9.64c-.65,2.58-1.33,5.14-2.1,7.68a62.23,62.23,0,0,1-6.21,14.39c-2.75,4.46-6.19,8.44-9,12.87C395.07,280.11,394.37,281.23,393.7,282.38Z" style="fill:#fff"></path><path d="M329.65,309.87c11.53,8.67,27.57,8.7,36.61,25.95,0,.07.12.05.14,0s0-.05,0-.07q-1-2.67-2.28-5.28a81.38,81.38,0,0,0-18.35-25,61.21,61.21,0,0,0-15.33-10.31c-2.86-1.33-9.19-4.89-12.22-3.59C311.7,294.38,327.54,308.3,329.65,309.87Z" style="fill:#ebebeb"></path><path d="M329,303.34c5.27,6.87,13.86,10.37,20.82,15.2A70.1,70.1,0,0,1,363,330c1.17,1.91,2.31,3.84,3.43,5.81,0,0,0-.05,0-.07q-1-2.67-2.28-5.28c-.08-.08-.14-.18-.22-.26A86.4,86.4,0,0,0,353,315.72a89.18,89.18,0,0,0-19.32-15.85c-1.23-.76-5.49-4.25-7.1-2.86S328.29,302.38,329,303.34Zm-1.74-5.77c1.23-.74,8.53,4.24,11.4,6.29a88.77,88.77,0,0,1,16.7,15.46,80.41,80.41,0,0,1,5.83,7.94,70.23,70.23,0,0,0-8.55-7.41c-6.35-4.7-13.82-8-19.74-13.23a24.75,24.75,0,0,1-4.14-4.59C328.32,301.35,326.17,298.24,327.29,297.57Z" style="fill:#fff"></path><path d="M331,250.7a66.54,66.54,0,0,0,2.73,15.39,65.16,65.16,0,0,0,15.17,25.83c.12.13.24.27.37.4.18.47.36.94.57,1.39,0,.11.08.21.13.32l0,.07h0a.13.13,0,0,0,.2-.14c-.11-.6-.22-1.2-.32-1.81-2.09-12.4-2-24.93-6-37-.87-2.63-5.9-20-11.53-15.84C329.8,241.24,330.86,248.06,331,250.7Z" style="fill:#ebebeb"></path><path d="M334,252.73c1,7.7,4.5,15.51,7.44,22.65a177.82,177.82,0,0,0,7.54,16.54c.22.44.46.88.7,1.31q.11.24.24.48a1.92,1.92,0,0,0,.17.39h0a.13.13,0,0,0,.2-.14c-.11-.6-.22-1.2-.32-1.81-.2-.43-.41-.86-.62-1.29a147.2,147.2,0,0,1-4.52-20.17c-.65-3.69-1.38-7.35-2.38-10.95s-1.83-7.24-3.55-10.43c-.76-1.39-2.29-4.12-4.17-2.66C333.11,247.89,333.75,251.1,334,252.73Zm4.07-3.41c2.05,3.76,3.11,8.43,4.17,12.57,1,3.95,1.72,8,2.42,12,.75,4.26,1.51,8.6,2.68,12.79-2.45-5.09-4.86-10.2-6.92-15.51-1.61-4.16-3.13-8.35-4.43-12.6a32.92,32.92,0,0,1-1.47-6.72,18.21,18.21,0,0,1-.12-2.44C334.43,246.85,337.1,247.62,338,249.32Z" style="fill:#fff"></path><path d="M401,204.54c0,.21,0,.41,0,.61a.37.37,0,0,0,.54.33.38.38,0,0,0,.21-.34c0-.37,0-.75.05-1.12h0c0-.3,0-.59,0-.9a14.75,14.75,0,0,1,.6-1.56c2.36-5.57,7.27-10.82,10.34-15.77A79.76,79.76,0,0,0,420,171.65a39,39,0,0,0,2.79-15.78c-.08-1.46-.07-5.16-2-5.73-2.45-.71-5.08,4.22-6.08,5.56A65.41,65.41,0,0,0,406.48,171C402.29,181.82,401.18,193,401,204.54Z" style="fill:#ebebeb"></path><path d="M401.56,201.89a25,25,0,0,0-.55,2.65c0,.21,0,.41,0,.61a.37.37,0,0,0,.54.33c0-.15,0-.3,0-.45.08-.34.14-.67.21-1h0c.18-.83.4-1.64.64-2.46a50.73,50.73,0,0,1,3.39-8.54c2.37-4.78,4.92-9.48,7.11-14.35,1.1-2.44,9.54-21.25,4.71-22-.91-.15-1.52,1.15-1.89,1.7a35.52,35.52,0,0,0-3.1,6.35c-2.06,5-3.92,10.2-5.62,15.38A149.27,149.27,0,0,0,401.56,201.89Zm5.06-18.74c1.42-4.58,3-9.1,4.69-13.58.83-2.18,1.64-4.39,2.59-6.53.46-1.06,2.92-5.89,3.91-5.49,1.45.57-.41,7.73-1,9.67-.71,2.23-1.51,4.41-2.37,6.57-1.75,4.35-3.78,8.58-5.9,12.76-1.86,3.7-4.18,7.68-5.79,11.84A151.22,151.22,0,0,1,406.62,183.15Z" style="fill:#fff"></path><path d="M372.14,269.88l.3.54a.36.36,0,0,0,.62,0,.36.36,0,0,0,0-.4c-.17-.33-.34-.66-.52-1h0c-.14-.27-.27-.53-.42-.8-.11-.55-.2-1.1-.26-1.66-.76-6,.86-13,1-18.82a78.66,78.66,0,0,0-.84-15.86,39,39,0,0,0-5.5-15c-.8-1.21-2.65-4.42-4.61-3.94-2.48.61-2.28,6.19-2.47,7.86a65.35,65.35,0,0,0,.53,17.33C361.84,249.59,366.51,259.83,372.14,269.88Z" style="fill:#ebebeb"></path><path d="M371.28,267.32a22,22,0,0,0,.86,2.56l.3.54a.36.36,0,0,0,.62,0c-.06-.14-.12-.28-.17-.42l-.33-1h0c-.26-.82-.48-1.63-.68-2.46a50.65,50.65,0,0,1-1.35-9.08c-.35-5.33-.5-10.67-1-16-.28-2.66-2.41-23.16-7-21.39-.86.33-.74,1.76-.78,2.42a36.15,36.15,0,0,0,.5,7.05c.76,5.4,1.73,10.79,2.86,16.12A151.17,151.17,0,0,0,371.28,267.32Zm-5-18.75q-1.59-7-2.75-14.11c-.38-2.3-.78-4.62-1-6.94-.13-1.15-.42-6.56.63-6.72,1.54-.23,3.52,6.9,4,8.89.51,2.27.91,4.57,1.24,6.87.68,4.63,1,9.31,1.31,14,.24,4.14.24,8.74.92,13.15A152.38,152.38,0,0,1,366.25,248.57Z" style="fill:#fff"></path><path d="M346.69,283.17a291.61,291.61,0,0,0,12.38,30.54c3.69,7.68,7.42,15.48,9.29,23.84,2.23,10,1.39,21.71-1.93,32.3q3.51-5.76,6.9-11.65c4.61-8,9.15-16.17,11.83-25,.26-.88.49-1.76.71-2.64a.29.29,0,0,1-.07-.19,111.29,111.29,0,0,0-3.92-33,91.45,91.45,0,0,0-10.11-15c-3.95-4.82-7.74-9.51-10.41-15.18-.15-.33.29-.62.49-.3,4.46,7.33,12.06,13.86,17.21,21.36-.46-1.31-.93-2.62-1.43-3.93-4.76-12.5-11.64-24.67-9.3-38.49.08-.46.75-.28.7.17-1.8,15.24,8.16,29.81,12.88,43.75,3.52,10.36,6.16,21.73,5.55,32.82a178.36,178.36,0,0,0,1.43-18.78c1.42-37.82,4.16-75.68,15.71-111.95.12-.35.68-.23.57.14-11.45,39.16-11.41,79.41-13.69,119.75,0,.46-.06.92-.09,1.37a74.77,74.77,0,0,1,8.81-15.82.24.24,0,0,1,.41.23c-3.95,7.59-6.56,15.58-9.94,23.37a76.76,76.76,0,0,1-3.88,16.79,124.09,124.09,0,0,1-9,18.66c6.23-7.54,12.54-15,18.23-23a334.77,334.77,0,0,0,23.49-37.89c.1-.19.38,0,.29.16A279,279,0,0,1,397,336c-7.49,10.82-15.6,21.94-25.32,31-8.28,14.07-17.29,28.33-29,39.67a.59.59,0,0,1-.85-.82c2-2.63,4-5.28,6-7.95,1.35-5.56,3.66-10.85,4.72-16.55a85.14,85.14,0,0,0,1.31-20.22c0-.5.71-.51.77,0,1.12,9.15,1.15,20.65-2.08,30.18q4.13-5.94,8-12c6.21-14.81,8.94-31.56,4.12-47-2.47-7.94-6.26-15.36-9.63-22.94a178.86,178.86,0,0,1-8.92-26A.31.31,0,0,1,346.69,283.17Z" style="fill:#ebebeb"></path><path d="M177,246.18c.76,5.13-.79,10.95-2,15.88a126.66,126.66,0,0,1-5.44,16.59c-2,5-4.26,10-6.6,14.85l-.07.14-.46,1c-.14.41-.28.82-.44,1.23a.26.26,0,0,1-.26.17.21.21,0,0,1-.22-.29c.07-.22.15-.45.21-.67,2.8-9.49-1-19.44.62-29.08.88-5.28,3.21-10.28,5.23-15.2,1.12-2.73,2-6.37,3.64-8.82.44-.65.66-1.39,1.53-1.61C175.43,239.67,176.75,244.39,177,246.18Z" style="fill:#ebebeb"></path><path d="M174,249.3c-1.26-1.56-2.86,1.72-3.35,2.61-3.28,6-5.94,13.34-6.14,20.17-.23,7.51-.39,15-2.42,22.28l-.36.68c-.06.22-.14.45-.21.67a.21.21,0,0,0,.22.29c0-.14.11-.28.15-.42.35-.64.69-1.29,1-1.94l.07-.14a143.16,143.16,0,0,0,5.6-14.53A100,100,0,0,0,174,257.89a51.08,51.08,0,0,0,.39-5.25C174.44,251.76,174.62,250.06,174,249.3Zm0,4.47a54.2,54.2,0,0,1-.55,5.53,101.15,101.15,0,0,1-4.88,18.49,142,142,0,0,1-5.92,15.5,57.34,57.34,0,0,0,2-12.67c.21-3.22.17-6.44.34-9.67a36.11,36.11,0,0,1,2.52-10.46,45.67,45.67,0,0,1,4.1-9.33c.37-.58,1.35-1.81,1.87-1.6C174.39,249.92,174,253,174,253.77Z" style="fill:#fff"></path><path d="M118.66,311.15s0,0,0,0" style="fill:#ebebeb"></path><path d="M143.78,385.72a.24.24,0,0,1,.05.31h0a.26.26,0,0,1-.24.15.35.35,0,0,1-.19-.06c-5.3-4.19-10-10.09-16.76-11.83-5.3-1.37-10-1.64-14.68-4.87a41.42,41.42,0,0,1-11.63-12.53,42.12,42.12,0,0,1-3.39-7.07c-.44-1.18-2-4.22-1.45-5.5,2.66-6,19,9,21.2,11,9.61,8.89,19.24,18.66,26.55,29.57a.11.11,0,0,1,0,.11.16.16,0,0,1-.08.1Z" style="fill:#ebebeb"></path><path d="M143.78,385.72l-.62-.64a.16.16,0,0,0,.08-.1c-5.12-5.82-10.7-11.3-16.34-16.63-6.06-5.71-12.26-11.56-19-16.44-.93-.67-4.65-4.06-5.87-2.6s2.42,6.12,3.18,7.15c4.53,6.07,11.28,9.8,17.84,13.26,4.26,2.25,8.45,4.43,12,7.75,3,2.79,5.62,5.91,8.57,8.72a.26.26,0,0,0,.24-.15c-1.51-1.45-2.93-3-4.36-4.53q2.19,2.25,4.36,4.52A.24.24,0,0,0,143.78,385.72ZM130.4,373.29c-6.24-4-13.29-6.67-19.15-11.34a29.61,29.61,0,0,1-7.16-8c-.36-.6-2.12-3.26-1.44-4,.45-.53,2.11.37,2.34.53a51.34,51.34,0,0,1,5.13,3.66c5.73,4.55,11.18,9.5,16.5,14.51,3,2.79,5.82,5.64,8.65,8.54A33.51,33.51,0,0,0,130.4,373.29Z" style="fill:#fff"></path><path d="M143.23,250.21c-.42,5.81-2.76,11.5-5.41,16.64-6.15,11.88-15.45,22.2-20.28,34.76-.19.5-.37,1-.55,1.49,0,.69-.07.51-.13-.32,0,0,0,0,0,0-.25-3.65-.44-19.57,3.29-30.21,2.33-6.64,6-12.61,9.66-18.57,2.1-3.4,4.16-6.82,6.28-10.2.68-1.09,2-4.32,3.82-4.21C143.45,239.76,143.39,247.93,143.23,250.21Z" style="fill:#ebebeb"></path><path d="M137,250.13a1.18,1.18,0,0,0-1.61.09,6,6,0,0,0-1.2,2.08c-.62,1.28-1.24,2.54-1.86,3.81-4.26,8.75-9.39,17.53-12.22,26.88A81.4,81.4,0,0,0,117,302.15c0,.2-.07.41-.11.62,0,0,0,0,0,0,.06.83.11,1,.13.32.18-.5.36-1,.55-1.49.14-.71.31-1.41.5-2.12a58.89,58.89,0,0,1,6.14-13.67c4.67-8.3,9-16.83,12-25.9a29.56,29.56,0,0,0,1.48-6.21C137.78,252.74,137.93,250.84,137,250.13Zm.22,3.15a9.49,9.49,0,0,1-.14,1.41,27.16,27.16,0,0,1-.67,2.94,69.77,69.77,0,0,1-2.39,6.87c-3.17,8.07-7.27,15.56-11.43,23.14a53.46,53.46,0,0,0-5,11.75,105,105,0,0,1,1.61-10.64c1.86-9,6.1-17,10.07-25.2,1-2,2-4.06,3-6.08.49-1,1-2,1.48-3.05l.73-1.52c.49-1,.43-1.5,1.69-1.59C137.71,251.2,137.31,252,137.26,253.28Z" style="fill:#fff"></path><path d="M141.5,304.77a71.53,71.53,0,0,1,.81,13.64c-.32,9.15-3.76,19.1-3.23,28.39.09.62.16,1.25.2,1.87,0,.23,0,.47,0,.7s-.2.15-.23,0c-.1-.41-.21-.82-.33-1.24,0,0,0,0,0,0l-.18-.65C135.94,338,131.9,329,132,319c.06-6.16,1.54-22.89,5.71-23.33C139.55,295.46,141.06,302,141.5,304.77Z" style="fill:#ebebeb"></path><path d="M137.76,304.91c-1,.25-1.36,2.09-1.57,2.84a37.41,37.41,0,0,0-1,6.15,62,62,0,0,0,0,11.56,123,123,0,0,0,3.46,22l.18.65s0,0,0,0c.12.42.23.83.33,1.24,0,.12.24.1.23,0s0-.47,0-.7c-1.35-8.15-.94-16.34-.31-24.6C139.12,322.23,141.29,304,137.76,304.91Zm1.45,7.85c-.06,1.75-.17,3.48-.29,5.23-.27,4.06-.63,8.13-.86,12.19a92.68,92.68,0,0,0,.1,13.33,155.29,155.29,0,0,1-2.41-15.68,82.85,82.85,0,0,1-.4-10.45,42.88,42.88,0,0,1,.55-5.65c.15-.89.81-6.09,2-6.31C139.29,305.14,139.25,312,139.21,312.76Z" style="fill:#fff"></path><path d="M182.45,294.9c1.62,3.09-.48,8.19-2.22,10.75-2.48,3.66-6.18,6.17-10.08,8.15-5.65,2.86-11.7,4.73-16.77,8.65s-3.43,2.74-7.51,8.2c-.08.11-.19.08-.26,0a1.13,1.13,0,0,1,0-1,1.42,1.42,0,0,1,.05-.16c4.65-9.39,11.33-16.18,19.66-22.56,4.72-3.61,8.17-8.71,13-12.13C180.16,293.49,181.33,292.76,182.45,294.9Z" style="fill:#ebebeb"></path><path d="M179.09,299.65c-1.32-1-3.76,1.61-4.72,2.53a63.85,63.85,0,0,1-8.79,7.46,76.71,76.71,0,0,0-8.29,5.89,51.08,51.08,0,0,0-10.1,11.8c-.55.72-1.07,1.49-1.56,2.28a1.13,1.13,0,0,0,0,1c0-.1.11-.2.17-.3,3.68-5.9,8.73-10,15.19-13.08s12.61-6.71,16.9-12.57C178.63,303.62,180.31,300.57,179.09,299.65ZM178,303.83a29.07,29.07,0,0,1-2.31,2.9,35,35,0,0,1-5,4.49,62.35,62.35,0,0,1-10.32,5.83A38.13,38.13,0,0,0,149.2,325a52.2,52.2,0,0,1,9.2-9.88c3.13-2.56,6.71-4.43,9.89-6.89,1.47-1.14,2.82-2.41,4.17-3.67.73-.69,1.45-1.39,2.18-2.07s2.75-2.82,3.77-2.39C179.74,300.58,178.29,303.42,178,303.83Z" style="fill:#fff"></path><path d="M96.55,251.35c6.77,11.7,12.82,23.78,18.41,36.08a.33.33,0,0,1-.08.41.18.18,0,0,1,0,.07,1.6,1.6,0,0,1,.1.23.16.16,0,0,1-.09.2h-.07a.21.21,0,0,1-.15-.08c-4.38-6.47-8.51-12.54-14.68-17.49-5.65-4.53-11.31-8.49-15.85-14.21-3.87-4.89-13.18-27.06-10.08-31.26C76.1,222.47,91.16,242.05,96.55,251.35Z" style="fill:#ebebeb"></path><path d="M87,242.52c-.92-1.34-3.39-6.38-5.72-5.93s.2,5.55.65,6.61a64.49,64.49,0,0,0,5.85,11.24c2.37,3.49,5.5,6.12,8.47,9.07,7.28,7.28,13.24,16,18.5,24.84h.07a.16.16,0,0,0,.09-.2,1.6,1.6,0,0,0-.1-.23.18.18,0,0,0,0-.07C107.08,271.9,97,257.13,87,242.52Zm27.2,44.74a143.67,143.67,0,0,0-12-17.57c-5.13-6.44-11.93-11.3-16-18.55a49.2,49.2,0,0,1-5-11.17c-.14-.52-.69-2.28,0-2.78s2,.55,3.55,2.66c1.27,1.76,2.45,3.59,3.67,5.39,4.8,7.06,9.56,14.15,14.08,21.41Q108.74,276.73,114.22,287.26Z" style="fill:#fff"></path><path d="M118.33,331.45a.2.2,0,0,1-.06.14.24.24,0,0,1-.32.09l-.79-.44a.06.06,0,0,1-.07,0c-6.12-2.08-11.44-2.06-17.79-1.74a28.27,28.27,0,0,1-13.59-2.78,47.19,47.19,0,0,1-12.44-9c-1.5-1.46-6.52-5.05-5-7.9,2.49-4.67,17.91,5.21,20.62,6.73A134.61,134.61,0,0,0,103.71,324c5.05,2.08,10.12,4,14.55,7.28A.17.17,0,0,1,118.33,331.45Z" style="fill:#ebebeb"></path><path d="M115.15,330h0c-2.9-1.31-5.75-2.74-8.7-3.9-3.31-1.29-6.83-1.93-10.15-3.22-6.21-2.42-11.86-6-17.93-8.71-.8-.35-2.37-1-2.22.49.06.65.85,1.33,1.24,1.76a30.26,30.26,0,0,0,4,3.54c4.79,3.61,10.56,6.7,16.54,7.64,6.94,1.08,13.88,1.15,20.37,4a.2.2,0,0,0,.06-.14A22.14,22.14,0,0,0,115.15,330Zm-15-2.6a38.56,38.56,0,0,1-20.57-9.48,32,32,0,0,1-2.39-2.41c-.44-.55-1-1.66,1-1a10.85,10.85,0,0,1,1.34.62c1.56.75,3.1,1.53,4.64,2.33,3.28,1.7,6.55,3.45,9.94,4.92a66.3,66.3,0,0,0,9.31,3.07,79,79,0,0,1,11.09,4.3C109.93,328.25,105,328,100.19,327.41Z" style="fill:#fff"></path><path d="M103,314.16a.49.49,0,0,1,0,.29.64.64,0,0,1-.08.14.57.57,0,0,1-.14.13l-.06,0a.44.44,0,0,1-.45,0A21,21,0,0,1,99.78,313c-9.6-6.08-19.41-12.44-26.38-21.5a70,70,0,0,1-8.71-15.13c-1.12-2.63-4.53-8.36-2.42-11.3s4.53-.28,6.21,1.43a149.87,149.87,0,0,1,12.33,14,82.74,82.74,0,0,1,9.5,15.72c3.07,6.68,5.93,13.53,12.42,17.59A.5.5,0,0,1,103,314.16Z" style="fill:#ebebeb"></path><path d="M86.77,295.55a179.81,179.81,0,0,0-15.52-21.08c-.72-.87-2.87-3.16-3.67-1.24-.93,2.26,2,5.74,3,7.41a136.54,136.54,0,0,0,13.27,18.08,76.82,76.82,0,0,0,19,15.87.64.64,0,0,0,.08-.14C91.3,307.22,82,296.81,74.4,285.55c-1.84-2.72-3.7-5.47-5.31-8.33-.25-.46-1.65-3.48-.75-4s3.06,2.2,3.33,2.54c1.26,1.56,2.51,3.13,3.77,4.71A212.09,212.09,0,0,1,88.35,299a52,52,0,0,0,14.59,15.45.49.49,0,0,0,0-.29C96.05,309.25,91.23,302.77,86.77,295.55Z" style="fill:#fff"></path><path d="M105.84,202.07c2.53,5.51,4.55,11.17,5,17.26.76,9.29-1.26,18.46-1.82,27.7a.45.45,0,0,0,0,.11,61.17,61.17,0,0,0,0,7.54q0,.81.12,1.62a.32.32,0,0,1-.12.3.41.41,0,0,1-.22.07.37.37,0,0,1-.22-.06h0a.39.39,0,0,1-.2-.29c-.11-.78-.18-1.55-.25-2.32a.16.16,0,0,1-.09-.12c-3.09-12.31-6.89-24.89-10.73-37.23a91.65,91.65,0,0,1-3.82-16.76c-.38-3.37-.65-8.5,2.25-10.95a.72.72,0,0,1,.69-.21C101.32,190.63,103.84,197.71,105.84,202.07Z" style="fill:#ebebeb"></path><path d="M100.09,201.64c-2.27-1.28-2.36,1.7-2.26,3.23a102.14,102.14,0,0,0,2,12.21q1.28,6.79,2.75,13.55c1.87,8.5,5.1,17.24,6,25.94v0h0a.37.37,0,0,0,.22.06.41.41,0,0,0,.22-.07v-1.92c0-2.51,0-5,0-7.54a.45.45,0,0,1,0-.11c.06-12.11-.12-24.16-4.07-36.08C104.07,208.18,102.88,203.21,100.09,201.64Zm5.2,11.66a86.2,86.2,0,0,1,3.39,22.89c.14,6.16-.17,12.31-.15,18.47-.72-5.09-2.28-10.1-3.48-15.13q-2.83-11.84-5-23.8-.54-2.88-1-5.77c-.29-1.7-1.1-4.43-.75-6.16.66-3.36,3-.51,3.71.66a21.41,21.41,0,0,1,1.46,3.28C104.1,209.57,104.73,211.43,105.29,213.3Z" style="fill:#fff"></path><path d="M167.76,277.68a248.16,248.16,0,0,1-13.22,31.06C149.83,318,145,327.14,141.63,337c-4.48,13-6.25,27.94-1.79,41a161,161,0,0,1-17.75-50.37c-5.38-29.84-9.58-60.24-17.52-89.55-.13-.48-.82-.26-.74.21,2.52,15.63,6.07,31.1,8.73,46.71s4.84,31.12,7.75,46.57c.32,1.68.67,3.33,1,5-6.37-12.29-17.29-22.61-28.64-29.61-.14-.09-.25.13-.12.23A87.94,87.94,0,0,1,113,327.6c5,6.87,8.29,14.33,11.86,21.92a135.66,135.66,0,0,0,36.56,57.84.19.19,0,0,0,.27-.27,136,136,0,0,1-17.8-22.37c-8-16.75-4.6-36.23,2.25-53.18,3.59-8.89,7.87-17.46,11.92-26.15s8.48-17.95,10.19-27.58A.27.27,0,0,0,167.76,277.68Z" style="fill:#ebebeb"></path></g><g id="freepik--Shadow--inject-1003"><ellipse cx="250" cy="450.58" rx="90.08" ry="14.23" style="fill:#ebebeb"></ellipse></g><g id="freepik--Plants--inject-1003"><path d="M185.6,406.49H98.27s.2-13,8.79-16.44a11.7,11.7,0,0,1,13.69,3.28s3.5-23.9,19.5-23.9,23.65,20.62,23.65,20.62,3.58-6.23,12.46-5.07S185.6,406.49,185.6,406.49Z" style="fill:#37474f"></path><path d="M466.6,406.49s-2.68-12.49-8-14.41-8.6,3.68-8.6,3.68-1.26-11.94-8.84-15.51S427.87,384,427.87,384s-5.82-15.15-16.21-15.15S396,391,396,391s-6.13-6.61-12.42-2.88-6.29,18.36-6.29,18.36Z" style="fill:#37474f"></path><path d="M113.92,406.49H33.4s2.65-11.35,8-12.15,7.83,4.46,7.83,4.46S49,383,59,380.27s18.33,11.29,18.33,11.29,6.25-8,14.77-7.47,10.69,13.69,10.69,13.69S110.5,393.21,113.92,406.49Z" style="fill:#455a64"></path><path d="M383.09,406.49H333.61s.12-7.36,5-9.31a6.63,6.63,0,0,1,7.76,1.85s2-13.53,11-13.53,13.4,11.68,13.4,11.68,2-3.53,7.07-2.88S383.09,406.49,383.09,406.49Z" style="fill:#455a64"></path></g><g id="freepik--Floor--inject-1003"><polygon points="21.68 406.49 78.76 406.25 135.84 406.16 250 405.99 364.16 406.16 421.24 406.25 478.32 406.49 421.24 406.74 364.16 406.82 250 406.99 135.84 406.82 78.76 406.74 21.68 406.49" style="fill:#263238"></polygon></g><g id="freepik--World--inject-1003"><path d="M377.69,319.58a127.09,127.09,0,0,1-24.39,75.06v0A127.7,127.7,0,1,1,250,191.89q5.25,0,10.4.42a127,127,0,0,1,55.87,18.1A128.27,128.27,0,0,1,358.34,252,127.11,127.11,0,0,1,377.69,319.58Z" style="fill:#FFA52E"></path><g style="opacity:0.2"><path d="M277.57,379.84c-1.61,4.3,1.08,4.48,1.25,6.26s0,5.19-5.18,10.38-13.77,4.11-15.56,6.26S253.25,414,249,417s-5,1.25-11.09,2.51-10.73,9.12-12.52,12.87.36,10-3.93,10.2-6.26-9.13-10.19-14.13S206,419,204.79,413.11s.71-18.24,0-23.07-13.59-13.41-18.24-19.32-11.09-17.7-10.73-21.64a16,16,0,0,1,5.36-9.83c2.15-1.61,1.25-2.5,1.61-3.94s2.15-1.78,2.5-3.57-1.07-7.16-2.86-8.05-3,2.15-4.11,1.61-4.29-4.29-5.54-4.65-.9,2.33-2.69-1.07-2.68-12-4.11-13.42-2.5,2.51-5.9,0-4.83-7.33-6.26-8-3.4.18-4.87-2.69,1.29-8,0-7.51-4.07,4.65-4.79.72,3.58-17.17,2.86-24.32a28.6,28.6,0,0,1,6.8-20.75s.71-3.93,1.43-6.44,16.1-12.51,17.88-15.37a13.81,13.81,0,0,0,1.27-5.09A127,127,0,0,1,250,191.89q5.25,0,10.4.42l.36.47c1.55,2,3.22,3.22,7.75,4.89s5.6,3.82,4.65,5.6-2.5,2.15-4.29,2.27-3.46-.84-5.36.36-3.82,7.63-6.32,8-6.92-5.73-7.87-7.51,2.14-5.61.68-7.4-4-1.43-8.08-1.79-13.47,1.2-13.11,2.75,13.83-.24,14.19,2.86-9.9,8.34-11.68,7.87-4.18-3.58-6.8-3.94-4.77,1.79-6.42,2-3.59-1.79-6.1-1.31-3.1,2.62-4.41,3.46-4.41.83-4.77,2.74,3.93,3,5,4.17-1.32,5.25-.24,6.08,7.75-5,9.42-6.44,3.1-7.63,6.67-7.51,4.77,6.2,6,6.8,3.81-1.43,7.75-.6,6.67,9.42,7.39,12,2.38,5.25,1,6.32-7.87-.71-8.7-2.38,4.29-4.18,3.93-4.77-3.34-1.43-4.89-.5-2.26,2.88-3.93,3.36-6.08-4.53-7.27-3.1,1.19,6,2.38,7,5.6,1.66,6,2.86-3,3.81-7,3.57-7.39-3.34-8.95-2-.71,4.76-1.78,6-6.92.36-9.78,3.45-4.17,7.75-7,10.38-4.17-.72-8,3-4.41,11.92-4.53,14.78,0,5.13-.95,4.77-2.27-2.86-2.63-4.41.84-4.18.84-5.13-5.49-5.84-8.71-6.32-6.08,2.15-8.46,4.06-6.68,1.55-8.23,3.1-2.74,15.26-1.55,18.48,2.74,3.22,6.56,1.55,1.67-4.89,3.94-4.18a5.33,5.33,0,0,1,3.45,5c0,1.91-4.53,6.44-3.93,7.75s4.53-.24,6.43.36,2.87,1.79,2.27,6.67-.24,8.71,2.62,10.32,4.47-2.33,5.73-1.79,3,3.4,4.82,3.22.9-1.79,4.3-2.86,2.14-1.79,2.86-3.94,2.86-3.93,5.18-2.86.72,2.68.9,4.47,4.29,2,7.51,3,5,0,11.44,2.15,6.8,8.58,9.48,9.65,11.63-.71,18.07,3.94,4.64,13.23,7.86,15.74,15.2,5.9,19.85,6.79,5.37-2.32,9.12-1.43,5.91,2,7.16,7.15C293.16,366,279.18,375.55,277.57,379.84Z"></path><path d="M181.48,288.4c.12,1,3.1,1.43,6.68,3.46s4.88,8,6.79,7.87,1.31-2.86,2-3.58,1.91-2.27,0-3.82-3.77-4.88-7.25-5.36-4.08-1.91-5.63-1.79A2.7,2.7,0,0,0,181.48,288.4Z"></path><path d="M201.15,298.42c-.53,1.46,0,2.5,3.82,3.45s7.39-.95,6.2-1.73-3-.41-2.27-1.72.47-3.22-2.63-2.87S201.63,297.1,201.15,298.42Z"></path><path d="M214.5,298.82c-1.3.19-2,2.46-.71,3.89s1.31,1.19,2.86,0,3.93-1.79,3.34-3S215.82,298.63,214.5,298.82Z"></path><path d="M224.88,303.69c.58-1.78,3.57,0,4.88,1.88s.72,4.65,0,6.68-1.19,4.41-2.86,3.45.12-3.81-.12-5.48S224.4,305.16,224.88,303.69Z"></path><path d="M276.26,204.23c-.62,1.5,2.27,2,3.94,3s3,1.55,3.93,0-.36-3.34-1.67-3.7S276.86,202.8,276.26,204.23Z"></path><path d="M298.79,218.18c1.11,1.16,3,.95,4.3,2.62s.83,4.53,2.5,5.37,2.86,0,3-1.2-2.38-4.17-2.15-4.76,3.46.83,4.18,2.62-.72,4.29.95,4.77,1.31-1.67,2-2.15,2.26-.24,2.14-1.67-2-4.53-3.57-5.6-2.74-2.27-5.37-2.86-5.12-.12-6.44,1S298.12,217.46,298.79,218.18Z"></path><path d="M350.38,240.65a2.15,2.15,0,0,1-.68,1.25c-2.5,1.79-5.48-4.41-8.94-5.6s-5-5.6-5.72-4.65-.48,2.27-1.55,3.81-2.62,1.2-3.34,4.18,3.34,8.46,2.39,10.25-2.15,1.19-4.06,1.08-1.55,1.54-4.05.83-.36-3.82-4.29-7.51-5.25-4.41-4.41-6.08-.36-4.05,1.43-4.29,3.21,2.38,4.41,3.1,2.74-1.43,2.86-3.34-4.18-4.53-5.73-6-1.67-6.87-1.07-7.94,2.39-.72,2.86-3.34c.28-1.54-2.16-4.12-4.22-6A128.44,128.44,0,0,1,350.38,240.65Z"></path><path d="M368.18,347.54c.36-3.82-1.55-4.06.36-11.09s-2-14.55-3.46-16.1-4.53-1.07-7,.48-.72,2.74-2.39,3.34-3.33-.36-4.88-.24-3,4.05-6.32,3.93-5.49-4.88-8-8.28-7.63-5.55-9.3-9.72,1.55-10.61.83-15.5-3.93-3.81-4.53-6.55.48-1.43,1.31-4.06-.95-4.05.72-8.58,4.65-6.8,3.93-8.82-3-5.37-3.1-7.75,2.27-2.27,6.8-5.61,5.72-3.1,9.18-1.91a50.19,50.19,0,0,0,7.63,2.15c2,.36,4.77,5.6,5.6,5.36s1-1.78,1.32-4a5.1,5.1,0,0,1,1.48-2.57,127.74,127.74,0,0,1-5,142.67C365.46,376.08,367.82,351.35,368.18,347.54Z"></path></g><path d="M348.92,400.32A127.69,127.69,0,1,1,250,191.89q5.25,0,10.41.42c.95.07,1.9.16,2.84.26a117,117,0,1,0,85.67,207.75Z" style="opacity:0.1"></path><path d="M377.69,319.58a127,127,0,0,1-24.39,75.06s0,0,0,0a128.25,128.25,0,0,1-45.86,39,129,129,0,0,0,40.27-36.08l0,0a128.48,128.48,0,0,0,5.07-143.49,129.17,129.17,0,0,0-42.32-41.81A127.6,127.6,0,0,0,254.28,194c-3.45-.28-6.95-.42-10.46-.42A128.49,128.49,0,0,0,213,197.35a127.41,127.41,0,0,1,37-5.46q5.25,0,10.41.42a126.8,126.8,0,0,1,55.86,18.1,128.42,128.42,0,0,1,34.11,30.24,127.51,127.51,0,0,1,27.31,78.93Z" style="fill:#fff;opacity:0.30000000000000004"></path><path d="M306.41,273.1h64.5s-3.21-4.18-6.75-4.7c0,0-6.87-20.47-18.38-20.61-10.71-.14-15,12.59-15,12.59s-4.95-5.71-9.69-3.1-7.42,10.08-7.42,10.08S308.34,270.23,306.41,273.1Z" style="fill:#fff"></path><path d="M247.51,334.62H166s0-5.21,11.24-6.23c0,0,10.26-22.78,25.92-19.72,9.75,1.91,14.74,15.3,14.74,15.3s7.37-10.54,13.27-8.5,9.39,13.26,9.39,13.26S246.59,331.67,247.51,334.62Z" style="fill:#fff"></path><path d="M324.87,242.75H269.41s5.23-4.87,7.56-4.87,9.11-16.35,17.79-15.65S308,235.1,308,235.1,318.58,231.79,324.87,242.75Z" style="fill:#fff"></path><path d="M176.52,357.76H129.09s2.36-3.07,5-3.45c0,0,5.06-15.05,13.52-15.16,7.87-.1,11,9.25,11,9.25s3.64-4.19,7.13-2.27,5.45,7.41,5.45,7.41S175.1,355.65,176.52,357.76Z" style="fill:#fff"></path><path d="M276.48,396.66H341s-3.21-4.17-6.75-4.69c0,0-6.87-20.47-18.38-20.62-10.7-.13-15,12.59-15,12.59s-5-5.71-9.7-3.1-7.42,10.08-7.42,10.08S278.41,393.79,276.48,396.66Z" style="fill:#fff"></path></g><g id="freepik--Character--inject-1003"><path d="M242.06,41c16.41,7.75,26.67,39.55,18.4,65.4-8.94,27.94-37.54,33.27-54,27.3C189,127.33,183.74,108,191.67,96.51c7.67-11.15,20.26-14.45,23.68-24.63C217,67,216.76,58,218.87,50.69,221.22,42.54,232.14,36.28,242.06,41Z" style="fill:#263238"></path><path d="M248.39,45.4A69.66,69.66,0,0,1,263,69.33a56.74,56.74,0,0,1,3.09,13.81,54.26,54.26,0,0,1,.14,7.1,64.09,64.09,0,0,1-.76,7.05c-1.58,9.29-5.38,18.43-11.93,25.35a40.11,40.11,0,0,1-11.34,8.4A40.88,40.88,0,0,1,228.73,135,41,41,0,0,0,253,122.12c6.3-6.89,10-15.83,11.5-25a65,65,0,0,0,.8-6.94,54.05,54.05,0,0,0-.1-7,59,59,0,0,0-2.91-13.64,69.51,69.51,0,0,0-5.81-12.72A72.17,72.17,0,0,0,248.39,45.4Z" style="fill:#263238"></path><path d="M217.18,60a43.35,43.35,0,0,1-1.1,7.74A24.86,24.86,0,0,1,213,75a21.08,21.08,0,0,1-5.45,5.73c-2.14,1.5-4.25,3-6.27,4.59A38.7,38.7,0,0,0,191,96.63a23.11,23.11,0,0,0-2.71,14.92,22.7,22.7,0,0,1-.37-7.8,20.35,20.35,0,0,1,.88-3.84,24.17,24.17,0,0,1,1.53-3.64c2.45-4.71,6.3-8.49,10.36-11.75,2.05-1.63,4.23-3.09,6.35-4.56a21.33,21.33,0,0,0,5.34-5.42C215.28,70.32,216.46,65.12,217.18,60Z" style="fill:#263238"></path><path d="M238.51,97.25c-4.68,11.89-31.18,57.27-57.89,53.86-9.07-1.16-6-37.55,14-72.36.59-1,27.53,5,26.89,11.59-.07.7-7.07,15.65-6.29,15.84.12,0,3.42-3,17.87-15.57C240.29,84.3,241.18,90.48,238.51,97.25Z" style="fill:#eb9481"></path><path d="M215.21,106.05q-4.44,13-9.46,25.88c-.94,2.38-1.86,4.77-2.78,7.15,0,.09.1.14.14.06a132.16,132.16,0,0,0,5.71-12.54c1.68-4.23,3.28-8.55,4.53-12.92.72-2.52,1.4-5,2-7.59A.09.09,0,0,0,215.21,106.05Z" style="fill:#263238"></path><path d="M216.57,103.21s-2,1.88-.8,3.24,3.84,0,3.84,0-1.3,2.28.11,3.49,3.76-.65,3.76-.65-1.28,2.33.11,3.55,3.65-.76,3.65-.76-1.17,2.41,0,3.53,3.26-.92,3.26-.92-1.15,2.39.12,3.33,3.35-1.43,3.35-1.43Z" style="fill:#fff"></path><path d="M215.6,103.65l18.28,14s7.76-16.78,8.64-23.79-1-10.51-11.17-3.37A107.33,107.33,0,0,0,215.6,103.65Z" style="fill:#FFA52E"></path><path d="M242.52,93.84c-.88,7-8.64,23.79-8.64,23.79l-12.95-9.9,17.64-21C242.4,85.84,243.12,89,242.52,93.84Z" style="fill:#263238"></path><path d="M191.51,85.25s4.28-11,10.86-17c4.56-4.16,11-10.88,28.57-5.48,4.18,1.28,11,8.36,8.34,10.81s-8-5-14.19-5.69c0,0,5.7,6.5,4.26,10.63A81.44,81.44,0,0,1,224.8,89a17.94,17.94,0,0,1-2.05-.68s-1.47,3.83-7.2,6.31Z" style="fill:#eb9481"></path><path d="M207.35,64.94c3.24-.07,10.09-.11,15.71,1.8,6.23,2.13,17.68,7.92,16.06,12.51-1.19,3.36-5.75,1.54-5.75,1.54s4.23,3.38,2.49,6.19c-1.58,2.56-5,.93-5,.93s2.21,2.5.21,4.67c-2.4,2.61-8.18-4.27-12.9-3.74C217.08,89,207.35,64.94,207.35,64.94Z" style="fill:#eb9481"></path><path d="M219.71,73a26.25,26.25,0,0,1,13.64,7.69c.08.1.05.23,0,.15A64.7,64.7,0,0,0,219.69,73S219.67,73,219.71,73Z" style="fill:#263238"></path><path d="M222.72,66.12a26.25,26.25,0,0,1,13.64,7.69c.08.1.06.22-.05.15a64.7,64.7,0,0,0-13.61-7.78S222.68,66.12,222.72,66.12Z" style="fill:#263238"></path><path d="M217.74,79.32c2.59.64,9.35,3.79,13.16,8.49.08.11,0,.23-.05.15a69.91,69.91,0,0,0-13.13-8.58A0,0,0,0,1,217.74,79.32Z" style="fill:#263238"></path><path d="M222.3,89.68a12.56,12.56,0,0,0-7.41-2.07.08.08,0,0,0,0,.16c2.12.47,3.85,1,3.88,1-2.7,3.26-7.48,4.59-9.53,5-.13,0-.08.22,0,.22,3.76,0,7.92-1.71,9.76-5.11a31.86,31.86,0,0,0,3.22,1C222.3,89.78,222.34,89.72,222.3,89.68Z" style="fill:#263238"></path><path d="M145.9,223.32c.71-2.31,40-56.79,42.78-57.89.32-.14,18.73,12.35,18.73,12.35.77,1,35.05-7.08,35.05-7.08l1.29,41.55-62.78.08s-8.37,5.18-16,9.41h0a96.54,96.54,0,0,1-10.08,5.18C151.71,227.8,145.18,225.61,145.9,223.32Z" style="fill:#eb9481"></path><path d="M154.83,226.93a93.49,93.49,0,0,0,10.08-5.18s0,0,0,0c7.66-4.23,16-9.41,16-9.41l14,0L216,176.54c-4.78,1-8.35,1.55-8.59,1.23,0,0-18.41-12.48-18.73-12.34-2.74,1.1-42.07,55.58-42.78,57.89S151.7,227.81,154.83,226.93Z" style="fill:#ebebeb"></path><path d="M145.53,223.4c.75-2.37,40.26-56.83,43.08-58,1.07-.43,10.06,4.84,18.8,12.33l-25.52,35.08s-24,13.4-27.19,14.3S144.79,225.76,145.53,223.4Z" style="fill:#455a64"></path><path d="M148.28,224.2c6.85-9,33.62-45.78,39.71-55.16,0-.08,0-.12-.06,0-7,8.73-33.46,45.76-39.8,55.09C148,224.29,148.13,224.39,148.28,224.2Z" style="fill:#263238"></path><path d="M159.2,225.08a9.07,9.07,0,0,0,1.73-7.08,8.76,8.76,0,0,0-3.39-5.58c-.06,0-.13.06-.08.11A10.47,10.47,0,0,1,159.08,225C159,225.07,159.14,225.15,159.2,225.08Z" style="fill:#263238"></path><path d="M178.9,215.06c2.7-3.62,4.49-8.79,3.15-13.23-.06-.17-.3-.1-.32,0a62.66,62.66,0,0,1-3.33,12.91A.29.29,0,0,0,178.9,215.06Z" style="fill:#263238"></path><path d="M175.75,217.08c2.71-3.62,4.49-8.79,3.15-13.23-.05-.17-.3-.1-.32.05a62,62,0,0,1-3.32,12.91A.28.28,0,0,0,175.75,217.08Z" style="fill:#263238"></path><path d="M172.61,219.1c2.7-3.62,4.48-8.79,3.14-13.23-.05-.17-.29-.09-.32.06a62.17,62.17,0,0,1-3.32,12.91A.29.29,0,0,0,172.61,219.1Z" style="fill:#263238"></path><path d="M169.46,221.12c2.7-3.61,4.49-8.79,3.15-13.22-.06-.18-.3-.1-.32,0A63.28,63.28,0,0,1,169,220.86.28.28,0,0,0,169.46,221.12Z" style="fill:#263238"></path><path d="M195,177.65c3-4.1-3.42-8.72-6.38-4.6S192,181.77,195,177.65Z" style="fill:#263238"></path><path d="M185.78,226.08c2.88-.74,3.07-4.16,2.31-6.45a23.72,23.72,0,0,0-6.94-10.1.11.11,0,0,0-.18,0,.55.55,0,0,0-.78.44c-.08,3.91-.66,8.07.45,11.89C181.29,224.13,183.07,226.77,185.78,226.08ZM181.27,216c0-1.92.09-3.83,0-5.76,1.35,2,2.78,3.88,3.93,6a25.63,25.63,0,0,1,1.49,3.13c.63,1.66,1.08,7.47-3.15,5C181.21,222.88,181.28,218.25,181.27,216Z" style="fill:#263238"></path><path d="M186.39,199.47c-2.8,2.82-4.28,6.76-6.06,10.24a.55.55,0,0,0,.47.76.11.11,0,0,0,.14.12A23.67,23.67,0,0,0,191.85,205c1.77-1.65,3.23-4.75,1.05-6.77S188,197.82,186.39,199.47Zm3.68-.7c4.92-.2,1.76,4.69.41,5.86a24.35,24.35,0,0,1-2.8,2,70.7,70.7,0,0,1-6.3,3.4c1-1.66,1.81-3.38,2.73-5.07C185.21,203,187.35,198.88,190.07,198.77Z" style="fill:#263238"></path><path d="M244.07,160.73l28.17-3.46s40.31-13.6,64.17-8.43c27.35,5.92,32.54,37.36,5.6,51.22-26.66,13.71-146.63,14.3-146.63,14.3l24-39.14s39-11,73.63-10.6l-48.63,7.75Z" style="fill:#263238"></path><path d="M244.71,168.76c4.17-.87,8.41-1.4,12.64-2s8.53-1.08,12.81-1.54a253.3,253.3,0,0,1,25.69-1.5c.8,0,1.6,0,2.41,0,.17-.06.35-.1.52-.15l1.23-.3c.77-.17,1.55-.3,2.33-.44,1.61-.28,3.24-.49,4.84-.83.1,0,.14.13.05.15-1.62.4-3.2.9-4.82,1.29-.47.12-.93.23-1.4.33,3.15.1,6.29.27,9.44.48.1,0,.1.16,0,.16-4.27-.16-8.58-.09-12.85.08s-8.49.36-12.73.7c-8.56.68-17.12,1.65-25.64,2.73-4.78.61-9.58,1.32-14.39,1.63C244.37,169.62,244.24,168.86,244.71,168.76Z" style="fill:#455a64"></path><path d="M205.17,213c1.48-2.49,2.73-5.14,4.07-7.7l4.06-7.71c2.71-5.13,12.45-22.37,13.42-23.59.06-.07.19,0,.16.1-.44,1.33-6.51,12.74-7.9,15.28-2.8,5.09-5.74,10.09-8.64,15.12-.83,1.43-1.69,2.85-2.53,4.28s-1.74,2.83-2.51,4.3C205.26,213.12,205.12,213,205.17,213Z" style="fill:#455a64"></path><path d="M344.36,223.9c-.76-2.29-41.31-55.87-44.08-56.9-.32-.14-18.44,12.76-18.44,12.76-.75,1-35.21-6.28-35.21-6.28l-.34,41.57,62.77-1.34s8.47,5,16.23,9c0,0,0,0,0,0a93.27,93.27,0,0,0,10.2,5C338.66,228.51,345.13,226.18,344.36,223.9Z" style="fill:#eb9481"></path><path d="M335.52,227.71c-1.21-.31-5.43-2.43-10.2-5,0,0,0,0,0,0-7.75-4.06-16.23-9-16.23-9l-14,.3-21.87-35.29c4.8.85,8.38,1.36,8.62,1,0,0,18.12-12.9,18.44-12.76,2.77,1,43.32,54.61,44.08,56.9S338.66,228.52,335.52,227.71Z" style="fill:#ebebeb"></path><path d="M344.73,224c-.8-2.35-41.53-55.9-44.38-57-1.07-.41-9.94,5.07-18.51,12.75l26.3,34.49s24.27,12.86,27.51,13.69S345.53,226.32,344.73,224Z" style="fill:#455a64"></path><path d="M342,224.83c-7-8.81-34.64-45-40.94-54.25-.05-.07,0-.11.05,0,7.18,8.58,34.49,45,41,54.18C342.29,224.91,342.15,225,342,224.83Z" style="fill:#263238"></path><path d="M331.11,226a9.07,9.07,0,0,1-1.9-7,8.77,8.77,0,0,1,3.27-5.65s.13.06.08.11a10.46,10.46,0,0,0-1.34,12.49C331.27,226,331.16,226,331.11,226Z" style="fill:#263238"></path><path d="M311.18,216.39c-2.78-3.56-4.68-8.69-3.44-13.16.05-.17.29-.1.32.05a62.92,62.92,0,0,0,3.61,12.83A.29.29,0,0,1,311.18,216.39Z" style="fill:#263238"></path><path d="M314.37,218.34c-2.78-3.56-4.68-8.69-3.44-13.16.05-.17.29-.1.32,0a62.92,62.92,0,0,0,3.61,12.83A.29.29,0,0,1,314.37,218.34Z" style="fill:#263238"></path><path d="M317.57,220.29c-2.79-3.56-4.69-8.69-3.45-13.16.05-.17.3-.1.32.05A62.92,62.92,0,0,0,318.05,220,.28.28,0,0,1,317.57,220.29Z" style="fill:#263238"></path><path d="M320.76,222.24c-2.79-3.56-4.69-8.69-3.45-13.15.05-.18.3-.11.32,0A62.32,62.32,0,0,0,321.25,222,.29.29,0,0,1,320.76,222.24Z" style="fill:#263238"></path><path d="M294.27,179.36c-3-4,3.22-8.8,6.28-4.75S297.33,183.4,294.27,179.36Z" style="fill:#263238"></path><path d="M309.6,223.27c1-3.84.35-8,.17-11.9,0-.4-.46-.54-.78-.42a.11.11,0,0,0-.18,0,23.71,23.71,0,0,0-6.71,10.26c-.71,2.31-.44,5.72,2.45,6.39C307.28,228.2,309,225.51,309.6,223.27Zm-2.85,2.43c-4.18,2.62-3.86-3.19-3.27-4.88a25.47,25.47,0,0,1,1.42-3.15,70.23,70.23,0,0,1,3.79-6.08c0,1.92.1,3.83.14,5.75C308.88,219.64,309.05,224.26,306.75,225.7Z" style="fill:#263238"></path><path d="M296.81,199.9c-2.13,2.06-.61,5.12,1.2,6.74A23.7,23.7,0,0,0,309,212c.09,0,.14-.05.14-.13.33-.06.65-.41.45-.76-1.86-3.44-3.42-7.35-6.28-10.11C301.68,199.36,298.82,197.94,296.81,199.9Zm8.93,6.54c1,1.67,1.83,3.38,2.85,5-2.15-1-4.33-2-6.38-3.26a25.22,25.22,0,0,1-2.84-2c-1.38-1.13-4.65-5.95.28-5.86C302.37,200.41,304.6,204.45,305.74,206.44Z" style="fill:#263238"></path><path d="M244.73,160.73H216.56s-29.47-14.16-53.21-8.46C136.14,158.82,132.66,193,153,205.08c25.77,15.31,140.45,12.35,140.45,12.35l-24.79-42s-38.14-8-72.72-6.86l48.79,6.65Z" style="fill:#263238"></path><path d="M270.31,178.12a.8.8,0,0,1-.05-.21c0-.06,0-.12,0-.18l-.11-.41a8,8,0,0,0-.29-.82c-.11-.27-.22-.53-.35-.8A7,7,0,0,0,269,175s-.05,0-.07-.05l0,0-.06,0s0,0-.07,0c-4.19-.78-32.69-4.86-36.93-5.34s-8.55-.89-12.84-1.25a256.63,256.63,0,0,0-25.72-.92c-.8,0-1.6,0-2.41.07l-.52-.13c-.42-.1-.82-.2-1.24-.28-.77-.15-1.55-.26-2.33-.38-1.63-.25-3.25-.42-4.87-.72-.1,0-.14.13,0,.15,1.63.36,3.22.83,4.85,1.18.47.11.93.21,1.4.3-3.14.17-6.28.41-9.42.69-.1,0-.1.17,0,.16,4.27-.25,8.57-.28,12.85-.21s8.5.17,12.74.41c8.58.49,17.15,1.26,25.7,2.15,4.79.51,33.85,4.75,38.67,4.95h.06c0,.11.08.22.13.33.13.26.27.52.41.77s.27.49.43.73l.23.35.12.17a1,1,0,0,1,.13.18C270.2,178.29,270.37,178.22,270.31,178.12Z" style="fill:#455a64"></path><path d="M284.51,214.88c-1.53-2.46-2.84-5.08-4.25-7.61L276,199.65c-2.82-5.06-12.95-22.08-13.95-23.27-.06-.08-.19,0-.16.09.48,1.32,6.8,12.59,8.25,15.11,2.91,5,6,9.95,9,14.91.86,1.42,1.75,2.82,2.63,4.23s1.8,2.79,2.6,4.24C284.43,215.05,284.56,215,284.51,214.88Z" style="fill:#455a64"></path><path d="M222.51,129.77l-5.75,33.69s30.08,11.74,66.48-.15c0,0-10.78-59.1-25-74.53-7.11-7.72-15.46-7.14-20.78-1.75-1.35,1.37-15.41,20.6-17.1,28.71C218.88,122.9,222.51,129.77,222.51,129.77Z" style="fill:#FFA52E"></path><path d="M262.25,88.67c28.92,19.18,54.57,46.64,52.81,55.92-1.86,9.81-21.69,23-36.78,27.12-3.37.92-16.37-23.92-12.89-25.29,2.71-1.07,13.43-6.71,14.83-8.52,1-1.26-19.65-27.75-26.84-41.69C245.85,81.61,254.5,83.54,262.25,88.67Z" style="fill:#eb9481"></path><path d="M271.78,145.35s-10.5,1.68-17.32,3.11c-3.81.8-10.2,2.74-12.73,4.6-3.78,2.79-17.81,16.86-14.47,20.33,3,3.15,7-2.35,7-2.35s-4.88,5.6-.93,7.8,8.45-5.44,8.45-5.44-5.6,5.58-1.15,7.53c3.85,1.69,9.94-6.57,9.94-6.57s-6.52,5.21-2.73,7.33c4.18,2.34,14.86-8.9,14.86-8.9,9.11.47,14.64-.47,20.91-2.64C284.73,169.76,271.78,145.35,271.78,145.35Z" style="fill:#eb9481"></path><path d="M240.26,175.26c.38-.58.77-1.16,1.15-1.75a36.13,36.13,0,0,1,2.34-3.32c.84-1,1.73-2,2.64-2.95s2-1.92,3-3c.08-.08.2,0,.12.11a35.16,35.16,0,0,0-2.65,3.18c-.84,1.06-1.67,2.13-2.49,3.19s-1.69,2-2.53,3c-.41.51-.81,1-1.2,1.57a12,12,0,0,1-1.16,1.48.06.06,0,0,1-.09-.07A8.44,8.44,0,0,1,240.26,175.26Z" style="fill:#263238"></path><path d="M233.24,172.23a53.58,53.58,0,0,1,4.21-6.26,38,38,0,0,1,5.27-5.41c.07-.06.17,0,.12.1-1.57,2-3.18,3.94-4.77,5.9-.79.95-4.2,5.41-4.62,5.83C233.35,172.49,233.19,172.35,233.24,172.23Z" style="fill:#263238"></path><path d="M246.79,178.29a53.63,53.63,0,0,1,4.07-5.82,49.34,49.34,0,0,1,5.4-4.84c.08,0,.18.05.12.11-1.68,1.74-3.37,3.45-5,5.28-.78.88-3.66,4.6-4.47,5.38C246.88,178.48,246.75,178.38,246.79,178.29Z" style="fill:#263238"></path><path d="M261.39,113.09s1.39,2.38,3,1.49.87-3.74.87-3.74,1.93,1.78,3.43.67.19-3.81.19-3.81,2,1.76,3.49.68.07-3.73.07-3.73,2.09,1.68,3.45.77-.18-3.39-.18-3.39,2.07,1.65,3.27.62-.65-3.58-.65-3.58Z" style="fill:#fff"></path><path d="M261.61,114.13,279.29,99.4S264.65,88.12,258,85.71s-10.48-1.33-5.77,10.14A108,108,0,0,0,261.61,114.13Z" style="fill:#FFA52E"></path><path d="M253.67,100a.08.08,0,0,0-.13.08c.26.65,2.26,4.44,2.69,5.27-.15-.15-2.32-2.07-2.65-2.44-.07-.08-.18,0-.11.11.35.37,3.34,3.57,3.5,3.69.35.65,3.73,6.48,4.42,7.37.19.24.28,0,.21-.27C261.33,112.79,254.27,100.74,253.67,100Z" style="fill:#263238"></path><path d="M244.46,81.58c-6.85.81-10.8,12-9.15,13.63s5.59-2,5.59-2,2.55,4.76,5.95,3.38C252.61,94.25,253.69,80.48,244.46,81.58Z" style="fill:#fff"></path><path d="M249.26,83.71c-.22,1.58-3.69,8.83-8.48,8.84-2.46,0-2.81-8.61-2.81-8.61l-.15-.63-2-8.81,11.83-7.58S249.33,83.26,249.26,83.71Z" style="fill:#eb9481"></path><path d="M248.26,73a18.15,18.15,0,0,1-10.44,10.29l-2-8.81,11.83-7.58S247.93,69.71,248.26,73Z" style="fill:#263238"></path><path d="M221.77,64.86c2.8,15.61,12.47,15.69,15.83,15.08,3.06-.55,13.39-2.82,12.21-18.63s-9.32-19.45-16.37-18.55S219,49.25,221.77,64.86Z" style="fill:#eb9481"></path><path d="M226.23,60.28c.35-.13.66-.31,1-.47a1.74,1.74,0,0,0,.92-.67.57.57,0,0,0-.16-.67,1.41,1.41,0,0,0-1.42,0,2,2,0,0,0-1.08,1A.6.6,0,0,0,226.23,60.28Z" style="fill:#263238"></path><path d="M236.78,57.76a7.94,7.94,0,0,1-1.09,0,1.73,1.73,0,0,1-1.12-.18.55.55,0,0,1-.16-.67,1.39,1.39,0,0,1,1.26-.64,2.05,2.05,0,0,1,1.42.41A.6.6,0,0,1,236.78,57.76Z" style="fill:#263238"></path><path d="M235.67,62.15s.09,0,.1.07c.19,1.07.59,2.25,1.63,2.39,0,0,0,.06,0,.06C236.2,64.76,235.68,63.18,235.67,62.15Z" style="fill:#263238"></path><path d="M236.37,60.84c1.67-.49,2.54,2.88,1,3.34S235,61.26,236.37,60.84Z" style="fill:#263238"></path><path d="M237.08,60.85c.34.11.72.38,1.08.32s.65-.5.83-.91c0,0,0,0,.06,0a1.26,1.26,0,0,1-.57,1.64c-.61.25-1.21-.2-1.54-.81C236.88,61,236.94,60.8,237.08,60.85Z" style="fill:#263238"></path><path d="M229.19,63.63s-.07.07-.05.12c.31,1,.49,2.27-.36,2.87,0,0,0,.07,0,0C229.91,66.2,229.65,64.56,229.19,63.63Z" style="fill:#263238"></path><path d="M228,62.79c-1.71.32-.95,3.72.64,3.43S229.4,62.52,228,62.79Z" style="fill:#263238"></path><path d="M227.31,63.17c-.23.24-.42.63-.74.73s-.72-.2-1-.5c0,0-.05,0,0,.05.13.65.49,1.28,1.15,1.26s.88-.66.89-1.34C227.54,63.24,227.4,63.08,227.31,63.17Z" style="fill:#263238"></path><path d="M237.29,70.52c-.12.35-.19.77-.52,1a2.89,2.89,0,0,1-1.15.3,0,0,0,0,0,0,.07,1.48,1.48,0,0,0,1.49-.11,1.16,1.16,0,0,0,.31-1.24C237.39,70.46,237.3,70.47,237.29,70.52Z" style="fill:#263238"></path><path d="M231.6,68s.17,1.62.35,2.36a4.1,4.1,0,0,0,3.58-2.14c0-.08-.08-.14-.14-.08a5.38,5.38,0,0,1-3,1.71c-.1-.19-.19-2.78-.31-2.76a6.53,6.53,0,0,0-1.59.79c-.44-3.37-.35-6.77-.84-10.12,0-.11-.2-.11-.2,0a54.55,54.55,0,0,0,.44,10.93C230,69.12,231.34,68.19,231.6,68Z" style="fill:#263238"></path><path d="M232.94,70a3.94,3.94,0,0,0,1.83.77,1.74,1.74,0,0,0,1.06-.21c.7-.39.53-1.09.24-1.64a4.07,4.07,0,0,0-.57-.81A5.16,5.16,0,0,1,232.94,70Z" style="fill:#263238"></path><path d="M234.77,70.8a1.74,1.74,0,0,0,1.06-.21c.7-.39.53-1.09.24-1.64A1.84,1.84,0,0,0,234.77,70.8Z" style="fill:#ff9bbc"></path><path d="M247.55,63s2-5.68,4.54-5.07,1.85,8.21-.44,9.84a2.68,2.68,0,0,1-3.85-.45Z" style="fill:#eb9481"></path><path d="M251.85,60.05s.06,0,0,.07c-1.59,1.2-2.08,3.11-2.27,5a1.47,1.47,0,0,1,2-1,.05.05,0,0,1,0,.1,1.66,1.66,0,0,0-1.61,1,8.38,8.38,0,0,0-.45,1.65c0,.18-.35.17-.34,0v0C248.56,64.6,249.47,60.94,251.85,60.05Z" style="fill:#263238"></path><path d="M251.21,67.23a.69.69,0,1,1-.69-.68A.68.68,0,0,1,251.21,67.23Z" style="fill:#455a64"></path><path d="M250.85,67.23a.33.33,0,1,1-.33-.32A.32.32,0,0,1,250.85,67.23Z" style="fill:#263238"></path><circle cx="251.66" cy="66.12" r="0.48" style="fill:#455a64"></circle><path d="M236.38,80.08a11.61,11.61,0,0,1-10.12-5c-2.24-3.21-3.37-7.2-4.18-11-.26-1.2-.47-2.42-.64-3.64a18,18,0,0,1-.26-3.51c0-.1-.16-.1-.15,0,.1,1.13.05,2.27.1,3.4s.17,2.25.34,3.37A35.32,35.32,0,0,0,223,70c1.27,3.65,3.28,7.19,6.78,9.1a10.28,10.28,0,0,0,6.6,1C236.44,80.15,236.43,80.07,236.38,80.08Z" style="fill:#263238"></path><path d="M249.72,61.41c-1.79.35-7.6-3.34-9.89-11.8,0,0,2.59,7.46,3.44,8.43S240,56,238.08,49.17A28.41,28.41,0,0,1,232,54.59c-3,1.73-5,2.2-5.28,2s4.09-2.89,5-4.7c0,0-7.59,6.18-11.49,7.49-.45.15-3.38-9.15,1.74-14.71s15.93-3.69,19.18-1.83c0,0,3.18-.34,7.66,3.36S251.64,61.05,249.72,61.41Z" style="fill:#263238"></path></g></svg>