<svg xmlns="http://www.w3.org/2000/svg" viewBox="0 0 750 500"><g id="freepik--background-complete--inject-460"><path d="M123.83,182.59l87.61-.14s-4.37-5.66-9.17-6.36c0,0-9.38-27.8-25-28-14.54-.16-20.34,17.13-20.34,17.13s-6.75-7.74-13.18-4.19-10,13.71-10,13.71S126.45,178.68,123.83,182.59Z" style="fill:#ebebeb"></path><path d="M158.29,239.71l-110.79.17s0-7.08,15.25-8.49c0,0,13.89-31,35.17-26.83,13.25,2.57,20,20.75,20,20.75s10-14.33,18-11.58,12.8,18,12.8,18S157,235.71,158.29,239.71Z" style="fill:#ebebeb"></path><path d="M637.82,257.7,527,257.87s0-7.08,15.25-8.49c0,0,13.89-31,35.17-26.83,13.25,2.56,20,20.74,20,20.74s10-14.33,18-11.57,12.8,18,12.8,18S636.56,253.7,637.82,257.7Z" style="fill:#ebebeb"></path><path d="M521.09,67.29l-75.33.11s7.1-6.63,10.26-6.63,12.35-22.23,24.13-21.31,18.06,17.46,18.06,17.46S512.53,52.41,521.09,67.29Z" style="fill:#ebebeb"></path><path d="M272.71,89.38l-64.43.1s3.2-4.18,6.73-4.71c0,0,6.84-20.45,18.34-20.62,10.68-.15,15,12.55,15,12.55s4.94-5.7,9.68-3.1,7.42,10.05,7.42,10.05S270.77,86.51,272.71,89.38Z" style="fill:#ebebeb"></path><path d="M702.5,308.45l-64.42.09s3.19-4.17,6.73-4.7c0,0,6.83-20.45,18.33-20.62,10.69-.15,15,12.55,15,12.55s5-5.7,9.68-3.11,7.43,10.06,7.43,10.06S700.56,305.58,702.5,308.45Z" style="fill:#ebebeb"></path></g><g id="freepik--Shadow--inject-460"><ellipse cx="297.7" cy="445.54" rx="226.63" ry="13.44" style="fill:#ebebeb"></ellipse></g><g id="freepik--Floor--inject-460"><polygon points="50.72 408.05 131.79 407.81 212.86 407.72 375 407.55 537.14 407.72 618.21 407.8 699.28 408.05 618.21 408.29 537.14 408.38 375 408.55 212.86 408.38 131.79 408.29 50.72 408.05" style="fill:#263238"></polygon></g><g id="freepik--Plants--inject-460"><path d="M640,388.73c-2.39-2.41-5.11-5.06-5.4-8.63-.26-3.29.39-7.05,3.18-9.15.8-.6,1.4-.85,1.81.22.63,1.63.16,3.76,0,5.43a34.44,34.44,0,0,0-.09,6.5c.14,1.52.44,3,.61,4.53,0,.19,0,.38.07.57a1.64,1.64,0,0,0,0,.22l.06.08a.15.15,0,0,1,0,.15.14.14,0,0,1,0,.06A.18.18,0,0,1,640,388.73Z" style="fill:#FFA52E"></path><path d="M640.29,388.71c-2-2.23-4.28-4.51-4.41-7.64a13.82,13.82,0,0,1,.6-4.33c.18-.63.71-2.53,1.49-2.67,1.41-.24.21,5.71.2,6.39a14.63,14.63,0,0,0,2,7.17c0,.19,0,.38.07.57a16.22,16.22,0,0,1-2-4.93c-.5-2.41.07-4.55.23-6.95,0-.52.23-2.18-.63-1.94-.56.16-1.09,2-1.2,2.4a14.26,14.26,0,0,0-.58,4.1c.09,3.16,2.32,5.47,4.27,7.77A.14.14,0,0,1,640.29,388.71Z" style="fill:#fff"></path><path d="M639.76,391.52l-.35.21h0a.08.08,0,0,1-.09,0,.14.14,0,0,1-.07-.18.1.1,0,0,1,.06-.05l.05,0,.11-.05h0l0,0c1.25-2,2.8-3.73,4-5.72s2.2-3.88,3.52-5.69c.82-1.14,5.27-6.55,6.71-3.72.63,1.26-.18,3.27-.69,4.44a14.33,14.33,0,0,1-2.9,4.21C647.19,387.93,643.32,389.4,639.76,391.52Z" style="fill:#FFA52E"></path><path d="M646.77,386.38a16.78,16.78,0,0,0,3.12-3.55c.3-.46,1.72-2.68,1.09-3.27-.41-.39-1.28.29-1.58.5a14.69,14.69,0,0,0-3,3.58,63.11,63.11,0,0,1-6,7.11c-.16.11-.33.22-.48.34l-.41.29-.14.1-.1.07a.15.15,0,0,0,.07.18l.31-.22a2.28,2.28,0,0,1-.22.22h0l.28-.17.07,0,.37-.36A71.14,71.14,0,0,0,646.77,386.38Zm-5.85,4a54.17,54.17,0,0,0,3.64-4.07c.93-1.13,1.8-2.31,2.64-3.51a16.09,16.09,0,0,1,1.54-2c.45-.45,2.23-2,2-.1-.18,1.36-1.68,3-2.56,4a23.68,23.68,0,0,1-3.22,2.86C643.64,388.56,642.27,389.46,640.92,390.37Z" style="fill:#fff"></path><path d="M634.15,399.19h0l-.1-.08c-2-2.39-5-5.24-5.26-8.53-.18-2.44.76-5.85,3-7.13,2.57-1.44,2.67,3.74,2.75,5.06a95.48,95.48,0,0,1-.27,10.62s0,0,0,.06h0C634.27,399.26,634.21,399.23,634.15,399.19Z" style="fill:#FFA52E"></path><path d="M634.29,399.21l-.12-.63c-.44-2.37-.78-4.77-1-7.17-.06-.61-.14-5.29-1.32-4.92-.71.22-.93,2-1,2.59a9.58,9.58,0,0,0,0,3.16c.46,2.4,2,4.43,3.09,6.58a2.11,2.11,0,0,1,.16.3.64.64,0,0,1,0,.07h0C634.21,399.23,634.27,399.26,634.29,399.21Zm-2.87-5.72a9.43,9.43,0,0,1-.49-3.2c0-.72.13-3.33,1-3.49.48-.09.46.22.62.75a6.11,6.11,0,0,1,.17.74c.1.61.13,1.24.18,1.85.07,1.1.18,2.18.3,3.26.21,1.78.49,3.54.83,5.3A44.61,44.61,0,0,1,631.42,393.49Z" style="fill:#fff"></path><path d="M642.7,399a18.34,18.34,0,0,1-10.45,2.39l-.06,0a.13.13,0,0,1-.07-.15.14.14,0,0,1,.15-.11h.22c3.45-2.48,6.92-4.91,10.33-7.47.8-.6,6-4.34,6.57-2.2.35,1.32-1.51,3.14-2.3,4A18.55,18.55,0,0,1,642.7,399Z" style="fill:#FFA52E"></path><path d="M646.1,394.35c.18-.32.33-.7-.12-.82-.87-.24-3.26,1.57-4,2-2.86,1.93-5.81,3.56-8.82,5.22l-.76.42-.32,0a.13.13,0,0,0,.07.15l.08,0,.42,0h0a21.68,21.68,0,0,0,6.49-1.8,20.33,20.33,0,0,0,3.68-2.17A12.09,12.09,0,0,0,646.1,394.35Zm-13.24,6.79a1.52,1.52,0,0,1-.21,0L633,401a62.44,62.44,0,0,0,7-3.86c1.14-.74,2.22-1.55,3.38-2.24.49-.3,1.85-1.18,2.35-1s0,.58-.19.85-.51.52-.69.69A21.4,21.4,0,0,1,632.86,401.14Z" style="fill:#fff"></path><path d="M625.91,408l-.42-.46,1.18-1.13c1.57-1.56,3.13-3.12,4.66-4.71.88-.91,1.73-1.82,2.55-2.76l.09-.09.2-.24.21-.25a26.45,26.45,0,0,0,4.51-7.07c.37-.87.69-1.76,1-2.66l.09-.25a.25.25,0,0,0,0-.07l.09-.27.06-.2c.89-2.78,1.55-5.62,2.28-8.42.21-.8.42-1.61.64-2.4l0-.15a1.09,1.09,0,0,1,0-.17c.94-3.54,1.93-7.07,2.78-10.63,0-.13.22-.06.19.07-.54,2.37-1,4.76-1.54,7.15-.07.32-.14.64-.2.95-.14.64-.27,1.26-.41,1.89-.27,1.26-.55,2.5-.85,3.75a88.5,88.5,0,0,1-2.93,10.48c-.09.26-.19.51-.29.76s-.13.32-.2.47-.15.36-.22.53a28.54,28.54,0,0,1-5.78,8.18l-.49.51L633,401a.68.68,0,0,0-.12.12c-.06.05-.11.11-.16.16h0a1.36,1.36,0,0,0-.12.12l-.43.43c-1.56,1.56-3.14,3.1-4.72,4.63C626.91,407,626.41,407.47,625.91,408Z" style="fill:#FFA52E"></path><path d="M642.71,367.22c.53-2.8,2.52-7.61,6-7.43a2.67,2.67,0,0,1,2.6,2.44c.2,1.62-.73,3.28-1.54,4.62-2.16,3.55-4.64,6.88-6.55,10.6,0,0-.16.31-.2.4s-.16,0-.12-.08l.19-.36C642.71,374.09,642.08,370.54,642.71,367.22Z" style="fill:#FFA52E"></path><path d="M643.25,377.47s0-.05,0-.08a27.14,27.14,0,0,1,1.1-3.18,56.1,56.1,0,0,1,3.15-6.24c.45-.78,2.71-4.53.46-4.5-1,0-1.8.93-2.37,1.59a10.62,10.62,0,0,0-2,3.63,19.33,19.33,0,0,0-.51,8.15c0,.13,0,.25,0,.38l0,.12a.19.19,0,0,0,0,.07,0,0,0,0,0,0,0,.09.09,0,0,0,.13.06A.1.1,0,0,0,643.25,377.47Zm-.11-.8a22.33,22.33,0,0,1,.28-6.78,12.16,12.16,0,0,1,1.28-3.3,9.17,9.17,0,0,1,.91-1.3,6,6,0,0,1,.82-.85c.65-.57,1.59-.94,2-.63s.38.79.13,1.59a7.54,7.54,0,0,1-.3.79,20.81,20.81,0,0,1-1,1.87c-.57,1-1.14,2-1.68,3.06-.36.71-.7,1.42-1,2.14a29.26,29.26,0,0,0-1.4,3.83Z" style="fill:#fff"></path><path d="M594.84,378.29c1,2.06,1.85,4.18,2.67,6.31l1.4,3.63a9.36,9.36,0,0,0,2,3.73h0s.12.15.12.15v0a.17.17,0,0,1-.27.12l-.08-.07h0a5.6,5.6,0,0,1-1.05-.72A30.78,30.78,0,0,1,592.2,384a23.93,23.93,0,0,1-2.87-5.66c-.55-1.6-1.4-4-1.05-5.7.32-1.56,2.09-.53,2.86.07C592.88,374.13,593.9,376.34,594.84,378.29Z" style="fill:#FFA52E"></path><path d="M590.52,375.35c-.69.45.25,3,.63,4.15a23,23,0,0,0,2.42,5.05,29.86,29.86,0,0,0,6.8,7.38l.32.25,0,0s0,0,.08.06a.17.17,0,0,0,.27-.12c-.19-.2-.38-.41-.56-.63s-.32-.39-.46-.59a39.13,39.13,0,0,1-4-7.15C594.66,380.9,591.45,374.76,590.52,375.35Zm9.69,16.1c.23.29.48.56.73.83l-.64-.53a33.11,33.11,0,0,1-6-6.48,23.35,23.35,0,0,1-2.4-4.39,22.41,22.41,0,0,1-.88-2.54c-.09-.36-.8-2.56-.31-2.75s1.51,1.52,1.53,1.55c.24.33.46.67.67,1,.45.71.85,1.44,1.24,2.17.84,1.6,1.6,3.24,2.39,4.86A31.14,31.14,0,0,0,600.21,391.45Z" style="fill:#fff"></path><path d="M609.18,376.49a21.46,21.46,0,0,1-1.76,9.67c-.62,1.64-1.32,3.26-2,4.88a23.71,23.71,0,0,0-1.57,4.43,1.55,1.55,0,0,0,0,.21,5.79,5.79,0,0,0-.07,1.31s0,.07,0,.08a.7.7,0,0,1,0,.14s0,.05,0,0a.83.83,0,0,1-.07-.13h0a.11.11,0,0,1-.07-.09.13.13,0,0,1,0-.06l-.06-.13c-1.51-3.15-1.38-7.4-1.1-10.75a18.42,18.42,0,0,1,3.11-9.43c.51-.69,1.57-2.38,2.6-2.27S609.11,375.79,609.18,376.49Z" style="fill:#FFA52E"></path><path d="M607.21,377.78c-1-.22-1.81,2.43-2,3.07a35.87,35.87,0,0,0-1.37,6,31.72,31.72,0,0,0-.31,9.86h0a.49.49,0,0,1,0,.12l.06.13a.13.13,0,0,0,0,.06c0,.05,0,.07.07.09s0-.11,0-.16c.05-.42.11-.84.18-1.25a1.55,1.55,0,0,1,0-.21,66.5,66.5,0,0,1,2.37-8.43,33,33,0,0,0,1.37-5.94C607.66,380.58,608.05,378,607.21,377.78Zm.3,1.69c.11,3.47-1.32,7-2.36,10.22a36.18,36.18,0,0,0-1.63,6.7,33.54,33.54,0,0,1,.41-8.95,45.48,45.48,0,0,1,1-5,19.33,19.33,0,0,1,.88-2.63,8,8,0,0,1,.8-1.46C607.3,377.54,607.49,378.87,607.51,379.47Z" style="fill:#fff"></path><path d="M607.17,403.18a.19.19,0,0,1-.09.16l.07,0a.05.05,0,0,1,0,.07s0,.05-.06,0a30,30,0,0,1-11.29-4.75,15.49,15.49,0,0,1-3.54-3.64c-.66-1-2-2.9-1.61-4.15.77-2.52,6.23,2.57,7.05,3.34,1.49,1.4,2.87,2.93,4.34,4.36s3.32,3,5,4.45A.18.18,0,0,1,607.17,403.18Z" style="fill:#FFA52E"></path><path d="M607.17,403.18c-.2-.1-.38-.19-.57-.3a33.54,33.54,0,0,1-8.31-6.21,30.82,30.82,0,0,0-3.87-3.53c-.35-.25-1.61-1.27-1.74-.26-.07.53,1.75,2.83,2.28,3.39a21.75,21.75,0,0,0,4.06,3.29,35.4,35.4,0,0,0,7.92,3.79l.24.08a.05.05,0,0,0,0-.07l-.06,0A.21.21,0,0,0,607.17,403.18Zm-6.8-3a24.22,24.22,0,0,1-4.23-3,18.42,18.42,0,0,1-1.46-1.47,12.26,12.26,0,0,1-1-1.29c-.71-1.12-.81-1.46-.65-1.62s.34-.08,1.1.37a8.49,8.49,0,0,1,1.34,1.05c.6.54,1.17,1.1,1.74,1.68,1.15,1.13,2.28,2.29,3.5,3.34a26.07,26.07,0,0,0,5.77,3.8A40.43,40.43,0,0,1,600.37,400.16Z" style="fill:#fff"></path><path d="M611,392.47a9.85,9.85,0,0,1,.52,4.21c-.15,2.84-.9,5.6-1.25,8.41,0,.42-.09.84-.13,1.27,0,0,.09.56.07.53s-.08-.18-.2-.47h0a40.46,40.46,0,0,1-2.54-8.44,19.92,19.92,0,0,1,0-4.94c.11-.77.45-2.49,1.36-2.75S610.69,391.78,611,392.47Z" style="fill:#FFA52E"></path><path d="M609.22,392.49c-1.15,0-.83,5.15-.8,5.82a28.77,28.77,0,0,0,1.3,7.31c.08.27.17.53.26.8l.19.47s-.06-.48-.06-.53a1.8,1.8,0,0,0,0-.22c0-.35.07-.7.11-1,0-2,.1-3.94.09-5.9A27.42,27.42,0,0,0,610,395C610,394.65,609.72,392.48,609.22,392.49Zm.45,1.21c1,4,.24,8.15.31,12.24v.2l-.09-.31a32.62,32.62,0,0,1-1.17-6,33.48,33.48,0,0,1-.12-3.75,15.64,15.64,0,0,1,.1-2.05c0-.3.22-1.1.44-1.12S609.6,393.44,609.67,393.7Z" style="fill:#fff"></path><path d="M601.72,360.09c1.17,7.16-3.53,13.89-2.82,21.06v0c0,.22.05.43.08.65a.13.13,0,0,1-.16.15.08.08,0,0,1-.07-.08,1,1,0,0,1,0-.16,34.45,34.45,0,0,1-2.9-12,17.54,17.54,0,0,1,1.87-10.2c.43-.75,1.25-2.28,2.34-2.2S601.57,359.21,601.72,360.09Z" style="fill:#FFA52E"></path><path d="M599.68,361.75c-.46,0-.75.55-.92.86a10.78,10.78,0,0,0-1,2.45,18.2,18.2,0,0,0-.69,5.4,37.81,37.81,0,0,0,1.07,9.27c.18.68.38,1.36.62,2l.09.24a.14.14,0,0,0,.17-.15c0-.21-.06-.42-.09-.63a.13.13,0,0,0,0-.06,22.92,22.92,0,0,1-.32-4.31,53.6,53.6,0,0,1,.86-6.67C599.57,369.3,601.26,361.84,599.68,361.75Zm.45,1.54a24.91,24.91,0,0,1-.63,5.36c-.28,1.78-.58,3.56-.84,5.34a25.49,25.49,0,0,0-.25,4.28,20.1,20.1,0,0,0,.4,3.55,28.32,28.32,0,0,1-.85-3.41v0a50.54,50.54,0,0,1-.68-6.22v-.08a23,23,0,0,1,.26-5.5,13,13,0,0,1,.87-2.86c.47-1,1-1.82,1.31-1.7S600.1,362.76,600.13,363.29Z" style="fill:#fff"></path><path d="M597.45,372.13c.28,2.05.62,4.09,1,6.14l.48,2.88a.13.13,0,0,1,0,.06l.18,1a60,60,0,0,0,2,9.4,27.13,27.13,0,0,0,2.13,4.58l.26.45h0l.15.24.08.13c.75,1.26,1.56,2.48,2.35,3.66,1.11,1.65,2.32,3.21,3.55,4.76l.1.14.17.21.09.11.15.2,1.18,1.5-.51.33a39.26,39.26,0,0,1-3.79-4.52l-.07-.1c-.12-.15-.23-.31-.34-.47l-.41-.57c-.33-.47-.65-.94-1-1.4a41.31,41.31,0,0,1-4.73-8.62l-.09-.25a.49.49,0,0,1,0-.11l-.07-.18-.09-.3c-.06-.17-.11-.35-.16-.53l0-.16a63.09,63.09,0,0,1-1.57-8.6l-.21-1.56c0-.29-.07-.58-.11-.87l-.15-1.32v0c-.24-2.07-.43-4.15-.68-6.22C597.27,372.05,597.43,372,597.45,372.13Z" style="fill:#FFA52E"></path></g><g id="freepik--Sign--inject-460"><polygon points="661.09 143.53 651.2 155.35 620.41 164.3 620.41 144.82 651.2 135.11 661.09 143.53" style="fill:#455a64"></polygon><polygon points="651.2 135.11 648.18 134.6 618.25 143.96 618.6 164.3 620.41 164.3 620.41 144.82 651.2 135.11" style="fill:#37474f"></polygon><polygon points="685.76 182.52 675.39 191.75 619.92 188.99 620.89 169.54 676.37 172.29 685.76 182.52" style="fill:#FFA52E"></polygon><polygon points="676.37 172.29 679.11 173.92 687.96 183.38 676.37 193.6 620.32 190.67 619.92 188.99 675.39 191.75 685.76 182.52 676.37 172.29" style="fill:#FFA52E"></polygon><polygon points="676.37 172.29 679.11 173.92 687.96 183.38 676.37 193.6 620.32 190.67 619.92 188.99 675.39 191.75 685.76 182.52 676.37 172.29" style="opacity:0.1"></polygon><polygon points="552.24 169.48 562.88 178.4 618.25 173.97 616.69 154.56 561.32 158.98 552.24 169.48" style="fill:#263238"></polygon><polygon points="552.24 169.48 562.88 178.4 618.25 173.97 618.03 177.33 563.84 181.6 553.56 173.16 552.24 169.48" style="fill:#37474f"></polygon><path d="M625.34,408H610.15l3.53-280.64c.05-3.55,1.77-6.39,3.89-6.39h.35c2.11,0,3.84,2.84,3.88,6.39Z" style="fill:#FFA52E"></path><path d="M625.34,408H610.15l3.53-280.64c.05-3.55,1.77-6.39,3.89-6.39h.35c2.11,0,3.84,2.84,3.88,6.39Z" style="opacity:0.4"></path><g style="opacity:0.30000000000000004;mix-blend-mode:multiply"><path d="M616.39,131.72c-.32,10.29-.54,20.59-.73,30.88s-.35,20.6-.39,30.89,0,20.6.23,30.89l.24,7.72.36,7.71.56,7.7c.21,2.57.37,5.14.45,7.72.33,10.31-.15,20.62-.74,30.9S615,306.68,614.45,317c-1.14,20.56-1.58,41.2.14,61.73-.93-10.25-1.36-20.56-1.37-30.86s.36-20.6.91-30.88,1.26-20.57,1.83-30.85,1-20.57.66-30.85c-.07-2.57-.25-5.14-.45-7.7l-.54-7.71-.34-7.72-.22-7.73c-.2-10.3-.21-20.6-.14-30.9Q615.14,162.59,616.39,131.72Z"></path><path d="M617,125.78l.7,12.31.52,12.31q.46,12.33.72,24.65c.1,8.22.13,16.44,0,24.66s-.41,16.44-1.18,24.63l.37-6.16.22-6.15c.12-4.11.24-8.22.25-12.32.1-8.22,0-16.44-.15-24.65s-.3-16.43-.55-24.64l-.43-12.32Z"></path><path d="M615.16,348.75c.56-4,1.05-8,1.51-12s.93-8,1.34-12c.83-8,1.5-16.08,1.94-24.14.29-4,.43-8.06.61-12.09s.21-8.07.13-12.11l0-3c0-1-.08-2-.12-3-.11-2-.12-4-.32-6s-.32-4-.53-6l-.88-6A133.33,133.33,0,0,1,621,276.35c.1,4,0,8.08,0,12.12s-.26,8.08-.53,12.11c-.5,8.06-1.23,16.11-2.11,24.14S616.44,340.77,615.16,348.75Z"></path><path d="M620.6,211.09q-.68,7.14-1.2,14.28c-.33,4.76-.63,9.53-.66,14.3a44.18,44.18,0,0,0,.42,7.1,6,6,0,0,0,.49,1.63.54.54,0,0,0,.19.22s.07,0,.16-.09a2.56,2.56,0,0,0,.37-.72,17.94,17.94,0,0,0,.74-3.45,43.55,43.55,0,0,0,.31-7.13,38.63,38.63,0,0,0-.82-7.1,42,42,0,0,1,.89,14.27,16.91,16.91,0,0,1-.72,3.56,2.85,2.85,0,0,1-.45.86.6.6,0,0,1-.63.21.91.91,0,0,1-.42-.4,6.4,6.4,0,0,1-.55-1.78,44.48,44.48,0,0,1-.48-7.19c.06-4.79.37-9.56.77-14.32S620,215.82,620.6,211.09Z"></path><path d="M621.64,314.1c-.77,9.61-1.61,19.22-2.71,28.8-.27,2.39-.56,4.79-.89,7.18s-.79,4.76-1.1,7.14a88.86,88.86,0,0,0-.8,14.39,46,46,0,0,0,.72,7.14,11.31,11.31,0,0,0,1.14,3.33,2.15,2.15,0,0,0,1.19,1.06c.28.06.44.05.61-.15a2.16,2.16,0,0,0,.42-.71,15.82,15.82,0,0,0,.78-3.46c.15-1.19.25-2.39.33-3.58q.2-3.6.09-7.22a59.38,59.38,0,0,0-.57-7.18,17.67,17.67,0,0,0-.35-1.76,3.35,3.35,0,0,0-.72-1.53c-.18-.14-.42,0-.59.19a2.77,2.77,0,0,0-.38.77,9.93,9.93,0,0,0-.42,1.73,42,42,0,0,0-.46,7.19c0,1.2.06,2.4.17,3.6.06.6.13,1.2.23,1.79a4.5,4.5,0,0,0,.57,1.7,4.56,4.56,0,0,1-.6-1.69c-.11-.59-.2-1.19-.26-1.79-.13-1.2-.2-2.4-.24-3.61a41.66,41.66,0,0,1,.34-7.23,11,11,0,0,1,.42-1.78,3.06,3.06,0,0,1,.42-.85,1,1,0,0,1,.41-.32.6.6,0,0,1,.55.08,3.42,3.42,0,0,1,.83,1.68c.16.59.27,1.19.37,1.78a58.47,58.47,0,0,1,.63,7.22c.08,2.42.07,4.83-.06,7.25-.06,1.2-.15,2.41-.3,3.61a16.06,16.06,0,0,1-.79,3.58,2.71,2.71,0,0,1-.5.84.93.93,0,0,1-.49.3,1.2,1.2,0,0,1-.54,0,2.6,2.6,0,0,1-1.48-1.25,11.87,11.87,0,0,1-1.22-3.47,41.9,41.9,0,0,1-.73-7.23,91.87,91.87,0,0,1,.89-14.45c.33-2.4.83-4.75,1.14-7.14s.65-4.78.93-7.17Q620.29,328.51,621.64,314.1Z"></path><path d="M614.24,408c-.28-3.46-.54-6.91-.76-10.37l-.63-10.39-.52-10.39c-.16-3.46-.28-6.92-.38-10.39.28,3.46.54,6.92.76,10.38l.64,10.38.51,10.39C614,401,614.14,404.48,614.24,408Z"></path><path d="M618.24,408a28.18,28.18,0,0,0,.7-8.48,23.44,23.44,0,0,0-2-8.2,34.11,34.11,0,0,1-2.51-8.24,73.92,73.92,0,0,1-1.11-8.51c.32,2.84.82,5.66,1.41,8.45a36.77,36.77,0,0,0,2.62,8.11,21.67,21.67,0,0,1,2,8.37A23.94,23.94,0,0,1,618.24,408Z"></path><path d="M621.64,323.65q-.57,10.58-.25,21.15c.12,3.52.34,7,.79,10.53s1,7,1.31,10.51.58,7,.57,10.58a48.63,48.63,0,0,1-.91,10.56,60.29,60.29,0,0,0-1.71,10.41,100.54,100.54,0,0,0-.39,10.56,74.49,74.49,0,0,1,1.74-21.05,48.94,48.94,0,0,0,.8-10.48c-.06-3.52-.21-7-.52-10.55s-.72-7-1.22-10.5-.63-7-.73-10.56C620.93,337.75,621.17,330.69,621.64,323.65Z"></path><path d="M618.82,121.1q.52,6.38.9,12.75c.26,4.26.45,8.51.65,12.77s.29,8.52.35,12.78,0,8.53-.28,12.78c.08-2.13.08-4.26,0-6.39s-.08-4.26-.14-6.38c-.14-4.26-.28-8.52-.47-12.77Z"></path></g></g><g id="freepik--Airplane--inject-460"><g style="opacity:0.6000000000000001"><path d="M569.06,106.67s-277.95,88.87-293.21,62.85c-7.11-12.13,26.37-30.16,26.37-30.16S280,155.25,290.11,161.49C309.06,173.14,539,91.87,539,91.87Z" style="fill:#ebebeb"></path><path d="M332.61,175.85c8.38-1.08,16.71-2.49,25-4.14,4.15-.77,8.28-1.66,12.42-2.49l12.37-2.7c16.47-3.7,32.84-7.85,49.14-12.27,4.07-1.11,8.15-2.17,12.22-3.31l12.18-3.48,6.09-1.72,6.07-1.81,12.15-3.6,24.24-7.4c8.07-2.52,16.1-5.13,24.2-7.57-7.9,3-15.86,5.87-23.79,8.81-8,2.73-16,5.52-24,8.15-16.1,5.19-32.29,10.14-48.64,14.51l-6.13,1.65L419.94,160c-4.11,1-8.2,2.11-12.32,3.06l-12.37,2.84-12.43,2.61c-4.15.82-8.31,1.6-12.47,2.38S362,172.38,357.82,173l-6.28.9-6.3.8C341,175.17,336.83,175.64,332.61,175.85Z" style="fill:#ebebeb"></path><path d="M297.19,147.72a24.16,24.16,0,0,0-4.68,6.15c-.53,1.12-.83,2.41-.3,3.29a4.25,4.25,0,0,0,2.9,1.56,28.81,28.81,0,0,0,7.6.07c2.57-.24,5.14-.63,7.69-1.08,5.13-.88,10.22-2,15.32-3.15s10.2-2.35,15.32-3.49c-4.93,1.8-9.92,3.43-15,4.83s-10.16,2.64-15.35,3.56c-2.6.43-5.22.81-7.87,1-1.32.09-2.65.13-4,.1a19.31,19.31,0,0,1-4-.49,8.07,8.07,0,0,1-2-.76,3.83,3.83,0,0,1-1.63-1.61,3.53,3.53,0,0,1-.22-2.27,7,7,0,0,1,.78-2,17,17,0,0,1,2.49-3.14A23.72,23.72,0,0,1,297.19,147.72Z" style="fill:#ebebeb"></path></g><path d="M576.46,109c-.56-.65-8.42-6.14-9-6.55l1.35-.23S576,108.3,576.46,109Z" style="fill:#FFA52E"></path><path d="M576.46,109c-.56-.65-8.42-6.14-9-6.55l1.35-.23S576,108.3,576.46,109Z" style="fill:#fff;opacity:0.5"></path><path d="M576.49,109h0a0,0,0,0,1,0,0c-.06.14-.6.26-1.2.34h0a5.07,5.07,0,0,1-1.69,0c-.16-.12-5.83-3-9.3-4.69a.61.61,0,0,1-.14-.07h0l-.49-.25-1.43-.71-.56-.28,5.83-1c.34.23,3,2.08,5.34,3.77l.24.17.64.47a30.61,30.61,0,0,1,2.79,2.14s0,0,0,0Z" style="fill:#FFA52E"></path><g style="opacity:0.1"><path d="M576.49,109h0a0,0,0,0,1,0,0c-.06.14-.6.26-1.2.34h0a5.07,5.07,0,0,1-1.69,0c-.17-.12-6-3-9.44-4.76.57.28,8,3.87,9.54,2.16a30.61,30.61,0,0,1,2.79,2.14s0,0,0,0Z"></path></g><path d="M653.34,115.43h0c0,.78-4.3,1-4.89.87S601,97.7,601,97.7l17.22-6.82.49.35.22.15c3.18,2.2,12.65,8.77,20.93,14.55l.49.34.65.46C646.76,110.73,651.74,114.23,653.34,115.43Z" style="fill:#FFA52E"></path><path d="M653.34,115.43c-4.19-3.13-31.52-22.07-35.1-24.55l2.18-.86s31.84,24.21,32.8,25.18A.35.35,0,0,1,653.34,115.43Z" style="fill:#FFA52E"></path><path d="M653.34,115.43c-4.19-3.13-31.52-22.07-35.1-24.55l2.18-.86s31.84,24.21,32.8,25.18A.35.35,0,0,1,653.34,115.43Z" style="fill:#fff;opacity:0.5"></path><g style="opacity:0.5"><path d="M653.34,115.43h0c0,.78-4.3,1-4.89.87S601,97.7,601,97.7l17.22-6.82s-4.26,4.87,5.84,12.36c6.89,5.11,14.22,6.17,16.94,3.49C646.76,110.73,651.74,114.23,653.34,115.43Z" style="opacity:0.1"></path></g><path d="M614.32,103.74c-1.33.65-2.78,1.15-2.88-.18,0-.55.38-1.14,2.52-2.17.5-.24,1.73-.77,2.09.34S614.82,103.5,614.32,103.74Z" style="fill:#FFA52E"></path><path d="M614.32,103.74c-1.33.65-2.78,1.15-2.88-.18,0-.55.38-1.14,2.52-2.17.5-.24,1.73-.77,2.09.34S614.82,103.5,614.32,103.74Z" style="opacity:0.1"></path><path d="M625.18,108.18c-1.33.65-2.78,1.16-2.88-.18,0-.55.38-1.13,2.52-2.16.5-.24,1.72-.78,2.08.33S625.68,107.94,625.18,108.18Z" style="fill:#FFA52E"></path><path d="M625.18,108.18c-1.33.65-2.78,1.16-2.88-.18,0-.55.38-1.13,2.52-2.16.5-.24,1.72-.78,2.08.33S625.68,107.94,625.18,108.18Z" style="opacity:0.1"></path><path d="M636,112.63c-1.33.64-2.77,1.15-2.88-.19,0-.54.38-1.13,2.52-2.16.5-.24,1.73-.78,2.09.33S636.53,112.38,636,112.63Z" style="fill:#FFA52E"></path><path d="M636,112.63c-1.33.64-2.77,1.15-2.88-.19,0-.54.38-1.13,2.52-2.16.5-.24,1.73-.78,2.09.33S636.53,112.38,636,112.63Z" style="opacity:0.1"></path><path d="M632.48,101c-1.3,2.33-4.27,3.17-6.15,3.92-5,2-8.61,3.12-10.4-1.42a5.67,5.67,0,0,1-.4-1.64c-.29-3.42,3.25-5.13,5.05-6.07h0c2.17-1.15,3.71-1.89,4.85-2.37a8.8,8.8,0,0,1,3.55-.91c1,0,3.29.22,4,4.4A5.88,5.88,0,0,1,632.48,101Z" style="fill:#FFA52E"></path><path d="M632.54,97.7c0,2.55-1.59,4.61-3.55,4.61s-3.56-2.06-3.56-4.61S627,93.09,629,93.09,632.54,95.16,632.54,97.7Z" style="fill:#263238"></path><path d="M632.13,97.7c0,2.25-1.41,4.08-3.14,4.08s-3.15-1.83-3.15-4.08,1.41-4.07,3.15-4.07S632.13,95.45,632.13,97.7Z" style="fill:#455a64"></path><path d="M558,96.48l-.83.3-1.85.68-6.42-2.77c-6.22-2.67-13.58-5.81-15-6.29l.18,0,.16.06.21.07.13,0,.49.15.5.17,1.41.46.48.16.46.16.24.08.77.25.51.17,6.6,2.22.63.21,2.46.84,4.24,1.43.6.2,1.85.63h0l.48.16.22.07.11,0Z" style="fill:#FFA52E"></path><path d="M558,96.48l-.83.3-1.85.68-6.42-2.77c-6.22-2.67-13.58-5.81-15-6.29l.18,0,.16.06.21.07.13,0,.49.15.5.17,1.41.46.48.16.46.16.24.08.77.25.51.17,6.6,2.22.63.21,2.46.84,4.24,1.43.6.2,1.85.63h0l.48.16.22.07.11,0Z" style="fill:#fff;opacity:0.5"></path><path d="M555.32,97.46l-5,1.81s-11.11-5.15-17.73-8.38l-.07,0-.09,0-1.9-.93a15.85,15.85,0,0,1-2.76-1.52c.18-.37,4.31-.46,6,0h0l.11,0c1.37.46,8.28,3.41,14.36,6l.14.06.49.21Z" style="fill:#FFA52E"></path><g style="opacity:0.1"><path d="M555.32,97.46l-5,1.81s-11.11-5.15-17.73-8.38c1.1.46,12.33,5.41,15.11,4.73a1.61,1.61,0,0,0,1.17-.93Z"></path></g><path d="M568.11,90.37l-12.06,5.8s.12-10.34.21-17.78c0-.25,0-.51,0-.76s0-.4,0-.6c0-2.55.06-4.6.07-5.53,0-3,.37-3.6,1.16-3.12a37.23,37.23,0,0,1,5.38,4.92c.87,1.12,2.79,7.91,4,12.58a.53.53,0,0,1,0,.12c.08.27.15.53.22.79C567.73,88.89,568.11,90.37,568.11,90.37Z" style="fill:#FFA52E"></path><g style="opacity:0.1"><path d="M568.11,90.37l-12.06,5.8s.12-10.34.21-17.78c1.78,4,5.29,9.38,10.92,8.4C567.73,88.89,568.11,90.37,568.11,90.37Z"></path></g><path d="M547.62,102.5c-1.24-3.11,4-5.93,10-8.61s65-28.71,73.53-31,18.51.86,20.19,5.74c2.53,7.33-8.11,13.47-46.33,29.32-5,2.07-27.41,7.45-40,7.49C551.56,105.46,548.23,104,547.62,102.5Z" style="fill:#FFA52E"></path><path d="M547.62,102.5c-1.24-3.11,4-5.93,10-8.61s65-28.71,73.53-31,18.51.86,20.19,5.74c2.53,7.33-8.11,13.47-46.33,29.32-5,2.07-27.41,7.45-40,7.49C551.56,105.46,548.23,104,547.62,102.5Z" style="fill:#fff;opacity:0.5"></path><path d="M605,97.92c-5,2.07-27.41,7.45-40,7.49-13.47,0-16.8-1.38-17.41-2.91s.48-3.17,2.57-4.66a2,2,0,0,0,.16.91c.56,1.39,3.58,2.69,15.79,2.65,11.43,0,27.87-9.29,32.42-11.18C633.23,75.84,646.78,74.65,644.48,68c-1-2.9-5.2-5.13-10.16-5.75,7.69-.92,15.56,2.06,17,6.35C653.89,75.93,643.25,82.07,605,97.92Z" style="opacity:0.1"></path><polygon points="566.32 92.26 567.68 91.67 567.68 93.67 566.32 94.25 566.32 92.26" style="fill:#455a64"></polygon><polygon points="568.79 91.19 570.24 90.56 570.24 92.56 568.79 93.18 568.79 91.19" style="fill:#455a64"></polygon><polygon points="571.36 90.08 572.81 89.45 572.81 91.44 571.36 92.07 571.36 90.08" style="fill:#455a64"></polygon><polygon points="573.92 88.97 575.37 88.34 575.37 90.33 573.92 90.96 573.92 88.97" style="fill:#455a64"></polygon><polygon points="576.49 87.86 577.94 87.23 577.94 89.22 576.49 89.85 576.49 87.86" style="fill:#455a64"></polygon><polygon points="579.06 86.75 580.5 86.12 580.5 88.11 579.06 88.74 579.06 86.75" style="fill:#455a64"></polygon><polygon points="581.62 85.64 583.07 85.01 583.07 87 581.62 87.63 581.62 85.64" style="fill:#455a64"></polygon><polygon points="584.19 84.53 585.63 83.9 585.63 85.89 584.19 86.52 584.19 84.53" style="fill:#455a64"></polygon><polygon points="586.75 83.42 588.2 82.79 588.2 84.78 586.75 85.41 586.75 83.42" style="fill:#455a64"></polygon><polygon points="589.32 82.31 590.76 81.68 590.76 83.67 589.32 84.3 589.32 82.31" style="fill:#455a64"></polygon><polygon points="591.88 81.2 593.33 80.57 593.33 82.56 591.88 83.19 591.88 81.2" style="fill:#455a64"></polygon><polygon points="594.45 80.08 595.89 79.46 595.89 81.45 594.45 82.08 594.45 80.08" style="fill:#455a64"></polygon><polygon points="597.01 78.97 598.46 78.35 598.46 80.34 597.01 80.97 597.01 78.97" style="fill:#455a64"></polygon><polygon points="599.58 77.86 601.02 77.24 601.02 79.23 599.58 79.86 599.58 77.86" style="fill:#455a64"></polygon><polygon points="602.14 76.75 603.59 76.13 603.59 78.12 602.14 78.75 602.14 76.75" style="fill:#455a64"></polygon><polygon points="604.71 75.64 606.15 75.02 606.15 77.01 604.71 77.64 604.71 75.64" style="fill:#455a64"></polygon><polygon points="607.27 74.53 608.72 73.91 608.72 75.9 607.27 76.53 607.27 74.53" style="fill:#455a64"></polygon><polygon points="609.84 73.42 611.28 72.8 611.28 74.79 609.84 75.42 609.84 73.42" style="fill:#455a64"></polygon><polygon points="612.4 72.31 613.85 71.69 613.85 73.68 612.4 74.31 612.4 72.31" style="fill:#455a64"></polygon><polygon points="614.97 71.2 616.41 70.58 616.41 72.57 614.97 73.2 614.97 71.2" style="fill:#455a64"></polygon><polygon points="617.53 70.09 618.98 69.47 618.98 71.46 617.53 72.09 617.53 70.09" style="fill:#455a64"></polygon><polygon points="621.54 68.36 621.54 70.35 620.1 70.97 620.1 68.98 621.54 68.36" style="fill:#455a64"></polygon><polygon points="624.11 67.25 624.11 69.24 622.66 69.86 622.66 67.87 624.11 67.25" style="fill:#455a64"></polygon><polygon points="626.68 66.14 626.68 68.13 625.23 68.75 625.23 66.76 626.68 66.14" style="fill:#455a64"></polygon><polygon points="629.24 65.02 629.24 67.02 627.79 67.64 627.79 65.65 629.24 65.02" style="fill:#455a64"></polygon><path d="M636,64.21A7,7,0,0,1,638.64,63v1.32Z" style="fill:#455a64"></path><path d="M641.78,62.64v1.83c-.67-.06-1.34-.1-2-.13v-1.6A10.63,10.63,0,0,1,641.78,62.64Z" style="fill:#455a64"></path><path d="M648.24,65.23c-.57,0-1.09-.12-1.61-.18s-1-.15-1.54-.2c-.74-.11-1.47-.19-2.19-.26V62.76a10.3,10.3,0,0,1,2.57.7,9.69,9.69,0,0,1,1.47.75,5.91,5.91,0,0,1,.67.48A6.42,6.42,0,0,1,648.24,65.23Z" style="fill:#455a64"></path><path d="M602.14,81.47l-17,8.18s-27-14.49-46.42-25.07l0,0h0c-10.35-5.65-18.25-10-18.12-10.21.32-.44,5.53-.39,7.59-.11a3.94,3.94,0,0,1,.59.11c.87.24,31.45,11.56,52.86,19.5Z" style="fill:#FFA52E"></path><g style="opacity:0.1"><path d="M602.14,81.47l-17,8.18s-27-14.49-46.42-25.07c1.52.76,36.29,18.28,40.83,15.65,1.71-1,2.16-3.55,2-6.39Z"></path></g><path d="M604.62,80.35l-5,2.43c-12.91-5.42-66.64-26.66-71.14-28.44l-.14-.06-.11,0,0,0a3.94,3.94,0,0,1,.59.11C530.08,54.71,604.62,80.35,604.62,80.35Z" style="fill:#FFA52E"></path><path d="M604.62,80.35l-5,2.43c-12.91-5.42-66.64-26.66-71.14-28.44l-.14-.06-.11,0,0,0a3.94,3.94,0,0,1,.59.11C530.08,54.71,604.62,80.35,604.62,80.35Z" style="fill:#fff;opacity:0.5"></path><path d="M568.21,80.74c-1.66.81-3.47,1.44-3.6-.23-.05-.68.48-1.42,3.15-2.7.63-.31,2.16-1,2.61.41S568.84,80.44,568.21,80.74Z" style="fill:#FFA52E"></path><path d="M568.21,80.74c-1.66.81-3.47,1.44-3.6-.23-.05-.68.48-1.42,3.15-2.7.63-.31,2.16-1,2.61.41S568.84,80.44,568.21,80.74Z" style="opacity:0.1"></path><path d="M553.82,73.47c-1.66.81-3.47,1.44-3.6-.23-.05-.68.48-1.41,3.16-2.7.62-.3,2.15-1,2.6.42S554.45,73.17,553.82,73.47Z" style="fill:#FFA52E"></path><path d="M553.82,73.47c-1.66.81-3.47,1.44-3.6-.23-.05-.68.48-1.41,3.16-2.7.62-.3,2.15-1,2.6.42S554.45,73.17,553.82,73.47Z" style="opacity:0.1"></path><path d="M539.39,66.12c-1.55.75-3.23,1.34-3.35-.22,0-.63.44-1.32,2.93-2.52.59-.28,2-.9,2.43.39S540,65.83,539.39,66.12Z" style="fill:#FFA52E"></path><path d="M539.39,66.12c-1.55.75-3.23,1.34-3.35-.22,0-.63.44-1.32,2.93-2.52.59-.28,2-.9,2.43.39S540,65.83,539.39,66.12Z" style="opacity:0.1"></path><path d="M589.68,79.09c-1.31,2.33-4.28,3.17-6.16,3.92-5,2-8.61,3.12-10.4-1.42a5.63,5.63,0,0,1-.39-1.64c-.3-3.42,3.24-5.13,5-6.07h0c2.17-1.15,3.71-1.89,4.85-2.37a8.83,8.83,0,0,1,3.56-.91c1,0,3.28.22,4,4.4A5.94,5.94,0,0,1,589.68,79.09Z" style="fill:#FFA52E"></path><path d="M589.74,75.84c0,2.55-1.6,4.61-3.56,4.61s-3.56-2.06-3.56-4.61,1.59-4.61,3.56-4.61S589.74,73.3,589.74,75.84Z" style="fill:#263238"></path><path d="M589.32,75.84c0,2.25-1.4,4.08-3.14,4.08S583,78.09,583,75.84s1.4-4.07,3.14-4.07S589.32,73.59,589.32,75.84Z" style="fill:#455a64"></path><path d="M535.58,88.94l-.5-.17Z" style="fill:#FFA52E"></path></g><g id="freepik--Globe--inject-460"><path d="M526.05,231.21A150.35,150.35,0,0,1,497.2,320v0A151.07,151.07,0,1,1,375,80.16q6.21,0,12.31.49a150.86,150.86,0,0,1,106.43,57.19,147.92,147.92,0,0,1,9.43,13.4A150.34,150.34,0,0,1,526.05,231.21Z" style="fill:#455a64"></path><g style="opacity:0.2"><path d="M407.62,302.5c-1.91,5.08,1.27,5.29,1.48,7.41s0,6.13-6.14,12.27-16.29,4.86-18.4,7.4-5.71,13.33-10.79,16.93-5.92,1.48-13.12,3S348,360.26,345.84,364.7s.43,11.85-4.65,12.06-7.41-10.79-12.06-16.71-6.13-11.22-7.62-18.2.85-21.58,0-27.29-16.07-15.86-21.57-22.85-13.12-20.94-12.7-25.59a19,19,0,0,1,6.35-11.64c2.54-1.9,1.48-3,1.9-4.65s2.54-2.12,3-4.23-1.26-8.47-3.38-9.53-3.6,2.54-4.87,1.91-5.07-5.08-6.55-5.5-1.06,2.75-3.18-1.27-3.17-14.18-4.86-15.87-3,3-7,0-5.72-8.67-7.41-9.52-4,.21-5.76-3.17,1.53-9.52,0-8.89-4.82,5.5-5.66.85,4.23-20.31,3.38-28.77,2.12-17.35,8-24.54c0,0,.85-4.66,1.69-7.62s19-14.81,21.16-18.19c.88-1.42,1.18-3.63,1.49-6A150.36,150.36,0,0,1,375,80.16q6.21,0,12.31.49c.14.2.28.38.42.57,1.83,2.32,3.81,3.8,9.17,5.78s6.63,4.51,5.5,6.63-3,2.53-5.08,2.68-4.09-1-6.34.42-4.52,9-7.48,9.45-8.18-6.77-9.31-8.89,2.54-6.63.81-8.74-4.76-1.69-9.55-2.12-15.94,1.42-15.52,3.25,16.36-.29,16.79,3.38-11.71,9.87-13.82,9.31-4.94-4.23-8-4.65-5.65,2.11-7.6,2.4S333,98,330.05,98.56s-3.67,3.1-5.22,4.09-5.22,1-5.64,3.25,4.65,3.52,5.92,4.93-1.55,6.21-.28,7.2S334,112.1,336,110.41s3.67-9,7.9-8.89,5.64,7.34,7.05,8,4.52-1.69,9.17-.7S368,120,368.83,123.1s2.82,6.21,1.13,7.48-9.31-.85-10.29-2.82,5.07-4.94,4.65-5.64-3.95-1.69-5.78-.59-2.68,3.41-4.66,4-7.19-5.36-8.6-3.67,1.41,7.06,2.82,8.33,6.63,2,7,3.38-3.52,4.51-8.32,4.23-8.74-4-10.58-2.4-.84,5.64-2.11,7.06-8.18.42-11.57,4.08-4.94,9.17-8.32,12.27-4.93-.84-9.45,3.53-5.22,14.11-5.36,17.49,0,6.06-1.12,5.64-2.69-3.38-3.11-5.22,1-4.93,1-6.06-6.49-6.91-10.3-7.48-7.19,2.54-10,4.8-7.9,1.83-9.73,3.67-3.25,18-1.84,21.86,3.25,3.81,7.76,1.83,2-5.78,4.66-4.94a6.31,6.31,0,0,1,4.08,5.93c0,2.26-5.35,7.61-4.65,9.17s5.36-.29,7.62.42,3.38,2.11,2.68,7.9-.29,10.29,3.1,12.2,5.29-2.75,6.77-2.12,3.6,4,5.71,3.81,1.06-2.12,5.08-3.39,2.54-2.11,3.38-4.65,3.39-4.65,6.14-3.38.84,3.17,1.06,5.28,5.07,2.33,8.88,3.6,5.93,0,13.54,2.54,8,10.15,11.21,11.42,13.76-.84,21.37,4.66,5.5,15.65,9.31,18.61,18,7,23.48,8,6.35-2.75,10.79-1.69,7,2.33,8.46,8.46C426.06,286.11,409.52,297.43,407.62,302.5Z"></path><path d="M293.94,194.33c.14,1.19,3.67,1.69,7.9,4.09s5.78,9.45,8,9.31,1.55-3.39,2.4-4.23,2.25-2.68,0-4.52-4.46-5.78-8.58-6.34-4.82-2.26-6.66-2.12A3.19,3.19,0,0,0,293.94,194.33Z"></path><path d="M317.21,206.17c-.63,1.73,0,3,4.52,4.1s8.74-1.13,7.33-2.05-3.53-.49-2.68-2.05.56-3.8-3.11-3.38S317.78,204.62,317.21,206.17Z"></path><path d="M333,206.66c-1.54.22-2.4,2.9-.85,4.59s1.55,1.41,3.39,0,4.65-2.11,3.95-3.52S334.56,206.43,333,206.66Z"></path><path d="M345.28,212.42c.69-2.12,4.23,0,5.78,2.22s.85,5.5,0,7.9-1.41,5.21-3.38,4.09.14-4.52-.14-6.49S344.72,214.15,345.28,212.42Z"></path><path d="M406.07,94.76c-.74,1.77,2.68,2.39,4.65,3.52s3.53,1.83,4.65,0-.42-4-2-4.37S406.77,93.06,406.07,94.76Z"></path><path d="M432.72,111.26c1.3,1.37,3.53,1.12,5.08,3.1s1,5.36,3,6.35,3.39,0,3.53-1.41-2.82-4.94-2.54-5.65,4.09,1,4.94,3.11-.85,5.07,1.12,5.64,1.55-2,2.4-2.54,2.68-.28,2.54-2-2.4-5.36-4.23-6.63-3.25-2.68-6.35-3.39-6.06-.14-7.61,1.13S431.92,110.41,432.72,111.26Z"></path><path d="M493.74,137.84a2.48,2.48,0,0,1-.79,1.48c-3,2.12-6.49-5.22-10.58-6.62s-5.92-6.63-6.77-5.5-.57,2.67-1.84,4.51-3.1,1.41-3.94,4.93,3.94,10,2.82,12.13-2.54,1.41-4.8,1.27-1.83,1.84-4.79,1-.43-4.52-5.08-8.89-6.21-5.21-5.21-7.19-.43-4.79,1.68-5.08,3.81,2.83,5.22,3.67,3.25-1.69,3.39-3.95-4.94-5.36-6.77-7.11-2-8.12-1.27-9.39,2.82-.85,3.38-4c.33-1.82-2.55-4.87-5-7.07A151.62,151.62,0,0,1,493.74,137.84Z"></path><path d="M514.81,264.28c.42-4.51-1.84-4.79.42-13.11s-2.4-17.21-4.09-19-5.36-1.27-8.32.56-.85,3.25-2.82,3.95-3.95-.43-5.78-.28-3.53,4.79-7.48,4.65-6.49-5.78-9.45-9.8-9-6.56-11-11.5,1.83-12.55,1-18.33-4.66-4.52-5.36-7.76.56-1.69,1.55-4.79-1.13-4.8.85-10.16,5.5-8,4.65-10.43-3.53-6.35-3.67-9.16,2.68-2.69,8-6.64,6.77-3.67,10.86-2.26a57.94,57.94,0,0,0,9,2.54c2.4.42,5.64,6.63,6.63,6.35s1.13-2.12,1.55-4.8a6,6,0,0,1,1.76-3,151.14,151.14,0,0,1-6,168.77C511.59,298.05,514.38,268.79,514.81,264.28Z"></path></g><path d="M492,326.72A151.06,151.06,0,1,1,375,80.16q6.22,0,12.31.49c1.13.09,2.25.19,3.37.32A138.41,138.41,0,1,0,492,326.72Z" style="opacity:0.1"></path><path d="M526.05,231.21A150.28,150.28,0,0,1,497.2,320v0a151.66,151.66,0,0,1-54.25,46.12,152.58,152.58,0,0,0,47.64-42.68l0,0A151.93,151.93,0,0,0,380.06,82.7q-6.12-.49-12.38-.5a152.35,152.35,0,0,0-36.48,4.41A150.77,150.77,0,0,1,375,80.16q6.22,0,12.31.49a150.86,150.86,0,0,1,106.43,57.19,147.92,147.92,0,0,1,9.43,13.4A150.34,150.34,0,0,1,526.05,231.21Z" style="fill:#fff;opacity:0.30000000000000004"></path></g><g id="freepik--Locations--inject-460"><path d="M368.74,332.42c-.3-2.92-2.31-5.83-5.85-5.83s-5.55,2.91-5.84,5.83c-.45,4.51,2.59,8.6,5.84,12.33C366.14,341,369.18,336.93,368.74,332.42Zm-5.85,3.25a3.21,3.21,0,1,1,3.2-3.21A3.21,3.21,0,0,1,362.89,335.67Z" style="fill:#FFA52E"></path><path d="M422.14,275.41c-.29-2.93-2.31-5.84-5.85-5.84s-5.55,2.91-5.84,5.84c-.45,4.51,2.6,8.6,5.84,12.32C419.54,284,422.59,279.92,422.14,275.41Zm-5.85,3.24a3.2,3.2,0,1,1,3.21-3.2A3.2,3.2,0,0,1,416.29,278.65Z" style="fill:#FFA52E"></path><path d="M279.11,173.14c-.29-2.93-2.3-5.84-5.85-5.84s-5.55,2.91-5.84,5.84c-.44,4.51,2.6,8.59,5.84,12.32C276.51,181.73,279.56,177.65,279.11,173.14Zm-5.85,3.24a3.2,3.2,0,1,1,3.21-3.2A3.2,3.2,0,0,1,273.26,176.38Z" style="fill:#FFA52E"></path><path d="M322.85,232.79c-.29-2.92-2.3-5.83-5.84-5.83s-5.56,2.91-5.85,5.83c-.44,4.52,2.6,8.6,5.85,12.33C320.25,241.39,323.3,237.31,322.85,232.79ZM317,236a3.2,3.2,0,1,1,3.2-3.2A3.21,3.21,0,0,1,317,236Z" style="fill:#FFA52E"></path><path d="M486.74,161c-.29-2.92-2.31-5.83-5.85-5.83s-5.55,2.91-5.84,5.83c-.45,4.51,2.6,8.6,5.84,12.33C484.14,169.59,487.18,165.5,486.74,161Zm-5.85,3.25a3.2,3.2,0,1,1,3.21-3.2A3.2,3.2,0,0,1,480.89,164.24Z" style="fill:#FFA52E"></path><path d="M523.52,221.09c-.29-2.92-2.31-5.83-5.85-5.83s-5.55,2.91-5.84,5.83c-.45,4.51,2.6,8.6,5.84,12.33C520.92,229.69,524,225.6,523.52,221.09Zm-5.85,3.25a3.2,3.2,0,1,1,3.21-3.2A3.2,3.2,0,0,1,517.67,224.34Z" style="fill:#FFA52E"></path><path d="M309.55,122.3c-.3-2.92-2.31-5.83-5.85-5.83s-5.55,2.91-5.84,5.83c-.45,4.51,2.59,8.6,5.84,12.33C307,130.9,310,126.81,309.55,122.3Zm-5.85,3.25a3.2,3.2,0,1,1,3.2-3.2A3.2,3.2,0,0,1,303.7,125.55Z" style="fill:#FFA52E"></path></g><g id="freepik--Character--inject-460"><path d="M261.53,98.35c4.85-2.91,10.37-3.66,16-.64s10.36,8.15,8.08,17.91c-1.84,7.92-5.17,14.69-7.79,23.35s1.1,32.93-18.43,38.08c-17.55,4.63-44.75-13.2-39.83-32.5,3.91-15.3,26.87-23.38,30.68-28.73S256.22,101.55,261.53,98.35Z" style="fill:#263238"></path><path d="M256.5,104.8a31.64,31.64,0,0,1-6.67,11.87,12.77,12.77,0,0,1-2.84,2.24c-1,.62-2.1,1.18-3.16,1.74-2.14,1.09-4.26,2.18-6.3,3.36a44.75,44.75,0,0,0-10.95,8.41A32.08,32.08,0,0,0,219.75,144a27.41,27.41,0,0,1,2.18-6.43,30.3,30.3,0,0,1,3.77-5.75,40,40,0,0,1,11-8.86c2.08-1.19,4.25-2.27,6.39-3.34A22.77,22.77,0,0,0,249,116a26.12,26.12,0,0,0,4.23-5.25A50,50,0,0,0,256.5,104.8Z" style="fill:#263238"></path><path d="M284,120.92c-1.46,4.44-3.12,8.8-4.3,13.29a48.24,48.24,0,0,0-1.3,6.84,68.91,68.91,0,0,0-.13,7.07c0,2.4-.09,4.79-.32,7.16a34,34,0,0,1-1.5,6.95,21.42,21.42,0,0,1-3.49,6.21,17.19,17.19,0,0,1-6.14,4.24,17.41,17.41,0,0,0,5.49-4.66,20.41,20.41,0,0,0,3-6.18,51.35,51.35,0,0,0,1.44-13.91,61.7,61.7,0,0,1,.21-7.18,39,39,0,0,1,1.61-6.91A94,94,0,0,1,284,120.92Z" style="fill:#263238"></path><path d="M326.82,431.28c-2.38.26-65.64-13.65-67.71-15.71-.8-.77.68-10.1,2.81-21.33l.07-.36c.43-2.31,11.44-40.37,11.44-40.37l42.35,9.17L302.9,402.4l-.16.69s21.83,16.15,23.87,18.66S329.19,431,326.82,431.28Z" style="fill:#c95f50"></path><path d="M259.11,415.57c2.07,2.07,65.33,16,67.71,15.71s1.82-7-.21-9.53-23.88-18.67-23.88-18.67l.18-.68,1.47-4.54-41-9.31c-.45,1.64-1.36,5-1.42,5.34,0,.11-.05.23-.08.35C259.8,405.47,258.3,414.8,259.11,415.57Z" style="fill:#ebebeb"></path><path d="M326.82,431.27c-1.22.14-18.44-3.46-35.22-7.27-3.37-.77-6.72-1.54-9.92-2.29-11.94-2.81-21.77-5.35-22.57-6.14s.65-9.84,2.73-20.87c0-.15.05-.31.08-.46s.05-.25.07-.36H262l40.86,8.5-.16.7s21.84,16.15,23.88,18.65S329.19,431,326.82,431.27Z" style="fill:#FFA52E"></path><path d="M326.64,428.67C316,426.06,273,416.55,262.32,414.78c-.09,0-.1.05,0,.07,10.45,2.81,53.56,12,64.29,14C326.83,428.88,326.87,428.72,326.64,428.67Z" style="fill:#263238"></path><path d="M307.42,403.51c-4-1.7-9.3-2.19-13.16.1-.15.09,0,.3.12.29a59.92,59.92,0,0,1,12.91.14A.28.28,0,0,0,307.42,403.51Z" style="fill:#263238"></path><path d="M310.05,406c-4-1.7-9.3-2.18-13.16.1-.15.09,0,.3.12.29a59.92,59.92,0,0,1,12.91.14A.28.28,0,0,0,310.05,406Z" style="fill:#263238"></path><path d="M312.68,408.5c-4-1.71-9.3-2.19-13.16.09-.15.09,0,.3.12.29a60.57,60.57,0,0,1,12.91.14A.27.27,0,0,0,312.68,408.5Z" style="fill:#263238"></path><path d="M309.73,396.15l-45.94-11.28s16.17-74.16,15.8-76.06c-.47-2.44-39.69-114.41-39.69-114.41h39.54S323.07,300.71,324.32,311C326.34,327.73,309.73,396.15,309.73,396.15Z" style="fill:#263238"></path><path d="M309.12,386.06c-8-2.59-37.42-9.51-40.71-9.74-.07,0-.1.11,0,.14,3,1.28,28.31,7.6,40.69,9.8A.1.1,0,0,0,309.12,386.06Z" style="fill:#37474f"></path><path d="M287,311.12a49.69,49.69,0,0,0-2.48-8.06q-5.83-17-11.77-33.93c-3.94-11.24-7.91-22.47-12-33.66s-8.28-22.47-12.45-33.69c-.52-1.41-1.08-2.8-1.62-4.19,0-.12-.22-.07-.18,0,3.89,11.19,7.87,22.35,11.82,33.53s7.84,22.37,11.76,33.55,7.8,22.39,11.63,33.61q1.45,4.25,2.89,8.5c.93,2.74,1.64,5.31,1.22,8.23s-1.11,5.82-1.68,8.71-1.14,5.81-1.7,8.71c-2.28,11.73-4.55,23.45-6.66,35.21-.26,1.49-.51,3-.73,4.48,0,.1.14.15.17,0,1.48-5.83,2.6-11.77,3.84-17.66s2.44-11.8,3.63-17.71,2.36-11.7,3.53-17.56C286.77,316.6,287.45,313.87,287,311.12Z" style="fill:#37474f"></path><path d="M279.06,194.4l-16.49,64.91C251.8,228.38,239.9,194.4,239.9,194.4Z" style="fill:#37474f"></path><path d="M283.59,448c-2.28.72-67-.47-69.48-2.09-.94-.59-1.31-10-1.44-21.47v-.36c0-2.35,1.29-41.84,1.29-41.84l42.34.66-1.84,41.48,0,.71s24.59,11.55,27.08,13.6S285.86,447.25,283.59,448Z" style="fill:#c95f50"></path><path d="M212.63,419.53c0,1.53,0,3,0,4.53v.35c.12,11.43.5,20.88,1.44,21.47,2.43,1.62,67.2,2.81,69.48,2.09s.4-7.26-2.08-9.31-27.08-13.59-27.08-13.59l0-.72.19-4.41Z" style="fill:#ebebeb"></path><path d="M283.59,448c-2.28.72-67-.47-69.48-2.09-.94-.59-1.31-10-1.44-21.47v-.36l41.79.3,0,.71s24.59,11.55,27.08,13.6S285.86,447.25,283.59,448Z" style="fill:#FFA52E"></path><path d="M282.9,445.44c-10.91-.47-55-1.33-65.79-1-.09,0-.09.06,0,.07,10.81.7,54.88,1.2,65.8,1.07C283.13,445.62,283.13,445.45,282.9,445.44Z" style="fill:#263238"></path><path d="M259.11,424.56c-4.28-.88-9.55-.32-12.89,2.68-.13.12,0,.3.18.26a60.66,60.66,0,0,1,12.68-2.4A.27.27,0,0,0,259.11,424.56Z" style="fill:#263238"></path><path d="M262.18,426.48c-4.28-.88-9.55-.31-12.89,2.69-.13.11,0,.3.18.25A60.52,60.52,0,0,1,262.15,427,.28.28,0,0,0,262.18,426.48Z" style="fill:#263238"></path><path d="M265.24,428.41c-4.28-.88-9.54-.32-12.88,2.68-.13.12,0,.3.17.26a60.75,60.75,0,0,1,12.69-2.4A.27.27,0,0,0,265.24,428.41Z" style="fill:#263238"></path><path d="M278.16,194.4s-.91,18.91-5.24,33.89c-.35,1.24-1,3.51-1.42,4.68,0,0-7.48,2.66-8.31,3.15l-5.73,181.21-46.65-.5s7.44-96,7.38-102.18c-.09-9.89,5.35-76.85,4.78-78.55-5.8-17.3,3.79-41.7,3.79-41.7Z" style="fill:#263238"></path><path d="M255.85,408.7c-13.14-.79-38.59-1-41.86-.49a.07.07,0,0,0,0,.14c3.25.58,34.17,1.17,41.86.56A.11.11,0,0,0,255.85,408.7Z" style="fill:#37474f"></path><path d="M258.76,333q.84-31.15,2.12-62.3c.47-11.72,1-22.07,1.65-33.77a.32.32,0,0,1,.64,0c-.51,20.88-1.33,40.39-2,61.26s-1.41,41.54-2.12,62.31c-.4,11.71-.76,23.43-1.24,35.14a.14.14,0,0,1-.27,0C257.66,374.71,258.19,353.83,258.76,333Z" style="fill:#37474f"></path><path d="M222.29,362q1.47-20.43,3-40.86t3-40.86c.5-6.81,1-13.62,1.52-20.43q.41-5.12.8-10.21a90.43,90.43,0,0,0,.61-10.13c-.13-3.68-1.68-7-2.54-10.49a40.71,40.71,0,0,1-1.06-10.26c.1-7.11,1.68-14.12,3.16-21,.08-.39.68-.21.59.17a101.67,101.67,0,0,0-3.15,19.36A42,42,0,0,0,229,227c.61,3.09,1.89,5.95,2.62,9s.33,6.39.08,9.58c-.26,3.4-.49,6.81-.73,10.21-.48,6.68-1,13.35-1.48,20-2,27.11-4,54.22-6.11,81.31-1.2,15.26-2.2,30.54-3.69,45.76,0,.11-.18.11-.18,0C220.2,389.2,221.32,375.58,222.29,362Z" style="fill:#37474f"></path><path d="M231.85,215c.78-.31,1.66-.38,2.47-.62a18.84,18.84,0,0,0,6.84-3.49,10,10,0,0,0,2.8-4.08c.36-.84,1.88-5.29,1.9-5.32s.25-.07.25,0c0,.59-.9,4.39-1.19,5.35a9.85,9.85,0,0,1-2.82,4.7,15.37,15.37,0,0,1-4.82,2.77,15.66,15.66,0,0,1-2.78.76,7.46,7.46,0,0,1-2.66.16C231.69,215.21,231.74,215,231.85,215Z" style="fill:#37474f"></path><path d="M270.47,233a78.94,78.94,0,0,0-12.58,5.85.14.14,0,0,0,.12.26c4.24-1.82,8.56-3.56,12.69-5.61A.28.28,0,0,0,270.47,233Z" style="fill:#37474f"></path><path d="M271.81,203.92c0-.14-.26-.18-.26,0,0,5-.29,9.45-.71,14.15-.2,2.19-2,14.24-5.74,13.36-.63-.14-1-.77-1.06-1.72a15.63,15.63,0,0,1,.51-3.7c.42-2.52.75-5.06,1-7.61a68.65,68.65,0,0,0-.15-14.26.13.13,0,0,0-.25,0A129.55,129.55,0,0,1,264,223.82c-.47,3.14-2.05,7.86,1.23,8.34s5.5-7.41,5.91-9.58A72,72,0,0,0,271.81,203.92Z" style="fill:#37474f"></path><path d="M265.2,231.74a19.88,19.88,0,0,0-.85,2.5,5.6,5.6,0,0,0-.35,2c0,.13.19.15.26.06a7.47,7.47,0,0,0,.88-2c.29-.77.59-1.54.86-2.32A.43.43,0,0,0,265.2,231.74Z" style="fill:#37474f"></path><rect x="95.76" y="307.24" width="62.3" height="115.96" transform="translate(118.89 -21.34) rotate(17.97)" style="fill:#FFA52E"></rect><g style="opacity:0.1"><rect x="109.29" y="323.16" width="62.3" height="0.7" transform="translate(106.68 -27.55) rotate(17.97)" style="fill:#020100"></rect><rect x="105.42" y="335.07" width="62.3" height="0.7" transform="translate(110.17 -25.77) rotate(17.97)" style="fill:#020100"></rect><rect x="101.56" y="346.99" width="62.3" height="0.7" transform="translate(113.66 -24) rotate(17.97)" style="fill:#020100"></rect><rect x="97.69" y="358.91" width="62.3" height="0.7" transform="translate(117.15 -22.23) rotate(17.97)" style="fill:#020100"></rect><rect x="93.82" y="370.83" width="62.3" height="0.7" transform="translate(120.64 -20.45) rotate(17.97)" style="fill:#020100"></rect><rect x="89.96" y="382.75" width="62.3" height="0.7" transform="translate(124.12 -18.68) rotate(17.97)" style="fill:#020100"></rect><rect x="86.09" y="394.67" width="62.3" height="0.7" transform="translate(127.61 -16.9) rotate(17.97)" style="fill:#020100"></rect><rect x="82.22" y="406.59" width="62.3" height="0.7" transform="translate(131.1 -15.13) rotate(17.97)" style="fill:#020100"></rect></g><rect x="124.51" y="307.24" width="4.8" height="115.96" transform="translate(118.89 -21.34) rotate(17.97)" style="fill:#263238"></rect><rect x="134.81" y="351.11" width="5.19" height="35.03" transform="translate(120.45 -24.41) rotate(17.97)" style="fill:#263238"></rect><polygon points="141.33 421.73 127.09 417.11 118.72 423.52 138.65 429.99 141.33 421.73" style="fill:#263238"></polygon><polygon points="82.06 402.5 96.3 407.12 99.31 417.23 79.39 410.76 82.06 402.5" style="fill:#263238"></polygon><polygon points="125.35 436.62 130.62 438.33 137.33 429.56 125.95 425.87 127.6 431.88 125.35 436.62" style="fill:#263238"></polygon><path d="M119.49,438a7.63,7.63,0,1,0,9.62-4.91A7.63,7.63,0,0,0,119.49,438Z" style="fill:#37474f"></path><path d="M122.78,439.11a4.17,4.17,0,1,0,5.26-2.69A4.17,4.17,0,0,0,122.78,439.11Z" style="fill:#dbdbdb"></path><path d="M127.45,438c-.18.57-.27,1.06-.18,1.09s.3-.42.49-1,.26-1.05.18-1.08S127.64,437.39,127.45,438Z" style="fill:#263238"></path><path d="M129,439.17c-.53.27-.93.56-.89.64s.51-.08,1-.35.93-.56.89-.64S129.5,438.9,129,439.17Z" style="fill:#263238"></path><path d="M129.18,441.09c-.57-.18-1.05-.26-1.08-.18s.41.3,1,.49,1.06.26,1.08.18S129.75,441.28,129.18,441.09Z" style="fill:#263238"></path><path d="M128,442.61c-.28-.54-.56-.94-.64-.9s.08.51.35,1,.56.94.64.9S128.25,443.14,128,442.61Z" style="fill:#263238"></path><path d="M126.05,442.82c.19-.57.27-1.05.18-1.08s-.3.41-.48,1-.27,1.06-.19,1.09S125.87,443.39,126.05,442.82Z" style="fill:#263238"></path><path d="M124.54,441.62c.53-.28.93-.56.89-.64s-.5.08-1,.35-.93.56-.89.64S124,441.89,124.54,441.62Z" style="fill:#263238"></path><path d="M124.32,439.69c.57.19,1.06.27,1.08.19s-.41-.31-1-.49-1-.27-1.08-.18S123.75,439.51,124.32,439.69Z" style="fill:#263238"></path><path d="M125.53,438.18c.27.53.56.93.63.89s-.07-.5-.35-1-.55-.93-.63-.89S125.26,437.65,125.53,438.18Z" style="fill:#263238"></path><polygon points="86.25 423.94 80.99 422.23 80.71 411.19 92.08 414.88 87.22 418.78 86.25 423.94" style="fill:#263238"></polygon><path d="M90.17,428.53a7.63,7.63,0,1,1-4.9-9.62A7.64,7.64,0,0,1,90.17,428.53Z" style="fill:#37474f"></path><path d="M86.88,427.46a4.17,4.17,0,1,1-2.68-5.26A4.18,4.18,0,0,1,86.88,427.46Z" style="fill:#dbdbdb"></path><path d="M83.77,423.79c-.18.57-.4,1-.49,1s0-.52.18-1.09.41-1,.49-1S84,423.22,83.77,423.79Z" style="fill:#263238"></path><path d="M81.84,423.88c.27.54.43,1,.35,1s-.37-.36-.64-.89-.43-1-.35-1S81.57,423.35,81.84,423.88Z" style="fill:#263238"></path><path d="M80.53,425.31c.57.19,1,.4,1,.49s-.52,0-1.09-.18-1-.41-1-.49S80,425.13,80.53,425.31Z" style="fill:#263238"></path><path d="M80.62,427.24c.53-.27,1-.43,1-.35s-.36.37-.89.64-1,.43-1,.35S80.09,427.52,80.62,427.24Z" style="fill:#263238"></path><path d="M82.05,428.55c.18-.57.4-1,.49-1s0,.51-.18,1.08-.41,1-.49,1S81.86,429.12,82.05,428.55Z" style="fill:#263238"></path><path d="M84,428.46c-.27-.53-.43-1-.35-1s.37.36.64.89.43,1,.35,1S84.26,429,84,428.46Z" style="fill:#263238"></path><path d="M85.29,427c-.57-.18-1-.4-1-.49s.52,0,1.09.18,1,.41,1,.49S85.86,427.22,85.29,427Z" style="fill:#263238"></path><path d="M85.2,425.1c-.53.27-1,.43-1,.35s.36-.37.89-.64,1-.43,1-.35S85.73,424.83,85.2,425.1Z" style="fill:#263238"></path><rect x="149.03" y="307.78" width="10.4" height="5.22" transform="translate(103.3 -32.45) rotate(17.97)" style="fill:#263238"></rect><rect x="181.22" y="230.37" width="4.74" height="90.04" transform="translate(93.94 -43.21) rotate(17.97)" style="fill:#c7c7c7"></rect><rect x="192.76" y="231.03" width="6.74" height="11.34" transform="matrix(0.95, 0.31, -0.31, 0.95, 82.61, -48.97)" style="fill:#263238"></rect><path d="M317.33,111.93l-8.94,27.87c-.36.82,0,1.52.83,1.57l14.62.93a2.34,2.34,0,0,0,2.12-1.37l9-27.87c.36-.82,0-1.52-.83-1.57l-14.62-.93A2.38,2.38,0,0,0,317.33,111.93Z" style="fill:#a6a6a6"></path><path d="M319.07,112l-8.95,27.87a1,1,0,0,0,.84,1.57l14.62.93A2.39,2.39,0,0,0,327.7,141l8.95-27.87c.35-.81,0-1.51-.84-1.56l-14.61-.94A2.39,2.39,0,0,0,319.07,112Z" style="fill:#dbdbdb"></path><path d="M323,113.58a1.24,1.24,0,1,1-1.14-1.35A1.26,1.26,0,0,1,323,113.58Z" style="fill:#455a64"></path><path d="M269.59,151.55c7,18.21,26.3,44.33,34,45,3.65.31,10.11,1.66,15.21-2.19,11.13-8.4,21.15-25.28,23.66-35.19.9-3.52-15.9-12.51-18.67-9.79-6.5,6.37-14.45,19.21-15.5,19-3.91-.58-20.08-14.76-30.46-23.54C264.78,133.87,266.8,144.3,269.59,151.55Z" style="fill:#c95f50"></path><path d="M344.2,140.76c-1.3-7.38-2.77-9.07-.57-15.88,1.44-4.47-.79-7.31-4.29-3.9-5.71,5.59-6,15.47-5.14,18.92Z" style="fill:#c95f50"></path><path d="M341.36,162.21s4-9.86,3.35-17.86c-.43-5.53-2.7-17.46-17.57-24.75-3.52-1.73-9.78-1.69-5,3.22,3.36,3.5,6.55,4.7,8.14,7.08,0,0-7.95,1-9.55,4.59a72.92,72.92,0,0,0-3.49,9.71A15.16,15.16,0,0,0,319,145s-1.18,3.5,1.06,8.65Z" style="fill:#c95f50"></path><path d="M343.46,139.14c-2.08-2-6.55-6.28-11.41-8.48-5.4-2.44-16.47-5.69-18.23-1.68-1.3,2.93,2.82,4.55,2.82,4.55s-4.86-.38-5.44,2.53c-.54,2.65,2.72,3.7,2.72,3.7s-3,.28-3,2.93c0,3.2,6.24,2.09,9,5.35C320.53,148.77,343.46,139.14,343.46,139.14Z" style="fill:#c95f50"></path><path d="M330.42,136.8a23.6,23.6,0,0,0-13.68-3.35c-.12,0-.18.11-.06.12a58.82,58.82,0,0,1,13.72,3.28A0,0,0,0,0,330.42,136.8Z" style="fill:#263238"></path><path d="M327.8,142.18c-2.1-1.17-8.47-3.27-13.86-2.52-.12,0-.17.12-.06.12a62.7,62.7,0,0,1,13.9,2.45S327.82,142.2,327.8,142.18Z" style="fill:#263238"></path><path d="M307.41,167.46l-16.3,20.28s-19.88-25.94-25-39.34,1.82-14,12.8-4.43C289,152.77,307.41,167.46,307.41,167.46Z" style="fill:#FFA52E"></path><path d="M307.41,167.46l-16.3,20.28s-19.88-25.94-25-39.34,1.82-14,12.8-4.43C289,152.77,307.41,167.46,307.41,167.46Z" style="fill:#020100;opacity:0.1"></path><path d="M302.71,164.89s0-.06,0,0q-7.4,8.51-14,17.63c0,.07.07.17.13.1C293.7,176.91,298.32,171,302.71,164.89Z" style="fill:#263238"></path><path d="M281.62,180.83l.9,21-59.21-4.38s19.93-46.75,33.39-58.55c6.13-5.36,11.46-3.92,15.67.35,1,1,12.47,23.49,13.44,30.33C286.61,175.22,281.62,180.83,281.62,180.83Z" style="fill:#FFA52E"></path><path d="M268.69,140.56a.49.49,0,0,0-.52.46.51.51,0,0,0,.46.52.49.49,0,0,0,.06-1Zm-6.53-.3a.48.48,0,0,0-.5.46.47.47,0,0,0,.46.51.49.49,0,0,0,.5-.47A.47.47,0,0,0,262.16,140.26Zm-6.52-.31h0a4.91,4.91,0,0,1-.46.45h0v0a.48.48,0,0,0,.46.48.49.49,0,1,0,0-1Zm10-4.14a.5.5,0,0,0-.51.47.47.47,0,0,0,.46.5.48.48,0,0,0,.51-.46A.48.48,0,0,0,265.64,135.81Zm9.14,14.13a.49.49,0,0,0-.51.46.48.48,0,1,0,1,0A.46.46,0,0,0,274.78,149.94Zm-6.52-.3a.48.48,0,0,0-.51.46.49.49,0,1,0,.51-.46Zm-6.52-.31a.49.49,0,0,0-.05,1,.51.51,0,0,0,.52-.47A.49.49,0,0,0,261.74,149.33Zm-6.52-.31a.49.49,0,1,0,.46.52A.49.49,0,0,0,255.22,149Zm-6.52-.3s-.07,0-.09,0c-.13.2-.28.39-.41.6h0a.5.5,0,0,0,1-.11A.49.49,0,0,0,248.7,148.72Zm23-3.53a.49.49,0,1,0-.06,1,.5.5,0,0,0,.52-.46A.49.49,0,0,0,271.74,145.19Zm-6.53-.31a.49.49,0,0,0-.5.47.48.48,0,1,0,.5-.47Zm-6.51-.3a.48.48,0,0,0-.52.47.49.49,0,0,0,.47.5.49.49,0,1,0,.05-1Zm-6.53-.31a.49.49,0,0,0,0,1,.48.48,0,0,0,.51-.46A.5.5,0,0,0,252.17,144.27Zm28.7,15a.49.49,0,1,0,0,1,.49.49,0,0,0,0-1Zm-6.52-.31a.49.49,0,0,0,0,1,.49.49,0,1,0,0-1Zm-6.52-.3a.48.48,0,0,0-.51.46.49.49,0,0,0,1,.05A.48.48,0,0,0,267.83,158.71Zm-6.52-.31a.49.49,0,0,0-.5.46.5.5,0,0,0,.46.52.49.49,0,1,0,0-1Zm-6.52-.3a.49.49,0,1,0,.46.51A.48.48,0,0,0,254.79,158.1Zm-6.51-.31a.49.49,0,0,0-.51.47.49.49,0,0,0,1,0A.49.49,0,0,0,248.28,157.79Zm29.54-3.22a.49.49,0,0,0,0,1,.48.48,0,0,0,.5-.46A.46.46,0,0,0,277.82,154.57Zm-6.51-.31a.49.49,0,0,0-.51.47.49.49,0,0,0,1,0A.5.5,0,0,0,271.31,154.26Zm-6.53-.31a.49.49,0,0,0,0,1,.49.49,0,1,0,0-1Zm-6.51-.29a.48.48,0,0,0-.51.46.49.49,0,0,0,1,0A.49.49,0,0,0,258.27,153.66Zm-6.53-.31a.47.47,0,0,0-.5.46.49.49,0,0,0,.46.5.46.46,0,0,0,.51-.45A.48.48,0,0,0,251.74,153.35Zm-6.09,0h0a4.1,4.1,0,0,1-.26.43l-.07.13a.6.6,0,0,0-.09.13h0a.47.47,0,0,0,.48-.46A.49.49,0,0,0,245.65,153.31Zm34.8,15.08a.49.49,0,1,0-.05,1,.49.49,0,0,0,.05-1Zm-6.53-.3a.48.48,0,0,0-.5.46.49.49,0,1,0,1,0A.48.48,0,0,0,273.92,168.09Zm-6.51-.31a.51.51,0,0,0-.52.47.49.49,0,0,0,.47.5.48.48,0,0,0,.51-.46A.49.49,0,0,0,267.41,167.78Zm-6.52-.31a.49.49,0,1,0,.46.52A.49.49,0,0,0,260.89,167.47Zm-6.52-.3a.49.49,0,0,0-.5.47.46.46,0,0,0,.45.5.49.49,0,0,0,.51-.46A.48.48,0,0,0,254.37,167.17Zm-6.52-.31a.49.49,0,0,0-.51.47.5.5,0,0,0,.47.51.49.49,0,0,0,.5-.46A.49.49,0,0,0,247.85,166.86Zm-6.52-.3a.48.48,0,0,0-.5.47.47.47,0,0,0,.45.5.49.49,0,1,0,.05-1Zm42.93-2.3-.08-.21a.5.5,0,0,0-.27-.11.49.49,0,0,0-.5.47.48.48,0,0,0,.46.51.47.47,0,0,0,.49-.37v0C284.33,164.44,284.3,164.35,284.26,164.26Zm-6.86-.62a.49.49,0,0,0,0,1,.49.49,0,1,0,0-1Zm-6.52-.3a.48.48,0,0,0-.51.46.49.49,0,0,0,.47.5.47.47,0,0,0,.5-.45A.48.48,0,0,0,270.88,163.34Zm-6.52-.3a.46.46,0,0,0-.5.46.47.47,0,0,0,.45.5.48.48,0,0,0,.52-.46A.49.49,0,0,0,264.36,163Zm-6.52-.31a.47.47,0,0,0-.5.46.48.48,0,0,0,1,0A.47.47,0,0,0,257.84,162.73Zm-6.51-.31a.49.49,0,0,0-.51.46.48.48,0,0,0,.45.52.49.49,0,0,0,.06-1Zm-6.53-.3a.49.49,0,1,0,.46.5A.47.47,0,0,0,244.8,162.12ZM280,177.46a.5.5,0,0,0-.51.46.49.49,0,1,0,1,.06A.51.51,0,0,0,280,177.46Zm-6.52-.3a.49.49,0,1,0,.47.51A.49.49,0,0,0,273.5,177.16Zm-6.52-.31a.49.49,0,0,0-.5.47.48.48,0,0,0,.46.51.49.49,0,0,0,.5-.46A.47.47,0,0,0,267,176.85Zm-6.51-.3a.49.49,0,1,0-.06,1,.49.49,0,1,0,.06-1Zm-6.53-.31a.49.49,0,1,0,.47.51A.49.49,0,0,0,253.94,176.24Zm-6.51-.29a.47.47,0,0,0-.52.45.49.49,0,0,0,.47.51.48.48,0,1,0,.05-1Zm-6.53-.31a.47.47,0,0,0-.5.46.49.49,0,0,0,.46.5.47.47,0,0,0,.51-.46A.48.48,0,0,0,240.9,175.64Zm-6.51-.31a.5.5,0,0,0-.52.46.49.49,0,0,0,.47.51.48.48,0,0,0,.51-.46A.49.49,0,0,0,234.39,175.33ZM283.5,173a.49.49,0,1,0-.05,1,.48.48,0,0,0,.51-.46A.5.5,0,0,0,283.5,173Zm-6.53-.3a.47.47,0,0,0-.5.46.49.49,0,0,0,.46.5.47.47,0,0,0,.51-.46A.48.48,0,0,0,277,172.72Zm-6.51-.3a.48.48,0,0,0-.52.45.49.49,0,0,0,.47.51.48.48,0,1,0,0-1Zm-6.52-.31a.49.49,0,0,0-.51.46.5.5,0,0,0,.46.51.49.49,0,0,0,.05-1Zm-6.52-.31a.5.5,0,0,0-.51.46.49.49,0,1,0,1,.05A.48.48,0,0,0,257.42,171.8Zm-6.52-.3a.48.48,0,0,0-.51.46.49.49,0,1,0,1,0A.48.48,0,0,0,250.9,171.5Zm-6.52-.31a.49.49,0,0,0-.5.46.48.48,0,0,0,.45.51.49.49,0,1,0,0-1Zm-6.52-.31a.49.49,0,1,0,0,1,.49.49,0,0,0,.5-.46A.5.5,0,0,0,237.86,170.88Zm41.74,15.66a.48.48,0,0,0-.51.47.47.47,0,0,0,.46.5.49.49,0,0,0,.5-.46A.46.46,0,0,0,279.6,186.54Zm-6.52-.31a.49.49,0,0,0-.51.47.49.49,0,0,0,1,0A.5.5,0,0,0,273.08,186.23Zm-6.52-.3a.48.48,0,0,0-.51.47.49.49,0,0,0,.46.5.51.51,0,0,0,.52-.46A.5.5,0,0,0,266.56,185.93Zm-6.52-.3a.48.48,0,0,0-.51.46.48.48,0,0,0,.47.5.47.47,0,0,0,.5-.46A.48.48,0,0,0,260,185.63Zm-6.52-.31a.48.48,0,0,0-.51.46.5.5,0,0,0,.46.51.49.49,0,0,0,.52-.46A.49.49,0,0,0,253.52,185.32ZM247,185a.48.48,0,0,0-.51.46.49.49,0,0,0,1,0A.49.49,0,0,0,247,185Zm-6.52-.31a.49.49,0,0,0-.51.46.5.5,0,0,0,.46.51.49.49,0,1,0,0-1Zm-6.52-.3a.47.47,0,0,0-.5.45.48.48,0,0,0,.46.52.49.49,0,0,0,.5-.47A.47.47,0,0,0,234,184.41Zm42.6-2.62a.49.49,0,0,0-.52.46.51.51,0,0,0,.46.52.49.49,0,0,0,.06-1Zm-6.53-.3a.49.49,0,0,0,0,1,.49.49,0,0,0,.5-.47A.47.47,0,0,0,270,181.49Zm-6.51-.31a.49.49,0,1,0,0,1,.49.49,0,0,0,0-1Zm-6.53-.3a.47.47,0,0,0-.5.45.49.49,0,1,0,.5-.45Zm-6.51-.31a.49.49,0,1,0,0,1,.49.49,0,0,0,0-1Zm-6.53-.31a.49.49,0,0,0-.5.46.49.49,0,1,0,.5-.46Zm-6.51-.3a.49.49,0,1,0,.46.51A.48.48,0,0,0,237.44,180Zm-6.1,0c-.11.22-.21.44-.32.64a.48.48,0,0,0,.36-.45A.26.26,0,0,0,231.34,180Zm47.83,15.64a.49.49,0,0,0-.5.47.47.47,0,0,0,.46.5.49.49,0,0,0,.51-.46A.5.5,0,0,0,279.17,195.61Zm-6.52-.31a.49.49,0,1,0,.46.52A.5.5,0,0,0,272.65,195.3Zm-6.52-.29a.47.47,0,0,0-.5.46.49.49,0,0,0,1,0A.49.49,0,0,0,266.13,195Zm-6.52-.31a.48.48,0,0,0-.51.46.49.49,0,0,0,.47.5.46.46,0,0,0,.5-.45A.48.48,0,0,0,259.61,194.7Zm-6.52-.3a.48.48,0,0,0-.5.46.49.49,0,1,0,.5-.46Zm-6.52-.31a.49.49,0,0,0,0,1,.48.48,0,0,0,.5-.47A.46.46,0,0,0,246.57,194.09Zm-6.51-.31a.49.49,0,1,0,.46.51A.5.5,0,0,0,240.06,193.78Zm-6.53-.3a.48.48,0,0,0-.5.46.49.49,0,0,0,.46.51A.5.5,0,0,0,234,194,.48.48,0,0,0,233.53,193.48Zm-6.51-.31a.49.49,0,0,0-.51.46.48.48,0,0,0,.47.51.48.48,0,0,0,.5-.47A.49.49,0,0,0,227,193.17Zm49.11-2.3a.48.48,0,0,0-.51.45.49.49,0,1,0,1,.05A.49.49,0,0,0,276.13,190.87Zm-6.52-.31a.49.49,0,1,0-.05,1,.51.51,0,0,0,.52-.47A.49.49,0,0,0,269.61,190.56Zm-6.52-.31a.49.49,0,1,0,.46.51A.49.49,0,0,0,263.09,190.25Zm-6.52-.3a.48.48,0,0,0-.51.46.49.49,0,0,0,.46.51.51.51,0,0,0,.52-.46A.49.49,0,0,0,256.57,190Zm-6.52-.31a.5.5,0,0,0-.51.46.48.48,0,0,0,.47.51.47.47,0,0,0,.5-.45A.49.49,0,0,0,250.05,189.64Zm-6.51-.3a.48.48,0,0,0-.52.47.49.49,0,0,0,.46.5.51.51,0,0,0,.52-.46A.49.49,0,0,0,243.54,189.34ZM237,189a.49.49,0,0,0-.5.47.47.47,0,0,0,.46.5.49.49,0,0,0,0-1Zm-6.51-.31a.49.49,0,1,0-.05,1,.5.5,0,0,0,.51-.46A.49.49,0,0,0,230.5,188.72Zm52,11.61a0,0,0,0,1,0,0,.45.45,0,0,0-.23-.08.49.49,0,0,0,0,1,.45.45,0,0,0,.3-.1V201Zm-6.76-.39a.48.48,0,0,0-.51.46.49.49,0,1,0,1,0A.48.48,0,0,0,275.7,199.94Zm-6.52-.31a.49.49,0,0,0,0,1,.48.48,0,0,0,.51-.45A.49.49,0,0,0,269.18,199.63Zm-6.52-.3a.48.48,0,0,0-.51.45.49.49,0,0,0,.47.52.49.49,0,0,0,0-1Zm-6.51-.31a.49.49,0,0,0-.51.46.44.44,0,0,0,.19.4l.53.05a.5.5,0,0,0,.25-.4A.49.49,0,0,0,256.15,199Zm-6.53-.31a.49.49,0,0,0-.5.47.47.47,0,0,0,0,.21l.86.07a.48.48,0,0,0,.07-.23A.47.47,0,0,0,249.62,198.71Zm-6.51-.3a.48.48,0,0,0-.51.47v0l1,.07s0,0,0-.06A.49.49,0,0,0,243.11,198.41Zm-6.53-.31a.48.48,0,0,0-.47.33l.92.07A.48.48,0,0,0,236.58,198.1Zm-6.52-.29a.47.47,0,0,0-.37.14l.74.05A.48.48,0,0,0,230.06,197.81Zm-6.42-.3h-.15a1.83,1.83,0,0,1,.25.06A.19.19,0,0,0,223.64,197.51Z" style="fill:#020100;opacity:0.1"></path><path d="M272.59,176.5a51.92,51.92,0,0,0-8.77.87c-1.44.29-2.86.65-4.28,1-.71.2-1.42.37-2.14.54a7.93,7.93,0,0,1-2.26.29c-.07,0-.08.11,0,.12a13.91,13.91,0,0,0,2.14.15,14.78,14.78,0,0,0,2.08-.26c1.46-.28,2.92-.64,4.38-.93,2.95-.6,5.9-1.2,8.87-1.55C272.74,176.77,272.73,176.5,272.59,176.5Z" style="fill:#263238"></path><path d="M279.48,180.14a54,54,0,0,0-7.16-1,33.41,33.41,0,0,0-3.61-.08c-.58,0-1.16,0-1.73.07s-1.27.17-1.91.19c-.06,0-.08.12,0,.12.6,0,1.2.11,1.8.15l1.8.11,3.6.23c2.41.12,4.8.27,7.2.49C279.59,180.38,279.6,180.17,279.48,180.14Z" style="fill:#263238"></path><path d="M258.2,147.67c-4.76,6.49-26.19,29.3-26.79,30.73s-16.07,30.43-17.22,35.1c-.82,3.29-26.85-5.91-26-8.74,2-6.61,16.33-28.66,21.49-35.77,6.74-9.27,35.13-27.31,43.33-30.34S266,137,258.2,147.67Z" style="fill:#c95f50"></path><path d="M203.48,224.76c1.22-1.13,1.82-.5,1.36,2.42s-4.76,14.1-.73,15.27,9.86-14.68,10.25-19.61-.7-13-.7-13C211.91,212.67,207,219.2,203.48,224.76Z" style="fill:#c95f50"></path><path d="M191.33,199.28c-4.65,8.23-10.94,18.19-10.74,28.85a5.24,5.24,0,0,0,1.1,3.28c0,4.78,2.26,6.22,2.26,6.22,1.36,4.45,3.88,5.6,3.88,5.6s.06,5.61,3.46,6.14c3.81.6,3-7.4,5.21-12.08,5.11-10.72,15.38-24.53,17.16-27.48Z" style="fill:#c95f50"></path><path d="M194,222.29a77.07,77.07,0,0,0-4,9.64,76.17,76.17,0,0,0-2.08,11.22.1.1,0,0,1-.19,0,40.35,40.35,0,0,1,6.08-20.91C193.91,222.08,194,222.13,194,222.29Z" style="fill:#263238"></path><path d="M187.94,218.26c-1.23,3.18-3.36,8.77-3.88,19.37,0,0-.06.05-.06,0a36.29,36.29,0,0,1,3.79-19.44C187.88,218,188,218.05,187.94,218.26Z" style="fill:#263238"></path><path d="M184.66,216.16c-1.89,5.48-2.38,9.17-2.94,15.23,0,0-.06,0-.07,0-.09-6.95.67-9.48,2.83-15.33C184.56,215.86,184.73,215.94,184.66,216.16Z" style="fill:#263238"></path><path d="M232.09,179.08l-19.74-16.94s26.58-19,40.13-23.71,14,2.27,4,12.94C247.38,161.15,232.09,179.08,232.09,179.08Z" style="fill:#FFA52E"></path><path d="M232.09,179.08l-19.74-16.94s26.58-19,40.13-23.71,14,2.27,4,12.94C247.38,161.15,232.09,179.08,232.09,179.08Z" style="fill:#020100;opacity:0.1"></path><path d="M234.81,174.47a0,0,0,0,0,0-.05c-5.5-5.11-11.2-10-17.16-14.58-.07-.05-.17.07-.1.13C223.09,165.07,228.85,169.89,234.81,174.47Z" style="fill:#263238"></path><path d="M261.83,139.49c.25,1,5.22,7.73,9.94,7.49,1.54-.08,1.47-8.5,1.47-8.5l.14-.63,1.91-8.71L265,122.61l-1.48-.86s-.37,2.42-.79,5.44l-.06.43c0,.17-.06.33-.08.49-.07.45-.14.91-.2,1.37s-.09.69-.13,1.05l-.12,1.1A58.33,58.33,0,0,0,261.83,139.49Z" style="fill:#c95f50"></path><path d="M262.76,127.19a17.87,17.87,0,0,0,10.62,10.66l1.91-8.71L265,122.61l-1.48-.86S263.18,124.17,262.76,127.19Z" style="fill:#263238"></path><path d="M288.14,117.55c-.71,15.65-10.17,17-13.54,16.83-3.07-.14-13.48-1-14.39-16.65s6.6-20.26,13.62-20.3S288.85,101.9,288.14,117.55Z" style="fill:#c95f50"></path><path d="M285.06,113.63c-.36-.06-.69-.18-1-.27a1.83,1.83,0,0,1-1-.48.57.57,0,0,1,0-.68,1.35,1.35,0,0,1,1.38-.26,2,2,0,0,1,1.24.77A.6.6,0,0,1,285.06,113.63Z" style="fill:#263238"></path><path d="M274.74,113.27a9.55,9.55,0,0,0,1.07-.18,1.76,1.76,0,0,0,1.06-.38.57.57,0,0,0,0-.68,1.4,1.4,0,0,0-1.35-.39,2.1,2.1,0,0,0-1.31.66A.6.6,0,0,0,274.74,113.27Z" style="fill:#263238"></path><path d="M276.65,117.31s-.08,0-.08.09c0,1.07-.16,2.3-1.13,2.63a0,0,0,0,0,0,.06C276.63,120,276.83,118.32,276.65,117.31Z" style="fill:#263238"></path><path d="M275.72,116.18c-1.71-.17-1.92,3.27-.33,3.42S277.16,116.32,275.72,116.18Z" style="fill:#263238"></path><path d="M275,116.32c-.31.17-.63.5-1,.51s-.72-.36-1-.72c0,0-.06,0-.06,0,0,.66.16,1.35.86,1.49s1.14-.42,1.34-1.07C275.26,116.43,275.16,116.25,275,116.32Z" style="fill:#263238"></path><path d="M282.83,117.43s.08.06.07.1c-.1,1.07,0,2.3.89,2.72,0,0,0,.07,0,.06C282.61,120.06,282.56,118.42,282.83,117.43Z" style="fill:#263238"></path><path d="M283.85,116.39c1.72,0,1.62,3.43,0,3.44S282.41,116.4,283.85,116.39Z" style="fill:#263238"></path><path d="M284.56,116.64c.27.19.53.53.85.56s.67-.33.92-.68c0,0,.05,0,.05,0,0,.66-.24,1.33-.87,1.44s-1-.48-1.13-1.14C284.36,116.74,284.46,116.56,284.56,116.64Z" style="fill:#263238"></path><path d="M276.49,125.87c.23.27.45.64.83.72a2.78,2.78,0,0,0,1.17-.15,0,0,0,0,1,0,.06,1.43,1.43,0,0,1-1.41.43,1.13,1.13,0,0,1-.74-1C276.37,125.84,276.46,125.83,276.49,125.87Z" style="fill:#263238"></path><path d="M281.13,122.23s.14,1.61.11,2.36c0,.07-.19.09-.44.09h0a3.55,3.55,0,0,1-3.4-1.5c-.05-.07.05-.15.11-.1a5.4,5.4,0,0,0,3.22,1.1c.06-.21-.34-2.74-.22-2.74a6.26,6.26,0,0,1,1.69.47c-.2-3.35-.94-6.64-1.09-10a.1.1,0,0,1,.2,0,54.19,54.19,0,0,1,1.62,10.69C282.94,123,281.43,122.38,281.13,122.23Z" style="fill:#263238"></path><path d="M280.17,124.36a3.86,3.86,0,0,1-1.58,1.1,1.68,1.68,0,0,1-1,0c-.74-.23-.72-.92-.55-1.5a3.69,3.69,0,0,1,.38-.88A4.87,4.87,0,0,0,280.17,124.36Z" style="fill:#263238"></path><path d="M278.59,125.46a1.68,1.68,0,0,1-1,0c-.74-.23-.72-.92-.55-1.5A1.76,1.76,0,0,1,278.59,125.46Z" style="fill:#ff9cbd"></path><path d="M260.63,118.11a6.32,6.32,0,0,0,4.43-4.39c13.32-1,17.28-9.54,17.28-9.54,2.93,6.83,5.28,7.9,5.71,8.93,0,0,.79-6.1-1.48-10.6a12.67,12.67,0,0,0-14-6.78c-4.06.74-7.31,4.46-7.31,4.46s-4.39.7-6,4.35C256.58,110.67,260.63,118.11,260.63,118.11Z" style="fill:#263238"></path><path d="M282.51,103.64a10.76,10.76,0,0,1-2.4,4.76,14,14,0,0,1-4.25,3.31l-1.24.54c-.41.17-.85.28-1.28.43a17.11,17.11,0,0,1-2.62.6c-.89.12-1.79.16-2.68.24l-2.67-.09c.89-.08,1.78-.12,2.66-.18s1.75-.21,2.62-.38a19.62,19.62,0,0,0,5-1.65,14.14,14.14,0,0,0,4.18-3.1A12.44,12.44,0,0,0,282.51,103.64Z" style="fill:#263238"></path><path d="M275.28,100.55c-.48,1.56-3.43,2-6.59,1.06s-5.33-3-4.85-4.58,3.43-2,6.59-1.06S275.76,99,275.28,100.55Z" style="fill:#FFA52E"></path><path d="M274.12,99.85c-.36,1.18-2.61,1.54-5,.8s-4.05-2.3-3.68-3.48,2.6-1.55,5-.8S274.49,98.66,274.12,99.85Z" style="fill:#263238"></path><path d="M274.46,98.64l-.78-.66c1.7-2,4.39-1.3,5.58-.67l-.48.91C278.67,98.16,276,96.8,274.46,98.64Z" style="fill:#FFA52E"></path><path d="M257.92,117.19c0-.17.52-4.09.67-4.85s7.66-12.57,7.72-12.63l.35.38.42.3c-.46.65-7.22,11.32-7.49,12.17s-.64,4.72-.65,4.76Z" style="fill:#FFA52E"></path><path d="M289.09,99.85c-.48,1.56-3.43,2-6.59,1.06s-5.33-3-4.85-4.58,3.43-2,6.59-1.06S289.57,98.3,289.09,99.85Z" style="fill:#FFA52E"></path><path d="M287.88,99.23c-.37,1.18-2.61,1.54-5,.8s-4.05-2.3-3.69-3.48,2.61-1.54,5-.8S288.24,98.05,287.88,99.23Z" style="fill:#263238"></path><path d="M262.65,119s-2.75-5.3-5.11-4.38-.74,8.28,1.71,9.59a2.65,2.65,0,0,0,3.71-1Z" style="fill:#c95f50"></path><path d="M258.06,116.76s-.06,0,0,.07c1.72,1,2.45,2.78,2.88,4.61a1.45,1.45,0,0,0-2.11-.69c-.06,0,0,.11,0,.11a1.63,1.63,0,0,1,1.71.8,8.21,8.21,0,0,1,.66,1.55c.06.17.36.12.33-.07v0C261.87,120.79,260.5,117.32,258.06,116.76Z" style="fill:#263238"></path></g></svg>