<svg xmlns="http://www.w3.org/2000/svg" viewBox="0 0 500 500"><g id="freepik--background-complete--inject-475"><path d="M395.66,144.49H319s3.81-5,8-5.58c0,0,8.17-24.33,21.85-24.5,12.72-.16,17.82,15,17.82,15s5.89-6.78,11.52-3.68,8.82,12,8.82,12S393.37,141.08,395.66,144.49Z" style="fill:#ebebeb"></path><path d="M49.91,130.21h96.93s0-6.2-13.35-7.41c0,0-12.19-27.07-30.8-23.43-11.6,2.26-17.52,18.18-17.52,18.18S76.41,105,69.4,107.45s-11.17,15.76-11.17,15.76S51,126.71,49.91,130.21Z" style="fill:#ebebeb"></path><path d="M168,70.54h65.91s-6.22-5.79-9-5.79-10.83-19.44-21.14-18.61S188,61.44,188,61.44,175.46,57.51,168,70.54Z" style="fill:#ebebeb"></path><path d="M191.27,159.14h56.36s-2.8-3.65-5.89-4.1c0,0-6-17.89-16.07-18-9.35-.12-13.1,11-13.1,11s-4.34-5-8.48-2.7-6.48,8.81-6.48,8.81S193,156.63,191.27,159.14Z" style="fill:#ebebeb"></path><path d="M393.72,98.54h56.37s-2.81-3.65-5.9-4.11c0,0-6-17.89-16.06-18-9.36-.11-13.11,11-13.11,11s-4.33-5-8.47-2.71-6.48,8.81-6.48,8.81S395.41,96,393.72,98.54Z" style="fill:#ebebeb"></path></g><g id="freepik--Floor--inject-475"><polygon points="42.58 365.85 94.44 365.61 146.29 365.52 250 365.35 353.71 365.52 405.56 365.61 457.42 365.85 405.56 366.1 353.71 366.18 250 366.35 146.29 366.18 94.44 366.09 42.58 365.85" style="fill:#263238"></polygon><rect x="45.29" y="361.56" width="409.42" height="4.3" style="fill:#a6a6a6"></rect><path d="M66.36,361.56a4.85,4.85,0,0,1,0,4.29,4.85,4.85,0,0,1,0-4.29Z" style="fill:#263238"></path><path d="M90.84,361.56a4.42,4.42,0,0,1,.5,2.14,4.32,4.32,0,0,1-.5,2.15,4.85,4.85,0,0,1,0-4.29Z" style="fill:#263238"></path><path d="M115.33,361.56a4.85,4.85,0,0,1,0,4.29,4.85,4.85,0,0,1,0-4.29Z" style="fill:#263238"></path><path d="M139.81,361.56a4.85,4.85,0,0,1,0,4.29,4.85,4.85,0,0,1,0-4.29Z" style="fill:#263238"></path><path d="M164.3,361.56a4.53,4.53,0,0,1,.5,2.14,4.43,4.43,0,0,1-.5,2.15,4.32,4.32,0,0,1-.5-2.15A4.42,4.42,0,0,1,164.3,361.56Z" style="fill:#263238"></path><path d="M188.79,361.56a4.94,4.94,0,0,1,0,4.29,4.85,4.85,0,0,1,0-4.29Z" style="fill:#263238"></path><path d="M213.27,361.56a4.42,4.42,0,0,1,.5,2.14,4.32,4.32,0,0,1-.5,2.15,4.43,4.43,0,0,1-.5-2.15A4.53,4.53,0,0,1,213.27,361.56Z" style="fill:#263238"></path><path d="M237.76,361.56a4.85,4.85,0,0,1,0,4.29,4.85,4.85,0,0,1,0-4.29Z" style="fill:#263238"></path><path d="M262.24,361.56a4.85,4.85,0,0,1,0,4.29,4.85,4.85,0,0,1,0-4.29Z" style="fill:#263238"></path><path d="M286.73,361.56a4.53,4.53,0,0,1,.5,2.14,4.43,4.43,0,0,1-.5,2.15,4.32,4.32,0,0,1-.5-2.15A4.42,4.42,0,0,1,286.73,361.56Z" style="fill:#263238"></path><path d="M311.21,361.56a4.85,4.85,0,0,1,0,4.29,4.94,4.94,0,0,1,0-4.29Z" style="fill:#263238"></path><path d="M335.7,361.56a4.42,4.42,0,0,1,.5,2.14,4.32,4.32,0,0,1-.5,2.15,4.43,4.43,0,0,1-.5-2.15A4.53,4.53,0,0,1,335.7,361.56Z" style="fill:#263238"></path><path d="M360.19,361.56a4.85,4.85,0,0,1,0,4.29,4.85,4.85,0,0,1,0-4.29Z" style="fill:#263238"></path><path d="M384.67,361.56a4.85,4.85,0,0,1,0,4.29,4.85,4.85,0,0,1,0-4.29Z" style="fill:#263238"></path><path d="M409.16,361.56a4.85,4.85,0,0,1,0,4.29,4.32,4.32,0,0,1-.5-2.15A4.42,4.42,0,0,1,409.16,361.56Z" style="fill:#263238"></path><path d="M433.64,361.56a4.85,4.85,0,0,1,0,4.29,4.85,4.85,0,0,1,0-4.29Z" style="fill:#263238"></path></g><g id="freepik--Trees--inject-475"><path d="M178.64,259.24s-13.79-5.45-24.71,13.59c-11.19,19.54,2.88,32.38,14,24.71,0,0,8.78,18.37,26.27,14s20.33-18.4,20.33-18.4,15.54,1.07,16-10.52-11-21.87-11-21.87-.69-28.88-19.51-28.64S178.64,259.24,178.64,259.24Z" style="fill:#37474f"></path><polygon points="191.55 361.57 195.4 275.63 199.43 361.56 191.55 361.57" style="fill:#263238"></polygon><polygon points="194.26 307.93 182.16 283.84 196.25 304.17 194.26 307.93" style="fill:#263238"></polygon><path d="M306.38,252.13s29.61,65.76-18.72,65.81-17.08-68-17.08-68-11.2-4.91,1.74-41.62,18.74-36.72,24.13-36.73c6.81,0,13.17,15.88,8.55,40.27C305,211.85,322,242.27,306.38,252.13Z" style="fill:#37474f"></path><polygon points="283.42 361.57 287.97 262.46 292.74 361.56 283.42 361.57" style="fill:#263238"></polygon><polygon points="286.12 304.02 303.66 283.48 289.91 306.73 286.12 304.02" style="fill:#263238"></polygon><path d="M58.06,265.74S32.25,323.4,74.58,323.35s14.83-59.6,14.83-59.6,9.8-4.32-1.6-36.46S71.32,195.17,66.6,195.17c-6,0-11.5,13.93-7.41,35.29C59.19,230.46,44.33,257.13,58.06,265.74Z" style="fill:#37474f"></path><polygon points="78.38 361.56 74.2 274.76 70.22 361.57 78.38 361.56" style="fill:#263238"></polygon><polygon points="75.9 311.15 60.5 293.2 72.59 313.53 75.9 311.15" style="fill:#263238"></polygon><path d="M409.59,265.74s-25.81,57.66,16.53,57.61S441,263.75,441,263.75s9.8-4.32-1.61-36.46-16.48-32.12-21.2-32.12c-6,0-11.51,13.93-7.41,35.29C410.73,230.46,395.86,257.13,409.59,265.74Z" style="fill:#455a64"></path><polygon points="429.92 361.56 425.74 274.76 421.76 361.57 429.92 361.56" style="fill:#263238"></polygon><polygon points="427.44 311.15 412.04 293.2 424.13 313.53 427.44 311.15" style="fill:#263238"></polygon><path d="M323.63,259.24s-13.79-5.45-24.71,13.59c-11.19,19.54,2.88,32.38,14,24.71,0,0,8.78,18.37,26.27,14s20.33-18.4,20.33-18.4,15.54,1.07,16-10.52-11-21.87-11-21.87-.69-28.88-19.51-28.64S323.63,259.24,323.63,259.24Z" style="fill:#455a64"></path><polygon points="336.54 361.57 340.39 275.63 344.42 361.56 336.54 361.57" style="fill:#263238"></polygon><polygon points="339.2 307.83 327.15 283.84 341.58 304.13 339.2 307.83" style="fill:#263238"></polygon></g><g id="freepik--Plants--inject-475"><path d="M146.14,361.56H91.87s.13-8.08,5.46-10.22a7.26,7.26,0,0,1,8.51,2S108,338.52,118,338.52s14.7,12.82,14.7,12.82,2.22-3.88,7.74-3.16S146.14,361.56,146.14,361.56Z" style="fill:#455a64"></path><path d="M448.44,361.56s-1.66-7.77-5-9-5.34,2.29-5.34,2.29-.78-7.42-5.49-9.64-8.25,2.33-8.25,2.33-3.62-9.42-10.07-9.42-9.72,13.77-9.72,13.77-3.81-4.1-7.72-1.78S393,361.56,393,361.56Z" style="fill:#37474f"></path><path d="M101.6,361.56h-50s1.65-7.06,5-7.56,4.86,2.77,4.86,2.77-.15-9.84,6-11.51,11.4,7,11.4,7,3.89-5,9.18-4.64,6.64,8.5,6.64,8.5S99.47,353.3,101.6,361.56Z" style="fill:#37474f"></path><path d="M396.54,361.56H365.8s.07-4.58,3.09-5.79a4.11,4.11,0,0,1,4.82,1.15s1.23-8.41,6.86-8.41,8.33,7.26,8.33,7.26a4.31,4.31,0,0,1,4.39-1.79C396.42,354.39,396.54,361.56,396.54,361.56Z" style="fill:#455a64"></path></g><g id="freepik--character-3--inject-475"><polygon points="411.27 429.27 258.88 429.27 287.57 402 382.57 402 411.27 429.27" style="fill:#37474f"></polygon><rect x="258.88" y="429.27" width="152.1" height="2.41" style="fill:#263238"></rect><path d="M369.47,140.7c8.54-7.82,23-27,23-33.38,0-5.09-9.18-20-16.58-28.83-2-2.38-14.48,11.45-12.28,13.93,4.6,5.2,9.9,13.33,10.18,14.82.59,3.07-9,19-11.94,26.22C357.19,144.8,363.68,146,369.47,140.7Z" style="fill:#ad6359"></path><path d="M356.65,84.69c1.74,3.93,7.51,8.17,7.51,8.17l11.71-14.37s-4.57-6-5.57-10.32c-.25-1.06-.69-6.34-2-11.7-1.47-6.07-3.8-12.25-4.43-12.67-1.2-.81-3.1.7-3.07,5s1.54,12.75,1.5,13.28a4.85,4.85,0,0,1-.15.51h0c-.14.2-5.72,2.74-6.27,5.46S356.18,84.05,356.65,84.69Z" style="fill:#ad6359"></path><path d="M365.52,69.87s2.18-10.31,1.33-12.32-4.15-14.92-5.34-15.75-3.1.7-3.07,5,1.54,12.75,1.5,13.28-3.42,9.18-3.49,10.07S365.52,69.87,365.52,69.87Z" style="fill:#ad6359"></path><path d="M367.57,64.24c0-1.15-.08-2.31-.13-3.46,0-.58-.09-1.15-.14-1.73,0-.29-.06-.58-.1-.87s-.05-.29-.07-.43a4.15,4.15,0,0,0-.12-.45c-.65-2.2-1.31-4.41-2-6.61s-1.36-4.4-2.11-6.6a6.94,6.94,0,0,0-.81-1.58,2.81,2.81,0,0,0-.61-.68,1.42,1.42,0,0,0-.87-.38,1.18,1.18,0,0,0-.87.37,2.86,2.86,0,0,0-.52.73,6.53,6.53,0,0,0-.52,1.66,7.15,7.15,0,0,1,.67-1.58,2.32,2.32,0,0,1,.52-.64.94.94,0,0,1,.7-.23,1.79,1.79,0,0,1,1.18,1,6.79,6.79,0,0,1,.68,1.53c.64,2.2,1.3,4.42,2,6.62s1.36,4.4,2.13,6.58a8.62,8.62,0,0,1,.35,1.65c.08.56.15,1.14.22,1.71Z" style="fill:#263238"></path><path d="M363.58,71.24s2.34-11.3,1.49-13.32S360.92,43,359.73,42.17s-3.1.7-3.07,5,1.54,12.74,1.5,13.27-2.43,9.22-2.5,10.11S363.58,71.24,363.58,71.24Z" style="fill:#ad6359"></path><path d="M366.26,66c-.08-1.41-.22-2.82-.36-4.23-.08-.7-.16-1.4-.27-2.11-.05-.35-.1-.7-.17-1a7,7,0,0,0-.27-1.05q-1.24-4-2.54-8.1l-1.32-4-.34-1a7.67,7.67,0,0,0-.4-1,4.27,4.27,0,0,0-.6-.94,1.89,1.89,0,0,0-1-.67,1.06,1.06,0,0,0-.66.06,1.5,1.5,0,0,0-.5.35,3.24,3.24,0,0,0-.59,1,9.77,9.77,0,0,0-.58,2.08,12.38,12.38,0,0,0,0,4.25,13.36,13.36,0,0,1,.25-4.19,10.18,10.18,0,0,1,.64-2,2.78,2.78,0,0,1,.54-.82.75.75,0,0,1,.75-.25,1.42,1.42,0,0,1,.71.53,4.26,4.26,0,0,1,.51.85c.27.61.45,1.31.67,2l1.29,4c.86,2.69,1.73,5.38,2.65,8.06a7.08,7.08,0,0,1,.31,1l.21,1c.13.69.24,1.39.35,2.08Z" style="fill:#263238"></path><path d="M364,71.23s-.26-10.29-1.06-12.17-2.49-10.83-3.6-11.6-2.89.65-2.86,4.68.07,8.8,0,9.3-.74,8.31-.8,9.14S364,71.23,364,71.23Z" style="fill:#ad6359"></path><path d="M364.73,68.47c-.16-1.82-.35-3.63-.54-5.44-.09-.91-.19-1.81-.29-2.72l-.09-.68a4.19,4.19,0,0,0-.13-.69c-.1-.45-.23-.89-.35-1.33-.52-1.75-1.07-3.49-1.69-5.21-.3-.86-.62-1.71-.95-2.57-.17-.42-.34-.85-.52-1.27a8,8,0,0,0-.65-1.27,1.13,1.13,0,0,0-.73-.5,1.2,1.2,0,0,0-.85.22,3.35,3.35,0,0,0-1,1.14,5.83,5.83,0,0,0-.78,2.74c0,1.83,0,3.65,0,5.47s0,3.66,0,5.45c0,.9-.09,1.81-.14,2.72s-.09,1.82-.1,2.73c.31-1.8.56-3.59.76-5.42l0-5.48c0-1.82,0-3.64.08-5.45a5.48,5.48,0,0,1,.68-2.47,2.81,2.81,0,0,1,.78-.94.5.5,0,0,1,.79.12,8,8,0,0,1,.59,1.17c.19.41.36.83.53,1.25.34.84.66,1.69,1,2.54.61,1.71,1.23,3.42,1.78,5.15.14.44.27.87.38,1.3a9.47,9.47,0,0,1,.24,1.33l.39,2.7Z" style="fill:#263238"></path><path d="M296.47,417.13c2.12.66,54.28.89,56.54-.62.86-.56,1.17-9.35,1.24-20v-.33c0-2.19,1.47-39,1.47-39l-38.51.78-1.86,38.69,0,.66s-14.71,9.23-17,11.15S294.35,416.48,296.47,417.13Z" style="fill:#ad6359"></path><path d="M374.57,184.1S369,217.93,368.64,219c0,0-2.06,1-5.78,2.7L354.57,387l-38.77.4S311.46,250.91,322,204.47c2.33-10.22,5.18-20.37,5.18-20.37Z" style="fill:#263238"></path><path d="M342.56,287.32c-.43-2.29,8.79-66.85,10.65-69,.21-.26,21.66,2.16,21.66,2.16,1.11.49,33.67-3.68,33.67-3.68l-.64,41.3-40.16,4s-4.85,8.22-9.53,15.31l0,0a89.55,89.55,0,0,1-6.33,9C349.57,288.56,343,289.62,342.56,287.32Z" style="fill:#ad6359"></path><path d="M350.08,184.1h26.39s1.92,6.8,3.31,7.35c7.62,3,40,11.72,58.66,21.63,16.11,8.52,17.74,29.7-4.14,38.1-30,11.51-61.23,10.36-61.23,10.36l-.51-42.08s23.54-3.22,46-2.66c0,0-23.75,7.14-49.09,2.78-5.8-1-17.1-6.86-17.1-6.86Z" style="fill:#263238"></path><path d="M429.4,216.48a122.86,122.86,0,0,0-14.22-.8c1.83-.4,3.67-.72,5.49-1,.11,0,.11-.18,0-.17a35.65,35.65,0,0,0-6.36,1.17c-3.14,0-6.28.11-9.42.28-8.2.42-10,.59-18.16,1.4-4.65.45-9.38,1.54-14,2a.41.41,0,0,0-.38.41c0,1.22.09,2.43.14,3.65a.24.24,0,0,0,.47,0c.05-1.09.13-2.18.16-3.28,8.08-.67,9.85-1.37,17.93-2.06s16.37-1.22,24.58-1.42c4.6-.1,9.18-.12,13.78,0C429.48,216.65,429.5,216.49,429.4,216.48Z" style="fill:#37474f"></path><path d="M347.06,210a127.53,127.53,0,0,1,20.66,8.81c.26.14.11.55-.17.44-6.94-2.71-13.95-5.68-20.75-8.79C346.27,210.22,346.51,209.83,347.06,210Z" style="fill:#37474f"></path><path d="M334.29,121.54a2.68,2.68,0,0,0-1.06,2.8,2.71,2.71,0,0,0,3,2.06,2.8,2.8,0,0,0,0,1.15,3,3,0,0,0,3.3,2.28,2.41,2.41,0,0,0,0,1,2.71,2.71,0,0,0,4.77,1.06,2.69,2.69,0,0,0,3.19,1.81,2.76,2.76,0,0,0,1-.49c0,.07,0,.16.05.24a2.71,2.71,0,0,0,5.14.42,2.69,2.69,0,0,0,5-.39,3,3,0,0,0,2,.21,2.9,2.9,0,0,0,1.86-1.36,2.92,2.92,0,0,0,2.25.38,3,3,0,0,0,2.3-2.74,2.93,2.93,0,0,0,1.06,0,2.7,2.7,0,0,0,2.08-2.9,2.8,2.8,0,0,0,1.32,0,3,3,0,0,0,2.23-3.57,2.5,2.5,0,0,0-.38-.9,2,2,0,0,0,.48-.06,2.71,2.71,0,0,0,2-3.24,2.68,2.68,0,0,0-.71-1.29,3,3,0,0,0,2-3.49,2.88,2.88,0,0,0-.79-1.43,3,3,0,0,0,1.26-3.17,2.93,2.93,0,0,0-1.66-2,2.67,2.67,0,0,0,.42-2.14,2.71,2.71,0,0,0-1.34-1.76,2.93,2.93,0,0,0,.62-2.57,3,3,0,0,0-2.67-2.3,2.8,2.8,0,0,0,0-1.29,2.71,2.71,0,0,0-2.89-2.09,2.91,2.91,0,0,0,0-1.28,3,3,0,0,0-3.57-2.23,3.35,3.35,0,0,0-.65.24,2.54,2.54,0,0,0-.07-.47,3,3,0,0,0-3.57-2.23,2.46,2.46,0,0,0-.7.26,2.39,2.39,0,0,0-.06-.84,3,3,0,0,0-5.48-.85,3,3,0,0,0-4.63.43,2.7,2.7,0,0,0-5,.42A2.7,2.7,0,0,0,342.27,91a3,3,0,0,0-4.68,2.51,2.75,2.75,0,0,0-1,0,2.72,2.72,0,0,0-2,3.25,2.65,2.65,0,0,0,.39.89.86.86,0,0,0-.17,0,3,3,0,0,0-2.24,3.58,2.74,2.74,0,0,0,.32.81,2.51,2.51,0,0,0-.72.06,2.7,2.7,0,0,0-.81,4.94,2.71,2.71,0,0,0,.35,4.3,3,3,0,0,0,1.15,5.53,2.67,2.67,0,0,0-.74,2.52A2.73,2.73,0,0,0,334.29,121.54Z" style="fill:#263238"></path><path d="M373.24,166.65l3.57,18.65-49.44-1.2s6.75-37,15.31-47.45c5.79-7.08,13.08-7,18-2.58,1.24,1.12,11.34,14.64,13.22,21.6A17.22,17.22,0,0,1,373.24,166.65Z" style="fill:#455a64"></path><path d="M355.39,163.8a45.59,45.59,0,0,1,7.24,1.12c1.19.31,2.35.67,3.51,1.06.58.19,1.16.36,1.75.53a6.63,6.63,0,0,0,1.86.34.05.05,0,0,1,0,.1,13.36,13.36,0,0,1-1.79,0,14.26,14.26,0,0,1-1.71-.31c-1.2-.3-2.39-.65-3.59-1-2.42-.62-4.84-1.24-7.3-1.67C355.25,164,355.27,163.79,355.39,163.8Z" style="fill:#263238"></path><path d="M349.45,166.32a50.51,50.51,0,0,1,6-.47c1,0,2,0,3,.12.48,0,1,.09,1.43.15s1,.2,1.58.25c.05,0,.05.1,0,.09-.5,0-1,0-1.5,0h-1.51c-1,0-2,0-3,0-2,0-4,0-6,0C349.34,166.51,349.35,166.34,349.45,166.32Z" style="fill:#263238"></path><path d="M342.55,173.19v2.53L328,180.85c.16-.79.35-1.71.57-2.73Z" style="fill:#FFA52E"></path><path d="M342.55,168.1v2.52l-13.38,4.72c.19-.87.4-1.77.61-2.73h0Z" style="fill:#FFA52E"></path><path d="M342.55,163v2.53l-12.11,4.27c.22-.9.44-1.83.68-2.77Z" style="fill:#FFA52E"></path><polygon points="375.12 176.47 372.99 175.72 372.99 173.19 374.6 173.76 375.12 176.47" style="fill:#FFA52E"></polygon><polygon points="374.07 171 372.99 170.62 372.99 168.1 373.56 168.3 374.07 171" style="fill:#FFA52E"></polygon><path d="M374.19,163.42a16.06,16.06,0,0,1-.6,2.32l-.6-.21V163Z" style="fill:#FFA52E"></path><path d="M350.5,132.64c.34,1.35,4.05,7.29,8.19,6.83,2.13-.23,1.6-7.72,1.6-7.72l.07-.56.88-7.82-11-5.41S350.4,132.26,350.5,132.64Z" style="fill:#ad6359"></path><path d="M350.33,123.29a15.81,15.81,0,0,0,10,7.9l.89-7.82-11-5.41S350.29,120.4,350.33,123.29Z" style="fill:#263238"></path><path d="M371.15,110.72c2.26,13.62-5.65,16.51-8.59,17-2.67.44-11.81,1.59-15.46-11.73s2-18.67,8-20S368.9,97.09,371.15,110.72Z" style="fill:#ad6359"></path><path d="M366.62,107.92c-.32,0-.62-.06-.95-.09a1.56,1.56,0,0,1-.94-.29.48.48,0,0,1-.07-.59,1.2,1.2,0,0,1,1.17-.41,1.77,1.77,0,0,1,1.18.51A.52.52,0,0,1,366.62,107.92Z" style="fill:#263238"></path><path d="M357.23,108.94c.32-.08.6-.19.91-.3a1.56,1.56,0,0,0,.87-.47.5.5,0,0,0-.07-.6,1.21,1.21,0,0,0-1.22-.16,1.83,1.83,0,0,0-1.05.75A.52.52,0,0,0,357.23,108.94Z" style="fill:#263238"></path><path d="M360.54,119.55c.19.25.38.58.71.66a2.4,2.4,0,0,0,1-.1s.06,0,0,0a1.28,1.28,0,0,1-1.26.35,1,1,0,0,1-.61-.93S360.51,119.52,360.54,119.55Z" style="fill:#263238"></path><path d="M364.47,115.82s.33,1.38.4,2a3.56,3.56,0,0,1-3.56-.72c-.06,0,0-.13.09-.1a4.72,4.72,0,0,0,2.94.53c0-.19-.65-2.34-.55-2.36a5.71,5.71,0,0,1,1.53.19c-.61-2.89-1.69-5.66-2.25-8.55a.09.09,0,0,1,.16-.06,48.86,48.86,0,0,1,2.83,9.1C366.15,116.26,364.74,115.91,364.47,115.82Z" style="fill:#263238"></path><path d="M359.61,112s-.06.06-.05.09c.22.82.33,1.8-.35,2.24,0,0,0,.06,0,0C360.11,114.07,360,112.77,359.61,112Z" style="fill:#263238"></path><path d="M358.05,112.81a.94.94,0,0,1-.18.25.55.55,0,0,1-.43.2c-.52,0-.79-.51-.87-1,0,0,0-.06,0,0,.24.25.51.5.8.42s.33-.24.48-.41A2.49,2.49,0,0,0,358.05,112.81Z" style="fill:#263238"></path><path d="M359.88,113.12a1.21,1.21,0,0,1-.15.68.94.94,0,0,1-.61.45.84.84,0,0,1-.75-.2,1.71,1.71,0,0,1-.38-.58,3.17,3.17,0,0,1-.12-.41,1.92,1.92,0,0,1,0-.86,2.49,2.49,0,0,0,.16.61,3.43,3.43,0,0,0,.23.52c.19.33.47.59.75.51s.48-.35.53-.74a6.16,6.16,0,0,0,0-1.21A2.69,2.69,0,0,1,359.88,113.12Z" style="fill:#263238"></path><path d="M365.23,110.7s.07,0,.07.06c.09.85.33,1.8,1.13,2a0,0,0,0,1,0,.05C365.48,112.78,365.18,111.51,365.23,110.7Z" style="fill:#263238"></path><path d="M367,110.87a.72.72,0,0,0,.25.18.55.55,0,0,0,.47,0c.48-.19.56-.76.45-1.27,0,0,0,0,0,0-.14.31-.31.64-.61.67a1.06,1.06,0,0,1-.59-.21A2.68,2.68,0,0,1,367,110.87Z" style="fill:#263238"></path><path d="M365.36,111.81a1.28,1.28,0,0,0,.38.59.93.93,0,0,0,.74.2.85.85,0,0,0,.62-.45,1.55,1.55,0,0,0,.15-.68,3,3,0,0,0,0-.42,1.88,1.88,0,0,0-.32-.8,2.68,2.68,0,0,1,.07.62,5.1,5.1,0,0,1,0,.57c-.06.38-.23.72-.52.75a.74.74,0,0,1-.75-.51,6.12,6.12,0,0,1-.42-1.14A2.76,2.76,0,0,0,365.36,111.81Z" style="fill:#263238"></path><path d="M347.57,116.64c2.31,0,2.15-5.36,2.15-5.36s4.64-.46,5.5-7.29a10.37,10.37,0,0,1-1.5,5.73s8.3-1.23,11-8.43c0,0-1,3.63-2.19,5a9.6,9.6,0,0,0,4.73-4.26s1.84,3.81,3.05,4.79c0,0-1.79-14.29-14.9-11.42,0,0-8.25,1.39-10.57,8.27S347.57,116.64,347.57,116.64Z" style="fill:#263238"></path><path d="M346.69,116c.64,1.83-4.43-6.49-4.53-7.84s1.83-8.19,7.18-11.55c4.47-2.81,10.44-1.76,11.48-1.56a8.34,8.34,0,0,1,3.24,1.35s-7.81-1.41-14.07,1.13C347,98.71,344.27,109.09,346.69,116Z" style="fill:#FFA52E"></path><path d="M346.86,96.2s1.08-4.14,4.49-5.62c0,0,.93,3.54,0,5.08-.45.76-3.14,1.85-3.6,1.49A6.58,6.58,0,0,1,346.86,96.2Z" style="fill:#FFA52E"></path><path d="M346.86,96.2a6.86,6.86,0,0,0,.93,1,.15.15,0,0,0,.08,0s.05,0,.09,0H348a4.19,4.19,0,0,0,1.55-.39,9,9,0,0,0-.84-1.41,2.44,2.44,0,0,0-1.35-.63A8.57,8.57,0,0,0,346.86,96.2Z" style="fill:#050400;opacity:0.1"></path><path d="M346.15,96.94s-5.15.75-7.19,2.55a7,7,0,0,0,4.73,2c1.19,0,3.81-3,3.45-3.57A5.12,5.12,0,0,0,346.15,96.94Z" style="fill:#FFA52E"></path><path d="M345,97.15a3,3,0,0,0,.58,1.6,2.7,2.7,0,0,0,.9.61c.5-.63.81-1.2.67-1.4a5.45,5.45,0,0,0-1-1S345.69,97,345,97.15Z" style="fill:#050400;opacity:0.1"></path><path d="M346,98.22a1.69,1.69,0,0,0,2.42-2.37A1.69,1.69,0,0,0,346,98.22Z" style="fill:#FFA52E"></path><path d="M353.56,117.37a34.45,34.45,0,0,1-5.75-3.46,29,29,0,0,1,3,1.6C351.72,116.09,352.66,116.69,353.56,117.37Z" style="fill:#fff"></path><path d="M348.09,119.12l1.45,1.91c.49.63,1,1.27,1.47,1.88a32.56,32.56,0,0,0,3.21,3.54,14,14,0,0,1-3.53-3.28A21.81,21.81,0,0,1,348.09,119.12Z" style="fill:#fff"></path><path d="M353.68,117.18c.82-1,11-4.66,11.31-4.74a44.61,44.61,0,0,1,6.56,1.77c.4.31.75,8.47-1.15,10.67a30.61,30.61,0,0,1-4.79,4.4c-.2.07-7.42.39-11.39-2.83C353.53,125.89,352.73,118.28,353.68,117.18Z" style="fill:#ebebeb"></path><path d="M366.61,124.88l-.93,4.36-.07,0c-.2.07-7.42.39-11.39-2.83-.7-.56-1.49-8.17-.54-9.27s11-4.66,11.31-4.74h0l1.18,5.11Z" style="fill:#fff"></path><path d="M361.25,114.79a32.35,32.35,0,0,1,3.95-1.55,28.36,28.36,0,0,1,2.85.54l.06.59s-2.49-.52-2.77-.48-3.93,1.44-3.93,1.44Z" style="fill:#dbdbdb"></path><rect x="354.14" y="118.28" width="1.39" height="0.36" transform="translate(25.51 -58.99) rotate(9.86)" style="fill:#dbdbdb"></rect><rect x="354.49" y="125.31" width="1.39" height="0.36" transform="translate(26.72 -58.95) rotate(9.86)" style="fill:#dbdbdb"></rect><path d="M363.51,129v-.08h.32V129Zm-.32,0-.32,0v-.08l.32,0Zm1,0v-.08h.32V129Zm-1.6-.08-.32,0v-.08l.32,0Zm-.64-.06-.32,0v-.08l.32,0Zm2.88.14v-.08h.32V129Zm-3.52-.22-.32-.05v-.08l.32,0Zm4.16.19v-.08h0a1.28,1.28,0,0,0,.22-.15l.05.07-.25.16Zm-4.79-.29-.32-.06v-.08l.32.06Zm-.64-.12-.31-.06,0-.08.31.06Zm-.62-.14-.31-.07,0-.08.31.08Zm-.62-.15-.31-.09,0-.08.31.09Zm7.22.33-.05-.06.25-.2.05.06Zm-7.84-.52-.3-.1,0-.07.31.1Zm-.61-.2-.3-.12,0-.07.3.11Zm9,.32-.05-.06.25-.21.05.06Zm-9.54-.56-.3-.13,0-.07.3.13Zm-.59-.27-.29-.14,0-.07.29.14Zm10.62.42-.05-.06.24-.21,0,.06Zm-11.19-.71-.28-.17.05-.07.27.17Zm11.68.28-.06-.06.24-.21.05.06Zm-12.23-.62-.26-.18,0-.07.27.18Zm-.52-.37-.15-.12a.35.35,0,0,1-.09-.11l.07,0a.21.21,0,0,0,.08.1l.14.11Zm13.22.56-.05-.06.23-.21.06.05Zm-13.6-1.09c0-.09-.06-.2-.09-.31l.08,0q0,.17.09.3Zm14.07.65-.06,0c.08-.08.16-.15.23-.23l.06.06Zm.46-.44-.06-.06.23-.23.05.06Zm-14.7-.83c0-.1-.05-.21-.07-.32l.08,0a3,3,0,0,0,.07.32Zm15.15.37-.06-.06.22-.23.06,0Zm-15.28-1c0-.11,0-.21,0-.32h.07l.06.31Zm15.71.53-.06-.06.22-.23.06,0Zm-15.81-1.17c0-.1,0-.21-.05-.32H354c0,.11,0,.22.05.32Zm16.24.68-.07,0,.18-.26.07,0A3.16,3.16,0,0,1,370.17,124.6Zm-16.33-1.32c0-.1,0-.21,0-.31h.08c0,.1,0,.21,0,.31Zm16.66.77-.07,0c0-.09.08-.19.13-.29l.07,0C370.59,123.86,370.54,124,370.5,124.05Zm-16.73-1.4,0-.32h.08l0,.32Zm17,.8-.07,0c0-.09.07-.2.1-.3l.07,0A2.81,2.81,0,0,1,370.74,123.45Zm-17-1.44c0-.11,0-.22,0-.32h.08c0,.11,0,.22,0,.32Zm17.22.82-.07,0c0-.1.05-.2.07-.31l.08,0A2.81,2.81,0,0,1,370.93,122.83Zm-17.26-1.46c0-.11,0-.22,0-.32h.08c0,.11,0,.22,0,.32Zm17.41.84-.08,0,.06-.31h.08Zm-17.44-1.48c0-.11,0-.22,0-.33h.08c0,.11,0,.22,0,.32Zm17.56.85-.08,0c0-.1,0-.21,0-.31h.08C371.23,121.37,371.21,121.47,371.2,121.58Zm-17.58-1.5v-.32h.08v.32Zm17.67.86h-.08l0-.32h.08Zm-17.66-1.5c0-.1,0-.2,0-.3v0h.08v0c0,.1,0,.2,0,.3Zm17.73.86h-.08l0-.32h.08Zm-17.62-1.49h-.08l0-.32h.08Zm17.67.85h-.08c0-.11,0-.21,0-.32h.08C371.42,119.45,371.42,119.56,371.41,119.66Zm-17.59-1.49h-.08a2.55,2.55,0,0,1,.07-.32l.07,0Zm17.55.85c0-.11,0-.21,0-.32h.08c0,.11,0,.22,0,.32ZM354,117.57l-.08,0a1.06,1.06,0,0,1,.13-.22,1.29,1.29,0,0,1,.26-.21l0,.07a1.42,1.42,0,0,0-.24.19A.75.75,0,0,0,354,117.57Zm17.4.81v-.32h.08v.32ZM354.62,117l0-.07.28-.15,0,.07Zm16.78.73v-.32h.08v.32Zm-16.22-1,0-.07.29-.14,0,.07Zm.58-.27,0-.08.29-.13,0,.07Zm15.63.66c0-.11,0-.21,0-.32h.08c0,.1,0,.21,0,.32Zm-15-.93,0-.07.29-.13,0,.08Zm.59-.25,0-.07.29-.13,0,.07Zm14.43.54c0-.11,0-.21,0-.32h.07c0,.1,0,.21,0,.32Zm-13.84-.79,0-.07.29-.13,0,.08Zm.59-.24,0-.08.3-.12,0,.08Zm13.21.39a3,3,0,0,0,0-.31h.08c0,.1,0,.21,0,.32Zm-12.61-.63,0-.08.3-.12,0,.08Zm.59-.24,0-.08.3-.11,0,.07Zm.6-.24,0-.07.3-.12,0,.08Zm11.36.48c0-.12,0-.23,0-.32h.08c0,.09,0,.2.05.32Zm-10.77-.71,0-.07.3-.12,0,.08Zm.6-.23,0-.07.3-.12,0,.08Zm10,.33,0,0-.22-.11,0-.07a1.46,1.46,0,0,1,.24.11l0,.07ZM361.7,114l0-.07.3-.11,0,.07Zm8.89.3-.3-.09,0-.08.31.1Zm-8.29-.52,0-.08.3-.11,0,.08Zm7.68.33-.31-.09,0-.08.3.09Zm-.61-.18-.31-.09,0-.08.31.09Zm-6.47-.38,0-.07.3-.11,0,.07Zm5.85.21-.31-.09,0-.08.31.09Zm-.62-.17-.31-.08,0-.08.31.08Zm-4.62-.26,0-.07.3-.11,0,.07Zm4,.09-.31-.08,0-.07.31.08Zm-.62-.15-.31-.08v-.08l.32.08Zm-2.78-.16,0-.07.31-.11,0,.07Zm2.15,0-.31-.07,0-.08.31.08Zm-.62-.14-.31-.07v-.08l.32.07Zm-.92-.08,0-.07.17-.06a.48.48,0,0,1,.16,0v.08h-.13Z" style="fill:#dbdbdb"></path><path d="M363.37,129.12l-.32,0V129l.32,0Zm.32,0v-.08H364v.08Zm-1,0-.32,0V129l.32,0Zm1.6.07v-.08h.32v.08Zm-2.24-.13-.32,0v-.08l.32,0Zm2.88.13v-.08l.32,0v.08Zm-3.52-.2-.32,0,0-.08.31.05Zm-.63-.1-.32,0v-.08l.32.06Zm4.8.21,0-.06.26-.19.05.06Zm-5.44-.32-.31-.06,0-.08.31.07Zm-.62-.12-.32-.08,0-.07.31.07Zm-.63-.15-.31-.09,0-.07.31.08Zm-.62-.18-.3-.09,0-.08.31.1Zm7.83.39-.05-.07.25-.2.05.07Zm-8.44-.58-.3-.11,0-.08.3.11Zm-.6-.22-.3-.13,0-.07.29.12Zm9.54.39-.05-.06a2.25,2.25,0,0,0,.24-.21l.05.07Zm-10.13-.65-.29-.13,0-.08.29.14Zm-.58-.28-.28-.15,0-.07.28.15Zm11.2.52-.05-.06.24-.21.05.06ZM355.37,127l-.27-.18,0-.06.27.17Zm12.24.4-.05-.06.23-.21.06.06Zm-12.78-.76-.26-.19.05-.06.26.19Zm13.25.33-.05-.06.23-.21.06,0Zm-13.76-.74a1.58,1.58,0,0,1-.14-.29l.07,0a1.79,1.79,0,0,0,.14.28Zm14.23.3-.05-.06.23-.22,0,.06Zm-14.47-.9a2.33,2.33,0,0,1-.08-.31l.07,0c0,.11.06.22.08.31Zm14.93.45-.06,0,.23-.23.06.06ZM353.93,125a2.82,2.82,0,0,1-.07-.31l.08,0,.06.32Zm15.53.62-.06-.05.22-.23.06,0Zm-15.65-1.25c0-.1,0-.21-.05-.31l.08,0a3.06,3.06,0,0,0,.05.32Zm16.09.79-.06-.06.21-.24.06.06Zm.42-.49-.06,0a2.33,2.33,0,0,0,.17-.26l.07,0A3.16,3.16,0,0,1,370.32,124.7Zm-16.61-.93c0-.11,0-.21,0-.32h.08c0,.11,0,.21,0,.32Zm17,.38-.07,0c0-.09.09-.19.13-.29l.07,0Zm-17-1c0-.1,0-.21,0-.32h.08c0,.11,0,.22,0,.32Zm17.28.42-.08,0a2.81,2.81,0,0,0,.1-.31l.08,0C371,123.35,370.94,123.45,370.91,123.55Zm-17.35-1.06,0-.32h.08l0,.32Zm17.54.45-.08,0c0-.1.06-.21.08-.31l.08,0C371.15,122.73,371.13,122.84,371.1,122.94Zm-17.59-1.09,0-.32h.08l0,.32Zm17.74.46h-.08l.06-.32.08,0Zm-17.78-1.1c0-.1,0-.21,0-.32h.08c0,.1,0,.21,0,.32Zm17.9.47h-.08c0-.1,0-.21,0-.32l.08,0C371.4,121.47,371.39,121.58,371.37,121.68Zm-17.93-1.11c0-.11,0-.21,0-.32h.08c0,.1,0,.21,0,.32Zm18,.48h-.07l0-.32h.08C371.49,120.84,371.48,120.94,371.46,121.05Zm-18-1.12v-.32h.08v.32Zm18.11.48h-.08l0-.32h.08Zm-18.1-1.12c0-.07,0-.13,0-.19V119h.08v.14c0,.06,0,.12,0,.18Zm18.15.48h-.08l0-.32h.08Zm-18-1.12h-.08a2.79,2.79,0,0,1,0-.32h.08A2.91,2.91,0,0,0,353.56,118.65Zm18.07.48h-.08v0c0-.09,0-.19,0-.29h.08c0,.1,0,.2,0,.3Zm-18-1.11h-.08c0-.12.05-.22.07-.32l.08,0A2.21,2.21,0,0,0,353.65,118Zm17.93.47c0-.11,0-.22,0-.32h.08c0,.11,0,.21,0,.32Zm-17.74-1.06-.08,0a1,1,0,0,1,.1-.15,1.29,1.29,0,0,1,.26-.21l0,.07a2.22,2.22,0,0,0-.24.19A.47.47,0,0,0,353.84,117.43Zm17.75.42v-.32h.08v.32Zm-17.16-.92,0-.07.29-.15,0,.07Zm.57-.29,0-.08.29-.14,0,.08Zm16.59.57c0-.11,0-.22,0-.32h.08c0,.1,0,.21,0,.32Zm-16-.85,0-.07.29-.14,0,.08Zm.58-.26,0-.08.3-.13,0,.08Zm.59-.26,0-.07.3-.13,0,.07Zm14.82.73c0-.11,0-.22,0-.32h.08c0,.1,0,.21,0,.32Zm-14.23-1,0-.07.3-.13,0,.08Zm.6-.24,0-.08.29-.12,0,.08Zm13.6.58c0-.11,0-.22,0-.32h.08c0,.11,0,.21,0,.33Zm-13-.83,0-.07.3-.12,0,.08Zm.59-.23,0-.08.3-.12,0,.08Zm12.37.42c0-.11,0-.22,0-.31h.08c0,.09,0,.2,0,.32Zm-11.77-.66,0-.07.3-.12,0,.08Zm.6-.23,0-.08.3-.11,0,.07Zm.6-.23,0-.08.3-.11,0,.07Zm10.48.49c0-.21-.09-.25-.1-.26l0-.07h0s.07.09.12.32Zm-9.88-.72,0-.07.3-.12,0,.08Zm9.49.33-.3-.11,0-.07.3.1Zm-8.89-.56,0-.07.3-.11,0,.07Zm8.29.35-.31-.09,0-.08.31.1Zm-.62-.18-.31-.09,0-.08.31.09Zm-7.07-.39,0-.08.3-.11,0,.08Zm6.45.21-.3-.08,0-.08.31.09Zm-.61-.17-.31-.08,0-.08.31.09Zm-5.24-.26,0-.08.3-.11,0,.08Zm4.62.1-.31-.08,0-.08.31.08Zm-4-.33,0-.07.3-.11,0,.08Zm3.39.17-.31-.08,0-.08.31.08Zm-.62-.16-.31-.08,0-.07.31.07Zm-2.16-.22,0-.08.31-.11,0,.08Zm1.54.07-.31-.07v-.08l.32.07Zm-.63-.14-.31-.06v-.08l.32.06Z" style="fill:#dbdbdb"></path><rect x="356.01" y="118.5" width="0.16" height="0.32" transform="translate(200.62 460.29) rotate(-83.96)" style="fill:#dbdbdb"></rect><path d="M364.93,119.51l-.53,0v-.16l.53,0h.1v.16Zm-1.16-.07-.63,0v-.16l.63,0Zm-1.26-.09-.63,0,0-.16.63,0Zm-1.25-.11-.63,0V119l.63,0Zm-1.26-.11-.63-.06,0-.16.63.06Zm-1.26-.12-.62-.06v-.16l.63.06Zm-1.25-.12-.63-.07,0-.16.63.07Z" style="fill:#dbdbdb"></path><path d="M365.66,119.54v-.16H366v.16Z" style="fill:#dbdbdb"></path><rect x="356.26" y="125.43" width="0.16" height="0.32" transform="translate(193.75 466.64) rotate(-83.93)" style="fill:#dbdbdb"></rect><path d="M364.49,126.37l-.54,0v-.16l.57,0h.11v.16h-.14Zm-1.22-.07-.67,0v-.16l.68,0Zm-1.35-.1-.68-.06V126l.68.06Zm-1.36-.12-.68-.06,0-.16.67.06ZM359.2,126l-.67-.06v-.16l.68.07Zm-1.35-.13-.68-.07,0-.16.67.07Z" style="fill:#dbdbdb"></path><path d="M365.31,126.41v-.16h.32v.16Z" style="fill:#dbdbdb"></path><path d="M366.67,119.44l-.05-.15.6-.21.06.15Zm1.21-.42-.05-.15.6-.22.06.15Zm1.21-.44-.06-.15.6-.23.06.15Zm1.2-.47-.06-.14.59-.25.06.14Zm1.17-.53-.07-.14.21-.12.09.14Z" style="fill:#dbdbdb"></path><path d="M366.43,126.31l-.07-.15.57-.28.07.14Zm1.14-.59-.07-.14.56-.3.08.14Zm1.13-.61-.08-.14.56-.32.08.14Zm1.11-.65-.08-.14c.19-.11.37-.23.53-.34l.09.13Zm1.07-.73-.1-.13.11-.09.1.12A.52.52,0,0,1,370.88,123.73Z" style="fill:#dbdbdb"></path><path d="M365,112.44c.24.86.47,1.73.69,2.59s.44,1.73.65,2.6h0l.11,1.77c0,.59.08,1.18.1,1.77l.17,3.55v0c-.35,1.5-.7,3-1.09,4.5.25-1.53.55-3,.84-4.56v0l-.22-3.55c0-.59-.06-1.18-.09-1.77l-.08-1.78v0c-.19-.87-.37-1.75-.56-2.62S365.15,113.32,365,112.44Z" style="fill:#c7c7c7"></path><path d="M356.21,124.75l.07-.67a.06.06,0,0,1,.06,0h0l.36,0a.09.09,0,0,1,.06.07.07.07,0,0,1-.07.06l-.3,0,0,.2.26,0a.05.05,0,0,1,.05.07.05.05,0,0,1-.06.05l-.27,0,0,.27a.06.06,0,0,1-.07,0A.06.06,0,0,1,356.21,124.75Z" style="fill:#dbdbdb"></path><path d="M356.89,124.81l.07-.66a.06.06,0,0,1,.06-.06h0l.36,0a.05.05,0,0,1,.05.06.06.06,0,0,1-.06.06l-.31,0,0,.21.27,0a.08.08,0,0,1,.05.07s0,.06-.07.06l-.26,0,0,.27a.07.07,0,1,1-.13,0Z" style="fill:#dbdbdb"></path><path d="M357.86,124.66l-.14,0,0,.25a.08.08,0,0,1-.07,0s-.06,0-.06-.07l.06-.66s0-.06.07,0h0l.2,0a.24.24,0,0,1,.22.26A.24.24,0,0,1,357.86,124.66Zm-.13-.14h.14a.12.12,0,0,0,.13-.1.13.13,0,0,0-.11-.13h-.14Z" style="fill:#dbdbdb"></path><path d="M358.69,125a.09.09,0,0,1-.07.06l-.4,0h0s0,0,0,0a.05.05,0,0,1,0-.08l.36-.27a.24.24,0,0,0,.06-.11.19.19,0,0,0,0-.1.16.16,0,0,0-.1,0,.14.14,0,0,0-.11,0l0,0a.06.06,0,1,1-.08-.1l0,0a.3.3,0,0,1,.19,0,.31.31,0,0,1,.19.11.25.25,0,0,1,.05.19.27.27,0,0,1-.11.19l-.23.17.24,0A.07.07,0,0,1,358.69,125Z" style="fill:#dbdbdb"></path><path d="M349.44,114.93s-3.34-4.06-5.2-2.84.87,7.28,3.23,8a2.33,2.33,0,0,0,3-1.49Z" style="fill:#ad6359"></path><path d="M345.07,113.8s0,.06,0,.07a5.88,5.88,0,0,1,3.33,3.44,1.29,1.29,0,0,0-1.95-.2s0,.1.05.08a1.44,1.44,0,0,1,1.61.38,6.54,6.54,0,0,1,.86,1.22c.08.14.33,0,.27-.12l0,0C349.09,116.58,347.28,113.84,345.07,113.8Z" style="fill:#263238"></path><path d="M347.69,119.51a.59.59,0,1,0,.36-.76A.59.59,0,0,0,347.69,119.51Z" style="fill:#455a64"></path><path d="M348,119.41a.3.3,0,0,0,.36.17.29.29,0,0,0,.17-.36.28.28,0,0,0-.36-.17A.29.29,0,0,0,348,119.41Z" style="fill:#263238"></path><path d="M346.6,118.87a.42.42,0,0,0,.54.25.41.41,0,0,0,.25-.53.43.43,0,0,0-.54-.26A.43.43,0,0,0,346.6,118.87Z" style="fill:#455a64"></path><path d="M347.69,134.42c-5.34-1.5-11.51,17-6.74,18.56C346.58,154.77,352.3,135.71,347.69,134.42Z" style="fill:#ad6359"></path><path d="M341.33,143.54c-8.69-8-19.8-23.37-22.53-31.17-1.81-5.17,12.44-25.86,17.47-34.74,1.75-3.07,12.66,11.79,11.09,15.23-2.83,6.22-9.4,15.44-9,17.76.7,3.78,2.52,9.23,7.56,18.71C352.6,141.85,347.41,149.16,341.33,143.54Z" style="fill:#ad6359"></path><path d="M340.44,138.25s2.84,3.7,3.22,5.39,1,3.89,1,3.89" style="fill:#263238"></path><path d="M354.88,84.69c-1.75,3.93-7.52,8.17-7.52,8.17l-11.7-14.37s4.56-6,5.57-10.32c.24-1.06.69-6.34,2-11.7,1.48-6.07,3.8-12.25,4.43-12.67,1.21-.81,3.11.7,3.08,5s-1.54,12.75-1.5,13.28a2.69,2.69,0,0,0,.14.51h0c.13.2,5.72,2.74,6.27,5.46S355.35,84.05,354.88,84.69Z" style="fill:#ad6359"></path><path d="M346,69.87s-2.18-10.31-1.32-12.32S348.82,42.63,350,41.8s3.11.7,3.08,5-1.54,12.75-1.5,13.28,3.41,9.18,3.48,10.07S346,69.87,346,69.87Z" style="fill:#ad6359"></path><path d="M344,64.24c0-1.15.08-2.31.14-3.46,0-.58.08-1.15.14-1.73,0-.29.06-.58.1-.87a3.21,3.21,0,0,1,.07-.43,4.24,4.24,0,0,1,.11-.45c.66-2.2,1.32-4.41,2-6.61s1.36-4.4,2.11-6.6a7.33,7.33,0,0,1,.8-1.58,3,3,0,0,1,.61-.68,1.47,1.47,0,0,1,.88-.38,1.22,1.22,0,0,1,.87.37,2.6,2.6,0,0,1,.51.73,6.56,6.56,0,0,1,.53,1.66,7.66,7.66,0,0,0-.67-1.58,2.55,2.55,0,0,0-.53-.64.92.92,0,0,0-.7-.23,1.78,1.78,0,0,0-1.17,1,6.37,6.37,0,0,0-.68,1.53c-.64,2.2-1.3,4.42-2,6.62s-1.37,4.4-2.13,6.58a7.92,7.92,0,0,0-.35,1.65c-.08.56-.15,1.14-.22,1.71Z" style="fill:#263238"></path><path d="M348,71.24s-2.35-11.3-1.49-13.32S350.6,43,351.79,42.17s3.11.7,3.08,5-1.54,12.74-1.5,13.27,2.43,9.22,2.5,10.11S348,71.24,348,71.24Z" style="fill:#ad6359"></path><path d="M345.26,66c.09-1.41.22-2.82.36-4.23.08-.7.17-1.4.27-2.11q.08-.53.18-1a7,7,0,0,1,.27-1.05c.83-2.7,1.67-5.4,2.54-8.1l1.32-4,.34-1a9.22,9.22,0,0,1,.39-1,4.32,4.32,0,0,1,.61-.94,1.89,1.89,0,0,1,1-.67,1,1,0,0,1,.65.06,1.45,1.45,0,0,1,.51.35,3.46,3.46,0,0,1,.59,1,9.74,9.74,0,0,1,.57,2.08,12.38,12.38,0,0,1,0,4.25,13.07,13.07,0,0,0-.26-4.19,9.52,9.52,0,0,0-.63-2,3,3,0,0,0-.54-.82.77.77,0,0,0-.75-.25,1.38,1.38,0,0,0-.71.53,3.84,3.84,0,0,0-.51.85c-.27.61-.45,1.31-.68,2l-1.28,4c-.87,2.69-1.73,5.38-2.66,8.06a7,7,0,0,0-.3,1c-.08.34-.15.68-.21,1-.13.69-.25,1.39-.36,2.08Z" style="fill:#263238"></path><path d="M347.58,71.23s.26-10.29,1.05-12.17,2.5-10.83,3.6-11.6,2.89.65,2.87,4.68-.07,8.8,0,9.3.73,8.31.8,9.14S347.58,71.23,347.58,71.23Z" style="fill:#ad6359"></path><path d="M346.8,68.47c.16-1.82.35-3.63.53-5.44.09-.91.19-1.81.3-2.72l.08-.68c0-.22.08-.47.13-.69.11-.45.23-.89.36-1.33.52-1.75,1.07-3.49,1.68-5.21.31-.86.62-1.71,1-2.57.16-.42.33-.85.52-1.27a8.89,8.89,0,0,1,.64-1.27,1.16,1.16,0,0,1,.73-.5,1.17,1.17,0,0,1,.85.22,3.27,3.27,0,0,1,1,1.14,5.71,5.71,0,0,1,.77,2.74c.05,1.83,0,3.65.05,5.47s0,3.66,0,5.45c0,.9.1,1.81.15,2.72s.09,1.82.1,2.73c-.31-1.8-.56-3.59-.76-5.42l0-5.48c0-1.82,0-3.64-.09-5.45a5.23,5.23,0,0,0-.68-2.47,2.78,2.78,0,0,0-.77-.94.5.5,0,0,0-.79.12,8,8,0,0,0-.6,1.17c-.18.41-.35.83-.52,1.25-.34.84-.66,1.69-1,2.54-.61,1.71-1.24,3.42-1.78,5.15-.14.44-.27.87-.39,1.3a11.17,11.17,0,0,0-.24,1.33l-.38,2.7Z" style="fill:#263238"></path></g><g id="freepik--character-1--inject-475"><polygon points="241.21 429.27 88.82 429.27 117.52 402 212.52 402 241.21 429.27" style="fill:#455a64"></polygon><rect x="88.82" y="429.27" width="152.1" height="2.41" style="fill:#37474f"></rect><path d="M130.18,124.83c-2.41,9.09-6.83,19.6-4.84,29.14,1.58,7.47,7,13.45,13,17.84,13.2,9.65,33.47,14.94,46.87,2.67,5.34-4.91,8.67-16.82,2.85-22.72-3-3-7-4.44-10.72-6.36A17.19,17.19,0,0,1,168,133.8c-2.65-10.43-.21-17.12,1.11-27.5a7.4,7.4,0,0,0-1.32-5.88,13.12,13.12,0,0,0-5.31-4.67,13.09,13.09,0,0,0-6-2.37c-4.62-.51-9.85,2.7-13.9,4.54s-6.32,4.24-7.56,8.61C133.35,112.61,131.81,118.73,130.18,124.83Z" style="fill:#263238"></path><path d="M128.11,128.91c2.75-8.19,5.65-16.31,8.5-24.46,0,0,.1,0,.08,0-2.15,6.78-4.21,13.57-6.45,20.32s-4.91,13.26-6.52,20c-3.62,15.23,10.75,24.87,23.91,26.95.6.1.38,1-.22.93-11.5-2.19-24.3-9.07-25-22.25C122,143.26,125.86,135.61,128.11,128.91Z" style="fill:#263238"></path><path d="M168.55,105.34a.13.13,0,1,1,.25.06c-1.45,8.49-3.93,18.25-.74,26.61a21.77,21.77,0,0,0,8,10.17c2.88,2,6.2,2.82,9.36,4.18,12.36,5.35,8.69,22.81-2.17,27.56-.23.1-.41-.29-.19-.4,7.75-3.82,12-12.91,8.15-21.1-3.09-6.58-11.78-6.6-17-10.92C163.36,132.54,165.63,117.49,168.55,105.34Z" style="fill:#263238"></path><path d="M167.71,140.7c8.54-7.82,23-27,23-33.38,0-5.09-9.18-20-16.58-28.83-2-2.38-14.48,11.45-12.27,13.93,4.6,5.2,9.89,13.33,10.18,14.82.59,3.07-9,19-12,26.22C155.43,144.8,161.92,146,167.71,140.7Z" style="fill:#ffc4c0"></path><path d="M154.89,84.69c1.75,3.93,7.52,8.17,7.52,8.17l11.7-14.37s-4.56-6-5.57-10.32c-.24-1.06-.69-6.34-2-11.7-1.48-6.07-3.8-12.25-4.43-12.67-1.21-.81-3.11.7-3.08,5s1.54,12.75,1.5,13.28a2.69,2.69,0,0,1-.14.51h0c-.13.2-5.72,2.74-6.27,5.46S154.42,84.05,154.89,84.69Z" style="fill:#ffc4c0"></path><path d="M163.77,69.87s2.18-10.31,1.32-12.32S161,42.63,159.76,41.8s-3.11.7-3.08,5,1.54,12.75,1.5,13.28-3.41,9.18-3.48,10.07S163.77,69.87,163.77,69.87Z" style="fill:#ffc4c0"></path><path d="M165.82,64.24c0-1.15-.08-2.31-.14-3.46,0-.58-.08-1.15-.14-1.73,0-.29-.06-.58-.1-.87a3.21,3.21,0,0,0-.07-.43,4.24,4.24,0,0,0-.11-.45c-.66-2.2-1.32-4.41-2-6.61s-1.36-4.4-2.11-6.6a7.33,7.33,0,0,0-.8-1.58,3,3,0,0,0-.61-.68,1.47,1.47,0,0,0-.88-.38,1.22,1.22,0,0,0-.87.37,2.6,2.6,0,0,0-.51.73,6.56,6.56,0,0,0-.53,1.66,7.66,7.66,0,0,1,.67-1.58,2.55,2.55,0,0,1,.53-.64.92.92,0,0,1,.7-.23,1.78,1.78,0,0,1,1.17,1,6.37,6.37,0,0,1,.68,1.53c.64,2.2,1.3,4.42,2,6.62s1.37,4.4,2.13,6.58a7.92,7.92,0,0,1,.35,1.65c.08.56.15,1.14.22,1.71Z" style="fill:#263238"></path><path d="M161.82,71.24s2.35-11.3,1.49-13.32S159.17,43,158,42.17s-3.11.7-3.08,5,1.54,12.74,1.5,13.27-2.43,9.22-2.5,10.11S161.82,71.24,161.82,71.24Z" style="fill:#ffc4c0"></path><path d="M164.51,66c-.09-1.41-.22-2.82-.36-4.23-.08-.7-.17-1.4-.27-2.11q-.07-.53-.18-1a7,7,0,0,0-.27-1.05c-.83-2.7-1.67-5.4-2.54-8.1l-1.32-4-.34-1a9.22,9.22,0,0,0-.39-1,4.32,4.32,0,0,0-.61-.94,1.89,1.89,0,0,0-1-.67,1,1,0,0,0-.65.06,1.45,1.45,0,0,0-.51.35,3.46,3.46,0,0,0-.59,1,9.74,9.74,0,0,0-.57,2.08,12.38,12.38,0,0,0,0,4.25,13.07,13.07,0,0,1,.26-4.19,9.52,9.52,0,0,1,.63-2,3,3,0,0,1,.54-.82.77.77,0,0,1,.75-.25,1.44,1.44,0,0,1,.72.53,4.22,4.22,0,0,1,.5.85c.27.61.45,1.31.68,2l1.28,4c.87,2.69,1.73,5.38,2.66,8.06a7,7,0,0,1,.3,1c.08.34.15.68.21,1,.13.69.25,1.39.36,2.08Z" style="fill:#263238"></path><path d="M162.19,71.23s-.26-10.29-1.05-12.17-2.5-10.83-3.6-11.6-2.89.65-2.87,4.68.07,8.8,0,9.3-.73,8.31-.8,9.14S162.19,71.23,162.19,71.23Z" style="fill:#ffc4c0"></path><path d="M163,68.47c-.16-1.82-.35-3.63-.53-5.44-.09-.91-.19-1.81-.3-2.72l-.08-.68c0-.22-.08-.47-.13-.69-.11-.45-.23-.89-.36-1.33-.52-1.75-1.07-3.49-1.68-5.21-.31-.86-.62-1.71-1-2.57-.16-.42-.33-.85-.52-1.27a8.89,8.89,0,0,0-.64-1.27,1.16,1.16,0,0,0-.73-.5,1.17,1.17,0,0,0-.85.22,3.27,3.27,0,0,0-1,1.14,5.71,5.71,0,0,0-.77,2.74c0,1.83,0,3.65,0,5.47s0,3.66,0,5.45c0,.9-.1,1.81-.15,2.72s-.09,1.82-.1,2.73c.31-1.8.56-3.59.76-5.42l0-5.48c0-1.82,0-3.64.09-5.45a5.23,5.23,0,0,1,.68-2.47,2.78,2.78,0,0,1,.77-.94.5.5,0,0,1,.79.12,8,8,0,0,1,.6,1.17c.18.41.35.83.52,1.25.34.84.66,1.69,1,2.54.62,1.71,1.24,3.42,1.78,5.15.14.44.27.87.39,1.3a11.17,11.17,0,0,1,.24,1.33l.38,2.7Z" style="fill:#263238"></path><path d="M200.83,417.13c-2.13.66-54.28.89-56.54-.62-.87-.56-1.18-9.35-1.24-20v-.33c0-2.19.16-38.28.16-38.28l36.88,0,1.85,38.69,0,.66s14.72,9.23,17,11.15S203,416.48,200.83,417.13Z" style="fill:#ffc4c0"></path><path d="M127.5,184.1s5.56,33.83,5.93,34.92c0,0,2.07,1,5.79,2.7L142.73,387l38.77.4s2.52-144.52-2.4-182.93c-.66-5.16-4.22-20.37-4.22-20.37Z" style="fill:#455a64"></path><path d="M181.88,358.58c0,2.08,0,4.06-.07,6l-22.11-8.25v-6Z" style="fill:#FFA52E"></path><path d="M182,347.47q0,3.07-.06,6l-18.12-6.76v-6Z" style="fill:#FFA52E"></path><path d="M182.06,336.36c0,2,0,4,0,6l-14.11-5.26v-6Z" style="fill:#FFA52E"></path><path d="M159.51,287.32c.44-2.29-8.78-66.85-10.64-69-.21-.26-21.66,2.16-21.66,2.16-1.11.49-33.67-3.68-33.67-3.68l.62,40,40.18,5.26s4.85,8.22,9.52,15.31l0,0a89.55,89.55,0,0,0,6.33,9C152.5,288.56,159.1,289.62,159.51,287.32Z" style="fill:#ffc4c0"></path><path d="M152,184.1H125.61s-1.92,6.8-3.32,7.35c-7.61,3-39.94,11.72-58.66,21.63-16.11,8.52-17.73,29.7,4.15,38.1C85.4,257.94,129,261.54,129,261.54l.51-42.08s-23.54-3.22-46-2.66c0,0,23.74,7.14,49.09,2.78,5.8-1,17.1-6.86,17.1-6.86Z" style="fill:#455a64"></path><path d="M105.75,259c-1.88-.25-3.81-.52-5.77-.8l-2.71-20.34,5.84,1.33Z" style="fill:#FFA52E"></path><path d="M95,257.45c-1.94-.31-3.88-.63-5.79-1L87,239.72l5.83,1.33Z" style="fill:#FFA52E"></path><path d="M84.21,255.54c-2-.4-4-.82-5.82-1.26l-1.69-12.7,5.83,1.34Z" style="fill:#FFA52E"></path><path d="M72.68,216.48a122.81,122.81,0,0,1,14.21-.8c-1.82-.4-3.66-.72-5.49-1-.1,0-.1-.18,0-.17a35.65,35.65,0,0,1,6.36,1.17c3.14,0,6.28.11,9.41.28,8.21.42,10,.59,18.17,1.4,4.65.45,9.38,1.54,14,2a.41.41,0,0,1,.38.41c0,1.22-.09,2.43-.14,3.65a.24.24,0,0,1-.47,0c-.05-1.09-.13-2.18-.16-3.28-8.08-.67-9.85-1.37-17.93-2.06s-16.37-1.22-24.58-1.42c-4.6-.1-9.18-.12-13.78,0C72.6,216.65,72.58,216.49,72.68,216.48Z" style="fill:#263238"></path><path d="M155,210a127.53,127.53,0,0,0-20.66,8.81c-.26.14-.11.55.17.44,6.94-2.71,13.95-5.68,20.75-8.79C155.81,210.22,155.57,209.83,155,210Z" style="fill:#263238"></path><path d="M171.48,166.65l3.7,18.2-49.57-.75s6.76-37,15.31-47.45c5.79-7.08,13.08-7,18-2.58,1.24,1.12,11.34,14.64,13.23,21.6A17.18,17.18,0,0,1,171.48,166.65Z" style="fill:#FFA52E"></path><path d="M153.63,163.8a45.71,45.71,0,0,1,7.25,1.12c1.18.31,2.34.67,3.5,1.06.58.19,1.16.36,1.75.53a6.63,6.63,0,0,0,1.87.34c.05,0,.05.1,0,.1a13.38,13.38,0,0,1-1.79,0,14.42,14.42,0,0,1-1.72-.31c-1.2-.3-2.39-.65-3.59-1-2.42-.62-4.84-1.24-7.29-1.67C153.49,164,153.52,163.79,153.63,163.8Z" style="fill:#263238"></path><path d="M147.7,166.32a50.35,50.35,0,0,1,6-.47c1,0,2,0,3,.12q.72.06,1.44.15c.52.06,1,.2,1.57.25.06,0,.06.1,0,.09-.5,0-1,0-1.5,0h-1.5c-1,0-2,0-3,0-2,0-4,0-6,0C147.59,166.51,147.59,166.34,147.7,166.32Z" style="fill:#263238"></path><path d="M148.69,131.32c-.95,1.16,4,15.1,8.43,15.1s1.57-12.57.42-13.94S148.69,131.32,148.69,131.32Z" style="fill:#ffc4c0"></path><path d="M148.74,132.64c.35,1.35,4,7.29,8.2,6.83,2.13-.23,1.6-7.72,1.6-7.72l.06-.56.89-7.82-11-5.41S148.64,132.26,148.74,132.64Z" style="fill:#ffc4c0"></path><path d="M148.57,123.29a15.81,15.81,0,0,0,10,7.9l.89-7.82-11-5.41S148.53,120.4,148.57,123.29Z" style="fill:#263238"></path><path d="M169.4,110.72c2.25,13.62-5.66,16.51-8.6,17-2.66.44-11.8,1.59-15.45-11.73s2-18.67,8-20S167.14,97.09,169.4,110.72Z" style="fill:#ffc4c0"></path><path d="M165.66,108.46c-.33,0-.63-.08-.95-.12a1.58,1.58,0,0,1-.94-.31.5.5,0,0,1-.05-.6,1.25,1.25,0,0,1,1.18-.38,1.8,1.8,0,0,1,1.17.54A.53.53,0,0,1,165.66,108.46Z" style="fill:#263238"></path><path d="M156.29,109.52a7.3,7.3,0,0,0,.91-.27,1.47,1.47,0,0,0,.88-.45.48.48,0,0,0-.05-.6,1.21,1.21,0,0,0-1.22-.19,1.84,1.84,0,0,0-1.06.72A.52.52,0,0,0,156.29,109.52Z" style="fill:#263238"></path><path d="M158.4,112.85s-.06.05-.06.09c.13.93.12,2-.7,2.42,0,0,0,.06,0,0C158.67,115.16,158.67,113.71,158.4,112.85Z" style="fill:#263238"></path><path d="M157.47,112c-1.52,0-1.32,3.07.08,3S158.74,111.92,157.47,112Z" style="fill:#263238"></path><path d="M156.88,112.16c-.25.19-.49.51-.81.56s-.66-.24-.92-.53c0,0-.06,0-.05,0,0,.58.29,1.16.92,1.21s.94-.5,1-1.09C157.09,112.24,157,112.08,156.88,112.16Z" style="fill:#263238"></path><path d="M164.12,112s.08,0,.08.08c0,.94.21,2,1.07,2.28,0,0,0,.06,0,0C164.23,114.36,164,112.93,164.12,112Z" style="fill:#263238"></path><path d="M164.9,111c1.51-.2,1.8,2.82.41,3S163.64,111.18,164.9,111Z" style="fill:#263238"></path><path d="M165.55,111.14c.26.14.52.41.81.4s.54-.36.72-.69c0,0,0,0,0,0,.08.58-.06,1.2-.6,1.36s-.92-.3-1.11-.87C165.38,111.26,165.45,111.09,165.55,111.14Z" style="fill:#263238"></path><path d="M159.29,119.93c.19.26.36.59.7.68a2.57,2.57,0,0,0,1-.08s.06,0,0,.06a1.27,1.27,0,0,1-1.26.31,1,1,0,0,1-.59-.94S159.27,119.9,159.29,119.93Z" style="fill:#263238"></path><path d="M163.31,116.3s.3,1.38.35,2a3.54,3.54,0,0,1-3.54-.8c-.06-.05,0-.13.09-.1a4.64,4.64,0,0,0,2.93.6c0-.18-.6-2.35-.49-2.37a5.47,5.47,0,0,1,1.53.23c-.55-2.91-1.55-5.7-2.05-8.6a.09.09,0,0,1,.17-.06,48.24,48.24,0,0,1,2.6,9.17C165,116.78,163.58,116.39,163.31,116.3Z" style="fill:#263238"></path><path d="M162.75,118.34a3.36,3.36,0,0,1-1.3,1.14,1.63,1.63,0,0,1-.93.12c-.69-.14-.74-.76-.65-1.3a3.91,3.91,0,0,1,.26-.83A4.38,4.38,0,0,0,162.75,118.34Z" style="fill:#263238"></path><path d="M161.45,119.48a1.63,1.63,0,0,1-.93.12c-.69-.14-.74-.76-.65-1.3A1.6,1.6,0,0,1,161.45,119.48Z" style="fill:#ff9bbc"></path><path d="M145.59,117.27a5.78,5.78,0,0,0,2.67-5,15.12,15.12,0,0,0,5.54-5.62c-.06.29-.5,2.45-.75,3.54,8.64-2.68,10.6-9.76,10.6-9.76a15.34,15.34,0,0,1,4.5,5.16s-.57-5.43-3.77-8.74a8.82,8.82,0,0,0-8.49-2.67,12.56,12.56,0,0,0-11.76,5.17C139.11,106.22,145.59,117.27,145.59,117.27Z" style="fill:#263238"></path><path d="M159.6,107.89a16.4,16.4,0,0,1-4.34,2.19s0,0,0,0a13.86,13.86,0,0,0,6-4.67,13.15,13.15,0,0,0,1.6-2.89,9.05,9.05,0,0,0,.78-3.5c0-.09.14-.1.14,0a10.71,10.71,0,0,1-.29,3.57,10,10,0,0,1-1.63,3.15,11.22,11.22,0,0,1-2.28,2.18" style="fill:#263238"></path><path d="M152.12,117.52a32.91,32.91,0,0,1-2.67-2,28,28,0,0,1-2.47-2.28,33.47,33.47,0,0,1,2.67,2A28,28,0,0,1,152.12,117.52Z" style="fill:#fff"></path><path d="M146.51,119.39l1.43,1.93c.48.64.95,1.28,1.45,1.9a33.34,33.34,0,0,0,3.16,3.57,14.26,14.26,0,0,1-3.49-3.31A22.75,22.75,0,0,1,146.51,119.39Z" style="fill:#fff"></path><path d="M152.12,117.52c.84-1,11.08-4.53,11.37-4.61a44.63,44.63,0,0,1,6.54,1.85c.4.31.65,8.48-1.28,10.65a29.88,29.88,0,0,1-4.83,4.34c-.21.08-7.43.31-11.37-3C151.87,126.22,151.17,118.6,152.12,117.52Z" style="fill:#ebebeb"></path><path d="M165,125.37l-1,4.35-.06,0c-.21.08-7.43.31-11.37-3-.68-.57-1.38-8.19-.43-9.27s11.08-4.53,11.37-4.6c0,0,0,0,0,0l1.13,5.12Z" style="fill:#fff"></path><path d="M159.72,115.22a32,32,0,0,1,4-1.5,27.32,27.32,0,0,1,2.85.57l.05.59s-2.48-.55-2.76-.51-4,1.39-4,1.39Z" style="fill:#dbdbdb"></path><rect x="152.57" y="118.63" width="1.39" height="0.36" transform="translate(24.3 -26.01) rotate(10.53)" style="fill:#dbdbdb"></rect><rect x="152.84" y="125.66" width="1.39" height="0.36" transform="translate(25.58 -25.94) rotate(10.53)" style="fill:#dbdbdb"></rect><path d="M161.81,129.4v-.08l.32,0v.08Zm-.32,0-.32,0v-.08l.32,0Zm1,.05v-.08h.32v.08Zm-1.6-.1-.31,0v-.08l.32,0Zm-.63-.07-.32,0v-.08l.32,0Zm2.88.18v-.08h.32v.08Zm-3.52-.27-.32,0,0-.08.31.05Zm4.16.24v-.08h0l.23-.15,0,.07a1,1,0,0,1-.24.15Zm-4.79-.34-.32-.06,0-.08.31.06Zm-.63-.13-.32-.07,0-.07.31.07Zm-.63-.14-.31-.08,0-.08.31.08Zm-.62-.17-.3-.09,0-.07.31.09Zm7.22.43,0-.07.26-.19.05.06Zm-7.83-.62-.3-.1,0-.08.31.11Zm-.6-.21-.3-.12,0-.07.29.11Zm8.94.43-.05-.06.25-.21.05.07Zm-9.54-.67-.29-.14,0-.07.29.13Zm-.58-.28a2,2,0,0,1-.29-.15l0-.07c.09.06.19.1.28.15Zm10.61.54,0-.06.25-.21,0,.06Zm-11.18-.84-.27-.17,0-.07.27.17Zm11.67.42-.05-.06.24-.21.05.06C165.94,127.69,165.86,127.77,165.78,127.83Zm-12.21-.76-.27-.19,0-.06.26.18Zm-.52-.38-.15-.12a.41.41,0,0,1-.09-.12l.07,0a.29.29,0,0,0,.08.1l.14.11Zm13.21.72,0-.06.24-.22.05.06Zm-13.58-1.26c0-.09-.06-.19-.09-.31l.07,0,.1.31Zm14,.83,0-.06.23-.22.06,0Zm.47-.45-.06-.06a2.39,2.39,0,0,0,.23-.22l.06.06Zm-14.69-1-.06-.32h.08l.06.31Zm15.14.55-.05-.06.22-.23.06.06Zm-15.26-1.18c0-.11,0-.21,0-.32h.08c0,.11,0,.21.05.31Zm15.71.71-.06,0,.21-.24.06.06Zm-15.81-1.35c0-.1,0-.21,0-.32h.08c0,.11,0,.22,0,.32Zm16.23.87-.06,0a2.93,2.93,0,0,0,.18-.26l.07.05A2.48,2.48,0,0,1,168.52,125.13Zm-16.3-1.51c0-.1,0-.21,0-.31h.08c0,.1,0,.21,0,.32Zm16.64,1-.07,0c.05-.09.09-.19.14-.29l.07,0C169,124.39,168.91,124.49,168.86,124.58ZM152.15,123l0-.32h.08l0,.32Zm17,1-.08,0c0-.1.07-.2.1-.3l.08,0C169.19,123.79,169.15,123.89,169.12,124Zm-17-1.64c0-.11,0-.22,0-.32h.08c0,.11,0,.21,0,.32Zm17.21,1-.07,0c0-.1,0-.2.08-.3l.07,0C169.37,123.17,169.34,123.27,169.31,123.38Zm-17.25-1.68c0-.1,0-.21,0-.32h.08c0,.11,0,.21,0,.32Zm17.41,1h-.08l.06-.32.08,0ZM152,121.06v-.32h.08v.32Zm17.55,1.06h-.08c0-.11,0-.21.05-.32h.08A3.06,3.06,0,0,1,169.59,122.12ZM152,120.42c0-.11,0-.22,0-.32h.08c0,.11,0,.21,0,.32Zm17.66,1.07h-.08c0-.11,0-.21,0-.32h.08C169.72,121.28,169.7,121.38,169.69,121.49Zm-17.64-1.71c0-.1,0-.21,0-.3v0h.08v0c0,.1,0,.2,0,.3Zm17.72,1.07h-.08l0-.32h.08Zm-17.6-1.71h-.08l0-.32h.08Zm17.66,1.07h-.08c0-.1,0-.21,0-.31h.08C169.84,120,169.84,120.1,169.83,120.21Zm-17.58-1.7h-.07a2.55,2.55,0,0,1,.07-.32l.07,0C152.3,118.3,152.28,118.4,152.25,118.51Zm17.54,1.06c0-.11,0-.22,0-.32h.08c0,.11,0,.21,0,.32Zm-17.36-1.66-.07,0a.75.75,0,0,1,.13-.22,1.29,1.29,0,0,1,.26-.21l0,.07a2.22,2.22,0,0,0-.24.19A1.17,1.17,0,0,0,152.43,117.91Zm17.39,1c0-.11,0-.22,0-.32h.08c0,.11,0,.21,0,.32Zm-16.75-1.57,0-.07.28-.15,0,.07Zm16.77.93V118h.08v.32Zm-16.2-1.22,0-.07.29-.14,0,.07Zm.58-.27,0-.07.29-.13,0,.07Zm15.62.85c0-.11,0-.22,0-.32h.08c0,.1,0,.21,0,.32Zm-15-1.11,0-.07.29-.13,0,.08Zm.59-.24,0-.08.29-.12,0,.07Zm14.43.71c0-.11,0-.22,0-.32h.08c0,.1,0,.21,0,.32Zm-13.84-1,0-.07.3-.12,0,.07Zm.6-.23,0-.08.3-.12,0,.08Zm13.21.55,0-.32h.08c0,.1,0,.2,0,.32Zm-12.61-.79,0-.07.3-.12,0,.08Zm.59-.23,0-.07.3-.12,0,.08Zm.6-.22,0-.08.3-.11,0,.07Zm11.36.6c0-.12,0-.22-.05-.31h.08c0,.09,0,.19,0,.31ZM159,114.9l0-.07.3-.12,0,.08Zm.61-.22,0-.08.3-.11,0,.08Zm10,.44,0,0-.22-.11,0-.07a1.28,1.28,0,0,1,.24.12s0,0,.05.07Zm-9.43-.66,0-.08.3-.11,0,.08Zm8.88.4-.3-.1,0-.08.31.11Zm-8.28-.62,0-.08.3-.11,0,.08Zm7.67.42-.3-.09,0-.08.31.09Zm-.61-.19-.31-.09,0-.08.3.1Zm-6.46-.45,0-.08.3-.1,0,.07Zm5.85.27-.31-.09,0-.07.31.09Zm-.62-.17-.31-.09,0-.08.31.09Zm-4.62-.31,0-.08.3-.11,0,.08Zm4,.14-.31-.09,0-.07.31.08Zm-.62-.17-.31-.08,0-.08.31.08Zm-2.78-.19,0-.07.3-.11,0,.08Zm2.16,0-.31-.08,0-.07.31.07Zm-.62-.15-.32-.07,0-.08.31.07Zm-.93-.09,0-.07.17-.06h.16v.08h-.13Z" style="fill:#dbdbdb"></path><path d="M161.68,129.57l-.33,0v-.08l.32,0Zm.32,0v-.08h.32v.08Zm-1-.07-.32,0v-.08l.32,0Zm1.6.09v-.08H163v.08Zm-2.24-.15-.32,0v-.08l.32,0Zm2.88.16v-.08h.32v.08Zm-3.52-.24-.32,0v-.08l.32.05Zm-.63-.1-.32-.06v-.08l.32.06Zm4.8.26,0-.07.26-.18,0,.06Zm-5.43-.38-.32-.07,0-.08.31.07Zm-.63-.14-.31-.07,0-.08.31.07Zm-.62-.16-.31-.08,0-.08.31.09Zm-.62-.17-.3-.1,0-.08.3.1Zm7.82.47,0-.06.25-.2,0,.06Zm-8.43-.68-.3-.11,0-.07.3.11Zm-.6-.23-.29-.12,0-.08.29.13Zm9.53.51,0-.06.25-.2,0,.06ZM154.83,128l-.29-.14,0-.07.29.14Zm-.57-.28-.28-.16,0-.07.28.16Zm11.19.64,0-.06.24-.21.05.07Zm-11.75-1-.27-.17,0-.07.26.17Zm12.24.56-.06-.06.24-.22.06.06ZM153.17,127a2.48,2.48,0,0,1-.26-.19l.05-.06.25.19Zm13.25.49-.06-.06.24-.22.05.06Zm-13.76-.9a2.2,2.2,0,0,1-.14-.3l.08,0a1.06,1.06,0,0,0,.13.28Zm14.23.47-.06-.06.24-.22.05,0ZM152.43,126a2.33,2.33,0,0,1-.08-.31l.08,0c0,.11,0,.22.07.31Zm14.92.63,0-.06.22-.22.06.06Zm-15.07-1.26-.06-.31.08,0,.06.32Zm15.53.81-.06-.06.22-.23.06.06Zm-15.64-1.44c0-.1,0-.21,0-.32h.08c0,.11,0,.22.05.32Zm16.08,1-.06,0,.22-.24.06.06Zm.43-.48-.07,0a1.14,1.14,0,0,0,.18-.25l.07,0Zm-16.6-1.12c0-.11,0-.22,0-.32h.08c0,.11,0,.21,0,.32Zm16.94.58-.07,0c.05-.09.09-.19.14-.29l.07,0C169.12,124.49,169.07,124.59,169,124.69Zm-17-1.22c0-.11,0-.21,0-.32h.08c0,.11,0,.21,0,.32Zm17.27.62-.08,0,.11-.3.07,0A2.64,2.64,0,0,1,169.28,124.09ZM152,122.83l0-.32H152l0,.32Zm17.53.65-.08,0a2.81,2.81,0,0,0,.08-.31l.08,0C169.53,123.28,169.51,123.38,169.48,123.48Zm-17.58-1.29c0-.11,0-.21,0-.32H152c0,.11,0,.22,0,.32Zm17.74.67-.08,0,.06-.31.08,0Zm-17.77-1.31c0-.11,0-.22,0-.32h.08c0,.11,0,.22,0,.32Zm17.89.68h-.08l.06-.32h.08Zm-17.91-1.32c0-.11,0-.22,0-.32h.08c0,.1,0,.21,0,.31Zm18,.69h-.08a3.11,3.11,0,0,1,0-.32h.08A3.11,3.11,0,0,0,169.87,121.6Zm-18-1.34c0-.11,0-.21,0-.32h.08c0,.11,0,.22,0,.32ZM170,121h-.08l0-.32H170Zm-18.09-1.34a1.09,1.09,0,0,0,0-.18v-.14H152v.13a1.28,1.28,0,0,1,0,.19Zm18.15.7h-.08c0-.1,0-.21,0-.31H170C170,120.11,170,120.21,170,120.32ZM152,119h-.08c0-.11,0-.22,0-.32H152C152,118.77,152,118.88,152,119Zm18.07.69H170v0a2.83,2.83,0,0,1,0-.29h.08c0,.1,0,.2,0,.3Zm-18-1.32-.07,0a2.33,2.33,0,0,1,.08-.31l.07,0C152.13,118.14,152.11,118.25,152.08,118.36ZM170,119c0-.11,0-.22,0-.32h.08c0,.11,0,.21,0,.32Zm-17.73-1.28-.07,0a.56.56,0,0,1,.1-.15,1.31,1.31,0,0,1,.26-.2l0,.06a1.39,1.39,0,0,0-.24.2A.62.62,0,0,0,152.28,117.76Zm17.75.64v-.32h.08v.32Zm-17.15-1.12,0-.07.28-.15,0,.07Zm.58-.29,0-.07.29-.14,0,.07Zm16.58.77c0-.11,0-.22,0-.32h.08c0,.1,0,.21,0,.32Zm-16-1,0-.07.3-.13,0,.07Zm.58-.26,0-.07.3-.13,0,.08Zm.59-.25,0-.07.3-.12,0,.07Zm14.82.91c0-.11,0-.22,0-.32h.08c0,.1,0,.21,0,.32ZM155.81,116l0-.07.3-.12,0,.07Zm.59-.24,0-.07.29-.12,0,.08Zm13.6.75c0-.11,0-.22,0-.32h.08c0,.11,0,.21,0,.33Zm-13-1,0-.07.3-.12,0,.07Zm.6-.23,0-.07.3-.12,0,.08Zm12.36.57c0-.11,0-.22,0-.31l.08,0c0,.1,0,.21,0,.32ZM158.2,115l0-.07.3-.12,0,.08Zm.6-.22,0-.08.3-.11,0,.07Zm.6-.23,0-.07.3-.11,0,.07Zm10.47.62c0-.21-.08-.26-.09-.27l0-.06h0s.07.08.12.32Zm-9.87-.84,0-.07.31-.11,0,.07Zm9.49.44-.3-.11,0-.07c.11,0,.22.07.3.11Zm-8.88-.66,0-.07.3-.11,0,.07Zm8.28.45-.31-.1,0-.07.3.09Zm-.61-.19-.31-.09,0-.08.31.09Zm-7.07-.48,0-.07.3-.11,0,.08Zm6.45.29-.31-.09,0-.07.3.09Zm-.61-.17-.31-.09,0-.08.31.09Zm-5.24-.33,0-.08.3-.1,0,.07Zm4.62.15-.31-.08,0-.08.31.09Zm-4-.37,0-.07.31-.11,0,.08Zm3.39.21-.31-.09,0-.07.31.08Zm-.62-.17-.31-.08,0-.07.31.07Zm-2.16-.25,0-.07.31-.11,0,.08Zm1.54.1-.32-.08,0-.08.31.08Zm-.63-.15-.31-.06v-.08l.32.06Z" style="fill:#dbdbdb"></path><rect x="154.44" y="118.87" width="0.16" height="0.32" transform="translate(18.21 258.54) rotate(-83.27)" style="fill:#dbdbdb"></rect><path d="M163.35,120l-.53,0v-.16l.53,0h.1V120Zm-1.16-.08-.63-.05,0-.16.62,0Zm-1.26-.11-.62-.06v-.16l.63.06Zm-1.25-.12-.63-.06,0-.16.62.06Zm-1.26-.13-.62-.06v-.16l.63.06Zm-1.25-.13-.63-.07,0-.16.63.07Zm-1.25-.14-.63-.07,0-.16.62.07Z" style="fill:#dbdbdb"></path><path d="M164.08,120v-.16h.32V120Z" style="fill:#dbdbdb"></path><polygon points="154.84 126.05 154.53 126.02 154.54 125.86 154.86 125.89 154.84 126.05" style="fill:#dbdbdb"></polygon><path d="M162.83,126.84l-.54,0v-.16l.57,0H163v.16h-.14Zm-1.22-.09-.68-.06,0-.16.68.06Zm-1.35-.12-.68-.06v-.16l.68.06Zm-1.36-.13-.68-.07,0-.16.68.07Zm-1.35-.14-.68-.08,0-.15.67.07Zm-1.36-.15-.67-.08V126l.68.08Z" style="fill:#dbdbdb"></path><path d="M163.65,126.88v-.16H164v.16Z" style="fill:#dbdbdb"></path><path d="M165.09,119.93l-.05-.15.61-.2,0,.15Zm1.22-.4-.05-.16.6-.21.06.16Zm1.21-.43-.05-.15.6-.22.05.15Zm1.2-.45-.06-.15.6-.24.06.14Zm1.19-.52-.08-.14.22-.12.08.14Z" style="fill:#dbdbdb"></path><path d="M164.77,126.8l-.07-.15.57-.28.07.14Zm1.15-.58-.08-.14.57-.3.08.15Zm1.13-.6-.07-.14.56-.31.08.14Zm1.12-.63-.08-.14.54-.34.09.13C168.55,124.76,168.36,124.87,168.17,125Zm1.08-.72-.1-.13.11-.09.1.13Z" style="fill:#dbdbdb"></path><path d="M163.49,112.91c.23.87.45,1.73.66,2.6s.43,1.73.62,2.6h0v0l.08,1.77c0,.59.06,1.18.08,1.77l.12,3.55v0c-.37,1.5-.73,3-1.14,4.48.27-1.52.58-3,.89-4.54v0l-.17-3.54c0-.59,0-1.19-.07-1.78l-.06-1.77v0c-.18-.87-.35-1.75-.52-2.62S163.64,113.79,163.49,112.91Z" style="fill:#c7c7c7"></path><path d="M154.57,125.11l.07-.66s0-.06.07,0h0l.37,0a.05.05,0,0,1,0,.06s0,.06-.07.06l-.3,0,0,.2.26,0a.06.06,0,0,1,.05.07.06.06,0,0,1-.06.06l-.26,0,0,.27a.08.08,0,0,1-.07.05S154.57,125.15,154.57,125.11Z" style="fill:#dbdbdb"></path><path d="M155.25,125.19l.07-.67s0,0,.07,0h0l.36,0s.06,0,.06.07a.06.06,0,0,1-.07,0l-.3,0,0,.21.26,0s.06,0,0,.07,0,.06-.07.06l-.26,0,0,.27a.05.05,0,0,1-.07,0A.06.06,0,0,1,155.25,125.19Z" style="fill:#dbdbdb"></path><path d="M156.22,125h-.14l0,.24a.07.07,0,0,1-.07.06s-.06,0,0-.07l.07-.66s0-.06.07-.06h0l.2,0a.24.24,0,0,1,.21.27A.23.23,0,0,1,156.22,125Zm-.13-.14.14,0a.12.12,0,0,0,.13-.1.12.12,0,0,0-.11-.13l-.13,0Z" style="fill:#dbdbdb"></path><path d="M157,125.38a.05.05,0,0,1-.07.05l-.39,0h0a.05.05,0,0,1-.05,0,.06.06,0,0,1,0-.08l.37-.27a.14.14,0,0,0,0-.2.14.14,0,0,0-.2,0l0,0a.06.06,0,0,1-.09,0,.07.07,0,0,1,0-.09l0,0a.23.23,0,0,1,.19-.05.27.27,0,0,1,.24.29.24.24,0,0,1-.11.19l-.23.17.24,0A.05.05,0,0,1,157,125.38Z" style="fill:#dbdbdb"></path><path d="M148.72,115.13s-3-4.31-5-3.24.3,7.32,2.59,8.18a2.34,2.34,0,0,0,3.14-1.25Z" style="fill:#ffc4c0"></path><path d="M144.44,113.66s0,0,0,.07a5.89,5.89,0,0,1,3,3.7,1.29,1.29,0,0,0-1.93-.36s0,.09,0,.09a1.43,1.43,0,0,1,1.58.5,6.86,6.86,0,0,1,.76,1.28c.07.14.33.07.28-.1l0,0C148.24,116.75,146.65,113.88,144.44,113.66Z" style="fill:#263238"></path><path d="M145.93,134.42c-5.34-1.5-11.5,17-6.73,18.56C144.82,154.77,150.54,135.71,145.93,134.42Z" style="fill:#ffc4c0"></path><path d="M139.57,143.54c-8.68-8-19.79-23.37-22.53-31.17-1.81-5.17,12.44-25.86,17.48-34.74,1.74-3.07,12.65,11.79,11.09,15.23-2.84,6.22-9.41,15.44-9,17.76.7,3.78,2.51,9.23,7.55,18.71C150.85,141.85,145.66,149.16,139.57,143.54Z" style="fill:#ffc4c0"></path><path d="M138.68,138.25s2.84,3.7,3.23,5.39,1,3.89,1,3.89" style="fill:#263238"></path><path d="M153.12,84.69c-1.74,3.93-7.51,8.17-7.51,8.17L133.9,78.49s4.57-6,5.57-10.32c.25-1.06.69-6.34,2-11.7,1.47-6.07,3.8-12.25,4.43-12.67,1.2-.81,3.1.7,3.07,5s-1.54,12.75-1.5,13.28a4.85,4.85,0,0,0,.15.51h0c.14.2,5.72,2.74,6.28,5.46S153.59,84.05,153.12,84.69Z" style="fill:#ffc4c0"></path><path d="M144.25,69.87s-2.18-10.31-1.33-12.32,4.15-14.92,5.34-15.75,3.1.7,3.07,5-1.54,12.75-1.5,13.28,3.42,9.18,3.49,10.07S144.25,69.87,144.25,69.87Z" style="fill:#ffc4c0"></path><path d="M142.2,64.24c0-1.15.08-2.31.13-3.46,0-.58.09-1.15.14-1.73,0-.29.06-.58.1-.87s.05-.29.07-.43a4.15,4.15,0,0,1,.12-.45c.65-2.2,1.31-4.41,2-6.61s1.36-4.4,2.11-6.6a6.94,6.94,0,0,1,.81-1.58,2.81,2.81,0,0,1,.61-.68,1.42,1.42,0,0,1,.87-.38,1.18,1.18,0,0,1,.87.37,2.86,2.86,0,0,1,.52.73,6.53,6.53,0,0,1,.52,1.66,7.15,7.15,0,0,0-.67-1.58,2.32,2.32,0,0,0-.52-.64.94.94,0,0,0-.7-.23,1.79,1.79,0,0,0-1.18,1,6.79,6.79,0,0,0-.68,1.53c-.64,2.2-1.3,4.42-2,6.62s-1.37,4.4-2.14,6.58a8.62,8.62,0,0,0-.35,1.65c-.08.56-.15,1.14-.22,1.71Z" style="fill:#263238"></path><path d="M146.19,71.24s-2.34-11.3-1.49-13.32S148.85,43,150,42.17s3.1.7,3.07,5-1.54,12.74-1.5,13.27,2.43,9.22,2.5,10.11S146.19,71.24,146.19,71.24Z" style="fill:#ffc4c0"></path><path d="M143.51,66c.08-1.41.22-2.82.36-4.23.08-.7.16-1.4.27-2.11.05-.35.1-.7.17-1a7,7,0,0,1,.27-1.05q1.24-4,2.54-8.1l1.32-4,.34-1a7.67,7.67,0,0,1,.4-1,4.27,4.27,0,0,1,.6-.94,1.89,1.89,0,0,1,1-.67,1.06,1.06,0,0,1,.66.06,1.5,1.5,0,0,1,.5.35,3.24,3.24,0,0,1,.59,1,9.77,9.77,0,0,1,.58,2.08,12.38,12.38,0,0,1,0,4.25,13.36,13.36,0,0,0-.25-4.19,10.18,10.18,0,0,0-.64-2,2.78,2.78,0,0,0-.54-.82.75.75,0,0,0-.75-.25,1.42,1.42,0,0,0-.71.53,4.26,4.26,0,0,0-.51.85c-.27.61-.45,1.31-.67,2l-1.29,4c-.86,2.69-1.73,5.38-2.65,8.06a7.08,7.08,0,0,0-.31,1l-.21,1c-.13.69-.24,1.39-.35,2.08Z" style="fill:#263238"></path><path d="M145.82,71.23s.26-10.29,1.06-12.17,2.49-10.83,3.6-11.6,2.89.65,2.86,4.68-.07,8.8,0,9.3.74,8.31.8,9.14S145.82,71.23,145.82,71.23Z" style="fill:#ffc4c0"></path><path d="M145,68.47c.16-1.82.35-3.63.54-5.44.09-.91.19-1.81.3-2.72l.08-.68a4.19,4.19,0,0,1,.13-.69c.1-.45.23-.89.35-1.33.52-1.75,1.07-3.49,1.69-5.21.3-.86.62-1.71,1-2.57.17-.42.34-.85.52-1.27a8,8,0,0,1,.65-1.27,1.13,1.13,0,0,1,.73-.5,1.2,1.2,0,0,1,.85.22,3.35,3.35,0,0,1,1,1.14,5.83,5.83,0,0,1,.78,2.74c0,1.83,0,3.65,0,5.47s0,3.66,0,5.45c0,.9.09,1.81.14,2.72s.09,1.82.1,2.73c-.31-1.8-.56-3.59-.76-5.42l0-5.48c0-1.82,0-3.64-.08-5.45a5.48,5.48,0,0,0-.68-2.47,2.81,2.81,0,0,0-.78-.94.5.5,0,0,0-.79.12,8,8,0,0,0-.59,1.17c-.19.41-.36.83-.53,1.25-.34.84-.66,1.69-1,2.54-.61,1.71-1.23,3.42-1.78,5.15-.14.44-.27.87-.38,1.3a9.47,9.47,0,0,0-.24,1.33l-.39,2.7Z" style="fill:#263238"></path></g><g id="freepik--character-2--inject-475"><polygon points="326.24 463.22 173.85 463.22 202.54 435.95 297.55 435.95 326.24 463.22" style="fill:#FFA52E"></polygon><rect x="173.85" y="463.22" width="152.1" height="2.41" style="fill:#FFA52E"></rect><rect x="173.85" y="463.22" width="152.1" height="2.41" style="opacity:0.1"></rect><path d="M263.75,162.05c8.54-7.83,23-27,23-33.38,0-5.1-9.18-20-16.58-28.84-2-2.38-14.48,11.45-12.28,13.93,4.6,5.2,9.9,13.33,10.19,14.82.59,3.08-9,19-11.95,26.23C251.47,166.14,258,167.35,263.75,162.05Z" style="fill:#eb9481"></path><path d="M250.93,106c1.75,3.94,7.52,8.17,7.52,8.17l11.7-14.37s-4.57-6-5.57-10.32c-.24-1.05-.69-6.34-2-11.69-1.48-6.08-3.81-12.26-4.43-12.68-1.21-.81-3.11.7-3.08,5s1.54,12.75,1.5,13.28a3.5,3.5,0,0,1-.14.51h0c-.13.19-5.72,2.74-6.27,5.46S250.46,105.4,250.93,106Z" style="fill:#eb9481"></path><path d="M259.81,91.21s2.18-10.3,1.32-12.32S257,64,255.8,63.14s-3.11.7-3.08,5,1.54,12.74,1.5,13.27-3.41,9.18-3.48,10.07S259.81,91.21,259.81,91.21Z" style="fill:#eb9481"></path><path d="M261.86,85.58c0-1.15-.08-2.3-.14-3.46,0-.57-.08-1.15-.14-1.73,0-.28-.06-.57-.1-.86a3.11,3.11,0,0,0-.07-.44,3.52,3.52,0,0,0-.11-.44c-.66-2.21-1.32-4.42-2-6.62s-1.36-4.4-2.11-6.59a7.18,7.18,0,0,0-.8-1.59,3.27,3.27,0,0,0-.61-.68,1.52,1.52,0,0,0-.88-.37,1.21,1.21,0,0,0-.87.36,2.75,2.75,0,0,0-.51.73,6.69,6.69,0,0,0-.53,1.66,7.9,7.9,0,0,1,.67-1.58,2.5,2.5,0,0,1,.53-.63.88.88,0,0,1,.69-.24,1.8,1.8,0,0,1,1.18,1,6.55,6.55,0,0,1,.68,1.53c.64,2.2,1.3,4.42,2,6.62s1.37,4.4,2.13,6.59a7.69,7.69,0,0,1,.35,1.64c.08.57.15,1.14.22,1.71Z" style="fill:#263238"></path><path d="M257.86,92.58s2.35-11.3,1.49-13.32S255.21,64.34,254,63.51s-3.11.7-3.08,5,1.54,12.74,1.5,13.28S250,91,249.94,91.92,257.86,92.58,257.86,92.58Z" style="fill:#eb9481"></path><path d="M260.55,87.3c-.09-1.42-.22-2.82-.36-4.23-.09-.71-.17-1.41-.27-2.11-.05-.36-.11-.71-.18-1.06a7,7,0,0,0-.27-1.05q-1.25-4-2.54-8.09l-1.32-4-.34-1a8.52,8.52,0,0,0-.39-1,4.15,4.15,0,0,0-.61-1,1.89,1.89,0,0,0-1-.67,1.2,1.2,0,0,0-.65.06,1.47,1.47,0,0,0-.51.36,3.32,3.32,0,0,0-.59,1,9.5,9.5,0,0,0-.57,2.07,12.37,12.37,0,0,0,0,4.25,13.09,13.09,0,0,1,.26-4.19,9.52,9.52,0,0,1,.63-2,2.92,2.92,0,0,1,.54-.82.77.77,0,0,1,.75-.25,1.44,1.44,0,0,1,.71.53,4.08,4.08,0,0,1,.51.85c.27.61.45,1.31.67,2l1.29,4c.87,2.69,1.73,5.39,2.66,8.06a7.94,7.94,0,0,1,.3,1c.08.34.15.69.21,1,.13.69.25,1.39.36,2.09Z" style="fill:#263238"></path><path d="M258.23,92.58s-.26-10.3-1.06-12.18-2.49-10.82-3.59-11.6-2.89.66-2.87,4.68.07,8.81,0,9.3-.73,8.31-.8,9.14S258.23,92.58,258.23,92.58Z" style="fill:#eb9481"></path><path d="M259,89.81c-.16-1.81-.35-3.63-.53-5.44-.09-.91-.19-1.81-.3-2.72l-.09-.68a5.54,5.54,0,0,0-.12-.69c-.11-.44-.24-.88-.36-1.32-.52-1.76-1.07-3.5-1.68-5.21-.31-.86-.62-1.72-1-2.57-.16-.43-.34-.85-.52-1.28a9.45,9.45,0,0,0-.64-1.27,1.23,1.23,0,0,0-.73-.5,1.18,1.18,0,0,0-.85.23,3.24,3.24,0,0,0-1,1.13,5.77,5.77,0,0,0-.77,2.74c-.05,1.83,0,3.65-.05,5.47s0,3.67,0,5.45c0,.9-.1,1.81-.15,2.72s-.09,1.82-.1,2.74c.31-1.8.56-3.6.76-5.43l0-5.48c0-1.81,0-3.64.09-5.45a5.27,5.27,0,0,1,.68-2.47,2.67,2.67,0,0,1,.77-.94.5.5,0,0,1,.79.13,9,9,0,0,1,.6,1.16c.18.41.35.83.52,1.25.34.84.66,1.69,1,2.54.61,1.71,1.24,3.42,1.78,5.16.14.43.27.86.39,1.3a12.9,12.9,0,0,1,.24,1.32l.38,2.7Z" style="fill:#263238"></path><path d="M296.87,446.57c-2.13.66-54.28.89-56.54-.62-.87-.56-1.18-9.35-1.24-20v-.33c0-2.19-1.47-39-1.47-39l38.51.78L278,426.09l0,.66s14.72,9.23,17,11.15S299,445.92,296.87,446.57Z" style="fill:#eb9481"></path><path d="M223.54,213.54s5.56,33.83,5.93,34.92c0,0,2.07,1,5.79,2.7,0,0-3.25,114.93-1.45,152.6.32,6.68,5,12.68,5,12.68l38.77.4a21.25,21.25,0,0,0,4.3-12.76c.73-34.88-1.78-131.76-6.7-170.17-.67-5.16-4.22-20.37-4.22-20.37Z" style="fill:#FFA52E"></path><g style="opacity:0.4"><path d="M223.54,213.54s5.56,33.83,5.93,34.92c0,0,2.07,1,5.79,2.7,0,0-3.25,114.93-1.45,152.6.32,6.68,5,12.68,5,12.68l38.77.4a21.25,21.25,0,0,0,4.3-12.76c.73-34.88-1.78-131.76-6.7-170.17-.67-5.16-4.22-20.37-4.22-20.37Z"></path></g><path d="M281.91,377.74a1.71,1.71,0,0,0,0,.32,29.38,29.38,0,0,1-7.72,6.81,25.88,25.88,0,0,1-12.91,4A33.79,33.79,0,0,1,248,386c-1.4-.59-2.78-1.24-4.14-1.92l-.55-.28c-3.45-1.75-6.76-3.75-10-5.82,0-.17,0-.35,0-.52,3.33,2.14,6.71,4.2,10.22,6l.56.27c1.34.68,2.69,1.32,4.08,1.91a33.54,33.54,0,0,0,13.13,2.94,25.64,25.64,0,0,0,12.8-3.94A29.13,29.13,0,0,0,281.91,377.74Zm-.57-32.3c-.92-.36-1.85-.69-2.81-1a20.1,20.1,0,0,0-6.81-.88,17.86,17.86,0,0,0-3.42.5,17,17,0,0,0-1.66.56c-.52.27-1,.55-1.53.86a18.86,18.86,0,0,0-4.72,5,60.26,60.26,0,0,0-3.43,5.92c-2,4.07-3.87,8.23-5.78,12.35a136.75,136.75,0,0,1-7.68,14.7l-.19.32a66.91,66.91,0,0,1-6,8.22,52.33,52.33,0,0,1-3.78,4c0,.28,0,.56,0,.83a50,50,0,0,0,4.23-4.38,66.83,66.83,0,0,0,6.07-8.35l.2-.33A137,137,0,0,0,251.73,369c1.9-4.12,3.72-8.28,5.76-12.33a55.62,55.62,0,0,1,3.39-5.85,18.07,18.07,0,0,1,4.56-4.86,12,12,0,0,1,6.31-1.82,19.92,19.92,0,0,1,6.63.84c1,.29,2,.64,3,1C281.35,345.84,281.35,345.64,281.34,345.44Zm-3.59-83.12a69.65,69.65,0,0,0-7.75-6.14,52.59,52.59,0,0,0-5.88-3.49,46,46,0,0,0-6.34-2.57A45,45,0,0,0,244.29,248a41.19,41.19,0,0,0-12.13,1.69l.89.41a42.27,42.27,0,0,1,11.24-1.49,43.75,43.75,0,0,1,19.61,4.5,52.56,52.56,0,0,1,5.85,3.42,74.24,74.24,0,0,1,8,6.32C277.77,262.69,277.76,262.51,277.75,262.32Zm2.54,49.39c-.17.15-.35.28-.52.42a74.77,74.77,0,0,1-11.32,7.46,36,36,0,0,1-6.27,2.51,23.89,23.89,0,0,1-6.66.87,22.53,22.53,0,0,1-6.6-1.19,24.7,24.7,0,0,1-3.07-1.36c-.49-.28-1-.5-1.47-.82l-1.41-.93a16.35,16.35,0,0,1-1.35-1c-.43-.36-.9-.68-1.31-1.07-.82-.77-1.68-1.5-2.44-2.33L236.7,313l-1.1-1.28c-.6-.66-1.13-1.37-1.67-2.06,0,.29,0,.57,0,.86a41.1,41.1,0,0,0,8.74,8.58l1.44.94c.48.32,1,.55,1.51.82a23.85,23.85,0,0,0,3.15,1.38,22.87,22.87,0,0,0,6.76,1.19,24,24,0,0,0,6.79-.91,36.39,36.39,0,0,0,6.35-2.57A74.35,74.35,0,0,0,280,312.43l.31-.25C280.31,312,280.3,311.87,280.29,311.71Zm-12.21-98.17a28.73,28.73,0,0,1-6.87,5.8,25.61,25.61,0,0,1-12.79,3.95,33.42,33.42,0,0,1-13.14-2.91c-1.39-.59-2.74-1.22-4.08-1.9l-.56-.27c-2.38-1.23-4.69-2.56-7-4,0,.16.05.34.09.55,2.19,1.32,4.41,2.59,6.69,3.75l.55.28c1.36.67,2.74,1.31,4.15,1.9a34,34,0,0,0,13.29,2.88,25.85,25.85,0,0,0,12.9-4.06,29,29,0,0,0,7-6Zm-34.74,0c-.86,1.58-1.75,3.14-2.7,4.67-.06.11-.13.22-.2.33a70.58,70.58,0,0,1-4.92,7c0,.26.09.53.13.8a68.81,68.81,0,0,0,5.34-7.49l.21-.34q1.49-2.43,2.82-4.94Z" style="fill:#FFA52E"></path><path d="M255.55,316.77c.44-2.3-8.78-66.86-10.64-69-.21-.26-21.66,2.16-21.66,2.16-1.11.49-33.67-3.68-33.67-3.68l.64,41.3,40.16,4s4.85,8.22,9.52,15.31l0,0a90.76,90.76,0,0,0,6.34,9C248.54,318,255.14,319.06,255.55,316.77Z" style="fill:#eb9481"></path><path d="M248,213.54H221.65s-1.92,6.8-3.32,7.35c-7.61,3-39.94,11.72-58.66,21.63-16.11,8.52-17.73,29.7,4.14,38.1,17.63,6.76,35.68,11.31,47.57,12.13,8.35.58,13.67-1.77,13.67-1.77l.51-42.08s-23.54-3.22-46-2.66c0,0,23.74,7.14,49.09,2.78,5.79-1,17.1-6.86,17.1-6.86Z" style="fill:#FFA52E"></path><path d="M248,213.54H221.65s-1.92,6.8-3.32,7.35c-7.61,3-39.94,11.72-58.66,21.63-16.11,8.52-17.73,29.7,4.14,38.1,17.63,6.76,35.68,11.31,47.57,12.13,8.35.58,13.67-1.77,13.67-1.77l.51-42.08s-23.54-3.22-46-2.66c0,0,23.74,7.14,49.09,2.78,5.79-1,17.1-6.86,17.1-6.86Z" style="opacity:0.4"></path><path d="M225.52,252.35v.71a50,50,0,0,0-6.46,3.91,80.33,80.33,0,0,0-13.83,12.94l-.23.26c-1.71,2-3.36,4-5,6-2.85,3.54-5.62,7.14-8.59,10.59-.61.7-1.23,1.39-1.88,2.07l-.65-.17c.71-.74,1.4-1.51,2.08-2.29,3-3.43,5.72-7,8.57-10.57,1.62-2,3.28-4.05,5-6,.08-.08.15-.17.22-.25a80.51,80.51,0,0,1,14-13.08A49.74,49.74,0,0,1,225.52,252.35Zm-14.75,22.83a38.46,38.46,0,0,0-5.55-5.27l-.49-.36a30,30,0,0,0-4.62-2.79,25.81,25.81,0,0,0-13.38-2,30.26,30.26,0,0,0-12.84,4.3,40.25,40.25,0,0,0-5.56,4c-1.75,1.45-3.43,3-5,4.6-.66.66-1.32,1.32-2,2l.24.12c.62-.65,1.25-1.3,1.89-1.94,1.6-1.61,3.26-3.15,5-4.6A41.1,41.1,0,0,1,174,269.2,29.51,29.51,0,0,1,186.76,265,25.7,25.7,0,0,1,200,267a30,30,0,0,1,4.53,2.77l.48.37a37,37,0,0,1,5.51,5.26A114.78,114.78,0,0,1,221.87,292l.45-.11A114.92,114.92,0,0,0,210.77,275.18Zm24.51-54.8c-1.39-.59-2.74-1.22-4.08-1.9l-.56-.27c-2.77-1.43-5.46-3-8.11-4.67h-.81c2.85,1.78,5.74,3.48,8.72,5l.55.28c1.36.67,2.74,1.31,4.15,1.9a34.77,34.77,0,0,0,12.09,2.86l0-.31A34.16,34.16,0,0,1,235.28,220.38Zm-1.94-6.84c-.86,1.58-1.75,3.14-2.7,4.67-.06.11-.13.22-.2.33a66.75,66.75,0,0,1-6,8.22,46.44,46.44,0,0,1-10.09,8.94A41.86,41.86,0,0,1,202,241a44.87,44.87,0,0,1-13.41,1.3,45.73,45.73,0,0,1-6.7-.91,52,52,0,0,1-6.5-1.9c-1.66-.59-3.29-1.26-4.89-2-.18.07-.35.14-.53.23,1.72.8,3.47,1.54,5.26,2.19a53,53,0,0,0,6.55,2,45.4,45.4,0,0,0,6.77,1,44.82,44.82,0,0,0,13.6-1.24,41.19,41.19,0,0,0,12.57-5.33,46.51,46.51,0,0,0,10.22-9.07,67.32,67.32,0,0,0,6.05-8.34l.21-.34q1.49-2.43,2.82-4.94Z" style="fill:#FFA52E"></path><path d="M168.72,245.92a122.69,122.69,0,0,1,14.21-.8c-1.82-.4-3.66-.72-5.49-1-.1,0-.11-.18,0-.17a35.65,35.65,0,0,1,6.36,1.17c3.14,0,6.28.11,9.41.28,8.21.42,10,.59,18.17,1.4,4.65.45,9.38,1.54,14,2a.41.41,0,0,1,.39.41c0,1.22-.1,2.43-.14,3.65a.24.24,0,0,1-.48,0c-.05-1.09-.12-2.18-.15-3.28-8.08-.67-9.85-1.37-17.93-2.06s-16.37-1.22-24.58-1.42c-4.6-.1-9.18-.12-13.78,0C168.64,246.09,168.62,245.93,168.72,245.92Z" style="fill:#263238"></path><path d="M251.06,239.44a127.53,127.53,0,0,0-20.66,8.81c-.26.14-.11.55.17.44,6.94-2.71,14-5.68,20.74-8.79C251.85,239.66,251.61,239.27,251.06,239.44Z" style="fill:#263238"></path><path d="M219.83,214c.11.18,51.8,1.09,52.43.57.9-.74-5.89-43.15-13.45-57.49-1.89-3.59-11.66-8.94-18-1.37C223.54,176.5,219.43,213.36,219.83,214Z" style="fill:#c7c7c7"></path><path d="M253.72,165.92c-2.54,0-7.62-4.89-9.53-8.94-.13-.28.46-3.09,1-6.54.33-2.1.64-4.44.77-6.59L259.29,148a34.15,34.15,0,0,0-1.81,8.2,4.34,4.34,0,0,0,0,.89.66.66,0,0,1,0,.15C257.7,158.89,257.68,165.89,253.72,165.92Z" style="fill:#eb9481"></path><path d="M245.29,149.84c2.48,4.24,6.42,8.48,12.29,8.21,0-.36,0-.65-.05-.85a.4.4,0,0,1,0-.15,3.72,3.72,0,0,1,0-.89,34.69,34.69,0,0,1,1.81-8.2L246,143.85C245.86,145.8,245.58,147.91,245.29,149.84Z" style="fill:#263238"></path><path d="M242.22,128c-1.79,4.69-.22,18.71,3,22,4.63,4.82,12.69,5.8,16.9.13,4.08-5.5,1.72-23.73-1.9-26.8C254.87,118.85,244.87,121.09,242.22,128Z" style="fill:#eb9481"></path><path d="M252.57,136.71s-.07.06-.06.09c.14.94.14,2-.68,2.46,0,0,0,.06,0,.05C252.87,139,252.85,137.58,252.57,136.71Z" style="fill:#263238"></path><path d="M251.61,135.82c-1.53.06-1.3,3.12.12,3.07S252.9,135.77,251.61,135.82Z" style="fill:#263238"></path><path d="M258.51,136.11s.07,0,.07.07c.05.95.25,2,1.13,2.28,0,0,0,.06,0,.06C258.65,138.45,258.39,137,258.51,136.11Z" style="fill:#263238"></path><path d="M259.28,135.05c1.51-.23,1.86,2.82.46,3S258,135.25,259.28,135.05Z" style="fill:#263238"></path><path d="M250.67,134.09c.43-.08.81-.22,1.22-.33a2,2,0,0,0,1.17-.58.65.65,0,0,0,0-.79,1.61,1.61,0,0,0-1.61-.28A2.38,2.38,0,0,0,250,133,.69.69,0,0,0,250.67,134.09Z" style="fill:#263238"></path><path d="M260.2,133.88c-.43,0-.82-.15-1.24-.23a2,2,0,0,1-1.22-.47.65.65,0,0,1,0-.79,1.61,1.61,0,0,1,1.57-.42,2.36,2.36,0,0,1,1.51.79A.7.7,0,0,1,260.2,133.88Z" style="fill:#263238"></path><path d="M253,145.59c.25.21.5.49.84.5a2.55,2.55,0,0,0,1-.32,0,0,0,0,1,0,0,1.27,1.27,0,0,1-1.17.6,1,1,0,0,1-.8-.78S252.93,145.56,253,145.59Z" style="fill:#263238"></path><path d="M253.74,142.68A3.26,3.26,0,0,0,256,144a4.11,4.11,0,0,0,1.16,0,.79.79,0,0,0,.22,0l.2,0a.25.25,0,0,0,.18-.23h0s0-.06,0-.09h0v-.08c0-.73-.19-1.84-.19-1.84.28.12,1.68.62,1.63.24a47.92,47.92,0,0,0-2-9.66.09.09,0,0,0-.17,0c.29,3,1.12,6,1.46,9a5.33,5.33,0,0,0-1.56-.35c-.1,0,.34,2.13.33,2.46v0a4.48,4.48,0,0,1-3.41-.78C253.75,142.54,253.68,142.61,253.74,142.68Z" style="fill:#263238"></path><path d="M256.71,143.58a3.83,3.83,0,0,1-1.44,1.3,1.75,1.75,0,0,1-1,.15c-.77-.14-.84-.84-.75-1.44a4.46,4.46,0,0,1,.27-.94A5,5,0,0,0,256.71,143.58Z" style="fill:#263238"></path><path d="M255.27,144.88a1.75,1.75,0,0,1-1,.15c-.77-.14-.84-.84-.75-1.44A1.78,1.78,0,0,1,255.27,144.88Z" style="fill:#ff99ba"></path><path d="M262.12,128.3c-4.74,3.57-11.65-1.2-11.65-1.2a5.32,5.32,0,0,1-5.24,3.61s-.59,8.31-2.77,8.4c-3.33.12-4.86-11.11-3.91-13.37s3.74-3,3.74-3a5.43,5.43,0,0,1,2.11-3.39c2.19-1.84,10.13.15,10.13.15a7.31,7.31,0,0,1,1.88-2.8,2.06,2.06,0,0,1,3,.14,4.92,4.92,0,0,0-.7,2.08c-.29,2.44,1.69,2.34,1.57.15a3.4,3.4,0,0,0-.87-2.23c.91-1.48,2.49-2,3.49-1.29C264.69,116.9,266.05,125.34,262.12,128.3Z" style="fill:#263238"></path><path d="M244.64,128.11c0-.14-.23-.08-.2.07a21.63,21.63,0,0,1,.71,5c0,1.67-.72,5.91-3.14,5.52a.09.09,0,0,0,0,.18c1.61.69,2.61-1.39,3.07-2.82A13.69,13.69,0,0,0,244.64,128.11Z" style="fill:#263238"></path><path d="M262.74,115.49s0,0,0,0a9.76,9.76,0,0,1,1.33,11.3c-2.73,4.59-8.79,2-12.41.24-.17-.08-.33.18-.15.27,3.52,1.8,9.66,4.27,12.54.09C266.59,123.67,265.73,118.65,262.74,115.49Z" style="fill:#263238"></path><path d="M243,122.74c-3.25.5-5.51,2.14-5.68,5.61a12.7,12.7,0,0,0,3.84,9.43.13.13,0,0,0,.19-.19,14.21,14.21,0,0,1-3.54-7,7.35,7.35,0,0,1,1.15-5.86c1-1.17,2.69-1.52,4.08-1.86C243.11,122.84,243.07,122.73,243,122.74Z" style="fill:#263238"></path><path d="M255.54,120.2c-4.19-2.32-12.36-4.32-13.22,2.53,0,.06.09.07.1,0,1.25-6.88,8.77-4.16,13-2.38C255.56,120.42,255.63,120.25,255.54,120.2Z" style="fill:#263238"></path><path d="M246.49,141.62a31.29,31.29,0,0,1-2.59-2.14,29.57,29.57,0,0,1-2.38-2.37,31.44,31.44,0,0,1,2.6,2.14A29.44,29.44,0,0,1,246.49,141.62Z" style="fill:#fff"></path><path d="M242.12,145l1,1.53c.35.51.7,1,1.06,1.51a24.54,24.54,0,0,0,2.34,2.86,10.81,10.81,0,0,1-2.6-2.67A16.93,16.93,0,0,1,242.12,145Z" style="fill:#fff"></path><path d="M246.49,141.62c.88-.92,11.25-4.09,11.55-4.15a44.68,44.68,0,0,1,6.45,2.09c.39.34.32,8.51-1.69,10.6a30.83,30.83,0,0,1-5,4.15c-.21.07-7.44,0-11.23-3.41C245.9,150.31,245.5,142.66,246.49,141.62Z" style="fill:#ebebeb"></path><path d="M259,150l-1.15,4.3-.07,0c-.21.07-7.43,0-11.23-3.41-.67-.6-1.06-8.24-.07-9.28s11.25-4.09,11.54-4.15h.05l.92,5.16Z" style="fill:#fff"></path><path d="M254.18,139.62a32.19,32.19,0,0,1,4-1.35c.43,0,2.82.69,2.82.69l0,.59a28.07,28.07,0,0,0-2.74-.62c-.4,0-4,1.24-4,1.24Z" style="fill:#dbdbdb"></path><rect x="246.89" y="142.77" width="1.39" height="0.36" transform="translate(37.83 -51.31) rotate(12.8)" style="fill:#dbdbdb"></rect><rect x="246.88" y="149.81" width="1.39" height="0.36" transform="translate(39.39 -51.13) rotate(12.8)" style="fill:#dbdbdb"></rect><path d="M255.71,153.88v-.08l.32,0v.08Zm-.32,0-.32,0v-.08l.31,0Zm.95.09v-.08l.32,0V154Zm-1.59-.16-.32-.05v-.08l.32.05Zm-.64-.1-.31,0v-.08l.32.05ZM257,154v-.08h.32V154Zm-3.51-.4-.31-.07v-.07l.32.06Zm4.15.4v-.08h0l.23-.14,0,.07a1.46,1.46,0,0,1-.25.14Zm-4.78-.53-.31-.08,0-.07.31.07Zm-.62-.15-.31-.08,0-.08.31.08Zm-.62-.17-.31-.09,0-.08.3.09Zm-.61-.19-.3-.11,0-.07.3.1Zm7.2.71-.05-.07.26-.18,0,.06Zm-7.81-.93-.3-.11,0-.08.3.12Zm-.59-.23-.3-.13,0-.08.29.13Zm8.92.78-.05-.06.25-.2.05.07Zm-9.51-1.05-.28-.14,0-.07.29.14Zm-.57-.3-.28-.16,0-.06.28.15Zm10.59,1-.05-.06.25-.2.05.06Zm-11.14-1.28-.27-.18,0-.07.27.18Zm11.64.89-.05-.07.25-.2.05.06Zm-12.17-1.26-.26-.19,0-.07.25.2Zm-.51-.4-.13-.12a.62.62,0,0,1-.09-.12l.07,0a.29.29,0,0,0,.07.1l.13.12Zm13.18,1.25-.05-.06.24-.21.05.06Zm-13.52-1.8a2,2,0,0,1-.08-.31l.08,0c0,.12,0,.22.07.31Zm14,1.38-.05-.06.24-.21,0,.06Zm.48-.42-.05-.06.23-.21.06.05Zm-14.64-1.59c0-.1,0-.2-.05-.31h.08c0,.11,0,.21,0,.31Zm15.11,1.16-.05-.06.23-.22,0,.05ZM246.47,149a3.11,3.11,0,0,1,0-.32h.08a3.11,3.11,0,0,0,0,.32Zm15.66,1.34-.05-.06.22-.22.06.05Zm-15.73-2,0-.32h.08l0,.32Zm16.18,1.51-.06-.05a2.71,2.71,0,0,0,.19-.25l.06,0A1.34,1.34,0,0,1,262.58,149.87Zm-16.24-2.15c0-.11,0-.21,0-.32h.08c0,.1,0,.21,0,.31Zm16.6,1.62-.07,0A2.44,2.44,0,0,0,263,149l.08,0Zm-16.64-2.26c0-.11,0-.21,0-.32h.08c0,.1,0,.21,0,.32Zm16.92,1.68-.08,0,.12-.3.07,0A2.83,2.83,0,0,1,263.22,148.76Zm-16.94-2.32c0-.11,0-.22,0-.32h.08c0,.1,0,.21,0,.32Zm17.16,1.71-.08,0,.09-.31.08,0Zm-17.17-2.35v-.32h.08v.32Zm17.35,1.73-.08,0c0-.1,0-.2.07-.31l.08,0C263.67,147.33,263.64,147.43,263.62,147.53Zm-17.35-2.38c0-.1,0-.21,0-.32h.08c0,.1,0,.21,0,.32Zm17.49,1.76-.07,0,.06-.31h.08C263.81,146.7,263.79,146.8,263.76,146.91Zm-17.47-2.4c0-.11,0-.21,0-.32h.08c0,.1,0,.21,0,.32Zm17.6,1.77-.08,0c0-.1,0-.21.05-.31h.08C263.92,146.07,263.91,146.17,263.89,146.28Zm-17.56-2.41,0-.3v0h.08v0l0,.3ZM264,145.64h-.08c0-.1,0-.21,0-.31H264C264,145.43,264,145.54,264,145.64Zm-17.51-2.4h-.08c0-.11,0-.21,0-.32l.08,0C246.51,143,246.49,143.13,246.48,143.24Zm17.6,1.77H264l0-.32h.08Zm-17.5-2.39-.07,0a2.49,2.49,0,0,1,.08-.32l.08,0C246.64,142.4,246.61,142.5,246.58,142.62Zm17.49,1.74,0-.31h.08l0,.32ZM246.78,142l-.07,0a1,1,0,0,1,.14-.21,1.36,1.36,0,0,1,.27-.19l0,.06a1.22,1.22,0,0,0-.25.19A.78.78,0,0,0,246.78,142Zm17.34,1.71c0-.11,0-.22,0-.32h.08c0,.11,0,.22,0,.32Zm-16.68-2.24,0-.07.29-.14,0,.08Zm16.72,1.6c0-.11,0-.22,0-.32h.08c0,.11,0,.21,0,.32ZM248,141.23l0-.08.3-.12,0,.07Zm.6-.25,0-.07.3-.12,0,.07Zm15.57,1.47c0-.11,0-.22,0-.32h.08c0,.11,0,.21,0,.32Zm-15-1.7,0-.08.3-.11,0,.08Zm.6-.23,0-.07.3-.11,0,.07Zm14.39,1.29v-.32h.08v.32Zm-13.78-1.5,0-.08.3-.11,0,.08Zm.6-.22,0-.07.3-.11,0,.08Zm13.18,1.08c0-.11,0-.22,0-.32h.08c0,.1,0,.2,0,.32Zm-12.57-1.29,0-.07.31-.11,0,.08Zm.61-.2,0-.08.3-.1,0,.07Zm.6-.21,0-.07.3-.1,0,.07Zm11.33,1.06a2.15,2.15,0,0,0,0-.31l.08,0a2.48,2.48,0,0,1,0,.33Zm-10.72-1.26,0-.07.3-.1,0,.07Zm.61-.2,0-.07.3-.1,0,.07Zm10,.84,0,0a.79.79,0,0,0-.21-.11l0-.08a1.2,1.2,0,0,1,.23.13.18.18,0,0,1,.05.07Zm-9.4-1,0-.08.3-.1,0,.08Zm8.86.75-.29-.11,0-.08.3.12Zm-8.25-.95,0-.08.31-.09,0,.07Zm7.65.73-.3-.11,0-.07.3.1Zm-.6-.21-.3-.11,0-.07.31.1Zm-6.43-.71,0-.08.31-.09,0,.07Zm5.82.5-.3-.1,0-.08.31.11Zm-.61-.2-.3-.1,0-.07.31.1Zm-4.6-.49,0-.08.31-.09,0,.07Zm4,.3-.31-.1,0-.08.3.1Zm-.61-.19-.31-.1,0-.07.31.09Zm-2.77-.3,0-.08.31-.09,0,.08Zm2.15.11-.3-.09,0-.07.31.09Zm-.61-.17-.31-.09,0-.07.31.08Zm-.92-.13,0-.07.17,0a.48.48,0,0,1,.16,0v.08h-.13Z" style="fill:#dbdbdb"></path><path d="M255.56,154l-.32,0v-.08l.32,0Zm.32,0V154l.31,0v.08Zm-1-.11-.32,0,0-.08.31,0Zm1.6.16V154h.32v.08Zm-2.23-.25-.32-.05v-.08l.32,0Zm2.87.28v-.08h.32v.08Zm-3.51-.38-.31-.06v-.08l.32.06Zm-.63-.13-.31-.07,0-.07.31.06Zm4.79.46,0-.07.27-.17,0,.06Zm-5.41-.6-.31-.08,0-.08.31.08Zm-.62-.16-.31-.09,0-.08.31.09Zm-.62-.18-.3-.1,0-.08.31.1Zm-.61-.21-.3-.11,0-.07.3.11Zm7.8.79-.05-.07.26-.18.05.06Zm-8.4-1-.29-.13,0-.07.29.12Zm-.59-.26-.29-.13,0-.08.29.14Zm9.51.89-.05-.06.26-.2,0,.07Zm-10.08-1.17-.29-.15,0-.07.28.15Zm-.57-.31-.27-.17,0-.07.27.17ZM259.38,153l-.05-.06.25-.2.05.06Zm-11.7-1.44-.26-.18,0-.07.26.19Zm12.2,1-.05-.06.25-.2.05.06Zm-12.72-1.42-.25-.2.05-.06.25.2Zm13.22,1-.05-.07.24-.2.05.06Zm-13.71-1.45a2.39,2.39,0,0,1-.13-.3l.08,0a1.41,1.41,0,0,0,.12.29Zm14.2,1-.05-.06.24-.21.05.06Zm-14.41-1.64c0-.1-.05-.21-.07-.32h.08a2.82,2.82,0,0,0,.07.31Zm14.89,1.22-.05-.06.23-.22.06.06Zm-15-1.86c0-.1,0-.21-.05-.32h.08c0,.11,0,.22,0,.32Zm15.48,1.42-.05-.06.23-.22.05.06Zm-15.57-2,0-.32h.08l0,.32Zm16,1.6-.06-.05c.08-.08.16-.15.23-.23l.06.06Zm.45-.46-.06,0c.06-.08.13-.16.19-.25l.06,0A2.93,2.93,0,0,1,262.73,150Zm-16.54-1.78,0-.32h.08l0,.32Zm16.9,1.25-.07,0,.15-.28.07,0A1.59,1.59,0,0,1,263.09,149.45Zm-16.95-1.89c0-.11,0-.22,0-.32h.08c0,.11,0,.22,0,.32Zm17.23,1.31-.07,0,.12-.3.07,0C263.45,148.67,263.42,148.77,263.37,148.87Zm-17.26-2c0-.11,0-.22,0-.33h.08c0,.11,0,.22,0,.32Zm17.49,1.34-.08,0c0-.1.07-.2.1-.31l.07,0Zm-17.52-2V146h.08v.32Zm17.7,1.38-.08,0c0-.1.06-.21.08-.31l.08,0C263.83,147.44,263.81,147.55,263.78,147.65Zm-17.7-2v-.32h.08v.32ZM263.93,147h-.08c0-.11,0-.21.07-.32l.08,0C264,146.82,264,146.92,263.93,147Zm-17.85-2c0-.11,0-.21,0-.32h.08c0,.11,0,.21,0,.32Zm18,1.4H264l.06-.31h.07C264.1,146.18,264.08,146.29,264.06,146.39Zm-17.95-2c0-.11,0-.22,0-.32h.08c0,.11,0,.21,0,.32Zm18.06,1.41h-.08c0-.11,0-.21,0-.32h.08C264.2,145.55,264.18,145.66,264.17,145.76Zm-18-2c0-.06,0-.13,0-.19v-.13h.08v.13c0,.06,0,.12,0,.18Zm18.1,1.42-.08,0c0-.1,0-.21,0-.31h.08C264.28,144.91,264.27,145,264.25,145.13Zm-17.95-2h-.08l.06-.32.07,0C246.34,142.87,246.32,143,246.3,143.08Zm18,1.41h-.08v0l0-.3h.08l0,.3Zm-17.91-2-.08,0a1.89,1.89,0,0,1,.1-.31l.07,0C246.48,142.24,246.45,142.34,246.42,142.46Zm17.89,1.38c0-.1,0-.21,0-.32h.08c0,.11,0,.21,0,.32Zm-17.67-2-.07,0a.53.53,0,0,1,.11-.14,1.31,1.31,0,0,1,.26-.2l0,.07a1.65,1.65,0,0,0-.25.18Zm17.71,1.33c0-.1,0-.21,0-.31h.08c0,.1,0,.21,0,.32Zm-17.09-1.79,0-.07.29-.14,0,.07Zm.59-.27,0-.07.3-.13,0,.07Zm16.53,1.43c0-.11,0-.22,0-.32h.08c0,.1,0,.21,0,.32Zm-15.94-1.68,0-.07.3-.12,0,.08Zm.59-.23,0-.07.3-.12,0,.08Zm.6-.22,0-.08.3-.11,0,.08Zm14.77,1.49v-.32h.08v.32Zm-14.16-1.71,0-.08.3-.11,0,.08Zm.6-.22,0-.07.3-.11,0,.08Zm13.56,1.29c0-.11,0-.22,0-.32h.08c0,.11,0,.21,0,.33Zm-12.95-1.5,0-.07.3-.11,0,.08Zm.6-.2,0-.08.3-.1,0,.07Zm12.33,1.06c0-.12,0-.22,0-.32h.08c0,.1,0,.21,0,.32Zm-11.72-1.27,0-.07.3-.11,0,.08Zm.61-.2,0-.08.3-.1,0,.08Zm.61-.2,0-.08.3-.09,0,.07Zm10.44,1a.68.68,0,0,0-.08-.27l0-.06h0s.07.09.11.32Zm-9.83-1.23,0-.07.3-.1,0,.08Zm9.47.82-.3-.12,0-.08.3.13Zm-8.86-1,0-.08.3-.1,0,.08Zm8.26.78a2.09,2.09,0,0,0-.3-.11l0-.08.3.11Zm-.6-.22-.31-.11,0-.07.3.1Zm-7-.76,0-.07.31-.1,0,.08Zm6.44.55-.3-.1,0-.08.31.1Zm-.61-.2-.3-.1,0-.08.31.1Zm-5.21-.54,0-.07.31-.1,0,.08Zm4.6.34-.3-.1,0-.07.31.1Zm-4-.53,0-.07.3-.1,0,.08Zm3.38.34-.31-.1,0-.07.3.09Zm-.61-.19-.31-.09,0-.08.31.09Zm-2.15-.33,0-.08.31-.09,0,.08Zm1.53.15-.31-.09,0-.07.31.08Zm-.62-.17-.31-.08,0-.07.31.07Z" style="fill:#dbdbdb"></path><rect x="248.75" y="143.06" width="0.16" height="0.32" transform="translate(68.43 366.56) rotate(-80.99)" style="fill:#dbdbdb"></rect><path d="M257.62,144.52l-.54-.05,0-.16.53.06h.1l0,.15Zm-1.16-.13-.63-.07,0-.16.63.08Zm-1.25-.15-.63-.09,0-.16.63.09Zm-1.25-.17-.63-.09,0-.16.62.09Zm-1.25-.18-.62-.09,0-.16.62.09Zm-1.25-.19-.62-.09,0-.16.63.1Zm-1.25-.19-.62-.09,0-.16.62.1Z" style="fill:#dbdbdb"></path><path d="M258.34,144.59v-.16l.32,0v.16Z" style="fill:#dbdbdb"></path><polygon points="248.87 150.25 248.56 150.2 248.58 150.04 248.9 150.09 248.87 150.25" style="fill:#dbdbdb"></polygon><path d="M256.82,151.35l-.53,0v-.16l.57.06H257l0,.16h-.14Zm-1.21-.13-.68-.09,0-.16.68.09Zm-1.35-.18-.68-.09,0-.16.67.09Zm-1.35-.18-.67-.1,0-.16.67.1Zm-1.35-.2-.67-.1,0-.16.68.1Zm-1.34-.2-.68-.1,0-.16.67.1Z" style="fill:#dbdbdb"></path><path d="M257.64,151.43v-.16l.32,0v.16Z" style="fill:#dbdbdb"></path><path d="M259.35,144.54l0-.16.62-.17,0,.15Zm1.24-.36,0-.15.62-.18,0,.15Zm1.23-.37-.05-.15.61-.2.05.15Zm1.22-.41-.06-.15c.21-.07.42-.14.6-.22l.06.15C263.45,143.26,263.25,143.33,263,143.4Zm1.2-.47-.07-.14.22-.11.07.14A2.25,2.25,0,0,1,264.24,142.93Z" style="fill:#dbdbdb"></path><path d="M258.76,151.39l-.07-.15.59-.26.07.15Zm1.17-.53-.07-.14.58-.28.07.15Zm1.16-.55-.07-.15.57-.29.08.15Zm1.14-.6-.07-.14.55-.31.08.13A5.88,5.88,0,0,1,262.23,149.71Zm1.11-.67-.1-.13.12-.08.1.12Z" style="fill:#dbdbdb"></path><path d="M258,137.47c.19.87.38,1.74.55,2.62s.36,1.74.52,2.62h0v0l0,1.77c0,.59,0,1.18,0,1.78l0,3.55v0h0c-.42,1.48-.85,3-1.32,4.44.33-1.51.7-3,1.07-4.51v0l0-3.55c0-.59,0-1.19,0-1.78v-1.75c-.15-.88-.28-1.76-.42-2.64S258.15,138.35,258,137.47Z" style="fill:#c7c7c7"></path><path d="M248.64,149.3l.1-.66s0,0,.07,0h0l.36.06a.05.05,0,0,1,.05.07s0,.05-.07.05l-.3-.05,0,.21.26,0a.06.06,0,0,1,0,.12l-.26,0,0,.27a.05.05,0,0,1-.07.05A.06.06,0,0,1,248.64,149.3Z" style="fill:#dbdbdb"></path><path d="M249.31,149.4l.1-.66s0-.05.07-.05h0l.36.05a.07.07,0,1,1,0,.13l-.31-.05,0,.21.26,0s.06,0,.06.07a.08.08,0,0,1-.07.05l-.26,0,0,.27s0,.06-.07.05A.07.07,0,0,1,249.31,149.4Z" style="fill:#dbdbdb"></path><path d="M250.28,149.3l-.13,0,0,.24s0,0-.07,0-.06,0,0-.07l.09-.66a.08.08,0,0,1,.07-.05h0l.19,0a.24.24,0,0,1,.21.27A.25.25,0,0,1,250.28,149.3Zm-.12-.15.14,0a.11.11,0,0,0,.13-.09.12.12,0,0,0-.09-.14l-.14,0Z" style="fill:#dbdbdb"></path><path d="M251.1,149.66a.07.07,0,0,1-.07.06l-.4-.06h0s0,0,0,0a.07.07,0,0,1,0-.09l.38-.25a.17.17,0,0,0,.06-.1.12.12,0,0,0,0-.1.12.12,0,0,0-.1-.06.12.12,0,0,0-.1,0l0,0a.07.07,0,1,1-.07-.11l0,0a.25.25,0,0,1,.19,0,.26.26,0,0,1,.22.3.31.31,0,0,1-.11.19l-.24.16.24,0A.08.08,0,0,1,251.1,149.66Z" style="fill:#dbdbdb"></path><path d="M244.4,140.18s-2.92-4.63-5-3.62-.06,7.63,2.29,8.64a2.43,2.43,0,0,0,3.31-1.15Z" style="fill:#eb9481"></path><path d="M240,138.44a0,0,0,0,0,0,.07,6.1,6.1,0,0,1,3,4,1.34,1.34,0,0,0-2-.46s0,.1,0,.09a1.51,1.51,0,0,1,1.62.6,8.5,8.5,0,0,1,.72,1.37c.07.15.34.09.29-.09v0C243.82,141.84,242.31,138.77,240,138.44Z" style="fill:#263238"></path><path d="M242,154.91c-5.34-1.5-11.5,17-6.73,18.56C240.86,175.27,246.58,156.21,242,154.91Z" style="fill:#eb9481"></path><path d="M235.61,164c-8.68-8-19.79-23.37-22.53-31.18-1.81-5.17,12.44-25.86,17.48-34.73,1.74-3.07,12.65,11.79,11.09,15.23-2.84,6.22-9.41,15.44-9,17.76.71,3.78,2.52,9.22,7.56,18.7C246.89,162.34,241.7,169.66,235.61,164Z" style="fill:#eb9481"></path><path d="M234.72,158.74s2.84,3.7,3.23,5.4,1,3.88,1,3.88" style="fill:#263238"></path><path d="M249.16,105.18c-1.75,3.94-7.51,8.18-7.51,8.18L229.94,99s4.57-6,5.57-10.32c.25-1,.69-6.34,2-11.69,1.47-6.08,3.8-12.26,4.43-12.68,1.2-.81,3.1.7,3.07,5s-1.54,12.74-1.5,13.27a3.74,3.74,0,0,0,.15.51h0c.13.19,5.72,2.74,6.27,5.46S249.63,104.55,249.16,105.18Z" style="fill:#eb9481"></path><path d="M240.29,90.36S238.11,80.06,239,78s4.15-14.92,5.34-15.75,3.1.7,3.07,5-1.54,12.74-1.5,13.28,3.42,9.17,3.49,10.06S240.29,90.36,240.29,90.36Z" style="fill:#eb9481"></path><path d="M238.24,84.73c0-1.15.08-2.3.13-3.46,0-.57.09-1.15.14-1.72,0-.29.06-.58.1-.87s0-.29.07-.44a3.43,3.43,0,0,1,.12-.44c.65-2.2,1.31-4.42,2-6.62s1.36-4.39,2.11-6.59a7,7,0,0,1,.81-1.59,3.22,3.22,0,0,1,.6-.68,1.52,1.52,0,0,1,.88-.37,1.23,1.23,0,0,1,.87.36,3,3,0,0,1,.52.73,6.66,6.66,0,0,1,.52,1.66,7.36,7.36,0,0,0-.67-1.58,2.28,2.28,0,0,0-.52-.63,1,1,0,0,0-.7-.24,1.8,1.8,0,0,0-1.18,1,7,7,0,0,0-.68,1.53c-.64,2.2-1.3,4.42-2,6.62S240,75.76,239.24,78a8.36,8.36,0,0,0-.35,1.64c-.08.57-.15,1.14-.22,1.71Z" style="fill:#263238"></path><path d="M242.23,91.74s-2.35-11.31-1.49-13.33,4.15-14.92,5.34-15.75,3.1.71,3.07,5-1.54,12.74-1.5,13.28,2.43,9.21,2.5,10.1S242.23,91.74,242.23,91.74Z" style="fill:#eb9481"></path><path d="M239.55,86.45c.08-1.41.22-2.82.36-4.23.08-.71.16-1.41.27-2.11,0-.35.1-.71.17-1.06a7,7,0,0,1,.27-1q1.24-4.05,2.54-8.09l1.32-4,.34-1a7.17,7.17,0,0,1,.4-1,4.34,4.34,0,0,1,.6-1,1.94,1.94,0,0,1,1-.66,1.14,1.14,0,0,1,.66,0,1.53,1.53,0,0,1,.5.36,3.12,3.12,0,0,1,.59,1,10,10,0,0,1,.58,2.08,12.38,12.38,0,0,1,0,4.25,13.43,13.43,0,0,0-.25-4.2,10.18,10.18,0,0,0-.64-2,2.87,2.87,0,0,0-.54-.81.76.76,0,0,0-.75-.26,1.44,1.44,0,0,0-.71.53,4.34,4.34,0,0,0-.51.86c-.27.6-.45,1.31-.67,2l-1.29,4c-.87,2.7-1.73,5.39-2.66,8.06a10.09,10.09,0,0,0-.3,1c-.08.34-.14.69-.21,1-.13.7-.24,1.39-.36,2.09Z" style="fill:#263238"></path><path d="M241.86,91.73s.26-10.3,1.06-12.17,2.49-10.83,3.6-11.61,2.89.66,2.86,4.68-.07,8.81,0,9.3.74,8.31.8,9.14S241.86,91.73,241.86,91.73Z" style="fill:#eb9481"></path><path d="M241.08,89c.16-1.81.35-3.62.54-5.44.09-.9.19-1.81.29-2.71l.09-.68a3.83,3.83,0,0,1,.13-.69c.1-.45.23-.89.35-1.33.52-1.75,1.07-3.49,1.69-5.21.3-.86.62-1.72,1-2.57.17-.43.34-.85.52-1.28a8.8,8.8,0,0,1,.64-1.26,1.15,1.15,0,0,1,.73-.5,1.17,1.17,0,0,1,.86.22,3.32,3.32,0,0,1,1,1.13,5.9,5.9,0,0,1,.78,2.74c0,1.83,0,3.65,0,5.47s0,3.67,0,5.45c0,.9.09,1.82.14,2.72s.09,1.83.1,2.74c-.31-1.8-.56-3.6-.76-5.43l0-5.47c0-1.82,0-3.65-.08-5.46a5.51,5.51,0,0,0-.68-2.47,2.91,2.91,0,0,0-.78-.94.5.5,0,0,0-.79.13,9.67,9.67,0,0,0-.6,1.16c-.18.41-.35.83-.52,1.25-.34.84-.66,1.69-1,2.55-.61,1.71-1.23,3.42-1.78,5.15-.14.43-.27.86-.38,1.3a9.59,9.59,0,0,0-.24,1.32l-.39,2.7Z" style="fill:#263238"></path></g></svg>